<svg width="414" height="72" viewBox="0 0 414 72" fill="none" xmlns="http://www.w3.org/2000/svg">
<rect x="0.5" y="0.5" width="413" height="71" fill="#FFF600" stroke="black"/>
<rect x="0.5" y="0.5" width="71" height="71" fill="#C5E800" stroke="black"/>
<mask id="path-3-inside-1_35_136" fill="white">
<path d="M99.312 32.608V29.408H103.568V32.096C103.568 34.912 102.245 36.32 99.6 36.32H95.568C92.9227 36.32 91.6 34.912 91.6 32.096V19.2C91.6 16.384 92.9227 14.976 95.568 14.976H99.6C102.245 14.976 103.568 16.384 103.568 19.2V21.152H99.312V18.656C99.312 18.4853 99.248 18.336 99.12 18.208C99.0133 18.08 98.8747 18.016 98.704 18.016H96.688C96.5173 18.016 96.368 18.08 96.24 18.208C96.1333 18.336 96.08 18.4853 96.08 18.656V32.608C96.08 32.7787 96.1333 32.928 96.24 33.056C96.368 33.184 96.5173 33.248 96.688 33.248H98.704C98.8747 33.248 99.0133 33.184 99.12 33.056C99.248 32.928 99.312 32.7787 99.312 32.608ZM118.448 19.2V32.096C118.448 34.912 117.126 36.32 114.48 36.32H110.224C107.579 36.32 106.256 34.912 106.256 32.096V19.2C106.256 16.384 107.579 14.976 110.224 14.976H114.48C117.126 14.976 118.448 16.384 118.448 19.2ZM113.968 32.608V18.656C113.968 18.4853 113.904 18.336 113.776 18.208C113.67 18.08 113.531 18.016 113.36 18.016H111.344C111.174 18.016 111.024 18.08 110.896 18.208C110.79 18.336 110.736 18.4853 110.736 18.656V32.608C110.736 32.7787 110.79 32.928 110.896 33.056C111.024 33.184 111.174 33.248 111.344 33.248H113.36C113.531 33.248 113.67 33.184 113.776 33.056C113.904 32.928 113.968 32.7787 113.968 32.608ZM133.628 36H129.148V18.816C129.148 18.6453 129.084 18.496 128.956 18.368C128.85 18.24 128.711 18.176 128.54 18.176H126.812C126.642 18.176 126.492 18.24 126.364 18.368C126.258 18.496 126.204 18.6453 126.204 18.816V36H121.724V19.2C121.724 16.384 123.047 14.976 125.692 14.976H129.66C132.306 14.976 133.628 16.384 133.628 19.2V36ZM135.447 19.104V15.296H146.647V19.104H143.287V36H138.807V19.104H135.447ZM153.174 15.296V36H148.694V15.296H153.174ZM168.378 36H163.898V18.816C163.898 18.6453 163.834 18.496 163.706 18.368C163.6 18.24 163.461 18.176 163.29 18.176H161.562C161.392 18.176 161.242 18.24 161.114 18.368C161.008 18.496 160.954 18.6453 160.954 18.816V36H156.474V19.2C156.474 16.384 157.797 14.976 160.442 14.976H164.41C167.056 14.976 168.378 16.384 168.378 19.2V36ZM178.773 15.296H183.253V32.096C183.253 34.912 181.931 36.32 179.285 36.32H175.317C172.672 36.32 171.349 34.912 171.349 32.096V15.296H175.829V32.48C175.829 32.6507 175.883 32.8 175.989 32.928C176.117 33.056 176.267 33.12 176.437 33.12H178.165C178.336 33.12 178.475 33.056 178.581 32.928C178.709 32.8 178.773 32.6507 178.773 32.48V15.296ZM190.799 32.288H195.759V36H186.319V15.296H195.759V18.944H190.799V23.808H195.439V27.328H190.799V32.288Z"/>
</mask>
<path d="M99.312 32.608V29.408H103.568V32.096C103.568 34.912 102.245 36.32 99.6 36.32H95.568C92.9227 36.32 91.6 34.912 91.6 32.096V19.2C91.6 16.384 92.9227 14.976 95.568 14.976H99.6C102.245 14.976 103.568 16.384 103.568 19.2V21.152H99.312V18.656C99.312 18.4853 99.248 18.336 99.12 18.208C99.0133 18.08 98.8747 18.016 98.704 18.016H96.688C96.5173 18.016 96.368 18.08 96.24 18.208C96.1333 18.336 96.08 18.4853 96.08 18.656V32.608C96.08 32.7787 96.1333 32.928 96.24 33.056C96.368 33.184 96.5173 33.248 96.688 33.248H98.704C98.8747 33.248 99.0133 33.184 99.12 33.056C99.248 32.928 99.312 32.7787 99.312 32.608ZM118.448 19.2V32.096C118.448 34.912 117.126 36.32 114.48 36.32H110.224C107.579 36.32 106.256 34.912 106.256 32.096V19.2C106.256 16.384 107.579 14.976 110.224 14.976H114.48C117.126 14.976 118.448 16.384 118.448 19.2ZM113.968 32.608V18.656C113.968 18.4853 113.904 18.336 113.776 18.208C113.67 18.08 113.531 18.016 113.36 18.016H111.344C111.174 18.016 111.024 18.08 110.896 18.208C110.79 18.336 110.736 18.4853 110.736 18.656V32.608C110.736 32.7787 110.79 32.928 110.896 33.056C111.024 33.184 111.174 33.248 111.344 33.248H113.36C113.531 33.248 113.67 33.184 113.776 33.056C113.904 32.928 113.968 32.7787 113.968 32.608ZM133.628 36H129.148V18.816C129.148 18.6453 129.084 18.496 128.956 18.368C128.85 18.24 128.711 18.176 128.54 18.176H126.812C126.642 18.176 126.492 18.24 126.364 18.368C126.258 18.496 126.204 18.6453 126.204 18.816V36H121.724V19.2C121.724 16.384 123.047 14.976 125.692 14.976H129.66C132.306 14.976 133.628 16.384 133.628 19.2V36ZM135.447 19.104V15.296H146.647V19.104H143.287V36H138.807V19.104H135.447ZM153.174 15.296V36H148.694V15.296H153.174ZM168.378 36H163.898V18.816C163.898 18.6453 163.834 18.496 163.706 18.368C163.6 18.24 163.461 18.176 163.29 18.176H161.562C161.392 18.176 161.242 18.24 161.114 18.368C161.008 18.496 160.954 18.6453 160.954 18.816V36H156.474V19.2C156.474 16.384 157.797 14.976 160.442 14.976H164.41C167.056 14.976 168.378 16.384 168.378 19.2V36ZM178.773 15.296H183.253V32.096C183.253 34.912 181.931 36.32 179.285 36.32H175.317C172.672 36.32 171.349 34.912 171.349 32.096V15.296H175.829V32.48C175.829 32.6507 175.883 32.8 175.989 32.928C176.117 33.056 176.267 33.12 176.437 33.12H178.165C178.336 33.12 178.475 33.056 178.581 32.928C178.709 32.8 178.773 32.6507 178.773 32.48V15.296ZM190.799 32.288H195.759V36H186.319V15.296H195.759V18.944H190.799V23.808H195.439V27.328H190.799V32.288Z" fill="black"/>
<path d="M99.312 29.408V28.408H98.312V29.408H99.312ZM103.568 29.408H104.568V28.408H103.568V29.408ZM103.568 21.152V22.152H104.568V21.152H103.568ZM99.312 21.152H98.312V22.152H99.312V21.152ZM99.12 18.208L98.3518 18.8482L98.3808 18.883L98.4129 18.9151L99.12 18.208ZM96.24 18.208L95.5329 17.5009L95.5008 17.533L95.4718 17.5678L96.24 18.208ZM96.24 33.056L95.4718 33.6962L95.5008 33.731L95.5329 33.7631L96.24 33.056ZM99.12 33.056L98.4129 32.3489L98.3808 32.381L98.3518 32.4158L99.12 33.056ZM99.312 32.608H100.312V29.408H99.312H98.312V32.608H99.312ZM99.312 29.408V30.408H103.568V29.408V28.408H99.312V29.408ZM103.568 29.408H102.568V32.096H103.568H104.568V29.408H103.568ZM103.568 32.096H102.568C102.568 33.3649 102.269 34.1305 101.847 34.5793C101.437 35.0164 100.752 35.32 99.6 35.32V36.32V37.32C101.093 37.32 102.393 36.9196 103.305 35.9487C104.206 34.9895 104.568 33.6431 104.568 32.096H103.568ZM99.6 36.32V35.32H95.568V36.32V37.32H99.6V36.32ZM95.568 36.32V35.32C94.416 35.32 93.7315 35.0164 93.3208 34.5793C92.8992 34.1305 92.6 33.3649 92.6 32.096H91.6H90.6C90.6 33.6431 90.9621 34.9895 91.8632 35.9487C92.7752 36.9196 94.0746 37.32 95.568 37.32V36.32ZM91.6 32.096H92.6V19.2H91.6H90.6V32.096H91.6ZM91.6 19.2H92.6C92.6 17.9311 92.8992 17.1655 93.3208 16.7167C93.7315 16.2796 94.416 15.976 95.568 15.976V14.976V13.976C94.0746 13.976 92.7752 14.3764 91.8632 15.3473C90.9621 16.3065 90.6 17.6529 90.6 19.2H91.6ZM95.568 14.976V15.976H99.6V14.976V13.976H95.568V14.976ZM99.6 14.976V15.976C100.752 15.976 101.437 16.2796 101.847 16.7167C102.269 17.1655 102.568 17.9311 102.568 19.2H103.568H104.568C104.568 17.6529 104.206 16.3065 103.305 15.3473C102.393 14.3764 101.093 13.976 99.6 13.976V14.976ZM103.568 19.2H102.568V21.152H103.568H104.568V19.2H103.568ZM103.568 21.152V20.152H99.312V21.152V22.152H103.568V21.152ZM99.312 21.152H100.312V18.656H99.312H98.312V21.152H99.312ZM99.312 18.656H100.312C100.312 18.2028 100.13 17.8038 99.8271 17.5009L99.12 18.208L98.4129 18.9151C98.3972 18.8994 98.3684 18.8648 98.3449 18.8099C98.3208 18.7539 98.312 18.6991 98.312 18.656H99.312ZM99.12 18.208L99.8882 17.5678C99.5863 17.2055 99.1631 17.016 98.704 17.016V18.016V19.016C98.6617 19.016 98.5937 19.0074 98.5169 18.972C98.4395 18.9362 98.3847 18.8877 98.3518 18.8482L99.12 18.208ZM98.704 18.016V17.016H96.688V18.016V19.016H98.704V18.016ZM96.688 18.016V17.016C96.2348 17.016 95.8358 17.198 95.5329 17.5009L96.24 18.208L96.9471 18.9151C96.9314 18.9308 96.8968 18.9596 96.8419 18.9831C96.7859 19.0072 96.7311 19.016 96.688 19.016V18.016ZM96.24 18.208L95.4718 17.5678C95.2114 17.8802 95.08 18.2576 95.08 18.656H96.08H97.08C97.08 18.6765 97.0765 18.7111 97.0617 18.7523C97.0469 18.7939 97.0263 18.8265 97.0082 18.8482L96.24 18.208ZM96.08 18.656H95.08V32.608H96.08H97.08V18.656H96.08ZM96.08 32.608H95.08C95.08 33.0064 95.2114 33.3838 95.4718 33.6962L96.24 33.056L97.0082 32.4158C97.0263 32.4375 97.0469 32.4701 97.0617 32.5117C97.0765 32.5529 97.08 32.5875 97.08 32.608H96.08ZM96.24 33.056L95.5329 33.7631C95.8358 34.066 96.2348 34.248 96.688 34.248V33.248V32.248C96.7311 32.248 96.7859 32.2568 96.8419 32.2809C96.8968 32.3044 96.9314 32.3332 96.9471 32.3489L96.24 33.056ZM96.688 33.248V34.248H98.704V33.248V32.248H96.688V33.248ZM98.704 33.248V34.248C99.1631 34.248 99.5863 34.0585 99.8882 33.6962L99.12 33.056L98.3518 32.4158C98.3847 32.3763 98.4395 32.3278 98.5169 32.292C98.5937 32.2566 98.6617 32.248 98.704 32.248V33.248ZM99.12 33.056L99.8271 33.7631C100.13 33.4602 100.312 33.0612 100.312 32.608H99.312H98.312C98.312 32.5649 98.3208 32.5101 98.3449 32.4541C98.3684 32.3992 98.3972 32.3646 98.4129 32.3489L99.12 33.056ZM113.776 18.208L113.008 18.8482L113.037 18.883L113.069 18.9151L113.776 18.208ZM110.896 18.208L110.189 17.5009L110.157 17.533L110.128 17.5678L110.896 18.208ZM110.896 33.056L110.128 33.6962L110.157 33.731L110.189 33.7631L110.896 33.056ZM113.776 33.056L113.069 32.3489L113.037 32.381L113.008 32.4158L113.776 33.056ZM118.448 19.2H117.448V32.096H118.448H119.448V19.2H118.448ZM118.448 32.096H117.448C117.448 33.3649 117.149 34.1305 116.727 34.5793C116.317 35.0164 115.632 35.32 114.48 35.32V36.32V37.32C115.974 37.32 117.273 36.9196 118.185 35.9487C119.086 34.9895 119.448 33.6431 119.448 32.096H118.448ZM114.48 36.32V35.32H110.224V36.32V37.32H114.48V36.32ZM110.224 36.32V35.32C109.072 35.32 108.388 35.0164 107.977 34.5793C107.555 34.1305 107.256 33.3649 107.256 32.096H106.256H105.256C105.256 33.6431 105.618 34.9895 106.519 35.9487C107.431 36.9196 108.731 37.32 110.224 37.32V36.32ZM106.256 32.096H107.256V19.2H106.256H105.256V32.096H106.256ZM106.256 19.2H107.256C107.256 17.9311 107.555 17.1655 107.977 16.7167C108.388 16.2796 109.072 15.976 110.224 15.976V14.976V13.976C108.731 13.976 107.431 14.3764 106.519 15.3473C105.618 16.3065 105.256 17.6529 105.256 19.2H106.256ZM110.224 14.976V15.976H114.48V14.976V13.976H110.224V14.976ZM114.48 14.976V15.976C115.632 15.976 116.317 16.2796 116.727 16.7167C117.149 17.1655 117.448 17.9311 117.448 19.2H118.448H119.448C119.448 17.6529 119.086 16.3065 118.185 15.3473C117.273 14.3764 115.974 13.976 114.48 13.976V14.976ZM113.968 32.608H114.968V18.656H113.968H112.968V32.608H113.968ZM113.968 18.656H114.968C114.968 18.2028 114.786 17.8038 114.483 17.5009L113.776 18.208L113.069 18.9151C113.053 18.8994 113.025 18.8648 113.001 18.8099C112.977 18.7539 112.968 18.6991 112.968 18.656H113.968ZM113.776 18.208L114.544 17.5678C114.243 17.2055 113.819 17.016 113.36 17.016V18.016V19.016C113.318 19.016 113.25 19.0074 113.173 18.972C113.096 18.9362 113.041 18.8877 113.008 18.8482L113.776 18.208ZM113.36 18.016V17.016H111.344V18.016V19.016H113.36V18.016ZM111.344 18.016V17.016C110.891 17.016 110.492 17.198 110.189 17.5009L110.896 18.208L111.603 18.9151C111.588 18.9308 111.553 18.9596 111.498 18.9831C111.442 19.0072 111.387 19.016 111.344 19.016V18.016ZM110.896 18.208L110.128 17.5678C109.868 17.8802 109.736 18.2576 109.736 18.656H110.736H111.736C111.736 18.6765 111.733 18.7111 111.718 18.7523C111.703 18.7939 111.683 18.8265 111.664 18.8482L110.896 18.208ZM110.736 18.656H109.736V32.608H110.736H111.736V18.656H110.736ZM110.736 32.608H109.736C109.736 33.0064 109.868 33.3838 110.128 33.6962L110.896 33.056L111.664 32.4158C111.683 32.4375 111.703 32.4701 111.718 32.5117C111.733 32.5529 111.736 32.5875 111.736 32.608H110.736ZM110.896 33.056L110.189 33.7631C110.492 34.066 110.891 34.248 111.344 34.248V33.248V32.248C111.387 32.248 111.442 32.2568 111.498 32.2809C111.553 32.3044 111.588 32.3332 111.603 32.3489L110.896 33.056ZM111.344 33.248V34.248H113.36V33.248V32.248H111.344V33.248ZM113.36 33.248V34.248C113.819 34.248 114.243 34.0585 114.544 33.6962L113.776 33.056L113.008 32.4158C113.041 32.3763 113.096 32.3278 113.173 32.292C113.25 32.2566 113.318 32.248 113.36 32.248V33.248ZM113.776 33.056L114.483 33.7631C114.786 33.4602 114.968 33.0612 114.968 32.608H113.968H112.968C112.968 32.5649 112.977 32.5101 113.001 32.4541C113.025 32.3992 113.053 32.3646 113.069 32.3489L113.776 33.056ZM133.628 36V37H134.628V36H133.628ZM129.148 36H128.148V37H129.148V36ZM128.956 18.368L128.188 19.0082L128.217 19.043L128.249 19.0751L128.956 18.368ZM126.364 18.368L125.657 17.6609L125.625 17.693L125.596 17.7278L126.364 18.368ZM126.204 36V37H127.204V36H126.204ZM121.724 36H120.724V37H121.724V36ZM133.628 36V35H129.148V36V37H133.628V36ZM129.148 36H130.148V18.816H129.148H128.148V36H129.148ZM129.148 18.816H130.148C130.148 18.3628 129.966 17.9638 129.663 17.6609L128.956 18.368L128.249 19.0751C128.233 19.0594 128.205 19.0248 128.181 18.9699C128.157 18.9139 128.148 18.8591 128.148 18.816H129.148ZM128.956 18.368L129.724 17.7278C129.423 17.3655 128.999 17.176 128.54 17.176V18.176V19.176C128.498 19.176 128.43 19.1674 128.353 19.132C128.276 19.0962 128.221 19.0477 128.188 19.0082L128.956 18.368ZM128.54 18.176V17.176H126.812V18.176V19.176H128.54V18.176ZM126.812 18.176V17.176C126.359 17.176 125.96 17.358 125.657 17.6609L126.364 18.368L127.071 19.0751C127.056 19.0908 127.021 19.1196 126.966 19.1431C126.91 19.1672 126.855 19.176 126.812 19.176V18.176ZM126.364 18.368L125.596 17.7278C125.336 18.0402 125.204 18.4176 125.204 18.816H126.204H127.204C127.204 18.8365 127.201 18.8711 127.186 18.9123C127.171 18.9539 127.151 18.9865 127.132 19.0082L126.364 18.368ZM126.204 18.816H125.204V36H126.204H127.204V18.816H126.204ZM126.204 36V35H121.724V36V37H126.204V36ZM121.724 36H122.724V19.2H121.724H120.724V36H121.724ZM121.724 19.2H122.724C122.724 17.9311 123.023 17.1655 123.445 16.7167C123.856 16.2796 124.54 15.976 125.692 15.976V14.976V13.976C124.199 13.976 122.899 14.3764 121.987 15.3473C121.086 16.3065 120.724 17.6529 120.724 19.2H121.724ZM125.692 14.976V15.976H129.66V14.976V13.976H125.692V14.976ZM129.66 14.976V15.976C130.812 15.976 131.497 16.2796 131.907 16.7167C132.329 17.1655 132.628 17.9311 132.628 19.2H133.628H134.628C134.628 17.6529 134.266 16.3065 133.365 15.3473C132.453 14.3764 131.154 13.976 129.66 13.976V14.976ZM133.628 19.2H132.628V36H133.628H134.628V19.2H133.628ZM135.447 19.104H134.447V20.104H135.447V19.104ZM135.447 15.296V14.296H134.447V15.296H135.447ZM146.647 15.296H147.647V14.296H146.647V15.296ZM146.647 19.104V20.104H147.647V19.104H146.647ZM143.287 19.104V18.104H142.287V19.104H143.287ZM143.287 36V37H144.287V36H143.287ZM138.807 36H137.807V37H138.807V36ZM138.807 19.104H139.807V18.104H138.807V19.104ZM135.447 19.104H136.447V15.296H135.447H134.447V19.104H135.447ZM135.447 15.296V16.296H146.647V15.296V14.296H135.447V15.296ZM146.647 15.296H145.647V19.104H146.647H147.647V15.296H146.647ZM146.647 19.104V18.104H143.287V19.104V20.104H146.647V19.104ZM143.287 19.104H142.287V36H143.287H144.287V19.104H143.287ZM143.287 36V35H138.807V36V37H143.287V36ZM138.807 36H139.807V19.104H138.807H137.807V36H138.807ZM138.807 19.104V18.104H135.447V19.104V20.104H138.807V19.104ZM153.174 15.296H154.174V14.296H153.174V15.296ZM153.174 36V37H154.174V36H153.174ZM148.694 36H147.694V37H148.694V36ZM148.694 15.296V14.296H147.694V15.296H148.694ZM153.174 15.296H152.174V36H153.174H154.174V15.296H153.174ZM153.174 36V35H148.694V36V37H153.174V36ZM148.694 36H149.694V15.296H148.694H147.694V36H148.694ZM148.694 15.296V16.296H153.174V15.296V14.296H148.694V15.296ZM168.378 36V37H169.378V36H168.378ZM163.898 36H162.898V37H163.898V36ZM163.706 18.368L162.938 19.0082L162.967 19.043L162.999 19.0751L163.706 18.368ZM161.114 18.368L160.407 17.6609L160.375 17.693L160.346 17.7278L161.114 18.368ZM160.954 36V37H161.954V36H160.954ZM156.474 36H155.474V37H156.474V36ZM168.378 36V35H163.898V36V37H168.378V36ZM163.898 36H164.898V18.816H163.898H162.898V36H163.898ZM163.898 18.816H164.898C164.898 18.3628 164.716 17.9638 164.413 17.6609L163.706 18.368L162.999 19.0751C162.983 19.0594 162.955 19.0248 162.931 18.9699C162.907 18.9139 162.898 18.8591 162.898 18.816H163.898ZM163.706 18.368L164.474 17.7278C164.173 17.3655 163.749 17.176 163.29 17.176V18.176V19.176C163.248 19.176 163.18 19.1674 163.103 19.132C163.026 19.0962 162.971 19.0477 162.938 19.0082L163.706 18.368ZM163.29 18.176V17.176H161.562V18.176V19.176H163.29V18.176ZM161.562 18.176V17.176C161.109 17.176 160.71 17.358 160.407 17.6609L161.114 18.368L161.821 19.0751C161.806 19.0908 161.771 19.1196 161.716 19.1431C161.66 19.1672 161.605 19.176 161.562 19.176V18.176ZM161.114 18.368L160.346 17.7278C160.086 18.0402 159.954 18.4176 159.954 18.816H160.954H161.954C161.954 18.8365 161.951 18.8711 161.936 18.9123C161.921 18.9539 161.901 18.9865 161.882 19.0082L161.114 18.368ZM160.954 18.816H159.954V36H160.954H161.954V18.816H160.954ZM160.954 36V35H156.474V36V37H160.954V36ZM156.474 36H157.474V19.2H156.474H155.474V36H156.474ZM156.474 19.2H157.474C157.474 17.9311 157.773 17.1655 158.195 16.7167C158.606 16.2796 159.29 15.976 160.442 15.976V14.976V13.976C158.949 13.976 157.649 14.3764 156.737 15.3473C155.836 16.3065 155.474 17.6529 155.474 19.2H156.474ZM160.442 14.976V15.976H164.41V14.976V13.976H160.442V14.976ZM164.41 14.976V15.976C165.562 15.976 166.247 16.2796 166.657 16.7167C167.079 17.1655 167.378 17.9311 167.378 19.2H168.378H169.378C169.378 17.6529 169.016 16.3065 168.115 15.3473C167.203 14.3764 165.904 13.976 164.41 13.976V14.976ZM168.378 19.2H167.378V36H168.378H169.378V19.2H168.378ZM178.773 15.296V14.296H177.773V15.296H178.773ZM183.253 15.296H184.253V14.296H183.253V15.296ZM171.349 15.296V14.296H170.349V15.296H171.349ZM175.829 15.296H176.829V14.296H175.829V15.296ZM175.989 32.928L175.221 33.5682L175.25 33.603L175.282 33.6351L175.989 32.928ZM178.581 32.928L177.874 32.2209L177.842 32.253L177.813 32.2878L178.581 32.928ZM178.773 15.296V16.296H183.253V15.296V14.296H178.773V15.296ZM183.253 15.296H182.253V32.096H183.253H184.253V15.296H183.253ZM183.253 32.096H182.253C182.253 33.3649 181.954 34.1305 181.532 34.5793C181.122 35.0164 180.437 35.32 179.285 35.32V36.32V37.32C180.779 37.32 182.078 36.9196 182.99 35.9487C183.891 34.9895 184.253 33.6431 184.253 32.096H183.253ZM179.285 36.32V35.32H175.317V36.32V37.32H179.285V36.32ZM175.317 36.32V35.32C174.165 35.32 173.481 35.0164 173.07 34.5793C172.648 34.1305 172.349 33.3649 172.349 32.096H171.349H170.349C170.349 33.6431 170.711 34.9895 171.612 35.9487C172.524 36.9196 173.824 37.32 175.317 37.32V36.32ZM171.349 32.096H172.349V15.296H171.349H170.349V32.096H171.349ZM171.349 15.296V16.296H175.829V15.296V14.296H171.349V15.296ZM175.829 15.296H174.829V32.48H175.829H176.829V15.296H175.829ZM175.829 32.48H174.829C174.829 32.8784 174.961 33.2558 175.221 33.5682L175.989 32.928L176.757 32.2878C176.776 32.3095 176.796 32.3421 176.811 32.3837C176.826 32.4249 176.829 32.4595 176.829 32.48H175.829ZM175.989 32.928L175.282 33.6351C175.585 33.938 175.984 34.12 176.437 34.12V33.12V32.12C176.48 32.12 176.535 32.1288 176.591 32.1529C176.646 32.1764 176.681 32.2052 176.696 32.2209L175.989 32.928ZM176.437 33.12V34.12H178.165V33.12V32.12H176.437V33.12ZM178.165 33.12V34.12C178.624 34.12 179.048 33.9305 179.349 33.5682L178.581 32.928L177.813 32.2878C177.846 32.2483 177.901 32.1998 177.978 32.164C178.055 32.1286 178.123 32.12 178.165 32.12V33.12ZM178.581 32.928L179.288 33.6351C179.591 33.3322 179.773 32.9332 179.773 32.48H178.773H177.773C177.773 32.4369 177.782 32.3821 177.806 32.3261C177.83 32.2712 177.858 32.2366 177.874 32.2209L178.581 32.928ZM178.773 32.48H179.773V15.296H178.773H177.773V32.48H178.773ZM190.799 32.288H189.799V33.288H190.799V32.288ZM195.759 32.288H196.759V31.288H195.759V32.288ZM195.759 36V37H196.759V36H195.759ZM186.319 36H185.319V37H186.319V36ZM186.319 15.296V14.296H185.319V15.296H186.319ZM195.759 15.296H196.759V14.296H195.759V15.296ZM195.759 18.944V19.944H196.759V18.944H195.759ZM190.799 18.944V17.944H189.799V18.944H190.799ZM190.799 23.808H189.799V24.808H190.799V23.808ZM195.439 23.808H196.439V22.808H195.439V23.808ZM195.439 27.328V28.328H196.439V27.328H195.439ZM190.799 27.328V26.328H189.799V27.328H190.799ZM190.799 32.288V33.288H195.759V32.288V31.288H190.799V32.288ZM195.759 32.288H194.759V36H195.759H196.759V32.288H195.759ZM195.759 36V35H186.319V36V37H195.759V36ZM186.319 36H187.319V15.296H186.319H185.319V36H186.319ZM186.319 15.296V16.296H195.759V15.296V14.296H186.319V15.296ZM195.759 15.296H194.759V18.944H195.759H196.759V15.296H195.759ZM195.759 18.944V17.944H190.799V18.944V19.944H195.759V18.944ZM190.799 18.944H189.799V23.808H190.799H191.799V18.944H190.799ZM190.799 23.808V24.808H195.439V23.808V22.808H190.799V23.808ZM195.439 23.808H194.439V27.328H195.439H196.439V23.808H195.439ZM195.439 27.328V26.328H190.799V27.328V28.328H195.439V27.328ZM190.799 27.328H189.799V32.288H190.799H191.799V27.328H190.799Z" fill="black" mask="url(#path-3-inside-1_35_136)"/>
<mask id="path-5-inside-2_35_136" fill="white">
<path d="M34.1721 29.2V42.096C34.1721 44.912 32.8495 46.32 30.2041 46.32H26.3961C23.7508 46.32 22.4281 44.912 22.4281 42.096V29.2C22.4281 26.384 23.7508 24.976 26.3961 24.976H30.2041C32.8495 24.976 34.1721 26.384 34.1721 29.2ZM29.8201 42.608V28.656C29.8201 28.4853 29.7561 28.336 29.6281 28.208C29.5215 28.08 29.3828 28.016 29.2121 28.016H27.3881C27.2175 28.016 27.0681 28.08 26.9401 28.208C26.8335 28.336 26.7801 28.4853 26.7801 28.656V42.608C26.7801 42.7787 26.8335 42.928 26.9401 43.056C27.0681 43.184 27.2175 43.248 27.3881 43.248H29.2121C29.3828 43.248 29.5215 43.184 29.6281 43.056C29.7561 42.928 29.8201 42.7787 29.8201 42.608ZM41.3121 38.896V42.32H48.2241V46H37.2161V38.544C37.2161 35.728 38.5388 34.32 41.1841 34.32H43.7441C43.9148 34.32 44.0535 34.256 44.1601 34.128C44.2881 34 44.3521 33.8507 44.3521 33.68V29.104C44.3521 28.9333 44.2881 28.784 44.1601 28.656C44.0535 28.528 43.9148 28.464 43.7441 28.464H41.8561C41.6855 28.464 41.5361 28.528 41.4081 28.656C41.3015 28.784 41.2481 28.9333 41.2481 29.104V30.736H36.9921V29.2C36.9921 26.384 38.3148 24.976 40.9601 24.976H44.5121C47.1575 24.976 48.4801 26.384 48.4801 29.2V34.032C48.4801 36.848 47.1575 38.256 44.5121 38.256H41.9201C41.7495 38.256 41.6001 38.32 41.4721 38.448C41.3655 38.576 41.3121 38.7253 41.3121 38.896Z"/>
</mask>
<path d="M34.1721 29.2V42.096C34.1721 44.912 32.8495 46.32 30.2041 46.32H26.3961C23.7508 46.32 22.4281 44.912 22.4281 42.096V29.2C22.4281 26.384 23.7508 24.976 26.3961 24.976H30.2041C32.8495 24.976 34.1721 26.384 34.1721 29.2ZM29.8201 42.608V28.656C29.8201 28.4853 29.7561 28.336 29.6281 28.208C29.5215 28.08 29.3828 28.016 29.2121 28.016H27.3881C27.2175 28.016 27.0681 28.08 26.9401 28.208C26.8335 28.336 26.7801 28.4853 26.7801 28.656V42.608C26.7801 42.7787 26.8335 42.928 26.9401 43.056C27.0681 43.184 27.2175 43.248 27.3881 43.248H29.2121C29.3828 43.248 29.5215 43.184 29.6281 43.056C29.7561 42.928 29.8201 42.7787 29.8201 42.608ZM41.3121 38.896V42.32H48.2241V46H37.2161V38.544C37.2161 35.728 38.5388 34.32 41.1841 34.32H43.7441C43.9148 34.32 44.0535 34.256 44.1601 34.128C44.2881 34 44.3521 33.8507 44.3521 33.68V29.104C44.3521 28.9333 44.2881 28.784 44.1601 28.656C44.0535 28.528 43.9148 28.464 43.7441 28.464H41.8561C41.6855 28.464 41.5361 28.528 41.4081 28.656C41.3015 28.784 41.2481 28.9333 41.2481 29.104V30.736H36.9921V29.2C36.9921 26.384 38.3148 24.976 40.9601 24.976H44.5121C47.1575 24.976 48.4801 26.384 48.4801 29.2V34.032C48.4801 36.848 47.1575 38.256 44.5121 38.256H41.9201C41.7495 38.256 41.6001 38.32 41.4721 38.448C41.3655 38.576 41.3121 38.7253 41.3121 38.896Z" fill="white"/>
<path d="M29.6281 28.208L28.8599 28.8482L28.8889 28.883L28.921 28.9151L29.6281 28.208ZM26.9401 28.208L26.233 27.5009L26.2009 27.533L26.1719 27.5678L26.9401 28.208ZM26.9401 43.056L26.1719 43.6962L26.2009 43.731L26.233 43.7631L26.9401 43.056ZM29.6281 43.056L28.921 42.3489L28.8889 42.381L28.8599 42.4158L29.6281 43.056ZM34.1721 29.2H33.1721V42.096H34.1721H35.1721V29.2H34.1721ZM34.1721 42.096H33.1721C33.1721 43.3649 32.8729 44.1305 32.4513 44.5793C32.0407 45.0164 31.3561 45.32 30.2041 45.32V46.32V47.32C31.6975 47.32 32.9969 46.9196 33.909 45.9487C34.81 44.9895 35.1721 43.6431 35.1721 42.096H34.1721ZM30.2041 46.32V45.32H26.3961V46.32V47.32H30.2041V46.32ZM26.3961 46.32V45.32C25.2442 45.32 24.5596 45.0164 24.149 44.5793C23.7273 44.1305 23.4281 43.3649 23.4281 42.096H22.4281H21.4281C21.4281 43.6431 21.7903 44.9895 22.6913 45.9487C23.6033 46.9196 24.9028 47.32 26.3961 47.32V46.32ZM22.4281 42.096H23.4281V29.2H22.4281H21.4281V42.096H22.4281ZM22.4281 29.2H23.4281C23.4281 27.9311 23.7273 27.1655 24.149 26.7167C24.5596 26.2796 25.2442 25.976 26.3961 25.976V24.976V23.976C24.9028 23.976 23.6033 24.3764 22.6913 25.3473C21.7903 26.3065 21.4281 27.6529 21.4281 29.2H22.4281ZM26.3961 24.976V25.976H30.2041V24.976V23.976H26.3961V24.976ZM30.2041 24.976V25.976C31.3561 25.976 32.0407 26.2796 32.4513 26.7167C32.8729 27.1655 33.1721 27.9311 33.1721 29.2H34.1721H35.1721C35.1721 27.6529 34.81 26.3065 33.909 25.3473C32.9969 24.3764 31.6975 23.976 30.2041 23.976V24.976ZM29.8201 42.608H30.8201V28.656H29.8201H28.8201V42.608H29.8201ZM29.8201 28.656H30.8201C30.8201 28.2028 30.6381 27.8038 30.3352 27.5009L29.6281 28.208L28.921 28.9151C28.9053 28.8994 28.8765 28.8648 28.853 28.8099C28.829 28.7539 28.8201 28.6991 28.8201 28.656H29.8201ZM29.6281 28.208L30.3963 27.5678C30.0944 27.2055 29.6712 27.016 29.2121 27.016V28.016V29.016C29.1699 29.016 29.1018 29.0074 29.0251 28.972C28.9477 28.9362 28.8929 28.8877 28.8599 28.8482L29.6281 28.208ZM29.2121 28.016V27.016H27.3881V28.016V29.016H29.2121V28.016ZM27.3881 28.016V27.016C26.9349 27.016 26.5359 27.198 26.233 27.5009L26.9401 28.208L27.6472 28.9151C27.6315 28.9308 27.5969 28.9596 27.542 28.9831C27.486 29.0072 27.4313 29.016 27.3881 29.016V28.016ZM26.9401 28.208L26.1719 27.5678C25.9116 27.8802 25.7801 28.2576 25.7801 28.656H26.7801H27.7801C27.7801 28.6765 27.7766 28.7111 27.7619 28.7523C27.747 28.7939 27.7264 28.8265 27.7083 28.8482L26.9401 28.208ZM26.7801 28.656H25.7801V42.608H26.7801H27.7801V28.656H26.7801ZM26.7801 42.608H25.7801C25.7801 43.0064 25.9116 43.3838 26.1719 43.6962L26.9401 43.056L27.7083 42.4158C27.7264 42.4375 27.747 42.4701 27.7619 42.5117C27.7766 42.5529 27.7801 42.5875 27.7801 42.608H26.7801ZM26.9401 43.056L26.233 43.7631C26.5359 44.066 26.9349 44.248 27.3881 44.248V43.248V42.248C27.4313 42.248 27.486 42.2568 27.542 42.2809C27.5969 42.3044 27.6315 42.3332 27.6472 42.3489L26.9401 43.056ZM27.3881 43.248V44.248H29.2121V43.248V42.248H27.3881V43.248ZM29.2121 43.248V44.248C29.6712 44.248 30.0944 44.0585 30.3963 43.6962L29.6281 43.056L28.8599 42.4158C28.8929 42.3763 28.9477 42.3278 29.0251 42.292C29.1018 42.2566 29.1699 42.248 29.2121 42.248V43.248ZM29.6281 43.056L30.3352 43.7631C30.6381 43.4602 30.8201 43.0612 30.8201 42.608H29.8201H28.8201C28.8201 42.5649 28.829 42.5101 28.853 42.4541C28.8765 42.3992 28.9053 42.3646 28.921 42.3489L29.6281 43.056ZM41.3121 42.32H40.3121V43.32H41.3121V42.32ZM48.2241 42.32H49.2241V41.32H48.2241V42.32ZM48.2241 46V47H49.2241V46H48.2241ZM37.2161 46H36.2161V47H37.2161V46ZM44.1601 34.128L43.453 33.4209L43.4209 33.453L43.3919 33.4878L44.1601 34.128ZM44.1601 28.656L43.3919 29.2962L43.4209 29.331L43.453 29.3631L44.1601 28.656ZM41.4081 28.656L40.701 27.9489L40.6689 27.981L40.6399 28.0158L41.4081 28.656ZM41.2481 30.736V31.736H42.2481V30.736H41.2481ZM36.9921 30.736H35.9921V31.736H36.9921V30.736ZM41.4721 38.448L40.765 37.7409L40.7329 37.773L40.7039 37.8078L41.4721 38.448ZM41.3121 38.896H40.3121V42.32H41.3121H42.3121V38.896H41.3121ZM41.3121 42.32V43.32H48.2241V42.32V41.32H41.3121V42.32ZM48.2241 42.32H47.2241V46H48.2241H49.2241V42.32H48.2241ZM48.2241 46V45H37.2161V46V47H48.2241V46ZM37.2161 46H38.2161V38.544H37.2161H36.2161V46H37.2161ZM37.2161 38.544H38.2161C38.2161 37.2751 38.5153 36.5095 38.937 36.0607C39.3476 35.6236 40.0322 35.32 41.1841 35.32V34.32V33.32C39.6908 33.32 38.3913 33.7204 37.4793 34.6913C36.5783 35.6505 36.2161 36.9969 36.2161 38.544H37.2161ZM41.1841 34.32V35.32H43.7441V34.32V33.32H41.1841V34.32ZM43.7441 34.32V35.32C44.2032 35.32 44.6264 35.1305 44.9283 34.7682L44.1601 34.128L43.3919 33.4878C43.4249 33.4483 43.4797 33.3998 43.5571 33.364C43.6338 33.3286 43.7019 33.32 43.7441 33.32V34.32ZM44.1601 34.128L44.8672 34.8351C45.1701 34.5322 45.3521 34.1332 45.3521 33.68H44.3521H43.3521C43.3521 33.6369 43.361 33.5821 43.385 33.5261C43.4085 33.4712 43.4373 33.4366 43.453 33.4209L44.1601 34.128ZM44.3521 33.68H45.3521V29.104H44.3521H43.3521V33.68H44.3521ZM44.3521 29.104H45.3521C45.3521 28.6508 45.1701 28.2518 44.8672 27.9489L44.1601 28.656L43.453 29.3631C43.4373 29.3474 43.4085 29.3128 43.385 29.2579C43.361 29.2019 43.3521 29.1471 43.3521 29.104H44.3521ZM44.1601 28.656L44.9283 28.0158C44.6264 27.6535 44.2032 27.464 43.7441 27.464V28.464V29.464C43.7019 29.464 43.6338 29.4554 43.5571 29.42C43.4797 29.3842 43.4249 29.3357 43.3919 29.2962L44.1601 28.656ZM43.7441 28.464V27.464H41.8561V28.464V29.464H43.7441V28.464ZM41.8561 28.464V27.464C41.4029 27.464 41.0039 27.646 40.701 27.9489L41.4081 28.656L42.1152 29.3631C42.0995 29.3788 42.0649 29.4076 42.01 29.4311C41.954 29.4552 41.8993 29.464 41.8561 29.464V28.464ZM41.4081 28.656L40.6399 28.0158C40.3796 28.3282 40.2481 28.7056 40.2481 29.104H41.2481H42.2481C42.2481 29.1245 42.2446 29.1591 42.2299 29.2003C42.215 29.2419 42.1944 29.2745 42.1763 29.2962L41.4081 28.656ZM41.2481 29.104H40.2481V30.736H41.2481H42.2481V29.104H41.2481ZM41.2481 30.736V29.736H36.9921V30.736V31.736H41.2481V30.736ZM36.9921 30.736H37.9921V29.2H36.9921H35.9921V30.736H36.9921ZM36.9921 29.2H37.9921C37.9921 27.9311 38.2913 27.1655 38.713 26.7167C39.1236 26.2796 39.8082 25.976 40.9601 25.976V24.976V23.976C39.4668 23.976 38.1673 24.3764 37.2553 25.3473C36.3543 26.3065 35.9921 27.6529 35.9921 29.2H36.9921ZM40.9601 24.976V25.976H44.5121V24.976V23.976H40.9601V24.976ZM44.5121 24.976V25.976C45.6641 25.976 46.3487 26.2796 46.7593 26.7167C47.1809 27.1655 47.4801 27.9311 47.4801 29.2H48.4801H49.4801C49.4801 27.6529 49.118 26.3065 48.217 25.3473C47.3049 24.3764 46.0055 23.976 44.5121 23.976V24.976ZM48.4801 29.2H47.4801V34.032H48.4801H49.4801V29.2H48.4801ZM48.4801 34.032H47.4801C47.4801 35.3009 47.1809 36.0665 46.7593 36.5153C46.3487 36.9524 45.6641 37.256 44.5121 37.256V38.256V39.256C46.0055 39.256 47.3049 38.8556 48.217 37.8847C49.118 36.9255 49.4801 35.5791 49.4801 34.032H48.4801ZM44.5121 38.256V37.256H41.9201V38.256V39.256H44.5121V38.256ZM41.9201 38.256V37.256C41.4669 37.256 41.0679 37.438 40.765 37.7409L41.4721 38.448L42.1792 39.1551C42.1635 39.1708 42.1289 39.1996 42.074 39.2231C42.018 39.2472 41.9633 39.256 41.9201 39.256V38.256ZM41.4721 38.448L40.7039 37.8078C40.4436 38.1202 40.3121 38.4976 40.3121 38.896H41.3121H42.3121C42.3121 38.9165 42.3086 38.9511 42.2939 38.9923C42.279 39.0339 42.2584 39.0665 42.2403 39.0882L41.4721 38.448Z" fill="black" mask="url(#path-5-inside-2_35_136)"/>
<mask id="path-7-inside-3_35_136" fill="white">
<path d="M95.238 61.092V59.292H97.632V60.804C97.632 62.388 96.888 63.18 95.4 63.18H93.132C91.644 63.18 90.9 62.388 90.9 60.804V53.55C90.9 51.966 91.644 51.174 93.132 51.174H95.4C96.888 51.174 97.632 51.966 97.632 53.55V54.648H95.238V53.244C95.238 53.148 95.202 53.064 95.13 52.992C95.07 52.92 94.992 52.884 94.896 52.884H93.762C93.666 52.884 93.582 52.92 93.51 52.992C93.45 53.064 93.42 53.148 93.42 53.244V61.092C93.42 61.188 93.45 61.272 93.51 61.344C93.582 61.416 93.666 61.452 93.762 61.452H94.896C94.992 61.452 95.07 61.416 95.13 61.344C95.202 61.272 95.238 61.188 95.238 61.092ZM106.002 53.55V60.804C106.002 62.388 105.258 63.18 103.77 63.18H101.376C99.8881 63.18 99.1441 62.388 99.1441 60.804V53.55C99.1441 51.966 99.8881 51.174 101.376 51.174H103.77C105.258 51.174 106.002 51.966 106.002 53.55ZM103.482 61.092V53.244C103.482 53.148 103.446 53.064 103.374 52.992C103.314 52.92 103.236 52.884 103.14 52.884H102.006C101.91 52.884 101.826 52.92 101.754 52.992C101.694 53.064 101.664 53.148 101.664 53.244V61.092C101.664 61.188 101.694 61.272 101.754 61.344C101.826 61.416 101.91 61.452 102.006 61.452H103.14C103.236 61.452 103.314 61.416 103.374 61.344C103.446 61.272 103.482 61.188 103.482 61.092ZM114.541 63H112.021V53.334C112.021 53.238 111.985 53.154 111.913 53.082C111.853 53.01 111.775 52.974 111.679 52.974H110.707C110.611 52.974 110.527 53.01 110.455 53.082C110.395 53.154 110.365 53.238 110.365 53.334V63H107.845V53.55C107.845 51.966 108.589 51.174 110.077 51.174H112.309C113.797 51.174 114.541 51.966 114.541 53.55V63ZM115.564 53.496V51.354H121.864V53.496H119.974V63H117.454V53.496H115.564ZM125.535 51.354V63H123.015V51.354H125.535ZM134.088 63H131.568V53.334C131.568 53.238 131.532 53.154 131.46 53.082C131.4 53.01 131.322 52.974 131.226 52.974H130.254C130.158 52.974 130.074 53.01 130.002 53.082C129.942 53.154 129.912 53.238 129.912 53.334V63H127.392V53.55C127.392 51.966 128.136 51.174 129.624 51.174H131.856C133.344 51.174 134.088 51.966 134.088 53.55V63ZM139.935 51.354H142.455V60.804C142.455 62.388 141.711 63.18 140.223 63.18H137.991C136.503 63.18 135.759 62.388 135.759 60.804V51.354H138.279V61.02C138.279 61.116 138.309 61.2 138.369 61.272C138.441 61.344 138.525 61.38 138.621 61.38H139.593C139.689 61.38 139.767 61.344 139.827 61.272C139.899 61.2 139.935 61.116 139.935 61.02V51.354ZM146.699 60.912H149.489V63H144.179V51.354H149.489V53.406H146.699V56.142H149.309V58.122H146.699V60.912ZM157.106 58.428V63H154.586V51.354H159.842V53.532H157.106V56.322H159.662V58.428H157.106ZM163.838 58.23V63H161.318V51.354H165.8C167.288 51.354 168.032 52.146 168.032 53.73V55.08C168.032 56.04 167.69 56.652 167.006 56.916C167.606 57.132 167.906 57.624 167.906 58.392V63H165.386V58.59C165.386 58.35 165.272 58.23 165.044 58.23H163.838ZM163.838 53.064V56.466H165.17C165.266 56.466 165.344 56.43 165.404 56.358C165.476 56.286 165.512 56.202 165.512 56.106V53.424C165.512 53.328 165.476 53.244 165.404 53.172C165.344 53.1 165.266 53.064 165.17 53.064H163.838ZM176.508 53.55V60.804C176.508 62.388 175.764 63.18 174.276 63.18H171.882C170.394 63.18 169.65 62.388 169.65 60.804V53.55C169.65 51.966 170.394 51.174 171.882 51.174H174.276C175.764 51.174 176.508 51.966 176.508 53.55ZM173.988 61.092V53.244C173.988 53.148 173.952 53.064 173.88 52.992C173.82 52.92 173.742 52.884 173.646 52.884H172.512C172.416 52.884 172.332 52.92 172.26 52.992C172.2 53.064 172.17 53.148 172.17 53.244V61.092C172.17 61.188 172.2 61.272 172.26 61.344C172.332 61.416 172.416 61.452 172.512 61.452H173.646C173.742 61.452 173.82 61.416 173.88 61.344C173.952 61.272 173.988 61.188 173.988 61.092ZM180.871 63H178.351V53.55C178.351 51.966 179.095 51.174 180.583 51.174H181.915C182.791 51.174 183.415 51.462 183.787 52.038C184.135 51.462 184.759 51.174 185.659 51.174H186.991C188.479 51.174 189.223 51.966 189.223 53.55V63H186.703V53.334C186.703 53.238 186.667 53.154 186.595 53.082C186.535 53.01 186.457 52.974 186.361 52.974H185.389C185.293 52.974 185.209 53.01 185.137 53.082C185.077 53.154 185.047 53.238 185.047 53.334V63H182.527V53.334C182.527 53.238 182.491 53.154 182.419 53.082C182.359 53.01 182.281 52.974 182.185 52.974H181.213C181.117 52.974 181.033 53.01 180.961 53.082C180.901 53.154 180.871 53.238 180.871 53.334V63ZM198.895 51.354H201.127L202.477 60.12L203.485 51.354H205.933L204.043 63H201.181L200.011 55.854L198.841 63H195.979L194.089 51.354H196.537L197.545 60.12L198.895 51.354ZM209.84 58.428V63H207.32V51.354H209.84V56.232H211.838V51.354H214.358V63H211.838V58.428H209.84ZM218.682 60.912H221.472V63H216.162V51.354H221.472V53.406H218.682V56.142H221.292V58.122H218.682V60.912ZM225.449 58.23V63H222.929V51.354H227.411C228.899 51.354 229.643 52.146 229.643 53.73V55.08C229.643 56.04 229.301 56.652 228.617 56.916C229.217 57.132 229.517 57.624 229.517 58.392V63H226.997V58.59C226.997 58.35 226.883 58.23 226.655 58.23H225.449ZM225.449 53.064V56.466H226.781C226.877 56.466 226.955 56.43 227.015 56.358C227.087 56.286 227.123 56.202 227.123 56.106V53.424C227.123 53.328 227.087 53.244 227.015 53.172C226.955 53.1 226.877 53.064 226.781 53.064H225.449ZM233.781 60.912H236.571V63H231.261V51.354H236.571V53.406H233.781V56.142H236.391V58.122H233.781V60.912ZM248.418 51.354L245.916 58.752V63H243.396V58.752L240.894 51.354H243.27L244.656 56.214L246.042 51.354H248.418ZM256.348 53.55V60.804C256.348 62.388 255.604 63.18 254.116 63.18H251.722C250.234 63.18 249.49 62.388 249.49 60.804V53.55C249.49 51.966 250.234 51.174 251.722 51.174H254.116C255.604 51.174 256.348 51.966 256.348 53.55ZM253.828 61.092V53.244C253.828 53.148 253.792 53.064 253.72 52.992C253.66 52.92 253.582 52.884 253.486 52.884H252.352C252.256 52.884 252.172 52.92 252.1 52.992C252.04 53.064 252.01 53.148 252.01 53.244V61.092C252.01 61.188 252.04 61.272 252.1 61.344C252.172 61.416 252.256 61.452 252.352 61.452H253.486C253.582 61.452 253.66 61.416 253.72 61.344C253.792 61.272 253.828 61.188 253.828 61.092ZM262.367 51.354H264.887V60.804C264.887 62.388 264.143 63.18 262.655 63.18H260.423C258.935 63.18 258.191 62.388 258.191 60.804V51.354H260.711V61.02C260.711 61.116 260.741 61.2 260.801 61.272C260.873 61.344 260.957 61.38 261.053 61.38H262.025C262.121 61.38 262.199 61.344 262.259 61.272C262.331 61.2 262.367 61.116 262.367 61.02V51.354ZM272.77 60.876H275.524V63H270.25V51.354H272.77V60.876ZM279.238 60.912H282.028V63H276.718V51.354H282.028V53.406H279.238V56.142H281.848V58.122H279.238V60.912ZM286.006 58.428V63H283.486V51.354H288.742V53.532H286.006V56.322H288.562V58.428H286.006ZM289.552 53.496V51.354H295.852V53.496H293.962V63H291.442V53.496H289.552ZM307.5 53.55V60.804C307.5 62.388 306.756 63.18 305.268 63.18H302.874C301.386 63.18 300.642 62.388 300.642 60.804V53.55C300.642 51.966 301.386 51.174 302.874 51.174H305.268C306.756 51.174 307.5 51.966 307.5 53.55ZM304.98 61.092V53.244C304.98 53.148 304.944 53.064 304.872 52.992C304.812 52.92 304.734 52.884 304.638 52.884H303.504C303.408 52.884 303.324 52.92 303.252 52.992C303.192 53.064 303.162 53.148 303.162 53.244V61.092C303.162 61.188 303.192 61.272 303.252 61.344C303.324 61.416 303.408 61.452 303.504 61.452H304.638C304.734 61.452 304.812 61.416 304.872 61.344C304.944 61.272 304.98 61.188 304.98 61.092ZM311.881 58.428V63H309.361V51.354H314.617V53.532H311.881V56.322H314.437V58.428H311.881ZM318.613 58.428V63H316.093V51.354H321.349V53.532H318.613V56.322H321.169V58.428H318.613Z"/>
</mask>
<path d="M95.238 61.092V59.292H97.632V60.804C97.632 62.388 96.888 63.18 95.4 63.18H93.132C91.644 63.18 90.9 62.388 90.9 60.804V53.55C90.9 51.966 91.644 51.174 93.132 51.174H95.4C96.888 51.174 97.632 51.966 97.632 53.55V54.648H95.238V53.244C95.238 53.148 95.202 53.064 95.13 52.992C95.07 52.92 94.992 52.884 94.896 52.884H93.762C93.666 52.884 93.582 52.92 93.51 52.992C93.45 53.064 93.42 53.148 93.42 53.244V61.092C93.42 61.188 93.45 61.272 93.51 61.344C93.582 61.416 93.666 61.452 93.762 61.452H94.896C94.992 61.452 95.07 61.416 95.13 61.344C95.202 61.272 95.238 61.188 95.238 61.092ZM106.002 53.55V60.804C106.002 62.388 105.258 63.18 103.77 63.18H101.376C99.8881 63.18 99.1441 62.388 99.1441 60.804V53.55C99.1441 51.966 99.8881 51.174 101.376 51.174H103.77C105.258 51.174 106.002 51.966 106.002 53.55ZM103.482 61.092V53.244C103.482 53.148 103.446 53.064 103.374 52.992C103.314 52.92 103.236 52.884 103.14 52.884H102.006C101.91 52.884 101.826 52.92 101.754 52.992C101.694 53.064 101.664 53.148 101.664 53.244V61.092C101.664 61.188 101.694 61.272 101.754 61.344C101.826 61.416 101.91 61.452 102.006 61.452H103.14C103.236 61.452 103.314 61.416 103.374 61.344C103.446 61.272 103.482 61.188 103.482 61.092ZM114.541 63H112.021V53.334C112.021 53.238 111.985 53.154 111.913 53.082C111.853 53.01 111.775 52.974 111.679 52.974H110.707C110.611 52.974 110.527 53.01 110.455 53.082C110.395 53.154 110.365 53.238 110.365 53.334V63H107.845V53.55C107.845 51.966 108.589 51.174 110.077 51.174H112.309C113.797 51.174 114.541 51.966 114.541 53.55V63ZM115.564 53.496V51.354H121.864V53.496H119.974V63H117.454V53.496H115.564ZM125.535 51.354V63H123.015V51.354H125.535ZM134.088 63H131.568V53.334C131.568 53.238 131.532 53.154 131.46 53.082C131.4 53.01 131.322 52.974 131.226 52.974H130.254C130.158 52.974 130.074 53.01 130.002 53.082C129.942 53.154 129.912 53.238 129.912 53.334V63H127.392V53.55C127.392 51.966 128.136 51.174 129.624 51.174H131.856C133.344 51.174 134.088 51.966 134.088 53.55V63ZM139.935 51.354H142.455V60.804C142.455 62.388 141.711 63.18 140.223 63.18H137.991C136.503 63.18 135.759 62.388 135.759 60.804V51.354H138.279V61.02C138.279 61.116 138.309 61.2 138.369 61.272C138.441 61.344 138.525 61.38 138.621 61.38H139.593C139.689 61.38 139.767 61.344 139.827 61.272C139.899 61.2 139.935 61.116 139.935 61.02V51.354ZM146.699 60.912H149.489V63H144.179V51.354H149.489V53.406H146.699V56.142H149.309V58.122H146.699V60.912ZM157.106 58.428V63H154.586V51.354H159.842V53.532H157.106V56.322H159.662V58.428H157.106ZM163.838 58.23V63H161.318V51.354H165.8C167.288 51.354 168.032 52.146 168.032 53.73V55.08C168.032 56.04 167.69 56.652 167.006 56.916C167.606 57.132 167.906 57.624 167.906 58.392V63H165.386V58.59C165.386 58.35 165.272 58.23 165.044 58.23H163.838ZM163.838 53.064V56.466H165.17C165.266 56.466 165.344 56.43 165.404 56.358C165.476 56.286 165.512 56.202 165.512 56.106V53.424C165.512 53.328 165.476 53.244 165.404 53.172C165.344 53.1 165.266 53.064 165.17 53.064H163.838ZM176.508 53.55V60.804C176.508 62.388 175.764 63.18 174.276 63.18H171.882C170.394 63.18 169.65 62.388 169.65 60.804V53.55C169.65 51.966 170.394 51.174 171.882 51.174H174.276C175.764 51.174 176.508 51.966 176.508 53.55ZM173.988 61.092V53.244C173.988 53.148 173.952 53.064 173.88 52.992C173.82 52.92 173.742 52.884 173.646 52.884H172.512C172.416 52.884 172.332 52.92 172.26 52.992C172.2 53.064 172.17 53.148 172.17 53.244V61.092C172.17 61.188 172.2 61.272 172.26 61.344C172.332 61.416 172.416 61.452 172.512 61.452H173.646C173.742 61.452 173.82 61.416 173.88 61.344C173.952 61.272 173.988 61.188 173.988 61.092ZM180.871 63H178.351V53.55C178.351 51.966 179.095 51.174 180.583 51.174H181.915C182.791 51.174 183.415 51.462 183.787 52.038C184.135 51.462 184.759 51.174 185.659 51.174H186.991C188.479 51.174 189.223 51.966 189.223 53.55V63H186.703V53.334C186.703 53.238 186.667 53.154 186.595 53.082C186.535 53.01 186.457 52.974 186.361 52.974H185.389C185.293 52.974 185.209 53.01 185.137 53.082C185.077 53.154 185.047 53.238 185.047 53.334V63H182.527V53.334C182.527 53.238 182.491 53.154 182.419 53.082C182.359 53.01 182.281 52.974 182.185 52.974H181.213C181.117 52.974 181.033 53.01 180.961 53.082C180.901 53.154 180.871 53.238 180.871 53.334V63ZM198.895 51.354H201.127L202.477 60.12L203.485 51.354H205.933L204.043 63H201.181L200.011 55.854L198.841 63H195.979L194.089 51.354H196.537L197.545 60.12L198.895 51.354ZM209.84 58.428V63H207.32V51.354H209.84V56.232H211.838V51.354H214.358V63H211.838V58.428H209.84ZM218.682 60.912H221.472V63H216.162V51.354H221.472V53.406H218.682V56.142H221.292V58.122H218.682V60.912ZM225.449 58.23V63H222.929V51.354H227.411C228.899 51.354 229.643 52.146 229.643 53.73V55.08C229.643 56.04 229.301 56.652 228.617 56.916C229.217 57.132 229.517 57.624 229.517 58.392V63H226.997V58.59C226.997 58.35 226.883 58.23 226.655 58.23H225.449ZM225.449 53.064V56.466H226.781C226.877 56.466 226.955 56.43 227.015 56.358C227.087 56.286 227.123 56.202 227.123 56.106V53.424C227.123 53.328 227.087 53.244 227.015 53.172C226.955 53.1 226.877 53.064 226.781 53.064H225.449ZM233.781 60.912H236.571V63H231.261V51.354H236.571V53.406H233.781V56.142H236.391V58.122H233.781V60.912ZM248.418 51.354L245.916 58.752V63H243.396V58.752L240.894 51.354H243.27L244.656 56.214L246.042 51.354H248.418ZM256.348 53.55V60.804C256.348 62.388 255.604 63.18 254.116 63.18H251.722C250.234 63.18 249.49 62.388 249.49 60.804V53.55C249.49 51.966 250.234 51.174 251.722 51.174H254.116C255.604 51.174 256.348 51.966 256.348 53.55ZM253.828 61.092V53.244C253.828 53.148 253.792 53.064 253.72 52.992C253.66 52.92 253.582 52.884 253.486 52.884H252.352C252.256 52.884 252.172 52.92 252.1 52.992C252.04 53.064 252.01 53.148 252.01 53.244V61.092C252.01 61.188 252.04 61.272 252.1 61.344C252.172 61.416 252.256 61.452 252.352 61.452H253.486C253.582 61.452 253.66 61.416 253.72 61.344C253.792 61.272 253.828 61.188 253.828 61.092ZM262.367 51.354H264.887V60.804C264.887 62.388 264.143 63.18 262.655 63.18H260.423C258.935 63.18 258.191 62.388 258.191 60.804V51.354H260.711V61.02C260.711 61.116 260.741 61.2 260.801 61.272C260.873 61.344 260.957 61.38 261.053 61.38H262.025C262.121 61.38 262.199 61.344 262.259 61.272C262.331 61.2 262.367 61.116 262.367 61.02V51.354ZM272.77 60.876H275.524V63H270.25V51.354H272.77V60.876ZM279.238 60.912H282.028V63H276.718V51.354H282.028V53.406H279.238V56.142H281.848V58.122H279.238V60.912ZM286.006 58.428V63H283.486V51.354H288.742V53.532H286.006V56.322H288.562V58.428H286.006ZM289.552 53.496V51.354H295.852V53.496H293.962V63H291.442V53.496H289.552ZM307.5 53.55V60.804C307.5 62.388 306.756 63.18 305.268 63.18H302.874C301.386 63.18 300.642 62.388 300.642 60.804V53.55C300.642 51.966 301.386 51.174 302.874 51.174H305.268C306.756 51.174 307.5 51.966 307.5 53.55ZM304.98 61.092V53.244C304.98 53.148 304.944 53.064 304.872 52.992C304.812 52.92 304.734 52.884 304.638 52.884H303.504C303.408 52.884 303.324 52.92 303.252 52.992C303.192 53.064 303.162 53.148 303.162 53.244V61.092C303.162 61.188 303.192 61.272 303.252 61.344C303.324 61.416 303.408 61.452 303.504 61.452H304.638C304.734 61.452 304.812 61.416 304.872 61.344C304.944 61.272 304.98 61.188 304.98 61.092ZM311.881 58.428V63H309.361V51.354H314.617V53.532H311.881V56.322H314.437V58.428H311.881ZM318.613 58.428V63H316.093V51.354H321.349V53.532H318.613V56.322H321.169V58.428H318.613Z" fill="black"/>
<path d="M95.238 59.292V58.292H94.238V59.292H95.238ZM97.632 59.292H98.632V58.292H97.632V59.292ZM97.632 54.648V55.648H98.632V54.648H97.632ZM95.238 54.648H94.238V55.648H95.238V54.648ZM95.13 52.992L94.3618 53.6322L94.3908 53.667L94.4229 53.6991L95.13 52.992ZM93.51 52.992L92.8029 52.2849L92.7708 52.317L92.7418 52.3518L93.51 52.992ZM93.51 61.344L92.7418 61.9842L92.7708 62.019L92.8029 62.0511L93.51 61.344ZM95.13 61.344L94.4229 60.6369L94.3908 60.669L94.3618 60.7038L95.13 61.344ZM95.238 61.092H96.238V59.292H95.238H94.238V61.092H95.238ZM95.238 59.292V60.292H97.632V59.292V58.292H95.238V59.292ZM97.632 59.292H96.632V60.804H97.632H98.632V59.292H97.632ZM97.632 60.804H96.632C96.632 61.4569 96.4775 61.7605 96.3452 61.9013C96.2239 62.0304 95.9733 62.18 95.4 62.18V63.18V64.18C96.3147 64.18 97.1801 63.9336 97.8028 63.2707C98.4145 62.6195 98.632 61.7351 98.632 60.804H97.632ZM95.4 63.18V62.18H93.132V63.18V64.18H95.4V63.18ZM93.132 63.18V62.18C92.5587 62.18 92.3081 62.0304 92.1868 61.9013C92.0545 61.7605 91.9 61.4569 91.9 60.804H90.9H89.9C89.9 61.7351 90.1175 62.6195 90.7292 63.2707C91.3519 63.9336 92.2173 64.18 93.132 64.18V63.18ZM90.9 60.804H91.9V53.55H90.9H89.9V60.804H90.9ZM90.9 53.55H91.9C91.9 52.8971 92.0545 52.5935 92.1868 52.4527C92.3081 52.3236 92.5587 52.174 93.132 52.174V51.174V50.174C92.2173 50.174 91.3519 50.4204 90.7292 51.0833C90.1175 51.7345 89.9 52.6189 89.9 53.55H90.9ZM93.132 51.174V52.174H95.4V51.174V50.174H93.132V51.174ZM95.4 51.174V52.174C95.9733 52.174 96.2239 52.3236 96.3452 52.4527C96.4775 52.5935 96.632 52.8971 96.632 53.55H97.632H98.632C98.632 52.6189 98.4145 51.7345 97.8028 51.0833C97.1801 50.4204 96.3147 50.174 95.4 50.174V51.174ZM97.632 53.55H96.632V54.648H97.632H98.632V53.55H97.632ZM97.632 54.648V53.648H95.238V54.648V55.648H97.632V54.648ZM95.238 54.648H96.238V53.244H95.238H94.238V54.648H95.238ZM95.238 53.244H96.238C96.238 52.8654 96.084 52.5318 95.8371 52.2849L95.13 52.992L94.4229 53.6991C94.3792 53.6554 94.3294 53.5905 94.2919 53.5029C94.2538 53.4142 94.238 53.3245 94.238 53.244H95.238ZM95.13 52.992L95.8982 52.3518C95.643 52.0455 95.2805 51.884 94.896 51.884V52.884V53.884C94.8164 53.884 94.7145 53.8684 94.6074 53.819C94.4997 53.7692 94.4181 53.6997 94.3618 53.6322L95.13 52.992ZM94.896 52.884V51.884H93.762V52.884V53.884H94.896V52.884ZM93.762 52.884V51.884C93.3834 51.884 93.0498 52.038 92.8029 52.2849L93.51 52.992L94.2171 53.6991C94.1734 53.7428 94.1085 53.7926 94.0209 53.8301C93.9322 53.8682 93.8425 53.884 93.762 53.884V52.884ZM93.51 52.992L92.7418 52.3518C92.5281 52.6082 92.42 52.9203 92.42 53.244H93.42H94.42C94.42 53.3019 94.4106 53.3714 94.3842 53.4453C94.3577 53.5196 94.3196 53.5825 94.2782 53.6322L93.51 52.992ZM93.42 53.244H92.42V61.092H93.42H94.42V53.244H93.42ZM93.42 61.092H92.42C92.42 61.4157 92.5281 61.7278 92.7418 61.9842L93.51 61.344L94.2782 60.7038C94.3196 60.7535 94.3577 60.8164 94.3842 60.8907C94.4106 60.9646 94.42 61.0341 94.42 61.092H93.42ZM93.51 61.344L92.8029 62.0511C93.0498 62.298 93.3834 62.452 93.762 62.452V61.452V60.452C93.8425 60.452 93.9322 60.4678 94.0209 60.5059C94.1085 60.5434 94.1734 60.5932 94.2171 60.6369L93.51 61.344ZM93.762 61.452V62.452H94.896V61.452V60.452H93.762V61.452ZM94.896 61.452V62.452C95.2805 62.452 95.643 62.2905 95.8982 61.9842L95.13 61.344L94.3618 60.7038C94.4181 60.6363 94.4997 60.5668 94.6074 60.517C94.7145 60.4676 94.8164 60.452 94.896 60.452V61.452ZM95.13 61.344L95.8371 62.0511C96.084 61.8042 96.238 61.4706 96.238 61.092H95.238H94.238C94.238 61.0115 94.2538 60.9218 94.2919 60.8331C94.3294 60.7455 94.3792 60.6806 94.4229 60.6369L95.13 61.344ZM103.374 52.992L102.606 53.6322L102.635 53.667L102.667 53.6991L103.374 52.992ZM101.754 52.992L101.047 52.2849L101.015 52.317L100.986 52.3518L101.754 52.992ZM101.754 61.344L100.986 61.9842L101.015 62.019L101.047 62.0511L101.754 61.344ZM103.374 61.344L102.667 60.6369L102.635 60.669L102.606 60.7038L103.374 61.344ZM106.002 53.55H105.002V60.804H106.002H107.002V53.55H106.002ZM106.002 60.804H105.002C105.002 61.4569 104.848 61.7605 104.715 61.9013C104.594 62.0304 104.343 62.18 103.77 62.18V63.18V64.18C104.685 64.18 105.55 63.9336 106.173 63.2707C106.785 62.6195 107.002 61.7351 107.002 60.804H106.002ZM103.77 63.18V62.18H101.376V63.18V64.18H103.77V63.18ZM101.376 63.18V62.18C100.803 62.18 100.552 62.0304 100.431 61.9013C100.299 61.7605 100.144 61.4569 100.144 60.804H99.1441H98.1441C98.1441 61.7351 98.3616 62.6195 98.9733 63.2707C99.596 63.9336 100.461 64.18 101.376 64.18V63.18ZM99.1441 60.804H100.144V53.55H99.1441H98.1441V60.804H99.1441ZM99.1441 53.55H100.144C100.144 52.8971 100.299 52.5935 100.431 52.4527C100.552 52.3236 100.803 52.174 101.376 52.174V51.174V50.174C100.461 50.174 99.596 50.4204 98.9733 51.0833C98.3616 51.7345 98.1441 52.6189 98.1441 53.55H99.1441ZM101.376 51.174V52.174H103.77V51.174V50.174H101.376V51.174ZM103.77 51.174V52.174C104.343 52.174 104.594 52.3236 104.715 52.4527C104.848 52.5935 105.002 52.8971 105.002 53.55H106.002H107.002C107.002 52.6189 106.785 51.7345 106.173 51.0833C105.55 50.4204 104.685 50.174 103.77 50.174V51.174ZM103.482 61.092H104.482V53.244H103.482H102.482V61.092H103.482ZM103.482 53.244H104.482C104.482 52.8654 104.328 52.5318 104.081 52.2849L103.374 52.992L102.667 53.6991C102.623 53.6554 102.574 53.5905 102.536 53.5029C102.498 53.4142 102.482 53.3245 102.482 53.244H103.482ZM103.374 52.992L104.142 52.3518C103.887 52.0455 103.525 51.884 103.14 51.884V52.884V53.884C103.061 53.884 102.959 53.8684 102.852 53.819C102.744 53.7692 102.662 53.6997 102.606 53.6322L103.374 52.992ZM103.14 52.884V51.884H102.006V52.884V53.884H103.14V52.884ZM102.006 52.884V51.884C101.628 51.884 101.294 52.038 101.047 52.2849L101.754 52.992L102.461 53.6991C102.418 53.7428 102.353 53.7926 102.265 53.8301C102.176 53.8682 102.087 53.884 102.006 53.884V52.884ZM101.754 52.992L100.986 52.3518C100.772 52.6082 100.664 52.9203 100.664 53.244H101.664H102.664C102.664 53.3019 102.655 53.3714 102.628 53.4453C102.602 53.5196 102.564 53.5825 102.522 53.6322L101.754 52.992ZM101.664 53.244H100.664V61.092H101.664H102.664V53.244H101.664ZM101.664 61.092H100.664C100.664 61.4157 100.772 61.7278 100.986 61.9842L101.754 61.344L102.522 60.7038C102.564 60.7535 102.602 60.8164 102.628 60.8907C102.655 60.9646 102.664 61.0341 102.664 61.092H101.664ZM101.754 61.344L101.047 62.0511C101.294 62.298 101.628 62.452 102.006 62.452V61.452V60.452C102.087 60.452 102.176 60.4678 102.265 60.5059C102.353 60.5434 102.418 60.5932 102.461 60.6369L101.754 61.344ZM102.006 61.452V62.452H103.14V61.452V60.452H102.006V61.452ZM103.14 61.452V62.452C103.525 62.452 103.887 62.2905 104.142 61.9842L103.374 61.344L102.606 60.7038C102.662 60.6363 102.744 60.5668 102.852 60.517C102.959 60.4676 103.061 60.452 103.14 60.452V61.452ZM103.374 61.344L104.081 62.0511C104.328 61.8042 104.482 61.4706 104.482 61.092H103.482H102.482C102.482 61.0115 102.498 60.9218 102.536 60.8331C102.574 60.7455 102.623 60.6806 102.667 60.6369L103.374 61.344ZM114.541 63V64H115.541V63H114.541ZM112.021 63H111.021V64H112.021V63ZM111.913 53.082L111.145 53.7222L111.174 53.757L111.206 53.7891L111.913 53.082ZM110.455 53.082L109.748 52.3749L109.716 52.407L109.687 52.4418L110.455 53.082ZM110.365 63V64H111.365V63H110.365ZM107.845 63H106.845V64H107.845V63ZM114.541 63V62H112.021V63V64H114.541V63ZM112.021 63H113.021V53.334H112.021H111.021V63H112.021ZM112.021 53.334H113.021C113.021 52.9554 112.867 52.6218 112.62 52.3749L111.913 53.082L111.206 53.7891C111.162 53.7454 111.112 53.6805 111.075 53.5929C111.037 53.5042 111.021 53.4145 111.021 53.334H112.021ZM111.913 53.082L112.681 52.4418C112.426 52.1355 112.063 51.974 111.679 51.974V52.974V53.974C111.599 53.974 111.497 53.9584 111.39 53.909C111.283 53.8592 111.201 53.7897 111.145 53.7222L111.913 53.082ZM111.679 52.974V51.974H110.707V52.974V53.974H111.679V52.974ZM110.707 52.974V51.974C110.328 51.974 109.995 52.128 109.748 52.3749L110.455 53.082L111.162 53.7891C111.118 53.8328 111.053 53.8826 110.966 53.9201C110.877 53.9582 110.787 53.974 110.707 53.974V52.974ZM110.455 53.082L109.687 52.4418C109.473 52.6982 109.365 53.0103 109.365 53.334H110.365H111.365C111.365 53.3919 111.356 53.4614 111.329 53.5353C111.303 53.6096 111.264 53.6725 111.223 53.7222L110.455 53.082ZM110.365 53.334H109.365V63H110.365H111.365V53.334H110.365ZM110.365 63V62H107.845V63V64H110.365V63ZM107.845 63H108.845V53.55H107.845H106.845V63H107.845ZM107.845 53.55H108.845C108.845 52.8971 108.999 52.5935 109.132 52.4527C109.253 52.3236 109.504 52.174 110.077 52.174V51.174V50.174C109.162 50.174 108.297 50.4204 107.674 51.0833C107.062 51.7345 106.845 52.6189 106.845 53.55H107.845ZM110.077 51.174V52.174H112.309V51.174V50.174H110.077V51.174ZM112.309 51.174V52.174C112.882 52.174 113.133 52.3236 113.254 52.4527C113.386 52.5935 113.541 52.8971 113.541 53.55H114.541H115.541C115.541 52.6189 115.323 51.7345 114.712 51.0833C114.089 50.4204 113.224 50.174 112.309 50.174V51.174ZM114.541 53.55H113.541V63H114.541H115.541V53.55H114.541ZM115.564 53.496H114.564V54.496H115.564V53.496ZM115.564 51.354V50.354H114.564V51.354H115.564ZM121.864 51.354H122.864V50.354H121.864V51.354ZM121.864 53.496V54.496H122.864V53.496H121.864ZM119.974 53.496V52.496H118.974V53.496H119.974ZM119.974 63V64H120.974V63H119.974ZM117.454 63H116.454V64H117.454V63ZM117.454 53.496H118.454V52.496H117.454V53.496ZM115.564 53.496H116.564V51.354H115.564H114.564V53.496H115.564ZM115.564 51.354V52.354H121.864V51.354V50.354H115.564V51.354ZM121.864 51.354H120.864V53.496H121.864H122.864V51.354H121.864ZM121.864 53.496V52.496H119.974V53.496V54.496H121.864V53.496ZM119.974 53.496H118.974V63H119.974H120.974V53.496H119.974ZM119.974 63V62H117.454V63V64H119.974V63ZM117.454 63H118.454V53.496H117.454H116.454V63H117.454ZM117.454 53.496V52.496H115.564V53.496V54.496H117.454V53.496ZM125.535 51.354H126.535V50.354H125.535V51.354ZM125.535 63V64H126.535V63H125.535ZM123.015 63H122.015V64H123.015V63ZM123.015 51.354V50.354H122.015V51.354H123.015ZM125.535 51.354H124.535V63H125.535H126.535V51.354H125.535ZM125.535 63V62H123.015V63V64H125.535V63ZM123.015 63H124.015V51.354H123.015H122.015V63H123.015ZM123.015 51.354V52.354H125.535V51.354V50.354H123.015V51.354ZM134.088 63V64H135.088V63H134.088ZM131.568 63H130.568V64H131.568V63ZM131.46 53.082L130.692 53.7222L130.721 53.757L130.753 53.7891L131.46 53.082ZM130.002 53.082L129.295 52.3749L129.263 52.407L129.234 52.4418L130.002 53.082ZM129.912 63V64H130.912V63H129.912ZM127.392 63H126.392V64H127.392V63ZM134.088 63V62H131.568V63V64H134.088V63ZM131.568 63H132.568V53.334H131.568H130.568V63H131.568ZM131.568 53.334H132.568C132.568 52.9554 132.414 52.6218 132.167 52.3749L131.46 53.082L130.753 53.7891C130.709 53.7454 130.659 53.6805 130.622 53.5929C130.584 53.5042 130.568 53.4145 130.568 53.334H131.568ZM131.46 53.082L132.228 52.4418C131.973 52.1355 131.61 51.974 131.226 51.974V52.974V53.974C131.146 53.974 131.044 53.9584 130.937 53.909C130.829 53.8592 130.748 53.7897 130.692 53.7222L131.46 53.082ZM131.226 52.974V51.974H130.254V52.974V53.974H131.226V52.974ZM130.254 52.974V51.974C129.875 51.974 129.542 52.128 129.295 52.3749L130.002 53.082L130.709 53.7891C130.665 53.8328 130.6 53.8826 130.513 53.9201C130.424 53.9582 130.334 53.974 130.254 53.974V52.974ZM130.002 53.082L129.234 52.4418C129.02 52.6982 128.912 53.0103 128.912 53.334H129.912H130.912C130.912 53.3919 130.902 53.4614 130.876 53.5353C130.849 53.6096 130.811 53.6725 130.77 53.7222L130.002 53.082ZM129.912 53.334H128.912V63H129.912H130.912V53.334H129.912ZM129.912 63V62H127.392V63V64H129.912V63ZM127.392 63H128.392V53.55H127.392H126.392V63H127.392ZM127.392 53.55H128.392C128.392 52.8971 128.546 52.5935 128.679 52.4527C128.8 52.3236 129.05 52.174 129.624 52.174V51.174V50.174C128.709 50.174 127.844 50.4204 127.221 51.0833C126.609 51.7345 126.392 52.6189 126.392 53.55H127.392ZM129.624 51.174V52.174H131.856V51.174V50.174H129.624V51.174ZM131.856 51.174V52.174C132.429 52.174 132.68 52.3236 132.801 52.4527C132.933 52.5935 133.088 52.8971 133.088 53.55H134.088H135.088C135.088 52.6189 134.87 51.7345 134.259 51.0833C133.636 50.4204 132.77 50.174 131.856 50.174V51.174ZM134.088 53.55H133.088V63H134.088H135.088V53.55H134.088ZM139.935 51.354V50.354H138.935V51.354H139.935ZM142.455 51.354H143.455V50.354H142.455V51.354ZM135.759 51.354V50.354H134.759V51.354H135.759ZM138.279 51.354H139.279V50.354H138.279V51.354ZM138.369 61.272L137.601 61.9122L137.63 61.947L137.662 61.9791L138.369 61.272ZM139.827 61.272L139.12 60.5649L139.088 60.597L139.059 60.6318L139.827 61.272ZM139.935 51.354V52.354H142.455V51.354V50.354H139.935V51.354ZM142.455 51.354H141.455V60.804H142.455H143.455V51.354H142.455ZM142.455 60.804H141.455C141.455 61.4569 141.3 61.7605 141.168 61.9013C141.047 62.0304 140.796 62.18 140.223 62.18V63.18V64.18C141.138 64.18 142.003 63.9336 142.626 63.2707C143.237 62.6195 143.455 61.7351 143.455 60.804H142.455ZM140.223 63.18V62.18H137.991V63.18V64.18H140.223V63.18ZM137.991 63.18V62.18C137.418 62.18 137.167 62.0304 137.046 61.9013C136.913 61.7605 136.759 61.4569 136.759 60.804H135.759H134.759C134.759 61.7351 134.976 62.6195 135.588 63.2707C136.211 63.9336 137.076 64.18 137.991 64.18V63.18ZM135.759 60.804H136.759V51.354H135.759H134.759V60.804H135.759ZM135.759 51.354V52.354H138.279V51.354V50.354H135.759V51.354ZM138.279 51.354H137.279V61.02H138.279H139.279V51.354H138.279ZM138.279 61.02H137.279C137.279 61.3437 137.387 61.6558 137.601 61.9122L138.369 61.272L139.137 60.6318C139.179 60.6815 139.217 60.7444 139.243 60.8187C139.27 60.8926 139.279 60.9621 139.279 61.02H138.279ZM138.369 61.272L137.662 61.9791C137.909 62.226 138.242 62.38 138.621 62.38V61.38V60.38C138.701 60.38 138.791 60.3958 138.88 60.4339C138.967 60.4714 139.032 60.5212 139.076 60.5649L138.369 61.272ZM138.621 61.38V62.38H139.593V61.38V60.38H138.621V61.38ZM139.593 61.38V62.38C139.977 62.38 140.34 62.2185 140.595 61.9122L139.827 61.272L139.059 60.6318C139.115 60.5643 139.197 60.4948 139.304 60.445C139.411 60.3956 139.513 60.38 139.593 60.38V61.38ZM139.827 61.272L140.534 61.9791C140.781 61.7322 140.935 61.3986 140.935 61.02H139.935H138.935C138.935 60.9395 138.951 60.8498 138.989 60.7611C139.026 60.6735 139.076 60.6086 139.12 60.5649L139.827 61.272ZM139.935 61.02H140.935V51.354H139.935H138.935V61.02H139.935ZM146.699 60.912H145.699V61.912H146.699V60.912ZM149.489 60.912H150.489V59.912H149.489V60.912ZM149.489 63V64H150.489V63H149.489ZM144.179 63H143.179V64H144.179V63ZM144.179 51.354V50.354H143.179V51.354H144.179ZM149.489 51.354H150.489V50.354H149.489V51.354ZM149.489 53.406V54.406H150.489V53.406H149.489ZM146.699 53.406V52.406H145.699V53.406H146.699ZM146.699 56.142H145.699V57.142H146.699V56.142ZM149.309 56.142H150.309V55.142H149.309V56.142ZM149.309 58.122V59.122H150.309V58.122H149.309ZM146.699 58.122V57.122H145.699V58.122H146.699ZM146.699 60.912V61.912H149.489V60.912V59.912H146.699V60.912ZM149.489 60.912H148.489V63H149.489H150.489V60.912H149.489ZM149.489 63V62H144.179V63V64H149.489V63ZM144.179 63H145.179V51.354H144.179H143.179V63H144.179ZM144.179 51.354V52.354H149.489V51.354V50.354H144.179V51.354ZM149.489 51.354H148.489V53.406H149.489H150.489V51.354H149.489ZM149.489 53.406V52.406H146.699V53.406V54.406H149.489V53.406ZM146.699 53.406H145.699V56.142H146.699H147.699V53.406H146.699ZM146.699 56.142V57.142H149.309V56.142V55.142H146.699V56.142ZM149.309 56.142H148.309V58.122H149.309H150.309V56.142H149.309ZM149.309 58.122V57.122H146.699V58.122V59.122H149.309V58.122ZM146.699 58.122H145.699V60.912H146.699H147.699V58.122H146.699ZM157.106 58.428V57.428H156.106V58.428H157.106ZM157.106 63V64H158.106V63H157.106ZM154.586 63H153.586V64H154.586V63ZM154.586 51.354V50.354H153.586V51.354H154.586ZM159.842 51.354H160.842V50.354H159.842V51.354ZM159.842 53.532V54.532H160.842V53.532H159.842ZM157.106 53.532V52.532H156.106V53.532H157.106ZM157.106 56.322H156.106V57.322H157.106V56.322ZM159.662 56.322H160.662V55.322H159.662V56.322ZM159.662 58.428V59.428H160.662V58.428H159.662ZM157.106 58.428H156.106V63H157.106H158.106V58.428H157.106ZM157.106 63V62H154.586V63V64H157.106V63ZM154.586 63H155.586V51.354H154.586H153.586V63H154.586ZM154.586 51.354V52.354H159.842V51.354V50.354H154.586V51.354ZM159.842 51.354H158.842V53.532H159.842H160.842V51.354H159.842ZM159.842 53.532V52.532H157.106V53.532V54.532H159.842V53.532ZM157.106 53.532H156.106V56.322H157.106H158.106V53.532H157.106ZM157.106 56.322V57.322H159.662V56.322V55.322H157.106V56.322ZM159.662 56.322H158.662V58.428H159.662H160.662V56.322H159.662ZM159.662 58.428V57.428H157.106V58.428V59.428H159.662V58.428ZM163.838 58.23V57.23H162.838V58.23H163.838ZM163.838 63V64H164.838V63H163.838ZM161.318 63H160.318V64H161.318V63ZM161.318 51.354V50.354H160.318V51.354H161.318ZM167.006 56.916L166.646 55.9831L164.144 56.9486L166.667 57.8569L167.006 56.916ZM167.906 63V64H168.906V63H167.906ZM165.386 63H164.386V64H165.386V63ZM163.838 53.064V52.064H162.838V53.064H163.838ZM163.838 56.466H162.838V57.466H163.838V56.466ZM165.404 56.358L164.697 55.6509L164.665 55.683L164.636 55.7178L165.404 56.358ZM165.404 53.172L164.636 53.8122L164.665 53.847L164.697 53.8791L165.404 53.172ZM163.838 58.23H162.838V63H163.838H164.838V58.23H163.838ZM163.838 63V62H161.318V63V64H163.838V63ZM161.318 63H162.318V51.354H161.318H160.318V63H161.318ZM161.318 51.354V52.354H165.8V51.354V50.354H161.318V51.354ZM165.8 51.354V52.354C166.373 52.354 166.624 52.5036 166.745 52.6327C166.877 52.7735 167.032 53.0771 167.032 53.73H168.032H169.032C169.032 52.7989 168.815 51.9145 168.203 51.2633C167.58 50.6004 166.715 50.354 165.8 50.354V51.354ZM168.032 53.73H167.032V55.08H168.032H169.032V53.73H168.032ZM168.032 55.08H167.032C167.032 55.4495 166.965 55.6593 166.903 55.7712C166.851 55.8636 166.781 55.9309 166.646 55.9831L167.006 56.916L167.366 57.8489C167.915 57.6371 168.358 57.2664 168.648 56.7468C168.928 56.2467 169.032 55.6705 169.032 55.08H168.032ZM167.006 56.916L166.667 57.8569C166.777 57.8964 166.809 57.9373 166.827 57.9676C166.855 58.0128 166.906 58.1323 166.906 58.392H167.906H168.906C168.906 57.8837 168.807 57.3732 168.535 56.9264C168.253 56.4647 167.835 56.1516 167.345 55.9751L167.006 56.916ZM167.906 58.392H166.906V63H167.906H168.906V58.392H167.906ZM167.906 63V62H165.386V63V64H167.906V63ZM165.386 63H166.386V58.59H165.386H164.386V63H165.386ZM165.386 58.59H166.386C166.386 58.3283 166.325 57.9462 166.025 57.6313C165.717 57.3067 165.326 57.23 165.044 57.23V58.23V59.23C164.99 59.23 164.77 59.2134 164.575 59.0087C164.39 58.8138 164.386 58.6117 164.386 58.59H165.386ZM165.044 58.23V57.23H163.838V58.23V59.23H165.044V58.23ZM163.838 53.064H162.838V56.466H163.838H164.838V53.064H163.838ZM163.838 56.466V57.466H165.17V56.466V55.466H163.838V56.466ZM165.17 56.466V57.466C165.554 57.466 165.917 57.3045 166.172 56.9982L165.404 56.358L164.636 55.7178C164.692 55.6503 164.774 55.5808 164.881 55.531C164.988 55.4816 165.09 55.466 165.17 55.466V56.466ZM165.404 56.358L166.111 57.0651C166.358 56.8182 166.512 56.4846 166.512 56.106H165.512H164.512C164.512 56.0255 164.528 55.9358 164.566 55.8471C164.603 55.7595 164.653 55.6946 164.697 55.6509L165.404 56.358ZM165.512 56.106H166.512V53.424H165.512H164.512V56.106H165.512ZM165.512 53.424H166.512C166.512 53.0454 166.358 52.7118 166.111 52.4649L165.404 53.172L164.697 53.8791C164.653 53.8354 164.603 53.7705 164.566 53.6829C164.528 53.5942 164.512 53.5045 164.512 53.424H165.512ZM165.404 53.172L166.172 52.5318C165.917 52.2255 165.554 52.064 165.17 52.064V53.064V54.064C165.09 54.064 164.988 54.0484 164.881 53.999C164.774 53.9492 164.692 53.8797 164.636 53.8122L165.404 53.172ZM165.17 53.064V52.064H163.838V53.064V54.064H165.17V53.064ZM173.88 52.992L173.112 53.6322L173.141 53.667L173.173 53.6991L173.88 52.992ZM172.26 52.992L171.553 52.2849L171.521 52.317L171.492 52.3518L172.26 52.992ZM172.26 61.344L171.492 61.9842L171.521 62.019L171.553 62.0511L172.26 61.344ZM173.88 61.344L173.173 60.6369L173.141 60.669L173.112 60.7038L173.88 61.344ZM176.508 53.55H175.508V60.804H176.508H177.508V53.55H176.508ZM176.508 60.804H175.508C175.508 61.4569 175.353 61.7605 175.221 61.9013C175.1 62.0304 174.849 62.18 174.276 62.18V63.18V64.18C175.191 64.18 176.056 63.9336 176.679 63.2707C177.291 62.6195 177.508 61.7351 177.508 60.804H176.508ZM174.276 63.18V62.18H171.882V63.18V64.18H174.276V63.18ZM171.882 63.18V62.18C171.309 62.18 171.058 62.0304 170.937 61.9013C170.805 61.7605 170.65 61.4569 170.65 60.804H169.65H168.65C168.65 61.7351 168.867 62.6195 169.479 63.2707C170.102 63.9336 170.967 64.18 171.882 64.18V63.18ZM169.65 60.804H170.65V53.55H169.65H168.65V60.804H169.65ZM169.65 53.55H170.65C170.65 52.8971 170.805 52.5935 170.937 52.4527C171.058 52.3236 171.309 52.174 171.882 52.174V51.174V50.174C170.967 50.174 170.102 50.4204 169.479 51.0833C168.867 51.7345 168.65 52.6189 168.65 53.55H169.65ZM171.882 51.174V52.174H174.276V51.174V50.174H171.882V51.174ZM174.276 51.174V52.174C174.849 52.174 175.1 52.3236 175.221 52.4527C175.353 52.5935 175.508 52.8971 175.508 53.55H176.508H177.508C177.508 52.6189 177.291 51.7345 176.679 51.0833C176.056 50.4204 175.191 50.174 174.276 50.174V51.174ZM173.988 61.092H174.988V53.244H173.988H172.988V61.092H173.988ZM173.988 53.244H174.988C174.988 52.8654 174.834 52.5318 174.587 52.2849L173.88 52.992L173.173 53.6991C173.129 53.6554 173.079 53.5905 173.042 53.5029C173.004 53.4142 172.988 53.3245 172.988 53.244H173.988ZM173.88 52.992L174.648 52.3518C174.393 52.0455 174.03 51.884 173.646 51.884V52.884V53.884C173.566 53.884 173.465 53.8684 173.357 53.819C173.25 53.7692 173.168 53.6997 173.112 53.6322L173.88 52.992ZM173.646 52.884V51.884H172.512V52.884V53.884H173.646V52.884ZM172.512 52.884V51.884C172.133 51.884 171.8 52.038 171.553 52.2849L172.26 52.992L172.967 53.6991C172.923 53.7428 172.858 53.7926 172.771 53.8301C172.682 53.8682 172.592 53.884 172.512 53.884V52.884ZM172.26 52.992L171.492 52.3518C171.278 52.6082 171.17 52.9203 171.17 53.244H172.17H173.17C173.17 53.3019 173.161 53.3714 173.134 53.4453C173.108 53.5196 173.07 53.5825 173.028 53.6322L172.26 52.992ZM172.17 53.244H171.17V61.092H172.17H173.17V53.244H172.17ZM172.17 61.092H171.17C171.17 61.4157 171.278 61.7278 171.492 61.9842L172.26 61.344L173.028 60.7038C173.07 60.7535 173.108 60.8164 173.134 60.8907C173.161 60.9646 173.17 61.0341 173.17 61.092H172.17ZM172.26 61.344L171.553 62.0511C171.8 62.298 172.133 62.452 172.512 62.452V61.452V60.452C172.592 60.452 172.682 60.4678 172.771 60.5059C172.858 60.5434 172.923 60.5932 172.967 60.6369L172.26 61.344ZM172.512 61.452V62.452H173.646V61.452V60.452H172.512V61.452ZM173.646 61.452V62.452C174.03 62.452 174.393 62.2905 174.648 61.9842L173.88 61.344L173.112 60.7038C173.168 60.6363 173.25 60.5668 173.357 60.517C173.465 60.4676 173.566 60.452 173.646 60.452V61.452ZM173.88 61.344L174.587 62.0511C174.834 61.8042 174.988 61.4706 174.988 61.092H173.988H172.988C172.988 61.0115 173.004 60.9218 173.042 60.8331C173.079 60.7455 173.129 60.6806 173.173 60.6369L173.88 61.344ZM180.871 63V64H181.871V63H180.871ZM178.351 63H177.351V64H178.351V63ZM183.787 52.038L182.947 52.5805L183.815 53.925L184.643 52.5551L183.787 52.038ZM189.223 63V64H190.223V63H189.223ZM186.703 63H185.703V64H186.703V63ZM186.595 53.082L185.827 53.7222L185.856 53.757L185.888 53.7891L186.595 53.082ZM185.137 53.082L184.43 52.3749L184.398 52.407L184.369 52.4418L185.137 53.082ZM185.047 63V64H186.047V63H185.047ZM182.527 63H181.527V64H182.527V63ZM182.419 53.082L181.651 53.7222L181.68 53.757L181.712 53.7891L182.419 53.082ZM180.961 53.082L180.254 52.3749L180.222 52.407L180.193 52.4418L180.961 53.082ZM180.871 63V62H178.351V63V64H180.871V63ZM178.351 63H179.351V53.55H178.351H177.351V63H178.351ZM178.351 53.55H179.351C179.351 52.8971 179.505 52.5935 179.638 52.4527C179.759 52.3236 180.009 52.174 180.583 52.174V51.174V50.174C179.668 50.174 178.803 50.4204 178.18 51.0833C177.568 51.7345 177.351 52.6189 177.351 53.55H178.351ZM180.583 51.174V52.174H181.915V51.174V50.174H180.583V51.174ZM181.915 51.174V52.174C182.558 52.174 182.81 52.3691 182.947 52.5805L183.787 52.038L184.627 51.4955C184.019 50.5549 183.024 50.174 181.915 50.174V51.174ZM183.787 52.038L184.643 52.5551C184.75 52.3775 184.976 52.174 185.659 52.174V51.174V50.174C184.542 50.174 183.52 50.5465 182.931 51.5209L183.787 52.038ZM185.659 51.174V52.174H186.991V51.174V50.174H185.659V51.174ZM186.991 51.174V52.174C187.564 52.174 187.815 52.3236 187.936 52.4527C188.068 52.5935 188.223 52.8971 188.223 53.55H189.223H190.223C190.223 52.6189 190.005 51.7345 189.394 51.0833C188.771 50.4204 187.905 50.174 186.991 50.174V51.174ZM189.223 53.55H188.223V63H189.223H190.223V53.55H189.223ZM189.223 63V62H186.703V63V64H189.223V63ZM186.703 63H187.703V53.334H186.703H185.703V63H186.703ZM186.703 53.334H187.703C187.703 52.9554 187.549 52.6218 187.302 52.3749L186.595 53.082L185.888 53.7891C185.844 53.7454 185.794 53.6805 185.757 53.5929C185.719 53.5042 185.703 53.4145 185.703 53.334H186.703ZM186.595 53.082L187.363 52.4418C187.108 52.1355 186.745 51.974 186.361 51.974V52.974V53.974C186.281 53.974 186.179 53.9584 186.072 53.909C185.964 53.8592 185.883 53.7897 185.827 53.7222L186.595 53.082ZM186.361 52.974V51.974H185.389V52.974V53.974H186.361V52.974ZM185.389 52.974V51.974C185.01 51.974 184.677 52.128 184.43 52.3749L185.137 53.082L185.844 53.7891C185.8 53.8328 185.735 53.8826 185.648 53.9201C185.559 53.9582 185.469 53.974 185.389 53.974V52.974ZM185.137 53.082L184.369 52.4418C184.155 52.6982 184.047 53.0103 184.047 53.334H185.047H186.047C186.047 53.3919 186.037 53.4614 186.011 53.5353C185.984 53.6096 185.946 53.6725 185.905 53.7222L185.137 53.082ZM185.047 53.334H184.047V63H185.047H186.047V53.334H185.047ZM185.047 63V62H182.527V63V64H185.047V63ZM182.527 63H183.527V53.334H182.527H181.527V63H182.527ZM182.527 53.334H183.527C183.527 52.9554 183.373 52.6218 183.126 52.3749L182.419 53.082L181.712 53.7891C181.668 53.7454 181.618 53.6805 181.581 53.5929C181.543 53.5042 181.527 53.4145 181.527 53.334H182.527ZM182.419 53.082L183.187 52.4418C182.932 52.1355 182.569 51.974 182.185 51.974V52.974V53.974C182.105 53.974 182.003 53.9584 181.896 53.909C181.788 53.8592 181.707 53.7897 181.651 53.7222L182.419 53.082ZM182.185 52.974V51.974H181.213V52.974V53.974H182.185V52.974ZM181.213 52.974V51.974C180.834 51.974 180.501 52.128 180.254 52.3749L180.961 53.082L181.668 53.7891C181.624 53.8328 181.559 53.8826 181.472 53.9201C181.383 53.9582 181.293 53.974 181.213 53.974V52.974ZM180.961 53.082L180.193 52.4418C179.979 52.6982 179.871 53.0103 179.871 53.334H180.871H181.871C181.871 53.3919 181.861 53.4614 181.835 53.5353C181.808 53.6096 181.77 53.6725 181.729 53.7222L180.961 53.082ZM180.871 53.334H179.871V63H180.871H181.871V53.334H180.871ZM198.895 51.354V50.354H198.038L197.907 51.2018L198.895 51.354ZM201.127 51.354L202.116 51.2018L201.985 50.354H201.127V51.354ZM202.477 60.12L201.489 60.2722L203.471 60.2342L202.477 60.12ZM203.485 51.354V50.354H202.594L202.492 51.2398L203.485 51.354ZM205.933 51.354L206.92 51.5142L207.109 50.354H205.933V51.354ZM204.043 63V64H204.894L205.03 63.1602L204.043 63ZM201.181 63L200.194 63.1616L200.332 64H201.181V63ZM200.011 55.854L200.998 55.6924H199.024L200.011 55.854ZM198.841 63V64H199.691L199.828 63.1616L198.841 63ZM195.979 63L194.992 63.1602L195.129 64H195.979V63ZM194.089 51.354V50.354H192.914L193.102 51.5142L194.089 51.354ZM196.537 51.354L197.531 51.2398L197.429 50.354H196.537V51.354ZM197.545 60.12L196.552 60.2342L198.534 60.2722L197.545 60.12ZM198.895 51.354V52.354H201.127V51.354V50.354H198.895V51.354ZM201.127 51.354L200.139 51.5062L201.489 60.2722L202.477 60.12L203.466 59.9678L202.116 51.2018L201.127 51.354ZM202.477 60.12L203.471 60.2342L204.479 51.4682L203.485 51.354L202.492 51.2398L201.484 60.0058L202.477 60.12ZM203.485 51.354V52.354H205.933V51.354V50.354H203.485V51.354ZM205.933 51.354L204.946 51.1938L203.056 62.8398L204.043 63L205.03 63.1602L206.92 51.5142L205.933 51.354ZM204.043 63V62H201.181V63V64H204.043V63ZM201.181 63L202.168 62.8384L200.998 55.6924L200.011 55.854L199.024 56.0156L200.194 63.1616L201.181 63ZM200.011 55.854L199.024 55.6924L197.854 62.8384L198.841 63L199.828 63.1616L200.998 56.0156L200.011 55.854ZM198.841 63V62H195.979V63V64H198.841V63ZM195.979 63L196.966 62.8398L195.076 51.1938L194.089 51.354L193.102 51.5142L194.992 63.1602L195.979 63ZM194.089 51.354V52.354H196.537V51.354V50.354H194.089V51.354ZM196.537 51.354L195.544 51.4682L196.552 60.2342L197.545 60.12L198.539 60.0058L197.531 51.2398L196.537 51.354ZM197.545 60.12L198.534 60.2722L199.884 51.5062L198.895 51.354L197.907 51.2018L196.557 59.9678L197.545 60.12ZM209.84 58.428V57.428H208.84V58.428H209.84ZM209.84 63V64H210.84V63H209.84ZM207.32 63H206.32V64H207.32V63ZM207.32 51.354V50.354H206.32V51.354H207.32ZM209.84 51.354H210.84V50.354H209.84V51.354ZM209.84 56.232H208.84V57.232H209.84V56.232ZM211.838 56.232V57.232H212.838V56.232H211.838ZM211.838 51.354V50.354H210.838V51.354H211.838ZM214.358 51.354H215.358V50.354H214.358V51.354ZM214.358 63V64H215.358V63H214.358ZM211.838 63H210.838V64H211.838V63ZM211.838 58.428H212.838V57.428H211.838V58.428ZM209.84 58.428H208.84V63H209.84H210.84V58.428H209.84ZM209.84 63V62H207.32V63V64H209.84V63ZM207.32 63H208.32V51.354H207.32H206.32V63H207.32ZM207.32 51.354V52.354H209.84V51.354V50.354H207.32V51.354ZM209.84 51.354H208.84V56.232H209.84H210.84V51.354H209.84ZM209.84 56.232V57.232H211.838V56.232V55.232H209.84V56.232ZM211.838 56.232H212.838V51.354H211.838H210.838V56.232H211.838ZM211.838 51.354V52.354H214.358V51.354V50.354H211.838V51.354ZM214.358 51.354H213.358V63H214.358H215.358V51.354H214.358ZM214.358 63V62H211.838V63V64H214.358V63ZM211.838 63H212.838V58.428H211.838H210.838V63H211.838ZM211.838 58.428V57.428H209.84V58.428V59.428H211.838V58.428ZM218.682 60.912H217.682V61.912H218.682V60.912ZM221.472 60.912H222.472V59.912H221.472V60.912ZM221.472 63V64H222.472V63H221.472ZM216.162 63H215.162V64H216.162V63ZM216.162 51.354V50.354H215.162V51.354H216.162ZM221.472 51.354H222.472V50.354H221.472V51.354ZM221.472 53.406V54.406H222.472V53.406H221.472ZM218.682 53.406V52.406H217.682V53.406H218.682ZM218.682 56.142H217.682V57.142H218.682V56.142ZM221.292 56.142H222.292V55.142H221.292V56.142ZM221.292 58.122V59.122H222.292V58.122H221.292ZM218.682 58.122V57.122H217.682V58.122H218.682ZM218.682 60.912V61.912H221.472V60.912V59.912H218.682V60.912ZM221.472 60.912H220.472V63H221.472H222.472V60.912H221.472ZM221.472 63V62H216.162V63V64H221.472V63ZM216.162 63H217.162V51.354H216.162H215.162V63H216.162ZM216.162 51.354V52.354H221.472V51.354V50.354H216.162V51.354ZM221.472 51.354H220.472V53.406H221.472H222.472V51.354H221.472ZM221.472 53.406V52.406H218.682V53.406V54.406H221.472V53.406ZM218.682 53.406H217.682V56.142H218.682H219.682V53.406H218.682ZM218.682 56.142V57.142H221.292V56.142V55.142H218.682V56.142ZM221.292 56.142H220.292V58.122H221.292H222.292V56.142H221.292ZM221.292 58.122V57.122H218.682V58.122V59.122H221.292V58.122ZM218.682 58.122H217.682V60.912H218.682H219.682V58.122H218.682ZM225.449 58.23V57.23H224.449V58.23H225.449ZM225.449 63V64H226.449V63H225.449ZM222.929 63H221.929V64H222.929V63ZM222.929 51.354V50.354H221.929V51.354H222.929ZM228.617 56.916L228.257 55.9831L225.756 56.9486L228.279 57.8569L228.617 56.916ZM229.517 63V64H230.517V63H229.517ZM226.997 63H225.997V64H226.997V63ZM225.449 53.064V52.064H224.449V53.064H225.449ZM225.449 56.466H224.449V57.466H225.449V56.466ZM227.015 56.358L226.308 55.6509L226.276 55.683L226.247 55.7178L227.015 56.358ZM227.015 53.172L226.247 53.8122L226.276 53.847L226.308 53.8791L227.015 53.172ZM225.449 58.23H224.449V63H225.449H226.449V58.23H225.449ZM225.449 63V62H222.929V63V64H225.449V63ZM222.929 63H223.929V51.354H222.929H221.929V63H222.929ZM222.929 51.354V52.354H227.411V51.354V50.354H222.929V51.354ZM227.411 51.354V52.354C227.985 52.354 228.235 52.5036 228.356 52.6327C228.489 52.7735 228.643 53.0771 228.643 53.73H229.643H230.643C230.643 52.7989 230.426 51.9145 229.814 51.2633C229.191 50.6004 228.326 50.354 227.411 50.354V51.354ZM229.643 53.73H228.643V55.08H229.643H230.643V53.73H229.643ZM229.643 55.08H228.643C228.643 55.4495 228.576 55.6593 228.514 55.7712C228.462 55.8636 228.392 55.9309 228.257 55.9831L228.617 56.916L228.977 57.8489C229.526 57.6371 229.969 57.2664 230.26 56.7468C230.539 56.2467 230.643 55.6705 230.643 55.08H229.643ZM228.617 56.916L228.279 57.8569C228.388 57.8964 228.42 57.9373 228.439 57.9676C228.466 58.0128 228.517 58.1323 228.517 58.392H229.517H230.517C230.517 57.8837 230.419 57.3732 230.146 56.9264C229.865 56.4647 229.446 56.1516 228.956 55.9751L228.617 56.916ZM229.517 58.392H228.517V63H229.517H230.517V58.392H229.517ZM229.517 63V62H226.997V63V64H229.517V63ZM226.997 63H227.997V58.59H226.997H225.997V63H226.997ZM226.997 58.59H227.997C227.997 58.3283 227.936 57.9462 227.637 57.6313C227.328 57.3067 226.937 57.23 226.655 57.23V58.23V59.23C226.602 59.23 226.381 59.2134 226.187 59.0087C226.002 58.8138 225.997 58.6117 225.997 58.59H226.997ZM226.655 58.23V57.23H225.449V58.23V59.23H226.655V58.23ZM225.449 53.064H224.449V56.466H225.449H226.449V53.064H225.449ZM225.449 56.466V57.466H226.781V56.466V55.466H225.449V56.466ZM226.781 56.466V57.466C227.166 57.466 227.528 57.3045 227.784 56.9982L227.015 56.358L226.247 55.7178C226.303 55.6503 226.385 55.5808 226.493 55.531C226.6 55.4816 226.702 55.466 226.781 55.466V56.466ZM227.015 56.358L227.722 57.0651C227.969 56.8182 228.123 56.4846 228.123 56.106H227.123H226.123C226.123 56.0255 226.139 55.9358 226.177 55.8471C226.215 55.7595 226.264 55.6946 226.308 55.6509L227.015 56.358ZM227.123 56.106H228.123V53.424H227.123H226.123V56.106H227.123ZM227.123 53.424H228.123C228.123 53.0454 227.969 52.7118 227.722 52.4649L227.015 53.172L226.308 53.8791C226.264 53.8354 226.215 53.7705 226.177 53.6829C226.139 53.5942 226.123 53.5045 226.123 53.424H227.123ZM227.015 53.172L227.784 52.5318C227.528 52.2255 227.166 52.064 226.781 52.064V53.064V54.064C226.702 54.064 226.6 54.0484 226.493 53.999C226.385 53.9492 226.303 53.8797 226.247 53.8122L227.015 53.172ZM226.781 53.064V52.064H225.449V53.064V54.064H226.781V53.064ZM233.781 60.912H232.781V61.912H233.781V60.912ZM236.571 60.912H237.571V59.912H236.571V60.912ZM236.571 63V64H237.571V63H236.571ZM231.261 63H230.261V64H231.261V63ZM231.261 51.354V50.354H230.261V51.354H231.261ZM236.571 51.354H237.571V50.354H236.571V51.354ZM236.571 53.406V54.406H237.571V53.406H236.571ZM233.781 53.406V52.406H232.781V53.406H233.781ZM233.781 56.142H232.781V57.142H233.781V56.142ZM236.391 56.142H237.391V55.142H236.391V56.142ZM236.391 58.122V59.122H237.391V58.122H236.391ZM233.781 58.122V57.122H232.781V58.122H233.781ZM233.781 60.912V61.912H236.571V60.912V59.912H233.781V60.912ZM236.571 60.912H235.571V63H236.571H237.571V60.912H236.571ZM236.571 63V62H231.261V63V64H236.571V63ZM231.261 63H232.261V51.354H231.261H230.261V63H231.261ZM231.261 51.354V52.354H236.571V51.354V50.354H231.261V51.354ZM236.571 51.354H235.571V53.406H236.571H237.571V51.354H236.571ZM236.571 53.406V52.406H233.781V53.406V54.406H236.571V53.406ZM233.781 53.406H232.781V56.142H233.781H234.781V53.406H233.781ZM233.781 56.142V57.142H236.391V56.142V55.142H233.781V56.142ZM236.391 56.142H235.391V58.122H236.391H237.391V56.142H236.391ZM236.391 58.122V57.122H233.781V58.122V59.122H236.391V58.122ZM233.781 58.122H232.781V60.912H233.781H234.781V58.122H233.781ZM248.418 51.354L249.365 51.6744L249.811 50.354H248.418V51.354ZM245.916 58.752L244.968 58.4316L244.916 58.5875V58.752H245.916ZM245.916 63V64H246.916V63H245.916ZM243.396 63H242.396V64H243.396V63ZM243.396 58.752H244.396V58.5875L244.343 58.4316L243.396 58.752ZM240.894 51.354V50.354H239.5L239.946 51.6744L240.894 51.354ZM243.27 51.354L244.231 51.0797L244.024 50.354H243.27V51.354ZM244.656 56.214L243.694 56.4883L244.656 59.8603L245.617 56.4883L244.656 56.214ZM246.042 51.354V50.354H245.287L245.08 51.0797L246.042 51.354ZM248.418 51.354L247.47 51.0336L244.968 58.4316L245.916 58.752L246.863 59.0724L249.365 51.6744L248.418 51.354ZM245.916 58.752H244.916V63H245.916H246.916V58.752H245.916ZM245.916 63V62H243.396V63V64H245.916V63ZM243.396 63H244.396V58.752H243.396H242.396V63H243.396ZM243.396 58.752L244.343 58.4316L241.841 51.0336L240.894 51.354L239.946 51.6744L242.448 59.0724L243.396 58.752ZM240.894 51.354V52.354H243.27V51.354V50.354H240.894V51.354ZM243.27 51.354L242.308 51.6283L243.694 56.4883L244.656 56.214L245.617 55.9397L244.231 51.0797L243.27 51.354ZM244.656 56.214L245.617 56.4883L247.003 51.6283L246.042 51.354L245.08 51.0797L243.694 55.9397L244.656 56.214ZM246.042 51.354V52.354H248.418V51.354V50.354H246.042V51.354ZM253.72 52.992L252.952 53.6322L252.981 53.667L253.013 53.6991L253.72 52.992ZM252.1 52.992L251.393 52.2849L251.361 52.317L251.332 52.3518L252.1 52.992ZM252.1 61.344L251.332 61.9842L251.361 62.019L251.393 62.0511L252.1 61.344ZM253.72 61.344L253.013 60.6369L252.981 60.669L252.952 60.7038L253.72 61.344ZM256.348 53.55H255.348V60.804H256.348H257.348V53.55H256.348ZM256.348 60.804H255.348C255.348 61.4569 255.193 61.7605 255.061 61.9013C254.94 62.0304 254.689 62.18 254.116 62.18V63.18V64.18C255.031 64.18 255.896 63.9336 256.519 63.2707C257.13 62.6195 257.348 61.7351 257.348 60.804H256.348ZM254.116 63.18V62.18H251.722V63.18V64.18H254.116V63.18ZM251.722 63.18V62.18C251.149 62.18 250.898 62.0304 250.777 61.9013C250.644 61.7605 250.49 61.4569 250.49 60.804H249.49H248.49C248.49 61.7351 248.707 62.6195 249.319 63.2707C249.942 63.9336 250.807 64.18 251.722 64.18V63.18ZM249.49 60.804H250.49V53.55H249.49H248.49V60.804H249.49ZM249.49 53.55H250.49C250.49 52.8971 250.644 52.5935 250.777 52.4527C250.898 52.3236 251.149 52.174 251.722 52.174V51.174V50.174C250.807 50.174 249.942 50.4204 249.319 51.0833C248.707 51.7345 248.49 52.6189 248.49 53.55H249.49ZM251.722 51.174V52.174H254.116V51.174V50.174H251.722V51.174ZM254.116 51.174V52.174C254.689 52.174 254.94 52.3236 255.061 52.4527C255.193 52.5935 255.348 52.8971 255.348 53.55H256.348H257.348C257.348 52.6189 257.13 51.7345 256.519 51.0833C255.896 50.4204 255.031 50.174 254.116 50.174V51.174ZM253.828 61.092H254.828V53.244H253.828H252.828V61.092H253.828ZM253.828 53.244H254.828C254.828 52.8654 254.674 52.5318 254.427 52.2849L253.72 52.992L253.013 53.6991C252.969 53.6554 252.919 53.5905 252.882 53.5029C252.844 53.4142 252.828 53.3245 252.828 53.244H253.828ZM253.72 52.992L254.488 52.3518C254.233 52.0455 253.87 51.884 253.486 51.884V52.884V53.884C253.406 53.884 253.304 53.8684 253.197 53.819C253.09 53.7692 253.008 53.6997 252.952 53.6322L253.72 52.992ZM253.486 52.884V51.884H252.352V52.884V53.884H253.486V52.884ZM252.352 52.884V51.884C251.973 51.884 251.64 52.038 251.393 52.2849L252.1 52.992L252.807 53.6991C252.763 53.7428 252.698 53.7926 252.611 53.8301C252.522 53.8682 252.432 53.884 252.352 53.884V52.884ZM252.1 52.992L251.332 52.3518C251.118 52.6082 251.01 52.9203 251.01 53.244H252.01H253.01C253.01 53.3019 253 53.3714 252.974 53.4453C252.948 53.5196 252.909 53.5825 252.868 53.6322L252.1 52.992ZM252.01 53.244H251.01V61.092H252.01H253.01V53.244H252.01ZM252.01 61.092H251.01C251.01 61.4157 251.118 61.7278 251.332 61.9842L252.1 61.344L252.868 60.7038C252.909 60.7535 252.948 60.8164 252.974 60.8907C253 60.9646 253.01 61.0341 253.01 61.092H252.01ZM252.1 61.344L251.393 62.0511C251.64 62.298 251.973 62.452 252.352 62.452V61.452V60.452C252.432 60.452 252.522 60.4678 252.611 60.5059C252.698 60.5434 252.763 60.5932 252.807 60.6369L252.1 61.344ZM252.352 61.452V62.452H253.486V61.452V60.452H252.352V61.452ZM253.486 61.452V62.452C253.87 62.452 254.233 62.2905 254.488 61.9842L253.72 61.344L252.952 60.7038C253.008 60.6363 253.09 60.5668 253.197 60.517C253.304 60.4676 253.406 60.452 253.486 60.452V61.452ZM253.72 61.344L254.427 62.0511C254.674 61.8042 254.828 61.4706 254.828 61.092H253.828H252.828C252.828 61.0115 252.844 60.9218 252.882 60.8331C252.919 60.7455 252.969 60.6806 253.013 60.6369L253.72 61.344ZM262.367 51.354V50.354H261.367V51.354H262.367ZM264.887 51.354H265.887V50.354H264.887V51.354ZM258.191 51.354V50.354H257.191V51.354H258.191ZM260.711 51.354H261.711V50.354H260.711V51.354ZM260.801 61.272L260.032 61.9122L260.061 61.947L260.093 61.9791L260.801 61.272ZM262.259 61.272L261.551 60.5649L261.519 60.597L261.49 60.6318L262.259 61.272ZM262.367 51.354V52.354H264.887V51.354V50.354H262.367V51.354ZM264.887 51.354H263.887V60.804H264.887H265.887V51.354H264.887ZM264.887 60.804H263.887C263.887 61.4569 263.732 61.7605 263.6 61.9013C263.478 62.0304 263.228 62.18 262.655 62.18V63.18V64.18C263.569 64.18 264.435 63.9336 265.057 63.2707C265.669 62.6195 265.887 61.7351 265.887 60.804H264.887ZM262.655 63.18V62.18H260.423V63.18V64.18H262.655V63.18ZM260.423 63.18V62.18C259.849 62.18 259.599 62.0304 259.477 61.9013C259.345 61.7605 259.191 61.4569 259.191 60.804H258.191H257.191C257.191 61.7351 257.408 62.6195 258.02 63.2707C258.642 63.9336 259.508 64.18 260.423 64.18V63.18ZM258.191 60.804H259.191V51.354H258.191H257.191V60.804H258.191ZM258.191 51.354V52.354H260.711V51.354V50.354H258.191V51.354ZM260.711 51.354H259.711V61.02H260.711H261.711V51.354H260.711ZM260.711 61.02H259.711C259.711 61.3437 259.819 61.6558 260.032 61.9122L260.801 61.272L261.569 60.6318C261.61 60.6815 261.648 60.7444 261.675 60.8187C261.701 60.8926 261.711 60.9621 261.711 61.02H260.711ZM260.801 61.272L260.093 61.9791C260.34 62.226 260.674 62.38 261.053 62.38V61.38V60.38C261.133 60.38 261.223 60.3958 261.312 60.4339C261.399 60.4714 261.464 60.5212 261.508 60.5649L260.801 61.272ZM261.053 61.38V62.38H262.025V61.38V60.38H261.053V61.38ZM262.025 61.38V62.38C262.409 62.38 262.772 62.2185 263.027 61.9122L262.259 61.272L261.49 60.6318C261.547 60.5643 261.628 60.4948 261.736 60.445C261.843 60.3956 261.945 60.38 262.025 60.38V61.38ZM262.259 61.272L262.966 61.9791C263.213 61.7322 263.367 61.3986 263.367 61.02H262.367H261.367C261.367 60.9395 261.382 60.8498 261.42 60.7611C261.458 60.6735 261.508 60.6086 261.551 60.5649L262.259 61.272ZM262.367 61.02H263.367V51.354H262.367H261.367V61.02H262.367ZM272.77 60.876H271.77V61.876H272.77V60.876ZM275.524 60.876H276.524V59.876H275.524V60.876ZM275.524 63V64H276.524V63H275.524ZM270.25 63H269.25V64H270.25V63ZM270.25 51.354V50.354H269.25V51.354H270.25ZM272.77 51.354H273.77V50.354H272.77V51.354ZM272.77 60.876V61.876H275.524V60.876V59.876H272.77V60.876ZM275.524 60.876H274.524V63H275.524H276.524V60.876H275.524ZM275.524 63V62H270.25V63V64H275.524V63ZM270.25 63H271.25V51.354H270.25H269.25V63H270.25ZM270.25 51.354V52.354H272.77V51.354V50.354H270.25V51.354ZM272.77 51.354H271.77V60.876H272.77H273.77V51.354H272.77ZM279.238 60.912H278.238V61.912H279.238V60.912ZM282.028 60.912H283.028V59.912H282.028V60.912ZM282.028 63V64H283.028V63H282.028ZM276.718 63H275.718V64H276.718V63ZM276.718 51.354V50.354H275.718V51.354H276.718ZM282.028 51.354H283.028V50.354H282.028V51.354ZM282.028 53.406V54.406H283.028V53.406H282.028ZM279.238 53.406V52.406H278.238V53.406H279.238ZM279.238 56.142H278.238V57.142H279.238V56.142ZM281.848 56.142H282.848V55.142H281.848V56.142ZM281.848 58.122V59.122H282.848V58.122H281.848ZM279.238 58.122V57.122H278.238V58.122H279.238ZM279.238 60.912V61.912H282.028V60.912V59.912H279.238V60.912ZM282.028 60.912H281.028V63H282.028H283.028V60.912H282.028ZM282.028 63V62H276.718V63V64H282.028V63ZM276.718 63H277.718V51.354H276.718H275.718V63H276.718ZM276.718 51.354V52.354H282.028V51.354V50.354H276.718V51.354ZM282.028 51.354H281.028V53.406H282.028H283.028V51.354H282.028ZM282.028 53.406V52.406H279.238V53.406V54.406H282.028V53.406ZM279.238 53.406H278.238V56.142H279.238H280.238V53.406H279.238ZM279.238 56.142V57.142H281.848V56.142V55.142H279.238V56.142ZM281.848 56.142H280.848V58.122H281.848H282.848V56.142H281.848ZM281.848 58.122V57.122H279.238V58.122V59.122H281.848V58.122ZM279.238 58.122H278.238V60.912H279.238H280.238V58.122H279.238ZM286.006 58.428V57.428H285.006V58.428H286.006ZM286.006 63V64H287.006V63H286.006ZM283.486 63H282.486V64H283.486V63ZM283.486 51.354V50.354H282.486V51.354H283.486ZM288.742 51.354H289.742V50.354H288.742V51.354ZM288.742 53.532V54.532H289.742V53.532H288.742ZM286.006 53.532V52.532H285.006V53.532H286.006ZM286.006 56.322H285.006V57.322H286.006V56.322ZM288.562 56.322H289.562V55.322H288.562V56.322ZM288.562 58.428V59.428H289.562V58.428H288.562ZM286.006 58.428H285.006V63H286.006H287.006V58.428H286.006ZM286.006 63V62H283.486V63V64H286.006V63ZM283.486 63H284.486V51.354H283.486H282.486V63H283.486ZM283.486 51.354V52.354H288.742V51.354V50.354H283.486V51.354ZM288.742 51.354H287.742V53.532H288.742H289.742V51.354H288.742ZM288.742 53.532V52.532H286.006V53.532V54.532H288.742V53.532ZM286.006 53.532H285.006V56.322H286.006H287.006V53.532H286.006ZM286.006 56.322V57.322H288.562V56.322V55.322H286.006V56.322ZM288.562 56.322H287.562V58.428H288.562H289.562V56.322H288.562ZM288.562 58.428V57.428H286.006V58.428V59.428H288.562V58.428ZM289.552 53.496H288.552V54.496H289.552V53.496ZM289.552 51.354V50.354H288.552V51.354H289.552ZM295.852 51.354H296.852V50.354H295.852V51.354ZM295.852 53.496V54.496H296.852V53.496H295.852ZM293.962 53.496V52.496H292.962V53.496H293.962ZM293.962 63V64H294.962V63H293.962ZM291.442 63H290.442V64H291.442V63ZM291.442 53.496H292.442V52.496H291.442V53.496ZM289.552 53.496H290.552V51.354H289.552H288.552V53.496H289.552ZM289.552 51.354V52.354H295.852V51.354V50.354H289.552V51.354ZM295.852 51.354H294.852V53.496H295.852H296.852V51.354H295.852ZM295.852 53.496V52.496H293.962V53.496V54.496H295.852V53.496ZM293.962 53.496H292.962V63H293.962H294.962V53.496H293.962ZM293.962 63V62H291.442V63V64H293.962V63ZM291.442 63H292.442V53.496H291.442H290.442V63H291.442ZM291.442 53.496V52.496H289.552V53.496V54.496H291.442V53.496ZM304.872 52.992L304.104 53.6322L304.133 53.667L304.165 53.6991L304.872 52.992ZM303.252 52.992L302.545 52.2849L302.513 52.317L302.484 52.3518L303.252 52.992ZM303.252 61.344L302.484 61.9842L302.513 62.019L302.545 62.0511L303.252 61.344ZM304.872 61.344L304.165 60.6369L304.133 60.669L304.104 60.7038L304.872 61.344ZM307.5 53.55H306.5V60.804H307.5H308.5V53.55H307.5ZM307.5 60.804H306.5C306.5 61.4569 306.346 61.7605 306.213 61.9013C306.092 62.0304 305.841 62.18 305.268 62.18V63.18V64.18C306.183 64.18 307.048 63.9336 307.671 63.2707C308.283 62.6195 308.5 61.7351 308.5 60.804H307.5ZM305.268 63.18V62.18H302.874V63.18V64.18H305.268V63.18ZM302.874 63.18V62.18C302.301 62.18 302.05 62.0304 301.929 61.9013C301.797 61.7605 301.642 61.4569 301.642 60.804H300.642H299.642C299.642 61.7351 299.86 62.6195 300.471 63.2707C301.094 63.9336 301.959 64.18 302.874 64.18V63.18ZM300.642 60.804H301.642V53.55H300.642H299.642V60.804H300.642ZM300.642 53.55H301.642C301.642 52.8971 301.797 52.5935 301.929 52.4527C302.05 52.3236 302.301 52.174 302.874 52.174V51.174V50.174C301.959 50.174 301.094 50.4204 300.471 51.0833C299.86 51.7345 299.642 52.6189 299.642 53.55H300.642ZM302.874 51.174V52.174H305.268V51.174V50.174H302.874V51.174ZM305.268 51.174V52.174C305.841 52.174 306.092 52.3236 306.213 52.4527C306.346 52.5935 306.5 52.8971 306.5 53.55H307.5H308.5C308.5 52.6189 308.283 51.7345 307.671 51.0833C307.048 50.4204 306.183 50.174 305.268 50.174V51.174ZM304.98 61.092H305.98V53.244H304.98H303.98V61.092H304.98ZM304.98 53.244H305.98C305.98 52.8654 305.826 52.5318 305.579 52.2849L304.872 52.992L304.165 53.6991C304.121 53.6554 304.072 53.5905 304.034 53.5029C303.996 53.4142 303.98 53.3245 303.98 53.244H304.98ZM304.872 52.992L305.64 52.3518C305.385 52.0455 305.023 51.884 304.638 51.884V52.884V53.884C304.559 53.884 304.457 53.8684 304.35 53.819C304.242 53.7692 304.16 53.6997 304.104 53.6322L304.872 52.992ZM304.638 52.884V51.884H303.504V52.884V53.884H304.638V52.884ZM303.504 52.884V51.884C303.126 51.884 302.792 52.038 302.545 52.2849L303.252 52.992L303.959 53.6991C303.916 53.7428 303.851 53.7926 303.763 53.8301C303.674 53.8682 303.585 53.884 303.504 53.884V52.884ZM303.252 52.992L302.484 52.3518C302.27 52.6082 302.162 52.9203 302.162 53.244H303.162H304.162C304.162 53.3019 304.153 53.3714 304.126 53.4453C304.1 53.5196 304.062 53.5825 304.02 53.6322L303.252 52.992ZM303.162 53.244H302.162V61.092H303.162H304.162V53.244H303.162ZM303.162 61.092H302.162C302.162 61.4157 302.27 61.7278 302.484 61.9842L303.252 61.344L304.02 60.7038C304.062 60.7535 304.1 60.8164 304.126 60.8907C304.153 60.9646 304.162 61.0341 304.162 61.092H303.162ZM303.252 61.344L302.545 62.0511C302.792 62.298 303.126 62.452 303.504 62.452V61.452V60.452C303.585 60.452 303.674 60.4678 303.763 60.5059C303.851 60.5434 303.916 60.5932 303.959 60.6369L303.252 61.344ZM303.504 61.452V62.452H304.638V61.452V60.452H303.504V61.452ZM304.638 61.452V62.452C305.023 62.452 305.385 62.2905 305.64 61.9842L304.872 61.344L304.104 60.7038C304.16 60.6363 304.242 60.5668 304.35 60.517C304.457 60.4676 304.559 60.452 304.638 60.452V61.452ZM304.872 61.344L305.579 62.0511C305.826 61.8042 305.98 61.4706 305.98 61.092H304.98H303.98C303.98 61.0115 303.996 60.9218 304.034 60.8331C304.072 60.7455 304.121 60.6806 304.165 60.6369L304.872 61.344ZM311.881 58.428V57.428H310.881V58.428H311.881ZM311.881 63V64H312.881V63H311.881ZM309.361 63H308.361V64H309.361V63ZM309.361 51.354V50.354H308.361V51.354H309.361ZM314.617 51.354H315.617V50.354H314.617V51.354ZM314.617 53.532V54.532H315.617V53.532H314.617ZM311.881 53.532V52.532H310.881V53.532H311.881ZM311.881 56.322H310.881V57.322H311.881V56.322ZM314.437 56.322H315.437V55.322H314.437V56.322ZM314.437 58.428V59.428H315.437V58.428H314.437ZM311.881 58.428H310.881V63H311.881H312.881V58.428H311.881ZM311.881 63V62H309.361V63V64H311.881V63ZM309.361 63H310.361V51.354H309.361H308.361V63H309.361ZM309.361 51.354V52.354H314.617V51.354V50.354H309.361V51.354ZM314.617 51.354H313.617V53.532H314.617H315.617V51.354H314.617ZM314.617 53.532V52.532H311.881V53.532V54.532H314.617V53.532ZM311.881 53.532H310.881V56.322H311.881H312.881V53.532H311.881ZM311.881 56.322V57.322H314.437V56.322V55.322H311.881V56.322ZM314.437 56.322H313.437V58.428H314.437H315.437V56.322H314.437ZM314.437 58.428V57.428H311.881V58.428V59.428H314.437V58.428ZM318.613 58.428V57.428H317.613V58.428H318.613ZM318.613 63V64H319.613V63H318.613ZM316.093 63H315.093V64H316.093V63ZM316.093 51.354V50.354H315.093V51.354H316.093ZM321.349 51.354H322.349V50.354H321.349V51.354ZM321.349 53.532V54.532H322.349V53.532H321.349ZM318.613 53.532V52.532H317.613V53.532H318.613ZM318.613 56.322H317.613V57.322H318.613V56.322ZM321.169 56.322H322.169V55.322H321.169V56.322ZM321.169 58.428V59.428H322.169V58.428H321.169ZM318.613 58.428H317.613V63H318.613H319.613V58.428H318.613ZM318.613 63V62H316.093V63V64H318.613V63ZM316.093 63H317.093V51.354H316.093H315.093V63H316.093ZM316.093 51.354V52.354H321.349V51.354V50.354H316.093V51.354ZM321.349 51.354H320.349V53.532H321.349H322.349V51.354H321.349ZM321.349 53.532V52.532H318.613V53.532V54.532H321.349V53.532ZM318.613 53.532H317.613V56.322H318.613H319.613V53.532H318.613ZM318.613 56.322V57.322H321.169V56.322V55.322H318.613V56.322ZM321.169 56.322H320.169V58.428H321.169H322.169V56.322H321.169ZM321.169 58.428V57.428H318.613V58.428V59.428H321.169V58.428Z" fill="black" mask="url(#path-7-inside-3_35_136)"/>
</svg>
