<svg width="414" height="72" viewBox="0 0 414 72" fill="none" xmlns="http://www.w3.org/2000/svg">
<rect width="414" height="72" fill="#D9D9D9"/>
<rect width="72" height="72" fill="#838383"/>
<path d="M99.312 32.608V29.408H103.568V32.096C103.568 34.912 102.245 36.32 99.6 36.32H95.568C92.9227 36.32 91.6 34.912 91.6 32.096V19.2C91.6 16.384 92.9227 14.976 95.568 14.976H99.6C102.245 14.976 103.568 16.384 103.568 19.2V21.152H99.312V18.656C99.312 18.4853 99.248 18.336 99.12 18.208C99.0133 18.08 98.8747 18.016 98.704 18.016H96.688C96.5173 18.016 96.368 18.08 96.24 18.208C96.1333 18.336 96.08 18.4853 96.08 18.656V32.608C96.08 32.7787 96.1333 32.928 96.24 33.056C96.368 33.184 96.5173 33.248 96.688 33.248H98.704C98.8747 33.248 99.0133 33.184 99.12 33.056C99.248 32.928 99.312 32.7787 99.312 32.608ZM118.448 19.2V32.096C118.448 34.912 117.126 36.32 114.48 36.32H110.224C107.579 36.32 106.256 34.912 106.256 32.096V19.2C106.256 16.384 107.579 14.976 110.224 14.976H114.48C117.126 14.976 118.448 16.384 118.448 19.2ZM113.968 32.608V18.656C113.968 18.4853 113.904 18.336 113.776 18.208C113.67 18.08 113.531 18.016 113.36 18.016H111.344C111.174 18.016 111.024 18.08 110.896 18.208C110.79 18.336 110.736 18.4853 110.736 18.656V32.608C110.736 32.7787 110.79 32.928 110.896 33.056C111.024 33.184 111.174 33.248 111.344 33.248H113.36C113.531 33.248 113.67 33.184 113.776 33.056C113.904 32.928 113.968 32.7787 113.968 32.608ZM133.628 36H129.148V18.816C129.148 18.6453 129.084 18.496 128.956 18.368C128.85 18.24 128.711 18.176 128.54 18.176H126.812C126.642 18.176 126.492 18.24 126.364 18.368C126.258 18.496 126.204 18.6453 126.204 18.816V36H121.724V19.2C121.724 16.384 123.047 14.976 125.692 14.976H129.66C132.306 14.976 133.628 16.384 133.628 19.2V36ZM135.447 19.104V15.296H146.647V19.104H143.287V36H138.807V19.104H135.447ZM153.174 15.296V36H148.694V15.296H153.174ZM168.378 36H163.898V18.816C163.898 18.6453 163.834 18.496 163.706 18.368C163.6 18.24 163.461 18.176 163.29 18.176H161.562C161.392 18.176 161.242 18.24 161.114 18.368C161.008 18.496 160.954 18.6453 160.954 18.816V36H156.474V19.2C156.474 16.384 157.797 14.976 160.442 14.976H164.41C167.056 14.976 168.378 16.384 168.378 19.2V36ZM178.773 15.296H183.253V32.096C183.253 34.912 181.931 36.32 179.285 36.32H175.317C172.672 36.32 171.349 34.912 171.349 32.096V15.296H175.829V32.48C175.829 32.6507 175.883 32.8 175.989 32.928C176.117 33.056 176.267 33.12 176.437 33.12H178.165C178.336 33.12 178.475 33.056 178.581 32.928C178.709 32.8 178.773 32.6507 178.773 32.48V15.296ZM190.799 32.288H195.759V36H186.319V15.296H195.759V18.944H190.799V23.808H195.439V27.328H190.799V32.288Z" fill="black"/>
<path d="M34.1721 29.2V42.096C34.1721 44.912 32.8495 46.32 30.2041 46.32H26.3961C23.7508 46.32 22.4281 44.912 22.4281 42.096V29.2C22.4281 26.384 23.7508 24.976 26.3961 24.976H30.2041C32.8495 24.976 34.1721 26.384 34.1721 29.2ZM29.8201 42.608V28.656C29.8201 28.4853 29.7561 28.336 29.6281 28.208C29.5215 28.08 29.3828 28.016 29.2121 28.016H27.3881C27.2175 28.016 27.0681 28.08 26.9401 28.208C26.8335 28.336 26.7801 28.4853 26.7801 28.656V42.608C26.7801 42.7787 26.8335 42.928 26.9401 43.056C27.0681 43.184 27.2175 43.248 27.3881 43.248H29.2121C29.3828 43.248 29.5215 43.184 29.6281 43.056C29.7561 42.928 29.8201 42.7787 29.8201 42.608ZM41.3121 38.896V42.32H48.2241V46H37.2161V38.544C37.2161 35.728 38.5388 34.32 41.1841 34.32H43.7441C43.9148 34.32 44.0535 34.256 44.1601 34.128C44.2881 34 44.3521 33.8507 44.3521 33.68V29.104C44.3521 28.9333 44.2881 28.784 44.1601 28.656C44.0535 28.528 43.9148 28.464 43.7441 28.464H41.8561C41.6855 28.464 41.5361 28.528 41.4081 28.656C41.3015 28.784 41.2481 28.9333 41.2481 29.104V30.736H36.9921V29.2C36.9921 26.384 38.3148 24.976 40.9601 24.976H44.5121C47.1575 24.976 48.4801 26.384 48.4801 29.2V34.032C48.4801 36.848 47.1575 38.256 44.5121 38.256H41.9201C41.7495 38.256 41.6001 38.32 41.4721 38.448C41.3655 38.576 41.3121 38.7253 41.3121 38.896Z" fill="white"/>
<path d="M95.238 61.092V59.292H97.632V60.804C97.632 62.388 96.888 63.18 95.4 63.18H93.132C91.644 63.18 90.9 62.388 90.9 60.804V53.55C90.9 51.966 91.644 51.174 93.132 51.174H95.4C96.888 51.174 97.632 51.966 97.632 53.55V54.648H95.238V53.244C95.238 53.148 95.202 53.064 95.13 52.992C95.07 52.92 94.992 52.884 94.896 52.884H93.762C93.666 52.884 93.582 52.92 93.51 52.992C93.45 53.064 93.42 53.148 93.42 53.244V61.092C93.42 61.188 93.45 61.272 93.51 61.344C93.582 61.416 93.666 61.452 93.762 61.452H94.896C94.992 61.452 95.07 61.416 95.13 61.344C95.202 61.272 95.238 61.188 95.238 61.092ZM106.002 53.55V60.804C106.002 62.388 105.258 63.18 103.77 63.18H101.376C99.8881 63.18 99.1441 62.388 99.1441 60.804V53.55C99.1441 51.966 99.8881 51.174 101.376 51.174H103.77C105.258 51.174 106.002 51.966 106.002 53.55ZM103.482 61.092V53.244C103.482 53.148 103.446 53.064 103.374 52.992C103.314 52.92 103.236 52.884 103.14 52.884H102.006C101.91 52.884 101.826 52.92 101.754 52.992C101.694 53.064 101.664 53.148 101.664 53.244V61.092C101.664 61.188 101.694 61.272 101.754 61.344C101.826 61.416 101.91 61.452 102.006 61.452H103.14C103.236 61.452 103.314 61.416 103.374 61.344C103.446 61.272 103.482 61.188 103.482 61.092ZM114.541 63H112.021V53.334C112.021 53.238 111.985 53.154 111.913 53.082C111.853 53.01 111.775 52.974 111.679 52.974H110.707C110.611 52.974 110.527 53.01 110.455 53.082C110.395 53.154 110.365 53.238 110.365 53.334V63H107.845V53.55C107.845 51.966 108.589 51.174 110.077 51.174H112.309C113.797 51.174 114.541 51.966 114.541 53.55V63ZM115.564 53.496V51.354H121.864V53.496H119.974V63H117.454V53.496H115.564ZM125.535 51.354V63H123.015V51.354H125.535ZM134.088 63H131.568V53.334C131.568 53.238 131.532 53.154 131.46 53.082C131.4 53.01 131.322 52.974 131.226 52.974H130.254C130.158 52.974 130.074 53.01 130.002 53.082C129.942 53.154 129.912 53.238 129.912 53.334V63H127.392V53.55C127.392 51.966 128.136 51.174 129.624 51.174H131.856C133.344 51.174 134.088 51.966 134.088 53.55V63ZM139.935 51.354H142.455V60.804C142.455 62.388 141.711 63.18 140.223 63.18H137.991C136.503 63.18 135.759 62.388 135.759 60.804V51.354H138.279V61.02C138.279 61.116 138.309 61.2 138.369 61.272C138.441 61.344 138.525 61.38 138.621 61.38H139.593C139.689 61.38 139.767 61.344 139.827 61.272C139.899 61.2 139.935 61.116 139.935 61.02V51.354ZM146.699 60.912H149.489V63H144.179V51.354H149.489V53.406H146.699V56.142H149.309V58.122H146.699V60.912ZM157.106 58.428V63H154.586V51.354H159.842V53.532H157.106V56.322H159.662V58.428H157.106ZM163.838 58.23V63H161.318V51.354H165.8C167.288 51.354 168.032 52.146 168.032 53.73V55.08C168.032 56.04 167.69 56.652 167.006 56.916C167.606 57.132 167.906 57.624 167.906 58.392V63H165.386V58.59C165.386 58.35 165.272 58.23 165.044 58.23H163.838ZM163.838 53.064V56.466H165.17C165.266 56.466 165.344 56.43 165.404 56.358C165.476 56.286 165.512 56.202 165.512 56.106V53.424C165.512 53.328 165.476 53.244 165.404 53.172C165.344 53.1 165.266 53.064 165.17 53.064H163.838ZM176.508 53.55V60.804C176.508 62.388 175.764 63.18 174.276 63.18H171.882C170.394 63.18 169.65 62.388 169.65 60.804V53.55C169.65 51.966 170.394 51.174 171.882 51.174H174.276C175.764 51.174 176.508 51.966 176.508 53.55ZM173.988 61.092V53.244C173.988 53.148 173.952 53.064 173.88 52.992C173.82 52.92 173.742 52.884 173.646 52.884H172.512C172.416 52.884 172.332 52.92 172.26 52.992C172.2 53.064 172.17 53.148 172.17 53.244V61.092C172.17 61.188 172.2 61.272 172.26 61.344C172.332 61.416 172.416 61.452 172.512 61.452H173.646C173.742 61.452 173.82 61.416 173.88 61.344C173.952 61.272 173.988 61.188 173.988 61.092ZM180.871 63H178.351V53.55C178.351 51.966 179.095 51.174 180.583 51.174H181.915C182.791 51.174 183.415 51.462 183.787 52.038C184.135 51.462 184.759 51.174 185.659 51.174H186.991C188.479 51.174 189.223 51.966 189.223 53.55V63H186.703V53.334C186.703 53.238 186.667 53.154 186.595 53.082C186.535 53.01 186.457 52.974 186.361 52.974H185.389C185.293 52.974 185.209 53.01 185.137 53.082C185.077 53.154 185.047 53.238 185.047 53.334V63H182.527V53.334C182.527 53.238 182.491 53.154 182.419 53.082C182.359 53.01 182.281 52.974 182.185 52.974H181.213C181.117 52.974 181.033 53.01 180.961 53.082C180.901 53.154 180.871 53.238 180.871 53.334V63ZM198.895 51.354H201.127L202.477 60.12L203.485 51.354H205.933L204.043 63H201.181L200.011 55.854L198.841 63H195.979L194.089 51.354H196.537L197.545 60.12L198.895 51.354ZM209.84 58.428V63H207.32V51.354H209.84V56.232H211.838V51.354H214.358V63H211.838V58.428H209.84ZM218.682 60.912H221.472V63H216.162V51.354H221.472V53.406H218.682V56.142H221.292V58.122H218.682V60.912ZM225.449 58.23V63H222.929V51.354H227.411C228.899 51.354 229.643 52.146 229.643 53.73V55.08C229.643 56.04 229.301 56.652 228.617 56.916C229.217 57.132 229.517 57.624 229.517 58.392V63H226.997V58.59C226.997 58.35 226.883 58.23 226.655 58.23H225.449ZM225.449 53.064V56.466H226.781C226.877 56.466 226.955 56.43 227.015 56.358C227.087 56.286 227.123 56.202 227.123 56.106V53.424C227.123 53.328 227.087 53.244 227.015 53.172C226.955 53.1 226.877 53.064 226.781 53.064H225.449ZM233.781 60.912H236.571V63H231.261V51.354H236.571V53.406H233.781V56.142H236.391V58.122H233.781V60.912ZM248.418 51.354L245.916 58.752V63H243.396V58.752L240.894 51.354H243.27L244.656 56.214L246.042 51.354H248.418ZM256.348 53.55V60.804C256.348 62.388 255.604 63.18 254.116 63.18H251.722C250.234 63.18 249.49 62.388 249.49 60.804V53.55C249.49 51.966 250.234 51.174 251.722 51.174H254.116C255.604 51.174 256.348 51.966 256.348 53.55ZM253.828 61.092V53.244C253.828 53.148 253.792 53.064 253.72 52.992C253.66 52.92 253.582 52.884 253.486 52.884H252.352C252.256 52.884 252.172 52.92 252.1 52.992C252.04 53.064 252.01 53.148 252.01 53.244V61.092C252.01 61.188 252.04 61.272 252.1 61.344C252.172 61.416 252.256 61.452 252.352 61.452H253.486C253.582 61.452 253.66 61.416 253.72 61.344C253.792 61.272 253.828 61.188 253.828 61.092ZM262.367 51.354H264.887V60.804C264.887 62.388 264.143 63.18 262.655 63.18H260.423C258.935 63.18 258.191 62.388 258.191 60.804V51.354H260.711V61.02C260.711 61.116 260.741 61.2 260.801 61.272C260.873 61.344 260.957 61.38 261.053 61.38H262.025C262.121 61.38 262.199 61.344 262.259 61.272C262.331 61.2 262.367 61.116 262.367 61.02V51.354ZM272.77 60.876H275.524V63H270.25V51.354H272.77V60.876ZM279.238 60.912H282.028V63H276.718V51.354H282.028V53.406H279.238V56.142H281.848V58.122H279.238V60.912ZM286.006 58.428V63H283.486V51.354H288.742V53.532H286.006V56.322H288.562V58.428H286.006ZM289.552 53.496V51.354H295.852V53.496H293.962V63H291.442V53.496H289.552ZM307.5 53.55V60.804C307.5 62.388 306.756 63.18 305.268 63.18H302.874C301.386 63.18 300.642 62.388 300.642 60.804V53.55C300.642 51.966 301.386 51.174 302.874 51.174H305.268C306.756 51.174 307.5 51.966 307.5 53.55ZM304.98 61.092V53.244C304.98 53.148 304.944 53.064 304.872 52.992C304.812 52.92 304.734 52.884 304.638 52.884H303.504C303.408 52.884 303.324 52.92 303.252 52.992C303.192 53.064 303.162 53.148 303.162 53.244V61.092C303.162 61.188 303.192 61.272 303.252 61.344C303.324 61.416 303.408 61.452 303.504 61.452H304.638C304.734 61.452 304.812 61.416 304.872 61.344C304.944 61.272 304.98 61.188 304.98 61.092ZM311.881 58.428V63H309.361V51.354H314.617V53.532H311.881V56.322H314.437V58.428H311.881ZM318.613 58.428V63H316.093V51.354H321.349V53.532H318.613V56.322H321.169V58.428H318.613Z" fill="black"/>
</svg>
