<svg width="414" height="72" viewBox="0 0 414 72" fill="none" xmlns="http://www.w3.org/2000/svg">
<rect width="414" height="72" fill="#D9D9D9"/>
<rect width="72" height="72" fill="#838383"/>
<path d="M103.472 36H98.992V18.816C98.992 18.6453 98.928 18.496 98.8 18.368C98.6933 18.24 98.5547 18.176 98.384 18.176H96.656C96.4853 18.176 96.336 18.24 96.208 18.368C96.1013 18.496 96.048 18.6453 96.048 18.816V36H91.568V19.2C91.568 16.384 92.8907 14.976 95.536 14.976H99.504C102.149 14.976 103.472 16.384 103.472 19.2V36ZM110.955 32.288H115.915V36H106.475V15.296H115.915V18.944H110.955V23.808H115.595V27.328H110.955V32.288ZM126.154 15.296H130.122L132.522 30.88L134.314 15.296H138.666L135.306 36H130.218L128.138 23.296L126.058 36H120.97L117.61 15.296H121.962L123.754 30.88L126.154 15.296ZM153.648 27.776V24.48H159.568V32.096C159.568 34.912 158.245 36.32 155.6 36.32H151.568C148.923 36.32 147.6 34.912 147.6 32.096V19.2C147.6 16.384 148.923 14.976 151.568 14.976H155.6C158.245 14.976 159.568 16.384 159.568 19.2V21.152H155.312V18.656C155.312 18.4853 155.248 18.336 155.12 18.208C155.013 18.08 154.875 18.016 154.704 18.016H152.688C152.517 18.016 152.368 18.08 152.24 18.208C152.133 18.336 152.08 18.4853 152.08 18.656V32.608C152.08 32.7787 152.133 32.928 152.24 33.056C152.368 33.184 152.517 33.248 152.688 33.248H154.704C154.875 33.248 155.013 33.184 155.12 33.056C155.248 32.928 155.312 32.7787 155.312 32.608V27.776H153.648ZM170.262 14.976C172.907 14.976 174.23 16.384 174.23 19.2V36H169.75V29.056H166.518V36H162.038V19.2C162.038 16.384 163.36 14.976 166.006 14.976H170.262ZM166.518 25.6H169.75V18.656C169.75 18.4853 169.686 18.336 169.558 18.208C169.451 18.08 169.312 18.016 169.142 18.016H167.126C166.955 18.016 166.806 18.08 166.678 18.208C166.571 18.336 166.518 18.4853 166.518 18.656V25.6ZM182.017 36H177.537V19.2C177.537 16.384 178.859 14.976 181.505 14.976H183.873C185.43 14.976 186.539 15.488 187.201 16.512C187.819 15.488 188.929 14.976 190.529 14.976H192.897C195.542 14.976 196.865 16.384 196.865 19.2V36H192.385V18.816C192.385 18.6453 192.321 18.496 192.193 18.368C192.086 18.24 191.947 18.176 191.777 18.176H190.049C189.878 18.176 189.729 18.24 189.601 18.368C189.494 18.496 189.441 18.6453 189.441 18.816V36H184.961V18.816C184.961 18.6453 184.897 18.496 184.769 18.368C184.662 18.24 184.523 18.176 184.353 18.176H182.625C182.454 18.176 182.305 18.24 182.177 18.368C182.07 18.496 182.017 18.6453 182.017 18.816V36ZM204.424 32.288H209.384V36H199.944V15.296H209.384V18.944H204.424V23.808H209.064V27.328H204.424V32.288Z" fill="black"/>
<path d="M37.4534 29.2V42.096C37.4534 44.912 36.1307 46.32 33.4854 46.32H29.6774C27.032 46.32 25.7094 44.912 25.7094 42.096V29.2C25.7094 26.384 27.032 24.976 29.6774 24.976H33.4854C36.1307 24.976 37.4534 26.384 37.4534 29.2ZM33.1014 42.608V28.656C33.1014 28.4853 33.0374 28.336 32.9094 28.208C32.8027 28.08 32.664 28.016 32.4934 28.016H30.6694C30.4987 28.016 30.3494 28.08 30.2214 28.208C30.1147 28.336 30.0614 28.4853 30.0614 28.656V42.608C30.0614 42.7787 30.1147 42.928 30.2214 43.056C30.3494 43.184 30.4987 43.248 30.6694 43.248H32.4934C32.664 43.248 32.8027 43.184 32.9094 43.056C33.0374 42.928 33.1014 42.7787 33.1014 42.608ZM44.9454 25.328V46.032H40.5934V25.328H44.9454Z" fill="white"/>
<path d="M97.362 53.414H94.968V52.496C94.968 52.4 94.932 52.316 94.86 52.244C94.8 52.172 94.722 52.136 94.626 52.136H93.636C93.54 52.136 93.456 52.172 93.384 52.244C93.324 52.316 93.294 52.4 93.294 52.496V54.566C93.294 54.662 93.324 54.746 93.384 54.818C93.456 54.89 93.54 54.926 93.636 54.926H95.256C96.744 54.95 97.488 55.742 97.488 57.302V59.804C97.488 61.388 96.744 62.18 95.256 62.18H93.132C91.644 62.18 90.9 61.388 90.9 59.804V58.598H93.294V59.894C93.294 59.99 93.324 60.074 93.384 60.146C93.456 60.218 93.54 60.254 93.636 60.254H94.752C94.848 60.254 94.926 60.218 94.986 60.146C95.058 60.074 95.094 59.99 95.094 59.894V57.608C95.094 57.512 95.058 57.428 94.986 57.356C94.926 57.284 94.848 57.248 94.752 57.248H93.132C91.644 57.248 90.9 56.456 90.9 54.872V52.55C90.9 50.966 91.644 50.174 93.132 50.174H95.13C96.618 50.174 97.362 50.966 97.362 52.55V53.414ZM98.4781 52.496V50.354H104.778V52.496H102.888V62H100.368V52.496H98.4781ZM110.555 50.174C112.043 50.174 112.787 50.966 112.787 52.55V62H110.267V58.094H108.449V62H105.929V52.55C105.929 50.966 106.673 50.174 108.161 50.174H110.555ZM108.449 56.15H110.267V52.244C110.267 52.148 110.231 52.064 110.159 51.992C110.099 51.92 110.021 51.884 109.925 51.884H108.791C108.695 51.884 108.611 51.92 108.539 51.992C108.479 52.064 108.449 52.148 108.449 52.244V56.15ZM117.186 57.23V62H114.666V50.354H119.148C120.636 50.354 121.38 51.146 121.38 52.73V54.08C121.38 55.04 121.038 55.652 120.354 55.916C120.954 56.132 121.254 56.624 121.254 57.392V62H118.734V57.59C118.734 57.35 118.62 57.23 118.392 57.23H117.186ZM117.186 52.064V55.466H118.518C118.614 55.466 118.692 55.43 118.752 55.358C118.824 55.286 118.86 55.202 118.86 55.106V52.424C118.86 52.328 118.824 52.244 118.752 52.172C118.692 52.1 118.614 52.064 118.518 52.064H117.186ZM122.332 52.496V50.354H128.632V52.496H126.742V62H124.222V52.496H122.332ZM138.047 50.174C139.535 50.174 140.279 50.966 140.279 52.55V62H137.759V58.094H135.941V62H133.421V52.55C133.421 50.966 134.165 50.174 135.653 50.174H138.047ZM135.941 56.15H137.759V52.244C137.759 52.148 137.723 52.064 137.651 51.992C137.591 51.92 137.513 51.884 137.417 51.884H136.283C136.187 51.884 136.103 51.92 136.031 51.992C135.971 52.064 135.941 52.148 135.941 52.244V56.15ZM152.474 62H149.954V52.334C149.954 52.238 149.918 52.154 149.846 52.082C149.786 52.01 149.708 51.974 149.612 51.974H148.64C148.544 51.974 148.46 52.01 148.388 52.082C148.328 52.154 148.298 52.238 148.298 52.334V62H145.778V52.55C145.778 50.966 146.522 50.174 148.01 50.174H150.242C151.73 50.174 152.474 50.966 152.474 52.55V62ZM156.684 59.912H159.474V62H154.164V50.354H159.474V52.406H156.684V55.142H159.294V57.122H156.684V59.912ZM165.233 50.354H167.465L168.815 59.12L169.823 50.354H172.271L170.381 62H167.519L166.349 54.854L165.179 62H162.317L160.427 50.354H162.875L163.883 59.12L165.233 50.354ZM183.758 53.414H181.364V52.496C181.364 52.4 181.328 52.316 181.256 52.244C181.196 52.172 181.118 52.136 181.022 52.136H180.032C179.936 52.136 179.852 52.172 179.78 52.244C179.72 52.316 179.69 52.4 179.69 52.496V54.566C179.69 54.662 179.72 54.746 179.78 54.818C179.852 54.89 179.936 54.926 180.032 54.926H181.652C183.14 54.95 183.884 55.742 183.884 57.302V59.804C183.884 61.388 183.14 62.18 181.652 62.18H179.528C178.04 62.18 177.296 61.388 177.296 59.804V58.598H179.69V59.894C179.69 59.99 179.72 60.074 179.78 60.146C179.852 60.218 179.936 60.254 180.032 60.254H181.148C181.244 60.254 181.322 60.218 181.382 60.146C181.454 60.074 181.49 59.99 181.49 59.894V57.608C181.49 57.512 181.454 57.428 181.382 57.356C181.322 57.284 181.244 57.248 181.148 57.248H179.528C178.04 57.248 177.296 56.456 177.296 54.872V52.55C177.296 50.966 178.04 50.174 179.528 50.174H181.526C183.014 50.174 183.758 50.966 183.758 52.55V53.414ZM190.167 50.174C191.655 50.174 192.399 50.966 192.399 52.55V62H189.879V58.094H188.061V62H185.541V52.55C185.541 50.966 186.285 50.174 187.773 50.174H190.167ZM188.061 56.15H189.879V52.244C189.879 52.148 189.843 52.064 189.771 51.992C189.711 51.92 189.633 51.884 189.537 51.884H188.403C188.307 51.884 188.223 51.92 188.151 51.992C188.091 52.064 188.061 52.148 188.061 52.244V56.15ZM198.975 50.354H201.405L198.993 62H196.095L193.683 50.354H196.131L197.553 58.85L198.975 50.354ZM205.164 50.354V62H202.644V50.354H205.164ZM213.717 62H211.197V52.334C211.197 52.238 211.161 52.154 211.089 52.082C211.029 52.01 210.951 51.974 210.855 51.974H209.883C209.787 51.974 209.703 52.01 209.631 52.082C209.571 52.154 209.541 52.238 209.541 52.334V62H207.021V52.55C207.021 50.966 207.765 50.174 209.253 50.174H211.485C212.973 50.174 213.717 50.966 213.717 52.55V62ZM218.808 57.374V55.52H222.138V59.804C222.138 61.388 221.394 62.18 219.906 62.18H217.638C216.15 62.18 215.406 61.388 215.406 59.804V52.55C215.406 50.966 216.15 50.174 217.638 50.174H219.906C221.394 50.174 222.138 50.966 222.138 52.55V53.648H219.744V52.244C219.744 52.148 219.708 52.064 219.636 51.992C219.576 51.92 219.498 51.884 219.402 51.884H218.268C218.172 51.884 218.088 51.92 218.016 51.992C217.956 52.064 217.926 52.148 217.926 52.244V60.092C217.926 60.188 217.956 60.272 218.016 60.344C218.088 60.416 218.172 60.452 218.268 60.452H219.402C219.498 60.452 219.576 60.416 219.636 60.344C219.708 60.272 219.744 60.188 219.744 60.092V57.374H218.808Z" fill="black"/>
</svg>
