<svg width="414" height="72" viewBox="0 0 414 72" fill="none" xmlns="http://www.w3.org/2000/svg">
<rect x="0.5" y="0.5" width="413" height="71" fill="#A19B00" stroke="black"/>
<rect x="0.5" y="0.5" width="71" height="71" fill="#869E00" stroke="black"/>
<mask id="path-3-inside-1_35_150" fill="white">
<path d="M103.472 36H98.992V18.816C98.992 18.6453 98.928 18.496 98.8 18.368C98.6933 18.24 98.5547 18.176 98.384 18.176H96.656C96.4853 18.176 96.336 18.24 96.208 18.368C96.1013 18.496 96.048 18.6453 96.048 18.816V36H91.568V19.2C91.568 16.384 92.8907 14.976 95.536 14.976H99.504C102.149 14.976 103.472 16.384 103.472 19.2V36ZM110.955 32.288H115.915V36H106.475V15.296H115.915V18.944H110.955V23.808H115.595V27.328H110.955V32.288ZM126.154 15.296H130.122L132.522 30.88L134.314 15.296H138.666L135.306 36H130.218L128.138 23.296L126.058 36H120.97L117.61 15.296H121.962L123.754 30.88L126.154 15.296ZM153.648 27.776V24.48H159.568V32.096C159.568 34.912 158.245 36.32 155.6 36.32H151.568C148.923 36.32 147.6 34.912 147.6 32.096V19.2C147.6 16.384 148.923 14.976 151.568 14.976H155.6C158.245 14.976 159.568 16.384 159.568 19.2V21.152H155.312V18.656C155.312 18.4853 155.248 18.336 155.12 18.208C155.013 18.08 154.875 18.016 154.704 18.016H152.688C152.517 18.016 152.368 18.08 152.24 18.208C152.133 18.336 152.08 18.4853 152.08 18.656V32.608C152.08 32.7787 152.133 32.928 152.24 33.056C152.368 33.184 152.517 33.248 152.688 33.248H154.704C154.875 33.248 155.013 33.184 155.12 33.056C155.248 32.928 155.312 32.7787 155.312 32.608V27.776H153.648ZM170.262 14.976C172.907 14.976 174.23 16.384 174.23 19.2V36H169.75V29.056H166.518V36H162.038V19.2C162.038 16.384 163.36 14.976 166.006 14.976H170.262ZM166.518 25.6H169.75V18.656C169.75 18.4853 169.686 18.336 169.558 18.208C169.451 18.08 169.312 18.016 169.142 18.016H167.126C166.955 18.016 166.806 18.08 166.678 18.208C166.571 18.336 166.518 18.4853 166.518 18.656V25.6ZM182.017 36H177.537V19.2C177.537 16.384 178.859 14.976 181.505 14.976H183.873C185.43 14.976 186.539 15.488 187.201 16.512C187.819 15.488 188.929 14.976 190.529 14.976H192.897C195.542 14.976 196.865 16.384 196.865 19.2V36H192.385V18.816C192.385 18.6453 192.321 18.496 192.193 18.368C192.086 18.24 191.947 18.176 191.777 18.176H190.049C189.878 18.176 189.729 18.24 189.601 18.368C189.494 18.496 189.441 18.6453 189.441 18.816V36H184.961V18.816C184.961 18.6453 184.897 18.496 184.769 18.368C184.662 18.24 184.523 18.176 184.353 18.176H182.625C182.454 18.176 182.305 18.24 182.177 18.368C182.07 18.496 182.017 18.6453 182.017 18.816V36ZM204.424 32.288H209.384V36H199.944V15.296H209.384V18.944H204.424V23.808H209.064V27.328H204.424V32.288Z"/>
</mask>
<path d="M103.472 36H98.992V18.816C98.992 18.6453 98.928 18.496 98.8 18.368C98.6933 18.24 98.5547 18.176 98.384 18.176H96.656C96.4853 18.176 96.336 18.24 96.208 18.368C96.1013 18.496 96.048 18.6453 96.048 18.816V36H91.568V19.2C91.568 16.384 92.8907 14.976 95.536 14.976H99.504C102.149 14.976 103.472 16.384 103.472 19.2V36ZM110.955 32.288H115.915V36H106.475V15.296H115.915V18.944H110.955V23.808H115.595V27.328H110.955V32.288ZM126.154 15.296H130.122L132.522 30.88L134.314 15.296H138.666L135.306 36H130.218L128.138 23.296L126.058 36H120.97L117.61 15.296H121.962L123.754 30.88L126.154 15.296ZM153.648 27.776V24.48H159.568V32.096C159.568 34.912 158.245 36.32 155.6 36.32H151.568C148.923 36.32 147.6 34.912 147.6 32.096V19.2C147.6 16.384 148.923 14.976 151.568 14.976H155.6C158.245 14.976 159.568 16.384 159.568 19.2V21.152H155.312V18.656C155.312 18.4853 155.248 18.336 155.12 18.208C155.013 18.08 154.875 18.016 154.704 18.016H152.688C152.517 18.016 152.368 18.08 152.24 18.208C152.133 18.336 152.08 18.4853 152.08 18.656V32.608C152.08 32.7787 152.133 32.928 152.24 33.056C152.368 33.184 152.517 33.248 152.688 33.248H154.704C154.875 33.248 155.013 33.184 155.12 33.056C155.248 32.928 155.312 32.7787 155.312 32.608V27.776H153.648ZM170.262 14.976C172.907 14.976 174.23 16.384 174.23 19.2V36H169.75V29.056H166.518V36H162.038V19.2C162.038 16.384 163.36 14.976 166.006 14.976H170.262ZM166.518 25.6H169.75V18.656C169.75 18.4853 169.686 18.336 169.558 18.208C169.451 18.08 169.312 18.016 169.142 18.016H167.126C166.955 18.016 166.806 18.08 166.678 18.208C166.571 18.336 166.518 18.4853 166.518 18.656V25.6ZM182.017 36H177.537V19.2C177.537 16.384 178.859 14.976 181.505 14.976H183.873C185.43 14.976 186.539 15.488 187.201 16.512C187.819 15.488 188.929 14.976 190.529 14.976H192.897C195.542 14.976 196.865 16.384 196.865 19.2V36H192.385V18.816C192.385 18.6453 192.321 18.496 192.193 18.368C192.086 18.24 191.947 18.176 191.777 18.176H190.049C189.878 18.176 189.729 18.24 189.601 18.368C189.494 18.496 189.441 18.6453 189.441 18.816V36H184.961V18.816C184.961 18.6453 184.897 18.496 184.769 18.368C184.662 18.24 184.523 18.176 184.353 18.176H182.625C182.454 18.176 182.305 18.24 182.177 18.368C182.07 18.496 182.017 18.6453 182.017 18.816V36ZM204.424 32.288H209.384V36H199.944V15.296H209.384V18.944H204.424V23.808H209.064V27.328H204.424V32.288Z" fill="black"/>
<path d="M103.472 36V37H104.472V36H103.472ZM98.992 36H97.992V37H98.992V36ZM98.8 18.368L98.0318 19.0082L98.0608 19.043L98.0929 19.0751L98.8 18.368ZM96.208 18.368L95.5009 17.6609L95.4688 17.693L95.4398 17.7278L96.208 18.368ZM96.048 36V37H97.048V36H96.048ZM91.568 36H90.568V37H91.568V36ZM103.472 36V35H98.992V36V37H103.472V36ZM98.992 36H99.992V18.816H98.992H97.992V36H98.992ZM98.992 18.816H99.992C99.992 18.3628 99.81 17.9638 99.5071 17.6609L98.8 18.368L98.0929 19.0751C98.0772 19.0594 98.0484 19.0248 98.0249 18.9699C98.0008 18.9139 97.992 18.8591 97.992 18.816H98.992ZM98.8 18.368L99.5682 17.7278C99.2663 17.3655 98.8431 17.176 98.384 17.176V18.176V19.176C98.3417 19.176 98.2737 19.1674 98.1969 19.132C98.1195 19.0962 98.0647 19.0477 98.0318 19.0082L98.8 18.368ZM98.384 18.176V17.176H96.656V18.176V19.176H98.384V18.176ZM96.656 18.176V17.176C96.2028 17.176 95.8038 17.358 95.5009 17.6609L96.208 18.368L96.9151 19.0751C96.8994 19.0908 96.8648 19.1196 96.8099 19.1431C96.7539 19.1672 96.6991 19.176 96.656 19.176V18.176ZM96.208 18.368L95.4398 17.7278C95.1794 18.0402 95.048 18.4176 95.048 18.816H96.048H97.048C97.048 18.8365 97.0445 18.8711 97.0297 18.9123C97.0149 18.9539 96.9943 18.9865 96.9762 19.0082L96.208 18.368ZM96.048 18.816H95.048V36H96.048H97.048V18.816H96.048ZM96.048 36V35H91.568V36V37H96.048V36ZM91.568 36H92.568V19.2H91.568H90.568V36H91.568ZM91.568 19.2H92.568C92.568 17.9311 92.8672 17.1655 93.2888 16.7167C93.6995 16.2796 94.384 15.976 95.536 15.976V14.976V13.976C94.0426 13.976 92.7432 14.3764 91.8312 15.3473C90.9301 16.3065 90.568 17.6529 90.568 19.2H91.568ZM95.536 14.976V15.976H99.504V14.976V13.976H95.536V14.976ZM99.504 14.976V15.976C100.656 15.976 101.341 16.2796 101.751 16.7167C102.173 17.1655 102.472 17.9311 102.472 19.2H103.472H104.472C104.472 17.6529 104.11 16.3065 103.209 15.3473C102.297 14.3764 100.997 13.976 99.504 13.976V14.976ZM103.472 19.2H102.472V36H103.472H104.472V19.2H103.472ZM110.955 32.288H109.955V33.288H110.955V32.288ZM115.915 32.288H116.915V31.288H115.915V32.288ZM115.915 36V37H116.915V36H115.915ZM106.475 36H105.475V37H106.475V36ZM106.475 15.296V14.296H105.475V15.296H106.475ZM115.915 15.296H116.915V14.296H115.915V15.296ZM115.915 18.944V19.944H116.915V18.944H115.915ZM110.955 18.944V17.944H109.955V18.944H110.955ZM110.955 23.808H109.955V24.808H110.955V23.808ZM115.595 23.808H116.595V22.808H115.595V23.808ZM115.595 27.328V28.328H116.595V27.328H115.595ZM110.955 27.328V26.328H109.955V27.328H110.955ZM110.955 32.288V33.288H115.915V32.288V31.288H110.955V32.288ZM115.915 32.288H114.915V36H115.915H116.915V32.288H115.915ZM115.915 36V35H106.475V36V37H115.915V36ZM106.475 36H107.475V15.296H106.475H105.475V36H106.475ZM106.475 15.296V16.296H115.915V15.296V14.296H106.475V15.296ZM115.915 15.296H114.915V18.944H115.915H116.915V15.296H115.915ZM115.915 18.944V17.944H110.955V18.944V19.944H115.915V18.944ZM110.955 18.944H109.955V23.808H110.955H111.955V18.944H110.955ZM110.955 23.808V24.808H115.595V23.808V22.808H110.955V23.808ZM115.595 23.808H114.595V27.328H115.595H116.595V23.808H115.595ZM115.595 27.328V26.328H110.955V27.328V28.328H115.595V27.328ZM110.955 27.328H109.955V32.288H110.955H111.955V27.328H110.955ZM126.154 15.296V14.296H125.296L125.166 15.1438L126.154 15.296ZM130.122 15.296L131.111 15.1438L130.98 14.296H130.122V15.296ZM132.522 30.88L131.534 31.0322L133.516 30.9942L132.522 30.88ZM134.314 15.296V14.296H133.423L133.321 15.1818L134.314 15.296ZM138.666 15.296L139.653 15.4562L139.842 14.296H138.666V15.296ZM135.306 36V37H136.157L136.293 36.1602L135.306 36ZM130.218 36L129.231 36.1616L129.369 37H130.218V36ZM128.138 23.296L129.125 23.1344H127.151L128.138 23.296ZM126.058 36V37H126.908L127.045 36.1616L126.058 36ZM120.97 36L119.983 36.1602L120.119 37H120.97V36ZM117.61 15.296V14.296H116.435L116.623 15.4562L117.61 15.296ZM121.962 15.296L122.956 15.1818L122.854 14.296H121.962V15.296ZM123.754 30.88L122.761 30.9942L124.743 31.0322L123.754 30.88ZM126.154 15.296V16.296H130.122V15.296V14.296H126.154V15.296ZM130.122 15.296L129.134 15.4482L131.534 31.0322L132.522 30.88L133.511 30.7278L131.111 15.1438L130.122 15.296ZM132.522 30.88L133.516 30.9942L135.308 15.4102L134.314 15.296L133.321 15.1818L131.529 30.7658L132.522 30.88ZM134.314 15.296V16.296H138.666V15.296V14.296H134.314V15.296ZM138.666 15.296L137.679 15.1358L134.319 35.8398L135.306 36L136.293 36.1602L139.653 15.4562L138.666 15.296ZM135.306 36V35H130.218V36V37H135.306V36ZM130.218 36L131.205 35.8384L129.125 23.1344L128.138 23.296L127.151 23.4576L129.231 36.1616L130.218 36ZM128.138 23.296L127.151 23.1344L125.071 35.8384L126.058 36L127.045 36.1616L129.125 23.4576L128.138 23.296ZM126.058 36V35H120.97V36V37H126.058V36ZM120.97 36L121.957 35.8398L118.597 15.1358L117.61 15.296L116.623 15.4562L119.983 36.1602L120.97 36ZM117.61 15.296V16.296H121.962V15.296V14.296H117.61V15.296ZM121.962 15.296L120.969 15.4102L122.761 30.9942L123.754 30.88L124.748 30.7658L122.956 15.1818L121.962 15.296ZM123.754 30.88L124.743 31.0322L127.143 15.4482L126.154 15.296L125.166 15.1438L122.766 30.7278L123.754 30.88ZM153.648 27.776H152.648V28.776H153.648V27.776ZM153.648 24.48V23.48H152.648V24.48H153.648ZM159.568 24.48H160.568V23.48H159.568V24.48ZM159.568 21.152V22.152H160.568V21.152H159.568ZM155.312 21.152H154.312V22.152H155.312V21.152ZM155.12 18.208L154.352 18.8482L154.381 18.883L154.413 18.9151L155.12 18.208ZM152.24 18.208L151.533 17.5009L151.501 17.533L151.472 17.5678L152.24 18.208ZM152.24 33.056L151.472 33.6962L151.501 33.731L151.533 33.7631L152.24 33.056ZM155.12 33.056L154.413 32.3489L154.381 32.381L154.352 32.4158L155.12 33.056ZM155.312 27.776H156.312V26.776H155.312V27.776ZM153.648 27.776H154.648V24.48H153.648H152.648V27.776H153.648ZM153.648 24.48V25.48H159.568V24.48V23.48H153.648V24.48ZM159.568 24.48H158.568V32.096H159.568H160.568V24.48H159.568ZM159.568 32.096H158.568C158.568 33.3649 158.269 34.1305 157.847 34.5793C157.437 35.0164 156.752 35.32 155.6 35.32V36.32V37.32C157.093 37.32 158.393 36.9196 159.305 35.9487C160.206 34.9895 160.568 33.6431 160.568 32.096H159.568ZM155.6 36.32V35.32H151.568V36.32V37.32H155.6V36.32ZM151.568 36.32V35.32C150.416 35.32 149.731 35.0164 149.321 34.5793C148.899 34.1305 148.6 33.3649 148.6 32.096H147.6H146.6C146.6 33.6431 146.962 34.9895 147.863 35.9487C148.775 36.9196 150.075 37.32 151.568 37.32V36.32ZM147.6 32.096H148.6V19.2H147.6H146.6V32.096H147.6ZM147.6 19.2H148.6C148.6 17.9311 148.899 17.1655 149.321 16.7167C149.731 16.2796 150.416 15.976 151.568 15.976V14.976V13.976C150.075 13.976 148.775 14.3764 147.863 15.3473C146.962 16.3065 146.6 17.6529 146.6 19.2H147.6ZM151.568 14.976V15.976H155.6V14.976V13.976H151.568V14.976ZM155.6 14.976V15.976C156.752 15.976 157.437 16.2796 157.847 16.7167C158.269 17.1655 158.568 17.9311 158.568 19.2H159.568H160.568C160.568 17.6529 160.206 16.3065 159.305 15.3473C158.393 14.3764 157.093 13.976 155.6 13.976V14.976ZM159.568 19.2H158.568V21.152H159.568H160.568V19.2H159.568ZM159.568 21.152V20.152H155.312V21.152V22.152H159.568V21.152ZM155.312 21.152H156.312V18.656H155.312H154.312V21.152H155.312ZM155.312 18.656H156.312C156.312 18.2028 156.13 17.8038 155.827 17.5009L155.12 18.208L154.413 18.9151C154.397 18.8994 154.368 18.8648 154.345 18.8099C154.321 18.7539 154.312 18.6991 154.312 18.656H155.312ZM155.12 18.208L155.888 17.5678C155.586 17.2055 155.163 17.016 154.704 17.016V18.016V19.016C154.662 19.016 154.594 19.0074 154.517 18.972C154.44 18.9362 154.385 18.8877 154.352 18.8482L155.12 18.208ZM154.704 18.016V17.016H152.688V18.016V19.016H154.704V18.016ZM152.688 18.016V17.016C152.235 17.016 151.836 17.198 151.533 17.5009L152.24 18.208L152.947 18.9151C152.931 18.9308 152.897 18.9596 152.842 18.9831C152.786 19.0072 152.731 19.016 152.688 19.016V18.016ZM152.24 18.208L151.472 17.5678C151.211 17.8802 151.08 18.2576 151.08 18.656H152.08H153.08C153.08 18.6765 153.076 18.7111 153.062 18.7523C153.047 18.7939 153.026 18.8265 153.008 18.8482L152.24 18.208ZM152.08 18.656H151.08V32.608H152.08H153.08V18.656H152.08ZM152.08 32.608H151.08C151.08 33.0064 151.211 33.3838 151.472 33.6962L152.24 33.056L153.008 32.4158C153.026 32.4375 153.047 32.4701 153.062 32.5117C153.076 32.5529 153.08 32.5875 153.08 32.608H152.08ZM152.24 33.056L151.533 33.7631C151.836 34.066 152.235 34.248 152.688 34.248V33.248V32.248C152.731 32.248 152.786 32.2568 152.842 32.2809C152.897 32.3044 152.931 32.3332 152.947 32.3489L152.24 33.056ZM152.688 33.248V34.248H154.704V33.248V32.248H152.688V33.248ZM154.704 33.248V34.248C155.163 34.248 155.586 34.0585 155.888 33.6962L155.12 33.056L154.352 32.4158C154.385 32.3763 154.44 32.3278 154.517 32.292C154.594 32.2566 154.662 32.248 154.704 32.248V33.248ZM155.12 33.056L155.827 33.7631C156.13 33.4602 156.312 33.0612 156.312 32.608H155.312H154.312C154.312 32.5649 154.321 32.5101 154.345 32.4541C154.368 32.3992 154.397 32.3646 154.413 32.3489L155.12 33.056ZM155.312 32.608H156.312V27.776H155.312H154.312V32.608H155.312ZM155.312 27.776V26.776H153.648V27.776V28.776H155.312V27.776ZM174.229 36V37H175.229V36H174.229ZM169.749 36H168.749V37H169.749V36ZM169.749 29.056H170.749V28.056H169.749V29.056ZM166.518 29.056V28.056H165.518V29.056H166.518ZM166.518 36V37H167.518V36H166.518ZM162.037 36H161.037V37H162.037V36ZM166.518 25.6H165.518V26.6H166.518V25.6ZM169.749 25.6V26.6H170.749V25.6H169.749ZM169.558 18.208L168.789 18.8482L168.818 18.883L168.85 18.9151L169.558 18.208ZM166.677 18.208L165.97 17.5009L165.938 17.533L165.909 17.5678L166.677 18.208ZM170.261 14.976V15.976C171.413 15.976 172.098 16.2796 172.509 16.7167C172.93 17.1655 173.229 17.9311 173.229 19.2H174.229H175.229C175.229 17.6529 174.867 16.3065 173.966 15.3473C173.054 14.3764 171.755 13.976 170.261 13.976V14.976ZM174.229 19.2H173.229V36H174.229H175.229V19.2H174.229ZM174.229 36V35H169.749V36V37H174.229V36ZM169.749 36H170.749V29.056H169.749H168.749V36H169.749ZM169.749 29.056V28.056H166.518V29.056V30.056H169.749V29.056ZM166.518 29.056H165.518V36H166.518H167.518V29.056H166.518ZM166.518 36V35H162.037V36V37H166.518V36ZM162.037 36H163.037V19.2H162.037H161.037V36H162.037ZM162.037 19.2H163.037C163.037 17.9311 163.337 17.1655 163.758 16.7167C164.169 16.2796 164.854 15.976 166.006 15.976V14.976V13.976C164.512 13.976 163.213 14.3764 162.301 15.3473C161.4 16.3065 161.037 17.6529 161.037 19.2H162.037ZM166.006 14.976V15.976H170.261V14.976V13.976H166.006V14.976ZM166.518 25.6V26.6H169.749V25.6V24.6H166.518V25.6ZM169.749 25.6H170.749V18.656H169.749H168.749V25.6H169.749ZM169.749 18.656H170.749C170.749 18.2028 170.568 17.8038 170.265 17.5009L169.558 18.208L168.85 18.9151C168.835 18.8994 168.806 18.8648 168.782 18.8099C168.758 18.7539 168.749 18.6991 168.749 18.656H169.749ZM169.558 18.208L170.326 17.5678C170.024 17.2055 169.601 17.016 169.142 17.016V18.016V19.016C169.099 19.016 169.031 19.0074 168.954 18.972C168.877 18.9362 168.822 18.8877 168.789 18.8482L169.558 18.208ZM169.142 18.016V17.016H167.126V18.016V19.016H169.142V18.016ZM167.126 18.016V17.016C166.672 17.016 166.273 17.198 165.97 17.5009L166.677 18.208L167.385 18.9151C167.369 18.9308 167.334 18.9596 167.279 18.9831C167.223 19.0072 167.169 19.016 167.126 19.016V18.016ZM166.677 18.208L165.909 17.5678C165.649 17.8802 165.518 18.2576 165.518 18.656H166.518H167.518C167.518 18.6765 167.514 18.7111 167.499 18.7523C167.484 18.7939 167.464 18.8265 167.446 18.8482L166.677 18.208ZM166.518 18.656H165.518V25.6H166.518H167.518V18.656H166.518ZM182.017 36V37H183.017V36H182.017ZM177.537 36H176.537V37H177.537V36ZM187.201 16.512L186.361 17.0545L187.229 18.399L188.057 17.0291L187.201 16.512ZM196.865 36V37H197.865V36H196.865ZM192.385 36H191.385V37H192.385V36ZM192.193 18.368L191.425 19.0082L191.454 19.043L191.486 19.0751L192.193 18.368ZM189.601 18.368L188.894 17.6609L188.862 17.693L188.833 17.7278L189.601 18.368ZM189.441 36V37H190.441V36H189.441ZM184.961 36H183.961V37H184.961V36ZM184.769 18.368L184.001 19.0082L184.03 19.043L184.062 19.0751L184.769 18.368ZM182.177 18.368L181.47 17.6609L181.438 17.693L181.409 17.7278L182.177 18.368ZM182.017 36V35H177.537V36V37H182.017V36ZM177.537 36H178.537V19.2H177.537H176.537V36H177.537ZM177.537 19.2H178.537C178.537 17.9311 178.836 17.1655 179.258 16.7167C179.668 16.2796 180.353 15.976 181.505 15.976V14.976V13.976C180.011 13.976 178.712 14.3764 177.8 15.3473C176.899 16.3065 176.537 17.6529 176.537 19.2H177.537ZM181.505 14.976V15.976H183.873V14.976V13.976H181.505V14.976ZM183.873 14.976V15.976C185.197 15.976 185.935 16.3951 186.361 17.0545L187.201 16.512L188.041 15.9695C187.144 14.5809 185.663 13.976 183.873 13.976V14.976ZM187.201 16.512L188.057 17.0291C188.435 16.4035 189.146 15.976 190.529 15.976V14.976V13.976C188.712 13.976 187.204 14.5725 186.345 15.9949L187.201 16.512ZM190.529 14.976V15.976H192.897V14.976V13.976H190.529V14.976ZM192.897 14.976V15.976C194.049 15.976 194.733 16.2796 195.144 16.7167C195.566 17.1655 195.865 17.9311 195.865 19.2H196.865H197.865C197.865 17.6529 197.503 16.3065 196.602 15.3473C195.69 14.3764 194.39 13.976 192.897 13.976V14.976ZM196.865 19.2H195.865V36H196.865H197.865V19.2H196.865ZM196.865 36V35H192.385V36V37H196.865V36ZM192.385 36H193.385V18.816H192.385H191.385V36H192.385ZM192.385 18.816H193.385C193.385 18.3628 193.203 17.9638 192.9 17.6609L192.193 18.368L191.486 19.0751C191.47 19.0594 191.441 19.0248 191.418 18.9699C191.394 18.9139 191.385 18.8591 191.385 18.816H192.385ZM192.193 18.368L192.961 17.7278C192.659 17.3655 192.236 17.176 191.777 17.176V18.176V19.176C191.734 19.176 191.666 19.1674 191.59 19.132C191.512 19.0962 191.457 19.0477 191.425 19.0082L192.193 18.368ZM191.777 18.176V17.176H190.049V18.176V19.176H191.777V18.176ZM190.049 18.176V17.176C189.596 17.176 189.197 17.358 188.894 17.6609L189.601 18.368L190.308 19.0751C190.292 19.0908 190.258 19.1196 190.203 19.1431C190.147 19.1672 190.092 19.176 190.049 19.176V18.176ZM189.601 18.368L188.833 17.7278C188.572 18.0402 188.441 18.4176 188.441 18.816H189.441H190.441C190.441 18.8365 190.437 18.8711 190.422 18.9123C190.408 18.9539 190.387 18.9865 190.369 19.0082L189.601 18.368ZM189.441 18.816H188.441V36H189.441H190.441V18.816H189.441ZM189.441 36V35H184.961V36V37H189.441V36ZM184.961 36H185.961V18.816H184.961H183.961V36H184.961ZM184.961 18.816H185.961C185.961 18.3628 185.779 17.9638 185.476 17.6609L184.769 18.368L184.062 19.0751C184.046 19.0594 184.017 19.0248 183.994 18.9699C183.97 18.9139 183.961 18.8591 183.961 18.816H184.961ZM184.769 18.368L185.537 17.7278C185.235 17.3655 184.812 17.176 184.353 17.176V18.176V19.176C184.31 19.176 184.242 19.1674 184.166 19.132C184.088 19.0962 184.033 19.0477 184.001 19.0082L184.769 18.368ZM184.353 18.176V17.176H182.625V18.176V19.176H184.353V18.176ZM182.625 18.176V17.176C182.172 17.176 181.773 17.358 181.47 17.6609L182.177 18.368L182.884 19.0751C182.868 19.0908 182.834 19.1196 182.779 19.1431C182.723 19.1672 182.668 19.176 182.625 19.176V18.176ZM182.177 18.368L181.409 17.7278C181.148 18.0402 181.017 18.4176 181.017 18.816H182.017H183.017C183.017 18.8365 183.013 18.8711 182.998 18.9123C182.984 18.9539 182.963 18.9865 182.945 19.0082L182.177 18.368ZM182.017 18.816H181.017V36H182.017H183.017V18.816H182.017ZM204.424 32.288H203.424V33.288H204.424V32.288ZM209.384 32.288H210.384V31.288H209.384V32.288ZM209.384 36V37H210.384V36H209.384ZM199.944 36H198.944V37H199.944V36ZM199.944 15.296V14.296H198.944V15.296H199.944ZM209.384 15.296H210.384V14.296H209.384V15.296ZM209.384 18.944V19.944H210.384V18.944H209.384ZM204.424 18.944V17.944H203.424V18.944H204.424ZM204.424 23.808H203.424V24.808H204.424V23.808ZM209.064 23.808H210.064V22.808H209.064V23.808ZM209.064 27.328V28.328H210.064V27.328H209.064ZM204.424 27.328V26.328H203.424V27.328H204.424ZM204.424 32.288V33.288H209.384V32.288V31.288H204.424V32.288ZM209.384 32.288H208.384V36H209.384H210.384V32.288H209.384ZM209.384 36V35H199.944V36V37H209.384V36ZM199.944 36H200.944V15.296H199.944H198.944V36H199.944ZM199.944 15.296V16.296H209.384V15.296V14.296H199.944V15.296ZM209.384 15.296H208.384V18.944H209.384H210.384V15.296H209.384ZM209.384 18.944V17.944H204.424V18.944V19.944H209.384V18.944ZM204.424 18.944H203.424V23.808H204.424H205.424V18.944H204.424ZM204.424 23.808V24.808H209.064V23.808V22.808H204.424V23.808ZM209.064 23.808H208.064V27.328H209.064H210.064V23.808H209.064ZM209.064 27.328V26.328H204.424V27.328V28.328H209.064V27.328ZM204.424 27.328H203.424V32.288H204.424H205.424V27.328H204.424Z" fill="black" mask="url(#path-3-inside-1_35_150)"/>
<mask id="path-5-inside-2_35_150" fill="white">
<path d="M37.4534 29.2V42.096C37.4534 44.912 36.1307 46.32 33.4854 46.32H29.6774C27.032 46.32 25.7094 44.912 25.7094 42.096V29.2C25.7094 26.384 27.032 24.976 29.6774 24.976H33.4854C36.1307 24.976 37.4534 26.384 37.4534 29.2ZM33.1014 42.608V28.656C33.1014 28.4853 33.0374 28.336 32.9094 28.208C32.8027 28.08 32.664 28.016 32.4934 28.016H30.6694C30.4987 28.016 30.3494 28.08 30.2214 28.208C30.1147 28.336 30.0614 28.4853 30.0614 28.656V42.608C30.0614 42.7787 30.1147 42.928 30.2214 43.056C30.3494 43.184 30.4987 43.248 30.6694 43.248H32.4934C32.664 43.248 32.8027 43.184 32.9094 43.056C33.0374 42.928 33.1014 42.7787 33.1014 42.608ZM44.9454 25.328V46.032H40.5934V25.328H44.9454Z"/>
</mask>
<path d="M37.4534 29.2V42.096C37.4534 44.912 36.1307 46.32 33.4854 46.32H29.6774C27.032 46.32 25.7094 44.912 25.7094 42.096V29.2C25.7094 26.384 27.032 24.976 29.6774 24.976H33.4854C36.1307 24.976 37.4534 26.384 37.4534 29.2ZM33.1014 42.608V28.656C33.1014 28.4853 33.0374 28.336 32.9094 28.208C32.8027 28.08 32.664 28.016 32.4934 28.016H30.6694C30.4987 28.016 30.3494 28.08 30.2214 28.208C30.1147 28.336 30.0614 28.4853 30.0614 28.656V42.608C30.0614 42.7787 30.1147 42.928 30.2214 43.056C30.3494 43.184 30.4987 43.248 30.6694 43.248H32.4934C32.664 43.248 32.8027 43.184 32.9094 43.056C33.0374 42.928 33.1014 42.7787 33.1014 42.608ZM44.9454 25.328V46.032H40.5934V25.328H44.9454Z" fill="white"/>
<path d="M32.9094 28.208L32.1412 28.8482L32.1702 28.883L32.2023 28.9151L32.9094 28.208ZM30.2214 28.208L29.5143 27.5009L29.4822 27.533L29.4532 27.5678L30.2214 28.208ZM30.2214 43.056L29.4532 43.6962L29.4822 43.731L29.5143 43.7631L30.2214 43.056ZM32.9094 43.056L32.2023 42.3489L32.1702 42.381L32.1412 42.4158L32.9094 43.056ZM37.4534 29.2H36.4534V42.096H37.4534H38.4534V29.2H37.4534ZM37.4534 42.096H36.4534C36.4534 43.3649 36.1542 44.1305 35.7325 44.5793C35.3219 45.0164 34.6373 45.32 33.4854 45.32V46.32V47.32C34.9787 47.32 36.2782 46.9196 37.1902 45.9487C38.0912 44.9895 38.4534 43.6431 38.4534 42.096H37.4534ZM33.4854 46.32V45.32H29.6774V46.32V47.32H33.4854V46.32ZM29.6774 46.32V45.32C28.5254 45.32 27.8408 45.0164 27.4302 44.5793C27.0086 44.1305 26.7094 43.3649 26.7094 42.096H25.7094H24.7094C24.7094 43.6431 25.0715 44.9895 25.9725 45.9487C26.8846 46.9196 28.184 47.32 29.6774 47.32V46.32ZM25.7094 42.096H26.7094V29.2H25.7094H24.7094V42.096H25.7094ZM25.7094 29.2H26.7094C26.7094 27.9311 27.0086 27.1655 27.4302 26.7167C27.8408 26.2796 28.5254 25.976 29.6774 25.976V24.976V23.976C28.184 23.976 26.8846 24.3764 25.9725 25.3473C25.0715 26.3065 24.7094 27.6529 24.7094 29.2H25.7094ZM29.6774 24.976V25.976H33.4854V24.976V23.976H29.6774V24.976ZM33.4854 24.976V25.976C34.6373 25.976 35.3219 26.2796 35.7325 26.7167C36.1542 27.1655 36.4534 27.9311 36.4534 29.2H37.4534H38.4534C38.4534 27.6529 38.0912 26.3065 37.1902 25.3473C36.2782 24.3764 34.9787 23.976 33.4854 23.976V24.976ZM33.1014 42.608H34.1014V28.656H33.1014H32.1014V42.608H33.1014ZM33.1014 28.656H34.1014C34.1014 28.2028 33.9194 27.8038 33.6165 27.5009L32.9094 28.208L32.2023 28.9151C32.1866 28.8994 32.1578 28.8648 32.1342 28.8099C32.1102 28.7539 32.1014 28.6991 32.1014 28.656H33.1014ZM32.9094 28.208L33.6776 27.5678C33.3757 27.2055 32.9525 27.016 32.4934 27.016V28.016V29.016C32.4511 29.016 32.3831 29.0074 32.3063 28.972C32.2289 28.9362 32.1741 28.8877 32.1412 28.8482L32.9094 28.208ZM32.4934 28.016V27.016H30.6694V28.016V29.016H32.4934V28.016ZM30.6694 28.016V27.016C30.2162 27.016 29.8172 27.198 29.5143 27.5009L30.2214 28.208L30.9285 28.9151C30.9128 28.9308 30.8782 28.9596 30.8233 28.9831C30.7672 29.0072 30.7125 29.016 30.6694 29.016V28.016ZM30.2214 28.208L29.4532 27.5678C29.1928 27.8802 29.0614 28.2576 29.0614 28.656H30.0614H31.0614C31.0614 28.6765 31.0578 28.7111 31.0431 28.7523C31.0283 28.7939 31.0077 28.8265 30.9896 28.8482L30.2214 28.208ZM30.0614 28.656H29.0614V42.608H30.0614H31.0614V28.656H30.0614ZM30.0614 42.608H29.0614C29.0614 43.0064 29.1928 43.3838 29.4532 43.6962L30.2214 43.056L30.9896 42.4158C31.0077 42.4375 31.0283 42.4701 31.0431 42.5117C31.0578 42.5529 31.0614 42.5875 31.0614 42.608H30.0614ZM30.2214 43.056L29.5143 43.7631C29.8172 44.066 30.2162 44.248 30.6694 44.248V43.248V42.248C30.7125 42.248 30.7672 42.2568 30.8233 42.2809C30.8782 42.3044 30.9128 42.3332 30.9285 42.3489L30.2214 43.056ZM30.6694 43.248V44.248H32.4934V43.248V42.248H30.6694V43.248ZM32.4934 43.248V44.248C32.9525 44.248 33.3757 44.0585 33.6776 43.6962L32.9094 43.056L32.1412 42.4158C32.1741 42.3763 32.2289 42.3278 32.3063 42.292C32.383 42.2566 32.4511 42.248 32.4934 42.248V43.248ZM32.9094 43.056L33.6165 43.7631C33.9194 43.4602 34.1014 43.0612 34.1014 42.608H33.1014H32.1014C32.1014 42.5649 32.1102 42.5101 32.1342 42.4541C32.1578 42.3992 32.1866 42.3646 32.2023 42.3489L32.9094 43.056ZM44.9454 25.328H45.9454V24.328H44.9454V25.328ZM44.9454 46.032V47.032H45.9454V46.032H44.9454ZM40.5934 46.032H39.5934V47.032H40.5934V46.032ZM40.5934 25.328V24.328H39.5934V25.328H40.5934ZM44.9454 25.328H43.9454V46.032H44.9454H45.9454V25.328H44.9454ZM44.9454 46.032V45.032H40.5934V46.032V47.032H44.9454V46.032ZM40.5934 46.032H41.5934V25.328H40.5934H39.5934V46.032H40.5934ZM40.5934 25.328V26.328H44.9454V25.328V24.328H40.5934V25.328Z" fill="black" mask="url(#path-5-inside-2_35_150)"/>
<mask id="path-7-inside-3_35_150" fill="white">
<path d="M97.362 53.414H94.968V52.496C94.968 52.4 94.932 52.316 94.86 52.244C94.8 52.172 94.722 52.136 94.626 52.136H93.636C93.54 52.136 93.456 52.172 93.384 52.244C93.324 52.316 93.294 52.4 93.294 52.496V54.566C93.294 54.662 93.324 54.746 93.384 54.818C93.456 54.89 93.54 54.926 93.636 54.926H95.256C96.744 54.95 97.488 55.742 97.488 57.302V59.804C97.488 61.388 96.744 62.18 95.256 62.18H93.132C91.644 62.18 90.9 61.388 90.9 59.804V58.598H93.294V59.894C93.294 59.99 93.324 60.074 93.384 60.146C93.456 60.218 93.54 60.254 93.636 60.254H94.752C94.848 60.254 94.926 60.218 94.986 60.146C95.058 60.074 95.094 59.99 95.094 59.894V57.608C95.094 57.512 95.058 57.428 94.986 57.356C94.926 57.284 94.848 57.248 94.752 57.248H93.132C91.644 57.248 90.9 56.456 90.9 54.872V52.55C90.9 50.966 91.644 50.174 93.132 50.174H95.13C96.618 50.174 97.362 50.966 97.362 52.55V53.414ZM98.4781 52.496V50.354H104.778V52.496H102.888V62H100.368V52.496H98.4781ZM110.555 50.174C112.043 50.174 112.787 50.966 112.787 52.55V62H110.267V58.094H108.449V62H105.929V52.55C105.929 50.966 106.673 50.174 108.161 50.174H110.555ZM108.449 56.15H110.267V52.244C110.267 52.148 110.231 52.064 110.159 51.992C110.099 51.92 110.021 51.884 109.925 51.884H108.791C108.695 51.884 108.611 51.92 108.539 51.992C108.479 52.064 108.449 52.148 108.449 52.244V56.15ZM117.186 57.23V62H114.666V50.354H119.148C120.636 50.354 121.38 51.146 121.38 52.73V54.08C121.38 55.04 121.038 55.652 120.354 55.916C120.954 56.132 121.254 56.624 121.254 57.392V62H118.734V57.59C118.734 57.35 118.62 57.23 118.392 57.23H117.186ZM117.186 52.064V55.466H118.518C118.614 55.466 118.692 55.43 118.752 55.358C118.824 55.286 118.86 55.202 118.86 55.106V52.424C118.86 52.328 118.824 52.244 118.752 52.172C118.692 52.1 118.614 52.064 118.518 52.064H117.186ZM122.332 52.496V50.354H128.632V52.496H126.742V62H124.222V52.496H122.332ZM138.047 50.174C139.535 50.174 140.279 50.966 140.279 52.55V62H137.759V58.094H135.941V62H133.421V52.55C133.421 50.966 134.165 50.174 135.653 50.174H138.047ZM135.941 56.15H137.759V52.244C137.759 52.148 137.723 52.064 137.651 51.992C137.591 51.92 137.513 51.884 137.417 51.884H136.283C136.187 51.884 136.103 51.92 136.031 51.992C135.971 52.064 135.941 52.148 135.941 52.244V56.15ZM152.474 62H149.954V52.334C149.954 52.238 149.918 52.154 149.846 52.082C149.786 52.01 149.708 51.974 149.612 51.974H148.64C148.544 51.974 148.46 52.01 148.388 52.082C148.328 52.154 148.298 52.238 148.298 52.334V62H145.778V52.55C145.778 50.966 146.522 50.174 148.01 50.174H150.242C151.73 50.174 152.474 50.966 152.474 52.55V62ZM156.684 59.912H159.474V62H154.164V50.354H159.474V52.406H156.684V55.142H159.294V57.122H156.684V59.912ZM165.233 50.354H167.465L168.815 59.12L169.823 50.354H172.271L170.381 62H167.519L166.349 54.854L165.179 62H162.317L160.427 50.354H162.875L163.883 59.12L165.233 50.354ZM183.758 53.414H181.364V52.496C181.364 52.4 181.328 52.316 181.256 52.244C181.196 52.172 181.118 52.136 181.022 52.136H180.032C179.936 52.136 179.852 52.172 179.78 52.244C179.72 52.316 179.69 52.4 179.69 52.496V54.566C179.69 54.662 179.72 54.746 179.78 54.818C179.852 54.89 179.936 54.926 180.032 54.926H181.652C183.14 54.95 183.884 55.742 183.884 57.302V59.804C183.884 61.388 183.14 62.18 181.652 62.18H179.528C178.04 62.18 177.296 61.388 177.296 59.804V58.598H179.69V59.894C179.69 59.99 179.72 60.074 179.78 60.146C179.852 60.218 179.936 60.254 180.032 60.254H181.148C181.244 60.254 181.322 60.218 181.382 60.146C181.454 60.074 181.49 59.99 181.49 59.894V57.608C181.49 57.512 181.454 57.428 181.382 57.356C181.322 57.284 181.244 57.248 181.148 57.248H179.528C178.04 57.248 177.296 56.456 177.296 54.872V52.55C177.296 50.966 178.04 50.174 179.528 50.174H181.526C183.014 50.174 183.758 50.966 183.758 52.55V53.414ZM190.167 50.174C191.655 50.174 192.399 50.966 192.399 52.55V62H189.879V58.094H188.061V62H185.541V52.55C185.541 50.966 186.285 50.174 187.773 50.174H190.167ZM188.061 56.15H189.879V52.244C189.879 52.148 189.843 52.064 189.771 51.992C189.711 51.92 189.633 51.884 189.537 51.884H188.403C188.307 51.884 188.223 51.92 188.151 51.992C188.091 52.064 188.061 52.148 188.061 52.244V56.15ZM198.975 50.354H201.405L198.993 62H196.095L193.683 50.354H196.131L197.553 58.85L198.975 50.354ZM205.164 50.354V62H202.644V50.354H205.164ZM213.717 62H211.197V52.334C211.197 52.238 211.161 52.154 211.089 52.082C211.029 52.01 210.951 51.974 210.855 51.974H209.883C209.787 51.974 209.703 52.01 209.631 52.082C209.571 52.154 209.541 52.238 209.541 52.334V62H207.021V52.55C207.021 50.966 207.765 50.174 209.253 50.174H211.485C212.973 50.174 213.717 50.966 213.717 52.55V62ZM218.808 57.374V55.52H222.138V59.804C222.138 61.388 221.394 62.18 219.906 62.18H217.638C216.15 62.18 215.406 61.388 215.406 59.804V52.55C215.406 50.966 216.15 50.174 217.638 50.174H219.906C221.394 50.174 222.138 50.966 222.138 52.55V53.648H219.744V52.244C219.744 52.148 219.708 52.064 219.636 51.992C219.576 51.92 219.498 51.884 219.402 51.884H218.268C218.172 51.884 218.088 51.92 218.016 51.992C217.956 52.064 217.926 52.148 217.926 52.244V60.092C217.926 60.188 217.956 60.272 218.016 60.344C218.088 60.416 218.172 60.452 218.268 60.452H219.402C219.498 60.452 219.576 60.416 219.636 60.344C219.708 60.272 219.744 60.188 219.744 60.092V57.374H218.808Z"/>
</mask>
<path d="M97.362 53.414H94.968V52.496C94.968 52.4 94.932 52.316 94.86 52.244C94.8 52.172 94.722 52.136 94.626 52.136H93.636C93.54 52.136 93.456 52.172 93.384 52.244C93.324 52.316 93.294 52.4 93.294 52.496V54.566C93.294 54.662 93.324 54.746 93.384 54.818C93.456 54.89 93.54 54.926 93.636 54.926H95.256C96.744 54.95 97.488 55.742 97.488 57.302V59.804C97.488 61.388 96.744 62.18 95.256 62.18H93.132C91.644 62.18 90.9 61.388 90.9 59.804V58.598H93.294V59.894C93.294 59.99 93.324 60.074 93.384 60.146C93.456 60.218 93.54 60.254 93.636 60.254H94.752C94.848 60.254 94.926 60.218 94.986 60.146C95.058 60.074 95.094 59.99 95.094 59.894V57.608C95.094 57.512 95.058 57.428 94.986 57.356C94.926 57.284 94.848 57.248 94.752 57.248H93.132C91.644 57.248 90.9 56.456 90.9 54.872V52.55C90.9 50.966 91.644 50.174 93.132 50.174H95.13C96.618 50.174 97.362 50.966 97.362 52.55V53.414ZM98.4781 52.496V50.354H104.778V52.496H102.888V62H100.368V52.496H98.4781ZM110.555 50.174C112.043 50.174 112.787 50.966 112.787 52.55V62H110.267V58.094H108.449V62H105.929V52.55C105.929 50.966 106.673 50.174 108.161 50.174H110.555ZM108.449 56.15H110.267V52.244C110.267 52.148 110.231 52.064 110.159 51.992C110.099 51.92 110.021 51.884 109.925 51.884H108.791C108.695 51.884 108.611 51.92 108.539 51.992C108.479 52.064 108.449 52.148 108.449 52.244V56.15ZM117.186 57.23V62H114.666V50.354H119.148C120.636 50.354 121.38 51.146 121.38 52.73V54.08C121.38 55.04 121.038 55.652 120.354 55.916C120.954 56.132 121.254 56.624 121.254 57.392V62H118.734V57.59C118.734 57.35 118.62 57.23 118.392 57.23H117.186ZM117.186 52.064V55.466H118.518C118.614 55.466 118.692 55.43 118.752 55.358C118.824 55.286 118.86 55.202 118.86 55.106V52.424C118.86 52.328 118.824 52.244 118.752 52.172C118.692 52.1 118.614 52.064 118.518 52.064H117.186ZM122.332 52.496V50.354H128.632V52.496H126.742V62H124.222V52.496H122.332ZM138.047 50.174C139.535 50.174 140.279 50.966 140.279 52.55V62H137.759V58.094H135.941V62H133.421V52.55C133.421 50.966 134.165 50.174 135.653 50.174H138.047ZM135.941 56.15H137.759V52.244C137.759 52.148 137.723 52.064 137.651 51.992C137.591 51.92 137.513 51.884 137.417 51.884H136.283C136.187 51.884 136.103 51.92 136.031 51.992C135.971 52.064 135.941 52.148 135.941 52.244V56.15ZM152.474 62H149.954V52.334C149.954 52.238 149.918 52.154 149.846 52.082C149.786 52.01 149.708 51.974 149.612 51.974H148.64C148.544 51.974 148.46 52.01 148.388 52.082C148.328 52.154 148.298 52.238 148.298 52.334V62H145.778V52.55C145.778 50.966 146.522 50.174 148.01 50.174H150.242C151.73 50.174 152.474 50.966 152.474 52.55V62ZM156.684 59.912H159.474V62H154.164V50.354H159.474V52.406H156.684V55.142H159.294V57.122H156.684V59.912ZM165.233 50.354H167.465L168.815 59.12L169.823 50.354H172.271L170.381 62H167.519L166.349 54.854L165.179 62H162.317L160.427 50.354H162.875L163.883 59.12L165.233 50.354ZM183.758 53.414H181.364V52.496C181.364 52.4 181.328 52.316 181.256 52.244C181.196 52.172 181.118 52.136 181.022 52.136H180.032C179.936 52.136 179.852 52.172 179.78 52.244C179.72 52.316 179.69 52.4 179.69 52.496V54.566C179.69 54.662 179.72 54.746 179.78 54.818C179.852 54.89 179.936 54.926 180.032 54.926H181.652C183.14 54.95 183.884 55.742 183.884 57.302V59.804C183.884 61.388 183.14 62.18 181.652 62.18H179.528C178.04 62.18 177.296 61.388 177.296 59.804V58.598H179.69V59.894C179.69 59.99 179.72 60.074 179.78 60.146C179.852 60.218 179.936 60.254 180.032 60.254H181.148C181.244 60.254 181.322 60.218 181.382 60.146C181.454 60.074 181.49 59.99 181.49 59.894V57.608C181.49 57.512 181.454 57.428 181.382 57.356C181.322 57.284 181.244 57.248 181.148 57.248H179.528C178.04 57.248 177.296 56.456 177.296 54.872V52.55C177.296 50.966 178.04 50.174 179.528 50.174H181.526C183.014 50.174 183.758 50.966 183.758 52.55V53.414ZM190.167 50.174C191.655 50.174 192.399 50.966 192.399 52.55V62H189.879V58.094H188.061V62H185.541V52.55C185.541 50.966 186.285 50.174 187.773 50.174H190.167ZM188.061 56.15H189.879V52.244C189.879 52.148 189.843 52.064 189.771 51.992C189.711 51.92 189.633 51.884 189.537 51.884H188.403C188.307 51.884 188.223 51.92 188.151 51.992C188.091 52.064 188.061 52.148 188.061 52.244V56.15ZM198.975 50.354H201.405L198.993 62H196.095L193.683 50.354H196.131L197.553 58.85L198.975 50.354ZM205.164 50.354V62H202.644V50.354H205.164ZM213.717 62H211.197V52.334C211.197 52.238 211.161 52.154 211.089 52.082C211.029 52.01 210.951 51.974 210.855 51.974H209.883C209.787 51.974 209.703 52.01 209.631 52.082C209.571 52.154 209.541 52.238 209.541 52.334V62H207.021V52.55C207.021 50.966 207.765 50.174 209.253 50.174H211.485C212.973 50.174 213.717 50.966 213.717 52.55V62ZM218.808 57.374V55.52H222.138V59.804C222.138 61.388 221.394 62.18 219.906 62.18H217.638C216.15 62.18 215.406 61.388 215.406 59.804V52.55C215.406 50.966 216.15 50.174 217.638 50.174H219.906C221.394 50.174 222.138 50.966 222.138 52.55V53.648H219.744V52.244C219.744 52.148 219.708 52.064 219.636 51.992C219.576 51.92 219.498 51.884 219.402 51.884H218.268C218.172 51.884 218.088 51.92 218.016 51.992C217.956 52.064 217.926 52.148 217.926 52.244V60.092C217.926 60.188 217.956 60.272 218.016 60.344C218.088 60.416 218.172 60.452 218.268 60.452H219.402C219.498 60.452 219.576 60.416 219.636 60.344C219.708 60.272 219.744 60.188 219.744 60.092V57.374H218.808Z" fill="black"/>
<path d="M97.362 53.414V54.414H98.362V53.414H97.362ZM94.968 53.414H93.968V54.414H94.968V53.414ZM94.86 52.244L94.0918 52.8842L94.1208 52.919L94.1529 52.9511L94.86 52.244ZM93.384 52.244L92.6769 51.5369L92.6448 51.569L92.6158 51.6038L93.384 52.244ZM93.384 54.818L92.6158 55.4582L92.6448 55.493L92.6769 55.5251L93.384 54.818ZM95.256 54.926L95.2721 53.9261L95.2641 53.926H95.256V54.926ZM90.9 58.598V57.598H89.9V58.598H90.9ZM93.294 58.598H94.294V57.598H93.294V58.598ZM93.384 60.146L92.6158 60.7862L92.6448 60.821L92.6769 60.8531L93.384 60.146ZM94.986 60.146L94.2789 59.4389L94.2468 59.471L94.2178 59.5058L94.986 60.146ZM94.986 57.356L94.2178 57.9962L94.2468 58.031L94.2789 58.0631L94.986 57.356ZM97.362 53.414V52.414H94.968V53.414V54.414H97.362V53.414ZM94.968 53.414H95.968V52.496H94.968H93.968V53.414H94.968ZM94.968 52.496H95.968C95.968 52.1174 95.814 51.7838 95.5671 51.5369L94.86 52.244L94.1529 52.9511C94.1092 52.9074 94.0594 52.8425 94.0219 52.7549C93.9838 52.6662 93.968 52.5765 93.968 52.496H94.968ZM94.86 52.244L95.6282 51.6038C95.373 51.2975 95.0105 51.136 94.626 51.136V52.136V53.136C94.5464 53.136 94.4445 53.1204 94.3374 53.071C94.2297 53.0212 94.1481 52.9517 94.0918 52.8842L94.86 52.244ZM94.626 52.136V51.136H93.636V52.136V53.136H94.626V52.136ZM93.636 52.136V51.136C93.2574 51.136 92.9238 51.29 92.6769 51.5369L93.384 52.244L94.0911 52.9511C94.0474 52.9948 93.9825 53.0446 93.8949 53.0821C93.8062 53.1202 93.7165 53.136 93.636 53.136V52.136ZM93.384 52.244L92.6158 51.6038C92.4021 51.8602 92.294 52.1723 92.294 52.496H93.294H94.294C94.294 52.5539 94.2846 52.6234 94.2582 52.6973C94.2317 52.7716 94.1936 52.8345 94.1522 52.8842L93.384 52.244ZM93.294 52.496H92.294V54.566H93.294H94.294V52.496H93.294ZM93.294 54.566H92.294C92.294 54.8897 92.4021 55.2018 92.6158 55.4582L93.384 54.818L94.1522 54.1778C94.1936 54.2275 94.2317 54.2904 94.2582 54.3647C94.2846 54.4386 94.294 54.5081 94.294 54.566H93.294ZM93.384 54.818L92.6769 55.5251C92.9238 55.772 93.2574 55.926 93.636 55.926V54.926V53.926C93.7165 53.926 93.8062 53.9418 93.8949 53.9799C93.9825 54.0174 94.0474 54.0672 94.0911 54.1109L93.384 54.818ZM93.636 54.926V55.926H95.256V54.926V53.926H93.636V54.926ZM95.256 54.926L95.2399 55.9259C95.8162 55.9352 96.0745 56.0879 96.2012 56.2227C96.3358 56.366 96.488 56.666 96.488 57.302H97.488H98.488C98.488 56.378 98.2682 55.502 97.6588 54.8533C97.0415 54.1961 96.1838 53.9408 95.2721 53.9261L95.256 54.926ZM97.488 57.302H96.488V59.804H97.488H98.488V57.302H97.488ZM97.488 59.804H96.488C96.488 60.4569 96.3335 60.7605 96.2012 60.9013C96.0799 61.0304 95.8293 61.18 95.256 61.18V62.18V63.18C96.1707 63.18 97.0361 62.9336 97.6588 62.2707C98.2705 61.6195 98.488 60.7351 98.488 59.804H97.488ZM95.256 62.18V61.18H93.132V62.18V63.18H95.256V62.18ZM93.132 62.18V61.18C92.5587 61.18 92.3081 61.0304 92.1868 60.9013C92.0545 60.7605 91.9 60.4569 91.9 59.804H90.9H89.9C89.9 60.7351 90.1175 61.6195 90.7292 62.2707C91.3519 62.9336 92.2173 63.18 93.132 63.18V62.18ZM90.9 59.804H91.9V58.598H90.9H89.9V59.804H90.9ZM90.9 58.598V59.598H93.294V58.598V57.598H90.9V58.598ZM93.294 58.598H92.294V59.894H93.294H94.294V58.598H93.294ZM93.294 59.894H92.294C92.294 60.2177 92.4021 60.5298 92.6158 60.7862L93.384 60.146L94.1522 59.5058C94.1936 59.5555 94.2317 59.6184 94.2582 59.6927C94.2846 59.7666 94.294 59.8361 94.294 59.894H93.294ZM93.384 60.146L92.6769 60.8531C92.9238 61.1 93.2574 61.254 93.636 61.254V60.254V59.254C93.7165 59.254 93.8062 59.2698 93.8949 59.3079C93.9825 59.3454 94.0474 59.3952 94.0911 59.4389L93.384 60.146ZM93.636 60.254V61.254H94.752V60.254V59.254H93.636V60.254ZM94.752 60.254V61.254C95.1365 61.254 95.499 61.0925 95.7542 60.7862L94.986 60.146L94.2178 59.5058C94.2741 59.4383 94.3557 59.3688 94.4634 59.319C94.5705 59.2696 94.6724 59.254 94.752 59.254V60.254ZM94.986 60.146L95.6931 60.8531C95.94 60.6062 96.094 60.2726 96.094 59.894H95.094H94.094C94.094 59.8135 94.1098 59.7238 94.1479 59.6351C94.1854 59.5475 94.2352 59.4826 94.2789 59.4389L94.986 60.146ZM95.094 59.894H96.094V57.608H95.094H94.094V59.894H95.094ZM95.094 57.608H96.094C96.094 57.2294 95.94 56.8958 95.6931 56.6489L94.986 57.356L94.2789 58.0631C94.2352 58.0194 94.1854 57.9545 94.1479 57.8669C94.1098 57.7782 94.094 57.6885 94.094 57.608H95.094ZM94.986 57.356L95.7542 56.7158C95.499 56.4095 95.1365 56.248 94.752 56.248V57.248V58.248C94.6724 58.248 94.5705 58.2324 94.4634 58.183C94.3557 58.1332 94.2741 58.0637 94.2178 57.9962L94.986 57.356ZM94.752 57.248V56.248H93.132V57.248V58.248H94.752V57.248ZM93.132 57.248V56.248C92.5587 56.248 92.3081 56.0984 92.1868 55.9693C92.0545 55.8285 91.9 55.5249 91.9 54.872H90.9H89.9C89.9 55.8031 90.1175 56.6875 90.7292 57.3387C91.3519 58.0016 92.2173 58.248 93.132 58.248V57.248ZM90.9 54.872H91.9V52.55H90.9H89.9V54.872H90.9ZM90.9 52.55H91.9C91.9 51.8971 92.0545 51.5935 92.1868 51.4527C92.3081 51.3236 92.5587 51.174 93.132 51.174V50.174V49.174C92.2173 49.174 91.3519 49.4204 90.7292 50.0833C90.1175 50.7345 89.9 51.6189 89.9 52.55H90.9ZM93.132 50.174V51.174H95.13V50.174V49.174H93.132V50.174ZM95.13 50.174V51.174C95.7033 51.174 95.9539 51.3236 96.0752 51.4527C96.2075 51.5935 96.362 51.8971 96.362 52.55H97.362H98.362C98.362 51.6189 98.1445 50.7345 97.5328 50.0833C96.9101 49.4204 96.0447 49.174 95.13 49.174V50.174ZM97.362 52.55H96.362V53.414H97.362H98.362V52.55H97.362ZM98.4781 52.496H97.4781V53.496H98.4781V52.496ZM98.4781 50.354V49.354H97.4781V50.354H98.4781ZM104.778 50.354H105.778V49.354H104.778V50.354ZM104.778 52.496V53.496H105.778V52.496H104.778ZM102.888 52.496V51.496H101.888V52.496H102.888ZM102.888 62V63H103.888V62H102.888ZM100.368 62H99.3681V63H100.368V62ZM100.368 52.496H101.368V51.496H100.368V52.496ZM98.4781 52.496H99.4781V50.354H98.4781H97.4781V52.496H98.4781ZM98.4781 50.354V51.354H104.778V50.354V49.354H98.4781V50.354ZM104.778 50.354H103.778V52.496H104.778H105.778V50.354H104.778ZM104.778 52.496V51.496H102.888V52.496V53.496H104.778V52.496ZM102.888 52.496H101.888V62H102.888H103.888V52.496H102.888ZM102.888 62V61H100.368V62V63H102.888V62ZM100.368 62H101.368V52.496H100.368H99.3681V62H100.368ZM100.368 52.496V51.496H98.4781V52.496V53.496H100.368V52.496ZM112.787 62V63H113.787V62H112.787ZM110.267 62H109.267V63H110.267V62ZM110.267 58.094H111.267V57.094H110.267V58.094ZM108.449 58.094V57.094H107.449V58.094H108.449ZM108.449 62V63H109.449V62H108.449ZM105.929 62H104.929V63H105.929V62ZM108.449 56.15H107.449V57.15H108.449V56.15ZM110.267 56.15V57.15H111.267V56.15H110.267ZM110.159 51.992L109.391 52.6322L109.42 52.667L109.452 52.6991L110.159 51.992ZM108.539 51.992L107.832 51.2849L107.8 51.317L107.771 51.3518L108.539 51.992ZM110.555 50.174V51.174C111.129 51.174 111.379 51.3236 111.5 51.4527C111.633 51.5935 111.787 51.8971 111.787 52.55H112.787H113.787C113.787 51.6189 113.57 50.7345 112.958 50.0833C112.335 49.4204 111.47 49.174 110.555 49.174V50.174ZM112.787 52.55H111.787V62H112.787H113.787V52.55H112.787ZM112.787 62V61H110.267V62V63H112.787V62ZM110.267 62H111.267V58.094H110.267H109.267V62H110.267ZM110.267 58.094V57.094H108.449V58.094V59.094H110.267V58.094ZM108.449 58.094H107.449V62H108.449H109.449V58.094H108.449ZM108.449 62V61H105.929V62V63H108.449V62ZM105.929 62H106.929V52.55H105.929H104.929V62H105.929ZM105.929 52.55H106.929C106.929 51.8971 107.084 51.5935 107.216 51.4527C107.337 51.3236 107.588 51.174 108.161 51.174V50.174V49.174C107.247 49.174 106.381 49.4204 105.758 50.0833C105.147 50.7345 104.929 51.6189 104.929 52.55H105.929ZM108.161 50.174V51.174H110.555V50.174V49.174H108.161V50.174ZM108.449 56.15V57.15H110.267V56.15V55.15H108.449V56.15ZM110.267 56.15H111.267V52.244H110.267H109.267V56.15H110.267ZM110.267 52.244H111.267C111.267 51.8654 111.113 51.5318 110.866 51.2849L110.159 51.992L109.452 52.6991C109.408 52.6554 109.359 52.5905 109.321 52.5029C109.283 52.4142 109.267 52.3245 109.267 52.244H110.267ZM110.159 51.992L110.928 51.3518C110.672 51.0455 110.31 50.884 109.925 50.884V51.884V52.884C109.846 52.884 109.744 52.8684 109.637 52.819C109.529 52.7692 109.447 52.6997 109.391 52.6322L110.159 51.992ZM109.925 51.884V50.884H108.791V51.884V52.884H109.925V51.884ZM108.791 51.884V50.884C108.413 50.884 108.079 51.038 107.832 51.2849L108.539 51.992L109.246 52.6991C109.203 52.7428 109.138 52.7926 109.05 52.8301C108.961 52.8682 108.872 52.884 108.791 52.884V51.884ZM108.539 51.992L107.771 51.3518C107.557 51.6082 107.449 51.9203 107.449 52.244H108.449H109.449C109.449 52.3019 109.44 52.3714 109.414 52.4453C109.387 52.5196 109.349 52.5825 109.308 52.6322L108.539 51.992ZM108.449 52.244H107.449V56.15H108.449H109.449V52.244H108.449ZM117.186 57.23V56.23H116.186V57.23H117.186ZM117.186 62V63H118.186V62H117.186ZM114.666 62H113.666V63H114.666V62ZM114.666 50.354V49.354H113.666V50.354H114.666ZM120.354 55.916L119.994 54.9831L117.492 55.9486L120.015 56.8569L120.354 55.916ZM121.254 62V63H122.254V62H121.254ZM118.734 62H117.734V63H118.734V62ZM117.186 52.064V51.064H116.186V52.064H117.186ZM117.186 55.466H116.186V56.466H117.186V55.466ZM118.752 55.358L118.045 54.6509L118.012 54.683L117.983 54.7178L118.752 55.358ZM118.752 52.172L117.983 52.8122L118.012 52.847L118.045 52.8791L118.752 52.172ZM117.186 57.23H116.186V62H117.186H118.186V57.23H117.186ZM117.186 62V61H114.666V62V63H117.186V62ZM114.666 62H115.666V50.354H114.666H113.666V62H114.666ZM114.666 50.354V51.354H119.148V50.354V49.354H114.666V50.354ZM119.148 50.354V51.354C119.721 51.354 119.972 51.5036 120.093 51.6327C120.225 51.7735 120.38 52.0771 120.38 52.73H121.38H122.38C122.38 51.7989 122.162 50.9145 121.55 50.2633C120.928 49.6004 120.062 49.354 119.148 49.354V50.354ZM121.38 52.73H120.38V54.08H121.38H122.38V52.73H121.38ZM121.38 54.08H120.38C120.38 54.4495 120.313 54.6593 120.25 54.7712C120.199 54.8636 120.129 54.9309 119.994 54.9831L120.354 55.916L120.714 56.8489C121.263 56.6371 121.706 56.2664 121.996 55.7468C122.276 55.2467 122.38 54.6705 122.38 54.08H121.38ZM120.354 55.916L120.015 56.8569C120.125 56.8964 120.156 56.9373 120.175 56.9676C120.202 57.0128 120.254 57.1323 120.254 57.392H121.254H122.254C122.254 56.8837 122.155 56.3732 121.882 55.9264C121.601 55.4647 121.183 55.1516 120.692 54.9751L120.354 55.916ZM121.254 57.392H120.254V62H121.254H122.254V57.392H121.254ZM121.254 62V61H118.734V62V63H121.254V62ZM118.734 62H119.734V57.59H118.734H117.734V62H118.734ZM118.734 57.59H119.734C119.734 57.3283 119.672 56.9462 119.373 56.6313C119.065 56.3067 118.673 56.23 118.392 56.23V57.23V58.23C118.338 58.23 118.117 58.2134 117.923 58.0087C117.738 57.8138 117.734 57.6117 117.734 57.59H118.734ZM118.392 57.23V56.23H117.186V57.23V58.23H118.392V57.23ZM117.186 52.064H116.186V55.466H117.186H118.186V52.064H117.186ZM117.186 55.466V56.466H118.518V55.466V54.466H117.186V55.466ZM118.518 55.466V56.466C118.902 56.466 119.265 56.3045 119.52 55.9982L118.752 55.358L117.983 54.7178C118.04 54.6503 118.121 54.5808 118.229 54.531C118.336 54.4816 118.438 54.466 118.518 54.466V55.466ZM118.752 55.358L119.459 56.0651C119.706 55.8182 119.86 55.4846 119.86 55.106H118.86H117.86C117.86 55.0255 117.875 54.9358 117.913 54.8471C117.951 54.7595 118.001 54.6946 118.045 54.6509L118.752 55.358ZM118.86 55.106H119.86V52.424H118.86H117.86V55.106H118.86ZM118.86 52.424H119.86C119.86 52.0454 119.706 51.7118 119.459 51.4649L118.752 52.172L118.045 52.8791C118.001 52.8354 117.951 52.7705 117.913 52.6829C117.875 52.5942 117.86 52.5045 117.86 52.424H118.86ZM118.752 52.172L119.52 51.5318C119.265 51.2255 118.902 51.064 118.518 51.064V52.064V53.064C118.438 53.064 118.336 53.0484 118.229 52.999C118.121 52.9492 118.04 52.8797 117.983 52.8122L118.752 52.172ZM118.518 52.064V51.064H117.186V52.064V53.064H118.518V52.064ZM122.332 52.496H121.332V53.496H122.332V52.496ZM122.332 50.354V49.354H121.332V50.354H122.332ZM128.632 50.354H129.632V49.354H128.632V50.354ZM128.632 52.496V53.496H129.632V52.496H128.632ZM126.742 52.496V51.496H125.742V52.496H126.742ZM126.742 62V63H127.742V62H126.742ZM124.222 62H123.222V63H124.222V62ZM124.222 52.496H125.222V51.496H124.222V52.496ZM122.332 52.496H123.332V50.354H122.332H121.332V52.496H122.332ZM122.332 50.354V51.354H128.632V50.354V49.354H122.332V50.354ZM128.632 50.354H127.632V52.496H128.632H129.632V50.354H128.632ZM128.632 52.496V51.496H126.742V52.496V53.496H128.632V52.496ZM126.742 52.496H125.742V62H126.742H127.742V52.496H126.742ZM126.742 62V61H124.222V62V63H126.742V62ZM124.222 62H125.222V52.496H124.222H123.222V62H124.222ZM124.222 52.496V51.496H122.332V52.496V53.496H124.222V52.496ZM140.279 62V63H141.279V62H140.279ZM137.759 62H136.759V63H137.759V62ZM137.759 58.094H138.759V57.094H137.759V58.094ZM135.941 58.094V57.094H134.941V58.094H135.941ZM135.941 62V63H136.941V62H135.941ZM133.421 62H132.421V63H133.421V62ZM135.941 56.15H134.941V57.15H135.941V56.15ZM137.759 56.15V57.15H138.759V56.15H137.759ZM137.651 51.992L136.883 52.6322L136.912 52.667L136.944 52.6991L137.651 51.992ZM136.031 51.992L135.324 51.2849L135.292 51.317L135.263 51.3518L136.031 51.992ZM138.047 50.174V51.174C138.621 51.174 138.871 51.3236 138.993 51.4527C139.125 51.5935 139.279 51.8971 139.279 52.55H140.279H141.279C141.279 51.6189 141.062 50.7345 140.45 50.0833C139.828 49.4204 138.962 49.174 138.047 49.174V50.174ZM140.279 52.55H139.279V62H140.279H141.279V52.55H140.279ZM140.279 62V61H137.759V62V63H140.279V62ZM137.759 62H138.759V58.094H137.759H136.759V62H137.759ZM137.759 58.094V57.094H135.941V58.094V59.094H137.759V58.094ZM135.941 58.094H134.941V62H135.941H136.941V58.094H135.941ZM135.941 62V61H133.421V62V63H135.941V62ZM133.421 62H134.421V52.55H133.421H132.421V62H133.421ZM133.421 52.55H134.421C134.421 51.8971 134.576 51.5935 134.708 51.4527C134.83 51.3236 135.08 51.174 135.653 51.174V50.174V49.174C134.739 49.174 133.873 49.4204 133.251 50.0833C132.639 50.7345 132.421 51.6189 132.421 52.55H133.421ZM135.653 50.174V51.174H138.047V50.174V49.174H135.653V50.174ZM135.941 56.15V57.15H137.759V56.15V55.15H135.941V56.15ZM137.759 56.15H138.759V52.244H137.759H136.759V56.15H137.759ZM137.759 52.244H138.759C138.759 51.8654 138.606 51.5318 138.359 51.2849L137.651 51.992L136.944 52.6991C136.901 52.6554 136.851 52.5905 136.813 52.5029C136.775 52.4142 136.759 52.3245 136.759 52.244H137.759ZM137.651 51.992L138.42 51.3518C138.164 51.0455 137.802 50.884 137.417 50.884V51.884V52.884C137.338 52.884 137.236 52.8684 137.129 52.819C137.021 52.7692 136.94 52.6997 136.883 52.6322L137.651 51.992ZM137.417 51.884V50.884H136.283V51.884V52.884H137.417V51.884ZM136.283 51.884V50.884C135.905 50.884 135.571 51.038 135.324 51.2849L136.031 51.992L136.739 52.6991C136.695 52.7428 136.63 52.7926 136.542 52.8301C136.454 52.8682 136.364 52.884 136.283 52.884V51.884ZM136.031 51.992L135.263 51.3518C135.05 51.6082 134.941 51.9203 134.941 52.244H135.941H136.941C136.941 52.3019 136.932 52.3714 136.906 52.4453C136.879 52.5196 136.841 52.5825 136.8 52.6322L136.031 51.992ZM135.941 52.244H134.941V56.15H135.941H136.941V52.244H135.941ZM152.474 62V63H153.474V62H152.474ZM149.954 62H148.954V63H149.954V62ZM149.846 52.082L149.078 52.7222L149.107 52.757L149.139 52.7891L149.846 52.082ZM148.388 52.082L147.681 51.3749L147.649 51.407L147.62 51.4418L148.388 52.082ZM148.298 62V63H149.298V62H148.298ZM145.778 62H144.778V63H145.778V62ZM152.474 62V61H149.954V62V63H152.474V62ZM149.954 62H150.954V52.334H149.954H148.954V62H149.954ZM149.954 52.334H150.954C150.954 51.9554 150.801 51.6218 150.554 51.3749L149.846 52.082L149.139 52.7891C149.096 52.7454 149.046 52.6805 149.008 52.5929C148.97 52.5042 148.954 52.4145 148.954 52.334H149.954ZM149.846 52.082L150.615 51.4418C150.359 51.1355 149.997 50.974 149.612 50.974V51.974V52.974C149.533 52.974 149.431 52.9584 149.324 52.909C149.216 52.8592 149.135 52.7897 149.078 52.7222L149.846 52.082ZM149.612 51.974V50.974H148.64V51.974V52.974H149.612V51.974ZM148.64 51.974V50.974C148.262 50.974 147.928 51.128 147.681 51.3749L148.388 52.082L149.096 52.7891C149.052 52.8328 148.987 52.8826 148.899 52.9201C148.811 52.9582 148.721 52.974 148.64 52.974V51.974ZM148.388 52.082L147.62 51.4418C147.407 51.6982 147.298 52.0103 147.298 52.334H148.298H149.298C149.298 52.3919 149.289 52.4614 149.263 52.5353C149.236 52.6096 149.198 52.6725 149.157 52.7222L148.388 52.082ZM148.298 52.334H147.298V62H148.298H149.298V52.334H148.298ZM148.298 62V61H145.778V62V63H148.298V62ZM145.778 62H146.778V52.55H145.778H144.778V62H145.778ZM145.778 52.55H146.778C146.778 51.8971 146.933 51.5935 147.065 51.4527C147.187 51.3236 147.437 51.174 148.01 51.174V50.174V49.174C147.096 49.174 146.23 49.4204 145.608 50.0833C144.996 50.7345 144.778 51.6189 144.778 52.55H145.778ZM148.01 50.174V51.174H150.242V50.174V49.174H148.01V50.174ZM150.242 50.174V51.174C150.816 51.174 151.066 51.3236 151.188 51.4527C151.32 51.5935 151.474 51.8971 151.474 52.55H152.474H153.474C153.474 51.6189 153.257 50.7345 152.645 50.0833C152.023 49.4204 151.157 49.174 150.242 49.174V50.174ZM152.474 52.55H151.474V62H152.474H153.474V52.55H152.474ZM156.684 59.912H155.684V60.912H156.684V59.912ZM159.474 59.912H160.474V58.912H159.474V59.912ZM159.474 62V63H160.474V62H159.474ZM154.164 62H153.164V63H154.164V62ZM154.164 50.354V49.354H153.164V50.354H154.164ZM159.474 50.354H160.474V49.354H159.474V50.354ZM159.474 52.406V53.406H160.474V52.406H159.474ZM156.684 52.406V51.406H155.684V52.406H156.684ZM156.684 55.142H155.684V56.142H156.684V55.142ZM159.294 55.142H160.294V54.142H159.294V55.142ZM159.294 57.122V58.122H160.294V57.122H159.294ZM156.684 57.122V56.122H155.684V57.122H156.684ZM156.684 59.912V60.912H159.474V59.912V58.912H156.684V59.912ZM159.474 59.912H158.474V62H159.474H160.474V59.912H159.474ZM159.474 62V61H154.164V62V63H159.474V62ZM154.164 62H155.164V50.354H154.164H153.164V62H154.164ZM154.164 50.354V51.354H159.474V50.354V49.354H154.164V50.354ZM159.474 50.354H158.474V52.406H159.474H160.474V50.354H159.474ZM159.474 52.406V51.406H156.684V52.406V53.406H159.474V52.406ZM156.684 52.406H155.684V55.142H156.684H157.684V52.406H156.684ZM156.684 55.142V56.142H159.294V55.142V54.142H156.684V55.142ZM159.294 55.142H158.294V57.122H159.294H160.294V55.142H159.294ZM159.294 57.122V56.122H156.684V57.122V58.122H159.294V57.122ZM156.684 57.122H155.684V59.912H156.684H157.684V57.122H156.684ZM165.233 50.354V49.354H164.375L164.245 50.2018L165.233 50.354ZM167.465 50.354L168.454 50.2018L168.323 49.354H167.465V50.354ZM168.815 59.12L167.827 59.2722L169.809 59.2342L168.815 59.12ZM169.823 50.354V49.354H168.932L168.83 50.2398L169.823 50.354ZM172.271 50.354L173.258 50.5142L173.447 49.354H172.271V50.354ZM170.381 62V63H171.232L171.368 62.1602L170.381 62ZM167.519 62L166.532 62.1616L166.67 63H167.519V62ZM166.349 54.854L167.336 54.6924H165.362L166.349 54.854ZM165.179 62V63H166.029L166.166 62.1616L165.179 62ZM162.317 62L161.33 62.1602L161.466 63H162.317V62ZM160.427 50.354V49.354H159.252L159.44 50.5142L160.427 50.354ZM162.875 50.354L163.869 50.2398L163.767 49.354H162.875V50.354ZM163.883 59.12L162.89 59.2342L164.872 59.2722L163.883 59.12ZM165.233 50.354V51.354H167.465V50.354V49.354H165.233V50.354ZM167.465 50.354L166.477 50.5062L167.827 59.2722L168.815 59.12L169.804 58.9678L168.454 50.2018L167.465 50.354ZM168.815 59.12L169.809 59.2342L170.817 50.4682L169.823 50.354L168.83 50.2398L167.822 59.0058L168.815 59.12ZM169.823 50.354V51.354H172.271V50.354V49.354H169.823V50.354ZM172.271 50.354L171.284 50.1938L169.394 61.8398L170.381 62L171.368 62.1602L173.258 50.5142L172.271 50.354ZM170.381 62V61H167.519V62V63H170.381V62ZM167.519 62L168.506 61.8384L167.336 54.6924L166.349 54.854L165.362 55.0156L166.532 62.1616L167.519 62ZM166.349 54.854L165.362 54.6924L164.192 61.8384L165.179 62L166.166 62.1616L167.336 55.0156L166.349 54.854ZM165.179 62V61H162.317V62V63H165.179V62ZM162.317 62L163.304 61.8398L161.414 50.1938L160.427 50.354L159.44 50.5142L161.33 62.1602L162.317 62ZM160.427 50.354V51.354H162.875V50.354V49.354H160.427V50.354ZM162.875 50.354L161.882 50.4682L162.89 59.2342L163.883 59.12L164.877 59.0058L163.869 50.2398L162.875 50.354ZM163.883 59.12L164.872 59.2722L166.222 50.5062L165.233 50.354L164.245 50.2018L162.895 58.9678L163.883 59.12ZM183.758 53.414V54.414H184.758V53.414H183.758ZM181.364 53.414H180.364V54.414H181.364V53.414ZM181.256 52.244L180.488 52.8842L180.517 52.919L180.549 52.9511L181.256 52.244ZM179.78 52.244L179.073 51.5369L179.041 51.569L179.012 51.6038L179.78 52.244ZM179.78 54.818L179.012 55.4582L179.041 55.493L179.073 55.5251L179.78 54.818ZM181.652 54.926L181.669 53.9261L181.661 53.926H181.652V54.926ZM177.296 58.598V57.598H176.296V58.598H177.296ZM179.69 58.598H180.69V57.598H179.69V58.598ZM179.78 60.146L179.012 60.7862L179.041 60.821L179.073 60.8531L179.78 60.146ZM181.382 60.146L180.675 59.4389L180.643 59.471L180.614 59.5058L181.382 60.146ZM181.382 57.356L180.614 57.9962L180.643 58.031L180.675 58.0631L181.382 57.356ZM183.758 53.414V52.414H181.364V53.414V54.414H183.758V53.414ZM181.364 53.414H182.364V52.496H181.364H180.364V53.414H181.364ZM181.364 52.496H182.364C182.364 52.1174 182.211 51.7838 181.964 51.5369L181.256 52.244L180.549 52.9511C180.506 52.9074 180.456 52.8425 180.418 52.7549C180.38 52.6662 180.364 52.5765 180.364 52.496H181.364ZM181.256 52.244L182.025 51.6038C181.769 51.2975 181.407 51.136 181.022 51.136V52.136V53.136C180.943 53.136 180.841 53.1204 180.734 53.071C180.626 53.0212 180.545 52.9517 180.488 52.8842L181.256 52.244ZM181.022 52.136V51.136H180.032V52.136V53.136H181.022V52.136ZM180.032 52.136V51.136C179.654 51.136 179.32 51.29 179.073 51.5369L179.78 52.244L180.488 52.9511C180.444 52.9948 180.379 53.0446 180.291 53.0821C180.203 53.1202 180.113 53.136 180.032 53.136V52.136ZM179.78 52.244L179.012 51.6038C178.799 51.8602 178.69 52.1723 178.69 52.496H179.69H180.69C180.69 52.5539 180.681 52.6234 180.655 52.6973C180.628 52.7716 180.59 52.8345 180.549 52.8842L179.78 52.244ZM179.69 52.496H178.69V54.566H179.69H180.69V52.496H179.69ZM179.69 54.566H178.69C178.69 54.8897 178.799 55.2018 179.012 55.4582L179.78 54.818L180.549 54.1778C180.59 54.2275 180.628 54.2904 180.655 54.3647C180.681 54.4386 180.69 54.5081 180.69 54.566H179.69ZM179.78 54.818L179.073 55.5251C179.32 55.772 179.654 55.926 180.032 55.926V54.926V53.926C180.113 53.926 180.203 53.9418 180.291 53.9799C180.379 54.0174 180.444 54.0672 180.488 54.1109L179.78 54.818ZM180.032 54.926V55.926H181.652V54.926V53.926H180.032V54.926ZM181.652 54.926L181.636 55.9259C182.213 55.9352 182.471 56.0879 182.598 56.2227C182.732 56.366 182.884 56.666 182.884 57.302H183.884H184.884C184.884 56.378 184.665 55.502 184.055 54.8533C183.438 54.1961 182.58 53.9408 181.669 53.9261L181.652 54.926ZM183.884 57.302H182.884V59.804H183.884H184.884V57.302H183.884ZM183.884 59.804H182.884C182.884 60.4569 182.73 60.7605 182.598 60.9013C182.476 61.0304 182.226 61.18 181.652 61.18V62.18V63.18C182.567 63.18 183.433 62.9336 184.055 62.2707C184.667 61.6195 184.884 60.7351 184.884 59.804H183.884ZM181.652 62.18V61.18H179.528V62.18V63.18H181.652V62.18ZM179.528 62.18V61.18C178.955 61.18 178.705 61.0304 178.583 60.9013C178.451 60.7605 178.296 60.4569 178.296 59.804H177.296H176.296C176.296 60.7351 176.514 61.6195 177.126 62.2707C177.748 62.9336 178.614 63.18 179.528 63.18V62.18ZM177.296 59.804H178.296V58.598H177.296H176.296V59.804H177.296ZM177.296 58.598V59.598H179.69V58.598V57.598H177.296V58.598ZM179.69 58.598H178.69V59.894H179.69H180.69V58.598H179.69ZM179.69 59.894H178.69C178.69 60.2177 178.799 60.5298 179.012 60.7862L179.78 60.146L180.549 59.5058C180.59 59.5555 180.628 59.6184 180.655 59.6927C180.681 59.7666 180.69 59.8361 180.69 59.894H179.69ZM179.78 60.146L179.073 60.8531C179.32 61.1 179.654 61.254 180.032 61.254V60.254V59.254C180.113 59.254 180.203 59.2698 180.291 59.3079C180.379 59.3454 180.444 59.3952 180.488 59.4389L179.78 60.146ZM180.032 60.254V61.254H181.148V60.254V59.254H180.032V60.254ZM181.148 60.254V61.254C181.533 61.254 181.895 61.0925 182.151 60.7862L181.382 60.146L180.614 59.5058C180.671 59.4383 180.752 59.3688 180.86 59.319C180.967 59.2696 181.069 59.254 181.148 59.254V60.254ZM181.382 60.146L182.09 60.8531C182.337 60.6062 182.49 60.2726 182.49 59.894H181.49H180.49C180.49 59.8135 180.506 59.7238 180.544 59.6351C180.582 59.5475 180.632 59.4826 180.675 59.4389L181.382 60.146ZM181.49 59.894H182.49V57.608H181.49H180.49V59.894H181.49ZM181.49 57.608H182.49C182.49 57.2294 182.337 56.8958 182.09 56.6489L181.382 57.356L180.675 58.0631C180.632 58.0194 180.582 57.9545 180.544 57.8669C180.506 57.7782 180.49 57.6885 180.49 57.608H181.49ZM181.382 57.356L182.151 56.7158C181.895 56.4095 181.533 56.248 181.148 56.248V57.248V58.248C181.069 58.248 180.967 58.2324 180.86 58.183C180.752 58.1332 180.671 58.0637 180.614 57.9962L181.382 57.356ZM181.148 57.248V56.248H179.528V57.248V58.248H181.148V57.248ZM179.528 57.248V56.248C178.955 56.248 178.705 56.0984 178.583 55.9693C178.451 55.8285 178.296 55.5249 178.296 54.872H177.296H176.296C176.296 55.8031 176.514 56.6875 177.126 57.3387C177.748 58.0016 178.614 58.248 179.528 58.248V57.248ZM177.296 54.872H178.296V52.55H177.296H176.296V54.872H177.296ZM177.296 52.55H178.296C178.296 51.8971 178.451 51.5935 178.583 51.4527C178.705 51.3236 178.955 51.174 179.528 51.174V50.174V49.174C178.614 49.174 177.748 49.4204 177.126 50.0833C176.514 50.7345 176.296 51.6189 176.296 52.55H177.296ZM179.528 50.174V51.174H181.526V50.174V49.174H179.528V50.174ZM181.526 50.174V51.174C182.1 51.174 182.35 51.3236 182.472 51.4527C182.604 51.5935 182.758 51.8971 182.758 52.55H183.758H184.758C184.758 51.6189 184.541 50.7345 183.929 50.0833C183.307 49.4204 182.441 49.174 181.526 49.174V50.174ZM183.758 52.55H182.758V53.414H183.758H184.758V52.55H183.758ZM192.399 62V63H193.399V62H192.399ZM189.879 62H188.879V63H189.879V62ZM189.879 58.094H190.879V57.094H189.879V58.094ZM188.061 58.094V57.094H187.061V58.094H188.061ZM188.061 62V63H189.061V62H188.061ZM185.541 62H184.541V63H185.541V62ZM188.061 56.15H187.061V57.15H188.061V56.15ZM189.879 56.15V57.15H190.879V56.15H189.879ZM189.771 51.992L189.002 52.6322L189.031 52.667L189.064 52.6991L189.771 51.992ZM188.151 51.992L187.444 51.2849L187.411 51.317L187.382 51.3518L188.151 51.992ZM190.167 50.174V51.174C190.74 51.174 190.991 51.3236 191.112 51.4527C191.244 51.5935 191.399 51.8971 191.399 52.55H192.399H193.399C193.399 51.6189 193.181 50.7345 192.569 50.0833C191.947 49.4204 191.081 49.174 190.167 49.174V50.174ZM192.399 52.55H191.399V62H192.399H193.399V52.55H192.399ZM192.399 62V61H189.879V62V63H192.399V62ZM189.879 62H190.879V58.094H189.879H188.879V62H189.879ZM189.879 58.094V57.094H188.061V58.094V59.094H189.879V58.094ZM188.061 58.094H187.061V62H188.061H189.061V58.094H188.061ZM188.061 62V61H185.541V62V63H188.061V62ZM185.541 62H186.541V52.55H185.541H184.541V62H185.541ZM185.541 52.55H186.541C186.541 51.8971 186.695 51.5935 186.827 51.4527C186.949 51.3236 187.199 51.174 187.773 51.174V50.174V49.174C186.858 49.174 185.993 49.4204 185.37 50.0833C184.758 50.7345 184.541 51.6189 184.541 52.55H185.541ZM187.773 50.174V51.174H190.167V50.174V49.174H187.773V50.174ZM188.061 56.15V57.15H189.879V56.15V55.15H188.061V56.15ZM189.879 56.15H190.879V52.244H189.879H188.879V56.15H189.879ZM189.879 52.244H190.879C190.879 51.8654 190.725 51.5318 190.478 51.2849L189.771 51.992L189.064 52.6991C189.02 52.6554 188.97 52.5905 188.932 52.5029C188.894 52.4142 188.879 52.3245 188.879 52.244H189.879ZM189.771 51.992L190.539 51.3518C190.284 51.0455 189.921 50.884 189.537 50.884V51.884V52.884C189.457 52.884 189.355 52.8684 189.248 52.819C189.14 52.7692 189.059 52.6997 189.002 52.6322L189.771 51.992ZM189.537 51.884V50.884H188.403V51.884V52.884H189.537V51.884ZM188.403 51.884V50.884C188.024 50.884 187.69 51.038 187.444 51.2849L188.151 51.992L188.858 52.6991C188.814 52.7428 188.749 52.7926 188.662 52.8301C188.573 52.8682 188.483 52.884 188.403 52.884V51.884ZM188.151 51.992L187.382 51.3518C187.169 51.6082 187.061 51.9203 187.061 52.244H188.061H189.061C189.061 52.3019 189.051 52.3714 189.025 52.4453C188.998 52.5196 188.96 52.5825 188.919 52.6322L188.151 51.992ZM188.061 52.244H187.061V56.15H188.061H189.061V52.244H188.061ZM198.975 50.354V49.354H198.128L197.989 50.1889L198.975 50.354ZM201.405 50.354L202.384 50.5568L202.633 49.354H201.405V50.354ZM198.993 62V63H199.807L199.972 62.2028L198.993 62ZM196.095 62L195.116 62.2028L195.281 63H196.095V62ZM193.683 50.354V49.354H192.455L192.704 50.5568L193.683 50.354ZM196.131 50.354L197.117 50.1889L196.977 49.354H196.131V50.354ZM197.553 58.85L196.567 59.0151H198.539L197.553 58.85ZM198.975 50.354V51.354H201.405V50.354V49.354H198.975V50.354ZM201.405 50.354L200.426 50.1512L198.014 61.7972L198.993 62L199.972 62.2028L202.384 50.5568L201.405 50.354ZM198.993 62V61H196.095V62V63H198.993V62ZM196.095 62L197.074 61.7972L194.662 50.1512L193.683 50.354L192.704 50.5568L195.116 62.2028L196.095 62ZM193.683 50.354V51.354H196.131V50.354V49.354H193.683V50.354ZM196.131 50.354L195.145 50.5191L196.567 59.0151L197.553 58.85L198.539 58.6849L197.117 50.1889L196.131 50.354ZM197.553 58.85L198.539 59.0151L199.961 50.5191L198.975 50.354L197.989 50.1889L196.567 58.6849L197.553 58.85ZM205.164 50.354H206.164V49.354H205.164V50.354ZM205.164 62V63H206.164V62H205.164ZM202.644 62H201.644V63H202.644V62ZM202.644 50.354V49.354H201.644V50.354H202.644ZM205.164 50.354H204.164V62H205.164H206.164V50.354H205.164ZM205.164 62V61H202.644V62V63H205.164V62ZM202.644 62H203.644V50.354H202.644H201.644V62H202.644ZM202.644 50.354V51.354H205.164V50.354V49.354H202.644V50.354ZM213.717 62V63H214.717V62H213.717ZM211.197 62H210.197V63H211.197V62ZM211.089 52.082L210.32 52.7222L210.349 52.757L210.382 52.7891L211.089 52.082ZM209.631 52.082L208.924 51.3749L208.891 51.407L208.862 51.4418L209.631 52.082ZM209.541 62V63H210.541V62H209.541ZM207.021 62H206.021V63H207.021V62ZM213.717 62V61H211.197V62V63H213.717V62ZM211.197 62H212.197V52.334H211.197H210.197V62H211.197ZM211.197 52.334H212.197C212.197 51.9554 212.043 51.6218 211.796 51.3749L211.089 52.082L210.382 52.7891C210.338 52.7454 210.288 52.6805 210.251 52.5929C210.213 52.5042 210.197 52.4145 210.197 52.334H211.197ZM211.089 52.082L211.857 51.4418C211.602 51.1355 211.239 50.974 210.855 50.974V51.974V52.974C210.775 52.974 210.673 52.9584 210.566 52.909C210.458 52.8592 210.377 52.7897 210.32 52.7222L211.089 52.082ZM210.855 51.974V50.974H209.883V51.974V52.974H210.855V51.974ZM209.883 51.974V50.974C209.504 50.974 209.17 51.128 208.924 51.3749L209.631 52.082L210.338 52.7891C210.294 52.8328 210.229 52.8826 210.142 52.9201C210.053 52.9582 209.963 52.974 209.883 52.974V51.974ZM209.631 52.082L208.862 51.4418C208.649 51.6982 208.541 52.0103 208.541 52.334H209.541H210.541C210.541 52.3919 210.531 52.4614 210.505 52.5353C210.478 52.6096 210.44 52.6725 210.399 52.7222L209.631 52.082ZM209.541 52.334H208.541V62H209.541H210.541V52.334H209.541ZM209.541 62V61H207.021V62V63H209.541V62ZM207.021 62H208.021V52.55H207.021H206.021V62H207.021ZM207.021 52.55H208.021C208.021 51.8971 208.175 51.5935 208.308 51.4527C208.429 51.3236 208.679 51.174 209.253 51.174V50.174V49.174C208.338 49.174 207.473 49.4204 206.85 50.0833C206.238 50.7345 206.021 51.6189 206.021 52.55H207.021ZM209.253 50.174V51.174H211.485V50.174V49.174H209.253V50.174ZM211.485 50.174V51.174C212.058 51.174 212.309 51.3236 212.43 51.4527C212.562 51.5935 212.717 51.8971 212.717 52.55H213.717H214.717C214.717 51.6189 214.499 50.7345 213.888 50.0833C213.265 49.4204 212.399 49.174 211.485 49.174V50.174ZM213.717 52.55H212.717V62H213.717H214.717V52.55H213.717ZM218.808 57.374H217.808V58.374H218.808V57.374ZM218.808 55.52V54.52H217.808V55.52H218.808ZM222.138 55.52H223.138V54.52H222.138V55.52ZM222.138 53.648V54.648H223.138V53.648H222.138ZM219.744 53.648H218.744V54.648H219.744V53.648ZM219.636 51.992L218.868 52.6322L218.897 52.667L218.929 52.6991L219.636 51.992ZM218.016 51.992L217.309 51.2849L217.277 51.317L217.248 51.3518L218.016 51.992ZM218.016 60.344L217.248 60.9842L217.277 61.019L217.309 61.0511L218.016 60.344ZM219.636 60.344L218.929 59.6369L218.897 59.669L218.868 59.7038L219.636 60.344ZM219.744 57.374H220.744V56.374H219.744V57.374ZM218.808 57.374H219.808V55.52H218.808H217.808V57.374H218.808ZM218.808 55.52V56.52H222.138V55.52V54.52H218.808V55.52ZM222.138 55.52H221.138V59.804H222.138H223.138V55.52H222.138ZM222.138 59.804H221.138C221.138 60.4569 220.983 60.7605 220.851 60.9013C220.73 61.0304 220.479 61.18 219.906 61.18V62.18V63.18C220.821 63.18 221.686 62.9336 222.309 62.2707C222.92 61.6195 223.138 60.7351 223.138 59.804H222.138ZM219.906 62.18V61.18H217.638V62.18V63.18H219.906V62.18ZM217.638 62.18V61.18C217.065 61.18 216.814 61.0304 216.693 60.9013C216.56 60.7605 216.406 60.4569 216.406 59.804H215.406H214.406C214.406 60.7351 214.623 61.6195 215.235 62.2707C215.858 62.9336 216.723 63.18 217.638 63.18V62.18ZM215.406 59.804H216.406V52.55H215.406H214.406V59.804H215.406ZM215.406 52.55H216.406C216.406 51.8971 216.56 51.5935 216.693 51.4527C216.814 51.3236 217.065 51.174 217.638 51.174V50.174V49.174C216.723 49.174 215.858 49.4204 215.235 50.0833C214.623 50.7345 214.406 51.6189 214.406 52.55H215.406ZM217.638 50.174V51.174H219.906V50.174V49.174H217.638V50.174ZM219.906 50.174V51.174C220.479 51.174 220.73 51.3236 220.851 51.4527C220.983 51.5935 221.138 51.8971 221.138 52.55H222.138H223.138C223.138 51.6189 222.92 50.7345 222.309 50.0833C221.686 49.4204 220.821 49.174 219.906 49.174V50.174ZM222.138 52.55H221.138V53.648H222.138H223.138V52.55H222.138ZM222.138 53.648V52.648H219.744V53.648V54.648H222.138V53.648ZM219.744 53.648H220.744V52.244H219.744H218.744V53.648H219.744ZM219.744 52.244H220.744C220.744 51.8654 220.59 51.5318 220.343 51.2849L219.636 51.992L218.929 52.6991C218.885 52.6554 218.835 52.5905 218.798 52.5029C218.76 52.4142 218.744 52.3245 218.744 52.244H219.744ZM219.636 51.992L220.404 51.3518C220.149 51.0455 219.786 50.884 219.402 50.884V51.884V52.884C219.322 52.884 219.22 52.8684 219.113 52.819C219.006 52.7692 218.924 52.6997 218.868 52.6322L219.636 51.992ZM219.402 51.884V50.884H218.268V51.884V52.884H219.402V51.884ZM218.268 51.884V50.884C217.889 50.884 217.556 51.038 217.309 51.2849L218.016 51.992L218.723 52.6991C218.679 52.7428 218.614 52.7926 218.527 52.8301C218.438 52.8682 218.348 52.884 218.268 52.884V51.884ZM218.016 51.992L217.248 51.3518C217.034 51.6082 216.926 51.9203 216.926 52.244H217.926H218.926C218.926 52.3019 218.916 52.3714 218.89 52.4453C218.864 52.5196 218.825 52.5825 218.784 52.6322L218.016 51.992ZM217.926 52.244H216.926V60.092H217.926H218.926V52.244H217.926ZM217.926 60.092H216.926C216.926 60.4157 217.034 60.7278 217.248 60.9842L218.016 60.344L218.784 59.7038C218.825 59.7535 218.864 59.8164 218.89 59.8907C218.917 59.9646 218.926 60.0341 218.926 60.092H217.926ZM218.016 60.344L217.309 61.0511C217.556 61.298 217.889 61.452 218.268 61.452V60.452V59.452C218.348 59.452 218.438 59.4678 218.527 59.5059C218.614 59.5434 218.679 59.5932 218.723 59.6369L218.016 60.344ZM218.268 60.452V61.452H219.402V60.452V59.452H218.268V60.452ZM219.402 60.452V61.452C219.786 61.452 220.149 61.2905 220.404 60.9842L219.636 60.344L218.868 59.7038C218.924 59.6363 219.006 59.5668 219.113 59.517C219.22 59.4676 219.322 59.452 219.402 59.452V60.452ZM219.636 60.344L220.343 61.0511C220.59 60.8042 220.744 60.4706 220.744 60.092H219.744H218.744C218.744 60.0115 218.76 59.9218 218.798 59.8331C218.835 59.7455 218.885 59.6806 218.929 59.6369L219.636 60.344ZM219.744 60.092H220.744V57.374H219.744H218.744V60.092H219.744ZM219.744 57.374V56.374H218.808V57.374V58.374H219.744V57.374Z" fill="black" mask="url(#path-7-inside-3_35_150)"/>
</svg>
