<svg width="414" height="72" viewBox="0 0 414 72" fill="none" xmlns="http://www.w3.org/2000/svg">
<rect x="0.5" y="0.5" width="413" height="71" fill="#A32100" stroke="black"/>
<rect x="0.5" y="0.5" width="71" height="71" fill="#D9D9D9" stroke="black"/>
<rect x="0.5" y="0.5" width="71" height="71" fill="#380B00" stroke="black"/>
<mask id="path-4-inside-1_35_156" fill="white">
<path d="M99.824 14.976C102.469 14.976 103.792 16.384 103.792 19.2V32.096C103.792 34.912 102.469 36.32 99.824 36.32H99.76V37.92C99.76 38.24 99.92 38.4 100.24 38.4H101.264V41.536H99.376C98.3307 41.536 97.5093 41.216 96.912 40.576C96.336 39.9573 96.048 39.2533 96.048 38.464V36.32H95.568C92.9227 36.32 91.6 34.912 91.6 32.096V19.2C91.6 16.384 92.9227 14.976 95.568 14.976H99.824ZM96.08 18.656V32.608C96.08 32.7787 96.1333 32.928 96.24 33.056C96.368 33.184 96.5173 33.248 96.688 33.248H98.704C98.8747 33.248 99.0133 33.184 99.12 33.056C99.248 32.928 99.312 32.7787 99.312 32.608V18.656C99.312 18.4853 99.248 18.336 99.12 18.208C99.0133 18.08 98.8747 18.016 98.704 18.016H96.688C96.5173 18.016 96.368 18.08 96.24 18.208C96.1333 18.336 96.08 18.4853 96.08 18.656ZM114.18 15.296H118.66V32.096C118.66 34.912 117.337 36.32 114.692 36.32H110.724C108.078 36.32 106.756 34.912 106.756 32.096V15.296H111.236V32.48C111.236 32.6507 111.289 32.8 111.396 32.928C111.524 33.056 111.673 33.12 111.844 33.12H113.572C113.742 33.12 113.881 33.056 113.988 32.928C114.116 32.8 114.18 32.6507 114.18 32.48V15.296ZM126.205 15.296V36H121.725V15.296H126.205ZM128.354 19.104V15.296H139.554V19.104H136.194V36H131.714V19.104H128.354Z"/>
</mask>
<path d="M99.824 14.976C102.469 14.976 103.792 16.384 103.792 19.2V32.096C103.792 34.912 102.469 36.32 99.824 36.32H99.76V37.92C99.76 38.24 99.92 38.4 100.24 38.4H101.264V41.536H99.376C98.3307 41.536 97.5093 41.216 96.912 40.576C96.336 39.9573 96.048 39.2533 96.048 38.464V36.32H95.568C92.9227 36.32 91.6 34.912 91.6 32.096V19.2C91.6 16.384 92.9227 14.976 95.568 14.976H99.824ZM96.08 18.656V32.608C96.08 32.7787 96.1333 32.928 96.24 33.056C96.368 33.184 96.5173 33.248 96.688 33.248H98.704C98.8747 33.248 99.0133 33.184 99.12 33.056C99.248 32.928 99.312 32.7787 99.312 32.608V18.656C99.312 18.4853 99.248 18.336 99.12 18.208C99.0133 18.08 98.8747 18.016 98.704 18.016H96.688C96.5173 18.016 96.368 18.08 96.24 18.208C96.1333 18.336 96.08 18.4853 96.08 18.656ZM114.18 15.296H118.66V32.096C118.66 34.912 117.337 36.32 114.692 36.32H110.724C108.078 36.32 106.756 34.912 106.756 32.096V15.296H111.236V32.48C111.236 32.6507 111.289 32.8 111.396 32.928C111.524 33.056 111.673 33.12 111.844 33.12H113.572C113.742 33.12 113.881 33.056 113.988 32.928C114.116 32.8 114.18 32.6507 114.18 32.48V15.296ZM126.205 15.296V36H121.725V15.296H126.205ZM128.354 19.104V15.296H139.554V19.104H136.194V36H131.714V19.104H128.354Z" fill="black"/>
<path d="M99.76 36.32V35.32H98.76V36.32H99.76ZM101.264 38.4H102.264V37.4H101.264V38.4ZM101.264 41.536V42.536H102.264V41.536H101.264ZM96.912 40.576L96.1801 41.2574L96.1809 41.2583L96.912 40.576ZM96.048 36.32H97.048V35.32H96.048V36.32ZM96.24 33.056L95.4718 33.6962L95.5008 33.731L95.5329 33.7631L96.24 33.056ZM99.12 33.056L98.4129 32.3489L98.3808 32.381L98.3518 32.4158L99.12 33.056ZM99.12 18.208L98.3518 18.8482L98.3808 18.883L98.4129 18.9151L99.12 18.208ZM96.24 18.208L95.5329 17.5009L95.5008 17.533L95.4718 17.5678L96.24 18.208ZM99.824 14.976V15.976C100.976 15.976 101.661 16.2796 102.071 16.7167C102.493 17.1655 102.792 17.9311 102.792 19.2H103.792H104.792C104.792 17.6529 104.43 16.3065 103.529 15.3473C102.617 14.3764 101.317 13.976 99.824 13.976V14.976ZM103.792 19.2H102.792V32.096H103.792H104.792V19.2H103.792ZM103.792 32.096H102.792C102.792 33.3649 102.493 34.1305 102.071 34.5793C101.661 35.0164 100.976 35.32 99.824 35.32V36.32V37.32C101.317 37.32 102.617 36.9196 103.529 35.9487C104.43 34.9895 104.792 33.6431 104.792 32.096H103.792ZM99.824 36.32V35.32H99.76V36.32V37.32H99.824V36.32ZM99.76 36.32H98.76V37.92H99.76H100.76V36.32H99.76ZM99.76 37.92H98.76C98.76 38.2341 98.8392 38.6534 99.1729 38.9871C99.5066 39.3208 99.9259 39.4 100.24 39.4V38.4V37.4C100.24 37.4 100.281 37.3997 100.346 37.4213C100.416 37.4446 100.505 37.4907 100.587 37.5729C100.669 37.6551 100.715 37.7441 100.739 37.8138C100.76 37.8786 100.76 37.9197 100.76 37.92H99.76ZM100.24 38.4V39.4H101.264V38.4V37.4H100.24V38.4ZM101.264 38.4H100.264V41.536H101.264H102.264V38.4H101.264ZM101.264 41.536V40.536H99.376V41.536V42.536H101.264V41.536ZM99.376 41.536V40.536C98.5495 40.536 98.0149 40.292 97.6431 39.8937L96.912 40.576L96.1809 41.2583C97.0038 42.14 98.1118 42.536 99.376 42.536V41.536ZM96.912 40.576L97.6439 39.8946C97.2268 39.4466 97.048 38.9815 97.048 38.464H96.048H95.048C95.048 39.5252 95.4452 40.468 96.1801 41.2574L96.912 40.576ZM96.048 38.464H97.048V36.32H96.048H95.048V38.464H96.048ZM96.048 36.32V35.32H95.568V36.32V37.32H96.048V36.32ZM95.568 36.32V35.32C94.416 35.32 93.7315 35.0164 93.3208 34.5793C92.8992 34.1305 92.6 33.3649 92.6 32.096H91.6H90.6C90.6 33.6431 90.9621 34.9895 91.8632 35.9487C92.7752 36.9196 94.0746 37.32 95.568 37.32V36.32ZM91.6 32.096H92.6V19.2H91.6H90.6V32.096H91.6ZM91.6 19.2H92.6C92.6 17.9311 92.8992 17.1655 93.3208 16.7167C93.7315 16.2796 94.416 15.976 95.568 15.976V14.976V13.976C94.0746 13.976 92.7752 14.3764 91.8632 15.3473C90.9621 16.3065 90.6 17.6529 90.6 19.2H91.6ZM95.568 14.976V15.976H99.824V14.976V13.976H95.568V14.976ZM96.08 18.656H95.08V32.608H96.08H97.08V18.656H96.08ZM96.08 32.608H95.08C95.08 33.0064 95.2114 33.3838 95.4718 33.6962L96.24 33.056L97.0082 32.4158C97.0263 32.4375 97.0469 32.4701 97.0617 32.5117C97.0765 32.5529 97.08 32.5875 97.08 32.608H96.08ZM96.24 33.056L95.5329 33.7631C95.8358 34.066 96.2348 34.248 96.688 34.248V33.248V32.248C96.7311 32.248 96.7859 32.2568 96.8419 32.2809C96.8968 32.3044 96.9314 32.3332 96.9471 32.3489L96.24 33.056ZM96.688 33.248V34.248H98.704V33.248V32.248H96.688V33.248ZM98.704 33.248V34.248C99.1631 34.248 99.5863 34.0585 99.8882 33.6962L99.12 33.056L98.3518 32.4158C98.3847 32.3763 98.4395 32.3278 98.5169 32.292C98.5937 32.2566 98.6617 32.248 98.704 32.248V33.248ZM99.12 33.056L99.8271 33.7631C100.13 33.4602 100.312 33.0612 100.312 32.608H99.312H98.312C98.312 32.5649 98.3208 32.5101 98.3449 32.4541C98.3684 32.3992 98.3972 32.3646 98.4129 32.3489L99.12 33.056ZM99.312 32.608H100.312V18.656H99.312H98.312V32.608H99.312ZM99.312 18.656H100.312C100.312 18.2028 100.13 17.8038 99.8271 17.5009L99.12 18.208L98.4129 18.9151C98.3972 18.8994 98.3684 18.8648 98.3449 18.8099C98.3208 18.7539 98.312 18.6991 98.312 18.656H99.312ZM99.12 18.208L99.8882 17.5678C99.5863 17.2055 99.1631 17.016 98.704 17.016V18.016V19.016C98.6617 19.016 98.5937 19.0074 98.5169 18.972C98.4395 18.9362 98.3847 18.8877 98.3518 18.8482L99.12 18.208ZM98.704 18.016V17.016H96.688V18.016V19.016H98.704V18.016ZM96.688 18.016V17.016C96.2348 17.016 95.8358 17.198 95.5329 17.5009L96.24 18.208L96.9471 18.9151C96.9314 18.9308 96.8968 18.9596 96.8419 18.9831C96.7859 19.0072 96.7311 19.016 96.688 19.016V18.016ZM96.24 18.208L95.4718 17.5678C95.2114 17.8802 95.08 18.2576 95.08 18.656H96.08H97.08C97.08 18.6765 97.0765 18.7111 97.0617 18.7523C97.0469 18.7939 97.0263 18.8265 97.0082 18.8482L96.24 18.208ZM114.18 15.296V14.296H113.18V15.296H114.18ZM118.66 15.296H119.66V14.296H118.66V15.296ZM106.756 15.296V14.296H105.755V15.296H106.756ZM111.236 15.296H112.236V14.296H111.236V15.296ZM111.396 32.928L110.627 33.5682L110.656 33.603L110.688 33.6351L111.396 32.928ZM113.987 32.928L113.28 32.2209L113.248 32.253L113.219 32.2878L113.987 32.928ZM114.18 15.296V16.296H118.66V15.296V14.296H114.18V15.296ZM118.66 15.296H117.66V32.096H118.66H119.66V15.296H118.66ZM118.66 32.096H117.66C117.66 33.3649 117.36 34.1305 116.939 34.5793C116.528 35.0164 115.843 35.32 114.692 35.32V36.32V37.32C116.185 37.32 117.484 36.9196 118.396 35.9487C119.297 34.9895 119.66 33.6431 119.66 32.096H118.66ZM114.692 36.32V35.32H110.723V36.32V37.32H114.692V36.32ZM110.723 36.32V35.32C109.572 35.32 108.887 35.0164 108.476 34.5793C108.055 34.1305 107.756 33.3649 107.756 32.096H106.756H105.755C105.755 33.6431 106.118 34.9895 107.019 35.9487C107.931 36.9196 109.23 37.32 110.723 37.32V36.32ZM106.756 32.096H107.756V15.296H106.756H105.755V32.096H106.756ZM106.756 15.296V16.296H111.236V15.296V14.296H106.756V15.296ZM111.236 15.296H110.236V32.48H111.236H112.236V15.296H111.236ZM111.236 32.48H110.236C110.236 32.8784 110.367 33.2558 110.627 33.5682L111.396 32.928L112.164 32.2878C112.182 32.3095 112.202 32.3421 112.217 32.3837C112.232 32.4249 112.236 32.4595 112.236 32.48H111.236ZM111.396 32.928L110.688 33.6351C110.991 33.938 111.39 34.12 111.844 34.12V33.12V32.12C111.887 32.12 111.941 32.1288 111.997 32.1529C112.052 32.1764 112.087 32.2052 112.103 32.2209L111.396 32.928ZM111.844 33.12V34.12H113.572V33.12V32.12H111.844V33.12ZM113.572 33.12V34.12C114.031 34.12 114.454 33.9305 114.756 33.5682L113.987 32.928L113.219 32.2878C113.252 32.2483 113.307 32.1998 113.384 32.164C113.461 32.1286 113.529 32.12 113.572 32.12V33.12ZM113.987 32.928L114.695 33.6351C114.998 33.3322 115.18 32.9332 115.18 32.48H114.18H113.18C113.18 32.4369 113.188 32.3821 113.212 32.3261C113.236 32.2712 113.265 32.2366 113.28 32.2209L113.987 32.928ZM114.18 32.48H115.18V15.296H114.18H113.18V32.48H114.18ZM126.205 15.296H127.205V14.296H126.205V15.296ZM126.205 36V37H127.205V36H126.205ZM121.725 36H120.725V37H121.725V36ZM121.725 15.296V14.296H120.725V15.296H121.725ZM126.205 15.296H125.205V36H126.205H127.205V15.296H126.205ZM126.205 36V35H121.725V36V37H126.205V36ZM121.725 36H122.725V15.296H121.725H120.725V36H121.725ZM121.725 15.296V16.296H126.205V15.296V14.296H121.725V15.296ZM128.354 19.104H127.354V20.104H128.354V19.104ZM128.354 15.296V14.296H127.354V15.296H128.354ZM139.554 15.296H140.554V14.296H139.554V15.296ZM139.554 19.104V20.104H140.554V19.104H139.554ZM136.194 19.104V18.104H135.194V19.104H136.194ZM136.194 36V37H137.194V36H136.194ZM131.714 36H130.714V37H131.714V36ZM131.714 19.104H132.714V18.104H131.714V19.104ZM128.354 19.104H129.354V15.296H128.354H127.354V19.104H128.354ZM128.354 15.296V16.296H139.554V15.296V14.296H128.354V15.296ZM139.554 15.296H138.554V19.104H139.554H140.554V15.296H139.554ZM139.554 19.104V18.104H136.194V19.104V20.104H139.554V19.104ZM136.194 19.104H135.194V36H136.194H137.194V19.104H136.194ZM136.194 36V35H131.714V36V37H136.194V36ZM131.714 36H132.714V19.104H131.714H130.714V36H131.714ZM131.714 19.104V18.104H128.354V19.104V20.104H131.714V19.104Z" fill="black" mask="url(#path-4-inside-1_35_156)"/>
<mask id="path-6-inside-2_35_156" fill="white">
<path d="M34.1253 29.2V42.096C34.1253 44.912 32.8026 46.32 30.1573 46.32H26.3493C23.7039 46.32 22.3813 44.912 22.3813 42.096V29.2C22.3813 26.384 23.7039 24.976 26.3493 24.976H30.1573C32.8026 24.976 34.1253 26.384 34.1253 29.2ZM29.7733 42.608V28.656C29.7733 28.4853 29.7093 28.336 29.5813 28.208C29.4746 28.08 29.3359 28.016 29.1653 28.016H27.3413C27.1706 28.016 27.0213 28.08 26.8933 28.208C26.7866 28.336 26.7333 28.4853 26.7333 28.656V42.608C26.7333 42.7787 26.7866 42.928 26.8933 43.056C27.0213 43.184 27.1706 43.248 27.3413 43.248H29.1653C29.3359 43.248 29.4746 43.184 29.5813 43.056C29.7093 42.928 29.7733 42.7787 29.7733 42.608ZM44.6253 25.296H48.6253V46H44.6253V37.84H40.8813C38.2359 37.84 36.9133 36.432 36.9133 33.616V25.296H40.8813V33.424C40.8813 33.5947 40.9346 33.744 41.0413 33.872C41.1693 34 41.3186 34.064 41.4893 34.064H44.0173C44.1879 34.064 44.3266 34 44.4333 33.872C44.5613 33.744 44.6253 33.5947 44.6253 33.424V25.296Z"/>
</mask>
<path d="M34.1253 29.2V42.096C34.1253 44.912 32.8026 46.32 30.1573 46.32H26.3493C23.7039 46.32 22.3813 44.912 22.3813 42.096V29.2C22.3813 26.384 23.7039 24.976 26.3493 24.976H30.1573C32.8026 24.976 34.1253 26.384 34.1253 29.2ZM29.7733 42.608V28.656C29.7733 28.4853 29.7093 28.336 29.5813 28.208C29.4746 28.08 29.3359 28.016 29.1653 28.016H27.3413C27.1706 28.016 27.0213 28.08 26.8933 28.208C26.7866 28.336 26.7333 28.4853 26.7333 28.656V42.608C26.7333 42.7787 26.7866 42.928 26.8933 43.056C27.0213 43.184 27.1706 43.248 27.3413 43.248H29.1653C29.3359 43.248 29.4746 43.184 29.5813 43.056C29.7093 42.928 29.7733 42.7787 29.7733 42.608ZM44.6253 25.296H48.6253V46H44.6253V37.84H40.8813C38.2359 37.84 36.9133 36.432 36.9133 33.616V25.296H40.8813V33.424C40.8813 33.5947 40.9346 33.744 41.0413 33.872C41.1693 34 41.3186 34.064 41.4893 34.064H44.0173C44.1879 34.064 44.3266 34 44.4333 33.872C44.5613 33.744 44.6253 33.5947 44.6253 33.424V25.296Z" fill="white"/>
<path d="M29.5812 28.208L28.813 28.8482L28.8421 28.883L28.8741 28.9151L29.5812 28.208ZM26.8932 28.208L26.1861 27.5009L26.1541 27.533L26.125 27.5678L26.8932 28.208ZM26.8932 43.056L26.125 43.6962L26.1541 43.731L26.1861 43.7631L26.8932 43.056ZM29.5812 43.056L28.8741 42.3489L28.8421 42.381L28.813 42.4158L29.5812 43.056ZM34.1253 29.2H33.1253V42.096H34.1253H35.1253V29.2H34.1253ZM34.1253 42.096H33.1253C33.1253 43.3649 32.826 44.1305 32.4044 44.5793C31.9938 45.0164 31.3092 45.32 30.1572 45.32V46.32V47.32C31.6506 47.32 32.95 46.9196 33.8621 45.9487C34.7631 44.9895 35.1253 43.6431 35.1253 42.096H34.1253ZM30.1572 46.32V45.32H26.3493V46.32V47.32H30.1572V46.32ZM26.3493 46.32V45.32C25.1973 45.32 24.5127 45.0164 24.1021 44.5793C23.6805 44.1305 23.3813 43.3649 23.3813 42.096H22.3813H21.3813C21.3813 43.6431 21.7434 44.9895 22.6444 45.9487C23.5565 46.9196 24.8559 47.32 26.3493 47.32V46.32ZM22.3813 42.096H23.3813V29.2H22.3813H21.3813V42.096H22.3813ZM22.3813 29.2H23.3813C23.3813 27.9311 23.6805 27.1655 24.1021 26.7167C24.5127 26.2796 25.1973 25.976 26.3493 25.976V24.976V23.976C24.8559 23.976 23.5565 24.3764 22.6444 25.3473C21.7434 26.3065 21.3813 27.6529 21.3813 29.2H22.3813ZM26.3493 24.976V25.976H30.1572V24.976V23.976H26.3493V24.976ZM30.1572 24.976V25.976C31.3092 25.976 31.9938 26.2796 32.4044 26.7167C32.826 27.1655 33.1253 27.9311 33.1253 29.2H34.1253H35.1253C35.1253 27.6529 34.7631 26.3065 33.8621 25.3473C32.95 24.3764 31.6506 23.976 30.1572 23.976V24.976ZM29.7733 42.608H30.7733V28.656H29.7733H28.7733V42.608H29.7733ZM29.7733 28.656H30.7733C30.7733 28.2028 30.5913 27.8038 30.2884 27.5009L29.5812 28.208L28.8741 28.9151C28.8584 28.8994 28.8296 28.8648 28.8061 28.8099C28.7821 28.7539 28.7733 28.6991 28.7733 28.656H29.7733ZM29.5812 28.208L30.3495 27.5678C30.0475 27.2055 29.6244 27.016 29.1653 27.016V28.016V29.016C29.123 29.016 29.0549 29.0074 28.9782 28.972C28.9008 28.9362 28.846 28.8877 28.813 28.8482L29.5812 28.208ZM29.1653 28.016V27.016H27.3413V28.016V29.016H29.1653V28.016ZM27.3413 28.016V27.016C26.888 27.016 26.4891 27.198 26.1861 27.5009L26.8932 28.208L27.6004 28.9151C27.5847 28.9308 27.5501 28.9596 27.4952 28.9831C27.4391 29.0072 27.3844 29.016 27.3413 29.016V28.016ZM26.8932 28.208L26.125 27.5678C25.8647 27.8802 25.7332 28.2576 25.7332 28.656H26.7332H27.7332C27.7332 28.6765 27.7297 28.7111 27.715 28.7523C27.7001 28.7939 27.6795 28.8265 27.6615 28.8482L26.8932 28.208ZM26.7332 28.656H25.7332V42.608H26.7332H27.7332V28.656H26.7332ZM26.7332 42.608H25.7332C25.7332 43.0064 25.8647 43.3838 26.125 43.6962L26.8932 43.056L27.6615 42.4158C27.6795 42.4375 27.7001 42.4701 27.715 42.5117C27.7297 42.5529 27.7332 42.5875 27.7332 42.608H26.7332ZM26.8932 43.056L26.1861 43.7631C26.4891 44.066 26.888 44.248 27.3413 44.248V43.248V42.248C27.3844 42.248 27.4391 42.2568 27.4952 42.2809C27.5501 42.3044 27.5847 42.3332 27.6004 42.3489L26.8932 43.056ZM27.3413 43.248V44.248H29.1653V43.248V42.248H27.3413V43.248ZM29.1653 43.248V44.248C29.6244 44.248 30.0475 44.0585 30.3495 43.6962L29.5812 43.056L28.813 42.4158C28.846 42.3763 28.9008 42.3278 28.9782 42.292C29.0549 42.2566 29.123 42.248 29.1653 42.248V43.248ZM29.5812 43.056L30.2884 43.7631C30.5913 43.4602 30.7733 43.0612 30.7733 42.608H29.7733H28.7733C28.7733 42.5649 28.7821 42.5101 28.8061 42.4541C28.8296 42.3992 28.8584 42.3646 28.8741 42.3489L29.5812 43.056ZM44.6253 25.296V24.296H43.6253V25.296H44.6253ZM48.6253 25.296H49.6253V24.296H48.6253V25.296ZM48.6253 46V47H49.6253V46H48.6253ZM44.6253 46H43.6253V47H44.6253V46ZM44.6253 37.84H45.6253V36.84H44.6253V37.84ZM36.9132 25.296V24.296H35.9132V25.296H36.9132ZM40.8812 25.296H41.8812V24.296H40.8812V25.296ZM41.0413 33.872L40.273 34.5122L40.3021 34.547L40.3341 34.5791L41.0413 33.872ZM44.4333 33.872L43.7261 33.1649L43.6941 33.197L43.665 33.2318L44.4333 33.872ZM44.6253 25.296V26.296H48.6253V25.296V24.296H44.6253V25.296ZM48.6253 25.296H47.6253V46H48.6253H49.6253V25.296H48.6253ZM48.6253 46V45H44.6253V46V47H48.6253V46ZM44.6253 46H45.6253V37.84H44.6253H43.6253V46H44.6253ZM44.6253 37.84V36.84H40.8812V37.84V38.84H44.6253V37.84ZM40.8812 37.84V36.84C39.7293 36.84 39.0447 36.5364 38.6341 36.0993C38.2125 35.6505 37.9132 34.8849 37.9132 33.616H36.9132H35.9132C35.9132 35.1631 36.2754 36.5095 37.1764 37.4687C38.0885 38.4396 39.3879 38.84 40.8812 38.84V37.84ZM36.9132 33.616H37.9132V25.296H36.9132H35.9132V33.616H36.9132ZM36.9132 25.296V26.296H40.8812V25.296V24.296H36.9132V25.296ZM40.8812 25.296H39.8812V33.424H40.8812H41.8812V25.296H40.8812ZM40.8812 33.424H39.8812C39.8812 33.8224 40.0127 34.1998 40.273 34.5122L41.0413 33.872L41.8095 33.2318C41.8275 33.2535 41.8481 33.2861 41.863 33.3277C41.8777 33.3689 41.8812 33.4035 41.8812 33.424H40.8812ZM41.0413 33.872L40.3341 34.5791C40.6371 34.882 41.036 35.064 41.4893 35.064V34.064V33.064C41.5324 33.064 41.5871 33.0728 41.6432 33.0969C41.6981 33.1204 41.7327 33.1492 41.7484 33.1649L41.0413 33.872ZM41.4893 34.064V35.064H44.0173V34.064V33.064H41.4893V34.064ZM44.0173 34.064V35.064C44.4764 35.064 44.8995 34.8745 45.2015 34.5122L44.4333 33.872L43.665 33.2318C43.698 33.1923 43.7528 33.1438 43.8302 33.108C43.9069 33.0726 43.975 33.064 44.0173 33.064V34.064ZM44.4333 33.872L45.1404 34.5791C45.4433 34.2762 45.6253 33.8772 45.6253 33.424H44.6253H43.6253C43.6253 33.3809 43.6341 33.3261 43.6581 33.2701C43.6816 33.2152 43.7104 33.1806 43.7261 33.1649L44.4333 33.872ZM44.6253 33.424H45.6253V25.296H44.6253H43.6253V33.424H44.6253Z" fill="black" mask="url(#path-6-inside-2_35_156)"/>
<mask id="path-8-inside-3_35_156" fill="white">
<path d="M90.234 53.496V51.354H96.534V53.496H94.644V63H92.124V53.496H90.234ZM100.205 60.912H102.995V63H97.6852V51.354H102.995V53.406H100.205V56.142H102.815V58.122H100.205V60.912ZM106.973 58.23V63H104.453V51.354H108.935C110.423 51.354 111.167 52.146 111.167 53.73V55.08C111.167 56.04 110.825 56.652 110.141 56.916C110.741 57.132 111.041 57.624 111.041 58.392V63H108.521V58.59C108.521 58.35 108.407 58.23 108.179 58.23H106.973ZM106.973 53.064V56.466H108.305C108.401 56.466 108.479 56.43 108.539 56.358C108.611 56.286 108.647 56.202 108.647 56.106V53.424C108.647 53.328 108.611 53.244 108.539 53.172C108.479 53.1 108.401 53.064 108.305 53.064H106.973ZM115.287 63H112.767V53.55C112.767 51.966 113.511 51.174 114.999 51.174H116.331C117.207 51.174 117.831 51.462 118.203 52.038C118.551 51.462 119.175 51.174 120.075 51.174H121.407C122.895 51.174 123.639 51.966 123.639 53.55V63H121.119V53.334C121.119 53.238 121.083 53.154 121.011 53.082C120.951 53.01 120.873 52.974 120.777 52.974H119.805C119.709 52.974 119.625 53.01 119.553 53.082C119.493 53.154 119.463 53.238 119.463 53.334V63H116.943V53.334C116.943 53.238 116.907 53.154 116.835 53.082C116.775 53.01 116.697 52.974 116.601 52.974H115.629C115.533 52.974 115.449 53.01 115.377 53.082C115.317 53.154 115.287 53.238 115.287 53.334V63ZM127.891 51.354V63H125.371V51.354H127.891ZM136.443 63H133.923V53.334C133.923 53.238 133.887 53.154 133.815 53.082C133.755 53.01 133.677 52.974 133.581 52.974H132.609C132.513 52.974 132.429 53.01 132.357 53.082C132.297 53.154 132.267 53.238 132.267 53.334V63H129.747V53.55C129.747 51.966 130.491 51.174 131.979 51.174H134.211C135.699 51.174 136.443 51.966 136.443 53.55V63ZM142.758 51.174C144.246 51.174 144.99 51.966 144.99 53.55V63H142.47V59.094H140.652V63H138.132V53.55C138.132 51.966 138.876 51.174 140.364 51.174H142.758ZM140.652 57.15H142.47V53.244C142.47 53.148 142.434 53.064 142.362 52.992C142.302 52.92 142.224 52.884 142.128 52.884H140.994C140.898 52.884 140.814 52.92 140.742 52.992C140.682 53.064 140.652 53.148 140.652 53.244V57.15ZM146.203 53.496V51.354H152.503V53.496H150.613V63H148.093V53.496H146.203ZM156.174 60.912H158.964V63H153.654V51.354H158.964V53.406H156.174V56.142H158.784V58.122H156.174V60.912ZM170.522 54.414H168.128V53.496C168.128 53.4 168.092 53.316 168.02 53.244C167.96 53.172 167.882 53.136 167.786 53.136H166.796C166.7 53.136 166.616 53.172 166.544 53.244C166.484 53.316 166.454 53.4 166.454 53.496V55.566C166.454 55.662 166.484 55.746 166.544 55.818C166.616 55.89 166.7 55.926 166.796 55.926H168.416C169.904 55.95 170.648 56.742 170.648 58.302V60.804C170.648 62.388 169.904 63.18 168.416 63.18H166.292C164.804 63.18 164.06 62.388 164.06 60.804V59.598H166.454V60.894C166.454 60.99 166.484 61.074 166.544 61.146C166.616 61.218 166.7 61.254 166.796 61.254H167.912C168.008 61.254 168.086 61.218 168.146 61.146C168.218 61.074 168.254 60.99 168.254 60.894V58.608C168.254 58.512 168.218 58.428 168.146 58.356C168.086 58.284 168.008 58.248 167.912 58.248H166.292C164.804 58.248 164.06 57.456 164.06 55.872V53.55C164.06 51.966 164.804 51.174 166.292 51.174H168.29C169.778 51.174 170.522 51.966 170.522 53.55V54.414ZM174.824 60.912H177.614V63H172.304V51.354H177.614V53.406H174.824V56.142H177.434V58.122H174.824V60.912ZM185.534 54.414H183.14V53.496C183.14 53.4 183.104 53.316 183.032 53.244C182.972 53.172 182.894 53.136 182.798 53.136H181.808C181.712 53.136 181.628 53.172 181.556 53.244C181.496 53.316 181.466 53.4 181.466 53.496V55.566C181.466 55.662 181.496 55.746 181.556 55.818C181.628 55.89 181.712 55.926 181.808 55.926H183.428C184.916 55.95 185.66 56.742 185.66 58.302V60.804C185.66 62.388 184.916 63.18 183.428 63.18H181.304C179.816 63.18 179.072 62.388 179.072 60.804V59.598H181.466V60.894C181.466 60.99 181.496 61.074 181.556 61.146C181.628 61.218 181.712 61.254 181.808 61.254H182.924C183.02 61.254 183.098 61.218 183.158 61.146C183.23 61.074 183.266 60.99 183.266 60.894V58.608C183.266 58.512 183.23 58.428 183.158 58.356C183.098 58.284 183.02 58.248 182.924 58.248H181.304C179.816 58.248 179.072 57.456 179.072 55.872V53.55C179.072 51.966 179.816 51.174 181.304 51.174H183.302C184.79 51.174 185.534 51.966 185.534 53.55V54.414ZM193.778 54.414H191.384V53.496C191.384 53.4 191.348 53.316 191.276 53.244C191.216 53.172 191.138 53.136 191.042 53.136H190.052C189.956 53.136 189.872 53.172 189.8 53.244C189.74 53.316 189.71 53.4 189.71 53.496V55.566C189.71 55.662 189.74 55.746 189.8 55.818C189.872 55.89 189.956 55.926 190.052 55.926H191.672C193.16 55.95 193.904 56.742 193.904 58.302V60.804C193.904 62.388 193.16 63.18 191.672 63.18H189.548C188.06 63.18 187.316 62.388 187.316 60.804V59.598H189.71V60.894C189.71 60.99 189.74 61.074 189.8 61.146C189.872 61.218 189.956 61.254 190.052 61.254H191.168C191.264 61.254 191.342 61.218 191.402 61.146C191.474 61.074 191.51 60.99 191.51 60.894V58.608C191.51 58.512 191.474 58.428 191.402 58.356C191.342 58.284 191.264 58.248 191.168 58.248H189.548C188.06 58.248 187.316 57.456 187.316 55.872V53.55C187.316 51.966 188.06 51.174 189.548 51.174H191.546C193.034 51.174 193.778 51.966 193.778 53.55V54.414ZM198.08 51.354V63H195.56V51.354H198.08ZM206.813 53.55V60.804C206.813 62.388 206.069 63.18 204.581 63.18H202.187C200.699 63.18 199.955 62.388 199.955 60.804V53.55C199.955 51.966 200.699 51.174 202.187 51.174H204.581C206.069 51.174 206.813 51.966 206.813 53.55ZM204.293 61.092V53.244C204.293 53.148 204.257 53.064 204.185 52.992C204.125 52.92 204.047 52.884 203.951 52.884H202.817C202.721 52.884 202.637 52.92 202.565 52.992C202.505 53.064 202.475 53.148 202.475 53.244V61.092C202.475 61.188 202.505 61.272 202.565 61.344C202.637 61.416 202.721 61.452 202.817 61.452H203.951C204.047 61.452 204.125 61.416 204.185 61.344C204.257 61.272 204.293 61.188 204.293 61.092ZM215.351 63H212.831V53.334C212.831 53.238 212.795 53.154 212.723 53.082C212.663 53.01 212.585 52.974 212.489 52.974H211.517C211.421 52.974 211.337 53.01 211.265 53.082C211.205 53.154 211.175 53.238 211.175 53.334V63H208.655V53.55C208.655 51.966 209.399 51.174 210.887 51.174H213.119C214.607 51.174 215.351 51.966 215.351 53.55V63Z"/>
</mask>
<path d="M90.234 53.496V51.354H96.534V53.496H94.644V63H92.124V53.496H90.234ZM100.205 60.912H102.995V63H97.6852V51.354H102.995V53.406H100.205V56.142H102.815V58.122H100.205V60.912ZM106.973 58.23V63H104.453V51.354H108.935C110.423 51.354 111.167 52.146 111.167 53.73V55.08C111.167 56.04 110.825 56.652 110.141 56.916C110.741 57.132 111.041 57.624 111.041 58.392V63H108.521V58.59C108.521 58.35 108.407 58.23 108.179 58.23H106.973ZM106.973 53.064V56.466H108.305C108.401 56.466 108.479 56.43 108.539 56.358C108.611 56.286 108.647 56.202 108.647 56.106V53.424C108.647 53.328 108.611 53.244 108.539 53.172C108.479 53.1 108.401 53.064 108.305 53.064H106.973ZM115.287 63H112.767V53.55C112.767 51.966 113.511 51.174 114.999 51.174H116.331C117.207 51.174 117.831 51.462 118.203 52.038C118.551 51.462 119.175 51.174 120.075 51.174H121.407C122.895 51.174 123.639 51.966 123.639 53.55V63H121.119V53.334C121.119 53.238 121.083 53.154 121.011 53.082C120.951 53.01 120.873 52.974 120.777 52.974H119.805C119.709 52.974 119.625 53.01 119.553 53.082C119.493 53.154 119.463 53.238 119.463 53.334V63H116.943V53.334C116.943 53.238 116.907 53.154 116.835 53.082C116.775 53.01 116.697 52.974 116.601 52.974H115.629C115.533 52.974 115.449 53.01 115.377 53.082C115.317 53.154 115.287 53.238 115.287 53.334V63ZM127.891 51.354V63H125.371V51.354H127.891ZM136.443 63H133.923V53.334C133.923 53.238 133.887 53.154 133.815 53.082C133.755 53.01 133.677 52.974 133.581 52.974H132.609C132.513 52.974 132.429 53.01 132.357 53.082C132.297 53.154 132.267 53.238 132.267 53.334V63H129.747V53.55C129.747 51.966 130.491 51.174 131.979 51.174H134.211C135.699 51.174 136.443 51.966 136.443 53.55V63ZM142.758 51.174C144.246 51.174 144.99 51.966 144.99 53.55V63H142.47V59.094H140.652V63H138.132V53.55C138.132 51.966 138.876 51.174 140.364 51.174H142.758ZM140.652 57.15H142.47V53.244C142.47 53.148 142.434 53.064 142.362 52.992C142.302 52.92 142.224 52.884 142.128 52.884H140.994C140.898 52.884 140.814 52.92 140.742 52.992C140.682 53.064 140.652 53.148 140.652 53.244V57.15ZM146.203 53.496V51.354H152.503V53.496H150.613V63H148.093V53.496H146.203ZM156.174 60.912H158.964V63H153.654V51.354H158.964V53.406H156.174V56.142H158.784V58.122H156.174V60.912ZM170.522 54.414H168.128V53.496C168.128 53.4 168.092 53.316 168.02 53.244C167.96 53.172 167.882 53.136 167.786 53.136H166.796C166.7 53.136 166.616 53.172 166.544 53.244C166.484 53.316 166.454 53.4 166.454 53.496V55.566C166.454 55.662 166.484 55.746 166.544 55.818C166.616 55.89 166.7 55.926 166.796 55.926H168.416C169.904 55.95 170.648 56.742 170.648 58.302V60.804C170.648 62.388 169.904 63.18 168.416 63.18H166.292C164.804 63.18 164.06 62.388 164.06 60.804V59.598H166.454V60.894C166.454 60.99 166.484 61.074 166.544 61.146C166.616 61.218 166.7 61.254 166.796 61.254H167.912C168.008 61.254 168.086 61.218 168.146 61.146C168.218 61.074 168.254 60.99 168.254 60.894V58.608C168.254 58.512 168.218 58.428 168.146 58.356C168.086 58.284 168.008 58.248 167.912 58.248H166.292C164.804 58.248 164.06 57.456 164.06 55.872V53.55C164.06 51.966 164.804 51.174 166.292 51.174H168.29C169.778 51.174 170.522 51.966 170.522 53.55V54.414ZM174.824 60.912H177.614V63H172.304V51.354H177.614V53.406H174.824V56.142H177.434V58.122H174.824V60.912ZM185.534 54.414H183.14V53.496C183.14 53.4 183.104 53.316 183.032 53.244C182.972 53.172 182.894 53.136 182.798 53.136H181.808C181.712 53.136 181.628 53.172 181.556 53.244C181.496 53.316 181.466 53.4 181.466 53.496V55.566C181.466 55.662 181.496 55.746 181.556 55.818C181.628 55.89 181.712 55.926 181.808 55.926H183.428C184.916 55.95 185.66 56.742 185.66 58.302V60.804C185.66 62.388 184.916 63.18 183.428 63.18H181.304C179.816 63.18 179.072 62.388 179.072 60.804V59.598H181.466V60.894C181.466 60.99 181.496 61.074 181.556 61.146C181.628 61.218 181.712 61.254 181.808 61.254H182.924C183.02 61.254 183.098 61.218 183.158 61.146C183.23 61.074 183.266 60.99 183.266 60.894V58.608C183.266 58.512 183.23 58.428 183.158 58.356C183.098 58.284 183.02 58.248 182.924 58.248H181.304C179.816 58.248 179.072 57.456 179.072 55.872V53.55C179.072 51.966 179.816 51.174 181.304 51.174H183.302C184.79 51.174 185.534 51.966 185.534 53.55V54.414ZM193.778 54.414H191.384V53.496C191.384 53.4 191.348 53.316 191.276 53.244C191.216 53.172 191.138 53.136 191.042 53.136H190.052C189.956 53.136 189.872 53.172 189.8 53.244C189.74 53.316 189.71 53.4 189.71 53.496V55.566C189.71 55.662 189.74 55.746 189.8 55.818C189.872 55.89 189.956 55.926 190.052 55.926H191.672C193.16 55.95 193.904 56.742 193.904 58.302V60.804C193.904 62.388 193.16 63.18 191.672 63.18H189.548C188.06 63.18 187.316 62.388 187.316 60.804V59.598H189.71V60.894C189.71 60.99 189.74 61.074 189.8 61.146C189.872 61.218 189.956 61.254 190.052 61.254H191.168C191.264 61.254 191.342 61.218 191.402 61.146C191.474 61.074 191.51 60.99 191.51 60.894V58.608C191.51 58.512 191.474 58.428 191.402 58.356C191.342 58.284 191.264 58.248 191.168 58.248H189.548C188.06 58.248 187.316 57.456 187.316 55.872V53.55C187.316 51.966 188.06 51.174 189.548 51.174H191.546C193.034 51.174 193.778 51.966 193.778 53.55V54.414ZM198.08 51.354V63H195.56V51.354H198.08ZM206.813 53.55V60.804C206.813 62.388 206.069 63.18 204.581 63.18H202.187C200.699 63.18 199.955 62.388 199.955 60.804V53.55C199.955 51.966 200.699 51.174 202.187 51.174H204.581C206.069 51.174 206.813 51.966 206.813 53.55ZM204.293 61.092V53.244C204.293 53.148 204.257 53.064 204.185 52.992C204.125 52.92 204.047 52.884 203.951 52.884H202.817C202.721 52.884 202.637 52.92 202.565 52.992C202.505 53.064 202.475 53.148 202.475 53.244V61.092C202.475 61.188 202.505 61.272 202.565 61.344C202.637 61.416 202.721 61.452 202.817 61.452H203.951C204.047 61.452 204.125 61.416 204.185 61.344C204.257 61.272 204.293 61.188 204.293 61.092ZM215.351 63H212.831V53.334C212.831 53.238 212.795 53.154 212.723 53.082C212.663 53.01 212.585 52.974 212.489 52.974H211.517C211.421 52.974 211.337 53.01 211.265 53.082C211.205 53.154 211.175 53.238 211.175 53.334V63H208.655V53.55C208.655 51.966 209.399 51.174 210.887 51.174H213.119C214.607 51.174 215.351 51.966 215.351 53.55V63Z" fill="black"/>
<path d="M90.234 53.496H89.234V54.496H90.234V53.496ZM90.234 51.354V50.354H89.234V51.354H90.234ZM96.534 51.354H97.534V50.354H96.534V51.354ZM96.534 53.496V54.496H97.534V53.496H96.534ZM94.644 53.496V52.496H93.644V53.496H94.644ZM94.644 63V64H95.644V63H94.644ZM92.124 63H91.124V64H92.124V63ZM92.124 53.496H93.124V52.496H92.124V53.496ZM90.234 53.496H91.234V51.354H90.234H89.234V53.496H90.234ZM90.234 51.354V52.354H96.534V51.354V50.354H90.234V51.354ZM96.534 51.354H95.534V53.496H96.534H97.534V51.354H96.534ZM96.534 53.496V52.496H94.644V53.496V54.496H96.534V53.496ZM94.644 53.496H93.644V63H94.644H95.644V53.496H94.644ZM94.644 63V62H92.124V63V64H94.644V63ZM92.124 63H93.124V53.496H92.124H91.124V63H92.124ZM92.124 53.496V52.496H90.234V53.496V54.496H92.124V53.496ZM100.205 60.912H99.2052V61.912H100.205V60.912ZM102.995 60.912H103.995V59.912H102.995V60.912ZM102.995 63V64H103.995V63H102.995ZM97.6852 63H96.6852V64H97.6852V63ZM97.6852 51.354V50.354H96.6852V51.354H97.6852ZM102.995 51.354H103.995V50.354H102.995V51.354ZM102.995 53.406V54.406H103.995V53.406H102.995ZM100.205 53.406V52.406H99.2052V53.406H100.205ZM100.205 56.142H99.2052V57.142H100.205V56.142ZM102.815 56.142H103.815V55.142H102.815V56.142ZM102.815 58.122V59.122H103.815V58.122H102.815ZM100.205 58.122V57.122H99.2052V58.122H100.205ZM100.205 60.912V61.912H102.995V60.912V59.912H100.205V60.912ZM102.995 60.912H101.995V63H102.995H103.995V60.912H102.995ZM102.995 63V62H97.6852V63V64H102.995V63ZM97.6852 63H98.6852V51.354H97.6852H96.6852V63H97.6852ZM97.6852 51.354V52.354H102.995V51.354V50.354H97.6852V51.354ZM102.995 51.354H101.995V53.406H102.995H103.995V51.354H102.995ZM102.995 53.406V52.406H100.205V53.406V54.406H102.995V53.406ZM100.205 53.406H99.2052V56.142H100.205H101.205V53.406H100.205ZM100.205 56.142V57.142H102.815V56.142V55.142H100.205V56.142ZM102.815 56.142H101.815V58.122H102.815H103.815V56.142H102.815ZM102.815 58.122V57.122H100.205V58.122V59.122H102.815V58.122ZM100.205 58.122H99.2052V60.912H100.205H101.205V58.122H100.205ZM106.973 58.23V57.23H105.973V58.23H106.973ZM106.973 63V64H107.973V63H106.973ZM104.453 63H103.453V64H104.453V63ZM104.453 51.354V50.354H103.453V51.354H104.453ZM110.141 56.916L109.781 55.9831L107.279 56.9486L109.802 57.8569L110.141 56.916ZM111.041 63V64H112.041V63H111.041ZM108.521 63H107.521V64H108.521V63ZM106.973 53.064V52.064H105.973V53.064H106.973ZM106.973 56.466H105.973V57.466H106.973V56.466ZM108.539 56.358L107.832 55.6509L107.8 55.683L107.771 55.7178L108.539 56.358ZM108.539 53.172L107.771 53.8122L107.8 53.847L107.832 53.8791L108.539 53.172ZM106.973 58.23H105.973V63H106.973H107.973V58.23H106.973ZM106.973 63V62H104.453V63V64H106.973V63ZM104.453 63H105.453V51.354H104.453H103.453V63H104.453ZM104.453 51.354V52.354H108.935V51.354V50.354H104.453V51.354ZM108.935 51.354V52.354C109.508 52.354 109.759 52.5036 109.88 52.6327C110.012 52.7735 110.167 53.0771 110.167 53.73H111.167H112.167C112.167 52.7989 111.949 51.9145 111.338 51.2633C110.715 50.6004 109.849 50.354 108.935 50.354V51.354ZM111.167 53.73H110.167V55.08H111.167H112.167V53.73H111.167ZM111.167 55.08H110.167C110.167 55.4495 110.1 55.6593 110.037 55.7712C109.986 55.8636 109.916 55.9309 109.781 55.9831L110.141 56.916L110.501 57.8489C111.05 57.6371 111.493 57.2664 111.783 56.7468C112.063 56.2467 112.167 55.6705 112.167 55.08H111.167ZM110.141 56.916L109.802 57.8569C109.912 57.8964 109.943 57.9373 109.962 57.9676C109.99 58.0128 110.041 58.1323 110.041 58.392H111.041H112.041C112.041 57.8837 111.942 57.3732 111.67 56.9264C111.388 56.4647 110.97 56.1516 110.479 55.9751L110.141 56.916ZM111.041 58.392H110.041V63H111.041H112.041V58.392H111.041ZM111.041 63V62H108.521V63V64H111.041V63ZM108.521 63H109.521V58.59H108.521H107.521V63H108.521ZM108.521 58.59H109.521C109.521 58.3283 109.459 57.9462 109.16 57.6313C108.852 57.3067 108.46 57.23 108.179 57.23V58.23V59.23C108.125 59.23 107.905 59.2134 107.71 59.0087C107.525 58.8138 107.521 58.6117 107.521 58.59H108.521ZM108.179 58.23V57.23H106.973V58.23V59.23H108.179V58.23ZM106.973 53.064H105.973V56.466H106.973H107.973V53.064H106.973ZM106.973 56.466V57.466H108.305V56.466V55.466H106.973V56.466ZM108.305 56.466V57.466C108.689 57.466 109.052 57.3045 109.307 56.9982L108.539 56.358L107.771 55.7178C107.827 55.6503 107.908 55.5808 108.016 55.531C108.123 55.4816 108.225 55.466 108.305 55.466V56.466ZM108.539 56.358L109.246 57.0651C109.493 56.8182 109.647 56.4846 109.647 56.106H108.647H107.647C107.647 56.0255 107.663 55.9358 107.701 55.8471C107.738 55.7595 107.788 55.6946 107.832 55.6509L108.539 56.358ZM108.647 56.106H109.647V53.424H108.647H107.647V56.106H108.647ZM108.647 53.424H109.647C109.647 53.0454 109.493 52.7118 109.246 52.4649L108.539 53.172L107.832 53.8791C107.788 53.8354 107.738 53.7705 107.701 53.6829C107.663 53.5942 107.647 53.5045 107.647 53.424H108.647ZM108.539 53.172L109.307 52.5318C109.052 52.2255 108.689 52.064 108.305 52.064V53.064V54.064C108.225 54.064 108.123 54.0484 108.016 53.999C107.908 53.9492 107.827 53.8797 107.771 53.8122L108.539 53.172ZM108.305 53.064V52.064H106.973V53.064V54.064H108.305V53.064ZM115.287 63V64H116.287V63H115.287ZM112.767 63H111.767V64H112.767V63ZM118.203 52.038L117.363 52.5805L118.231 53.925L119.059 52.5551L118.203 52.038ZM123.639 63V64H124.639V63H123.639ZM121.119 63H120.119V64H121.119V63ZM121.011 53.082L120.243 53.7222L120.272 53.757L120.304 53.7891L121.011 53.082ZM119.553 53.082L118.846 52.3749L118.814 52.407L118.785 52.4418L119.553 53.082ZM119.463 63V64H120.463V63H119.463ZM116.943 63H115.943V64H116.943V63ZM116.835 53.082L116.067 53.7222L116.096 53.757L116.128 53.7891L116.835 53.082ZM115.377 53.082L114.67 52.3749L114.638 52.407L114.609 52.4418L115.377 53.082ZM115.287 63V62H112.767V63V64H115.287V63ZM112.767 63H113.767V53.55H112.767H111.767V63H112.767ZM112.767 53.55H113.767C113.767 52.8971 113.921 52.5935 114.054 52.4527C114.175 52.3236 114.425 52.174 114.999 52.174V51.174V50.174C114.084 50.174 113.219 50.4204 112.596 51.0833C111.984 51.7345 111.767 52.6189 111.767 53.55H112.767ZM114.999 51.174V52.174H116.331V51.174V50.174H114.999V51.174ZM116.331 51.174V52.174C116.974 52.174 117.226 52.3691 117.363 52.5805L118.203 52.038L119.043 51.4955C118.435 50.5549 117.44 50.174 116.331 50.174V51.174ZM118.203 52.038L119.059 52.5551C119.166 52.3775 119.392 52.174 120.075 52.174V51.174V50.174C118.958 50.174 117.936 50.5465 117.347 51.5209L118.203 52.038ZM120.075 51.174V52.174H121.407V51.174V50.174H120.075V51.174ZM121.407 51.174V52.174C121.98 52.174 122.231 52.3236 122.352 52.4527C122.484 52.5935 122.639 52.8971 122.639 53.55H123.639H124.639C124.639 52.6189 124.421 51.7345 123.81 51.0833C123.187 50.4204 122.321 50.174 121.407 50.174V51.174ZM123.639 53.55H122.639V63H123.639H124.639V53.55H123.639ZM123.639 63V62H121.119V63V64H123.639V63ZM121.119 63H122.119V53.334H121.119H120.119V63H121.119ZM121.119 53.334H122.119C122.119 52.9554 121.965 52.6218 121.718 52.3749L121.011 53.082L120.304 53.7891C120.26 53.7454 120.21 53.6805 120.173 53.5929C120.135 53.5042 120.119 53.4145 120.119 53.334H121.119ZM121.011 53.082L121.779 52.4418C121.524 52.1355 121.161 51.974 120.777 51.974V52.974V53.974C120.697 53.974 120.595 53.9584 120.488 53.909C120.38 53.8592 120.299 53.7897 120.243 53.7222L121.011 53.082ZM120.777 52.974V51.974H119.805V52.974V53.974H120.777V52.974ZM119.805 52.974V51.974C119.426 51.974 119.093 52.128 118.846 52.3749L119.553 53.082L120.26 53.7891C120.216 53.8328 120.151 53.8826 120.064 53.9201C119.975 53.9582 119.885 53.974 119.805 53.974V52.974ZM119.553 53.082L118.785 52.4418C118.571 52.6982 118.463 53.0103 118.463 53.334H119.463H120.463C120.463 53.3919 120.453 53.4614 120.427 53.5353C120.4 53.6096 120.362 53.6725 120.321 53.7222L119.553 53.082ZM119.463 53.334H118.463V63H119.463H120.463V53.334H119.463ZM119.463 63V62H116.943V63V64H119.463V63ZM116.943 63H117.943V53.334H116.943H115.943V63H116.943ZM116.943 53.334H117.943C117.943 52.9554 117.789 52.6218 117.542 52.3749L116.835 53.082L116.128 53.7891C116.084 53.7454 116.034 53.6805 115.997 53.5929C115.959 53.5042 115.943 53.4145 115.943 53.334H116.943ZM116.835 53.082L117.603 52.4418C117.348 52.1355 116.985 51.974 116.601 51.974V52.974V53.974C116.521 53.974 116.419 53.9584 116.312 53.909C116.204 53.8592 116.123 53.7897 116.067 53.7222L116.835 53.082ZM116.601 52.974V51.974H115.629V52.974V53.974H116.601V52.974ZM115.629 52.974V51.974C115.25 51.974 114.917 52.128 114.67 52.3749L115.377 53.082L116.084 53.7891C116.04 53.8328 115.975 53.8826 115.888 53.9201C115.799 53.9582 115.709 53.974 115.629 53.974V52.974ZM115.377 53.082L114.609 52.4418C114.395 52.6982 114.287 53.0103 114.287 53.334H115.287H116.287C116.287 53.3919 116.277 53.4614 116.251 53.5353C116.224 53.6096 116.186 53.6725 116.145 53.7222L115.377 53.082ZM115.287 53.334H114.287V63H115.287H116.287V53.334H115.287ZM127.891 51.354H128.891V50.354H127.891V51.354ZM127.891 63V64H128.891V63H127.891ZM125.371 63H124.371V64H125.371V63ZM125.371 51.354V50.354H124.371V51.354H125.371ZM127.891 51.354H126.891V63H127.891H128.891V51.354H127.891ZM127.891 63V62H125.371V63V64H127.891V63ZM125.371 63H126.371V51.354H125.371H124.371V63H125.371ZM125.371 51.354V52.354H127.891V51.354V50.354H125.371V51.354ZM136.443 63V64H137.443V63H136.443ZM133.923 63H132.923V64H133.923V63ZM133.815 53.082L133.047 53.7222L133.076 53.757L133.108 53.7891L133.815 53.082ZM132.357 53.082L131.65 52.3749L131.618 52.407L131.589 52.4418L132.357 53.082ZM132.267 63V64H133.267V63H132.267ZM129.747 63H128.747V64H129.747V63ZM136.443 63V62H133.923V63V64H136.443V63ZM133.923 63H134.923V53.334H133.923H132.923V63H133.923ZM133.923 53.334H134.923C134.923 52.9554 134.769 52.6218 134.522 52.3749L133.815 53.082L133.108 53.7891C133.064 53.7454 133.015 53.6805 132.977 53.5929C132.939 53.5042 132.923 53.4145 132.923 53.334H133.923ZM133.815 53.082L134.583 52.4418C134.328 52.1355 133.966 51.974 133.581 51.974V52.974V53.974C133.502 53.974 133.4 53.9584 133.293 53.909C133.185 53.8592 133.103 53.7897 133.047 53.7222L133.815 53.082ZM133.581 52.974V51.974H132.609V52.974V53.974H133.581V52.974ZM132.609 52.974V51.974C132.231 51.974 131.897 52.128 131.65 52.3749L132.357 53.082L133.064 53.7891C133.021 53.8328 132.956 53.8826 132.868 53.9201C132.779 53.9582 132.69 53.974 132.609 53.974V52.974ZM132.357 53.082L131.589 52.4418C131.375 52.6982 131.267 53.0103 131.267 53.334H132.267H133.267C133.267 53.3919 133.258 53.4614 133.231 53.5353C133.205 53.6096 133.167 53.6725 133.125 53.7222L132.357 53.082ZM132.267 53.334H131.267V63H132.267H133.267V53.334H132.267ZM132.267 63V62H129.747V63V64H132.267V63ZM129.747 63H130.747V53.55H129.747H128.747V63H129.747ZM129.747 53.55H130.747C130.747 52.8971 130.902 52.5935 131.034 52.4527C131.155 52.3236 131.406 52.174 131.979 52.174V51.174V50.174C131.065 50.174 130.199 50.4204 129.576 51.0833C128.965 51.7345 128.747 52.6189 128.747 53.55H129.747ZM131.979 51.174V52.174H134.211V51.174V50.174H131.979V51.174ZM134.211 51.174V52.174C134.785 52.174 135.035 52.3236 135.156 52.4527C135.289 52.5935 135.443 52.8971 135.443 53.55H136.443H137.443C137.443 52.6189 137.226 51.7345 136.614 51.0833C135.991 50.4204 135.126 50.174 134.211 50.174V51.174ZM136.443 53.55H135.443V63H136.443H137.443V53.55H136.443ZM144.99 63V64H145.99V63H144.99ZM142.47 63H141.47V64H142.47V63ZM142.47 59.094H143.47V58.094H142.47V59.094ZM140.652 59.094V58.094H139.652V59.094H140.652ZM140.652 63V64H141.652V63H140.652ZM138.132 63H137.132V64H138.132V63ZM140.652 57.15H139.652V58.15H140.652V57.15ZM142.47 57.15V58.15H143.47V57.15H142.47ZM142.362 52.992L141.594 53.6322L141.623 53.667L141.655 53.6991L142.362 52.992ZM140.742 52.992L140.035 52.2849L140.003 52.317L139.974 52.3518L140.742 52.992ZM142.758 51.174V52.174C143.332 52.174 143.582 52.3236 143.704 52.4527C143.836 52.5935 143.99 52.8971 143.99 53.55H144.99H145.99C145.99 52.6189 145.773 51.7345 145.161 51.0833C144.539 50.4204 143.673 50.174 142.758 50.174V51.174ZM144.99 53.55H143.99V63H144.99H145.99V53.55H144.99ZM144.99 63V62H142.47V63V64H144.99V63ZM142.47 63H143.47V59.094H142.47H141.47V63H142.47ZM142.47 59.094V58.094H140.652V59.094V60.094H142.47V59.094ZM140.652 59.094H139.652V63H140.652H141.652V59.094H140.652ZM140.652 63V62H138.132V63V64H140.652V63ZM138.132 63H139.132V53.55H138.132H137.132V63H138.132ZM138.132 53.55H139.132C139.132 52.8971 139.287 52.5935 139.419 52.4527C139.541 52.3236 139.791 52.174 140.364 52.174V51.174V50.174C139.45 50.174 138.584 50.4204 137.962 51.0833C137.35 51.7345 137.132 52.6189 137.132 53.55H138.132ZM140.364 51.174V52.174H142.758V51.174V50.174H140.364V51.174ZM140.652 57.15V58.15H142.47V57.15V56.15H140.652V57.15ZM142.47 57.15H143.47V53.244H142.47H141.47V57.15H142.47ZM142.47 53.244H143.47C143.47 52.8654 143.316 52.5318 143.07 52.2849L142.362 52.992L141.655 53.6991C141.612 53.6554 141.562 53.5905 141.524 53.5029C141.486 53.4142 141.47 53.3245 141.47 53.244H142.47ZM142.362 52.992L143.131 52.3518C142.875 52.0455 142.513 51.884 142.128 51.884V52.884V53.884C142.049 53.884 141.947 53.8684 141.84 53.819C141.732 53.7692 141.65 53.6997 141.594 53.6322L142.362 52.992ZM142.128 52.884V51.884H140.994V52.884V53.884H142.128V52.884ZM140.994 52.884V51.884C140.616 51.884 140.282 52.038 140.035 52.2849L140.742 52.992L141.45 53.6991C141.406 53.7428 141.341 53.7926 141.253 53.8301C141.165 53.8682 141.075 53.884 140.994 53.884V52.884ZM140.742 52.992L139.974 52.3518C139.761 52.6082 139.652 52.9203 139.652 53.244H140.652H141.652C141.652 53.3019 141.643 53.3714 141.617 53.4453C141.59 53.5196 141.552 53.5825 141.511 53.6322L140.742 52.992ZM140.652 53.244H139.652V57.15H140.652H141.652V53.244H140.652ZM146.203 53.496H145.203V54.496H146.203V53.496ZM146.203 51.354V50.354H145.203V51.354H146.203ZM152.503 51.354H153.503V50.354H152.503V51.354ZM152.503 53.496V54.496H153.503V53.496H152.503ZM150.613 53.496V52.496H149.613V53.496H150.613ZM150.613 63V64H151.613V63H150.613ZM148.093 63H147.093V64H148.093V63ZM148.093 53.496H149.093V52.496H148.093V53.496ZM146.203 53.496H147.203V51.354H146.203H145.203V53.496H146.203ZM146.203 51.354V52.354H152.503V51.354V50.354H146.203V51.354ZM152.503 51.354H151.503V53.496H152.503H153.503V51.354H152.503ZM152.503 53.496V52.496H150.613V53.496V54.496H152.503V53.496ZM150.613 53.496H149.613V63H150.613H151.613V53.496H150.613ZM150.613 63V62H148.093V63V64H150.613V63ZM148.093 63H149.093V53.496H148.093H147.093V63H148.093ZM148.093 53.496V52.496H146.203V53.496V54.496H148.093V53.496ZM156.174 60.912H155.174V61.912H156.174V60.912ZM158.964 60.912H159.964V59.912H158.964V60.912ZM158.964 63V64H159.964V63H158.964ZM153.654 63H152.654V64H153.654V63ZM153.654 51.354V50.354H152.654V51.354H153.654ZM158.964 51.354H159.964V50.354H158.964V51.354ZM158.964 53.406V54.406H159.964V53.406H158.964ZM156.174 53.406V52.406H155.174V53.406H156.174ZM156.174 56.142H155.174V57.142H156.174V56.142ZM158.784 56.142H159.784V55.142H158.784V56.142ZM158.784 58.122V59.122H159.784V58.122H158.784ZM156.174 58.122V57.122H155.174V58.122H156.174ZM156.174 60.912V61.912H158.964V60.912V59.912H156.174V60.912ZM158.964 60.912H157.964V63H158.964H159.964V60.912H158.964ZM158.964 63V62H153.654V63V64H158.964V63ZM153.654 63H154.654V51.354H153.654H152.654V63H153.654ZM153.654 51.354V52.354H158.964V51.354V50.354H153.654V51.354ZM158.964 51.354H157.964V53.406H158.964H159.964V51.354H158.964ZM158.964 53.406V52.406H156.174V53.406V54.406H158.964V53.406ZM156.174 53.406H155.174V56.142H156.174H157.174V53.406H156.174ZM156.174 56.142V57.142H158.784V56.142V55.142H156.174V56.142ZM158.784 56.142H157.784V58.122H158.784H159.784V56.142H158.784ZM158.784 58.122V57.122H156.174V58.122V59.122H158.784V58.122ZM156.174 58.122H155.174V60.912H156.174H157.174V58.122H156.174ZM170.522 54.414V55.414H171.522V54.414H170.522ZM168.128 54.414H167.128V55.414H168.128V54.414ZM168.02 53.244L167.252 53.8842L167.281 53.919L167.313 53.9511L168.02 53.244ZM166.544 53.244L165.837 52.5369L165.805 52.569L165.776 52.6038L166.544 53.244ZM166.544 55.818L165.776 56.4582L165.805 56.493L165.837 56.5251L166.544 55.818ZM168.416 55.926L168.432 54.9261L168.424 54.926H168.416V55.926ZM164.06 59.598V58.598H163.06V59.598H164.06ZM166.454 59.598H167.454V58.598H166.454V59.598ZM166.544 61.146L165.776 61.7862L165.805 61.821L165.837 61.8531L166.544 61.146ZM168.146 61.146L167.439 60.4389L167.407 60.471L167.378 60.5058L168.146 61.146ZM168.146 58.356L167.378 58.9962L167.407 59.031L167.439 59.0631L168.146 58.356ZM170.522 54.414V53.414H168.128V54.414V55.414H170.522V54.414ZM168.128 54.414H169.128V53.496H168.128H167.128V54.414H168.128ZM168.128 53.496H169.128C169.128 53.1174 168.974 52.7838 168.727 52.5369L168.02 53.244L167.313 53.9511C167.269 53.9074 167.22 53.8425 167.182 53.7549C167.144 53.6662 167.128 53.5765 167.128 53.496H168.128ZM168.02 53.244L168.788 52.6038C168.533 52.2975 168.171 52.136 167.786 52.136V53.136V54.136C167.707 54.136 167.605 54.1204 167.498 54.071C167.39 54.0212 167.308 53.9517 167.252 53.8842L168.02 53.244ZM167.786 53.136V52.136H166.796V53.136V54.136H167.786V53.136ZM166.796 53.136V52.136C166.418 52.136 166.084 52.29 165.837 52.5369L166.544 53.244L167.251 53.9511C167.208 53.9948 167.143 54.0446 167.055 54.0821C166.966 54.1202 166.877 54.136 166.796 54.136V53.136ZM166.544 53.244L165.776 52.6038C165.562 52.8602 165.454 53.1723 165.454 53.496H166.454H167.454C167.454 53.5539 167.445 53.6234 167.418 53.6973C167.392 53.7716 167.354 53.8345 167.312 53.8842L166.544 53.244ZM166.454 53.496H165.454V55.566H166.454H167.454V53.496H166.454ZM166.454 55.566H165.454C165.454 55.8897 165.562 56.2018 165.776 56.4582L166.544 55.818L167.312 55.1778C167.354 55.2275 167.392 55.2904 167.418 55.3647C167.445 55.4386 167.454 55.5081 167.454 55.566H166.454ZM166.544 55.818L165.837 56.5251C166.084 56.772 166.418 56.926 166.796 56.926V55.926V54.926C166.877 54.926 166.966 54.9418 167.055 54.9799C167.143 55.0174 167.208 55.0672 167.251 55.1109L166.544 55.818ZM166.796 55.926V56.926H168.416V55.926V54.926H166.796V55.926ZM168.416 55.926L168.4 56.9259C168.976 56.9352 169.235 57.0879 169.361 57.2227C169.496 57.366 169.648 57.666 169.648 58.302H170.648H171.648C171.648 57.378 171.428 56.502 170.819 55.8533C170.202 55.1961 169.344 54.9408 168.432 54.9261L168.416 55.926ZM170.648 58.302H169.648V60.804H170.648H171.648V58.302H170.648ZM170.648 60.804H169.648C169.648 61.4569 169.494 61.7605 169.361 61.9013C169.24 62.0304 168.989 62.18 168.416 62.18V63.18V64.18C169.331 64.18 170.196 63.9336 170.819 63.2707C171.431 62.6195 171.648 61.7351 171.648 60.804H170.648ZM168.416 63.18V62.18H166.292V63.18V64.18H168.416V63.18ZM166.292 63.18V62.18C165.719 62.18 165.468 62.0304 165.347 61.9013C165.215 61.7605 165.06 61.4569 165.06 60.804H164.06H163.06C163.06 61.7351 163.278 62.6195 163.889 63.2707C164.512 63.9336 165.377 64.18 166.292 64.18V63.18ZM164.06 60.804H165.06V59.598H164.06H163.06V60.804H164.06ZM164.06 59.598V60.598H166.454V59.598V58.598H164.06V59.598ZM166.454 59.598H165.454V60.894H166.454H167.454V59.598H166.454ZM166.454 60.894H165.454C165.454 61.2177 165.562 61.5298 165.776 61.7862L166.544 61.146L167.312 60.5058C167.354 60.5555 167.392 60.6184 167.418 60.6927C167.445 60.7666 167.454 60.8361 167.454 60.894H166.454ZM166.544 61.146L165.837 61.8531C166.084 62.1 166.418 62.254 166.796 62.254V61.254V60.254C166.877 60.254 166.966 60.2698 167.055 60.3079C167.143 60.3454 167.208 60.3952 167.251 60.4389L166.544 61.146ZM166.796 61.254V62.254H167.912V61.254V60.254H166.796V61.254ZM167.912 61.254V62.254C168.297 62.254 168.659 62.0925 168.914 61.7862L168.146 61.146L167.378 60.5058C167.434 60.4383 167.516 60.3688 167.624 60.319C167.731 60.2696 167.833 60.254 167.912 60.254V61.254ZM168.146 61.146L168.853 61.8531C169.1 61.6062 169.254 61.2726 169.254 60.894H168.254H167.254C167.254 60.8135 167.27 60.7238 167.308 60.6351C167.346 60.5475 167.395 60.4826 167.439 60.4389L168.146 61.146ZM168.254 60.894H169.254V58.608H168.254H167.254V60.894H168.254ZM168.254 58.608H169.254C169.254 58.2294 169.1 57.8958 168.853 57.6489L168.146 58.356L167.439 59.0631C167.395 59.0194 167.346 58.9545 167.308 58.8669C167.27 58.7782 167.254 58.6885 167.254 58.608H168.254ZM168.146 58.356L168.914 57.7158C168.659 57.4095 168.297 57.248 167.912 57.248V58.248V59.248C167.833 59.248 167.731 59.2324 167.624 59.183C167.516 59.1332 167.434 59.0637 167.378 58.9962L168.146 58.356ZM167.912 58.248V57.248H166.292V58.248V59.248H167.912V58.248ZM166.292 58.248V57.248C165.719 57.248 165.468 57.0984 165.347 56.9693C165.215 56.8285 165.06 56.5249 165.06 55.872H164.06H163.06C163.06 56.8031 163.278 57.6875 163.889 58.3387C164.512 59.0016 165.377 59.248 166.292 59.248V58.248ZM164.06 55.872H165.06V53.55H164.06H163.06V55.872H164.06ZM164.06 53.55H165.06C165.06 52.8971 165.215 52.5935 165.347 52.4527C165.468 52.3236 165.719 52.174 166.292 52.174V51.174V50.174C165.377 50.174 164.512 50.4204 163.889 51.0833C163.278 51.7345 163.06 52.6189 163.06 53.55H164.06ZM166.292 51.174V52.174H168.29V51.174V50.174H166.292V51.174ZM168.29 51.174V52.174C168.863 52.174 169.114 52.3236 169.235 52.4527C169.368 52.5935 169.522 52.8971 169.522 53.55H170.522H171.522C171.522 52.6189 171.305 51.7345 170.693 51.0833C170.07 50.4204 169.205 50.174 168.29 50.174V51.174ZM170.522 53.55H169.522V54.414H170.522H171.522V53.55H170.522ZM174.824 60.912H173.824V61.912H174.824V60.912ZM177.614 60.912H178.614V59.912H177.614V60.912ZM177.614 63V64H178.614V63H177.614ZM172.304 63H171.304V64H172.304V63ZM172.304 51.354V50.354H171.304V51.354H172.304ZM177.614 51.354H178.614V50.354H177.614V51.354ZM177.614 53.406V54.406H178.614V53.406H177.614ZM174.824 53.406V52.406H173.824V53.406H174.824ZM174.824 56.142H173.824V57.142H174.824V56.142ZM177.434 56.142H178.434V55.142H177.434V56.142ZM177.434 58.122V59.122H178.434V58.122H177.434ZM174.824 58.122V57.122H173.824V58.122H174.824ZM174.824 60.912V61.912H177.614V60.912V59.912H174.824V60.912ZM177.614 60.912H176.614V63H177.614H178.614V60.912H177.614ZM177.614 63V62H172.304V63V64H177.614V63ZM172.304 63H173.304V51.354H172.304H171.304V63H172.304ZM172.304 51.354V52.354H177.614V51.354V50.354H172.304V51.354ZM177.614 51.354H176.614V53.406H177.614H178.614V51.354H177.614ZM177.614 53.406V52.406H174.824V53.406V54.406H177.614V53.406ZM174.824 53.406H173.824V56.142H174.824H175.824V53.406H174.824ZM174.824 56.142V57.142H177.434V56.142V55.142H174.824V56.142ZM177.434 56.142H176.434V58.122H177.434H178.434V56.142H177.434ZM177.434 58.122V57.122H174.824V58.122V59.122H177.434V58.122ZM174.824 58.122H173.824V60.912H174.824H175.824V58.122H174.824ZM185.534 54.414V55.414H186.534V54.414H185.534ZM183.14 54.414H182.14V55.414H183.14V54.414ZM183.032 53.244L182.264 53.8842L182.293 53.919L182.325 53.9511L183.032 53.244ZM181.556 53.244L180.849 52.5369L180.817 52.569L180.788 52.6038L181.556 53.244ZM181.556 55.818L180.788 56.4582L180.817 56.493L180.849 56.5251L181.556 55.818ZM183.428 55.926L183.444 54.9261L183.436 54.926H183.428V55.926ZM179.072 59.598V58.598H178.072V59.598H179.072ZM181.466 59.598H182.466V58.598H181.466V59.598ZM181.556 61.146L180.788 61.7862L180.817 61.821L180.849 61.8531L181.556 61.146ZM183.158 61.146L182.451 60.4389L182.419 60.471L182.39 60.5058L183.158 61.146ZM183.158 58.356L182.39 58.9962L182.419 59.031L182.451 59.0631L183.158 58.356ZM185.534 54.414V53.414H183.14V54.414V55.414H185.534V54.414ZM183.14 54.414H184.14V53.496H183.14H182.14V54.414H183.14ZM183.14 53.496H184.14C184.14 53.1174 183.986 52.7838 183.739 52.5369L183.032 53.244L182.325 53.9511C182.281 53.9074 182.231 53.8425 182.194 53.7549C182.156 53.6662 182.14 53.5765 182.14 53.496H183.14ZM183.032 53.244L183.8 52.6038C183.545 52.2975 183.182 52.136 182.798 52.136V53.136V54.136C182.718 54.136 182.616 54.1204 182.509 54.071C182.402 54.0212 182.32 53.9517 182.264 53.8842L183.032 53.244ZM182.798 53.136V52.136H181.808V53.136V54.136H182.798V53.136ZM181.808 53.136V52.136C181.429 52.136 181.096 52.29 180.849 52.5369L181.556 53.244L182.263 53.9511C182.219 53.9948 182.154 54.0446 182.067 54.0821C181.978 54.1202 181.888 54.136 181.808 54.136V53.136ZM181.556 53.244L180.788 52.6038C180.574 52.8602 180.466 53.1723 180.466 53.496H181.466H182.466C182.466 53.5539 182.457 53.6234 182.43 53.6973C182.404 53.7716 182.365 53.8345 182.324 53.8842L181.556 53.244ZM181.466 53.496H180.466V55.566H181.466H182.466V53.496H181.466ZM181.466 55.566H180.466C180.466 55.8897 180.574 56.2018 180.788 56.4582L181.556 55.818L182.324 55.1778C182.365 55.2275 182.404 55.2904 182.43 55.3647C182.457 55.4386 182.466 55.5081 182.466 55.566H181.466ZM181.556 55.818L180.849 56.5251C181.096 56.772 181.429 56.926 181.808 56.926V55.926V54.926C181.888 54.926 181.978 54.9418 182.067 54.9799C182.154 55.0174 182.219 55.0672 182.263 55.1109L181.556 55.818ZM181.808 55.926V56.926H183.428V55.926V54.926H181.808V55.926ZM183.428 55.926L183.412 56.9259C183.988 56.9352 184.246 57.0879 184.373 57.2227C184.508 57.366 184.66 57.666 184.66 58.302H185.66H186.66C186.66 57.378 186.44 56.502 185.831 55.8533C185.213 55.1961 184.356 54.9408 183.444 54.9261L183.428 55.926ZM185.66 58.302H184.66V60.804H185.66H186.66V58.302H185.66ZM185.66 60.804H184.66C184.66 61.4569 184.505 61.7605 184.373 61.9013C184.252 62.0304 184.001 62.18 183.428 62.18V63.18V64.18C184.343 64.18 185.208 63.9336 185.831 63.2707C186.442 62.6195 186.66 61.7351 186.66 60.804H185.66ZM183.428 63.18V62.18H181.304V63.18V64.18H183.428V63.18ZM181.304 63.18V62.18C180.731 62.18 180.48 62.0304 180.359 61.9013C180.226 61.7605 180.072 61.4569 180.072 60.804H179.072H178.072C178.072 61.7351 178.289 62.6195 178.901 63.2707C179.524 63.9336 180.389 64.18 181.304 64.18V63.18ZM179.072 60.804H180.072V59.598H179.072H178.072V60.804H179.072ZM179.072 59.598V60.598H181.466V59.598V58.598H179.072V59.598ZM181.466 59.598H180.466V60.894H181.466H182.466V59.598H181.466ZM181.466 60.894H180.466C180.466 61.2177 180.574 61.5298 180.788 61.7862L181.556 61.146L182.324 60.5058C182.365 60.5555 182.404 60.6184 182.43 60.6927C182.457 60.7666 182.466 60.8361 182.466 60.894H181.466ZM181.556 61.146L180.849 61.8531C181.096 62.1 181.429 62.254 181.808 62.254V61.254V60.254C181.888 60.254 181.978 60.2698 182.067 60.3079C182.154 60.3454 182.219 60.3952 182.263 60.4389L181.556 61.146ZM181.808 61.254V62.254H182.924V61.254V60.254H181.808V61.254ZM182.924 61.254V62.254C183.308 62.254 183.671 62.0925 183.926 61.7862L183.158 61.146L182.39 60.5058C182.446 60.4383 182.528 60.3688 182.635 60.319C182.742 60.2696 182.844 60.254 182.924 60.254V61.254ZM183.158 61.146L183.865 61.8531C184.112 61.6062 184.266 61.2726 184.266 60.894H183.266H182.266C182.266 60.8135 182.282 60.7238 182.32 60.6351C182.357 60.5475 182.407 60.4826 182.451 60.4389L183.158 61.146ZM183.266 60.894H184.266V58.608H183.266H182.266V60.894H183.266ZM183.266 58.608H184.266C184.266 58.2294 184.112 57.8958 183.865 57.6489L183.158 58.356L182.451 59.0631C182.407 59.0194 182.357 58.9545 182.32 58.8669C182.282 58.7782 182.266 58.6885 182.266 58.608H183.266ZM183.158 58.356L183.926 57.7158C183.671 57.4095 183.308 57.248 182.924 57.248V58.248V59.248C182.844 59.248 182.742 59.2324 182.635 59.183C182.528 59.1332 182.446 59.0637 182.39 58.9962L183.158 58.356ZM182.924 58.248V57.248H181.304V58.248V59.248H182.924V58.248ZM181.304 58.248V57.248C180.731 57.248 180.48 57.0984 180.359 56.9693C180.226 56.8285 180.072 56.5249 180.072 55.872H179.072H178.072C178.072 56.8031 178.289 57.6875 178.901 58.3387C179.524 59.0016 180.389 59.248 181.304 59.248V58.248ZM179.072 55.872H180.072V53.55H179.072H178.072V55.872H179.072ZM179.072 53.55H180.072C180.072 52.8971 180.226 52.5935 180.359 52.4527C180.48 52.3236 180.731 52.174 181.304 52.174V51.174V50.174C180.389 50.174 179.524 50.4204 178.901 51.0833C178.289 51.7345 178.072 52.6189 178.072 53.55H179.072ZM181.304 51.174V52.174H183.302V51.174V50.174H181.304V51.174ZM183.302 51.174V52.174C183.875 52.174 184.126 52.3236 184.247 52.4527C184.379 52.5935 184.534 52.8971 184.534 53.55H185.534H186.534C186.534 52.6189 186.316 51.7345 185.705 51.0833C185.082 50.4204 184.217 50.174 183.302 50.174V51.174ZM185.534 53.55H184.534V54.414H185.534H186.534V53.55H185.534ZM193.778 54.414V55.414H194.778V54.414H193.778ZM191.384 54.414H190.384V55.414H191.384V54.414ZM191.276 53.244L190.508 53.8842L190.537 53.919L190.569 53.9511L191.276 53.244ZM189.8 53.244L189.093 52.5369L189.061 52.569L189.032 52.6038L189.8 53.244ZM189.8 55.818L189.032 56.4582L189.061 56.493L189.093 56.5251L189.8 55.818ZM191.672 55.926L191.688 54.9261L191.68 54.926H191.672V55.926ZM187.316 59.598V58.598H186.316V59.598H187.316ZM189.71 59.598H190.71V58.598H189.71V59.598ZM189.8 61.146L189.032 61.7862L189.061 61.821L189.093 61.8531L189.8 61.146ZM191.402 61.146L190.695 60.4389L190.663 60.471L190.634 60.5058L191.402 61.146ZM191.402 58.356L190.634 58.9962L190.663 59.031L190.695 59.0631L191.402 58.356ZM193.778 54.414V53.414H191.384V54.414V55.414H193.778V54.414ZM191.384 54.414H192.384V53.496H191.384H190.384V54.414H191.384ZM191.384 53.496H192.384C192.384 53.1174 192.23 52.7838 191.983 52.5369L191.276 53.244L190.569 53.9511C190.525 53.9074 190.475 53.8425 190.438 53.7549C190.4 53.6662 190.384 53.5765 190.384 53.496H191.384ZM191.276 53.244L192.044 52.6038C191.789 52.2975 191.426 52.136 191.042 52.136V53.136V54.136C190.962 54.136 190.861 54.1204 190.753 54.071C190.646 54.0212 190.564 53.9517 190.508 53.8842L191.276 53.244ZM191.042 53.136V52.136H190.052V53.136V54.136H191.042V53.136ZM190.052 53.136V52.136C189.673 52.136 189.34 52.29 189.093 52.5369L189.8 53.244L190.507 53.9511C190.463 53.9948 190.398 54.0446 190.311 54.0821C190.222 54.1202 190.132 54.136 190.052 54.136V53.136ZM189.8 53.244L189.032 52.6038C188.818 52.8602 188.71 53.1723 188.71 53.496H189.71H190.71C190.71 53.5539 190.701 53.6234 190.674 53.6973C190.648 53.7716 190.61 53.8345 190.568 53.8842L189.8 53.244ZM189.71 53.496H188.71V55.566H189.71H190.71V53.496H189.71ZM189.71 55.566H188.71C188.71 55.8897 188.818 56.2018 189.032 56.4582L189.8 55.818L190.568 55.1778C190.61 55.2275 190.648 55.2904 190.674 55.3647C190.701 55.4386 190.71 55.5081 190.71 55.566H189.71ZM189.8 55.818L189.093 56.5251C189.34 56.772 189.673 56.926 190.052 56.926V55.926V54.926C190.132 54.926 190.222 54.9418 190.311 54.9799C190.398 55.0174 190.463 55.0672 190.507 55.1109L189.8 55.818ZM190.052 55.926V56.926H191.672V55.926V54.926H190.052V55.926ZM191.672 55.926L191.656 56.9259C192.232 56.9352 192.491 57.0879 192.617 57.2227C192.752 57.366 192.904 57.666 192.904 58.302H193.904H194.904C194.904 57.378 194.684 56.502 194.075 55.8533C193.458 55.1961 192.6 54.9408 191.688 54.9261L191.672 55.926ZM193.904 58.302H192.904V60.804H193.904H194.904V58.302H193.904ZM193.904 60.804H192.904C192.904 61.4569 192.749 61.7605 192.617 61.9013C192.496 62.0304 192.245 62.18 191.672 62.18V63.18V64.18C192.587 64.18 193.452 63.9336 194.075 63.2707C194.687 62.6195 194.904 61.7351 194.904 60.804H193.904ZM191.672 63.18V62.18H189.548V63.18V64.18H191.672V63.18ZM189.548 63.18V62.18C188.975 62.18 188.724 62.0304 188.603 61.9013C188.471 61.7605 188.316 61.4569 188.316 60.804H187.316H186.316C186.316 61.7351 186.533 62.6195 187.145 63.2707C187.768 63.9336 188.633 64.18 189.548 64.18V63.18ZM187.316 60.804H188.316V59.598H187.316H186.316V60.804H187.316ZM187.316 59.598V60.598H189.71V59.598V58.598H187.316V59.598ZM189.71 59.598H188.71V60.894H189.71H190.71V59.598H189.71ZM189.71 60.894H188.71C188.71 61.2177 188.818 61.5298 189.032 61.7862L189.8 61.146L190.568 60.5058C190.61 60.5555 190.648 60.6184 190.674 60.6927C190.701 60.7666 190.71 60.8361 190.71 60.894H189.71ZM189.8 61.146L189.093 61.8531C189.34 62.1 189.673 62.254 190.052 62.254V61.254V60.254C190.132 60.254 190.222 60.2698 190.311 60.3079C190.398 60.3454 190.463 60.3952 190.507 60.4389L189.8 61.146ZM190.052 61.254V62.254H191.168V61.254V60.254H190.052V61.254ZM191.168 61.254V62.254C191.552 62.254 191.915 62.0925 192.17 61.7862L191.402 61.146L190.634 60.5058C190.69 60.4383 190.772 60.3688 190.879 60.319C190.987 60.2696 191.088 60.254 191.168 60.254V61.254ZM191.402 61.146L192.109 61.8531C192.356 61.6062 192.51 61.2726 192.51 60.894H191.51H190.51C190.51 60.8135 190.526 60.7238 190.564 60.6351C190.601 60.5475 190.651 60.4826 190.695 60.4389L191.402 61.146ZM191.51 60.894H192.51V58.608H191.51H190.51V60.894H191.51ZM191.51 58.608H192.51C192.51 58.2294 192.356 57.8958 192.109 57.6489L191.402 58.356L190.695 59.0631C190.651 59.0194 190.601 58.9545 190.564 58.8669C190.526 58.7782 190.51 58.6885 190.51 58.608H191.51ZM191.402 58.356L192.17 57.7158C191.915 57.4095 191.552 57.248 191.168 57.248V58.248V59.248C191.088 59.248 190.987 59.2324 190.879 59.183C190.772 59.1332 190.69 59.0637 190.634 58.9962L191.402 58.356ZM191.168 58.248V57.248H189.548V58.248V59.248H191.168V58.248ZM189.548 58.248V57.248C188.975 57.248 188.724 57.0984 188.603 56.9693C188.471 56.8285 188.316 56.5249 188.316 55.872H187.316H186.316C186.316 56.8031 186.533 57.6875 187.145 58.3387C187.768 59.0016 188.633 59.248 189.548 59.248V58.248ZM187.316 55.872H188.316V53.55H187.316H186.316V55.872H187.316ZM187.316 53.55H188.316C188.316 52.8971 188.471 52.5935 188.603 52.4527C188.724 52.3236 188.975 52.174 189.548 52.174V51.174V50.174C188.633 50.174 187.768 50.4204 187.145 51.0833C186.533 51.7345 186.316 52.6189 186.316 53.55H187.316ZM189.548 51.174V52.174H191.546V51.174V50.174H189.548V51.174ZM191.546 51.174V52.174C192.119 52.174 192.37 52.3236 192.491 52.4527C192.623 52.5935 192.778 52.8971 192.778 53.55H193.778H194.778C194.778 52.6189 194.561 51.7345 193.949 51.0833C193.326 50.4204 192.461 50.174 191.546 50.174V51.174ZM193.778 53.55H192.778V54.414H193.778H194.778V53.55H193.778ZM198.08 51.354H199.08V50.354H198.08V51.354ZM198.08 63V64H199.08V63H198.08ZM195.56 63H194.56V64H195.56V63ZM195.56 51.354V50.354H194.56V51.354H195.56ZM198.08 51.354H197.08V63H198.08H199.08V51.354H198.08ZM198.08 63V62H195.56V63V64H198.08V63ZM195.56 63H196.56V51.354H195.56H194.56V63H195.56ZM195.56 51.354V52.354H198.08V51.354V50.354H195.56V51.354ZM204.185 52.992L203.416 53.6322L203.446 53.667L203.478 53.6991L204.185 52.992ZM202.565 52.992L201.858 52.2849L201.826 52.317L201.796 52.3518L202.565 52.992ZM202.565 61.344L201.796 61.9842L201.826 62.019L201.858 62.0511L202.565 61.344ZM204.185 61.344L203.478 60.6369L203.446 60.669L203.416 60.7038L204.185 61.344ZM206.813 53.55H205.813V60.804H206.813H207.813V53.55H206.813ZM206.813 60.804H205.813C205.813 61.4569 205.658 61.7605 205.526 61.9013C205.405 62.0304 205.154 62.18 204.581 62.18V63.18V64.18C205.495 64.18 206.361 63.9336 206.984 63.2707C207.595 62.6195 207.813 61.7351 207.813 60.804H206.813ZM204.581 63.18V62.18H202.187V63.18V64.18H204.581V63.18ZM202.187 63.18V62.18C201.613 62.18 201.363 62.0304 201.242 61.9013C201.109 61.7605 200.955 61.4569 200.955 60.804H199.955H198.955C198.955 61.7351 199.172 62.6195 199.784 63.2707C200.407 63.9336 201.272 64.18 202.187 64.18V63.18ZM199.955 60.804H200.955V53.55H199.955H198.955V60.804H199.955ZM199.955 53.55H200.955C200.955 52.8971 201.109 52.5935 201.242 52.4527C201.363 52.3236 201.613 52.174 202.187 52.174V51.174V50.174C201.272 50.174 200.407 50.4204 199.784 51.0833C199.172 51.7345 198.955 52.6189 198.955 53.55H199.955ZM202.187 51.174V52.174H204.581V51.174V50.174H202.187V51.174ZM204.581 51.174V52.174C205.154 52.174 205.405 52.3236 205.526 52.4527C205.658 52.5935 205.813 52.8971 205.813 53.55H206.813H207.813C207.813 52.6189 207.595 51.7345 206.984 51.0833C206.361 50.4204 205.495 50.174 204.581 50.174V51.174ZM204.293 61.092H205.293V53.244H204.293H203.293V61.092H204.293ZM204.293 53.244H205.293C205.293 52.8654 205.139 52.5318 204.892 52.2849L204.185 52.992L203.478 53.6991C203.434 53.6554 203.384 53.5905 203.347 53.5029C203.309 53.4142 203.293 53.3245 203.293 53.244H204.293ZM204.185 52.992L204.953 52.3518C204.698 52.0455 204.335 51.884 203.951 51.884V52.884V53.884C203.871 53.884 203.769 53.8684 203.662 53.819C203.554 53.7692 203.473 53.6997 203.416 53.6322L204.185 52.992ZM203.951 52.884V51.884H202.817V52.884V53.884H203.951V52.884ZM202.817 52.884V51.884C202.438 51.884 202.104 52.038 201.858 52.2849L202.565 52.992L203.272 53.6991C203.228 53.7428 203.163 53.7926 203.076 53.8301C202.987 53.8682 202.897 53.884 202.817 53.884V52.884ZM202.565 52.992L201.796 52.3518C201.583 52.6082 201.475 52.9203 201.475 53.244H202.475H203.475C203.475 53.3019 203.465 53.3714 203.439 53.4453C203.412 53.5196 203.374 53.5825 203.333 53.6322L202.565 52.992ZM202.475 53.244H201.475V61.092H202.475H203.475V53.244H202.475ZM202.475 61.092H201.475C201.475 61.4157 201.583 61.7278 201.796 61.9842L202.565 61.344L203.333 60.7038C203.374 60.7535 203.412 60.8164 203.439 60.8907C203.465 60.9646 203.475 61.0341 203.475 61.092H202.475ZM202.565 61.344L201.858 62.0511C202.104 62.298 202.438 62.452 202.817 62.452V61.452V60.452C202.897 60.452 202.987 60.4678 203.076 60.5059C203.163 60.5434 203.228 60.5932 203.272 60.6369L202.565 61.344ZM202.817 61.452V62.452H203.951V61.452V60.452H202.817V61.452ZM203.951 61.452V62.452C204.335 62.452 204.698 62.2905 204.953 61.9842L204.185 61.344L203.416 60.7038C203.473 60.6363 203.554 60.5668 203.662 60.517C203.769 60.4676 203.871 60.452 203.951 60.452V61.452ZM204.185 61.344L204.892 62.0511C205.139 61.8042 205.293 61.4706 205.293 61.092H204.293H203.293C203.293 61.0115 203.309 60.9218 203.347 60.8331C203.384 60.7455 203.434 60.6806 203.478 60.6369L204.185 61.344ZM215.351 63V64H216.351V63H215.351ZM212.831 63H211.831V64H212.831V63ZM212.723 53.082L211.955 53.7222L211.984 53.757L212.016 53.7891L212.723 53.082ZM211.265 53.082L210.558 52.3749L210.526 52.407L210.497 52.4418L211.265 53.082ZM211.175 63V64H212.175V63H211.175ZM208.655 63H207.655V64H208.655V63ZM215.351 63V62H212.831V63V64H215.351V63ZM212.831 63H213.831V53.334H212.831H211.831V63H212.831ZM212.831 53.334H213.831C213.831 52.9554 213.677 52.6218 213.431 52.3749L212.723 53.082L212.016 53.7891C211.973 53.7454 211.923 53.6805 211.885 53.5929C211.847 53.5042 211.831 53.4145 211.831 53.334H212.831ZM212.723 53.082L213.492 52.4418C213.236 52.1355 212.874 51.974 212.489 51.974V52.974V53.974C212.41 53.974 212.308 53.9584 212.201 53.909C212.093 53.8592 212.012 53.7897 211.955 53.7222L212.723 53.082ZM212.489 52.974V51.974H211.517V52.974V53.974H212.489V52.974ZM211.517 52.974V51.974C211.139 51.974 210.805 52.128 210.558 52.3749L211.265 53.082L211.973 53.7891C211.929 53.8328 211.864 53.8826 211.776 53.9201C211.688 53.9582 211.598 53.974 211.517 53.974V52.974ZM211.265 53.082L210.497 52.4418C210.284 52.6982 210.175 53.0103 210.175 53.334H211.175H212.175C212.175 53.3919 212.166 53.4614 212.14 53.5353C212.113 53.6096 212.075 53.6725 212.034 53.7222L211.265 53.082ZM211.175 53.334H210.175V63H211.175H212.175V53.334H211.175ZM211.175 63V62H208.655V63V64H211.175V63ZM208.655 63H209.655V53.55H208.655H207.655V63H208.655ZM208.655 53.55H209.655C209.655 52.8971 209.81 52.5935 209.942 52.4527C210.064 52.3236 210.314 52.174 210.887 52.174V51.174V50.174C209.973 50.174 209.107 50.4204 208.485 51.0833C207.873 51.7345 207.655 52.6189 207.655 53.55H208.655ZM210.887 51.174V52.174H213.119V51.174V50.174H210.887V51.174ZM213.119 51.174V52.174C213.693 52.174 213.943 52.3236 214.065 52.4527C214.197 52.5935 214.351 52.8971 214.351 53.55H215.351H216.351C216.351 52.6189 216.134 51.7345 215.522 51.0833C214.9 50.4204 214.034 50.174 213.119 50.174V51.174ZM215.351 53.55H214.351V63H215.351H216.351V53.55H215.351Z" fill="black" mask="url(#path-8-inside-3_35_156)"/>
</svg>
