<svg width="414" height="72" viewBox="0 0 414 72" fill="none" xmlns="http://www.w3.org/2000/svg">
<rect width="414" height="72" fill="#D9D9D9"/>
<rect width="72" height="72" fill="#D9D9D9"/>
<rect width="72" height="72" fill="#838383"/>
<path d="M99.824 14.976C102.469 14.976 103.792 16.384 103.792 19.2V32.096C103.792 34.912 102.469 36.32 99.824 36.32H99.76V37.92C99.76 38.24 99.92 38.4 100.24 38.4H101.264V41.536H99.376C98.3307 41.536 97.5093 41.216 96.912 40.576C96.336 39.9573 96.048 39.2533 96.048 38.464V36.32H95.568C92.9227 36.32 91.6 34.912 91.6 32.096V19.2C91.6 16.384 92.9227 14.976 95.568 14.976H99.824ZM96.08 18.656V32.608C96.08 32.7787 96.1333 32.928 96.24 33.056C96.368 33.184 96.5173 33.248 96.688 33.248H98.704C98.8747 33.248 99.0133 33.184 99.12 33.056C99.248 32.928 99.312 32.7787 99.312 32.608V18.656C99.312 18.4853 99.248 18.336 99.12 18.208C99.0133 18.08 98.8747 18.016 98.704 18.016H96.688C96.5173 18.016 96.368 18.08 96.24 18.208C96.1333 18.336 96.08 18.4853 96.08 18.656ZM114.18 15.296H118.66V32.096C118.66 34.912 117.337 36.32 114.692 36.32H110.724C108.078 36.32 106.756 34.912 106.756 32.096V15.296H111.236V32.48C111.236 32.6507 111.289 32.8 111.396 32.928C111.524 33.056 111.673 33.12 111.844 33.12H113.572C113.742 33.12 113.881 33.056 113.988 32.928C114.116 32.8 114.18 32.6507 114.18 32.48V15.296ZM126.205 15.296V36H121.725V15.296H126.205ZM128.354 19.104V15.296H139.554V19.104H136.194V36H131.714V19.104H128.354Z" fill="black"/>
<path d="M34.1253 29.2V42.096C34.1253 44.912 32.8026 46.32 30.1573 46.32H26.3493C23.7039 46.32 22.3813 44.912 22.3813 42.096V29.2C22.3813 26.384 23.7039 24.976 26.3493 24.976H30.1573C32.8026 24.976 34.1253 26.384 34.1253 29.2ZM29.7733 42.608V28.656C29.7733 28.4853 29.7093 28.336 29.5813 28.208C29.4746 28.08 29.3359 28.016 29.1653 28.016H27.3413C27.1706 28.016 27.0213 28.08 26.8933 28.208C26.7866 28.336 26.7333 28.4853 26.7333 28.656V42.608C26.7333 42.7787 26.7866 42.928 26.8933 43.056C27.0213 43.184 27.1706 43.248 27.3413 43.248H29.1653C29.3359 43.248 29.4746 43.184 29.5813 43.056C29.7093 42.928 29.7733 42.7787 29.7733 42.608ZM44.6253 25.296H48.6253V46H44.6253V37.84H40.8813C38.2359 37.84 36.9133 36.432 36.9133 33.616V25.296H40.8813V33.424C40.8813 33.5947 40.9346 33.744 41.0413 33.872C41.1693 34 41.3186 34.064 41.4893 34.064H44.0173C44.1879 34.064 44.3266 34 44.4333 33.872C44.5613 33.744 44.6253 33.5947 44.6253 33.424V25.296Z" fill="white"/>
<path d="M90.234 53.496V51.354H96.534V53.496H94.644V63H92.124V53.496H90.234ZM100.205 60.912H102.995V63H97.6852V51.354H102.995V53.406H100.205V56.142H102.815V58.122H100.205V60.912ZM106.973 58.23V63H104.453V51.354H108.935C110.423 51.354 111.167 52.146 111.167 53.73V55.08C111.167 56.04 110.825 56.652 110.141 56.916C110.741 57.132 111.041 57.624 111.041 58.392V63H108.521V58.59C108.521 58.35 108.407 58.23 108.179 58.23H106.973ZM106.973 53.064V56.466H108.305C108.401 56.466 108.479 56.43 108.539 56.358C108.611 56.286 108.647 56.202 108.647 56.106V53.424C108.647 53.328 108.611 53.244 108.539 53.172C108.479 53.1 108.401 53.064 108.305 53.064H106.973ZM115.287 63H112.767V53.55C112.767 51.966 113.511 51.174 114.999 51.174H116.331C117.207 51.174 117.831 51.462 118.203 52.038C118.551 51.462 119.175 51.174 120.075 51.174H121.407C122.895 51.174 123.639 51.966 123.639 53.55V63H121.119V53.334C121.119 53.238 121.083 53.154 121.011 53.082C120.951 53.01 120.873 52.974 120.777 52.974H119.805C119.709 52.974 119.625 53.01 119.553 53.082C119.493 53.154 119.463 53.238 119.463 53.334V63H116.943V53.334C116.943 53.238 116.907 53.154 116.835 53.082C116.775 53.01 116.697 52.974 116.601 52.974H115.629C115.533 52.974 115.449 53.01 115.377 53.082C115.317 53.154 115.287 53.238 115.287 53.334V63ZM127.891 51.354V63H125.371V51.354H127.891ZM136.443 63H133.923V53.334C133.923 53.238 133.887 53.154 133.815 53.082C133.755 53.01 133.677 52.974 133.581 52.974H132.609C132.513 52.974 132.429 53.01 132.357 53.082C132.297 53.154 132.267 53.238 132.267 53.334V63H129.747V53.55C129.747 51.966 130.491 51.174 131.979 51.174H134.211C135.699 51.174 136.443 51.966 136.443 53.55V63ZM142.758 51.174C144.246 51.174 144.99 51.966 144.99 53.55V63H142.47V59.094H140.652V63H138.132V53.55C138.132 51.966 138.876 51.174 140.364 51.174H142.758ZM140.652 57.15H142.47V53.244C142.47 53.148 142.434 53.064 142.362 52.992C142.302 52.92 142.224 52.884 142.128 52.884H140.994C140.898 52.884 140.814 52.92 140.742 52.992C140.682 53.064 140.652 53.148 140.652 53.244V57.15ZM146.203 53.496V51.354H152.503V53.496H150.613V63H148.093V53.496H146.203ZM156.174 60.912H158.964V63H153.654V51.354H158.964V53.406H156.174V56.142H158.784V58.122H156.174V60.912ZM170.522 54.414H168.128V53.496C168.128 53.4 168.092 53.316 168.02 53.244C167.96 53.172 167.882 53.136 167.786 53.136H166.796C166.7 53.136 166.616 53.172 166.544 53.244C166.484 53.316 166.454 53.4 166.454 53.496V55.566C166.454 55.662 166.484 55.746 166.544 55.818C166.616 55.89 166.7 55.926 166.796 55.926H168.416C169.904 55.95 170.648 56.742 170.648 58.302V60.804C170.648 62.388 169.904 63.18 168.416 63.18H166.292C164.804 63.18 164.06 62.388 164.06 60.804V59.598H166.454V60.894C166.454 60.99 166.484 61.074 166.544 61.146C166.616 61.218 166.7 61.254 166.796 61.254H167.912C168.008 61.254 168.086 61.218 168.146 61.146C168.218 61.074 168.254 60.99 168.254 60.894V58.608C168.254 58.512 168.218 58.428 168.146 58.356C168.086 58.284 168.008 58.248 167.912 58.248H166.292C164.804 58.248 164.06 57.456 164.06 55.872V53.55C164.06 51.966 164.804 51.174 166.292 51.174H168.29C169.778 51.174 170.522 51.966 170.522 53.55V54.414ZM174.824 60.912H177.614V63H172.304V51.354H177.614V53.406H174.824V56.142H177.434V58.122H174.824V60.912ZM185.534 54.414H183.14V53.496C183.14 53.4 183.104 53.316 183.032 53.244C182.972 53.172 182.894 53.136 182.798 53.136H181.808C181.712 53.136 181.628 53.172 181.556 53.244C181.496 53.316 181.466 53.4 181.466 53.496V55.566C181.466 55.662 181.496 55.746 181.556 55.818C181.628 55.89 181.712 55.926 181.808 55.926H183.428C184.916 55.95 185.66 56.742 185.66 58.302V60.804C185.66 62.388 184.916 63.18 183.428 63.18H181.304C179.816 63.18 179.072 62.388 179.072 60.804V59.598H181.466V60.894C181.466 60.99 181.496 61.074 181.556 61.146C181.628 61.218 181.712 61.254 181.808 61.254H182.924C183.02 61.254 183.098 61.218 183.158 61.146C183.23 61.074 183.266 60.99 183.266 60.894V58.608C183.266 58.512 183.23 58.428 183.158 58.356C183.098 58.284 183.02 58.248 182.924 58.248H181.304C179.816 58.248 179.072 57.456 179.072 55.872V53.55C179.072 51.966 179.816 51.174 181.304 51.174H183.302C184.79 51.174 185.534 51.966 185.534 53.55V54.414ZM193.778 54.414H191.384V53.496C191.384 53.4 191.348 53.316 191.276 53.244C191.216 53.172 191.138 53.136 191.042 53.136H190.052C189.956 53.136 189.872 53.172 189.8 53.244C189.74 53.316 189.71 53.4 189.71 53.496V55.566C189.71 55.662 189.74 55.746 189.8 55.818C189.872 55.89 189.956 55.926 190.052 55.926H191.672C193.16 55.95 193.904 56.742 193.904 58.302V60.804C193.904 62.388 193.16 63.18 191.672 63.18H189.548C188.06 63.18 187.316 62.388 187.316 60.804V59.598H189.71V60.894C189.71 60.99 189.74 61.074 189.8 61.146C189.872 61.218 189.956 61.254 190.052 61.254H191.168C191.264 61.254 191.342 61.218 191.402 61.146C191.474 61.074 191.51 60.99 191.51 60.894V58.608C191.51 58.512 191.474 58.428 191.402 58.356C191.342 58.284 191.264 58.248 191.168 58.248H189.548C188.06 58.248 187.316 57.456 187.316 55.872V53.55C187.316 51.966 188.06 51.174 189.548 51.174H191.546C193.034 51.174 193.778 51.966 193.778 53.55V54.414ZM198.08 51.354V63H195.56V51.354H198.08ZM206.813 53.55V60.804C206.813 62.388 206.069 63.18 204.581 63.18H202.187C200.699 63.18 199.955 62.388 199.955 60.804V53.55C199.955 51.966 200.699 51.174 202.187 51.174H204.581C206.069 51.174 206.813 51.966 206.813 53.55ZM204.293 61.092V53.244C204.293 53.148 204.257 53.064 204.185 52.992C204.125 52.92 204.047 52.884 203.951 52.884H202.817C202.721 52.884 202.637 52.92 202.565 52.992C202.505 53.064 202.475 53.148 202.475 53.244V61.092C202.475 61.188 202.505 61.272 202.565 61.344C202.637 61.416 202.721 61.452 202.817 61.452H203.951C204.047 61.452 204.125 61.416 204.185 61.344C204.257 61.272 204.293 61.188 204.293 61.092ZM215.351 63H212.831V53.334C212.831 53.238 212.795 53.154 212.723 53.082C212.663 53.01 212.585 52.974 212.489 52.974H211.517C211.421 52.974 211.337 53.01 211.265 53.082C211.205 53.154 211.175 53.238 211.175 53.334V63H208.655V53.55C208.655 51.966 209.399 51.174 210.887 51.174H213.119C214.607 51.174 215.351 51.966 215.351 53.55V63Z" fill="black"/>
</svg>
