<svg width="414" height="72" viewBox="0 0 414 72" fill="none" xmlns="http://www.w3.org/2000/svg">
<rect width="414" height="72" fill="#D9D9D9"/>
<rect width="72" height="72" fill="#838383"/>
<path d="M103.088 19.736H98.832V18.104C98.832 17.9333 98.768 17.784 98.64 17.656C98.5333 17.528 98.3947 17.464 98.224 17.464H96.464C96.2933 17.464 96.144 17.528 96.016 17.656C95.9093 17.784 95.856 17.9333 95.856 18.104V21.784C95.856 21.9547 95.9093 22.104 96.016 22.232C96.144 22.36 96.2933 22.424 96.464 22.424H99.344C101.989 22.4667 103.312 23.8747 103.312 26.648V31.096C103.312 33.912 101.989 35.32 99.344 35.32H95.568C92.9227 35.32 91.6 33.912 91.6 31.096V28.952H95.856V31.256C95.856 31.4267 95.9093 31.576 96.016 31.704C96.144 31.832 96.2933 31.896 96.464 31.896H98.448C98.6187 31.896 98.7573 31.832 98.864 31.704C98.992 31.576 99.056 31.4267 99.056 31.256V27.192C99.056 27.0213 98.992 26.872 98.864 26.744C98.7573 26.616 98.6187 26.552 98.448 26.552H95.568C92.9227 26.552 91.6 25.144 91.6 22.328V18.2C91.6 15.384 92.9227 13.976 95.568 13.976H99.12C101.765 13.976 103.088 15.384 103.088 18.2V19.736ZM110.736 31.288H115.696V35H106.256V14.296H115.696V17.944H110.736V22.808H115.376V26.328H110.736V31.288ZM117.104 18.104V14.296H128.304V18.104H124.944V35H120.464V18.104H117.104ZM129.166 18.104V14.296H140.366V18.104H137.006V35H132.526V18.104H129.166ZM146.893 14.296V35H142.413V14.296H146.893ZM162.097 35H157.617V17.816C157.617 17.6453 157.553 17.496 157.425 17.368C157.318 17.24 157.18 17.176 157.009 17.176H155.281C155.11 17.176 154.961 17.24 154.833 17.368C154.726 17.496 154.673 17.6453 154.673 17.816V35H150.193V18.2C150.193 15.384 151.516 13.976 154.161 13.976H158.129C160.774 13.976 162.097 15.384 162.097 18.2V35ZM171.148 26.776V23.48H177.068V31.096C177.068 33.912 175.745 35.32 173.1 35.32H169.068C166.423 35.32 165.1 33.912 165.1 31.096V18.2C165.1 15.384 166.423 13.976 169.068 13.976H173.1C175.745 13.976 177.068 15.384 177.068 18.2V20.152H172.812V17.656C172.812 17.4853 172.748 17.336 172.62 17.208C172.513 17.08 172.375 17.016 172.204 17.016H170.188C170.017 17.016 169.868 17.08 169.74 17.208C169.633 17.336 169.58 17.4853 169.58 17.656V31.608C169.58 31.7787 169.633 31.928 169.74 32.056C169.868 32.184 170.017 32.248 170.188 32.248H172.204C172.375 32.248 172.513 32.184 172.62 32.056C172.748 31.928 172.812 31.7787 172.812 31.608V26.776H171.148ZM191.026 19.736H186.77V18.104C186.77 17.9333 186.706 17.784 186.578 17.656C186.471 17.528 186.332 17.464 186.161 17.464H184.402C184.231 17.464 184.082 17.528 183.954 17.656C183.847 17.784 183.794 17.9333 183.794 18.104V21.784C183.794 21.9547 183.847 22.104 183.954 22.232C184.082 22.36 184.231 22.424 184.402 22.424H187.282C189.927 22.4667 191.25 23.8747 191.25 26.648V31.096C191.25 33.912 189.927 35.32 187.282 35.32H183.506C180.86 35.32 179.538 33.912 179.538 31.096V28.952H183.794V31.256C183.794 31.4267 183.847 31.576 183.954 31.704C184.082 31.832 184.231 31.896 184.402 31.896H186.385C186.556 31.896 186.695 31.832 186.802 31.704C186.93 31.576 186.994 31.4267 186.994 31.256V27.192C186.994 27.0213 186.93 26.872 186.802 26.744C186.695 26.616 186.556 26.552 186.385 26.552H183.506C180.86 26.552 179.538 25.144 179.538 22.328V18.2C179.538 15.384 180.86 13.976 183.506 13.976H187.058C189.703 13.976 191.026 15.384 191.026 18.2V19.736Z" fill="black"/>
<path d="M34.3128 31.2V44.096C34.3128 46.912 32.9901 48.32 30.3448 48.32H26.5368C23.8914 48.32 22.5688 46.912 22.5688 44.096V31.2C22.5688 28.384 23.8914 26.976 26.5368 26.976H30.3448C32.9901 26.976 34.3128 28.384 34.3128 31.2ZM29.9608 44.608V30.656C29.9608 30.4853 29.8968 30.336 29.7688 30.208C29.6621 30.08 29.5234 30.016 29.3528 30.016H27.5288C27.3581 30.016 27.2088 30.08 27.0808 30.208C26.9741 30.336 26.9208 30.4853 26.9208 30.656V44.608C26.9208 44.7787 26.9741 44.928 27.0808 45.056C27.2088 45.184 27.3581 45.248 27.5288 45.248H29.3528C29.5234 45.248 29.6621 45.184 29.7688 45.056C29.8968 44.928 29.9608 44.7787 29.9608 44.608ZM47.1488 37.408C48.1514 38.112 48.6528 39.3173 48.6528 41.024V44.096C48.6528 46.912 47.3301 48.32 44.6848 48.32H40.9088C38.2634 48.32 36.9408 46.912 36.9408 44.096V42.4H40.9408V44.288C40.9408 44.4587 40.9941 44.608 41.1008 44.736C41.2288 44.864 41.3781 44.928 41.5488 44.928H44.0768C44.2474 44.928 44.3861 44.864 44.4928 44.736C44.6208 44.608 44.6848 44.4587 44.6848 44.288V39.872C44.6848 39.7013 44.6208 39.552 44.4928 39.424C44.3861 39.296 44.2474 39.232 44.0768 39.232H40.7808V35.776H43.8848C44.0554 35.776 44.1941 35.712 44.3008 35.584C44.4288 35.456 44.4928 35.3067 44.4928 35.136V31.104C44.4928 30.9333 44.4288 30.784 44.3008 30.656C44.1941 30.528 44.0554 30.464 43.8848 30.464H41.7408C41.5701 30.464 41.4208 30.528 41.2928 30.656C41.1861 30.784 41.1328 30.9333 41.1328 31.104V33.152H37.1328V31.2C37.1328 28.384 38.4554 26.976 41.1008 26.976H44.4928C47.1381 26.976 48.4608 28.384 48.4608 31.2V33.952C48.4608 35.616 48.0234 36.768 47.1488 37.408Z" fill="white"/>
<path d="M95.238 62.092V60.292H97.632V61.804C97.632 63.388 96.888 64.18 95.4 64.18H93.132C91.644 64.18 90.9 63.388 90.9 61.804V54.55C90.9 52.966 91.644 52.174 93.132 52.174H95.4C96.888 52.174 97.632 52.966 97.632 54.55V55.648H95.238V54.244C95.238 54.148 95.202 54.064 95.13 53.992C95.07 53.92 94.992 53.884 94.896 53.884H93.762C93.666 53.884 93.582 53.92 93.51 53.992C93.45 54.064 93.42 54.148 93.42 54.244V62.092C93.42 62.188 93.45 62.272 93.51 62.344C93.582 62.416 93.666 62.452 93.762 62.452H94.896C94.992 62.452 95.07 62.416 95.13 62.344C95.202 62.272 95.238 62.188 95.238 62.092ZM106.002 54.55V61.804C106.002 63.388 105.258 64.18 103.77 64.18H101.376C99.8881 64.18 99.1441 63.388 99.1441 61.804V54.55C99.1441 52.966 99.8881 52.174 101.376 52.174H103.77C105.258 52.174 106.002 52.966 106.002 54.55ZM103.482 62.092V54.244C103.482 54.148 103.446 54.064 103.374 53.992C103.314 53.92 103.236 53.884 103.14 53.884H102.006C101.91 53.884 101.826 53.92 101.754 53.992C101.694 54.064 101.664 54.148 101.664 54.244V62.092C101.664 62.188 101.694 62.272 101.754 62.344C101.826 62.416 101.91 62.452 102.006 62.452H103.14C103.236 62.452 103.314 62.416 103.374 62.344C103.446 62.272 103.482 62.188 103.482 62.092ZM114.541 64H112.021V54.334C112.021 54.238 111.985 54.154 111.913 54.082C111.853 54.01 111.775 53.974 111.679 53.974H110.707C110.611 53.974 110.527 54.01 110.455 54.082C110.395 54.154 110.365 54.238 110.365 54.334V64H107.845V54.55C107.845 52.966 108.589 52.174 110.077 52.174H112.309C113.797 52.174 114.541 52.966 114.541 54.55V64ZM118.75 59.428V64H116.23V52.354H121.486V54.532H118.75V57.322H121.306V59.428H118.75ZM125.483 52.354V64H122.963V52.354H125.483ZM130.759 59.374V57.52H134.089V61.804C134.089 63.388 133.345 64.18 131.857 64.18H129.589C128.101 64.18 127.357 63.388 127.357 61.804V54.55C127.357 52.966 128.101 52.174 129.589 52.174H131.857C133.345 52.174 134.089 52.966 134.089 54.55V55.648H131.695V54.244C131.695 54.148 131.659 54.064 131.587 53.992C131.527 53.92 131.449 53.884 131.353 53.884H130.219C130.123 53.884 130.039 53.92 129.967 53.992C129.907 54.064 129.877 54.148 129.877 54.244V62.092C129.877 62.188 129.907 62.272 129.967 62.344C130.039 62.416 130.123 62.452 130.219 62.452H131.353C131.449 62.452 131.527 62.416 131.587 62.344C131.659 62.272 131.695 62.188 131.695 62.092V59.374H130.759ZM139.636 52.354H142.156V61.804C142.156 63.388 141.412 64.18 139.924 64.18H137.692C136.204 64.18 135.46 63.388 135.46 61.804V52.354H137.98V62.02C137.98 62.116 138.01 62.2 138.07 62.272C138.142 62.344 138.226 62.38 138.322 62.38H139.294C139.39 62.38 139.468 62.344 139.528 62.272C139.6 62.2 139.636 62.116 139.636 62.02V52.354ZM146.4 59.23V64H143.88V52.354H148.362C149.85 52.354 150.594 53.146 150.594 54.73V56.08C150.594 57.04 150.252 57.652 149.568 57.916C150.168 58.132 150.468 58.624 150.468 59.392V64H147.948V59.59C147.948 59.35 147.834 59.23 147.606 59.23H146.4ZM146.4 54.064V57.466H147.732C147.828 57.466 147.906 57.43 147.966 57.358C148.038 57.286 148.074 57.202 148.074 57.106V54.424C148.074 54.328 148.038 54.244 147.966 54.172C147.906 54.1 147.828 54.064 147.732 54.064H146.4ZM154.733 61.912H157.523V64H152.213V52.354H157.523V54.406H154.733V57.142H157.343V59.122H154.733V61.912ZM166.021 59.374V57.52H169.351V61.804C169.351 63.388 168.607 64.18 167.119 64.18H164.851C163.363 64.18 162.619 63.388 162.619 61.804V54.55C162.619 52.966 163.363 52.174 164.851 52.174H167.119C168.607 52.174 169.351 52.966 169.351 54.55V55.648H166.957V54.244C166.957 54.148 166.921 54.064 166.849 53.992C166.789 53.92 166.711 53.884 166.615 53.884H165.481C165.385 53.884 165.301 53.92 165.229 53.992C165.169 54.064 165.139 54.148 165.139 54.244V62.092C165.139 62.188 165.169 62.272 165.229 62.344C165.301 62.416 165.385 62.452 165.481 62.452H166.615C166.711 62.452 166.789 62.416 166.849 62.344C166.921 62.272 166.957 62.188 166.957 62.092V59.374H166.021ZM175.366 52.174C176.854 52.174 177.598 52.966 177.598 54.55V64H175.078V60.094H173.26V64H170.74V54.55C170.74 52.966 171.484 52.174 172.972 52.174H175.366ZM173.26 58.15H175.078V54.244C175.078 54.148 175.042 54.064 174.97 53.992C174.91 53.92 174.832 53.884 174.736 53.884H173.602C173.506 53.884 173.422 53.92 173.35 53.992C173.29 54.064 173.26 54.148 173.26 54.244V58.15ZM181.978 64H179.458V54.55C179.458 52.966 180.202 52.174 181.69 52.174H183.022C183.898 52.174 184.522 52.462 184.894 53.038C185.242 52.462 185.866 52.174 186.766 52.174H188.098C189.586 52.174 190.33 52.966 190.33 54.55V64H187.81V54.334C187.81 54.238 187.774 54.154 187.702 54.082C187.642 54.01 187.564 53.974 187.468 53.974H186.496C186.4 53.974 186.316 54.01 186.244 54.082C186.184 54.154 186.154 54.238 186.154 54.334V64H183.634V54.334C183.634 54.238 183.598 54.154 183.526 54.082C183.466 54.01 183.388 53.974 183.292 53.974H182.32C182.224 53.974 182.14 54.01 182.068 54.082C182.008 54.154 181.978 54.238 181.978 54.334V64ZM194.582 61.912H197.372V64H192.062V52.354H197.372V54.406H194.582V57.142H197.192V59.122H194.582V61.912Z" fill="black"/>
</svg>
