<svg width="414" height="72" viewBox="0 0 414 72" fill="none" xmlns="http://www.w3.org/2000/svg">
<rect x="0.5" y="0.5" width="413" height="71" fill="#A19B00" stroke="black"/>
<rect x="0.5" y="0.5" width="71" height="71" fill="#869E00" stroke="black"/>
<mask id="path-3-inside-1_35_163" fill="white">
<path d="M103.088 19.736H98.832V18.104C98.832 17.9333 98.768 17.784 98.64 17.656C98.5333 17.528 98.3947 17.464 98.224 17.464H96.464C96.2933 17.464 96.144 17.528 96.016 17.656C95.9093 17.784 95.856 17.9333 95.856 18.104V21.784C95.856 21.9547 95.9093 22.104 96.016 22.232C96.144 22.36 96.2933 22.424 96.464 22.424H99.344C101.989 22.4667 103.312 23.8747 103.312 26.648V31.096C103.312 33.912 101.989 35.32 99.344 35.32H95.568C92.9227 35.32 91.6 33.912 91.6 31.096V28.952H95.856V31.256C95.856 31.4267 95.9093 31.576 96.016 31.704C96.144 31.832 96.2933 31.896 96.464 31.896H98.448C98.6187 31.896 98.7573 31.832 98.864 31.704C98.992 31.576 99.056 31.4267 99.056 31.256V27.192C99.056 27.0213 98.992 26.872 98.864 26.744C98.7573 26.616 98.6187 26.552 98.448 26.552H95.568C92.9227 26.552 91.6 25.144 91.6 22.328V18.2C91.6 15.384 92.9227 13.976 95.568 13.976H99.12C101.765 13.976 103.088 15.384 103.088 18.2V19.736ZM110.736 31.288H115.696V35H106.256V14.296H115.696V17.944H110.736V22.808H115.376V26.328H110.736V31.288ZM117.104 18.104V14.296H128.304V18.104H124.944V35H120.464V18.104H117.104ZM129.166 18.104V14.296H140.366V18.104H137.006V35H132.526V18.104H129.166ZM146.893 14.296V35H142.413V14.296H146.893ZM162.097 35H157.617V17.816C157.617 17.6453 157.553 17.496 157.425 17.368C157.318 17.24 157.18 17.176 157.009 17.176H155.281C155.11 17.176 154.961 17.24 154.833 17.368C154.726 17.496 154.673 17.6453 154.673 17.816V35H150.193V18.2C150.193 15.384 151.516 13.976 154.161 13.976H158.129C160.774 13.976 162.097 15.384 162.097 18.2V35ZM171.148 26.776V23.48H177.068V31.096C177.068 33.912 175.745 35.32 173.1 35.32H169.068C166.423 35.32 165.1 33.912 165.1 31.096V18.2C165.1 15.384 166.423 13.976 169.068 13.976H173.1C175.745 13.976 177.068 15.384 177.068 18.2V20.152H172.812V17.656C172.812 17.4853 172.748 17.336 172.62 17.208C172.513 17.08 172.375 17.016 172.204 17.016H170.188C170.017 17.016 169.868 17.08 169.74 17.208C169.633 17.336 169.58 17.4853 169.58 17.656V31.608C169.58 31.7787 169.633 31.928 169.74 32.056C169.868 32.184 170.017 32.248 170.188 32.248H172.204C172.375 32.248 172.513 32.184 172.62 32.056C172.748 31.928 172.812 31.7787 172.812 31.608V26.776H171.148ZM191.026 19.736H186.77V18.104C186.77 17.9333 186.706 17.784 186.578 17.656C186.471 17.528 186.332 17.464 186.161 17.464H184.402C184.231 17.464 184.082 17.528 183.954 17.656C183.847 17.784 183.794 17.9333 183.794 18.104V21.784C183.794 21.9547 183.847 22.104 183.954 22.232C184.082 22.36 184.231 22.424 184.402 22.424H187.282C189.927 22.4667 191.25 23.8747 191.25 26.648V31.096C191.25 33.912 189.927 35.32 187.282 35.32H183.506C180.86 35.32 179.538 33.912 179.538 31.096V28.952H183.794V31.256C183.794 31.4267 183.847 31.576 183.954 31.704C184.082 31.832 184.231 31.896 184.402 31.896H186.385C186.556 31.896 186.695 31.832 186.802 31.704C186.93 31.576 186.994 31.4267 186.994 31.256V27.192C186.994 27.0213 186.93 26.872 186.802 26.744C186.695 26.616 186.556 26.552 186.385 26.552H183.506C180.86 26.552 179.538 25.144 179.538 22.328V18.2C179.538 15.384 180.86 13.976 183.506 13.976H187.058C189.703 13.976 191.026 15.384 191.026 18.2V19.736Z"/>
</mask>
<path d="M103.088 19.736H98.832V18.104C98.832 17.9333 98.768 17.784 98.64 17.656C98.5333 17.528 98.3947 17.464 98.224 17.464H96.464C96.2933 17.464 96.144 17.528 96.016 17.656C95.9093 17.784 95.856 17.9333 95.856 18.104V21.784C95.856 21.9547 95.9093 22.104 96.016 22.232C96.144 22.36 96.2933 22.424 96.464 22.424H99.344C101.989 22.4667 103.312 23.8747 103.312 26.648V31.096C103.312 33.912 101.989 35.32 99.344 35.32H95.568C92.9227 35.32 91.6 33.912 91.6 31.096V28.952H95.856V31.256C95.856 31.4267 95.9093 31.576 96.016 31.704C96.144 31.832 96.2933 31.896 96.464 31.896H98.448C98.6187 31.896 98.7573 31.832 98.864 31.704C98.992 31.576 99.056 31.4267 99.056 31.256V27.192C99.056 27.0213 98.992 26.872 98.864 26.744C98.7573 26.616 98.6187 26.552 98.448 26.552H95.568C92.9227 26.552 91.6 25.144 91.6 22.328V18.2C91.6 15.384 92.9227 13.976 95.568 13.976H99.12C101.765 13.976 103.088 15.384 103.088 18.2V19.736ZM110.736 31.288H115.696V35H106.256V14.296H115.696V17.944H110.736V22.808H115.376V26.328H110.736V31.288ZM117.104 18.104V14.296H128.304V18.104H124.944V35H120.464V18.104H117.104ZM129.166 18.104V14.296H140.366V18.104H137.006V35H132.526V18.104H129.166ZM146.893 14.296V35H142.413V14.296H146.893ZM162.097 35H157.617V17.816C157.617 17.6453 157.553 17.496 157.425 17.368C157.318 17.24 157.18 17.176 157.009 17.176H155.281C155.11 17.176 154.961 17.24 154.833 17.368C154.726 17.496 154.673 17.6453 154.673 17.816V35H150.193V18.2C150.193 15.384 151.516 13.976 154.161 13.976H158.129C160.774 13.976 162.097 15.384 162.097 18.2V35ZM171.148 26.776V23.48H177.068V31.096C177.068 33.912 175.745 35.32 173.1 35.32H169.068C166.423 35.32 165.1 33.912 165.1 31.096V18.2C165.1 15.384 166.423 13.976 169.068 13.976H173.1C175.745 13.976 177.068 15.384 177.068 18.2V20.152H172.812V17.656C172.812 17.4853 172.748 17.336 172.62 17.208C172.513 17.08 172.375 17.016 172.204 17.016H170.188C170.017 17.016 169.868 17.08 169.74 17.208C169.633 17.336 169.58 17.4853 169.58 17.656V31.608C169.58 31.7787 169.633 31.928 169.74 32.056C169.868 32.184 170.017 32.248 170.188 32.248H172.204C172.375 32.248 172.513 32.184 172.62 32.056C172.748 31.928 172.812 31.7787 172.812 31.608V26.776H171.148ZM191.026 19.736H186.77V18.104C186.77 17.9333 186.706 17.784 186.578 17.656C186.471 17.528 186.332 17.464 186.161 17.464H184.402C184.231 17.464 184.082 17.528 183.954 17.656C183.847 17.784 183.794 17.9333 183.794 18.104V21.784C183.794 21.9547 183.847 22.104 183.954 22.232C184.082 22.36 184.231 22.424 184.402 22.424H187.282C189.927 22.4667 191.25 23.8747 191.25 26.648V31.096C191.25 33.912 189.927 35.32 187.282 35.32H183.506C180.86 35.32 179.538 33.912 179.538 31.096V28.952H183.794V31.256C183.794 31.4267 183.847 31.576 183.954 31.704C184.082 31.832 184.231 31.896 184.402 31.896H186.385C186.556 31.896 186.695 31.832 186.802 31.704C186.93 31.576 186.994 31.4267 186.994 31.256V27.192C186.994 27.0213 186.93 26.872 186.802 26.744C186.695 26.616 186.556 26.552 186.385 26.552H183.506C180.86 26.552 179.538 25.144 179.538 22.328V18.2C179.538 15.384 180.86 13.976 183.506 13.976H187.058C189.703 13.976 191.026 15.384 191.026 18.2V19.736Z" fill="black"/>
<path d="M103.088 19.736V20.736H104.088V19.736H103.088ZM98.832 19.736H97.832V20.736H98.832V19.736ZM98.64 17.656L97.8718 18.2962L97.9008 18.331L97.9329 18.3631L98.64 17.656ZM96.016 17.656L95.3089 16.9489L95.2768 16.981L95.2478 17.0158L96.016 17.656ZM96.016 22.232L95.2478 22.8722L95.2768 22.907L95.3089 22.9391L96.016 22.232ZM99.344 22.424L99.3601 21.4241L99.3521 21.424H99.344V22.424ZM91.6 28.952V27.952H90.6V28.952H91.6ZM95.856 28.952H96.856V27.952H95.856V28.952ZM96.016 31.704L95.2478 32.3442L95.2768 32.379L95.3089 32.4111L96.016 31.704ZM98.864 31.704L98.1569 30.9969L98.1248 31.029L98.0958 31.0638L98.864 31.704ZM98.864 26.744L98.0958 27.3842L98.1248 27.419L98.1569 27.4511L98.864 26.744ZM103.088 19.736V18.736H98.832V19.736V20.736H103.088V19.736ZM98.832 19.736H99.832V18.104H98.832H97.832V19.736H98.832ZM98.832 18.104H99.832C99.832 17.6508 99.65 17.2518 99.3471 16.9489L98.64 17.656L97.9329 18.3631C97.9172 18.3474 97.8884 18.3128 97.8649 18.2579C97.8408 18.2019 97.832 18.1471 97.832 18.104H98.832ZM98.64 17.656L99.4082 17.0158C99.1063 16.6535 98.6831 16.464 98.224 16.464V17.464V18.464C98.1817 18.464 98.1137 18.4554 98.0369 18.42C97.9595 18.3842 97.9047 18.3357 97.8718 18.2962L98.64 17.656ZM98.224 17.464V16.464H96.464V17.464V18.464H98.224V17.464ZM96.464 17.464V16.464C96.0108 16.464 95.6118 16.646 95.3089 16.9489L96.016 17.656L96.7231 18.3631C96.7074 18.3788 96.6728 18.4076 96.6179 18.4311C96.5619 18.4552 96.5071 18.464 96.464 18.464V17.464ZM96.016 17.656L95.2478 17.0158C94.9874 17.3282 94.856 17.7056 94.856 18.104H95.856H96.856C96.856 18.1245 96.8525 18.1591 96.8377 18.2003C96.8229 18.2419 96.8023 18.2745 96.7842 18.2962L96.016 17.656ZM95.856 18.104H94.856V21.784H95.856H96.856V18.104H95.856ZM95.856 21.784H94.856C94.856 22.1824 94.9874 22.5598 95.2478 22.8722L96.016 22.232L96.7842 21.5918C96.8023 21.6135 96.8229 21.6461 96.8377 21.6877C96.8525 21.7289 96.856 21.7635 96.856 21.784H95.856ZM96.016 22.232L95.3089 22.9391C95.6118 23.242 96.0108 23.424 96.464 23.424V22.424V21.424C96.5071 21.424 96.5619 21.4328 96.6179 21.4569C96.6728 21.4804 96.7074 21.5092 96.7231 21.5249L96.016 22.232ZM96.464 22.424V23.424H99.344V22.424V21.424H96.464V22.424ZM99.344 22.424L99.3279 23.4239C100.483 23.4425 101.175 23.7539 101.591 24.1967C102.015 24.648 102.312 25.4054 102.312 26.648H103.312H104.312C104.312 25.1173 103.948 23.784 103.049 22.8273C102.142 21.8621 100.85 21.4482 99.3601 21.4241L99.344 22.424ZM103.312 26.648H102.312V31.096H103.312H104.312V26.648H103.312ZM103.312 31.096H102.312C102.312 32.3649 102.013 33.1305 101.591 33.5793C101.181 34.0164 100.496 34.32 99.344 34.32V35.32V36.32C100.837 36.32 102.137 35.9196 103.049 34.9487C103.95 33.9895 104.312 32.6431 104.312 31.096H103.312ZM99.344 35.32V34.32H95.568V35.32V36.32H99.344V35.32ZM95.568 35.32V34.32C94.416 34.32 93.7315 34.0164 93.3208 33.5793C92.8992 33.1305 92.6 32.3649 92.6 31.096H91.6H90.6C90.6 32.6431 90.9621 33.9895 91.8632 34.9487C92.7752 35.9196 94.0746 36.32 95.568 36.32V35.32ZM91.6 31.096H92.6V28.952H91.6H90.6V31.096H91.6ZM91.6 28.952V29.952H95.856V28.952V27.952H91.6V28.952ZM95.856 28.952H94.856V31.256H95.856H96.856V28.952H95.856ZM95.856 31.256H94.856C94.856 31.6544 94.9874 32.0318 95.2478 32.3442L96.016 31.704L96.7842 31.0638C96.8023 31.0855 96.8229 31.1181 96.8377 31.1597C96.8525 31.2009 96.856 31.2355 96.856 31.256H95.856ZM96.016 31.704L95.3089 32.4111C95.6118 32.714 96.0108 32.896 96.464 32.896V31.896V30.896C96.5071 30.896 96.5619 30.9048 96.6179 30.9289C96.6728 30.9524 96.7074 30.9812 96.7231 30.9969L96.016 31.704ZM96.464 31.896V32.896H98.448V31.896V30.896H96.464V31.896ZM98.448 31.896V32.896C98.9071 32.896 99.3303 32.7065 99.6322 32.3442L98.864 31.704L98.0958 31.0638C98.1287 31.0243 98.1835 30.9758 98.2609 30.94C98.3377 30.9046 98.4057 30.896 98.448 30.896V31.896ZM98.864 31.704L99.5711 32.4111C99.874 32.1082 100.056 31.7092 100.056 31.256H99.056H98.056C98.056 31.2129 98.0648 31.1581 98.0889 31.1021C98.1124 31.0472 98.1412 31.0126 98.1569 30.9969L98.864 31.704ZM99.056 31.256H100.056V27.192H99.056H98.056V31.256H99.056ZM99.056 27.192H100.056C100.056 26.7388 99.874 26.3398 99.5711 26.0369L98.864 26.744L98.1569 27.4511C98.1412 27.4354 98.1124 27.4008 98.0889 27.3459C98.0648 27.2899 98.056 27.2351 98.056 27.192H99.056ZM98.864 26.744L99.6322 26.1038C99.3303 25.7415 98.9071 25.552 98.448 25.552V26.552V27.552C98.4057 27.552 98.3377 27.5434 98.2609 27.508C98.1835 27.4722 98.1287 27.4237 98.0958 27.3842L98.864 26.744ZM98.448 26.552V25.552H95.568V26.552V27.552H98.448V26.552ZM95.568 26.552V25.552C94.416 25.552 93.7315 25.2484 93.3208 24.8113C92.8992 24.3625 92.6 23.5969 92.6 22.328H91.6H90.6C90.6 23.8751 90.9621 25.2215 91.8632 26.1807C92.7752 27.1516 94.0746 27.552 95.568 27.552V26.552ZM91.6 22.328H92.6V18.2H91.6H90.6V22.328H91.6ZM91.6 18.2H92.6C92.6 16.9311 92.8992 16.1655 93.3208 15.7167C93.7315 15.2796 94.416 14.976 95.568 14.976V13.976V12.976C94.0746 12.976 92.7752 13.3764 91.8632 14.3473C90.9621 15.3065 90.6 16.6529 90.6 18.2H91.6ZM95.568 13.976V14.976H99.12V13.976V12.976H95.568V13.976ZM99.12 13.976V14.976C100.272 14.976 100.957 15.2796 101.367 15.7167C101.789 16.1655 102.088 16.9311 102.088 18.2H103.088H104.088C104.088 16.6529 103.726 15.3065 102.825 14.3473C101.913 13.3764 100.613 12.976 99.12 12.976V13.976ZM103.088 18.2H102.088V19.736H103.088H104.088V18.2H103.088ZM110.736 31.288H109.736V32.288H110.736V31.288ZM115.696 31.288H116.696V30.288H115.696V31.288ZM115.696 35V36H116.696V35H115.696ZM106.256 35H105.256V36H106.256V35ZM106.256 14.296V13.296H105.256V14.296H106.256ZM115.696 14.296H116.696V13.296H115.696V14.296ZM115.696 17.944V18.944H116.696V17.944H115.696ZM110.736 17.944V16.944H109.736V17.944H110.736ZM110.736 22.808H109.736V23.808H110.736V22.808ZM115.376 22.808H116.376V21.808H115.376V22.808ZM115.376 26.328V27.328H116.376V26.328H115.376ZM110.736 26.328V25.328H109.736V26.328H110.736ZM110.736 31.288V32.288H115.696V31.288V30.288H110.736V31.288ZM115.696 31.288H114.696V35H115.696H116.696V31.288H115.696ZM115.696 35V34H106.256V35V36H115.696V35ZM106.256 35H107.256V14.296H106.256H105.256V35H106.256ZM106.256 14.296V15.296H115.696V14.296V13.296H106.256V14.296ZM115.696 14.296H114.696V17.944H115.696H116.696V14.296H115.696ZM115.696 17.944V16.944H110.736V17.944V18.944H115.696V17.944ZM110.736 17.944H109.736V22.808H110.736H111.736V17.944H110.736ZM110.736 22.808V23.808H115.376V22.808V21.808H110.736V22.808ZM115.376 22.808H114.376V26.328H115.376H116.376V22.808H115.376ZM115.376 26.328V25.328H110.736V26.328V27.328H115.376V26.328ZM110.736 26.328H109.736V31.288H110.736H111.736V26.328H110.736ZM117.104 18.104H116.104V19.104H117.104V18.104ZM117.104 14.296V13.296H116.104V14.296H117.104ZM128.304 14.296H129.304V13.296H128.304V14.296ZM128.304 18.104V19.104H129.304V18.104H128.304ZM124.944 18.104V17.104H123.944V18.104H124.944ZM124.944 35V36H125.944V35H124.944ZM120.464 35H119.464V36H120.464V35ZM120.464 18.104H121.464V17.104H120.464V18.104ZM117.104 18.104H118.104V14.296H117.104H116.104V18.104H117.104ZM117.104 14.296V15.296H128.304V14.296V13.296H117.104V14.296ZM128.304 14.296H127.304V18.104H128.304H129.304V14.296H128.304ZM128.304 18.104V17.104H124.944V18.104V19.104H128.304V18.104ZM124.944 18.104H123.944V35H124.944H125.944V18.104H124.944ZM124.944 35V34H120.464V35V36H124.944V35ZM120.464 35H121.464V18.104H120.464H119.464V35H120.464ZM120.464 18.104V17.104H117.104V18.104V19.104H120.464V18.104ZM129.166 18.104H128.166V19.104H129.166V18.104ZM129.166 14.296V13.296H128.166V14.296H129.166ZM140.366 14.296H141.366V13.296H140.366V14.296ZM140.366 18.104V19.104H141.366V18.104H140.366ZM137.006 18.104V17.104H136.006V18.104H137.006ZM137.006 35V36H138.006V35H137.006ZM132.526 35H131.526V36H132.526V35ZM132.526 18.104H133.526V17.104H132.526V18.104ZM129.166 18.104H130.166V14.296H129.166H128.166V18.104H129.166ZM129.166 14.296V15.296H140.366V14.296V13.296H129.166V14.296ZM140.366 14.296H139.366V18.104H140.366H141.366V14.296H140.366ZM140.366 18.104V17.104H137.006V18.104V19.104H140.366V18.104ZM137.006 18.104H136.006V35H137.006H138.006V18.104H137.006ZM137.006 35V34H132.526V35V36H137.006V35ZM132.526 35H133.526V18.104H132.526H131.526V35H132.526ZM132.526 18.104V17.104H129.166V18.104V19.104H132.526V18.104ZM146.893 14.296H147.893V13.296H146.893V14.296ZM146.893 35V36H147.893V35H146.893ZM142.412 35H141.412V36H142.412V35ZM142.412 14.296V13.296H141.412V14.296H142.412ZM146.893 14.296H145.893V35H146.893H147.893V14.296H146.893ZM146.893 35V34H142.412V35V36H146.893V35ZM142.412 35H143.412V14.296H142.412H141.412V35H142.412ZM142.412 14.296V15.296H146.893V14.296V13.296H142.412V14.296ZM162.097 35V36H163.097V35H162.097ZM157.617 35H156.617V36H157.617V35ZM157.425 17.368L156.657 18.0082L156.686 18.043L156.718 18.0751L157.425 17.368ZM154.833 17.368L154.126 16.6609L154.094 16.693L154.065 16.7278L154.833 17.368ZM154.673 35V36H155.673V35H154.673ZM150.193 35H149.193V36H150.193V35ZM162.097 35V34H157.617V35V36H162.097V35ZM157.617 35H158.617V17.816H157.617H156.617V35H157.617ZM157.617 17.816H158.617C158.617 17.3628 158.435 16.9638 158.132 16.6609L157.425 17.368L156.718 18.0751C156.702 18.0594 156.673 18.0248 156.65 17.9699C156.626 17.9139 156.617 17.8591 156.617 17.816H157.617ZM157.425 17.368L158.193 16.7278C157.891 16.3655 157.468 16.176 157.009 16.176V17.176V18.176C156.967 18.176 156.899 18.1674 156.822 18.132C156.745 18.0962 156.69 18.0477 156.657 18.0082L157.425 17.368ZM157.009 17.176V16.176H155.281V17.176V18.176H157.009V17.176ZM155.281 17.176V16.176C154.828 16.176 154.429 16.358 154.126 16.6609L154.833 17.368L155.54 18.0751C155.524 18.0908 155.49 18.1196 155.435 18.1431C155.379 18.1672 155.324 18.176 155.281 18.176V17.176ZM154.833 17.368L154.065 16.7278C153.804 17.0402 153.673 17.4176 153.673 17.816H154.673H155.673C155.673 17.8365 155.669 17.8711 155.655 17.9123C155.64 17.9539 155.619 17.9865 155.601 18.0082L154.833 17.368ZM154.673 17.816H153.673V35H154.673H155.673V17.816H154.673ZM154.673 35V34H150.193V35V36H154.673V35ZM150.193 35H151.193V18.2H150.193H149.193V35H150.193ZM150.193 18.2H151.193C151.193 16.9311 151.492 16.1655 151.914 15.7167C152.324 15.2796 153.009 14.976 154.161 14.976V13.976V12.976C152.668 12.976 151.368 13.3764 150.456 14.3473C149.555 15.3065 149.193 16.6529 149.193 18.2H150.193ZM154.161 13.976V14.976H158.129V13.976V12.976H154.161V13.976ZM158.129 13.976V14.976C159.281 14.976 159.966 15.2796 160.376 15.7167C160.798 16.1655 161.097 16.9311 161.097 18.2H162.097H163.097C163.097 16.6529 162.735 15.3065 161.834 14.3473C160.922 13.3764 159.622 12.976 158.129 12.976V13.976ZM162.097 18.2H161.097V35H162.097H163.097V18.2H162.097ZM171.148 26.776H170.148V27.776H171.148V26.776ZM171.148 23.48V22.48H170.148V23.48H171.148ZM177.068 23.48H178.068V22.48H177.068V23.48ZM177.068 20.152V21.152H178.068V20.152H177.068ZM172.812 20.152H171.812V21.152H172.812V20.152ZM172.62 17.208L171.852 17.8482L171.881 17.883L171.913 17.9151L172.62 17.208ZM169.74 17.208L169.033 16.5009L169.001 16.533L168.972 16.5678L169.74 17.208ZM169.74 32.056L168.972 32.6962L169.001 32.731L169.033 32.7631L169.74 32.056ZM172.62 32.056L171.913 31.3489L171.881 31.381L171.852 31.4158L172.62 32.056ZM172.812 26.776H173.812V25.776H172.812V26.776ZM171.148 26.776H172.148V23.48H171.148H170.148V26.776H171.148ZM171.148 23.48V24.48H177.068V23.48V22.48H171.148V23.48ZM177.068 23.48H176.068V31.096H177.068H178.068V23.48H177.068ZM177.068 31.096H176.068C176.068 32.3649 175.769 33.1305 175.347 33.5793C174.937 34.0164 174.252 34.32 173.1 34.32V35.32V36.32C174.593 36.32 175.893 35.9196 176.805 34.9487C177.706 33.9895 178.068 32.6431 178.068 31.096H177.068ZM173.1 35.32V34.32H169.068V35.32V36.32H173.1V35.32ZM169.068 35.32V34.32C167.916 34.32 167.231 34.0164 166.821 33.5793C166.399 33.1305 166.1 32.3649 166.1 31.096H165.1H164.1C164.1 32.6431 164.462 33.9895 165.363 34.9487C166.275 35.9196 167.575 36.32 169.068 36.32V35.32ZM165.1 31.096H166.1V18.2H165.1H164.1V31.096H165.1ZM165.1 18.2H166.1C166.1 16.9311 166.399 16.1655 166.821 15.7167C167.231 15.2796 167.916 14.976 169.068 14.976V13.976V12.976C167.575 12.976 166.275 13.3764 165.363 14.3473C164.462 15.3065 164.1 16.6529 164.1 18.2H165.1ZM169.068 13.976V14.976H173.1V13.976V12.976H169.068V13.976ZM173.1 13.976V14.976C174.252 14.976 174.937 15.2796 175.347 15.7167C175.769 16.1655 176.068 16.9311 176.068 18.2H177.068H178.068C178.068 16.6529 177.706 15.3065 176.805 14.3473C175.893 13.3764 174.593 12.976 173.1 12.976V13.976ZM177.068 18.2H176.068V20.152H177.068H178.068V18.2H177.068ZM177.068 20.152V19.152H172.812V20.152V21.152H177.068V20.152ZM172.812 20.152H173.812V17.656H172.812H171.812V20.152H172.812ZM172.812 17.656H173.812C173.812 17.2028 173.63 16.8038 173.327 16.5009L172.62 17.208L171.913 17.9151C171.897 17.8994 171.868 17.8648 171.845 17.8099C171.821 17.7539 171.812 17.6991 171.812 17.656H172.812ZM172.62 17.208L173.388 16.5678C173.086 16.2055 172.663 16.016 172.204 16.016V17.016V18.016C172.162 18.016 172.094 18.0074 172.017 17.972C171.94 17.9362 171.885 17.8877 171.852 17.8482L172.62 17.208ZM172.204 17.016V16.016H170.188V17.016V18.016H172.204V17.016ZM170.188 17.016V16.016C169.735 16.016 169.336 16.198 169.033 16.5009L169.74 17.208L170.447 17.9151C170.431 17.9308 170.397 17.9596 170.342 17.9831C170.286 18.0072 170.231 18.016 170.188 18.016V17.016ZM169.74 17.208L168.972 16.5678C168.711 16.8802 168.58 17.2576 168.58 17.656H169.58H170.58C170.58 17.6765 170.576 17.7111 170.562 17.7523C170.547 17.7939 170.526 17.8265 170.508 17.8482L169.74 17.208ZM169.58 17.656H168.58V31.608H169.58H170.58V17.656H169.58ZM169.58 31.608H168.58C168.58 32.0064 168.711 32.3838 168.972 32.6962L169.74 32.056L170.508 31.4158C170.526 31.4375 170.547 31.4701 170.562 31.5117C170.576 31.5529 170.58 31.5875 170.58 31.608H169.58ZM169.74 32.056L169.033 32.7631C169.336 33.066 169.735 33.248 170.188 33.248V32.248V31.248C170.231 31.248 170.286 31.2568 170.342 31.2809C170.397 31.3044 170.431 31.3332 170.447 31.3489L169.74 32.056ZM170.188 32.248V33.248H172.204V32.248V31.248H170.188V32.248ZM172.204 32.248V33.248C172.663 33.248 173.086 33.0585 173.388 32.6962L172.62 32.056L171.852 31.4158C171.885 31.3763 171.94 31.3278 172.017 31.292C172.094 31.2566 172.162 31.248 172.204 31.248V32.248ZM172.62 32.056L173.327 32.7631C173.63 32.4602 173.812 32.0612 173.812 31.608H172.812H171.812C171.812 31.5649 171.821 31.5101 171.845 31.4541C171.868 31.3992 171.897 31.3646 171.913 31.3489L172.62 32.056ZM172.812 31.608H173.812V26.776H172.812H171.812V31.608H172.812ZM172.812 26.776V25.776H171.148V26.776V27.776H172.812V26.776ZM191.025 19.736V20.736H192.025V19.736H191.025ZM186.77 19.736H185.77V20.736H186.77V19.736ZM186.577 17.656L185.809 18.2962L185.838 18.331L185.87 18.3631L186.577 17.656ZM183.953 17.656L183.246 16.9489L183.214 16.981L183.185 17.0158L183.953 17.656ZM183.953 22.232L183.185 22.8722L183.214 22.907L183.246 22.9391L183.953 22.232ZM187.282 22.424L187.298 21.4241L187.29 21.424H187.282V22.424ZM179.537 28.952V27.952H178.537V28.952H179.537ZM183.794 28.952H184.794V27.952H183.794V28.952ZM183.953 31.704L183.185 32.3442L183.214 32.379L183.246 32.4111L183.953 31.704ZM186.801 31.704L186.094 30.9969L186.062 31.029L186.033 31.0638L186.801 31.704ZM186.801 26.744L186.033 27.3842L186.062 27.419L186.094 27.4511L186.801 26.744ZM191.025 19.736V18.736H186.77V19.736V20.736H191.025V19.736ZM186.77 19.736H187.77V18.104H186.77H185.77V19.736H186.77ZM186.77 18.104H187.77C187.77 17.6508 187.588 17.2518 187.285 16.9489L186.577 17.656L185.87 18.3631C185.855 18.3474 185.826 18.3128 185.802 18.2579C185.778 18.2019 185.77 18.1471 185.77 18.104H186.77ZM186.577 17.656L187.346 17.0158C187.044 16.6535 186.621 16.464 186.161 16.464V17.464V18.464C186.119 18.464 186.051 18.4554 185.974 18.42C185.897 18.3842 185.842 18.3357 185.809 18.2962L186.577 17.656ZM186.161 17.464V16.464H184.401V17.464V18.464H186.161V17.464ZM184.401 17.464V16.464C183.948 16.464 183.549 16.646 183.246 16.9489L183.953 17.656L184.661 18.3631C184.645 18.3788 184.61 18.4076 184.555 18.4311C184.499 18.4552 184.445 18.464 184.401 18.464V17.464ZM183.953 17.656L183.185 17.0158C182.925 17.3282 182.794 17.7056 182.794 18.104H183.794H184.794C184.794 18.1245 184.79 18.1591 184.775 18.2003C184.76 18.2419 184.74 18.2745 184.722 18.2962L183.953 17.656ZM183.794 18.104H182.794V21.784H183.794H184.794V18.104H183.794ZM183.794 21.784H182.794C182.794 22.1824 182.925 22.5598 183.185 22.8722L183.953 22.232L184.722 21.5918C184.74 21.6135 184.76 21.6461 184.775 21.6877C184.79 21.7289 184.794 21.7635 184.794 21.784H183.794ZM183.953 22.232L183.246 22.9391C183.549 23.242 183.948 23.424 184.401 23.424V22.424V21.424C184.445 21.424 184.499 21.4328 184.555 21.4569C184.61 21.4804 184.645 21.5092 184.661 21.5249L183.953 22.232ZM184.401 22.424V23.424H187.282V22.424V21.424H184.401V22.424ZM187.282 22.424L187.265 23.4239C188.42 23.4425 189.113 23.7539 189.529 24.1967C189.953 24.648 190.249 25.4054 190.249 26.648H191.249H192.249C192.249 25.1173 191.885 23.784 190.986 22.8273C190.08 21.8621 188.788 21.4482 187.298 21.4241L187.282 22.424ZM191.249 26.648H190.249V31.096H191.249H192.249V26.648H191.249ZM191.249 31.096H190.249C190.249 32.3649 189.95 33.1305 189.529 33.5793C189.118 34.0164 188.433 34.32 187.282 34.32V35.32V36.32C188.775 36.32 190.074 35.9196 190.986 34.9487C191.887 33.9895 192.249 32.6431 192.249 31.096H191.249ZM187.282 35.32V34.32H183.506V35.32V36.32H187.282V35.32ZM183.506 35.32V34.32C182.354 34.32 181.669 34.0164 181.258 33.5793C180.837 33.1305 180.537 32.3649 180.537 31.096H179.537H178.537C178.537 32.6431 178.9 33.9895 179.801 34.9487C180.713 35.9196 182.012 36.32 183.506 36.32V35.32ZM179.537 31.096H180.537V28.952H179.537H178.537V31.096H179.537ZM179.537 28.952V29.952H183.794V28.952V27.952H179.537V28.952ZM183.794 28.952H182.794V31.256H183.794H184.794V28.952H183.794ZM183.794 31.256H182.794C182.794 31.6544 182.925 32.0318 183.185 32.3442L183.953 31.704L184.722 31.0638C184.74 31.0855 184.76 31.1181 184.775 31.1597C184.79 31.2009 184.794 31.2355 184.794 31.256H183.794ZM183.953 31.704L183.246 32.4111C183.549 32.714 183.948 32.896 184.401 32.896V31.896V30.896C184.445 30.896 184.499 30.9048 184.555 30.9289C184.61 30.9524 184.645 30.9812 184.661 30.9969L183.953 31.704ZM184.401 31.896V32.896H186.385V31.896V30.896H184.401V31.896ZM186.385 31.896V32.896C186.845 32.896 187.268 32.7065 187.57 32.3442L186.801 31.704L186.033 31.0638C186.066 31.0243 186.121 30.9758 186.198 30.94C186.275 30.9046 186.343 30.896 186.385 30.896V31.896ZM186.801 31.704L187.509 32.4111C187.812 32.1082 187.993 31.7092 187.993 31.256H186.993H185.993C185.993 31.2129 186.002 31.1581 186.026 31.1021C186.05 31.0472 186.079 31.0126 186.094 30.9969L186.801 31.704ZM186.993 31.256H187.993V27.192H186.993H185.993V31.256H186.993ZM186.993 27.192H187.993C187.993 26.7388 187.812 26.3398 187.509 26.0369L186.801 26.744L186.094 27.4511C186.079 27.4354 186.05 27.4008 186.026 27.3459C186.002 27.2899 185.993 27.2351 185.993 27.192H186.993ZM186.801 26.744L187.57 26.1038C187.268 25.7415 186.845 25.552 186.385 25.552V26.552V27.552C186.343 27.552 186.275 27.5434 186.198 27.508C186.121 27.4722 186.066 27.4237 186.033 27.3842L186.801 26.744ZM186.385 26.552V25.552H183.506V26.552V27.552H186.385V26.552ZM183.506 26.552V25.552C182.354 25.552 181.669 25.2484 181.258 24.8113C180.837 24.3625 180.537 23.5969 180.537 22.328H179.537H178.537C178.537 23.8751 178.9 25.2215 179.801 26.1807C180.713 27.1516 182.012 27.552 183.506 27.552V26.552ZM179.537 22.328H180.537V18.2H179.537H178.537V22.328H179.537ZM179.537 18.2H180.537C180.537 16.9311 180.837 16.1655 181.258 15.7167C181.669 15.2796 182.354 14.976 183.506 14.976V13.976V12.976C182.012 12.976 180.713 13.3764 179.801 14.3473C178.9 15.3065 178.537 16.6529 178.537 18.2H179.537ZM183.506 13.976V14.976H187.058V13.976V12.976H183.506V13.976ZM187.058 13.976V14.976C188.209 14.976 188.894 15.2796 189.305 15.7167C189.726 16.1655 190.025 16.9311 190.025 18.2H191.025H192.025C192.025 16.6529 191.663 15.3065 190.762 14.3473C189.85 13.3764 188.551 12.976 187.058 12.976V13.976ZM191.025 18.2H190.025V19.736H191.025H192.025V18.2H191.025Z" fill="black" mask="url(#path-3-inside-1_35_163)"/>
<mask id="path-5-inside-2_35_163" fill="white">
<path d="M34.3128 31.2V44.096C34.3128 46.912 32.9901 48.32 30.3448 48.32H26.5368C23.8914 48.32 22.5688 46.912 22.5688 44.096V31.2C22.5688 28.384 23.8914 26.976 26.5368 26.976H30.3448C32.9901 26.976 34.3128 28.384 34.3128 31.2ZM29.9608 44.608V30.656C29.9608 30.4853 29.8968 30.336 29.7688 30.208C29.6621 30.08 29.5234 30.016 29.3528 30.016H27.5288C27.3581 30.016 27.2088 30.08 27.0808 30.208C26.9741 30.336 26.9208 30.4853 26.9208 30.656V44.608C26.9208 44.7787 26.9741 44.928 27.0808 45.056C27.2088 45.184 27.3581 45.248 27.5288 45.248H29.3528C29.5234 45.248 29.6621 45.184 29.7688 45.056C29.8968 44.928 29.9608 44.7787 29.9608 44.608ZM47.1488 37.408C48.1514 38.112 48.6528 39.3173 48.6528 41.024V44.096C48.6528 46.912 47.3301 48.32 44.6848 48.32H40.9088C38.2634 48.32 36.9408 46.912 36.9408 44.096V42.4H40.9408V44.288C40.9408 44.4587 40.9941 44.608 41.1008 44.736C41.2288 44.864 41.3781 44.928 41.5488 44.928H44.0768C44.2474 44.928 44.3861 44.864 44.4928 44.736C44.6208 44.608 44.6848 44.4587 44.6848 44.288V39.872C44.6848 39.7013 44.6208 39.552 44.4928 39.424C44.3861 39.296 44.2474 39.232 44.0768 39.232H40.7808V35.776H43.8848C44.0554 35.776 44.1941 35.712 44.3008 35.584C44.4288 35.456 44.4928 35.3067 44.4928 35.136V31.104C44.4928 30.9333 44.4288 30.784 44.3008 30.656C44.1941 30.528 44.0554 30.464 43.8848 30.464H41.7408C41.5701 30.464 41.4208 30.528 41.2928 30.656C41.1861 30.784 41.1328 30.9333 41.1328 31.104V33.152H37.1328V31.2C37.1328 28.384 38.4554 26.976 41.1008 26.976H44.4928C47.1381 26.976 48.4608 28.384 48.4608 31.2V33.952C48.4608 35.616 48.0234 36.768 47.1488 37.408Z"/>
</mask>
<path d="M34.3128 31.2V44.096C34.3128 46.912 32.9901 48.32 30.3448 48.32H26.5368C23.8914 48.32 22.5688 46.912 22.5688 44.096V31.2C22.5688 28.384 23.8914 26.976 26.5368 26.976H30.3448C32.9901 26.976 34.3128 28.384 34.3128 31.2ZM29.9608 44.608V30.656C29.9608 30.4853 29.8968 30.336 29.7688 30.208C29.6621 30.08 29.5234 30.016 29.3528 30.016H27.5288C27.3581 30.016 27.2088 30.08 27.0808 30.208C26.9741 30.336 26.9208 30.4853 26.9208 30.656V44.608C26.9208 44.7787 26.9741 44.928 27.0808 45.056C27.2088 45.184 27.3581 45.248 27.5288 45.248H29.3528C29.5234 45.248 29.6621 45.184 29.7688 45.056C29.8968 44.928 29.9608 44.7787 29.9608 44.608ZM47.1488 37.408C48.1514 38.112 48.6528 39.3173 48.6528 41.024V44.096C48.6528 46.912 47.3301 48.32 44.6848 48.32H40.9088C38.2634 48.32 36.9408 46.912 36.9408 44.096V42.4H40.9408V44.288C40.9408 44.4587 40.9941 44.608 41.1008 44.736C41.2288 44.864 41.3781 44.928 41.5488 44.928H44.0768C44.2474 44.928 44.3861 44.864 44.4928 44.736C44.6208 44.608 44.6848 44.4587 44.6848 44.288V39.872C44.6848 39.7013 44.6208 39.552 44.4928 39.424C44.3861 39.296 44.2474 39.232 44.0768 39.232H40.7808V35.776H43.8848C44.0554 35.776 44.1941 35.712 44.3008 35.584C44.4288 35.456 44.4928 35.3067 44.4928 35.136V31.104C44.4928 30.9333 44.4288 30.784 44.3008 30.656C44.1941 30.528 44.0554 30.464 43.8848 30.464H41.7408C41.5701 30.464 41.4208 30.528 41.2928 30.656C41.1861 30.784 41.1328 30.9333 41.1328 31.104V33.152H37.1328V31.2C37.1328 28.384 38.4554 26.976 41.1008 26.976H44.4928C47.1381 26.976 48.4608 28.384 48.4608 31.2V33.952C48.4608 35.616 48.0234 36.768 47.1488 37.408Z" fill="white"/>
<path d="M29.7687 30.208L29.0005 30.8482L29.0296 30.883L29.0616 30.9151L29.7687 30.208ZM27.0807 30.208L26.3736 29.5009L26.3416 29.533L26.3125 29.5678L27.0807 30.208ZM27.0807 45.056L26.3125 45.6962L26.3416 45.731L26.3736 45.7631L27.0807 45.056ZM29.7687 45.056L29.0616 44.3489L29.0296 44.381L29.0005 44.4158L29.7687 45.056ZM34.3128 31.2H33.3128V44.096H34.3128H35.3128V31.2H34.3128ZM34.3128 44.096H33.3128C33.3128 45.3649 33.0135 46.1305 32.5919 46.5793C32.1813 47.0164 31.4967 47.32 30.3447 47.32V48.32V49.32C31.8381 49.32 33.1375 48.9196 34.0496 47.9487C34.9506 46.9895 35.3128 45.6431 35.3128 44.096H34.3128ZM30.3447 48.32V47.32H26.5368V48.32V49.32H30.3447V48.32ZM26.5368 48.32V47.32C25.3848 47.32 24.7002 47.0164 24.2896 46.5793C23.868 46.1305 23.5688 45.3649 23.5688 44.096H22.5688H21.5688C21.5688 45.6431 21.9309 46.9895 22.8319 47.9487C23.744 48.9196 25.0434 49.32 26.5368 49.32V48.32ZM22.5688 44.096H23.5688V31.2H22.5688H21.5688V44.096H22.5688ZM22.5688 31.2H23.5688C23.5688 29.9311 23.868 29.1655 24.2896 28.7167C24.7002 28.2796 25.3848 27.976 26.5368 27.976V26.976V25.976C25.0434 25.976 23.744 26.3764 22.8319 27.3473C21.9309 28.3065 21.5688 29.6529 21.5688 31.2H22.5688ZM26.5368 26.976V27.976H30.3447V26.976V25.976H26.5368V26.976ZM30.3447 26.976V27.976C31.4967 27.976 32.1813 28.2796 32.5919 28.7167C33.0135 29.1655 33.3128 29.9311 33.3128 31.2H34.3128H35.3128C35.3128 29.6529 34.9506 28.3065 34.0496 27.3473C33.1375 26.3764 31.8381 25.976 30.3447 25.976V26.976ZM29.9608 44.608H30.9608V30.656H29.9608H28.9608V44.608H29.9608ZM29.9608 30.656H30.9608C30.9608 30.2028 30.7788 29.8038 30.4759 29.5009L29.7687 30.208L29.0616 30.9151C29.0459 30.8994 29.0171 30.8648 28.9936 30.8099C28.9696 30.7539 28.9608 30.6991 28.9608 30.656H29.9608ZM29.7687 30.208L30.537 29.5678C30.235 29.2055 29.8119 29.016 29.3528 29.016V30.016V31.016C29.3105 31.016 29.2424 31.0074 29.1657 30.972C29.0883 30.9362 29.0335 30.8877 29.0005 30.8482L29.7687 30.208ZM29.3528 30.016V29.016H27.5288V30.016V31.016H29.3528V30.016ZM27.5288 30.016V29.016C27.0755 29.016 26.6766 29.198 26.3736 29.5009L27.0807 30.208L27.7879 30.9151C27.7722 30.9308 27.7376 30.9596 27.6827 30.9831C27.6266 31.0072 27.5719 31.016 27.5288 31.016V30.016ZM27.0807 30.208L26.3125 29.5678C26.0522 29.8802 25.9207 30.2576 25.9207 30.656H26.9207H27.9207C27.9207 30.6765 27.9172 30.7111 27.9025 30.7523C27.8876 30.7939 27.867 30.8265 27.849 30.8482L27.0807 30.208ZM26.9207 30.656H25.9207V44.608H26.9207H27.9207V30.656H26.9207ZM26.9207 44.608H25.9207C25.9207 45.0064 26.0522 45.3838 26.3125 45.6962L27.0807 45.056L27.849 44.4158C27.867 44.4375 27.8876 44.4701 27.9025 44.5117C27.9172 44.5529 27.9207 44.5875 27.9207 44.608H26.9207ZM27.0807 45.056L26.3736 45.7631C26.6766 46.066 27.0755 46.248 27.5288 46.248V45.248V44.248C27.5719 44.248 27.6266 44.2568 27.6827 44.2809C27.7376 44.3044 27.7722 44.3332 27.7879 44.3489L27.0807 45.056ZM27.5288 45.248V46.248H29.3528V45.248V44.248H27.5288V45.248ZM29.3528 45.248V46.248C29.8119 46.248 30.235 46.0585 30.537 45.6962L29.7687 45.056L29.0005 44.4158C29.0335 44.3763 29.0883 44.3278 29.1657 44.292C29.2424 44.2566 29.3105 44.248 29.3528 44.248V45.248ZM29.7687 45.056L30.4759 45.7631C30.7788 45.4602 30.9608 45.0612 30.9608 44.608H29.9608H28.9608C28.9608 44.5649 28.9696 44.5101 28.9936 44.4541C29.0171 44.3992 29.0459 44.3646 29.0616 44.3489L29.7687 45.056ZM47.1488 37.408L46.5582 36.601L45.4324 37.4248L46.5741 38.2264L47.1488 37.408ZM36.9408 42.4V41.4H35.9408V42.4H36.9408ZM40.9408 42.4H41.9408V41.4H40.9408V42.4ZM41.1007 44.736L40.3325 45.3762L40.3616 45.411L40.3936 45.4431L41.1007 44.736ZM44.4928 44.736L43.7856 44.0289L43.7536 44.061L43.7245 44.0958L44.4928 44.736ZM44.4928 39.424L43.7245 40.0642L43.7536 40.099L43.7856 40.1311L44.4928 39.424ZM40.7808 39.232H39.7808V40.232H40.7808V39.232ZM40.7808 35.776V34.776H39.7808V35.776H40.7808ZM44.3008 35.584L43.5936 34.8769L43.5616 34.909L43.5325 34.9438L44.3008 35.584ZM44.3008 30.656L43.5325 31.2962L43.5616 31.331L43.5936 31.3631L44.3008 30.656ZM41.2928 30.656L40.5856 29.9489L40.5536 29.981L40.5245 30.0158L41.2928 30.656ZM41.1328 33.152V34.152H42.1328V33.152H41.1328ZM37.1327 33.152H36.1327V34.152H37.1327V33.152ZM47.1488 37.408L46.5741 38.2264C47.2141 38.6758 47.6528 39.5049 47.6528 41.024H48.6528H49.6528C49.6528 39.1298 49.0887 37.5482 47.7234 36.5896L47.1488 37.408ZM48.6528 41.024H47.6528V44.096H48.6528H49.6528V41.024H48.6528ZM48.6528 44.096H47.6528C47.6528 45.3649 47.3535 46.1305 46.9319 46.5793C46.5213 47.0164 45.8367 47.32 44.6847 47.32V48.32V49.32C46.1781 49.32 47.4775 48.9196 48.3896 47.9487C49.2906 46.9895 49.6528 45.6431 49.6528 44.096H48.6528ZM44.6847 48.32V47.32H40.9087V48.32V49.32H44.6847V48.32ZM40.9087 48.32V47.32C39.7568 47.32 39.0722 47.0164 38.6616 46.5793C38.24 46.1305 37.9408 45.3649 37.9408 44.096H36.9408H35.9408C35.9408 45.6431 36.3029 46.9895 37.2039 47.9487C38.116 48.9196 39.4154 49.32 40.9087 49.32V48.32ZM36.9408 44.096H37.9408V42.4H36.9408H35.9408V44.096H36.9408ZM36.9408 42.4V43.4H40.9408V42.4V41.4H36.9408V42.4ZM40.9408 42.4H39.9408V44.288H40.9408H41.9408V42.4H40.9408ZM40.9408 44.288H39.9408C39.9408 44.6864 40.0722 45.0638 40.3325 45.3762L41.1007 44.736L41.869 44.0958C41.887 44.1175 41.9076 44.1501 41.9225 44.1917C41.9372 44.2329 41.9408 44.2675 41.9408 44.288H40.9408ZM41.1007 44.736L40.3936 45.4431C40.6966 45.746 41.0955 45.928 41.5488 45.928V44.928V43.928C41.5919 43.928 41.6466 43.9368 41.7027 43.9609C41.7576 43.9844 41.7922 44.0132 41.8079 44.0289L41.1007 44.736ZM41.5488 44.928V45.928H44.0768V44.928V43.928H41.5488V44.928ZM44.0768 44.928V45.928C44.5359 45.928 44.959 45.7385 45.261 45.3762L44.4928 44.736L43.7245 44.0958C43.7575 44.0563 43.8123 44.0078 43.8897 43.972C43.9664 43.9366 44.0345 43.928 44.0768 43.928V44.928ZM44.4928 44.736L45.1999 45.4431C45.5028 45.1402 45.6847 44.7412 45.6847 44.288H44.6847H43.6847C43.6847 44.2449 43.6936 44.1901 43.7176 44.1341C43.7411 44.0792 43.7699 44.0446 43.7856 44.0289L44.4928 44.736ZM44.6847 44.288H45.6847V39.872H44.6847H43.6847V44.288H44.6847ZM44.6847 39.872H45.6847C45.6847 39.4188 45.5028 39.0198 45.1999 38.7169L44.4928 39.424L43.7856 40.1311C43.7699 40.1154 43.7411 40.0808 43.7176 40.0259C43.6936 39.9699 43.6847 39.9151 43.6847 39.872H44.6847ZM44.4928 39.424L45.261 38.7838C44.959 38.4215 44.5359 38.232 44.0768 38.232V39.232V40.232C44.0345 40.232 43.9664 40.2234 43.8897 40.188C43.8123 40.1522 43.7575 40.1037 43.7245 40.0642L44.4928 39.424ZM44.0768 39.232V38.232H40.7808V39.232V40.232H44.0768V39.232ZM40.7808 39.232H41.7808V35.776H40.7808H39.7808V39.232H40.7808ZM40.7808 35.776V36.776H43.8848V35.776V34.776H40.7808V35.776ZM43.8848 35.776V36.776C44.3439 36.776 44.767 36.5865 45.069 36.2242L44.3008 35.584L43.5325 34.9438C43.5655 34.9043 43.6203 34.8558 43.6977 34.82C43.7744 34.7846 43.8425 34.776 43.8848 34.776V35.776ZM44.3008 35.584L45.0079 36.2911C45.3108 35.9882 45.4928 35.5892 45.4928 35.136H44.4928H43.4928C43.4928 35.0929 43.5016 35.0381 43.5256 34.9821C43.5491 34.9272 43.5779 34.8926 43.5936 34.8769L44.3008 35.584ZM44.4928 35.136H45.4928V31.104H44.4928H43.4928V35.136H44.4928ZM44.4928 31.104H45.4928C45.4928 30.6508 45.3108 30.2518 45.0079 29.9489L44.3008 30.656L43.5936 31.3631C43.5779 31.3474 43.5491 31.3128 43.5256 31.2579C43.5016 31.2019 43.4928 31.1471 43.4928 31.104H44.4928ZM44.3008 30.656L45.069 30.0158C44.767 29.6535 44.3439 29.464 43.8848 29.464V30.464V31.464C43.8425 31.464 43.7744 31.4554 43.6977 31.42C43.6203 31.3842 43.5655 31.3357 43.5325 31.2962L44.3008 30.656ZM43.8848 30.464V29.464H41.7407V30.464V31.464H43.8848V30.464ZM41.7407 30.464V29.464C41.2875 29.464 40.8886 29.646 40.5856 29.9489L41.2928 30.656L41.9999 31.3631C41.9842 31.3788 41.9496 31.4076 41.8947 31.4311C41.8386 31.4552 41.7839 31.464 41.7407 31.464V30.464ZM41.2928 30.656L40.5245 30.0158C40.2642 30.3282 40.1328 30.7056 40.1328 31.104H41.1328H42.1328C42.1328 31.1245 42.1292 31.1591 42.1145 31.2003C42.0996 31.2419 42.079 31.2745 42.061 31.2962L41.2928 30.656ZM41.1328 31.104H40.1328V33.152H41.1328H42.1328V31.104H41.1328ZM41.1328 33.152V32.152H37.1327V33.152V34.152H41.1328V33.152ZM37.1327 33.152H38.1327V31.2H37.1327H36.1327V33.152H37.1327ZM37.1327 31.2H38.1327C38.1327 29.9311 38.432 29.1655 38.8536 28.7167C39.2642 28.2796 39.9488 27.976 41.1007 27.976V26.976V25.976C39.6074 25.976 38.308 26.3764 37.3959 27.3473C36.4949 28.3065 36.1327 29.6529 36.1327 31.2H37.1327ZM41.1007 26.976V27.976H44.4928V26.976V25.976H41.1007V26.976ZM44.4928 26.976V27.976C45.6447 27.976 46.3293 28.2796 46.7399 28.7167C47.1615 29.1655 47.4608 29.9311 47.4608 31.2H48.4608H49.4608C49.4608 29.6529 49.0986 28.3065 48.1976 27.3473C47.2855 26.3764 45.9861 25.976 44.4928 25.976V26.976ZM48.4608 31.2H47.4608V33.952H48.4608H49.4608V31.2H48.4608ZM48.4608 33.952H47.4608C47.4608 35.4731 47.0605 36.2334 46.5582 36.601L47.1488 37.408L47.7393 38.215C48.9863 37.3026 49.4608 35.7589 49.4608 33.952H48.4608Z" fill="black" mask="url(#path-5-inside-2_35_163)"/>
<mask id="path-7-inside-3_35_163" fill="white">
<path d="M95.238 62.092V60.292H97.632V61.804C97.632 63.388 96.888 64.18 95.4 64.18H93.132C91.644 64.18 90.9 63.388 90.9 61.804V54.55C90.9 52.966 91.644 52.174 93.132 52.174H95.4C96.888 52.174 97.632 52.966 97.632 54.55V55.648H95.238V54.244C95.238 54.148 95.202 54.064 95.13 53.992C95.07 53.92 94.992 53.884 94.896 53.884H93.762C93.666 53.884 93.582 53.92 93.51 53.992C93.45 54.064 93.42 54.148 93.42 54.244V62.092C93.42 62.188 93.45 62.272 93.51 62.344C93.582 62.416 93.666 62.452 93.762 62.452H94.896C94.992 62.452 95.07 62.416 95.13 62.344C95.202 62.272 95.238 62.188 95.238 62.092ZM106.002 54.55V61.804C106.002 63.388 105.258 64.18 103.77 64.18H101.376C99.8881 64.18 99.1441 63.388 99.1441 61.804V54.55C99.1441 52.966 99.8881 52.174 101.376 52.174H103.77C105.258 52.174 106.002 52.966 106.002 54.55ZM103.482 62.092V54.244C103.482 54.148 103.446 54.064 103.374 53.992C103.314 53.92 103.236 53.884 103.14 53.884H102.006C101.91 53.884 101.826 53.92 101.754 53.992C101.694 54.064 101.664 54.148 101.664 54.244V62.092C101.664 62.188 101.694 62.272 101.754 62.344C101.826 62.416 101.91 62.452 102.006 62.452H103.14C103.236 62.452 103.314 62.416 103.374 62.344C103.446 62.272 103.482 62.188 103.482 62.092ZM114.541 64H112.021V54.334C112.021 54.238 111.985 54.154 111.913 54.082C111.853 54.01 111.775 53.974 111.679 53.974H110.707C110.611 53.974 110.527 54.01 110.455 54.082C110.395 54.154 110.365 54.238 110.365 54.334V64H107.845V54.55C107.845 52.966 108.589 52.174 110.077 52.174H112.309C113.797 52.174 114.541 52.966 114.541 54.55V64ZM118.75 59.428V64H116.23V52.354H121.486V54.532H118.75V57.322H121.306V59.428H118.75ZM125.483 52.354V64H122.963V52.354H125.483ZM130.759 59.374V57.52H134.089V61.804C134.089 63.388 133.345 64.18 131.857 64.18H129.589C128.101 64.18 127.357 63.388 127.357 61.804V54.55C127.357 52.966 128.101 52.174 129.589 52.174H131.857C133.345 52.174 134.089 52.966 134.089 54.55V55.648H131.695V54.244C131.695 54.148 131.659 54.064 131.587 53.992C131.527 53.92 131.449 53.884 131.353 53.884H130.219C130.123 53.884 130.039 53.92 129.967 53.992C129.907 54.064 129.877 54.148 129.877 54.244V62.092C129.877 62.188 129.907 62.272 129.967 62.344C130.039 62.416 130.123 62.452 130.219 62.452H131.353C131.449 62.452 131.527 62.416 131.587 62.344C131.659 62.272 131.695 62.188 131.695 62.092V59.374H130.759ZM139.636 52.354H142.156V61.804C142.156 63.388 141.412 64.18 139.924 64.18H137.692C136.204 64.18 135.46 63.388 135.46 61.804V52.354H137.98V62.02C137.98 62.116 138.01 62.2 138.07 62.272C138.142 62.344 138.226 62.38 138.322 62.38H139.294C139.39 62.38 139.468 62.344 139.528 62.272C139.6 62.2 139.636 62.116 139.636 62.02V52.354ZM146.4 59.23V64H143.88V52.354H148.362C149.85 52.354 150.594 53.146 150.594 54.73V56.08C150.594 57.04 150.252 57.652 149.568 57.916C150.168 58.132 150.468 58.624 150.468 59.392V64H147.948V59.59C147.948 59.35 147.834 59.23 147.606 59.23H146.4ZM146.4 54.064V57.466H147.732C147.828 57.466 147.906 57.43 147.966 57.358C148.038 57.286 148.074 57.202 148.074 57.106V54.424C148.074 54.328 148.038 54.244 147.966 54.172C147.906 54.1 147.828 54.064 147.732 54.064H146.4ZM154.733 61.912H157.523V64H152.213V52.354H157.523V54.406H154.733V57.142H157.343V59.122H154.733V61.912ZM166.021 59.374V57.52H169.351V61.804C169.351 63.388 168.607 64.18 167.119 64.18H164.851C163.363 64.18 162.619 63.388 162.619 61.804V54.55C162.619 52.966 163.363 52.174 164.851 52.174H167.119C168.607 52.174 169.351 52.966 169.351 54.55V55.648H166.957V54.244C166.957 54.148 166.921 54.064 166.849 53.992C166.789 53.92 166.711 53.884 166.615 53.884H165.481C165.385 53.884 165.301 53.92 165.229 53.992C165.169 54.064 165.139 54.148 165.139 54.244V62.092C165.139 62.188 165.169 62.272 165.229 62.344C165.301 62.416 165.385 62.452 165.481 62.452H166.615C166.711 62.452 166.789 62.416 166.849 62.344C166.921 62.272 166.957 62.188 166.957 62.092V59.374H166.021ZM175.366 52.174C176.854 52.174 177.598 52.966 177.598 54.55V64H175.078V60.094H173.26V64H170.74V54.55C170.74 52.966 171.484 52.174 172.972 52.174H175.366ZM173.26 58.15H175.078V54.244C175.078 54.148 175.042 54.064 174.97 53.992C174.91 53.92 174.832 53.884 174.736 53.884H173.602C173.506 53.884 173.422 53.92 173.35 53.992C173.29 54.064 173.26 54.148 173.26 54.244V58.15ZM181.978 64H179.458V54.55C179.458 52.966 180.202 52.174 181.69 52.174H183.022C183.898 52.174 184.522 52.462 184.894 53.038C185.242 52.462 185.866 52.174 186.766 52.174H188.098C189.586 52.174 190.33 52.966 190.33 54.55V64H187.81V54.334C187.81 54.238 187.774 54.154 187.702 54.082C187.642 54.01 187.564 53.974 187.468 53.974H186.496C186.4 53.974 186.316 54.01 186.244 54.082C186.184 54.154 186.154 54.238 186.154 54.334V64H183.634V54.334C183.634 54.238 183.598 54.154 183.526 54.082C183.466 54.01 183.388 53.974 183.292 53.974H182.32C182.224 53.974 182.14 54.01 182.068 54.082C182.008 54.154 181.978 54.238 181.978 54.334V64ZM194.582 61.912H197.372V64H192.062V52.354H197.372V54.406H194.582V57.142H197.192V59.122H194.582V61.912Z"/>
</mask>
<path d="M95.238 62.092V60.292H97.632V61.804C97.632 63.388 96.888 64.18 95.4 64.18H93.132C91.644 64.18 90.9 63.388 90.9 61.804V54.55C90.9 52.966 91.644 52.174 93.132 52.174H95.4C96.888 52.174 97.632 52.966 97.632 54.55V55.648H95.238V54.244C95.238 54.148 95.202 54.064 95.13 53.992C95.07 53.92 94.992 53.884 94.896 53.884H93.762C93.666 53.884 93.582 53.92 93.51 53.992C93.45 54.064 93.42 54.148 93.42 54.244V62.092C93.42 62.188 93.45 62.272 93.51 62.344C93.582 62.416 93.666 62.452 93.762 62.452H94.896C94.992 62.452 95.07 62.416 95.13 62.344C95.202 62.272 95.238 62.188 95.238 62.092ZM106.002 54.55V61.804C106.002 63.388 105.258 64.18 103.77 64.18H101.376C99.8881 64.18 99.1441 63.388 99.1441 61.804V54.55C99.1441 52.966 99.8881 52.174 101.376 52.174H103.77C105.258 52.174 106.002 52.966 106.002 54.55ZM103.482 62.092V54.244C103.482 54.148 103.446 54.064 103.374 53.992C103.314 53.92 103.236 53.884 103.14 53.884H102.006C101.91 53.884 101.826 53.92 101.754 53.992C101.694 54.064 101.664 54.148 101.664 54.244V62.092C101.664 62.188 101.694 62.272 101.754 62.344C101.826 62.416 101.91 62.452 102.006 62.452H103.14C103.236 62.452 103.314 62.416 103.374 62.344C103.446 62.272 103.482 62.188 103.482 62.092ZM114.541 64H112.021V54.334C112.021 54.238 111.985 54.154 111.913 54.082C111.853 54.01 111.775 53.974 111.679 53.974H110.707C110.611 53.974 110.527 54.01 110.455 54.082C110.395 54.154 110.365 54.238 110.365 54.334V64H107.845V54.55C107.845 52.966 108.589 52.174 110.077 52.174H112.309C113.797 52.174 114.541 52.966 114.541 54.55V64ZM118.75 59.428V64H116.23V52.354H121.486V54.532H118.75V57.322H121.306V59.428H118.75ZM125.483 52.354V64H122.963V52.354H125.483ZM130.759 59.374V57.52H134.089V61.804C134.089 63.388 133.345 64.18 131.857 64.18H129.589C128.101 64.18 127.357 63.388 127.357 61.804V54.55C127.357 52.966 128.101 52.174 129.589 52.174H131.857C133.345 52.174 134.089 52.966 134.089 54.55V55.648H131.695V54.244C131.695 54.148 131.659 54.064 131.587 53.992C131.527 53.92 131.449 53.884 131.353 53.884H130.219C130.123 53.884 130.039 53.92 129.967 53.992C129.907 54.064 129.877 54.148 129.877 54.244V62.092C129.877 62.188 129.907 62.272 129.967 62.344C130.039 62.416 130.123 62.452 130.219 62.452H131.353C131.449 62.452 131.527 62.416 131.587 62.344C131.659 62.272 131.695 62.188 131.695 62.092V59.374H130.759ZM139.636 52.354H142.156V61.804C142.156 63.388 141.412 64.18 139.924 64.18H137.692C136.204 64.18 135.46 63.388 135.46 61.804V52.354H137.98V62.02C137.98 62.116 138.01 62.2 138.07 62.272C138.142 62.344 138.226 62.38 138.322 62.38H139.294C139.39 62.38 139.468 62.344 139.528 62.272C139.6 62.2 139.636 62.116 139.636 62.02V52.354ZM146.4 59.23V64H143.88V52.354H148.362C149.85 52.354 150.594 53.146 150.594 54.73V56.08C150.594 57.04 150.252 57.652 149.568 57.916C150.168 58.132 150.468 58.624 150.468 59.392V64H147.948V59.59C147.948 59.35 147.834 59.23 147.606 59.23H146.4ZM146.4 54.064V57.466H147.732C147.828 57.466 147.906 57.43 147.966 57.358C148.038 57.286 148.074 57.202 148.074 57.106V54.424C148.074 54.328 148.038 54.244 147.966 54.172C147.906 54.1 147.828 54.064 147.732 54.064H146.4ZM154.733 61.912H157.523V64H152.213V52.354H157.523V54.406H154.733V57.142H157.343V59.122H154.733V61.912ZM166.021 59.374V57.52H169.351V61.804C169.351 63.388 168.607 64.18 167.119 64.18H164.851C163.363 64.18 162.619 63.388 162.619 61.804V54.55C162.619 52.966 163.363 52.174 164.851 52.174H167.119C168.607 52.174 169.351 52.966 169.351 54.55V55.648H166.957V54.244C166.957 54.148 166.921 54.064 166.849 53.992C166.789 53.92 166.711 53.884 166.615 53.884H165.481C165.385 53.884 165.301 53.92 165.229 53.992C165.169 54.064 165.139 54.148 165.139 54.244V62.092C165.139 62.188 165.169 62.272 165.229 62.344C165.301 62.416 165.385 62.452 165.481 62.452H166.615C166.711 62.452 166.789 62.416 166.849 62.344C166.921 62.272 166.957 62.188 166.957 62.092V59.374H166.021ZM175.366 52.174C176.854 52.174 177.598 52.966 177.598 54.55V64H175.078V60.094H173.26V64H170.74V54.55C170.74 52.966 171.484 52.174 172.972 52.174H175.366ZM173.26 58.15H175.078V54.244C175.078 54.148 175.042 54.064 174.97 53.992C174.91 53.92 174.832 53.884 174.736 53.884H173.602C173.506 53.884 173.422 53.92 173.35 53.992C173.29 54.064 173.26 54.148 173.26 54.244V58.15ZM181.978 64H179.458V54.55C179.458 52.966 180.202 52.174 181.69 52.174H183.022C183.898 52.174 184.522 52.462 184.894 53.038C185.242 52.462 185.866 52.174 186.766 52.174H188.098C189.586 52.174 190.33 52.966 190.33 54.55V64H187.81V54.334C187.81 54.238 187.774 54.154 187.702 54.082C187.642 54.01 187.564 53.974 187.468 53.974H186.496C186.4 53.974 186.316 54.01 186.244 54.082C186.184 54.154 186.154 54.238 186.154 54.334V64H183.634V54.334C183.634 54.238 183.598 54.154 183.526 54.082C183.466 54.01 183.388 53.974 183.292 53.974H182.32C182.224 53.974 182.14 54.01 182.068 54.082C182.008 54.154 181.978 54.238 181.978 54.334V64ZM194.582 61.912H197.372V64H192.062V52.354H197.372V54.406H194.582V57.142H197.192V59.122H194.582V61.912Z" fill="black"/>
<path d="M95.238 60.292V59.292H94.238V60.292H95.238ZM97.632 60.292H98.632V59.292H97.632V60.292ZM97.632 55.648V56.648H98.632V55.648H97.632ZM95.238 55.648H94.238V56.648H95.238V55.648ZM95.13 53.992L94.3618 54.6322L94.3908 54.667L94.4229 54.6991L95.13 53.992ZM93.51 53.992L92.8029 53.2849L92.7708 53.317L92.7418 53.3518L93.51 53.992ZM93.51 62.344L92.7418 62.9842L92.7708 63.019L92.8029 63.0511L93.51 62.344ZM95.13 62.344L94.4229 61.6369L94.3908 61.669L94.3618 61.7038L95.13 62.344ZM95.238 62.092H96.238V60.292H95.238H94.238V62.092H95.238ZM95.238 60.292V61.292H97.632V60.292V59.292H95.238V60.292ZM97.632 60.292H96.632V61.804H97.632H98.632V60.292H97.632ZM97.632 61.804H96.632C96.632 62.4569 96.4775 62.7605 96.3452 62.9013C96.2239 63.0304 95.9733 63.18 95.4 63.18V64.18V65.18C96.3147 65.18 97.1801 64.9336 97.8028 64.2707C98.4145 63.6195 98.632 62.7351 98.632 61.804H97.632ZM95.4 64.18V63.18H93.132V64.18V65.18H95.4V64.18ZM93.132 64.18V63.18C92.5587 63.18 92.3081 63.0304 92.1868 62.9013C92.0545 62.7605 91.9 62.4569 91.9 61.804H90.9H89.9C89.9 62.7351 90.1175 63.6195 90.7292 64.2707C91.3519 64.9336 92.2173 65.18 93.132 65.18V64.18ZM90.9 61.804H91.9V54.55H90.9H89.9V61.804H90.9ZM90.9 54.55H91.9C91.9 53.8971 92.0545 53.5935 92.1868 53.4527C92.3081 53.3236 92.5587 53.174 93.132 53.174V52.174V51.174C92.2173 51.174 91.3519 51.4204 90.7292 52.0833C90.1175 52.7345 89.9 53.6189 89.9 54.55H90.9ZM93.132 52.174V53.174H95.4V52.174V51.174H93.132V52.174ZM95.4 52.174V53.174C95.9733 53.174 96.2239 53.3236 96.3452 53.4527C96.4775 53.5935 96.632 53.8971 96.632 54.55H97.632H98.632C98.632 53.6189 98.4145 52.7345 97.8028 52.0833C97.1801 51.4204 96.3147 51.174 95.4 51.174V52.174ZM97.632 54.55H96.632V55.648H97.632H98.632V54.55H97.632ZM97.632 55.648V54.648H95.238V55.648V56.648H97.632V55.648ZM95.238 55.648H96.238V54.244H95.238H94.238V55.648H95.238ZM95.238 54.244H96.238C96.238 53.8654 96.084 53.5318 95.8371 53.2849L95.13 53.992L94.4229 54.6991C94.3792 54.6554 94.3294 54.5905 94.2919 54.5029C94.2538 54.4142 94.238 54.3245 94.238 54.244H95.238ZM95.13 53.992L95.8982 53.3518C95.643 53.0455 95.2805 52.884 94.896 52.884V53.884V54.884C94.8164 54.884 94.7145 54.8684 94.6074 54.819C94.4997 54.7692 94.4181 54.6997 94.3618 54.6322L95.13 53.992ZM94.896 53.884V52.884H93.762V53.884V54.884H94.896V53.884ZM93.762 53.884V52.884C93.3834 52.884 93.0498 53.038 92.8029 53.2849L93.51 53.992L94.2171 54.6991C94.1734 54.7428 94.1085 54.7926 94.0209 54.8301C93.9322 54.8682 93.8425 54.884 93.762 54.884V53.884ZM93.51 53.992L92.7418 53.3518C92.5281 53.6082 92.42 53.9203 92.42 54.244H93.42H94.42C94.42 54.3019 94.4106 54.3714 94.3842 54.4453C94.3577 54.5196 94.3196 54.5825 94.2782 54.6322L93.51 53.992ZM93.42 54.244H92.42V62.092H93.42H94.42V54.244H93.42ZM93.42 62.092H92.42C92.42 62.4157 92.5281 62.7278 92.7418 62.9842L93.51 62.344L94.2782 61.7038C94.3196 61.7535 94.3577 61.8164 94.3842 61.8907C94.4106 61.9646 94.42 62.0341 94.42 62.092H93.42ZM93.51 62.344L92.8029 63.0511C93.0498 63.298 93.3834 63.452 93.762 63.452V62.452V61.452C93.8425 61.452 93.9322 61.4678 94.0209 61.5059C94.1085 61.5434 94.1734 61.5932 94.2171 61.6369L93.51 62.344ZM93.762 62.452V63.452H94.896V62.452V61.452H93.762V62.452ZM94.896 62.452V63.452C95.2805 63.452 95.643 63.2905 95.8982 62.9842L95.13 62.344L94.3618 61.7038C94.4181 61.6363 94.4997 61.5668 94.6074 61.517C94.7145 61.4676 94.8164 61.452 94.896 61.452V62.452ZM95.13 62.344L95.8371 63.0511C96.084 62.8042 96.238 62.4706 96.238 62.092H95.238H94.238C94.238 62.0115 94.2538 61.9218 94.2919 61.8331C94.3294 61.7455 94.3792 61.6806 94.4229 61.6369L95.13 62.344ZM103.374 53.992L102.606 54.6322L102.635 54.667L102.667 54.6991L103.374 53.992ZM101.754 53.992L101.047 53.2849L101.015 53.317L100.986 53.3518L101.754 53.992ZM101.754 62.344L100.986 62.9842L101.015 63.019L101.047 63.0511L101.754 62.344ZM103.374 62.344L102.667 61.6369L102.635 61.669L102.606 61.7038L103.374 62.344ZM106.002 54.55H105.002V61.804H106.002H107.002V54.55H106.002ZM106.002 61.804H105.002C105.002 62.4569 104.848 62.7605 104.715 62.9013C104.594 63.0304 104.343 63.18 103.77 63.18V64.18V65.18C104.685 65.18 105.55 64.9336 106.173 64.2707C106.785 63.6195 107.002 62.7351 107.002 61.804H106.002ZM103.77 64.18V63.18H101.376V64.18V65.18H103.77V64.18ZM101.376 64.18V63.18C100.803 63.18 100.552 63.0304 100.431 62.9013C100.299 62.7605 100.144 62.4569 100.144 61.804H99.1441H98.1441C98.1441 62.7351 98.3616 63.6195 98.9733 64.2707C99.596 64.9336 100.461 65.18 101.376 65.18V64.18ZM99.1441 61.804H100.144V54.55H99.1441H98.1441V61.804H99.1441ZM99.1441 54.55H100.144C100.144 53.8971 100.299 53.5935 100.431 53.4527C100.552 53.3236 100.803 53.174 101.376 53.174V52.174V51.174C100.461 51.174 99.596 51.4204 98.9733 52.0833C98.3616 52.7345 98.1441 53.6189 98.1441 54.55H99.1441ZM101.376 52.174V53.174H103.77V52.174V51.174H101.376V52.174ZM103.77 52.174V53.174C104.343 53.174 104.594 53.3236 104.715 53.4527C104.848 53.5935 105.002 53.8971 105.002 54.55H106.002H107.002C107.002 53.6189 106.785 52.7345 106.173 52.0833C105.55 51.4204 104.685 51.174 103.77 51.174V52.174ZM103.482 62.092H104.482V54.244H103.482H102.482V62.092H103.482ZM103.482 54.244H104.482C104.482 53.8654 104.328 53.5318 104.081 53.2849L103.374 53.992L102.667 54.6991C102.623 54.6554 102.574 54.5905 102.536 54.5029C102.498 54.4142 102.482 54.3245 102.482 54.244H103.482ZM103.374 53.992L104.142 53.3518C103.887 53.0455 103.525 52.884 103.14 52.884V53.884V54.884C103.061 54.884 102.959 54.8684 102.852 54.819C102.744 54.7692 102.662 54.6997 102.606 54.6322L103.374 53.992ZM103.14 53.884V52.884H102.006V53.884V54.884H103.14V53.884ZM102.006 53.884V52.884C101.628 52.884 101.294 53.038 101.047 53.2849L101.754 53.992L102.461 54.6991C102.418 54.7428 102.353 54.7926 102.265 54.8301C102.176 54.8682 102.087 54.884 102.006 54.884V53.884ZM101.754 53.992L100.986 53.3518C100.772 53.6082 100.664 53.9203 100.664 54.244H101.664H102.664C102.664 54.3019 102.655 54.3714 102.628 54.4453C102.602 54.5196 102.564 54.5825 102.522 54.6322L101.754 53.992ZM101.664 54.244H100.664V62.092H101.664H102.664V54.244H101.664ZM101.664 62.092H100.664C100.664 62.4157 100.772 62.7278 100.986 62.9842L101.754 62.344L102.522 61.7038C102.564 61.7535 102.602 61.8164 102.628 61.8907C102.655 61.9646 102.664 62.0341 102.664 62.092H101.664ZM101.754 62.344L101.047 63.0511C101.294 63.298 101.628 63.452 102.006 63.452V62.452V61.452C102.087 61.452 102.176 61.4678 102.265 61.5059C102.353 61.5434 102.418 61.5932 102.461 61.6369L101.754 62.344ZM102.006 62.452V63.452H103.14V62.452V61.452H102.006V62.452ZM103.14 62.452V63.452C103.525 63.452 103.887 63.2905 104.142 62.9842L103.374 62.344L102.606 61.7038C102.662 61.6363 102.744 61.5668 102.852 61.517C102.959 61.4676 103.061 61.452 103.14 61.452V62.452ZM103.374 62.344L104.081 63.0511C104.328 62.8042 104.482 62.4706 104.482 62.092H103.482H102.482C102.482 62.0115 102.498 61.9218 102.536 61.8331C102.574 61.7455 102.623 61.6806 102.667 61.6369L103.374 62.344ZM114.541 64V65H115.541V64H114.541ZM112.021 64H111.021V65H112.021V64ZM111.913 54.082L111.145 54.7222L111.174 54.757L111.206 54.7891L111.913 54.082ZM110.455 54.082L109.748 53.3749L109.716 53.407L109.687 53.4418L110.455 54.082ZM110.365 64V65H111.365V64H110.365ZM107.845 64H106.845V65H107.845V64ZM114.541 64V63H112.021V64V65H114.541V64ZM112.021 64H113.021V54.334H112.021H111.021V64H112.021ZM112.021 54.334H113.021C113.021 53.9554 112.867 53.6218 112.62 53.3749L111.913 54.082L111.206 54.7891C111.162 54.7454 111.112 54.6805 111.075 54.5929C111.037 54.5042 111.021 54.4145 111.021 54.334H112.021ZM111.913 54.082L112.681 53.4418C112.426 53.1355 112.063 52.974 111.679 52.974V53.974V54.974C111.599 54.974 111.497 54.9584 111.39 54.909C111.283 54.8592 111.201 54.7897 111.145 54.7222L111.913 54.082ZM111.679 53.974V52.974H110.707V53.974V54.974H111.679V53.974ZM110.707 53.974V52.974C110.328 52.974 109.995 53.128 109.748 53.3749L110.455 54.082L111.162 54.7891C111.118 54.8328 111.053 54.8826 110.966 54.9201C110.877 54.9582 110.787 54.974 110.707 54.974V53.974ZM110.455 54.082L109.687 53.4418C109.473 53.6982 109.365 54.0103 109.365 54.334H110.365H111.365C111.365 54.3919 111.356 54.4614 111.329 54.5353C111.303 54.6096 111.264 54.6725 111.223 54.7222L110.455 54.082ZM110.365 54.334H109.365V64H110.365H111.365V54.334H110.365ZM110.365 64V63H107.845V64V65H110.365V64ZM107.845 64H108.845V54.55H107.845H106.845V64H107.845ZM107.845 54.55H108.845C108.845 53.8971 108.999 53.5935 109.132 53.4527C109.253 53.3236 109.504 53.174 110.077 53.174V52.174V51.174C109.162 51.174 108.297 51.4204 107.674 52.0833C107.062 52.7345 106.845 53.6189 106.845 54.55H107.845ZM110.077 52.174V53.174H112.309V52.174V51.174H110.077V52.174ZM112.309 52.174V53.174C112.882 53.174 113.133 53.3236 113.254 53.4527C113.386 53.5935 113.541 53.8971 113.541 54.55H114.541H115.541C115.541 53.6189 115.323 52.7345 114.712 52.0833C114.089 51.4204 113.224 51.174 112.309 51.174V52.174ZM114.541 54.55H113.541V64H114.541H115.541V54.55H114.541ZM118.75 59.428V58.428H117.75V59.428H118.75ZM118.75 64V65H119.75V64H118.75ZM116.23 64H115.23V65H116.23V64ZM116.23 52.354V51.354H115.23V52.354H116.23ZM121.486 52.354H122.486V51.354H121.486V52.354ZM121.486 54.532V55.532H122.486V54.532H121.486ZM118.75 54.532V53.532H117.75V54.532H118.75ZM118.75 57.322H117.75V58.322H118.75V57.322ZM121.306 57.322H122.306V56.322H121.306V57.322ZM121.306 59.428V60.428H122.306V59.428H121.306ZM118.75 59.428H117.75V64H118.75H119.75V59.428H118.75ZM118.75 64V63H116.23V64V65H118.75V64ZM116.23 64H117.23V52.354H116.23H115.23V64H116.23ZM116.23 52.354V53.354H121.486V52.354V51.354H116.23V52.354ZM121.486 52.354H120.486V54.532H121.486H122.486V52.354H121.486ZM121.486 54.532V53.532H118.75V54.532V55.532H121.486V54.532ZM118.75 54.532H117.75V57.322H118.75H119.75V54.532H118.75ZM118.75 57.322V58.322H121.306V57.322V56.322H118.75V57.322ZM121.306 57.322H120.306V59.428H121.306H122.306V57.322H121.306ZM121.306 59.428V58.428H118.75V59.428V60.428H121.306V59.428ZM125.483 52.354H126.482V51.354H125.483V52.354ZM125.483 64V65H126.482V64H125.483ZM122.963 64H121.962V65H122.963V64ZM122.963 52.354V51.354H121.962V52.354H122.963ZM125.483 52.354H124.483V64H125.483H126.482V52.354H125.483ZM125.483 64V63H122.963V64V65H125.483V64ZM122.963 64H123.963V52.354H122.963H121.962V64H122.963ZM122.963 52.354V53.354H125.483V52.354V51.354H122.963V52.354ZM130.759 59.374H129.759V60.374H130.759V59.374ZM130.759 57.52V56.52H129.759V57.52H130.759ZM134.089 57.52H135.089V56.52H134.089V57.52ZM134.089 55.648V56.648H135.089V55.648H134.089ZM131.695 55.648H130.695V56.648H131.695V55.648ZM131.587 53.992L130.819 54.6322L130.848 54.667L130.88 54.6991L131.587 53.992ZM129.967 53.992L129.26 53.2849L129.228 53.317L129.199 53.3518L129.967 53.992ZM129.967 62.344L129.199 62.9842L129.228 63.019L129.26 63.0511L129.967 62.344ZM131.587 62.344L130.88 61.6369L130.848 61.669L130.819 61.7038L131.587 62.344ZM131.695 59.374H132.695V58.374H131.695V59.374ZM130.759 59.374H131.759V57.52H130.759H129.759V59.374H130.759ZM130.759 57.52V58.52H134.089V57.52V56.52H130.759V57.52ZM134.089 57.52H133.089V61.804H134.089H135.089V57.52H134.089ZM134.089 61.804H133.089C133.089 62.4569 132.934 62.7605 132.802 62.9013C132.681 63.0304 132.43 63.18 131.857 63.18V64.18V65.18C132.772 65.18 133.637 64.9336 134.26 64.2707C134.872 63.6195 135.089 62.7351 135.089 61.804H134.089ZM131.857 64.18V63.18H129.589V64.18V65.18H131.857V64.18ZM129.589 64.18V63.18C129.016 63.18 128.765 63.0304 128.644 62.9013C128.512 62.7605 128.357 62.4569 128.357 61.804H127.357H126.357C126.357 62.7351 126.574 63.6195 127.186 64.2707C127.809 64.9336 128.674 65.18 129.589 65.18V64.18ZM127.357 61.804H128.357V54.55H127.357H126.357V61.804H127.357ZM127.357 54.55H128.357C128.357 53.8971 128.512 53.5935 128.644 53.4527C128.765 53.3236 129.016 53.174 129.589 53.174V52.174V51.174C128.674 51.174 127.809 51.4204 127.186 52.0833C126.574 52.7345 126.357 53.6189 126.357 54.55H127.357ZM129.589 52.174V53.174H131.857V52.174V51.174H129.589V52.174ZM131.857 52.174V53.174C132.43 53.174 132.681 53.3236 132.802 53.4527C132.934 53.5935 133.089 53.8971 133.089 54.55H134.089H135.089C135.089 53.6189 134.872 52.7345 134.26 52.0833C133.637 51.4204 132.772 51.174 131.857 51.174V52.174ZM134.089 54.55H133.089V55.648H134.089H135.089V54.55H134.089ZM134.089 55.648V54.648H131.695V55.648V56.648H134.089V55.648ZM131.695 55.648H132.695V54.244H131.695H130.695V55.648H131.695ZM131.695 54.244H132.695C132.695 53.8654 132.541 53.5318 132.294 53.2849L131.587 53.992L130.88 54.6991C130.836 54.6554 130.786 54.5905 130.749 54.5029C130.711 54.4142 130.695 54.3245 130.695 54.244H131.695ZM131.587 53.992L132.355 53.3518C132.1 53.0455 131.737 52.884 131.353 52.884V53.884V54.884C131.273 54.884 131.172 54.8684 131.064 54.819C130.957 54.7692 130.875 54.6997 130.819 54.6322L131.587 53.992ZM131.353 53.884V52.884H130.219V53.884V54.884H131.353V53.884ZM130.219 53.884V52.884C129.84 52.884 129.507 53.038 129.26 53.2849L129.967 53.992L130.674 54.6991C130.63 54.7428 130.566 54.7926 130.478 54.8301C130.389 54.8682 130.299 54.884 130.219 54.884V53.884ZM129.967 53.992L129.199 53.3518C128.985 53.6082 128.877 53.9203 128.877 54.244H129.877H130.877C130.877 54.3019 130.868 54.3714 130.841 54.4453C130.815 54.5196 130.777 54.5825 130.735 54.6322L129.967 53.992ZM129.877 54.244H128.877V62.092H129.877H130.877V54.244H129.877ZM129.877 62.092H128.877C128.877 62.4157 128.985 62.7278 129.199 62.9842L129.967 62.344L130.735 61.7038C130.777 61.7535 130.815 61.8164 130.841 61.8907C130.868 61.9646 130.877 62.0341 130.877 62.092H129.877ZM129.967 62.344L129.26 63.0511C129.507 63.298 129.84 63.452 130.219 63.452V62.452V61.452C130.299 61.452 130.389 61.4678 130.478 61.5059C130.566 61.5434 130.63 61.5932 130.674 61.6369L129.967 62.344ZM130.219 62.452V63.452H131.353V62.452V61.452H130.219V62.452ZM131.353 62.452V63.452C131.737 63.452 132.1 63.2905 132.355 62.9842L131.587 62.344L130.819 61.7038C130.875 61.6363 130.957 61.5668 131.064 61.517C131.172 61.4676 131.273 61.452 131.353 61.452V62.452ZM131.587 62.344L132.294 63.0511C132.541 62.8042 132.695 62.4706 132.695 62.092H131.695H130.695C130.695 62.0115 130.711 61.9218 130.749 61.8331C130.786 61.7455 130.836 61.6806 130.88 61.6369L131.587 62.344ZM131.695 62.092H132.695V59.374H131.695H130.695V62.092H131.695ZM131.695 59.374V58.374H130.759V59.374V60.374H131.695V59.374ZM139.636 52.354V51.354H138.636V52.354H139.636ZM142.156 52.354H143.156V51.354H142.156V52.354ZM135.46 52.354V51.354H134.46V52.354H135.46ZM137.98 52.354H138.98V51.354H137.98V52.354ZM138.07 62.272L137.302 62.9122L137.331 62.947L137.363 62.9791L138.07 62.272ZM139.528 62.272L138.821 61.5649L138.789 61.597L138.76 61.6318L139.528 62.272ZM139.636 52.354V53.354H142.156V52.354V51.354H139.636V52.354ZM142.156 52.354H141.156V61.804H142.156H143.156V52.354H142.156ZM142.156 61.804H141.156C141.156 62.4569 141.002 62.7605 140.869 62.9013C140.748 63.0304 140.497 63.18 139.924 63.18V64.18V65.18C140.839 65.18 141.704 64.9336 142.327 64.2707C142.939 63.6195 143.156 62.7351 143.156 61.804H142.156ZM139.924 64.18V63.18H137.692V64.18V65.18H139.924V64.18ZM137.692 64.18V63.18C137.119 63.18 136.868 63.0304 136.747 62.9013C136.615 62.7605 136.46 62.4569 136.46 61.804H135.46H134.46C134.46 62.7351 134.678 63.6195 135.289 64.2707C135.912 64.9336 136.777 65.18 137.692 65.18V64.18ZM135.46 61.804H136.46V52.354H135.46H134.46V61.804H135.46ZM135.46 52.354V53.354H137.98V52.354V51.354H135.46V52.354ZM137.98 52.354H136.98V62.02H137.98H138.98V52.354H137.98ZM137.98 62.02H136.98C136.98 62.3437 137.088 62.6558 137.302 62.9122L138.07 62.272L138.838 61.6318C138.88 61.6815 138.918 61.7444 138.944 61.8187C138.971 61.8926 138.98 61.9621 138.98 62.02H137.98ZM138.07 62.272L137.363 62.9791C137.61 63.226 137.944 63.38 138.322 63.38V62.38V61.38C138.403 61.38 138.492 61.3958 138.581 61.4339C138.669 61.4714 138.734 61.5212 138.777 61.5649L138.07 62.272ZM138.322 62.38V63.38H139.294V62.38V61.38H138.322V62.38ZM139.294 62.38V63.38C139.679 63.38 140.041 63.2185 140.296 62.9122L139.528 62.272L138.76 61.6318C138.816 61.5643 138.898 61.4948 139.006 61.445C139.113 61.3956 139.215 61.38 139.294 61.38V62.38ZM139.528 62.272L140.235 62.9791C140.482 62.7322 140.636 62.3986 140.636 62.02H139.636H138.636C138.636 61.9395 138.652 61.8498 138.69 61.7611C138.728 61.6735 138.777 61.6086 138.821 61.5649L139.528 62.272ZM139.636 62.02H140.636V52.354H139.636H138.636V62.02H139.636ZM146.4 59.23V58.23H145.4V59.23H146.4ZM146.4 64V65H147.4V64H146.4ZM143.88 64H142.88V65H143.88V64ZM143.88 52.354V51.354H142.88V52.354H143.88ZM149.568 57.916L149.208 56.9831L146.707 57.9486L149.23 58.8569L149.568 57.916ZM150.468 64V65H151.468V64H150.468ZM147.948 64H146.948V65H147.948V64ZM146.4 54.064V53.064H145.4V54.064H146.4ZM146.4 57.466H145.4V58.466H146.4V57.466ZM147.966 57.358L147.259 56.6509L147.227 56.683L147.198 56.7178L147.966 57.358ZM147.966 54.172L147.198 54.8122L147.227 54.847L147.259 54.8791L147.966 54.172ZM146.4 59.23H145.4V64H146.4H147.4V59.23H146.4ZM146.4 64V63H143.88V64V65H146.4V64ZM143.88 64H144.88V52.354H143.88H142.88V64H143.88ZM143.88 52.354V53.354H148.362V52.354V51.354H143.88V52.354ZM148.362 52.354V53.354C148.936 53.354 149.186 53.5036 149.308 53.6327C149.44 53.7735 149.594 54.0771 149.594 54.73H150.594H151.594C151.594 53.7989 151.377 52.9145 150.765 52.2633C150.143 51.6004 149.277 51.354 148.362 51.354V52.354ZM150.594 54.73H149.594V56.08H150.594H151.594V54.73H150.594ZM150.594 56.08H149.594C149.594 56.4495 149.528 56.6593 149.465 56.7712C149.413 56.8636 149.344 56.9309 149.208 56.9831L149.568 57.916L149.929 58.8489C150.477 58.6371 150.921 58.2664 151.211 57.7468C151.49 57.2467 151.594 56.6705 151.594 56.08H150.594ZM149.568 57.916L149.23 58.8569C149.339 58.8964 149.371 58.9373 149.39 58.9676C149.417 59.0128 149.468 59.1323 149.468 59.392H150.468H151.468C151.468 58.8837 151.37 58.3732 151.097 57.9264C150.816 57.4647 150.397 57.1516 149.907 56.9751L149.568 57.916ZM150.468 59.392H149.468V64H150.468H151.468V59.392H150.468ZM150.468 64V63H147.948V64V65H150.468V64ZM147.948 64H148.948V59.59H147.948H146.948V64H147.948ZM147.948 59.59H148.948C148.948 59.3283 148.887 58.9462 148.588 58.6313C148.28 58.3067 147.888 58.23 147.606 58.23V59.23V60.23C147.553 60.23 147.332 60.2134 147.138 60.0087C146.953 59.8138 146.948 59.6117 146.948 59.59H147.948ZM147.606 59.23V58.23H146.4V59.23V60.23H147.606V59.23ZM146.4 54.064H145.4V57.466H146.4H147.4V54.064H146.4ZM146.4 57.466V58.466H147.732V57.466V56.466H146.4V57.466ZM147.732 57.466V58.466C148.117 58.466 148.479 58.3045 148.735 57.9982L147.966 57.358L147.198 56.7178C147.255 56.6503 147.336 56.5808 147.444 56.531C147.551 56.4816 147.653 56.466 147.732 56.466V57.466ZM147.966 57.358L148.674 58.0651C148.92 57.8182 149.074 57.4846 149.074 57.106H148.074H147.074C147.074 57.0255 147.09 56.9358 147.128 56.8471C147.166 56.7595 147.216 56.6946 147.259 56.6509L147.966 57.358ZM148.074 57.106H149.074V54.424H148.074H147.074V57.106H148.074ZM148.074 54.424H149.074C149.074 54.0454 148.92 53.7118 148.674 53.4649L147.966 54.172L147.259 54.8791C147.216 54.8354 147.166 54.7705 147.128 54.6829C147.09 54.5942 147.074 54.5045 147.074 54.424H148.074ZM147.966 54.172L148.735 53.5318C148.479 53.2255 148.117 53.064 147.732 53.064V54.064V55.064C147.653 55.064 147.551 55.0484 147.444 54.999C147.336 54.9492 147.255 54.8797 147.198 54.8122L147.966 54.172ZM147.732 54.064V53.064H146.4V54.064V55.064H147.732V54.064ZM154.732 61.912H153.733V62.912H154.732V61.912ZM157.522 61.912H158.522V60.912H157.522V61.912ZM157.522 64V65H158.522V64H157.522ZM152.213 64H151.213V65H152.213V64ZM152.213 52.354V51.354H151.213V52.354H152.213ZM157.522 52.354H158.522V51.354H157.522V52.354ZM157.522 54.406V55.406H158.522V54.406H157.522ZM154.732 54.406V53.406H153.733V54.406H154.732ZM154.732 57.142H153.733V58.142H154.732V57.142ZM157.342 57.142H158.342V56.142H157.342V57.142ZM157.342 59.122V60.122H158.342V59.122H157.342ZM154.732 59.122V58.122H153.733V59.122H154.732ZM154.732 61.912V62.912H157.522V61.912V60.912H154.732V61.912ZM157.522 61.912H156.522V64H157.522H158.522V61.912H157.522ZM157.522 64V63H152.213V64V65H157.522V64ZM152.213 64H153.213V52.354H152.213H151.213V64H152.213ZM152.213 52.354V53.354H157.522V52.354V51.354H152.213V52.354ZM157.522 52.354H156.522V54.406H157.522H158.522V52.354H157.522ZM157.522 54.406V53.406H154.732V54.406V55.406H157.522V54.406ZM154.732 54.406H153.733V57.142H154.732H155.732V54.406H154.732ZM154.732 57.142V58.142H157.342V57.142V56.142H154.732V57.142ZM157.342 57.142H156.342V59.122H157.342H158.342V57.142H157.342ZM157.342 59.122V58.122H154.732V59.122V60.122H157.342V59.122ZM154.732 59.122H153.733V61.912H154.732H155.732V59.122H154.732ZM166.021 59.374H165.021V60.374H166.021V59.374ZM166.021 57.52V56.52H165.021V57.52H166.021ZM169.351 57.52H170.351V56.52H169.351V57.52ZM169.351 55.648V56.648H170.351V55.648H169.351ZM166.957 55.648H165.957V56.648H166.957V55.648ZM166.849 53.992L166.081 54.6322L166.11 54.667L166.142 54.6991L166.849 53.992ZM165.229 53.992L164.522 53.2849L164.49 53.317L164.461 53.3518L165.229 53.992ZM165.229 62.344L164.461 62.9842L164.49 63.019L164.522 63.0511L165.229 62.344ZM166.849 62.344L166.142 61.6369L166.11 61.669L166.081 61.7038L166.849 62.344ZM166.957 59.374H167.957V58.374H166.957V59.374ZM166.021 59.374H167.021V57.52H166.021H165.021V59.374H166.021ZM166.021 57.52V58.52H169.351V57.52V56.52H166.021V57.52ZM169.351 57.52H168.351V61.804H169.351H170.351V57.52H169.351ZM169.351 61.804H168.351C168.351 62.4569 168.196 62.7605 168.064 62.9013C167.943 63.0304 167.692 63.18 167.119 63.18V64.18V65.18C168.033 65.18 168.899 64.9336 169.522 64.2707C170.133 63.6195 170.351 62.7351 170.351 61.804H169.351ZM167.119 64.18V63.18H164.851V64.18V65.18H167.119V64.18ZM164.851 64.18V63.18C164.277 63.18 164.027 63.0304 163.906 62.9013C163.773 62.7605 163.619 62.4569 163.619 61.804H162.619H161.619C161.619 62.7351 161.836 63.6195 162.448 64.2707C163.071 64.9336 163.936 65.18 164.851 65.18V64.18ZM162.619 61.804H163.619V54.55H162.619H161.619V61.804H162.619ZM162.619 54.55H163.619C163.619 53.8971 163.773 53.5935 163.906 53.4527C164.027 53.3236 164.277 53.174 164.851 53.174V52.174V51.174C163.936 51.174 163.071 51.4204 162.448 52.0833C161.836 52.7345 161.619 53.6189 161.619 54.55H162.619ZM164.851 52.174V53.174H167.119V52.174V51.174H164.851V52.174ZM167.119 52.174V53.174C167.692 53.174 167.943 53.3236 168.064 53.4527C168.196 53.5935 168.351 53.8971 168.351 54.55H169.351H170.351C170.351 53.6189 170.133 52.7345 169.522 52.0833C168.899 51.4204 168.033 51.174 167.119 51.174V52.174ZM169.351 54.55H168.351V55.648H169.351H170.351V54.55H169.351ZM169.351 55.648V54.648H166.957V55.648V56.648H169.351V55.648ZM166.957 55.648H167.957V54.244H166.957H165.957V55.648H166.957ZM166.957 54.244H167.957C167.957 53.8654 167.803 53.5318 167.556 53.2849L166.849 53.992L166.142 54.6991C166.098 54.6554 166.048 54.5905 166.011 54.5029C165.973 54.4142 165.957 54.3245 165.957 54.244H166.957ZM166.849 53.992L167.617 53.3518C167.362 53.0455 166.999 52.884 166.615 52.884V53.884V54.884C166.535 54.884 166.433 54.8684 166.326 54.819C166.218 54.7692 166.137 54.6997 166.081 54.6322L166.849 53.992ZM166.615 53.884V52.884H165.481V53.884V54.884H166.615V53.884ZM165.481 53.884V52.884C165.102 52.884 164.769 53.038 164.522 53.2849L165.229 53.992L165.936 54.6991C165.892 54.7428 165.827 54.7926 165.74 54.8301C165.651 54.8682 165.561 54.884 165.481 54.884V53.884ZM165.229 53.992L164.461 53.3518C164.247 53.6082 164.139 53.9203 164.139 54.244H165.139H166.139C166.139 54.3019 166.129 54.3714 166.103 54.4453C166.076 54.5196 166.038 54.5825 165.997 54.6322L165.229 53.992ZM165.139 54.244H164.139V62.092H165.139H166.139V54.244H165.139ZM165.139 62.092H164.139C164.139 62.4157 164.247 62.7278 164.461 62.9842L165.229 62.344L165.997 61.7038C166.038 61.7535 166.076 61.8164 166.103 61.8907C166.129 61.9646 166.139 62.0341 166.139 62.092H165.139ZM165.229 62.344L164.522 63.0511C164.769 63.298 165.102 63.452 165.481 63.452V62.452V61.452C165.561 61.452 165.651 61.4678 165.74 61.5059C165.827 61.5434 165.892 61.5932 165.936 61.6369L165.229 62.344ZM165.481 62.452V63.452H166.615V62.452V61.452H165.481V62.452ZM166.615 62.452V63.452C166.999 63.452 167.362 63.2905 167.617 62.9842L166.849 62.344L166.081 61.7038C166.137 61.6363 166.218 61.5668 166.326 61.517C166.433 61.4676 166.535 61.452 166.615 61.452V62.452ZM166.849 62.344L167.556 63.0511C167.803 62.8042 167.957 62.4706 167.957 62.092H166.957H165.957C165.957 62.0115 165.973 61.9218 166.011 61.8331C166.048 61.7455 166.098 61.6806 166.142 61.6369L166.849 62.344ZM166.957 62.092H167.957V59.374H166.957H165.957V62.092H166.957ZM166.957 59.374V58.374H166.021V59.374V60.374H166.957V59.374ZM177.598 64V65H178.598V64H177.598ZM175.078 64H174.078V65H175.078V64ZM175.078 60.094H176.078V59.094H175.078V60.094ZM173.26 60.094V59.094H172.26V60.094H173.26ZM173.26 64V65H174.26V64H173.26ZM170.74 64H169.74V65H170.74V64ZM173.26 58.15H172.26V59.15H173.26V58.15ZM175.078 58.15V59.15H176.078V58.15H175.078ZM174.97 53.992L174.202 54.6322L174.231 54.667L174.263 54.6991L174.97 53.992ZM173.35 53.992L172.643 53.2849L172.611 53.317L172.582 53.3518L173.35 53.992ZM175.366 52.174V53.174C175.939 53.174 176.19 53.3236 176.311 53.4527C176.443 53.5935 176.598 53.8971 176.598 54.55H177.598H178.598C178.598 53.6189 178.38 52.7345 177.769 52.0833C177.146 51.4204 176.281 51.174 175.366 51.174V52.174ZM177.598 54.55H176.598V64H177.598H178.598V54.55H177.598ZM177.598 64V63H175.078V64V65H177.598V64ZM175.078 64H176.078V60.094H175.078H174.078V64H175.078ZM175.078 60.094V59.094H173.26V60.094V61.094H175.078V60.094ZM173.26 60.094H172.26V64H173.26H174.26V60.094H173.26ZM173.26 64V63H170.74V64V65H173.26V64ZM170.74 64H171.74V54.55H170.74H169.74V64H170.74ZM170.74 54.55H171.74C171.74 53.8971 171.894 53.5935 172.027 53.4527C172.148 53.3236 172.399 53.174 172.972 53.174V52.174V51.174C172.057 51.174 171.192 51.4204 170.569 52.0833C169.957 52.7345 169.74 53.6189 169.74 54.55H170.74ZM172.972 52.174V53.174H175.366V52.174V51.174H172.972V52.174ZM173.26 58.15V59.15H175.078V58.15V57.15H173.26V58.15ZM175.078 58.15H176.078V54.244H175.078H174.078V58.15H175.078ZM175.078 54.244H176.078C176.078 53.8654 175.924 53.5318 175.677 53.2849L174.97 53.992L174.263 54.6991C174.219 54.6554 174.169 54.5905 174.132 54.5029C174.094 54.4142 174.078 54.3245 174.078 54.244H175.078ZM174.97 53.992L175.738 53.3518C175.483 53.0455 175.12 52.884 174.736 52.884V53.884V54.884C174.656 54.884 174.554 54.8684 174.447 54.819C174.34 54.7692 174.258 54.6997 174.202 54.6322L174.97 53.992ZM174.736 53.884V52.884H173.602V53.884V54.884H174.736V53.884ZM173.602 53.884V52.884C173.223 52.884 172.89 53.038 172.643 53.2849L173.35 53.992L174.057 54.6991C174.013 54.7428 173.948 54.7926 173.861 54.8301C173.772 54.8682 173.682 54.884 173.602 54.884V53.884ZM173.35 53.992L172.582 53.3518C172.368 53.6082 172.26 53.9203 172.26 54.244H173.26H174.26C174.26 54.3019 174.25 54.3714 174.224 54.4453C174.198 54.5196 174.159 54.5825 174.118 54.6322L173.35 53.992ZM173.26 54.244H172.26V58.15H173.26H174.26V54.244H173.26ZM181.978 64V65H182.978V64H181.978ZM179.458 64H178.458V65H179.458V64ZM184.894 53.038L184.054 53.5805L184.922 54.925L185.75 53.5551L184.894 53.038ZM190.33 64V65H191.33V64H190.33ZM187.81 64H186.81V65H187.81V64ZM187.702 54.082L186.934 54.7222L186.963 54.757L186.995 54.7891L187.702 54.082ZM186.244 54.082L185.537 53.3749L185.505 53.407L185.476 53.4418L186.244 54.082ZM186.154 64V65H187.154V64H186.154ZM183.634 64H182.634V65H183.634V64ZM183.526 54.082L182.758 54.7222L182.787 54.757L182.819 54.7891L183.526 54.082ZM182.068 54.082L181.361 53.3749L181.329 53.407L181.3 53.4418L182.068 54.082ZM181.978 64V63H179.458V64V65H181.978V64ZM179.458 64H180.458V54.55H179.458H178.458V64H179.458ZM179.458 54.55H180.458C180.458 53.8971 180.613 53.5935 180.745 53.4527C180.866 53.3236 181.117 53.174 181.69 53.174V52.174V51.174C180.775 51.174 179.91 51.4204 179.287 52.0833C178.676 52.7345 178.458 53.6189 178.458 54.55H179.458ZM181.69 52.174V53.174H183.022V52.174V51.174H181.69V52.174ZM183.022 52.174V53.174C183.665 53.174 183.918 53.3691 184.054 53.5805L184.894 53.038L185.734 52.4955C185.127 51.5549 184.131 51.174 183.022 51.174V52.174ZM184.894 53.038L185.75 53.5551C185.857 53.3775 186.083 53.174 186.766 53.174V52.174V51.174C185.649 51.174 184.627 51.5465 184.038 52.5209L184.894 53.038ZM186.766 52.174V53.174H188.098V52.174V51.174H186.766V52.174ZM188.098 52.174V53.174C188.671 53.174 188.922 53.3236 189.043 53.4527C189.176 53.5935 189.33 53.8971 189.33 54.55H190.33H191.33C191.33 53.6189 191.113 52.7345 190.501 52.0833C189.878 51.4204 189.013 51.174 188.098 51.174V52.174ZM190.33 54.55H189.33V64H190.33H191.33V54.55H190.33ZM190.33 64V63H187.81V64V65H190.33V64ZM187.81 64H188.81V54.334H187.81H186.81V64H187.81ZM187.81 54.334H188.81C188.81 53.9554 188.656 53.6218 188.409 53.3749L187.702 54.082L186.995 54.7891C186.951 54.7454 186.902 54.6805 186.864 54.5929C186.826 54.5042 186.81 54.4145 186.81 54.334H187.81ZM187.702 54.082L188.47 53.4418C188.215 53.1355 187.853 52.974 187.468 52.974V53.974V54.974C187.389 54.974 187.287 54.9584 187.18 54.909C187.072 54.8592 186.99 54.7897 186.934 54.7222L187.702 54.082ZM187.468 53.974V52.974H186.496V53.974V54.974H187.468V53.974ZM186.496 53.974V52.974C186.118 52.974 185.784 53.128 185.537 53.3749L186.244 54.082L186.951 54.7891C186.908 54.8328 186.843 54.8826 186.755 54.9201C186.666 54.9582 186.577 54.974 186.496 54.974V53.974ZM186.244 54.082L185.476 53.4418C185.262 53.6982 185.154 54.0103 185.154 54.334H186.154H187.154C187.154 54.3919 187.145 54.4614 187.118 54.5353C187.092 54.6096 187.054 54.6725 187.012 54.7222L186.244 54.082ZM186.154 54.334H185.154V64H186.154H187.154V54.334H186.154ZM186.154 64V63H183.634V64V65H186.154V64ZM183.634 64H184.634V54.334H183.634H182.634V64H183.634ZM183.634 54.334H184.634C184.634 53.9554 184.48 53.6218 184.233 53.3749L183.526 54.082L182.819 54.7891C182.775 54.7454 182.726 54.6805 182.688 54.5929C182.65 54.5042 182.634 54.4145 182.634 54.334H183.634ZM183.526 54.082L184.294 53.4418C184.039 53.1355 183.677 52.974 183.292 52.974V53.974V54.974C183.213 54.974 183.111 54.9584 183.004 54.909C182.896 54.8592 182.814 54.7897 182.758 54.7222L183.526 54.082ZM183.292 53.974V52.974H182.32V53.974V54.974H183.292V53.974ZM182.32 53.974V52.974C181.942 52.974 181.608 53.128 181.361 53.3749L182.068 54.082L182.775 54.7891C182.732 54.8328 182.667 54.8826 182.579 54.9201C182.49 54.9582 182.401 54.974 182.32 54.974V53.974ZM182.068 54.082L181.3 53.4418C181.086 53.6982 180.978 54.0103 180.978 54.334H181.978H182.978C182.978 54.3919 182.969 54.4614 182.942 54.5353C182.916 54.6096 182.878 54.6725 182.836 54.7222L182.068 54.082ZM181.978 54.334H180.978V64H181.978H182.978V54.334H181.978ZM194.582 61.912H193.582V62.912H194.582V61.912ZM197.372 61.912H198.372V60.912H197.372V61.912ZM197.372 64V65H198.372V64H197.372ZM192.062 64H191.062V65H192.062V64ZM192.062 52.354V51.354H191.062V52.354H192.062ZM197.372 52.354H198.372V51.354H197.372V52.354ZM197.372 54.406V55.406H198.372V54.406H197.372ZM194.582 54.406V53.406H193.582V54.406H194.582ZM194.582 57.142H193.582V58.142H194.582V57.142ZM197.192 57.142H198.192V56.142H197.192V57.142ZM197.192 59.122V60.122H198.192V59.122H197.192ZM194.582 59.122V58.122H193.582V59.122H194.582ZM194.582 61.912V62.912H197.372V61.912V60.912H194.582V61.912ZM197.372 61.912H196.372V64H197.372H198.372V61.912H197.372ZM197.372 64V63H192.062V64V65H197.372V64ZM192.062 64H193.062V52.354H192.062H191.062V64H192.062ZM192.062 52.354V53.354H197.372V52.354V51.354H192.062V52.354ZM197.372 52.354H196.372V54.406H197.372H198.372V52.354H197.372ZM197.372 54.406V53.406H194.582V54.406V55.406H197.372V54.406ZM194.582 54.406H193.582V57.142H194.582H195.582V54.406H194.582ZM194.582 57.142V58.142H197.192V57.142V56.142H194.582V57.142ZM197.192 57.142H196.192V59.122H197.192H198.192V57.142H197.192ZM197.192 59.122V58.122H194.582V59.122V60.122H197.192V59.122ZM194.582 59.122H193.582V61.912H194.582H195.582V59.122H194.582Z" fill="black" mask="url(#path-7-inside-3_35_163)"/>
</svg>
