<svg width="342" height="54" viewBox="0 0 342 54" fill="none" xmlns="http://www.w3.org/2000/svg">
<rect width="342" height="54" fill="#FFF600"/>
<path d="M112.01 38.7V33.7H118.66V37.9C118.66 42.3 116.593 44.5 112.46 44.5H106.16C102.027 44.5 99.96 42.3 99.96 37.9V17.75C99.96 13.35 102.027 11.15 106.16 11.15H112.46C116.593 11.15 118.66 13.35 118.66 17.75V20.8H112.01V16.9C112.01 16.6333 111.91 16.4 111.71 16.2C111.543 16 111.327 15.9 111.06 15.9H107.91C107.643 15.9 107.41 16 107.21 16.2C107.043 16.4 106.96 16.6333 106.96 16.9V38.7C106.96 38.9667 107.043 39.2 107.21 39.4C107.41 39.6 107.643 39.7 107.91 39.7H111.06C111.327 39.7 111.543 39.6 111.71 39.4C111.91 39.2 112.01 38.9667 112.01 38.7ZM139.86 38.1H147.51V44H132.86V11.65H139.86V38.1ZM167.829 38.2H175.579V44H160.829V11.65H175.579V17.35H167.829V24.95H175.079V30.45H167.829V38.2ZM202.478 11.15C206.611 11.15 208.678 13.35 208.678 17.75V44H201.678V33.15H196.628V44H189.628V17.75C189.628 13.35 191.695 11.15 195.828 11.15H202.478ZM196.628 27.75H201.678V16.9C201.678 16.6333 201.578 16.4 201.378 16.2C201.211 16 200.995 15.9 200.728 15.9H197.578C197.311 15.9 197.078 16 196.878 16.2C196.711 16.4 196.628 16.6333 196.628 16.9V27.75ZM230.896 30.75V44H223.896V11.65H236.346C240.479 11.65 242.546 13.85 242.546 18.25V22C242.546 24.6667 241.596 26.3667 239.696 27.1C241.362 27.7 242.196 29.0667 242.196 31.2V44H235.196V31.75C235.196 31.0833 234.879 30.75 234.246 30.75H230.896ZM230.896 16.4V25.85H234.596C234.862 25.85 235.079 25.75 235.246 25.55C235.446 25.35 235.546 25.1167 235.546 24.85V17.4C235.546 17.1333 235.446 16.9 235.246 16.7C235.079 16.5 234.862 16.4 234.596 16.4H230.896Z" fill="black"/>
</svg>
