<svg width="74" height="75" viewBox="0 0 74 75" fill="none" xmlns="http://www.w3.org/2000/svg">
<rect x="0.5" y="0.5" width="73" height="74" fill="black" stroke="white"/>
<path d="M29.9964 38.625V52.73C29.9964 55.81 28.5497 57.35 25.6564 57.35H21.4914C18.598 57.35 17.1514 55.81 17.1514 52.73V38.625C17.1514 35.545 18.598 34.005 21.4914 34.005H25.6564C28.5497 34.005 29.9964 35.545 29.9964 38.625ZM25.2364 53.29V38.03C25.2364 37.8433 25.1664 37.68 25.0264 37.54C24.9097 37.4 24.758 37.33 24.5714 37.33H22.5764C22.3897 37.33 22.2264 37.4 22.0864 37.54C21.9697 37.68 21.9114 37.8433 21.9114 38.03V53.29C21.9114 53.4767 21.9697 53.64 22.0864 53.78C22.2264 53.92 22.3897 53.99 22.5764 53.99H24.5714C24.758 53.99 24.9097 53.92 25.0264 53.78C25.1664 53.64 25.2364 53.4767 25.2364 53.29ZM48.4807 34.355H52.8557V57H48.4807V48.075H44.3857C41.4924 48.075 40.0457 46.535 40.0457 43.455V34.355H44.3857V43.245C44.3857 43.4317 44.4441 43.595 44.5607 43.735C44.7007 43.875 44.8641 43.945 45.0507 43.945H47.8157C48.0024 43.945 48.1541 43.875 48.2707 43.735C48.4107 43.595 48.4807 43.4317 48.4807 43.245V34.355Z" fill="#838383"/>
<path d="M12.106 12.295H13.966L15.091 19.6L15.931 12.295H17.971L16.396 22H14.011L13.036 16.045L12.061 22H9.676L8.101 12.295H10.141L10.981 19.6L12.106 12.295ZM24.2265 20.26H26.5515V22H22.1265V12.295H26.5515V14.005H24.2265V16.285H26.4015V17.935H24.2265V20.26ZM34.6211 12.145C35.8611 12.145 36.4811 12.805 36.4811 14.125V22H34.3811V18.745H32.8661V22H30.7661V14.125C30.7661 12.805 31.3861 12.145 32.6261 12.145H34.6211ZM32.8661 17.125H34.3811V13.87C34.3811 13.79 34.3511 13.72 34.2911 13.66C34.2411 13.6 34.1761 13.57 34.0961 13.57H33.1511C33.0711 13.57 33.0011 13.6 32.9411 13.66C32.8911 13.72 32.8661 13.79 32.8661 13.87V17.125ZM44.8264 12.295C46.0664 12.295 46.6864 12.955 46.6864 14.275V16.21C46.6864 17.53 46.0664 18.19 44.8264 18.19H43.1314V22H41.0314V12.295H44.8264ZM44.5864 16.45V14.035C44.5864 13.955 44.5564 13.885 44.4964 13.825C44.4464 13.765 44.3814 13.735 44.3014 13.735H43.1314V16.75H44.3014C44.3814 16.75 44.4464 16.72 44.4964 16.66C44.5564 16.6 44.5864 16.53 44.5864 16.45ZM56.4557 14.125V20.17C56.4557 21.49 55.8357 22.15 54.5957 22.15H52.6007C51.3607 22.15 50.7407 21.49 50.7407 20.17V14.125C50.7407 12.805 51.3607 12.145 52.6007 12.145H54.5957C55.8357 12.145 56.4557 12.805 56.4557 14.125ZM54.3557 20.41V13.87C54.3557 13.79 54.3257 13.72 54.2657 13.66C54.2157 13.6 54.1507 13.57 54.0707 13.57H53.1257C53.0457 13.57 52.9757 13.6 52.9157 13.66C52.8657 13.72 52.8407 13.79 52.8407 13.87V20.41C52.8407 20.49 52.8657 20.56 52.9157 20.62C52.9757 20.68 53.0457 20.71 53.1257 20.71H54.0707C54.1507 20.71 54.2157 20.68 54.2657 20.62C54.3257 20.56 54.3557 20.49 54.3557 20.41ZM66.5713 22H64.4713V13.945C64.4713 13.865 64.4413 13.795 64.3813 13.735C64.3313 13.675 64.2663 13.645 64.1863 13.645H63.3763C63.2963 13.645 63.2263 13.675 63.1663 13.735C63.1163 13.795 63.0913 13.865 63.0913 13.945V22H60.9913V14.125C60.9913 12.805 61.6113 12.145 62.8513 12.145H64.7113C65.9513 12.145 66.5713 12.805 66.5713 14.125V22Z" fill="#838383"/>
</svg>
