<svg width="74" height="75" viewBox="0 0 74 75" fill="none" xmlns="http://www.w3.org/2000/svg">
<rect x="0.5" y="0.5" width="73" height="74" fill="#838383" stroke="white"/>
<path d="M32.2014 38.625V52.73C32.2014 55.81 30.7548 57.35 27.8614 57.35H23.6964C20.8031 57.35 19.3564 55.81 19.3564 52.73V38.625C19.3564 35.545 20.8031 34.005 23.6964 34.005H27.8614C30.7548 34.005 32.2014 35.545 32.2014 38.625ZM27.4414 53.29V38.03C27.4414 37.8433 27.3714 37.68 27.2314 37.54C27.1148 37.4 26.9631 37.33 26.7764 37.33H24.7814C24.5948 37.33 24.4314 37.4 24.2914 37.54C24.1748 37.68 24.1164 37.8433 24.1164 38.03V53.29C24.1164 53.4767 24.1748 53.64 24.2914 53.78C24.4314 53.92 24.5948 53.99 24.7814 53.99H26.7764C26.9631 53.99 27.1148 53.92 27.2314 53.78C27.3714 53.64 27.4414 53.4767 27.4414 53.29ZM53.2408 45.415C54.3375 46.185 54.8858 47.5033 54.8858 49.37V52.73C54.8858 55.81 53.4392 57.35 50.5458 57.35H46.4158C43.5225 57.35 42.0758 55.81 42.0758 52.73V50.875H46.4508V52.94C46.4508 53.1267 46.5092 53.29 46.6258 53.43C46.7658 53.57 46.9292 53.64 47.1158 53.64H49.8808C50.0675 53.64 50.2192 53.57 50.3358 53.43C50.4758 53.29 50.5458 53.1267 50.5458 52.94V48.11C50.5458 47.9233 50.4758 47.76 50.3358 47.62C50.2192 47.48 50.0675 47.41 49.8808 47.41H46.2758V43.63H49.6708C49.8575 43.63 50.0092 43.56 50.1258 43.42C50.2658 43.28 50.3358 43.1167 50.3358 42.93V38.52C50.3358 38.3333 50.2658 38.17 50.1258 38.03C50.0092 37.89 49.8575 37.82 49.6708 37.82H47.3258C47.1392 37.82 46.9758 37.89 46.8358 38.03C46.7192 38.17 46.6608 38.3333 46.6608 38.52V40.76H42.2858V38.625C42.2858 35.545 43.7325 34.005 46.6258 34.005H50.3358C53.2292 34.005 54.6758 35.545 54.6758 38.625V41.635C54.6758 43.455 54.1975 44.715 53.2408 45.415Z" fill="black"/>
<path d="M12.106 12.295H13.966L15.091 19.6L15.931 12.295H17.971L16.396 22H14.011L13.036 16.045L12.061 22H9.676L8.101 12.295H10.141L10.981 19.6L12.106 12.295ZM24.2265 20.26H26.5515V22H22.1265V12.295H26.5515V14.005H24.2265V16.285H26.4015V17.935H24.2265V20.26ZM34.6211 12.145C35.8611 12.145 36.4811 12.805 36.4811 14.125V22H34.3811V18.745H32.8661V22H30.7661V14.125C30.7661 12.805 31.3861 12.145 32.6261 12.145H34.6211ZM32.8661 17.125H34.3811V13.87C34.3811 13.79 34.3511 13.72 34.2911 13.66C34.2411 13.6 34.1761 13.57 34.0961 13.57H33.1511C33.0711 13.57 33.0011 13.6 32.9411 13.66C32.8911 13.72 32.8661 13.79 32.8661 13.87V17.125ZM44.8264 12.295C46.0664 12.295 46.6864 12.955 46.6864 14.275V16.21C46.6864 17.53 46.0664 18.19 44.8264 18.19H43.1314V22H41.0314V12.295H44.8264ZM44.5864 16.45V14.035C44.5864 13.955 44.5564 13.885 44.4964 13.825C44.4464 13.765 44.3814 13.735 44.3014 13.735H43.1314V16.75H44.3014C44.3814 16.75 44.4464 16.72 44.4964 16.66C44.5564 16.6 44.5864 16.53 44.5864 16.45ZM56.4557 14.125V20.17C56.4557 21.49 55.8357 22.15 54.5957 22.15H52.6007C51.3607 22.15 50.7407 21.49 50.7407 20.17V14.125C50.7407 12.805 51.3607 12.145 52.6007 12.145H54.5957C55.8357 12.145 56.4557 12.805 56.4557 14.125ZM54.3557 20.41V13.87C54.3557 13.79 54.3257 13.72 54.2657 13.66C54.2157 13.6 54.1507 13.57 54.0707 13.57H53.1257C53.0457 13.57 52.9757 13.6 52.9157 13.66C52.8657 13.72 52.8407 13.79 52.8407 13.87V20.41C52.8407 20.49 52.8657 20.56 52.9157 20.62C52.9757 20.68 53.0457 20.71 53.1257 20.71H54.0707C54.1507 20.71 54.2157 20.68 54.2657 20.62C54.3257 20.56 54.3557 20.49 54.3557 20.41ZM66.5713 22H64.4713V13.945C64.4713 13.865 64.4413 13.795 64.3813 13.735C64.3313 13.675 64.2663 13.645 64.1863 13.645H63.3763C63.2963 13.645 63.2263 13.675 63.1663 13.735C63.1163 13.795 63.0913 13.865 63.0913 13.945V22H60.9913V14.125C60.9913 12.805 61.6113 12.145 62.8513 12.145H64.7113C65.9513 12.145 66.5713 12.805 66.5713 14.125V22Z" fill="black"/>
</svg>
