<svg width="74" height="75" viewBox="0 0 74 75" fill="none" xmlns="http://www.w3.org/2000/svg">
<rect x="0.5" y="0.5" width="73" height="74" fill="black" stroke="white"/>
<path d="M30.0135 38.625V52.73C30.0135 55.81 28.5668 57.35 25.6735 57.35H21.5085C18.6151 57.35 17.1685 55.81 17.1685 52.73V38.625C17.1685 35.545 18.6151 34.005 21.5085 34.005H25.6735C28.5668 34.005 30.0135 35.545 30.0135 38.625ZM25.2535 53.29V38.03C25.2535 37.8433 25.1835 37.68 25.0435 37.54C24.9268 37.4 24.7751 37.33 24.5885 37.33H22.5935C22.4068 37.33 22.2435 37.4 22.1035 37.54C21.9868 37.68 21.9285 37.8433 21.9285 38.03V53.29C21.9285 53.4767 21.9868 53.64 22.1035 53.78C22.2435 53.92 22.4068 53.99 22.5935 53.99H24.5885C24.7751 53.99 24.9268 53.92 25.0435 53.78C25.1835 53.64 25.2535 53.4767 25.2535 53.29ZM48.7078 43.28C51.6012 43.28 53.0478 44.82 53.0478 47.9V52.73C53.0478 55.81 51.6012 57.35 48.7078 57.35H44.5778C41.6845 57.35 40.2378 55.81 40.2378 52.73V38.625C40.2378 35.545 41.6845 34.005 44.5778 34.005H48.3578C51.2512 34.005 52.6978 35.545 52.6978 38.625V40.305H48.2178V38.52C48.2178 38.3333 48.1478 38.17 48.0078 38.03C47.8912 37.89 47.7395 37.82 47.5528 37.82H45.2778C45.0912 37.82 44.9278 37.89 44.7878 38.03C44.6712 38.17 44.6128 38.3333 44.6128 38.52V43.735C45.2428 43.4317 46.0245 43.28 46.9578 43.28H48.7078ZM48.7078 52.345V48.285C48.7078 48.0983 48.6378 47.935 48.4978 47.795C48.3812 47.655 48.2295 47.585 48.0428 47.585H45.2778C45.0912 47.585 44.9278 47.655 44.7878 47.795C44.6712 47.935 44.6128 48.0983 44.6128 48.285V52.345C44.6128 52.5317 44.6712 52.695 44.7878 52.835C44.9278 52.975 45.0912 53.045 45.2778 53.045H48.0428C48.2295 53.045 48.3812 52.975 48.4978 52.835C48.6378 52.695 48.7078 52.5317 48.7078 52.345Z" fill="#838383"/>
<path d="M12.106 12.295H13.966L15.091 19.6L15.931 12.295H17.971L16.396 22H14.011L13.036 16.045L12.061 22H9.676L8.101 12.295H10.141L10.981 19.6L12.106 12.295ZM24.2265 20.26H26.5515V22H22.1265V12.295H26.5515V14.005H24.2265V16.285H26.4015V17.935H24.2265V20.26ZM34.6211 12.145C35.8611 12.145 36.4811 12.805 36.4811 14.125V22H34.3811V18.745H32.8661V22H30.7661V14.125C30.7661 12.805 31.3861 12.145 32.6261 12.145H34.6211ZM32.8661 17.125H34.3811V13.87C34.3811 13.79 34.3511 13.72 34.2911 13.66C34.2411 13.6 34.1761 13.57 34.0961 13.57H33.1511C33.0711 13.57 33.0011 13.6 32.9411 13.66C32.8911 13.72 32.8661 13.79 32.8661 13.87V17.125ZM44.8264 12.295C46.0664 12.295 46.6864 12.955 46.6864 14.275V16.21C46.6864 17.53 46.0664 18.19 44.8264 18.19H43.1314V22H41.0314V12.295H44.8264ZM44.5864 16.45V14.035C44.5864 13.955 44.5564 13.885 44.4964 13.825C44.4464 13.765 44.3814 13.735 44.3014 13.735H43.1314V16.75H44.3014C44.3814 16.75 44.4464 16.72 44.4964 16.66C44.5564 16.6 44.5864 16.53 44.5864 16.45ZM56.4557 14.125V20.17C56.4557 21.49 55.8357 22.15 54.5957 22.15H52.6007C51.3607 22.15 50.7407 21.49 50.7407 20.17V14.125C50.7407 12.805 51.3607 12.145 52.6007 12.145H54.5957C55.8357 12.145 56.4557 12.805 56.4557 14.125ZM54.3557 20.41V13.87C54.3557 13.79 54.3257 13.72 54.2657 13.66C54.2157 13.6 54.1507 13.57 54.0707 13.57H53.1257C53.0457 13.57 52.9757 13.6 52.9157 13.66C52.8657 13.72 52.8407 13.79 52.8407 13.87V20.41C52.8407 20.49 52.8657 20.56 52.9157 20.62C52.9757 20.68 53.0457 20.71 53.1257 20.71H54.0707C54.1507 20.71 54.2157 20.68 54.2657 20.62C54.3257 20.56 54.3557 20.49 54.3557 20.41ZM66.5713 22H64.4713V13.945C64.4713 13.865 64.4413 13.795 64.3813 13.735C64.3313 13.675 64.2663 13.645 64.1863 13.645H63.3763C63.2963 13.645 63.2263 13.675 63.1663 13.735C63.1163 13.795 63.0913 13.865 63.0913 13.945V22H60.9913V14.125C60.9913 12.805 61.6113 12.145 62.8513 12.145H64.7113C65.9513 12.145 66.5713 12.805 66.5713 14.125V22Z" fill="#838383"/>
</svg>
