<svg width="74" height="75" viewBox="0 0 74 75" fill="none" xmlns="http://www.w3.org/2000/svg">
<rect x="0.5" y="0.5" width="73" height="74" fill="black" stroke="white"/>
<path d="M31.5476 38.625V52.73C31.5476 55.81 30.101 57.35 27.2076 57.35H23.0426C20.1493 57.35 18.7026 55.81 18.7026 52.73V38.625C18.7026 35.545 20.1493 34.005 23.0426 34.005H27.2076C30.101 34.005 31.5476 35.545 31.5476 38.625ZM26.7876 53.29V38.03C26.7876 37.8433 26.7176 37.68 26.5776 37.54C26.461 37.4 26.3093 37.33 26.1226 37.33H24.1276C23.941 37.33 23.7776 37.4 23.6376 37.54C23.521 37.68 23.4626 37.8433 23.4626 38.03V53.29C23.4626 53.4767 23.521 53.64 23.6376 53.78C23.7776 53.92 23.941 53.99 24.1276 53.99H26.1226C26.3093 53.99 26.461 53.92 26.5776 53.78C26.7176 53.64 26.7876 53.4767 26.7876 53.29ZM46.357 49.23V52.975H53.917V57H41.877V48.845C41.877 45.765 43.3237 44.225 46.217 44.225H49.017C49.2037 44.225 49.3553 44.155 49.472 44.015C49.612 43.875 49.682 43.7117 49.682 43.525V38.52C49.682 38.3333 49.612 38.17 49.472 38.03C49.3553 37.89 49.2037 37.82 49.017 37.82H46.952C46.7653 37.82 46.602 37.89 46.462 38.03C46.3453 38.17 46.287 38.3333 46.287 38.52V40.305H41.632V38.625C41.632 35.545 43.0787 34.005 45.972 34.005H49.857C52.7503 34.005 54.197 35.545 54.197 38.625V43.91C54.197 46.99 52.7503 48.53 49.857 48.53H47.022C46.8353 48.53 46.672 48.6 46.532 48.74C46.4153 48.88 46.357 49.0433 46.357 49.23Z" fill="#838383"/>
<path d="M12.106 12.295H13.966L15.091 19.6L15.931 12.295H17.971L16.396 22H14.011L13.036 16.045L12.061 22H9.676L8.101 12.295H10.141L10.981 19.6L12.106 12.295ZM24.2265 20.26H26.5515V22H22.1265V12.295H26.5515V14.005H24.2265V16.285H26.4015V17.935H24.2265V20.26ZM34.6211 12.145C35.8611 12.145 36.4811 12.805 36.4811 14.125V22H34.3811V18.745H32.8661V22H30.7661V14.125C30.7661 12.805 31.3861 12.145 32.6261 12.145H34.6211ZM32.8661 17.125H34.3811V13.87C34.3811 13.79 34.3511 13.72 34.2911 13.66C34.2411 13.6 34.1761 13.57 34.0961 13.57H33.1511C33.0711 13.57 33.0011 13.6 32.9411 13.66C32.8911 13.72 32.8661 13.79 32.8661 13.87V17.125ZM44.8264 12.295C46.0664 12.295 46.6864 12.955 46.6864 14.275V16.21C46.6864 17.53 46.0664 18.19 44.8264 18.19H43.1314V22H41.0314V12.295H44.8264ZM44.5864 16.45V14.035C44.5864 13.955 44.5564 13.885 44.4964 13.825C44.4464 13.765 44.3814 13.735 44.3014 13.735H43.1314V16.75H44.3014C44.3814 16.75 44.4464 16.72 44.4964 16.66C44.5564 16.6 44.5864 16.53 44.5864 16.45ZM56.4557 14.125V20.17C56.4557 21.49 55.8357 22.15 54.5957 22.15H52.6007C51.3607 22.15 50.7407 21.49 50.7407 20.17V14.125C50.7407 12.805 51.3607 12.145 52.6007 12.145H54.5957C55.8357 12.145 56.4557 12.805 56.4557 14.125ZM54.3557 20.41V13.87C54.3557 13.79 54.3257 13.72 54.2657 13.66C54.2157 13.6 54.1507 13.57 54.0707 13.57H53.1257C53.0457 13.57 52.9757 13.6 52.9157 13.66C52.8657 13.72 52.8407 13.79 52.8407 13.87V20.41C52.8407 20.49 52.8657 20.56 52.9157 20.62C52.9757 20.68 53.0457 20.71 53.1257 20.71H54.0707C54.1507 20.71 54.2157 20.68 54.2657 20.62C54.3257 20.56 54.3557 20.49 54.3557 20.41ZM66.5713 22H64.4713V13.945C64.4713 13.865 64.4413 13.795 64.3813 13.735C64.3313 13.675 64.2663 13.645 64.1863 13.645H63.3763C63.2963 13.645 63.2263 13.675 63.1663 13.735C63.1163 13.795 63.0913 13.865 63.0913 13.945V22H60.9913V14.125C60.9913 12.805 61.6113 12.145 62.8513 12.145H64.7113C65.9513 12.145 66.5713 12.805 66.5713 14.125V22Z" fill="#838383"/>
</svg>
