<svg width="74" height="75" viewBox="0 0 74 75" fill="none" xmlns="http://www.w3.org/2000/svg">
<rect x="0.5" y="0.5" width="73" height="74" fill="#838383" stroke="white"/>
<path d="M30.0647 38.625V52.73C30.0647 55.81 28.6181 57.35 25.7247 57.35H21.5597C18.6664 57.35 17.2197 55.81 17.2197 52.73V38.625C17.2197 35.545 18.6664 34.005 21.5597 34.005H25.7247C28.6181 34.005 30.0647 35.545 30.0647 38.625ZM25.3047 53.29V38.03C25.3047 37.8433 25.2347 37.68 25.0947 37.54C24.9781 37.4 24.8264 37.33 24.6397 37.33H22.6447C22.4581 37.33 22.2947 37.4 22.1547 37.54C22.0381 37.68 21.9797 37.8433 21.9797 38.03V53.29C21.9797 53.4767 22.0381 53.64 22.1547 53.78C22.2947 53.92 22.4581 53.99 22.6447 53.99H24.6397C24.8264 53.99 24.9781 53.92 25.0947 53.78C25.2347 53.64 25.3047 53.4767 25.3047 53.29ZM44.3841 38.1V42.125C44.3841 42.3117 44.4424 42.475 44.5591 42.615C44.6991 42.755 44.8624 42.825 45.0491 42.825H48.3741C51.2674 42.825 52.7141 44.365 52.7141 47.445V52.73C52.7141 55.81 51.2674 57.35 48.3741 57.35H44.4891C41.5958 57.35 40.1491 55.81 40.1491 52.73V51.05H44.8041V52.835C44.8041 53.0217 44.8624 53.185 44.9791 53.325C45.1191 53.465 45.2824 53.535 45.4691 53.535H47.5341C47.7208 53.535 47.8724 53.465 47.9891 53.325C48.1291 53.185 48.1991 53.0217 48.1991 52.835V47.83C48.1991 47.6433 48.1291 47.48 47.9891 47.34C47.8724 47.2 47.7208 47.13 47.5341 47.13H44.2441C41.3508 47.13 39.9041 45.59 39.9041 42.51V34.355H51.8041V38.1H44.3841Z" fill="black"/>
<path d="M12.106 12.295H13.966L15.091 19.6L15.931 12.295H17.971L16.396 22H14.011L13.036 16.045L12.061 22H9.676L8.101 12.295H10.141L10.981 19.6L12.106 12.295ZM24.2265 20.26H26.5515V22H22.1265V12.295H26.5515V14.005H24.2265V16.285H26.4015V17.935H24.2265V20.26ZM34.6211 12.145C35.8611 12.145 36.4811 12.805 36.4811 14.125V22H34.3811V18.745H32.8661V22H30.7661V14.125C30.7661 12.805 31.3861 12.145 32.6261 12.145H34.6211ZM32.8661 17.125H34.3811V13.87C34.3811 13.79 34.3511 13.72 34.2911 13.66C34.2411 13.6 34.1761 13.57 34.0961 13.57H33.1511C33.0711 13.57 33.0011 13.6 32.9411 13.66C32.8911 13.72 32.8661 13.79 32.8661 13.87V17.125ZM44.8264 12.295C46.0664 12.295 46.6864 12.955 46.6864 14.275V16.21C46.6864 17.53 46.0664 18.19 44.8264 18.19H43.1314V22H41.0314V12.295H44.8264ZM44.5864 16.45V14.035C44.5864 13.955 44.5564 13.885 44.4964 13.825C44.4464 13.765 44.3814 13.735 44.3014 13.735H43.1314V16.75H44.3014C44.3814 16.75 44.4464 16.72 44.4964 16.66C44.5564 16.6 44.5864 16.53 44.5864 16.45ZM56.4557 14.125V20.17C56.4557 21.49 55.8357 22.15 54.5957 22.15H52.6007C51.3607 22.15 50.7407 21.49 50.7407 20.17V14.125C50.7407 12.805 51.3607 12.145 52.6007 12.145H54.5957C55.8357 12.145 56.4557 12.805 56.4557 14.125ZM54.3557 20.41V13.87C54.3557 13.79 54.3257 13.72 54.2657 13.66C54.2157 13.6 54.1507 13.57 54.0707 13.57H53.1257C53.0457 13.57 52.9757 13.6 52.9157 13.66C52.8657 13.72 52.8407 13.79 52.8407 13.87V20.41C52.8407 20.49 52.8657 20.56 52.9157 20.62C52.9757 20.68 53.0457 20.71 53.1257 20.71H54.0707C54.1507 20.71 54.2157 20.68 54.2657 20.62C54.3257 20.56 54.3557 20.49 54.3557 20.41ZM66.5713 22H64.4713V13.945C64.4713 13.865 64.4413 13.795 64.3813 13.735C64.3313 13.675 64.2663 13.645 64.1863 13.645H63.3763C63.2963 13.645 63.2263 13.675 63.1663 13.735C63.1163 13.795 63.0913 13.865 63.0913 13.945V22H60.9913V14.125C60.9913 12.805 61.6113 12.145 62.8513 12.145H64.7113C65.9513 12.145 66.5713 12.805 66.5713 14.125V22Z" fill="black"/>
</svg>
