<svg width="558" height="90" viewBox="0 0 558 90" fill="none" xmlns="http://www.w3.org/2000/svg">
<rect width="558" height="90" rx="1" fill="#D9D9D9"/>
<rect width="90" height="90" rx="1" fill="#838383"/>
<path d="M42.0953 31.25V59.46C42.0953 65.62 39.2019 68.7 33.4153 68.7H25.0853C19.2986 68.7 16.4053 65.62 16.4053 59.46V31.25C16.4053 25.09 19.2986 22.01 25.0853 22.01H33.4153C39.2019 22.01 42.0953 25.09 42.0953 31.25ZM32.5753 60.58V30.06C32.5753 29.6867 32.4353 29.36 32.1553 29.08C31.9219 28.8 31.6186 28.66 31.2453 28.66H27.2553C26.8819 28.66 26.5553 28.8 26.2753 29.08C26.0419 29.36 25.9253 29.6867 25.9253 30.06V60.58C25.9253 60.9533 26.0419 61.28 26.2753 61.56C26.5553 61.84 26.8819 61.98 27.2553 61.98H31.2453C31.6186 61.98 31.9219 61.84 32.1553 61.56C32.4353 61.28 32.5753 60.9533 32.5753 60.58ZM57.714 52.46V59.95H72.834V68H48.754V51.69C48.754 45.53 51.6474 42.45 57.434 42.45H63.034C63.4074 42.45 63.7107 42.31 63.944 42.03C64.224 41.75 64.364 41.4233 64.364 41.05V31.04C64.364 30.6667 64.224 30.34 63.944 30.06C63.7107 29.78 63.4074 29.64 63.034 29.64H58.904C58.5307 29.64 58.204 29.78 57.924 30.06C57.6907 30.34 57.574 30.6667 57.574 31.04V34.61H48.264V31.25C48.264 25.09 51.1574 22.01 56.944 22.01H64.714C70.5007 22.01 73.394 25.09 73.394 31.25V41.82C73.394 47.98 70.5007 51.06 64.714 51.06H59.044C58.6707 51.06 58.344 51.2 58.064 51.48C57.8307 51.76 57.714 52.0867 57.714 52.46Z" fill="white"/>
<path d="M156.582 44.3C158.749 45.0667 159.832 46.8333 159.832 49.6V55.4C159.832 59.8 157.766 62 153.632 62H140.782V29.65H153.232C157.366 29.65 159.432 31.85 159.432 36.25V39.2C159.432 41.8667 158.482 43.5667 156.582 44.3ZM151.482 34.4H147.782V43.05H151.482C151.749 43.05 151.966 42.95 152.132 42.75C152.332 42.55 152.432 42.3167 152.432 42.05V35.4C152.432 35.1333 152.332 34.9 152.132 34.7C151.966 34.5 151.749 34.4 151.482 34.4ZM152.832 56.2V48.95C152.832 48.6833 152.732 48.45 152.532 48.25C152.366 48.05 152.149 47.95 151.882 47.95H147.782V57.2H151.882C152.149 57.2 152.366 57.1 152.532 56.9C152.732 56.7 152.832 56.4667 152.832 56.2ZM177.46 29.15C181.594 29.15 183.66 31.35 183.66 35.75V62H176.66V51.15H171.61V62H164.61V35.75C164.61 31.35 166.677 29.15 170.81 29.15H177.46ZM171.61 45.75H176.66V34.9C176.66 34.6333 176.56 34.4 176.36 34.2C176.194 34 175.977 33.9 175.71 33.9H172.56C172.294 33.9 172.06 34 171.86 34.2C171.694 34.4 171.61 34.6333 171.61 34.9V45.75ZM200.928 56.7V51.7H207.578V55.9C207.578 60.3 205.511 62.5 201.378 62.5H195.078C190.945 62.5 188.878 60.3 188.878 55.9V35.75C188.878 31.35 190.945 29.15 195.078 29.15H201.378C205.511 29.15 207.578 31.35 207.578 35.75V38.8H200.928V34.9C200.928 34.6333 200.828 34.4 200.628 34.2C200.461 34 200.245 33.9 199.978 33.9H196.828C196.561 33.9 196.328 34 196.128 34.2C195.961 34.4 195.878 34.6333 195.878 34.9V56.7C195.878 56.9667 195.961 57.2 196.128 57.4C196.328 57.6 196.561 57.7 196.828 57.7H199.978C200.245 57.7 200.461 57.6 200.628 57.4C200.828 57.2 200.928 56.9667 200.928 56.7ZM231.928 29.65L226.428 44.5L232.978 62H225.828L221.028 49.2H218.778V62H211.778V29.65H218.778V43.2H220.478L225.528 29.65H231.928ZM243.62 35.6V29.65H261.12V35.6H255.87V62H248.87V35.6H243.62ZM283.367 35.75V55.9C283.367 60.3 281.301 62.5 277.167 62.5H270.517C266.384 62.5 264.317 60.3 264.317 55.9V35.75C264.317 31.35 266.384 29.15 270.517 29.15H277.167C281.301 29.15 283.367 31.35 283.367 35.75ZM276.367 56.7V34.9C276.367 34.6333 276.267 34.4 276.067 34.2C275.901 34 275.684 33.9 275.417 33.9H272.267C272.001 33.9 271.767 34 271.567 34.2C271.401 34.4 271.317 34.6333 271.317 34.9V56.7C271.317 56.9667 271.401 57.2 271.567 57.4C271.767 57.6 272.001 57.7 272.267 57.7H275.417C275.684 57.7 275.901 57.6 276.067 57.4C276.267 57.2 276.367 56.9667 276.367 56.7ZM310.694 56.7V51.7H317.344V55.9C317.344 60.3 315.277 62.5 311.144 62.5H304.844C300.71 62.5 298.644 60.3 298.644 55.9V35.75C298.644 31.35 300.71 29.15 304.844 29.15H311.144C315.277 29.15 317.344 31.35 317.344 35.75V38.8H310.694V34.9C310.694 34.6333 310.594 34.4 310.394 34.2C310.227 34 310.01 33.9 309.744 33.9H306.594C306.327 33.9 306.094 34 305.894 34.2C305.727 34.4 305.644 34.6333 305.644 34.9V56.7C305.644 56.9667 305.727 57.2 305.894 57.4C306.094 57.6 306.327 57.7 306.594 57.7H309.744C310.01 57.7 310.227 57.6 310.394 57.4C310.594 57.2 310.694 56.9667 310.694 56.7ZM328.544 49.3V62H321.544V29.65H328.544V43.2H334.094V29.65H341.094V62H334.094V49.3H328.544ZM353.104 56.2H360.854V62H346.104V29.65H360.854V35.35H353.104V42.95H360.354V48.45H353.104V56.2ZM376.953 56.7V51.7H383.603V55.9C383.603 60.3 381.537 62.5 377.403 62.5H371.103C366.97 62.5 364.903 60.3 364.903 55.9V35.75C364.903 31.35 366.97 29.15 371.103 29.15H377.403C381.537 29.15 383.603 31.35 383.603 35.75V38.8H376.953V34.9C376.953 34.6333 376.853 34.4 376.653 34.2C376.487 34 376.27 33.9 376.003 33.9H372.853C372.587 33.9 372.353 34 372.153 34.2C371.987 34.4 371.903 34.6333 371.903 34.9V56.7C371.903 56.9667 371.987 57.2 372.153 57.4C372.353 57.6 372.587 57.7 372.853 57.7H376.003C376.27 57.7 376.487 57.6 376.653 57.4C376.853 57.2 376.953 56.9667 376.953 56.7ZM407.954 29.65L402.454 44.5L409.004 62H401.854L397.054 49.2H394.804V62H387.804V29.65H394.804V43.2H396.504L401.554 29.65H407.954ZM423.988 29.65C428.121 29.65 430.188 31.85 430.188 36.25V42.7C430.188 47.1 428.121 49.3 423.988 49.3H418.338V62H411.338V29.65H423.988ZM423.188 43.5V35.45C423.188 35.1833 423.088 34.95 422.888 34.75C422.721 34.55 422.504 34.45 422.238 34.45H418.338V44.5H422.238C422.504 44.5 422.721 44.4 422.888 44.2C423.088 44 423.188 43.7667 423.188 43.5ZM452.752 35.75V55.9C452.752 60.3 450.685 62.5 446.552 62.5H439.902C435.769 62.5 433.702 60.3 433.702 55.9V35.75C433.702 31.35 435.769 29.15 439.902 29.15H446.552C450.685 29.15 452.752 31.35 452.752 35.75ZM445.752 56.7V34.9C445.752 34.6333 445.652 34.4 445.452 34.2C445.285 34 445.069 33.9 444.802 33.9H441.652C441.385 33.9 441.152 34 440.952 34.2C440.785 34.4 440.702 34.6333 440.702 34.9V56.7C440.702 56.9667 440.785 57.2 440.952 57.4C441.152 57.6 441.385 57.7 441.652 57.7H444.802C445.069 57.7 445.285 57.6 445.452 57.4C445.652 57.2 445.752 56.9667 445.752 56.7ZM464.921 29.65V62H457.921V29.65H464.921ZM488.678 62H481.678V35.15C481.678 34.8833 481.578 34.65 481.378 34.45C481.211 34.25 480.995 34.15 480.728 34.15H478.028C477.761 34.15 477.528 34.25 477.328 34.45C477.161 34.65 477.078 34.8833 477.078 35.15V62H470.078V35.75C470.078 31.35 472.145 29.15 476.278 29.15H482.478C486.611 29.15 488.678 31.35 488.678 35.75V62ZM491.52 35.6V29.65H509.02V35.6H503.77V62H496.77V35.6H491.52Z" fill="black"/>
</svg>
