<svg width="558" height="90" viewBox="0 0 558 90" fill="none" xmlns="http://www.w3.org/2000/svg">
<rect x="0.5" y="0.5" width="557" height="89" rx="0.5" fill="#FFF600" stroke="black"/>
<rect x="0.5" y="0.5" width="89" height="89" rx="0.5" fill="#C5E800" stroke="black"/>
<mask id="path-3-inside-1_44_187" fill="white">
<path d="M42.0953 31.25V59.46C42.0953 65.62 39.2019 68.7 33.4153 68.7H25.0853C19.2986 68.7 16.4053 65.62 16.4053 59.46V31.25C16.4053 25.09 19.2986 22.01 25.0853 22.01H33.4153C39.2019 22.01 42.0953 25.09 42.0953 31.25ZM32.5753 60.58V30.06C32.5753 29.6867 32.4353 29.36 32.1553 29.08C31.9219 28.8 31.6186 28.66 31.2453 28.66H27.2553C26.8819 28.66 26.5553 28.8 26.2753 29.08C26.0419 29.36 25.9253 29.6867 25.9253 30.06V60.58C25.9253 60.9533 26.0419 61.28 26.2753 61.56C26.5553 61.84 26.8819 61.98 27.2553 61.98H31.2453C31.6186 61.98 31.9219 61.84 32.1553 61.56C32.4353 61.28 32.5753 60.9533 32.5753 60.58ZM57.714 52.46V59.95H72.834V68H48.754V51.69C48.754 45.53 51.6474 42.45 57.434 42.45H63.034C63.4074 42.45 63.7107 42.31 63.944 42.03C64.224 41.75 64.364 41.4233 64.364 41.05V31.04C64.364 30.6667 64.224 30.34 63.944 30.06C63.7107 29.78 63.4074 29.64 63.034 29.64H58.904C58.5307 29.64 58.204 29.78 57.924 30.06C57.6907 30.34 57.574 30.6667 57.574 31.04V34.61H48.264V31.25C48.264 25.09 51.1574 22.01 56.944 22.01H64.714C70.5007 22.01 73.394 25.09 73.394 31.25V41.82C73.394 47.98 70.5007 51.06 64.714 51.06H59.044C58.6707 51.06 58.344 51.2 58.064 51.48C57.8307 51.76 57.714 52.0867 57.714 52.46Z"/>
</mask>
<path d="M42.0953 31.25V59.46C42.0953 65.62 39.2019 68.7 33.4153 68.7H25.0853C19.2986 68.7 16.4053 65.62 16.4053 59.46V31.25C16.4053 25.09 19.2986 22.01 25.0853 22.01H33.4153C39.2019 22.01 42.0953 25.09 42.0953 31.25ZM32.5753 60.58V30.06C32.5753 29.6867 32.4353 29.36 32.1553 29.08C31.9219 28.8 31.6186 28.66 31.2453 28.66H27.2553C26.8819 28.66 26.5553 28.8 26.2753 29.08C26.0419 29.36 25.9253 29.6867 25.9253 30.06V60.58C25.9253 60.9533 26.0419 61.28 26.2753 61.56C26.5553 61.84 26.8819 61.98 27.2553 61.98H31.2453C31.6186 61.98 31.9219 61.84 32.1553 61.56C32.4353 61.28 32.5753 60.9533 32.5753 60.58ZM57.714 52.46V59.95H72.834V68H48.754V51.69C48.754 45.53 51.6474 42.45 57.434 42.45H63.034C63.4074 42.45 63.7107 42.31 63.944 42.03C64.224 41.75 64.364 41.4233 64.364 41.05V31.04C64.364 30.6667 64.224 30.34 63.944 30.06C63.7107 29.78 63.4074 29.64 63.034 29.64H58.904C58.5307 29.64 58.204 29.78 57.924 30.06C57.6907 30.34 57.574 30.6667 57.574 31.04V34.61H48.264V31.25C48.264 25.09 51.1574 22.01 56.944 22.01H64.714C70.5007 22.01 73.394 25.09 73.394 31.25V41.82C73.394 47.98 70.5007 51.06 64.714 51.06H59.044C58.6707 51.06 58.344 51.2 58.064 51.48C57.8307 51.76 57.714 52.0867 57.714 52.46Z" fill="white"/>
<path d="M32.1553 29.08L31.3871 29.7202L31.4161 29.755L31.4482 29.7871L32.1553 29.08ZM26.2753 29.08L25.5682 28.3729L25.5361 28.405L25.5071 28.4398L26.2753 29.08ZM26.2753 61.56L25.5071 62.2002L25.5361 62.235L25.5682 62.2671L26.2753 61.56ZM32.1553 61.56L31.4482 60.8529L31.4161 60.885L31.3871 60.9198L32.1553 61.56ZM42.0953 31.25H41.0953V59.46H42.0953H43.0953V31.25H42.0953ZM42.0953 59.46H41.0953C41.0953 62.4009 40.4034 64.4205 39.1964 65.7053C38.0005 66.9784 36.1379 67.7 33.4153 67.7V68.7V69.7C36.4793 69.7 38.9567 68.8816 40.6541 67.0747C42.3405 65.2795 43.0953 62.6791 43.0953 59.46H42.0953ZM33.4153 68.7V67.7H25.0853V68.7V69.7H33.4153V68.7ZM25.0853 68.7V67.7C22.3626 67.7 20.5001 66.9784 19.3041 65.7053C18.0971 64.4205 17.4053 62.4009 17.4053 59.46H16.4053H15.4053C15.4053 62.6791 16.1601 65.2795 17.8464 67.0747C19.5438 68.8816 22.0212 69.7 25.0853 69.7V68.7ZM16.4053 59.46H17.4053V31.25H16.4053H15.4053V59.46H16.4053ZM16.4053 31.25H17.4053C17.4053 28.3091 18.0971 26.2895 19.3041 25.0047C20.5001 23.7316 22.3626 23.01 25.0853 23.01V22.01V21.01C22.0212 21.01 19.5438 21.8284 17.8464 23.6353C16.1601 25.4305 15.4053 28.0309 15.4053 31.25H16.4053ZM25.0853 22.01V23.01H33.4153V22.01V21.01H25.0853V22.01ZM33.4153 22.01V23.01C36.1379 23.01 38.0005 23.7316 39.1964 25.0047C40.4034 26.2895 41.0953 28.3091 41.0953 31.25H42.0953H43.0953C43.0953 28.0309 42.3405 25.4305 40.6541 23.6353C38.9567 21.8284 36.4793 21.01 33.4153 21.01V22.01ZM32.5753 60.58H33.5753V30.06H32.5753H31.5753V60.58H32.5753ZM32.5753 30.06H33.5753C33.5753 29.4041 33.3173 28.8278 32.8624 28.3729L32.1553 29.08L31.4482 29.7871C31.5533 29.8922 31.5753 29.9692 31.5753 30.06H32.5753ZM32.1553 29.08L32.9235 28.4398C32.4949 27.9255 31.9071 27.66 31.2453 27.66V28.66V29.66C31.3043 29.66 31.3281 29.6704 31.3337 29.673C31.3386 29.6752 31.3567 29.6837 31.3871 29.7202L32.1553 29.08ZM31.2453 28.66V27.66H27.2553V28.66V29.66H31.2453V28.66ZM27.2553 28.66V27.66C26.5994 27.66 26.0231 27.918 25.5682 28.3729L26.2753 29.08L26.9824 29.7871C27.0875 29.682 27.1645 29.66 27.2553 29.66V28.66ZM26.2753 29.08L25.5071 28.4398C25.12 28.9042 24.9253 29.4589 24.9253 30.06H25.9253H26.9253C26.9253 29.9144 26.9638 29.8158 27.0435 29.7202L26.2753 29.08ZM25.9253 30.06H24.9253V60.58H25.9253H26.9253V30.06H25.9253ZM25.9253 60.58H24.9253C24.9253 61.1811 25.12 61.7358 25.5071 62.2002L26.2753 61.56L27.0435 60.9198C26.9638 60.8242 26.9253 60.7256 26.9253 60.58H25.9253ZM26.2753 61.56L25.5682 62.2671C26.0231 62.722 26.5994 62.98 27.2553 62.98V61.98V60.98C27.1645 60.98 27.0875 60.958 26.9824 60.8529L26.2753 61.56ZM27.2553 61.98V62.98H31.2453V61.98V60.98H27.2553V61.98ZM31.2453 61.98V62.98C31.9071 62.98 32.4949 62.7145 32.9235 62.2002L32.1553 61.56L31.3871 60.9198C31.3567 60.9563 31.3386 60.9648 31.3337 60.967C31.3281 60.9696 31.3043 60.98 31.2453 60.98V61.98ZM32.1553 61.56L32.8624 62.2671C33.3173 61.8122 33.5753 61.2359 33.5753 60.58H32.5753H31.5753C31.5753 60.6708 31.5533 60.7478 31.4482 60.8529L32.1553 61.56ZM57.714 59.95H56.714V60.95H57.714V59.95ZM72.834 59.95H73.834V58.95H72.834V59.95ZM72.834 68V69H73.834V68H72.834ZM48.754 68H47.754V69H48.754V68ZM63.944 42.03L63.2369 41.3229L63.2048 41.355L63.1758 41.3898L63.944 42.03ZM63.944 30.06L63.1758 30.7002L63.2048 30.735L63.2369 30.7671L63.944 30.06ZM57.924 30.06L57.2169 29.3529L57.1848 29.385L57.1558 29.4198L57.924 30.06ZM57.574 34.61V35.61H58.574V34.61H57.574ZM48.264 34.61H47.264V35.61H48.264V34.61ZM58.064 51.48L57.3569 50.7729L57.3248 50.805L57.2958 50.8398L58.064 51.48ZM57.714 52.46H56.714V59.95H57.714H58.714V52.46H57.714ZM57.714 59.95V60.95H72.834V59.95V58.95H57.714V59.95ZM72.834 59.95H71.834V68H72.834H73.834V59.95H72.834ZM72.834 68V67H48.754V68V69H72.834V68ZM48.754 68H49.754V51.69H48.754H47.754V68H48.754ZM48.754 51.69H49.754C49.754 48.7491 50.4459 46.7295 51.6529 45.4447C52.8488 44.1716 54.7114 43.45 57.434 43.45V42.45V41.45C54.37 41.45 51.8926 42.2684 50.1952 44.0753C48.5088 45.8705 47.754 48.4709 47.754 51.69H48.754ZM57.434 42.45V43.45H63.034V42.45V41.45H57.434V42.45ZM63.034 42.45V43.45C63.6958 43.45 64.2837 43.1845 64.7122 42.6702L63.944 42.03L63.1758 41.3898C63.1454 41.4263 63.1274 41.4348 63.1225 41.437C63.1169 41.4396 63.0931 41.45 63.034 41.45V42.45ZM63.944 42.03L64.6511 42.7371C65.106 42.2822 65.364 41.7059 65.364 41.05H64.364H63.364C63.364 41.1408 63.342 41.2178 63.2369 41.3229L63.944 42.03ZM64.364 41.05H65.364V31.04H64.364H63.364V41.05H64.364ZM64.364 31.04H65.364C65.364 30.3841 65.106 29.8078 64.6511 29.3529L63.944 30.06L63.2369 30.7671C63.342 30.8722 63.364 30.9492 63.364 31.04H64.364ZM63.944 30.06L64.7122 29.4198C64.2837 28.9055 63.6958 28.64 63.034 28.64V29.64V30.64C63.0931 30.64 63.1169 30.6504 63.1225 30.653C63.1274 30.6552 63.1454 30.6637 63.1758 30.7002L63.944 30.06ZM63.034 29.64V28.64H58.904V29.64V30.64H63.034V29.64ZM58.904 29.64V28.64C58.2481 28.64 57.6718 28.898 57.2169 29.3529L57.924 30.06L58.6311 30.7671C58.7362 30.662 58.8132 30.64 58.904 30.64V29.64ZM57.924 30.06L57.1558 29.4198C56.7688 29.8842 56.574 30.4389 56.574 31.04H57.574H58.574C58.574 30.8944 58.6126 30.7958 58.6922 30.7002L57.924 30.06ZM57.574 31.04H56.574V34.61H57.574H58.574V31.04H57.574ZM57.574 34.61V33.61H48.264V34.61V35.61H57.574V34.61ZM48.264 34.61H49.264V31.25H48.264H47.264V34.61H48.264ZM48.264 31.25H49.264C49.264 28.3091 49.9559 26.2895 51.1629 25.0047C52.3588 23.7316 54.2214 23.01 56.944 23.01V22.01V21.01C53.88 21.01 51.4026 21.8284 49.7052 23.6353C48.0188 25.4305 47.264 28.0309 47.264 31.25H48.264ZM56.944 22.01V23.01H64.714V22.01V21.01H56.944V22.01ZM64.714 22.01V23.01C67.4367 23.01 69.2992 23.7316 70.4952 25.0047C71.7022 26.2895 72.394 28.3091 72.394 31.25H73.394H74.394C74.394 28.0309 73.6392 25.4305 71.9529 23.6353C70.2555 21.8284 67.778 21.01 64.714 21.01V22.01ZM73.394 31.25H72.394V41.82H73.394H74.394V31.25H73.394ZM73.394 41.82H72.394C72.394 44.7609 71.7022 46.7805 70.4952 48.0653C69.2992 49.3384 67.4367 50.06 64.714 50.06V51.06V52.06C67.778 52.06 70.2555 51.2416 71.9529 49.4347C73.6392 47.6395 74.394 45.0391 74.394 41.82H73.394ZM64.714 51.06V50.06H59.044V51.06V52.06H64.714V51.06ZM59.044 51.06V50.06C58.3881 50.06 57.8118 50.318 57.3569 50.7729L58.064 51.48L58.7711 52.1871C58.8762 52.082 58.9532 52.06 59.044 52.06V51.06ZM58.064 51.48L57.2958 50.8398C56.9088 51.3042 56.714 51.8589 56.714 52.46H57.714H58.714C58.714 52.3144 58.7526 52.2158 58.8322 52.1202L58.064 51.48Z" fill="black" mask="url(#path-3-inside-1_44_187)"/>
<mask id="path-5-inside-2_44_187" fill="white">
<path d="M156.582 44.3C158.749 45.0667 159.832 46.8333 159.832 49.6V55.4C159.832 59.8 157.766 62 153.632 62H140.782V29.65H153.232C157.366 29.65 159.432 31.85 159.432 36.25V39.2C159.432 41.8667 158.482 43.5667 156.582 44.3ZM151.482 34.4H147.782V43.05H151.482C151.749 43.05 151.966 42.95 152.132 42.75C152.332 42.55 152.432 42.3167 152.432 42.05V35.4C152.432 35.1333 152.332 34.9 152.132 34.7C151.966 34.5 151.749 34.4 151.482 34.4ZM152.832 56.2V48.95C152.832 48.6833 152.732 48.45 152.532 48.25C152.366 48.05 152.149 47.95 151.882 47.95H147.782V57.2H151.882C152.149 57.2 152.366 57.1 152.532 56.9C152.732 56.7 152.832 56.4667 152.832 56.2ZM177.46 29.15C181.594 29.15 183.66 31.35 183.66 35.75V62H176.66V51.15H171.61V62H164.61V35.75C164.61 31.35 166.677 29.15 170.81 29.15H177.46ZM171.61 45.75H176.66V34.9C176.66 34.6333 176.56 34.4 176.36 34.2C176.194 34 175.977 33.9 175.71 33.9H172.56C172.294 33.9 172.06 34 171.86 34.2C171.694 34.4 171.61 34.6333 171.61 34.9V45.75ZM200.928 56.7V51.7H207.578V55.9C207.578 60.3 205.511 62.5 201.378 62.5H195.078C190.945 62.5 188.878 60.3 188.878 55.9V35.75C188.878 31.35 190.945 29.15 195.078 29.15H201.378C205.511 29.15 207.578 31.35 207.578 35.75V38.8H200.928V34.9C200.928 34.6333 200.828 34.4 200.628 34.2C200.461 34 200.245 33.9 199.978 33.9H196.828C196.561 33.9 196.328 34 196.128 34.2C195.961 34.4 195.878 34.6333 195.878 34.9V56.7C195.878 56.9667 195.961 57.2 196.128 57.4C196.328 57.6 196.561 57.7 196.828 57.7H199.978C200.245 57.7 200.461 57.6 200.628 57.4C200.828 57.2 200.928 56.9667 200.928 56.7ZM231.928 29.65L226.428 44.5L232.978 62H225.828L221.028 49.2H218.778V62H211.778V29.65H218.778V43.2H220.478L225.528 29.65H231.928ZM243.62 35.6V29.65H261.12V35.6H255.87V62H248.87V35.6H243.62ZM283.367 35.75V55.9C283.367 60.3 281.301 62.5 277.167 62.5H270.517C266.384 62.5 264.317 60.3 264.317 55.9V35.75C264.317 31.35 266.384 29.15 270.517 29.15H277.167C281.301 29.15 283.367 31.35 283.367 35.75ZM276.367 56.7V34.9C276.367 34.6333 276.267 34.4 276.067 34.2C275.901 34 275.684 33.9 275.417 33.9H272.267C272.001 33.9 271.767 34 271.567 34.2C271.401 34.4 271.317 34.6333 271.317 34.9V56.7C271.317 56.9667 271.401 57.2 271.567 57.4C271.767 57.6 272.001 57.7 272.267 57.7H275.417C275.684 57.7 275.901 57.6 276.067 57.4C276.267 57.2 276.367 56.9667 276.367 56.7ZM310.694 56.7V51.7H317.344V55.9C317.344 60.3 315.277 62.5 311.144 62.5H304.844C300.71 62.5 298.644 60.3 298.644 55.9V35.75C298.644 31.35 300.71 29.15 304.844 29.15H311.144C315.277 29.15 317.344 31.35 317.344 35.75V38.8H310.694V34.9C310.694 34.6333 310.594 34.4 310.394 34.2C310.227 34 310.01 33.9 309.744 33.9H306.594C306.327 33.9 306.094 34 305.894 34.2C305.727 34.4 305.644 34.6333 305.644 34.9V56.7C305.644 56.9667 305.727 57.2 305.894 57.4C306.094 57.6 306.327 57.7 306.594 57.7H309.744C310.01 57.7 310.227 57.6 310.394 57.4C310.594 57.2 310.694 56.9667 310.694 56.7ZM328.544 49.3V62H321.544V29.65H328.544V43.2H334.094V29.65H341.094V62H334.094V49.3H328.544ZM353.104 56.2H360.854V62H346.104V29.65H360.854V35.35H353.104V42.95H360.354V48.45H353.104V56.2ZM376.953 56.7V51.7H383.603V55.9C383.603 60.3 381.537 62.5 377.403 62.5H371.103C366.97 62.5 364.903 60.3 364.903 55.9V35.75C364.903 31.35 366.97 29.15 371.103 29.15H377.403C381.537 29.15 383.603 31.35 383.603 35.75V38.8H376.953V34.9C376.953 34.6333 376.853 34.4 376.653 34.2C376.487 34 376.27 33.9 376.003 33.9H372.853C372.587 33.9 372.353 34 372.153 34.2C371.987 34.4 371.903 34.6333 371.903 34.9V56.7C371.903 56.9667 371.987 57.2 372.153 57.4C372.353 57.6 372.587 57.7 372.853 57.7H376.003C376.27 57.7 376.487 57.6 376.653 57.4C376.853 57.2 376.953 56.9667 376.953 56.7ZM407.954 29.65L402.454 44.5L409.004 62H401.854L397.054 49.2H394.804V62H387.804V29.65H394.804V43.2H396.504L401.554 29.65H407.954ZM423.988 29.65C428.121 29.65 430.188 31.85 430.188 36.25V42.7C430.188 47.1 428.121 49.3 423.988 49.3H418.338V62H411.338V29.65H423.988ZM423.188 43.5V35.45C423.188 35.1833 423.088 34.95 422.888 34.75C422.721 34.55 422.504 34.45 422.238 34.45H418.338V44.5H422.238C422.504 44.5 422.721 44.4 422.888 44.2C423.088 44 423.188 43.7667 423.188 43.5ZM452.752 35.75V55.9C452.752 60.3 450.685 62.5 446.552 62.5H439.902C435.769 62.5 433.702 60.3 433.702 55.9V35.75C433.702 31.35 435.769 29.15 439.902 29.15H446.552C450.685 29.15 452.752 31.35 452.752 35.75ZM445.752 56.7V34.9C445.752 34.6333 445.652 34.4 445.452 34.2C445.285 34 445.069 33.9 444.802 33.9H441.652C441.385 33.9 441.152 34 440.952 34.2C440.785 34.4 440.702 34.6333 440.702 34.9V56.7C440.702 56.9667 440.785 57.2 440.952 57.4C441.152 57.6 441.385 57.7 441.652 57.7H444.802C445.069 57.7 445.285 57.6 445.452 57.4C445.652 57.2 445.752 56.9667 445.752 56.7ZM464.921 29.65V62H457.921V29.65H464.921ZM488.678 62H481.678V35.15C481.678 34.8833 481.578 34.65 481.378 34.45C481.211 34.25 480.995 34.15 480.728 34.15H478.028C477.761 34.15 477.528 34.25 477.328 34.45C477.161 34.65 477.078 34.8833 477.078 35.15V62H470.078V35.75C470.078 31.35 472.145 29.15 476.278 29.15H482.478C486.611 29.15 488.678 31.35 488.678 35.75V62ZM491.52 35.6V29.65H509.02V35.6H503.77V62H496.77V35.6H491.52Z"/>
</mask>
<path d="M156.582 44.3C158.749 45.0667 159.832 46.8333 159.832 49.6V55.4C159.832 59.8 157.766 62 153.632 62H140.782V29.65H153.232C157.366 29.65 159.432 31.85 159.432 36.25V39.2C159.432 41.8667 158.482 43.5667 156.582 44.3ZM151.482 34.4H147.782V43.05H151.482C151.749 43.05 151.966 42.95 152.132 42.75C152.332 42.55 152.432 42.3167 152.432 42.05V35.4C152.432 35.1333 152.332 34.9 152.132 34.7C151.966 34.5 151.749 34.4 151.482 34.4ZM152.832 56.2V48.95C152.832 48.6833 152.732 48.45 152.532 48.25C152.366 48.05 152.149 47.95 151.882 47.95H147.782V57.2H151.882C152.149 57.2 152.366 57.1 152.532 56.9C152.732 56.7 152.832 56.4667 152.832 56.2ZM177.46 29.15C181.594 29.15 183.66 31.35 183.66 35.75V62H176.66V51.15H171.61V62H164.61V35.75C164.61 31.35 166.677 29.15 170.81 29.15H177.46ZM171.61 45.75H176.66V34.9C176.66 34.6333 176.56 34.4 176.36 34.2C176.194 34 175.977 33.9 175.71 33.9H172.56C172.294 33.9 172.06 34 171.86 34.2C171.694 34.4 171.61 34.6333 171.61 34.9V45.75ZM200.928 56.7V51.7H207.578V55.9C207.578 60.3 205.511 62.5 201.378 62.5H195.078C190.945 62.5 188.878 60.3 188.878 55.9V35.75C188.878 31.35 190.945 29.15 195.078 29.15H201.378C205.511 29.15 207.578 31.35 207.578 35.75V38.8H200.928V34.9C200.928 34.6333 200.828 34.4 200.628 34.2C200.461 34 200.245 33.9 199.978 33.9H196.828C196.561 33.9 196.328 34 196.128 34.2C195.961 34.4 195.878 34.6333 195.878 34.9V56.7C195.878 56.9667 195.961 57.2 196.128 57.4C196.328 57.6 196.561 57.7 196.828 57.7H199.978C200.245 57.7 200.461 57.6 200.628 57.4C200.828 57.2 200.928 56.9667 200.928 56.7ZM231.928 29.65L226.428 44.5L232.978 62H225.828L221.028 49.2H218.778V62H211.778V29.65H218.778V43.2H220.478L225.528 29.65H231.928ZM243.62 35.6V29.65H261.12V35.6H255.87V62H248.87V35.6H243.62ZM283.367 35.75V55.9C283.367 60.3 281.301 62.5 277.167 62.5H270.517C266.384 62.5 264.317 60.3 264.317 55.9V35.75C264.317 31.35 266.384 29.15 270.517 29.15H277.167C281.301 29.15 283.367 31.35 283.367 35.75ZM276.367 56.7V34.9C276.367 34.6333 276.267 34.4 276.067 34.2C275.901 34 275.684 33.9 275.417 33.9H272.267C272.001 33.9 271.767 34 271.567 34.2C271.401 34.4 271.317 34.6333 271.317 34.9V56.7C271.317 56.9667 271.401 57.2 271.567 57.4C271.767 57.6 272.001 57.7 272.267 57.7H275.417C275.684 57.7 275.901 57.6 276.067 57.4C276.267 57.2 276.367 56.9667 276.367 56.7ZM310.694 56.7V51.7H317.344V55.9C317.344 60.3 315.277 62.5 311.144 62.5H304.844C300.71 62.5 298.644 60.3 298.644 55.9V35.75C298.644 31.35 300.71 29.15 304.844 29.15H311.144C315.277 29.15 317.344 31.35 317.344 35.75V38.8H310.694V34.9C310.694 34.6333 310.594 34.4 310.394 34.2C310.227 34 310.01 33.9 309.744 33.9H306.594C306.327 33.9 306.094 34 305.894 34.2C305.727 34.4 305.644 34.6333 305.644 34.9V56.7C305.644 56.9667 305.727 57.2 305.894 57.4C306.094 57.6 306.327 57.7 306.594 57.7H309.744C310.01 57.7 310.227 57.6 310.394 57.4C310.594 57.2 310.694 56.9667 310.694 56.7ZM328.544 49.3V62H321.544V29.65H328.544V43.2H334.094V29.65H341.094V62H334.094V49.3H328.544ZM353.104 56.2H360.854V62H346.104V29.65H360.854V35.35H353.104V42.95H360.354V48.45H353.104V56.2ZM376.953 56.7V51.7H383.603V55.9C383.603 60.3 381.537 62.5 377.403 62.5H371.103C366.97 62.5 364.903 60.3 364.903 55.9V35.75C364.903 31.35 366.97 29.15 371.103 29.15H377.403C381.537 29.15 383.603 31.35 383.603 35.75V38.8H376.953V34.9C376.953 34.6333 376.853 34.4 376.653 34.2C376.487 34 376.27 33.9 376.003 33.9H372.853C372.587 33.9 372.353 34 372.153 34.2C371.987 34.4 371.903 34.6333 371.903 34.9V56.7C371.903 56.9667 371.987 57.2 372.153 57.4C372.353 57.6 372.587 57.7 372.853 57.7H376.003C376.27 57.7 376.487 57.6 376.653 57.4C376.853 57.2 376.953 56.9667 376.953 56.7ZM407.954 29.65L402.454 44.5L409.004 62H401.854L397.054 49.2H394.804V62H387.804V29.65H394.804V43.2H396.504L401.554 29.65H407.954ZM423.988 29.65C428.121 29.65 430.188 31.85 430.188 36.25V42.7C430.188 47.1 428.121 49.3 423.988 49.3H418.338V62H411.338V29.65H423.988ZM423.188 43.5V35.45C423.188 35.1833 423.088 34.95 422.888 34.75C422.721 34.55 422.504 34.45 422.238 34.45H418.338V44.5H422.238C422.504 44.5 422.721 44.4 422.888 44.2C423.088 44 423.188 43.7667 423.188 43.5ZM452.752 35.75V55.9C452.752 60.3 450.685 62.5 446.552 62.5H439.902C435.769 62.5 433.702 60.3 433.702 55.9V35.75C433.702 31.35 435.769 29.15 439.902 29.15H446.552C450.685 29.15 452.752 31.35 452.752 35.75ZM445.752 56.7V34.9C445.752 34.6333 445.652 34.4 445.452 34.2C445.285 34 445.069 33.9 444.802 33.9H441.652C441.385 33.9 441.152 34 440.952 34.2C440.785 34.4 440.702 34.6333 440.702 34.9V56.7C440.702 56.9667 440.785 57.2 440.952 57.4C441.152 57.6 441.385 57.7 441.652 57.7H444.802C445.069 57.7 445.285 57.6 445.452 57.4C445.652 57.2 445.752 56.9667 445.752 56.7ZM464.921 29.65V62H457.921V29.65H464.921ZM488.678 62H481.678V35.15C481.678 34.8833 481.578 34.65 481.378 34.45C481.211 34.25 480.995 34.15 480.728 34.15H478.028C477.761 34.15 477.528 34.25 477.328 34.45C477.161 34.65 477.078 34.8833 477.078 35.15V62H470.078V35.75C470.078 31.35 472.145 29.15 476.278 29.15H482.478C486.611 29.15 488.678 31.35 488.678 35.75V62ZM491.52 35.6V29.65H509.02V35.6H503.77V62H496.77V35.6H491.52Z" fill="black"/>
<path d="M156.582 44.3L156.222 43.3671L153.7 44.3407L156.249 45.2427L156.582 44.3ZM140.782 62H139.782V63H140.782V62ZM140.782 29.65V28.65H139.782V29.65H140.782ZM147.782 34.4V33.4H146.782V34.4H147.782ZM147.782 43.05H146.782V44.05H147.782V43.05ZM152.132 42.75L151.425 42.0429L151.393 42.075L151.364 42.1098L152.132 42.75ZM152.132 34.7L151.364 35.3402L151.393 35.375L151.425 35.4071L152.132 34.7ZM152.532 48.25L151.764 48.8902L151.793 48.925L151.825 48.9571L152.532 48.25ZM147.782 47.95V46.95H146.782V47.95H147.782ZM147.782 57.2H146.782V58.2H147.782V57.2ZM152.532 56.9L151.825 56.1929L151.793 56.225L151.764 56.2598L152.532 56.9ZM156.582 44.3L156.249 45.2427C157.141 45.5585 157.759 46.0562 158.167 46.7227C158.585 47.4044 158.832 48.3411 158.832 49.6H159.832H160.832C160.832 48.0922 160.538 46.7622 159.872 45.6772C159.198 44.5771 158.19 43.8082 156.916 43.3573L156.582 44.3ZM159.832 49.6H158.832V55.4H159.832H160.832V49.6H159.832ZM159.832 55.4H158.832C158.832 57.4609 158.347 58.8205 157.553 59.6653C156.771 60.4984 155.528 61 153.632 61V62V63C155.87 63 157.727 62.4016 159.011 61.0347C160.284 59.6795 160.832 57.7391 160.832 55.4H159.832ZM153.632 62V61H140.782V62V63H153.632V62ZM140.782 62H141.782V29.65H140.782H139.782V62H140.782ZM140.782 29.65V30.65H153.232V29.65V28.65H140.782V29.65ZM153.232 29.65V30.65C155.128 30.65 156.371 31.1516 157.153 31.9847C157.947 32.8295 158.432 34.1891 158.432 36.25H159.432H160.432C160.432 33.9109 159.884 31.9705 158.611 30.6153C157.327 29.2484 155.47 28.65 153.232 28.65V29.65ZM159.432 36.25H158.432V39.2H159.432H160.432V36.25H159.432ZM159.432 39.2H158.432C158.432 40.4228 158.213 41.3313 157.847 41.9872C157.491 42.6236 156.965 43.0802 156.222 43.3671L156.582 44.3L156.942 45.2329C158.099 44.7864 158.998 44.0264 159.593 42.9628C160.176 41.9187 160.432 40.6439 160.432 39.2H159.432ZM151.482 34.4V33.4H147.782V34.4V35.4H151.482V34.4ZM147.782 34.4H146.782V43.05H147.782H148.782V34.4H147.782ZM147.782 43.05V44.05H151.482V43.05V42.05H147.782V43.05ZM151.482 43.05V44.05C152.037 44.05 152.539 43.8245 152.9 43.3902L152.132 42.75L151.364 42.1098C151.367 42.1063 151.387 42.0848 151.426 42.067C151.463 42.0496 151.488 42.05 151.482 42.05V43.05ZM152.132 42.75L152.839 43.4571C153.214 43.0822 153.432 42.5992 153.432 42.05H152.432H151.432C151.432 42.0538 151.432 42.0526 151.433 42.0476C151.434 42.0425 151.436 42.0367 151.438 42.0311C151.44 42.0256 151.442 42.0233 151.441 42.0245C151.44 42.0259 151.436 42.0322 151.425 42.0429L152.132 42.75ZM152.432 42.05H153.432V35.4H152.432H151.432V42.05H152.432ZM152.432 35.4H153.432C153.432 34.8508 153.214 34.3678 152.839 33.9929L152.132 34.7L151.425 35.4071C151.436 35.4178 151.44 35.4241 151.441 35.4255C151.442 35.4267 151.44 35.4244 151.438 35.4189C151.436 35.4133 151.434 35.4075 151.433 35.4024C151.432 35.3974 151.432 35.3962 151.432 35.4H152.432ZM152.132 34.7L152.9 34.0598C152.539 33.6255 152.037 33.4 151.482 33.4V34.4V35.4C151.488 35.4 151.463 35.4004 151.426 35.383C151.387 35.3652 151.367 35.3437 151.364 35.3402L152.132 34.7ZM152.832 56.2H153.832V48.95H152.832H151.832V56.2H152.832ZM152.832 48.95H153.832C153.832 48.4008 153.614 47.9178 153.239 47.5429L152.532 48.25L151.825 48.9571C151.836 48.9678 151.84 48.9741 151.841 48.9755C151.842 48.9767 151.84 48.9744 151.838 48.9689C151.836 48.9633 151.834 48.9575 151.833 48.9524C151.832 48.9474 151.832 48.9462 151.832 48.95H152.832ZM152.532 48.25L153.3 47.6098C152.939 47.1755 152.437 46.95 151.882 46.95V47.95V48.95C151.888 48.95 151.863 48.9504 151.826 48.933C151.787 48.9152 151.767 48.8937 151.764 48.8902L152.532 48.25ZM151.882 47.95V46.95H147.782V47.95V48.95H151.882V47.95ZM147.782 47.95H146.782V57.2H147.782H148.782V47.95H147.782ZM147.782 57.2V58.2H151.882V57.2V56.2H147.782V57.2ZM151.882 57.2V58.2C152.437 58.2 152.939 57.9745 153.3 57.5402L152.532 56.9L151.764 56.2598C151.767 56.2563 151.787 56.2348 151.826 56.217C151.863 56.1996 151.888 56.2 151.882 56.2V57.2ZM152.532 56.9L153.239 57.6071C153.614 57.2322 153.832 56.7492 153.832 56.2H152.832H151.832C151.832 56.2038 151.832 56.2026 151.833 56.1976C151.834 56.1925 151.836 56.1867 151.838 56.1811C151.84 56.1756 151.842 56.1733 151.841 56.1745C151.84 56.1759 151.836 56.1822 151.825 56.1929L152.532 56.9ZM183.66 62V63H184.66V62H183.66ZM176.66 62H175.66V63H176.66V62ZM176.66 51.15H177.66V50.15H176.66V51.15ZM171.61 51.15V50.15H170.61V51.15H171.61ZM171.61 62V63H172.61V62H171.61ZM164.61 62H163.61V63H164.61V62ZM171.61 45.75H170.61V46.75H171.61V45.75ZM176.66 45.75V46.75H177.66V45.75H176.66ZM176.36 34.2L175.592 34.8402L175.621 34.875L175.653 34.9071L176.36 34.2ZM171.86 34.2L171.153 33.4929L171.121 33.525L171.092 33.5598L171.86 34.2ZM177.46 29.15V30.15C179.356 30.15 180.599 30.6516 181.382 31.4847C182.175 32.3295 182.66 33.6891 182.66 35.75H183.66H184.66C184.66 33.4109 184.112 31.4705 182.839 30.1153C181.555 28.7484 179.698 28.15 177.46 28.15V29.15ZM183.66 35.75H182.66V62H183.66H184.66V35.75H183.66ZM183.66 62V61H176.66V62V63H183.66V62ZM176.66 62H177.66V51.15H176.66H175.66V62H176.66ZM176.66 51.15V50.15H171.61V51.15V52.15H176.66V51.15ZM171.61 51.15H170.61V62H171.61H172.61V51.15H171.61ZM171.61 62V61H164.61V62V63H171.61V62ZM164.61 62H165.61V35.75H164.61H163.61V62H164.61ZM164.61 35.75H165.61C165.61 33.6891 166.096 32.3295 166.889 31.4847C167.672 30.6516 168.914 30.15 170.81 30.15V29.15V28.15C168.573 28.15 166.716 28.7484 165.432 30.1153C164.158 31.4705 163.61 33.4109 163.61 35.75H164.61ZM170.81 29.15V30.15H177.46V29.15V28.15H170.81V29.15ZM171.61 45.75V46.75H176.66V45.75V44.75H171.61V45.75ZM176.66 45.75H177.66V34.9H176.66H175.66V45.75H176.66ZM176.66 34.9H177.66C177.66 34.3508 177.442 33.8678 177.067 33.4929L176.36 34.2L175.653 34.9071C175.664 34.9178 175.668 34.9241 175.669 34.9255C175.67 34.9267 175.669 34.9244 175.666 34.9189C175.664 34.9133 175.662 34.9075 175.661 34.9024C175.66 34.8974 175.66 34.8962 175.66 34.9H176.66ZM176.36 34.2L177.129 33.5598C176.767 33.1255 176.265 32.9 175.71 32.9V33.9V34.9C175.716 34.9 175.692 34.9004 175.654 34.883C175.615 34.8652 175.595 34.8437 175.592 34.8402L176.36 34.2ZM175.71 33.9V32.9H172.56V33.9V34.9H175.71V33.9ZM172.56 33.9V32.9C172.011 32.9 171.528 33.118 171.153 33.4929L171.86 34.2L172.567 34.9071C172.578 34.8965 172.584 34.8919 172.586 34.8909C172.587 34.8901 172.585 34.8918 172.579 34.8941C172.574 34.8965 172.568 34.8983 172.563 34.8993C172.558 34.9003 172.557 34.9 172.56 34.9V33.9ZM171.86 34.2L171.092 33.5598C170.772 33.9442 170.61 34.4056 170.61 34.9H171.61H172.61C172.61 34.8725 172.614 34.8621 172.615 34.8613C172.615 34.8602 172.616 34.8586 172.617 34.856C172.619 34.8533 172.622 34.848 172.629 34.8402L171.86 34.2ZM171.61 34.9H170.61V45.75H171.61H172.61V34.9H171.61ZM200.928 51.7V50.7H199.928V51.7H200.928ZM207.578 51.7H208.578V50.7H207.578V51.7ZM207.578 38.8V39.8H208.578V38.8H207.578ZM200.928 38.8H199.928V39.8H200.928V38.8ZM200.628 34.2L199.86 34.8402L199.889 34.875L199.921 34.9071L200.628 34.2ZM196.128 34.2L195.421 33.4929L195.389 33.525L195.36 33.5598L196.128 34.2ZM196.128 57.4L195.36 58.0402L195.389 58.075L195.421 58.1071L196.128 57.4ZM200.628 57.4L199.921 56.6929L199.889 56.725L199.86 56.7598L200.628 57.4ZM200.928 56.7H201.928V51.7H200.928H199.928V56.7H200.928ZM200.928 51.7V52.7H207.578V51.7V50.7H200.928V51.7ZM207.578 51.7H206.578V55.9H207.578H208.578V51.7H207.578ZM207.578 55.9H206.578C206.578 57.9609 206.093 59.3205 205.299 60.1653C204.516 60.9984 203.274 61.5 201.378 61.5V62.5V63.5C203.615 63.5 205.473 62.9016 206.757 61.5347C208.03 60.1795 208.578 58.2391 208.578 55.9H207.578ZM201.378 62.5V61.5H195.078V62.5V63.5H201.378V62.5ZM195.078 62.5V61.5C193.182 61.5 191.939 60.9984 191.157 60.1653C190.363 59.3205 189.878 57.9609 189.878 55.9H188.878H187.878C187.878 58.2391 188.426 60.1795 189.699 61.5347C190.983 62.9016 192.841 63.5 195.078 63.5V62.5ZM188.878 55.9H189.878V35.75H188.878H187.878V55.9H188.878ZM188.878 35.75H189.878C189.878 33.6891 190.363 32.3295 191.157 31.4847C191.939 30.6516 193.182 30.15 195.078 30.15V29.15V28.15C192.841 28.15 190.983 28.7484 189.699 30.1153C188.426 31.4705 187.878 33.4109 187.878 35.75H188.878ZM195.078 29.15V30.15H201.378V29.15V28.15H195.078V29.15ZM201.378 29.15V30.15C203.274 30.15 204.516 30.6516 205.299 31.4847C206.093 32.3295 206.578 33.6891 206.578 35.75H207.578H208.578C208.578 33.4109 208.03 31.4705 206.757 30.1153C205.473 28.7484 203.615 28.15 201.378 28.15V29.15ZM207.578 35.75H206.578V38.8H207.578H208.578V35.75H207.578ZM207.578 38.8V37.8H200.928V38.8V39.8H207.578V38.8ZM200.928 38.8H201.928V34.9H200.928H199.928V38.8H200.928ZM200.928 34.9H201.928C201.928 34.3508 201.71 33.8678 201.335 33.4929L200.628 34.2L199.921 34.9071C199.931 34.9178 199.936 34.9241 199.937 34.9255C199.938 34.9267 199.936 34.9244 199.934 34.9189C199.931 34.9133 199.93 34.9075 199.929 34.9024C199.928 34.8974 199.928 34.8962 199.928 34.9H200.928ZM200.628 34.2L201.396 33.5598C201.034 33.1255 200.533 32.9 199.978 32.9V33.9V34.9C199.984 34.9 199.959 34.9004 199.921 34.883C199.883 34.8652 199.863 34.8437 199.86 34.8402L200.628 34.2ZM199.978 33.9V32.9H196.828V33.9V34.9H199.978V33.9ZM196.828 33.9V32.9C196.279 32.9 195.796 33.118 195.421 33.4929L196.128 34.2L196.835 34.9071C196.846 34.8965 196.852 34.8919 196.853 34.8909C196.855 34.8901 196.852 34.8918 196.847 34.8941C196.841 34.8965 196.835 34.8983 196.83 34.8993C196.825 34.9003 196.824 34.9 196.828 34.9V33.9ZM196.128 34.2L195.36 33.5598C195.039 33.9442 194.878 34.4056 194.878 34.9H195.878H196.878C196.878 34.8725 196.882 34.8621 196.882 34.8613C196.883 34.8602 196.883 34.8586 196.885 34.856C196.886 34.8533 196.89 34.848 196.896 34.8402L196.128 34.2ZM195.878 34.9H194.878V56.7H195.878H196.878V34.9H195.878ZM195.878 56.7H194.878C194.878 57.1944 195.039 57.6558 195.36 58.0402L196.128 57.4L196.896 56.7598C196.89 56.752 196.886 56.7467 196.885 56.744C196.883 56.7414 196.883 56.7398 196.882 56.7387C196.882 56.7379 196.878 56.7275 196.878 56.7H195.878ZM196.128 57.4L195.421 58.1071C195.796 58.482 196.279 58.7 196.828 58.7V57.7V56.7C196.824 56.7 196.825 56.6997 196.83 56.7007C196.835 56.7017 196.841 56.7035 196.847 56.7059C196.852 56.7082 196.855 56.7099 196.853 56.7091C196.852 56.7081 196.846 56.7035 196.835 56.6929L196.128 57.4ZM196.828 57.7V58.7H199.978V57.7V56.7H196.828V57.7ZM199.978 57.7V58.7C200.533 58.7 201.034 58.4745 201.396 58.0402L200.628 57.4L199.86 56.7598C199.863 56.7563 199.883 56.7348 199.921 56.717C199.959 56.6996 199.984 56.7 199.978 56.7V57.7ZM200.628 57.4L201.335 58.1071C201.71 57.7322 201.928 57.2492 201.928 56.7H200.928H199.928C199.928 56.7038 199.928 56.7026 199.929 56.6976C199.93 56.6925 199.931 56.6867 199.934 56.6811C199.936 56.6756 199.938 56.6733 199.937 56.6745C199.936 56.6759 199.931 56.6822 199.921 56.6929L200.628 57.4ZM231.928 29.65L232.866 29.9973L233.365 28.65H231.928V29.65ZM226.428 44.5L225.491 44.1527L225.361 44.5018L225.492 44.8505L226.428 44.5ZM232.978 62V63H234.42L233.915 61.6495L232.978 62ZM225.828 62L224.892 62.3511L225.135 63H225.828V62ZM221.028 49.2L221.965 48.8489L221.721 48.2H221.028V49.2ZM218.778 49.2V48.2H217.778V49.2H218.778ZM218.778 62V63H219.778V62H218.778ZM211.778 62H210.778V63H211.778V62ZM211.778 29.65V28.65H210.778V29.65H211.778ZM218.778 29.65H219.778V28.65H218.778V29.65ZM218.778 43.2H217.778V44.2H218.778V43.2ZM220.478 43.2V44.2H221.173L221.415 43.5492L220.478 43.2ZM225.528 29.65V28.65H224.834L224.591 29.3008L225.528 29.65ZM231.928 29.65L230.991 29.3027L225.491 44.1527L226.428 44.5L227.366 44.8473L232.866 29.9973L231.928 29.65ZM226.428 44.5L225.492 44.8505L232.042 62.3505L232.978 62L233.915 61.6495L227.365 44.1495L226.428 44.5ZM232.978 62V61H225.828V62V63H232.978V62ZM225.828 62L226.765 61.6489L221.965 48.8489L221.028 49.2L220.092 49.5511L224.892 62.3511L225.828 62ZM221.028 49.2V48.2H218.778V49.2V50.2H221.028V49.2ZM218.778 49.2H217.778V62H218.778H219.778V49.2H218.778ZM218.778 62V61H211.778V62V63H218.778V62ZM211.778 62H212.778V29.65H211.778H210.778V62H211.778ZM211.778 29.65V30.65H218.778V29.65V28.65H211.778V29.65ZM218.778 29.65H217.778V43.2H218.778H219.778V29.65H218.778ZM218.778 43.2V44.2H220.478V43.2V42.2H218.778V43.2ZM220.478 43.2L221.415 43.5492L226.465 29.9992L225.528 29.65L224.591 29.3008L219.541 42.8508L220.478 43.2ZM225.528 29.65V30.65H231.928V29.65V28.65H225.528V29.65ZM243.62 35.6H242.62V36.6H243.62V35.6ZM243.62 29.65V28.65H242.62V29.65H243.62ZM261.12 29.65H262.12V28.65H261.12V29.65ZM261.12 35.6V36.6H262.12V35.6H261.12ZM255.87 35.6V34.6H254.87V35.6H255.87ZM255.87 62V63H256.87V62H255.87ZM248.87 62H247.87V63H248.87V62ZM248.87 35.6H249.87V34.6H248.87V35.6ZM243.62 35.6H244.62V29.65H243.62H242.62V35.6H243.62ZM243.62 29.65V30.65H261.12V29.65V28.65H243.62V29.65ZM261.12 29.65H260.12V35.6H261.12H262.12V29.65H261.12ZM261.12 35.6V34.6H255.87V35.6V36.6H261.12V35.6ZM255.87 35.6H254.87V62H255.87H256.87V35.6H255.87ZM255.87 62V61H248.87V62V63H255.87V62ZM248.87 62H249.87V35.6H248.87H247.87V62H248.87ZM248.87 35.6V34.6H243.62V35.6V36.6H248.87V35.6ZM276.067 34.2L275.299 34.8402L275.328 34.875L275.36 34.9071L276.067 34.2ZM271.567 34.2L270.86 33.4929L270.828 33.525L270.799 33.5598L271.567 34.2ZM271.567 57.4L270.799 58.0402L270.828 58.075L270.86 58.1071L271.567 57.4ZM276.067 57.4L275.36 56.6929L275.328 56.725L275.299 56.7598L276.067 57.4ZM283.367 35.75H282.367V55.9H283.367H284.367V35.75H283.367ZM283.367 55.9H282.367C282.367 57.9609 281.882 59.3205 281.089 60.1653C280.306 60.9984 279.063 61.5 277.167 61.5V62.5V63.5C279.405 63.5 281.262 62.9016 282.546 61.5347C283.819 60.1795 284.367 58.2391 284.367 55.9H283.367ZM277.167 62.5V61.5H270.517V62.5V63.5H277.167V62.5ZM270.517 62.5V61.5C268.621 61.5 267.379 60.9984 266.596 60.1653C265.803 59.3205 265.317 57.9609 265.317 55.9H264.317H263.317C263.317 58.2391 263.866 60.1795 265.139 61.5347C266.423 62.9016 268.28 63.5 270.517 63.5V62.5ZM264.317 55.9H265.317V35.75H264.317H263.317V55.9H264.317ZM264.317 35.75H265.317C265.317 33.6891 265.803 32.3295 266.596 31.4847C267.379 30.6516 268.621 30.15 270.517 30.15V29.15V28.15C268.28 28.15 266.423 28.7484 265.139 30.1153C263.866 31.4705 263.317 33.4109 263.317 35.75H264.317ZM270.517 29.15V30.15H277.167V29.15V28.15H270.517V29.15ZM277.167 29.15V30.15C279.063 30.15 280.306 30.6516 281.089 31.4847C281.882 32.3295 282.367 33.6891 282.367 35.75H283.367H284.367C284.367 33.4109 283.819 31.4705 282.546 30.1153C281.262 28.7484 279.405 28.15 277.167 28.15V29.15ZM276.367 56.7H277.367V34.9H276.367H275.367V56.7H276.367ZM276.367 34.9H277.367C277.367 34.3508 277.149 33.8678 276.774 33.4929L276.067 34.2L275.36 34.9071C275.371 34.9178 275.375 34.9241 275.376 34.9255C275.377 34.9267 275.376 34.9244 275.373 34.9189C275.371 34.9133 275.369 34.9075 275.368 34.9024C275.367 34.8974 275.367 34.8962 275.367 34.9H276.367ZM276.067 34.2L276.836 33.5598C276.474 33.1255 275.973 32.9 275.417 32.9V33.9V34.9C275.423 34.9 275.399 34.9004 275.361 34.883C275.322 34.8652 275.302 34.8437 275.299 34.8402L276.067 34.2ZM275.417 33.9V32.9H272.267V33.9V34.9H275.417V33.9ZM272.267 33.9V32.9C271.718 32.9 271.235 33.118 270.86 33.4929L271.567 34.2L272.274 34.9071C272.285 34.8965 272.291 34.8919 272.293 34.8909C272.294 34.8901 272.292 34.8918 272.286 34.8941C272.281 34.8965 272.275 34.8983 272.27 34.8993C272.265 34.9003 272.264 34.9 272.267 34.9V33.9ZM271.567 34.2L270.799 33.5598C270.479 33.9442 270.317 34.4056 270.317 34.9H271.317H272.317C272.317 34.8725 272.321 34.8621 272.322 34.8613C272.322 34.8602 272.323 34.8586 272.324 34.856C272.326 34.8533 272.329 34.848 272.336 34.8402L271.567 34.2ZM271.317 34.9H270.317V56.7H271.317H272.317V34.9H271.317ZM271.317 56.7H270.317C270.317 57.1944 270.479 57.6558 270.799 58.0402L271.567 57.4L272.336 56.7598C272.329 56.752 272.326 56.7467 272.324 56.744C272.323 56.7414 272.322 56.7398 272.322 56.7387C272.321 56.7379 272.317 56.7275 272.317 56.7H271.317ZM271.567 57.4L270.86 58.1071C271.235 58.482 271.718 58.7 272.267 58.7V57.7V56.7C272.264 56.7 272.265 56.6997 272.27 56.7007C272.275 56.7017 272.281 56.7035 272.286 56.7059C272.292 56.7082 272.294 56.7099 272.293 56.7091C272.291 56.7081 272.285 56.7035 272.274 56.6929L271.567 57.4ZM272.267 57.7V58.7H275.417V57.7V56.7H272.267V57.7ZM275.417 57.7V58.7C275.973 58.7 276.474 58.4745 276.836 58.0402L276.067 57.4L275.299 56.7598C275.302 56.7563 275.322 56.7348 275.361 56.717C275.399 56.6996 275.423 56.7 275.417 56.7V57.7ZM276.067 57.4L276.774 58.1071C277.149 57.7322 277.367 57.2492 277.367 56.7H276.367H275.367C275.367 56.7038 275.367 56.7026 275.368 56.6976C275.369 56.6925 275.371 56.6867 275.373 56.6811C275.376 56.6756 275.377 56.6733 275.376 56.6745C275.375 56.6759 275.371 56.6822 275.36 56.6929L276.067 57.4ZM310.694 51.7V50.7H309.694V51.7H310.694ZM317.344 51.7H318.344V50.7H317.344V51.7ZM317.344 38.8V39.8H318.344V38.8H317.344ZM310.694 38.8H309.694V39.8H310.694V38.8ZM310.394 34.2L309.625 34.8402L309.654 34.875L309.686 34.9071L310.394 34.2ZM305.894 34.2L305.186 33.4929L305.154 33.525L305.125 33.5598L305.894 34.2ZM305.894 57.4L305.125 58.0402L305.154 58.075L305.186 58.1071L305.894 57.4ZM310.394 57.4L309.686 56.6929L309.654 56.725L309.625 56.7598L310.394 57.4ZM310.694 56.7H311.694V51.7H310.694H309.694V56.7H310.694ZM310.694 51.7V52.7H317.344V51.7V50.7H310.694V51.7ZM317.344 51.7H316.344V55.9H317.344H318.344V51.7H317.344ZM317.344 55.9H316.344C316.344 57.9609 315.858 59.3205 315.065 60.1653C314.282 60.9984 313.04 61.5 311.144 61.5V62.5V63.5C313.381 63.5 315.238 62.9016 316.522 61.5347C317.795 60.1795 318.344 58.2391 318.344 55.9H317.344ZM311.144 62.5V61.5H304.844V62.5V63.5H311.144V62.5ZM304.844 62.5V61.5C302.948 61.5 301.705 60.9984 300.922 60.1653C300.129 59.3205 299.644 57.9609 299.644 55.9H298.644H297.644C297.644 58.2391 298.192 60.1795 299.465 61.5347C300.749 62.9016 302.606 63.5 304.844 63.5V62.5ZM298.644 55.9H299.644V35.75H298.644H297.644V55.9H298.644ZM298.644 35.75H299.644C299.644 33.6891 300.129 32.3295 300.922 31.4847C301.705 30.6516 302.948 30.15 304.844 30.15V29.15V28.15C302.606 28.15 300.749 28.7484 299.465 30.1153C298.192 31.4705 297.644 33.4109 297.644 35.75H298.644ZM304.844 29.15V30.15H311.144V29.15V28.15H304.844V29.15ZM311.144 29.15V30.15C313.04 30.15 314.282 30.6516 315.065 31.4847C315.858 32.3295 316.344 33.6891 316.344 35.75H317.344H318.344C318.344 33.4109 317.795 31.4705 316.522 30.1153C315.238 28.7484 313.381 28.15 311.144 28.15V29.15ZM317.344 35.75H316.344V38.8H317.344H318.344V35.75H317.344ZM317.344 38.8V37.8H310.694V38.8V39.8H317.344V38.8ZM310.694 38.8H311.694V34.9H310.694H309.694V38.8H310.694ZM310.694 34.9H311.694C311.694 34.3508 311.476 33.8678 311.101 33.4929L310.394 34.2L309.686 34.9071C309.697 34.9178 309.702 34.9241 309.703 34.9255C309.703 34.9267 309.702 34.9244 309.699 34.9189C309.697 34.9133 309.695 34.9075 309.694 34.9024C309.693 34.8974 309.694 34.8962 309.694 34.9H310.694ZM310.394 34.2L311.162 33.5598C310.8 33.1255 310.299 32.9 309.744 32.9V33.9V34.9C309.749 34.9 309.725 34.9004 309.687 34.883C309.649 34.8652 309.628 34.8437 309.625 34.8402L310.394 34.2ZM309.744 33.9V32.9H306.594V33.9V34.9H309.744V33.9ZM306.594 33.9V32.9C306.044 32.9 305.561 33.118 305.186 33.4929L305.894 34.2L306.601 34.9071C306.611 34.8965 306.618 34.8919 306.619 34.8909C306.62 34.8901 306.618 34.8918 306.612 34.8941C306.607 34.8965 306.601 34.8983 306.596 34.8993C306.591 34.9003 306.59 34.9 306.594 34.9V33.9ZM305.894 34.2L305.125 33.5598C304.805 33.9442 304.644 34.4056 304.644 34.9H305.644H306.644C306.644 34.8725 306.648 34.8621 306.648 34.8613C306.648 34.8602 306.649 34.8586 306.65 34.856C306.652 34.8533 306.655 34.848 306.662 34.8402L305.894 34.2ZM305.644 34.9H304.644V56.7H305.644H306.644V34.9H305.644ZM305.644 56.7H304.644C304.644 57.1944 304.805 57.6558 305.125 58.0402L305.894 57.4L306.662 56.7598C306.655 56.752 306.652 56.7467 306.65 56.744C306.649 56.7414 306.648 56.7398 306.648 56.7387C306.648 56.7379 306.644 56.7275 306.644 56.7H305.644ZM305.894 57.4L305.186 58.1071C305.561 58.482 306.044 58.7 306.594 58.7V57.7V56.7C306.59 56.7 306.591 56.6997 306.596 56.7007C306.601 56.7017 306.607 56.7035 306.612 56.7059C306.618 56.7082 306.62 56.7099 306.619 56.7091C306.618 56.7081 306.611 56.7035 306.601 56.6929L305.894 57.4ZM306.594 57.7V58.7H309.744V57.7V56.7H306.594V57.7ZM309.744 57.7V58.7C310.299 58.7 310.8 58.4745 311.162 58.0402L310.394 57.4L309.625 56.7598C309.628 56.7563 309.649 56.7348 309.687 56.717C309.725 56.6996 309.749 56.7 309.744 56.7V57.7ZM310.394 57.4L311.101 58.1071C311.476 57.7322 311.694 57.2492 311.694 56.7H310.694H309.694C309.694 56.7038 309.693 56.7026 309.694 56.6976C309.695 56.6925 309.697 56.6867 309.699 56.6811C309.702 56.6756 309.703 56.6733 309.703 56.6745C309.702 56.6759 309.697 56.6822 309.686 56.6929L310.394 57.4ZM328.544 49.3V48.3H327.544V49.3H328.544ZM328.544 62V63H329.544V62H328.544ZM321.544 62H320.544V63H321.544V62ZM321.544 29.65V28.65H320.544V29.65H321.544ZM328.544 29.65H329.544V28.65H328.544V29.65ZM328.544 43.2H327.544V44.2H328.544V43.2ZM334.094 43.2V44.2H335.094V43.2H334.094ZM334.094 29.65V28.65H333.094V29.65H334.094ZM341.094 29.65H342.094V28.65H341.094V29.65ZM341.094 62V63H342.094V62H341.094ZM334.094 62H333.094V63H334.094V62ZM334.094 49.3H335.094V48.3H334.094V49.3ZM328.544 49.3H327.544V62H328.544H329.544V49.3H328.544ZM328.544 62V61H321.544V62V63H328.544V62ZM321.544 62H322.544V29.65H321.544H320.544V62H321.544ZM321.544 29.65V30.65H328.544V29.65V28.65H321.544V29.65ZM328.544 29.65H327.544V43.2H328.544H329.544V29.65H328.544ZM328.544 43.2V44.2H334.094V43.2V42.2H328.544V43.2ZM334.094 43.2H335.094V29.65H334.094H333.094V43.2H334.094ZM334.094 29.65V30.65H341.094V29.65V28.65H334.094V29.65ZM341.094 29.65H340.094V62H341.094H342.094V29.65H341.094ZM341.094 62V61H334.094V62V63H341.094V62ZM334.094 62H335.094V49.3H334.094H333.094V62H334.094ZM334.094 49.3V48.3H328.544V49.3V50.3H334.094V49.3ZM353.104 56.2H352.104V57.2H353.104V56.2ZM360.854 56.2H361.854V55.2H360.854V56.2ZM360.854 62V63H361.854V62H360.854ZM346.104 62H345.104V63H346.104V62ZM346.104 29.65V28.65H345.104V29.65H346.104ZM360.854 29.65H361.854V28.65H360.854V29.65ZM360.854 35.35V36.35H361.854V35.35H360.854ZM353.104 35.35V34.35H352.104V35.35H353.104ZM353.104 42.95H352.104V43.95H353.104V42.95ZM360.354 42.95H361.354V41.95H360.354V42.95ZM360.354 48.45V49.45H361.354V48.45H360.354ZM353.104 48.45V47.45H352.104V48.45H353.104ZM353.104 56.2V57.2H360.854V56.2V55.2H353.104V56.2ZM360.854 56.2H359.854V62H360.854H361.854V56.2H360.854ZM360.854 62V61H346.104V62V63H360.854V62ZM346.104 62H347.104V29.65H346.104H345.104V62H346.104ZM346.104 29.65V30.65H360.854V29.65V28.65H346.104V29.65ZM360.854 29.65H359.854V35.35H360.854H361.854V29.65H360.854ZM360.854 35.35V34.35H353.104V35.35V36.35H360.854V35.35ZM353.104 35.35H352.104V42.95H353.104H354.104V35.35H353.104ZM353.104 42.95V43.95H360.354V42.95V41.95H353.104V42.95ZM360.354 42.95H359.354V48.45H360.354H361.354V42.95H360.354ZM360.354 48.45V47.45H353.104V48.45V49.45H360.354V48.45ZM353.104 48.45H352.104V56.2H353.104H354.104V48.45H353.104ZM376.953 51.7V50.7H375.953V51.7H376.953ZM383.603 51.7H384.603V50.7H383.603V51.7ZM383.603 38.8V39.8H384.603V38.8H383.603ZM376.953 38.8H375.953V39.8H376.953V38.8ZM376.653 34.2L375.885 34.8402L375.914 34.875L375.946 34.9071L376.653 34.2ZM372.153 34.2L371.446 33.4929L371.414 33.525L371.385 33.5598L372.153 34.2ZM372.153 57.4L371.385 58.0402L371.414 58.075L371.446 58.1071L372.153 57.4ZM376.653 57.4L375.946 56.6929L375.914 56.725L375.885 56.7598L376.653 57.4ZM376.953 56.7H377.953V51.7H376.953H375.953V56.7H376.953ZM376.953 51.7V52.7H383.603V51.7V50.7H376.953V51.7ZM383.603 51.7H382.603V55.9H383.603H384.603V51.7H383.603ZM383.603 55.9H382.603C382.603 57.9609 382.118 59.3205 381.324 60.1653C380.542 60.9984 379.299 61.5 377.403 61.5V62.5V63.5C379.641 63.5 381.498 62.9016 382.782 61.5347C384.055 60.1795 384.603 58.2391 384.603 55.9H383.603ZM377.403 62.5V61.5H371.103V62.5V63.5H377.403V62.5ZM371.103 62.5V61.5C369.207 61.5 367.965 60.9984 367.182 60.1653C366.389 59.3205 365.903 57.9609 365.903 55.9H364.903H363.903C363.903 58.2391 364.451 60.1795 365.724 61.5347C367.009 62.9016 368.866 63.5 371.103 63.5V62.5ZM364.903 55.9H365.903V35.75H364.903H363.903V55.9H364.903ZM364.903 35.75H365.903C365.903 33.6891 366.389 32.3295 367.182 31.4847C367.965 30.6516 369.207 30.15 371.103 30.15V29.15V28.15C368.866 28.15 367.009 28.7484 365.724 30.1153C364.451 31.4705 363.903 33.4109 363.903 35.75H364.903ZM371.103 29.15V30.15H377.403V29.15V28.15H371.103V29.15ZM377.403 29.15V30.15C379.299 30.15 380.542 30.6516 381.324 31.4847C382.118 32.3295 382.603 33.6891 382.603 35.75H383.603H384.603C384.603 33.4109 384.055 31.4705 382.782 30.1153C381.498 28.7484 379.641 28.15 377.403 28.15V29.15ZM383.603 35.75H382.603V38.8H383.603H384.603V35.75H383.603ZM383.603 38.8V37.8H376.953V38.8V39.8H383.603V38.8ZM376.953 38.8H377.953V34.9H376.953H375.953V38.8H376.953ZM376.953 34.9H377.953C377.953 34.3508 377.735 33.8678 377.36 33.4929L376.653 34.2L375.946 34.9071C375.957 34.9178 375.961 34.9241 375.962 34.9255C375.963 34.9267 375.962 34.9244 375.959 34.9189C375.957 34.9133 375.955 34.9075 375.954 34.9024C375.953 34.8974 375.953 34.8962 375.953 34.9H376.953ZM376.653 34.2L377.422 33.5598C377.06 33.1255 376.558 32.9 376.003 32.9V33.9V34.9C376.009 34.9 375.984 34.9004 375.947 34.883C375.908 34.8652 375.888 34.8437 375.885 34.8402L376.653 34.2ZM376.003 33.9V32.9H372.853V33.9V34.9H376.003V33.9ZM372.853 33.9V32.9C372.304 32.9 371.821 33.118 371.446 33.4929L372.153 34.2L372.86 34.9071C372.871 34.8965 372.877 34.8919 372.879 34.8909C372.88 34.8901 372.878 34.8918 372.872 34.8941C372.867 34.8965 372.861 34.8983 372.856 34.8993C372.851 34.9003 372.849 34.9 372.853 34.9V33.9ZM372.153 34.2L371.385 33.5598C371.065 33.9442 370.903 34.4056 370.903 34.9H371.903H372.903C372.903 34.8725 372.907 34.8621 372.908 34.8613C372.908 34.8602 372.909 34.8586 372.91 34.856C372.912 34.8533 372.915 34.848 372.922 34.8402L372.153 34.2ZM371.903 34.9H370.903V56.7H371.903H372.903V34.9H371.903ZM371.903 56.7H370.903C370.903 57.1944 371.065 57.6558 371.385 58.0402L372.153 57.4L372.922 56.7598C372.915 56.752 372.912 56.7467 372.91 56.744C372.909 56.7414 372.908 56.7398 372.908 56.7387C372.907 56.7379 372.903 56.7275 372.903 56.7H371.903ZM372.153 57.4L371.446 58.1071C371.821 58.482 372.304 58.7 372.853 58.7V57.7V56.7C372.849 56.7 372.851 56.6997 372.856 56.7007C372.861 56.7017 372.867 56.7035 372.872 56.7059C372.878 56.7082 372.88 56.7099 372.879 56.7091C372.877 56.7081 372.871 56.7035 372.86 56.6929L372.153 57.4ZM372.853 57.7V58.7H376.003V57.7V56.7H372.853V57.7ZM376.003 57.7V58.7C376.558 58.7 377.06 58.4745 377.422 58.0402L376.653 57.4L375.885 56.7598C375.888 56.7563 375.908 56.7348 375.947 56.717C375.984 56.6996 376.009 56.7 376.003 56.7V57.7ZM376.653 57.4L377.36 58.1071C377.735 57.7322 377.953 57.2492 377.953 56.7H376.953H375.953C375.953 56.7038 375.953 56.7026 375.954 56.6976C375.955 56.6925 375.957 56.6867 375.959 56.6811C375.962 56.6756 375.963 56.6733 375.962 56.6745C375.961 56.6759 375.957 56.6822 375.946 56.6929L376.653 57.4ZM407.954 29.65L408.891 29.9973L409.39 28.65H407.954V29.65ZM402.454 44.5L401.516 44.1527L401.387 44.5018L401.517 44.8505L402.454 44.5ZM409.004 62V63H410.446L409.94 61.6495L409.004 62ZM401.854 62L400.917 62.3511L401.161 63H401.854V62ZM397.054 49.2L397.99 48.8489L397.747 48.2H397.054V49.2ZM394.804 49.2V48.2H393.804V49.2H394.804ZM394.804 62V63H395.804V62H394.804ZM387.804 62H386.804V63H387.804V62ZM387.804 29.65V28.65H386.804V29.65H387.804ZM394.804 29.65H395.804V28.65H394.804V29.65ZM394.804 43.2H393.804V44.2H394.804V43.2ZM396.504 43.2V44.2H397.198L397.441 43.5492L396.504 43.2ZM401.554 29.65V28.65H400.859L400.617 29.3008L401.554 29.65ZM407.954 29.65L407.016 29.3027L401.516 44.1527L402.454 44.5L403.391 44.8473L408.891 29.9973L407.954 29.65ZM402.454 44.5L401.517 44.8505L408.067 62.3505L409.004 62L409.94 61.6495L403.39 44.1495L402.454 44.5ZM409.004 62V61H401.854V62V63H409.004V62ZM401.854 62L402.79 61.6489L397.99 48.8489L397.054 49.2L396.117 49.5511L400.917 62.3511L401.854 62ZM397.054 49.2V48.2H394.804V49.2V50.2H397.054V49.2ZM394.804 49.2H393.804V62H394.804H395.804V49.2H394.804ZM394.804 62V61H387.804V62V63H394.804V62ZM387.804 62H388.804V29.65H387.804H386.804V62H387.804ZM387.804 29.65V30.65H394.804V29.65V28.65H387.804V29.65ZM394.804 29.65H393.804V43.2H394.804H395.804V29.65H394.804ZM394.804 43.2V44.2H396.504V43.2V42.2H394.804V43.2ZM396.504 43.2L397.441 43.5492L402.491 29.9992L401.554 29.65L400.617 29.3008L395.567 42.8508L396.504 43.2ZM401.554 29.65V30.65H407.954V29.65V28.65H401.554V29.65ZM418.338 49.3V48.3H417.338V49.3H418.338ZM418.338 62V63H419.338V62H418.338ZM411.338 62H410.338V63H411.338V62ZM411.338 29.65V28.65H410.338V29.65H411.338ZM422.888 34.75L422.119 35.3902L422.149 35.425L422.181 35.4571L422.888 34.75ZM418.338 34.45V33.45H417.338V34.45H418.338ZM418.338 44.5H417.338V45.5H418.338V44.5ZM422.888 44.2L422.181 43.4929L422.148 43.525L422.119 43.5598L422.888 44.2ZM423.988 29.65V30.65C425.884 30.65 427.126 31.1516 427.909 31.9847C428.702 32.8295 429.188 34.1891 429.188 36.25H430.188H431.188C431.188 33.9109 430.64 31.9705 429.367 30.6153C428.082 29.2484 426.225 28.65 423.988 28.65V29.65ZM430.188 36.25H429.188V42.7H430.188H431.188V36.25H430.188ZM430.188 42.7H429.188C429.188 44.7609 428.702 46.1205 427.909 46.9653C427.126 47.7984 425.884 48.3 423.988 48.3V49.3V50.3C426.225 50.3 428.082 49.7016 429.367 48.3347C430.64 46.9795 431.188 45.0391 431.188 42.7H430.188ZM423.988 49.3V48.3H418.338V49.3V50.3H423.988V49.3ZM418.338 49.3H417.338V62H418.338H419.338V49.3H418.338ZM418.338 62V61H411.338V62V63H418.338V62ZM411.338 62H412.338V29.65H411.338H410.338V62H411.338ZM411.338 29.65V30.65H423.988V29.65V28.65H411.338V29.65ZM423.188 43.5H424.188V35.45H423.188H422.188V43.5H423.188ZM423.188 35.45H424.188C424.188 34.9008 423.97 34.4178 423.595 34.0429L422.888 34.75L422.181 35.4571C422.191 35.4678 422.196 35.4741 422.197 35.4755C422.198 35.4767 422.196 35.4744 422.194 35.4689C422.191 35.4633 422.189 35.4575 422.188 35.4524C422.187 35.4474 422.188 35.4462 422.188 35.45H423.188ZM422.888 34.75L423.656 34.1098C423.294 33.6755 422.793 33.45 422.238 33.45V34.45V35.45C422.243 35.45 422.219 35.4504 422.181 35.433C422.143 35.4152 422.122 35.3937 422.119 35.3902L422.888 34.75ZM422.238 34.45V33.45H418.338V34.45V35.45H422.238V34.45ZM418.338 34.45H417.338V44.5H418.338H419.338V34.45H418.338ZM418.338 44.5V45.5H422.238V44.5V43.5H418.338V44.5ZM422.238 44.5V45.5C422.793 45.5 423.294 45.2745 423.656 44.8402L422.888 44.2L422.119 43.5598C422.122 43.5563 422.143 43.5348 422.181 43.517C422.219 43.4996 422.243 43.5 422.238 43.5V44.5ZM422.888 44.2L423.595 44.9071C423.97 44.5322 424.188 44.0492 424.188 43.5H423.188H422.188C422.188 43.5038 422.187 43.5026 422.188 43.4976C422.189 43.4925 422.191 43.4866 422.194 43.4811C422.196 43.4756 422.198 43.4733 422.197 43.4745C422.196 43.4759 422.191 43.4822 422.181 43.4929L422.888 44.2ZM445.452 34.2L444.684 34.8402L444.713 34.875L444.745 34.9071L445.452 34.2ZM440.952 34.2L440.245 33.4929L440.213 33.525L440.184 33.5598L440.952 34.2ZM440.952 57.4L440.184 58.0402L440.213 58.075L440.245 58.1071L440.952 57.4ZM445.452 57.4L444.745 56.6929L444.713 56.725L444.684 56.7598L445.452 57.4ZM452.752 35.75H451.752V55.9H452.752H453.752V35.75H452.752ZM452.752 55.9H451.752C451.752 57.9609 451.267 59.3205 450.473 60.1653C449.691 60.9984 448.448 61.5 446.552 61.5V62.5V63.5C448.79 63.5 450.647 62.9016 451.931 61.5347C453.204 60.1795 453.752 58.2391 453.752 55.9H452.752ZM446.552 62.5V61.5H439.902V62.5V63.5H446.552V62.5ZM439.902 62.5V61.5C438.006 61.5 436.764 60.9984 435.981 60.1653C435.187 59.3205 434.702 57.9609 434.702 55.9H433.702H432.702C432.702 58.2391 433.25 60.1795 434.523 61.5347C435.807 62.9016 437.665 63.5 439.902 63.5V62.5ZM433.702 55.9H434.702V35.75H433.702H432.702V55.9H433.702ZM433.702 35.75H434.702C434.702 33.6891 435.187 32.3295 435.981 31.4847C436.764 30.6516 438.006 30.15 439.902 30.15V29.15V28.15C437.665 28.15 435.807 28.7484 434.523 30.1153C433.25 31.4705 432.702 33.4109 432.702 35.75H433.702ZM439.902 29.15V30.15H446.552V29.15V28.15H439.902V29.15ZM446.552 29.15V30.15C448.448 30.15 449.691 30.6516 450.473 31.4847C451.267 32.3295 451.752 33.6891 451.752 35.75H452.752H453.752C453.752 33.4109 453.204 31.4705 451.931 30.1153C450.647 28.7484 448.79 28.15 446.552 28.15V29.15ZM445.752 56.7H446.752V34.9H445.752H444.752V56.7H445.752ZM445.752 34.9H446.752C446.752 34.3508 446.534 33.8678 446.159 33.4929L445.452 34.2L444.745 34.9071C444.756 34.9178 444.76 34.9241 444.761 34.9255C444.762 34.9267 444.76 34.9244 444.758 34.9189C444.756 34.9133 444.754 34.9075 444.753 34.9024C444.752 34.8974 444.752 34.8962 444.752 34.9H445.752ZM445.452 34.2L446.22 33.5598C445.858 33.1255 445.357 32.9 444.802 32.9V33.9V34.9C444.808 34.9 444.783 34.9004 444.746 34.883C444.707 34.8652 444.687 34.8437 444.684 34.8402L445.452 34.2ZM444.802 33.9V32.9H441.652V33.9V34.9H444.802V33.9ZM441.652 33.9V32.9C441.103 32.9 440.62 33.118 440.245 33.4929L440.952 34.2L441.659 34.9071C441.67 34.8965 441.676 34.8919 441.678 34.8909C441.679 34.8901 441.677 34.8918 441.671 34.8941C441.665 34.8965 441.66 34.8983 441.655 34.8993C441.65 34.9003 441.648 34.9 441.652 34.9V33.9ZM440.952 34.2L440.184 33.5598C439.864 33.9442 439.702 34.4056 439.702 34.9H440.702H441.702C441.702 34.8725 441.706 34.8621 441.706 34.8613C441.707 34.8602 441.707 34.8586 441.709 34.856C441.711 34.8533 441.714 34.848 441.72 34.8402L440.952 34.2ZM440.702 34.9H439.702V56.7H440.702H441.702V34.9H440.702ZM440.702 56.7H439.702C439.702 57.1944 439.864 57.6558 440.184 58.0402L440.952 57.4L441.72 56.7598C441.714 56.752 441.71 56.7467 441.709 56.744C441.707 56.7414 441.707 56.7398 441.706 56.7387C441.706 56.7379 441.702 56.7275 441.702 56.7H440.702ZM440.952 57.4L440.245 58.1071C440.62 58.482 441.103 58.7 441.652 58.7V57.7V56.7C441.648 56.7 441.65 56.6997 441.655 56.7007C441.66 56.7017 441.665 56.7035 441.671 56.7059C441.677 56.7082 441.679 56.7099 441.678 56.7091C441.676 56.7081 441.67 56.7035 441.659 56.6929L440.952 57.4ZM441.652 57.7V58.7H444.802V57.7V56.7H441.652V57.7ZM444.802 57.7V58.7C445.357 58.7 445.858 58.4745 446.22 58.0402L445.452 57.4L444.684 56.7598C444.687 56.7563 444.707 56.7348 444.746 56.717C444.783 56.6996 444.808 56.7 444.802 56.7V57.7ZM445.452 57.4L446.159 58.1071C446.534 57.7322 446.752 57.2492 446.752 56.7H445.752H444.752C444.752 56.7038 444.752 56.7026 444.753 56.6976C444.754 56.6925 444.756 56.6867 444.758 56.6811C444.76 56.6756 444.762 56.6733 444.761 56.6745C444.76 56.6759 444.756 56.6822 444.745 56.6929L445.452 57.4ZM464.921 29.65H465.921V28.65H464.921V29.65ZM464.921 62V63H465.921V62H464.921ZM457.921 62H456.921V63H457.921V62ZM457.921 29.65V28.65H456.921V29.65H457.921ZM464.921 29.65H463.921V62H464.921H465.921V29.65H464.921ZM464.921 62V61H457.921V62V63H464.921V62ZM457.921 62H458.921V29.65H457.921H456.921V62H457.921ZM457.921 29.65V30.65H464.921V29.65V28.65H457.921V29.65ZM488.678 62V63H489.678V62H488.678ZM481.678 62H480.678V63H481.678V62ZM481.378 34.45L480.61 35.0902L480.639 35.125L480.671 35.1571L481.378 34.45ZM477.328 34.45L476.621 33.7429L476.589 33.775L476.56 33.8098L477.328 34.45ZM477.078 62V63H478.078V62H477.078ZM470.078 62H469.078V63H470.078V62ZM488.678 62V61H481.678V62V63H488.678V62ZM481.678 62H482.678V35.15H481.678H480.678V62H481.678ZM481.678 35.15H482.678C482.678 34.6008 482.46 34.1178 482.085 33.7429L481.378 34.45L480.671 35.1571C480.681 35.1678 480.686 35.1741 480.687 35.1755C480.688 35.1767 480.686 35.1744 480.684 35.1689C480.681 35.1633 480.68 35.1575 480.679 35.1524C480.678 35.1474 480.678 35.1462 480.678 35.15H481.678ZM481.378 34.45L482.146 33.8098C481.784 33.3755 481.283 33.15 480.728 33.15V34.15V35.15C480.734 35.15 480.709 35.1504 480.671 35.133C480.633 35.1152 480.613 35.0937 480.61 35.0902L481.378 34.45ZM480.728 34.15V33.15H478.028V34.15V35.15H480.728V34.15ZM478.028 34.15V33.15C477.479 33.15 476.996 33.368 476.621 33.7429L477.328 34.45L478.035 35.1571C478.046 35.1465 478.052 35.1419 478.053 35.1409C478.055 35.1401 478.052 35.1418 478.047 35.1441C478.041 35.1465 478.035 35.1483 478.03 35.1493C478.025 35.1503 478.024 35.15 478.028 35.15V34.15ZM477.328 34.45L476.56 33.8098C476.239 34.1942 476.078 34.6556 476.078 35.15H477.078H478.078C478.078 35.1225 478.082 35.1121 478.082 35.1113C478.083 35.1102 478.083 35.1086 478.085 35.106C478.086 35.1033 478.09 35.098 478.096 35.0902L477.328 34.45ZM477.078 35.15H476.078V62H477.078H478.078V35.15H477.078ZM477.078 62V61H470.078V62V63H477.078V62ZM470.078 62H471.078V35.75H470.078H469.078V62H470.078ZM470.078 35.75H471.078C471.078 33.6891 471.563 32.3295 472.357 31.4847C473.139 30.6516 474.382 30.15 476.278 30.15V29.15V28.15C474.041 28.15 472.183 28.7484 470.899 30.1153C469.626 31.4705 469.078 33.4109 469.078 35.75H470.078ZM476.278 29.15V30.15H482.478V29.15V28.15H476.278V29.15ZM482.478 29.15V30.15C484.374 30.15 485.616 30.6516 486.399 31.4847C487.193 32.3295 487.678 33.6891 487.678 35.75H488.678H489.678C489.678 33.4109 489.13 31.4705 487.857 30.1153C486.573 28.7484 484.715 28.15 482.478 28.15V29.15ZM488.678 35.75H487.678V62H488.678H489.678V35.75H488.678ZM491.52 35.6H490.52V36.6H491.52V35.6ZM491.52 29.65V28.65H490.52V29.65H491.52ZM509.02 29.65H510.02V28.65H509.02V29.65ZM509.02 35.6V36.6H510.02V35.6H509.02ZM503.77 35.6V34.6H502.77V35.6H503.77ZM503.77 62V63H504.77V62H503.77ZM496.77 62H495.77V63H496.77V62ZM496.77 35.6H497.77V34.6H496.77V35.6ZM491.52 35.6H492.52V29.65H491.52H490.52V35.6H491.52ZM491.52 29.65V30.65H509.02V29.65V28.65H491.52V29.65ZM509.02 29.65H508.02V35.6H509.02H510.02V29.65H509.02ZM509.02 35.6V34.6H503.77V35.6V36.6H509.02V35.6ZM503.77 35.6H502.77V62H503.77H504.77V35.6H503.77ZM503.77 62V61H496.77V62V63H503.77V62ZM496.77 62H497.77V35.6H496.77H495.77V62H496.77ZM496.77 35.6V34.6H491.52V35.6V36.6H496.77V35.6Z" fill="black" mask="url(#path-5-inside-2_44_187)"/>
</svg>
