<svg width="558" height="90" viewBox="0 0 558 90" fill="none" xmlns="http://www.w3.org/2000/svg">
<rect x="0.5" y="0.5" width="557" height="89" rx="0.5" fill="#A32100" stroke="black"/>
<rect x="0.5" y="0.5" width="89" height="89" rx="0.5" fill="#380B00" stroke="black"/>
<mask id="path-3-inside-1_44_434" fill="white">
<path d="M42.0269 31.25V59.46C42.0269 65.62 39.1336 68.7 33.3469 68.7H25.0169C19.2302 68.7 16.3369 65.62 16.3369 59.46V31.25C16.3369 25.09 19.2302 22.01 25.0169 22.01H33.3469C39.1336 22.01 42.0269 25.09 42.0269 31.25ZM32.5069 60.58V30.06C32.5069 29.6867 32.3669 29.36 32.0869 29.08C31.8536 28.8 31.5502 28.66 31.1769 28.66H27.1869C26.8136 28.66 26.4869 28.8 26.2069 29.08C25.9736 29.36 25.8569 29.6867 25.8569 30.06V60.58C25.8569 60.9533 25.9736 61.28 26.2069 61.56C26.4869 61.84 26.8136 61.98 27.1869 61.98H31.1769C31.5502 61.98 31.8536 61.84 32.0869 61.56C32.3669 61.28 32.5069 60.9533 32.5069 60.58ZM65.4157 40.56C71.2023 40.56 74.0957 43.64 74.0957 49.8V59.46C74.0957 65.62 71.2023 68.7 65.4157 68.7H57.1557C51.369 68.7 48.4757 65.62 48.4757 59.46V31.25C48.4757 25.09 51.369 22.01 57.1557 22.01H64.7157C70.5023 22.01 73.3957 25.09 73.3957 31.25V34.61H64.4357V31.04C64.4357 30.6667 64.2957 30.34 64.0157 30.06C63.7823 29.78 63.479 29.64 63.1057 29.64H58.5557C58.1823 29.64 57.8557 29.78 57.5757 30.06C57.3423 30.34 57.2257 30.6667 57.2257 31.04V41.47C58.4857 40.8633 60.049 40.56 61.9157 40.56H65.4157ZM65.4157 58.69V50.57C65.4157 50.1967 65.2757 49.87 64.9957 49.59C64.7623 49.31 64.459 49.17 64.0857 49.17H58.5557C58.1823 49.17 57.8557 49.31 57.5757 49.59C57.3423 49.87 57.2257 50.1967 57.2257 50.57V58.69C57.2257 59.0633 57.3423 59.39 57.5757 59.67C57.8557 59.95 58.1823 60.09 58.5557 60.09H64.0857C64.459 60.09 64.7623 59.95 64.9957 59.67C65.2757 59.39 65.4157 59.0633 65.4157 58.69Z"/>
</mask>
<path d="M42.0269 31.25V59.46C42.0269 65.62 39.1336 68.7 33.3469 68.7H25.0169C19.2302 68.7 16.3369 65.62 16.3369 59.46V31.25C16.3369 25.09 19.2302 22.01 25.0169 22.01H33.3469C39.1336 22.01 42.0269 25.09 42.0269 31.25ZM32.5069 60.58V30.06C32.5069 29.6867 32.3669 29.36 32.0869 29.08C31.8536 28.8 31.5502 28.66 31.1769 28.66H27.1869C26.8136 28.66 26.4869 28.8 26.2069 29.08C25.9736 29.36 25.8569 29.6867 25.8569 30.06V60.58C25.8569 60.9533 25.9736 61.28 26.2069 61.56C26.4869 61.84 26.8136 61.98 27.1869 61.98H31.1769C31.5502 61.98 31.8536 61.84 32.0869 61.56C32.3669 61.28 32.5069 60.9533 32.5069 60.58ZM65.4157 40.56C71.2023 40.56 74.0957 43.64 74.0957 49.8V59.46C74.0957 65.62 71.2023 68.7 65.4157 68.7H57.1557C51.369 68.7 48.4757 65.62 48.4757 59.46V31.25C48.4757 25.09 51.369 22.01 57.1557 22.01H64.7157C70.5023 22.01 73.3957 25.09 73.3957 31.25V34.61H64.4357V31.04C64.4357 30.6667 64.2957 30.34 64.0157 30.06C63.7823 29.78 63.479 29.64 63.1057 29.64H58.5557C58.1823 29.64 57.8557 29.78 57.5757 30.06C57.3423 30.34 57.2257 30.6667 57.2257 31.04V41.47C58.4857 40.8633 60.049 40.56 61.9157 40.56H65.4157ZM65.4157 58.69V50.57C65.4157 50.1967 65.2757 49.87 64.9957 49.59C64.7623 49.31 64.459 49.17 64.0857 49.17H58.5557C58.1823 49.17 57.8557 49.31 57.5757 49.59C57.3423 49.87 57.2257 50.1967 57.2257 50.57V58.69C57.2257 59.0633 57.3423 59.39 57.5757 59.67C57.8557 59.95 58.1823 60.09 58.5557 60.09H64.0857C64.459 60.09 64.7623 59.95 64.9957 59.67C65.2757 59.39 65.4157 59.0633 65.4157 58.69Z" fill="white"/>
<path d="M32.0869 29.08L31.3187 29.7202L31.3477 29.755L31.3798 29.7871L32.0869 29.08ZM26.2069 29.08L25.4998 28.3729L25.4677 28.405L25.4387 28.4398L26.2069 29.08ZM26.2069 61.56L25.4387 62.2002L25.4677 62.235L25.4998 62.2671L26.2069 61.56ZM32.0869 61.56L31.3798 60.8529L31.3477 60.885L31.3187 60.9198L32.0869 61.56ZM42.0269 31.25H41.0269V59.46H42.0269H43.0269V31.25H42.0269ZM42.0269 59.46H41.0269C41.0269 62.4009 40.335 64.4205 39.1281 65.7053C37.9321 66.9784 36.0696 67.7 33.3469 67.7V68.7V69.7C36.4109 69.7 38.8884 68.8816 40.5858 67.0747C42.2721 65.2795 43.0269 62.6791 43.0269 59.46H42.0269ZM33.3469 68.7V67.7H25.0169V68.7V69.7H33.3469V68.7ZM25.0169 68.7V67.7C22.2943 67.7 20.4317 66.9784 19.2358 65.7053C18.0288 64.4205 17.3369 62.4009 17.3369 59.46H16.3369H15.3369C15.3369 62.6791 16.0917 65.2795 17.7781 67.0747C19.4755 68.8816 21.9529 69.7 25.0169 69.7V68.7ZM16.3369 59.46H17.3369V31.25H16.3369H15.3369V59.46H16.3369ZM16.3369 31.25H17.3369C17.3369 28.3091 18.0288 26.2895 19.2358 25.0047C20.4317 23.7316 22.2943 23.01 25.0169 23.01V22.01V21.01C21.9529 21.01 19.4755 21.8284 17.7781 23.6353C16.0917 25.4305 15.3369 28.0309 15.3369 31.25H16.3369ZM25.0169 22.01V23.01H33.3469V22.01V21.01H25.0169V22.01ZM33.3469 22.01V23.01C36.0696 23.01 37.9321 23.7316 39.1281 25.0047C40.335 26.2895 41.0269 28.3091 41.0269 31.25H42.0269H43.0269C43.0269 28.0309 42.2721 25.4305 40.5858 23.6353C38.8884 21.8284 36.4109 21.01 33.3469 21.01V22.01ZM32.5069 60.58H33.5069V30.06H32.5069H31.5069V60.58H32.5069ZM32.5069 30.06H33.5069C33.5069 29.4041 33.2489 28.8278 32.794 28.3729L32.0869 29.08L31.3798 29.7871C31.4849 29.8922 31.5069 29.9692 31.5069 30.06H32.5069ZM32.0869 29.08L32.8551 28.4398C32.4265 27.9255 31.8387 27.66 31.1769 27.66V28.66V29.66C31.236 29.66 31.2598 29.6704 31.2654 29.673C31.2703 29.6752 31.2883 29.6837 31.3187 29.7202L32.0869 29.08ZM31.1769 28.66V27.66H27.1869V28.66V29.66H31.1769V28.66ZM27.1869 28.66V27.66C26.531 27.66 25.9547 27.918 25.4998 28.3729L26.2069 29.08L26.914 29.7871C27.0191 29.682 27.0961 29.66 27.1869 29.66V28.66ZM26.2069 29.08L25.4387 28.4398C25.0517 28.9042 24.8569 29.4589 24.8569 30.06H25.8569H26.8569C26.8569 29.9144 26.8955 29.8158 26.9751 29.7202L26.2069 29.08ZM25.8569 30.06H24.8569V60.58H25.8569H26.8569V30.06H25.8569ZM25.8569 60.58H24.8569C24.8569 61.1811 25.0517 61.7358 25.4387 62.2002L26.2069 61.56L26.9751 60.9198C26.8955 60.8242 26.8569 60.7256 26.8569 60.58H25.8569ZM26.2069 61.56L25.4998 62.2671C25.9547 62.722 26.531 62.98 27.1869 62.98V61.98V60.98C27.0961 60.98 27.0191 60.958 26.914 60.8529L26.2069 61.56ZM27.1869 61.98V62.98H31.1769V61.98V60.98H27.1869V61.98ZM31.1769 61.98V62.98C31.8387 62.98 32.4265 62.7145 32.8551 62.2002L32.0869 61.56L31.3187 60.9198C31.2883 60.9563 31.2703 60.9648 31.2654 60.967C31.2598 60.9696 31.236 60.98 31.1769 60.98V61.98ZM32.0869 61.56L32.794 62.2671C33.2489 61.8122 33.5069 61.2359 33.5069 60.58H32.5069H31.5069C31.5069 60.6708 31.4849 60.7478 31.3798 60.8529L32.0869 61.56ZM73.3957 34.61V35.61H74.3957V34.61H73.3957ZM64.4357 34.61H63.4357V35.61H64.4357V34.61ZM64.0157 30.06L63.2474 30.7002L63.2765 30.735L63.3086 30.7671L64.0157 30.06ZM57.5757 30.06L56.8686 29.3529L56.8365 29.385L56.8074 29.4198L57.5757 30.06ZM57.2257 41.47H56.2257V43.0614L57.6595 42.371L57.2257 41.47ZM64.9957 49.59L64.2274 50.2302L64.2565 50.265L64.2886 50.2971L64.9957 49.59ZM57.5757 49.59L56.8686 48.8829L56.8365 48.915L56.8074 48.9498L57.5757 49.59ZM57.5757 59.67L56.8074 60.3102L56.8365 60.345L56.8686 60.3771L57.5757 59.67ZM64.9957 59.67L64.2886 58.9629L64.2565 58.995L64.2274 59.0298L64.9957 59.67ZM65.4157 40.56V41.56C68.1383 41.56 70.0009 42.2816 71.1968 43.5547C72.4038 44.8395 73.0957 46.8591 73.0957 49.8H74.0957H75.0957C75.0957 46.5809 74.3409 43.9805 72.6545 42.1853C70.9571 40.3784 68.4797 39.56 65.4157 39.56V40.56ZM74.0957 49.8H73.0957V59.46H74.0957H75.0957V49.8H74.0957ZM74.0957 59.46H73.0957C73.0957 62.4009 72.4038 64.4205 71.1968 65.7053C70.0009 66.9784 68.1383 67.7 65.4157 67.7V68.7V69.7C68.4797 69.7 70.9571 68.8816 72.6545 67.0747C74.3409 65.2795 75.0957 62.6791 75.0957 59.46H74.0957ZM65.4157 68.7V67.7H57.1557V68.7V69.7H65.4157V68.7ZM57.1557 68.7V67.7C54.433 67.7 52.5704 66.9784 51.3745 65.7053C50.1675 64.4205 49.4757 62.4009 49.4757 59.46H48.4757H47.4757C47.4757 62.6791 48.2305 65.2795 49.9168 67.0747C51.6142 68.8816 54.0916 69.7 57.1557 69.7V68.7ZM48.4757 59.46H49.4757V31.25H48.4757H47.4757V59.46H48.4757ZM48.4757 31.25H49.4757C49.4757 28.3091 50.1675 26.2895 51.3745 25.0047C52.5704 23.7316 54.433 23.01 57.1557 23.01V22.01V21.01C54.0916 21.01 51.6142 21.8284 49.9168 23.6353C48.2305 25.4305 47.4757 28.0309 47.4757 31.25H48.4757ZM57.1557 22.01V23.01H64.7157V22.01V21.01H57.1557V22.01ZM64.7157 22.01V23.01C67.4383 23.01 69.3009 23.7316 70.4968 25.0047C71.7038 26.2895 72.3957 28.3091 72.3957 31.25H73.3957H74.3957C74.3957 28.0309 73.6409 25.4305 71.9545 23.6353C70.2571 21.8284 67.7797 21.01 64.7157 21.01V22.01ZM73.3957 31.25H72.3957V34.61H73.3957H74.3957V31.25H73.3957ZM73.3957 34.61V33.61H64.4357V34.61V35.61H73.3957V34.61ZM64.4357 34.61H65.4357V31.04H64.4357H63.4357V34.61H64.4357ZM64.4357 31.04H65.4357C65.4357 30.3841 65.1777 29.8078 64.7228 29.3529L64.0157 30.06L63.3086 30.7671C63.4136 30.8722 63.4357 30.9492 63.4357 31.04H64.4357ZM64.0157 30.06L64.7839 29.4198C64.3553 28.9055 63.7674 28.64 63.1057 28.64V29.64V30.64C63.1647 30.64 63.1885 30.6504 63.1941 30.653C63.199 30.6552 63.2171 30.6637 63.2474 30.7002L64.0157 30.06ZM63.1057 29.64V28.64H58.5557V29.64V30.64H63.1057V29.64ZM58.5557 29.64V28.64C57.8998 28.64 57.3235 28.898 56.8686 29.3529L57.5757 30.06L58.2828 30.7671C58.3879 30.662 58.4649 30.64 58.5557 30.64V29.64ZM57.5757 30.06L56.8074 29.4198C56.4204 29.8842 56.2257 30.4389 56.2257 31.04H57.2257H58.2257C58.2257 30.8944 58.2642 30.7958 58.3439 30.7002L57.5757 30.06ZM57.2257 31.04H56.2257V41.47H57.2257H58.2257V31.04H57.2257ZM57.2257 41.47L57.6595 42.371C58.7467 41.8475 60.1513 41.56 61.9157 41.56V40.56V39.56C59.9467 39.56 58.2246 39.8792 56.7918 40.569L57.2257 41.47ZM61.9157 40.56V41.56H65.4157V40.56V39.56H61.9157V40.56ZM65.4157 58.69H66.4157V50.57H65.4157H64.4157V58.69H65.4157ZM65.4157 50.57H66.4157C66.4157 49.9141 66.1577 49.3378 65.7028 48.8829L64.9957 49.59L64.2886 50.2971C64.3936 50.4022 64.4157 50.4792 64.4157 50.57H65.4157ZM64.9957 49.59L65.7639 48.9498C65.3353 48.4355 64.7475 48.17 64.0857 48.17V49.17V50.17C64.1447 50.17 64.1685 50.1804 64.1741 50.183C64.179 50.1852 64.1971 50.1937 64.2274 50.2302L64.9957 49.59ZM64.0857 49.17V48.17H58.5557V49.17V50.17H64.0857V49.17ZM58.5557 49.17V48.17C57.8998 48.17 57.3235 48.428 56.8686 48.8829L57.5757 49.59L58.2828 50.2971C58.3879 50.192 58.4649 50.17 58.5557 50.17V49.17ZM57.5757 49.59L56.8074 48.9498C56.4204 49.4142 56.2257 49.9689 56.2257 50.57H57.2257H58.2257C58.2257 50.4244 58.2642 50.3258 58.3439 50.2302L57.5757 49.59ZM57.2257 50.57H56.2257V58.69H57.2257H58.2257V50.57H57.2257ZM57.2257 58.69H56.2257C56.2257 59.2911 56.4204 59.8458 56.8074 60.3102L57.5757 59.67L58.3439 59.0298C58.2642 58.9342 58.2257 58.8356 58.2257 58.69H57.2257ZM57.5757 59.67L56.8686 60.3771C57.3235 60.832 57.8998 61.09 58.5557 61.09V60.09V59.09C58.4649 59.09 58.3879 59.068 58.2828 58.9629L57.5757 59.67ZM58.5557 60.09V61.09H64.0857V60.09V59.09H58.5557V60.09ZM64.0857 60.09V61.09C64.7475 61.09 65.3353 60.8245 65.7639 60.3102L64.9957 59.67L64.2274 59.0298C64.1971 59.0663 64.179 59.0748 64.1741 59.077C64.1685 59.0796 64.1447 59.09 64.0857 59.09V60.09ZM64.9957 59.67L65.7028 60.3771C66.1577 59.9222 66.4157 59.3459 66.4157 58.69H65.4157H64.4157C64.4157 58.7808 64.3936 58.8578 64.2886 58.9629L64.9957 59.67Z" fill="black" mask="url(#path-3-inside-1_44_434)"/>
<mask id="path-5-inside-2_44_434" fill="white">
<path d="M191.181 29.15C195.314 29.15 197.381 31.35 197.381 35.75V55.9C197.381 60.3 195.314 62.5 191.181 62.5H191.081V65C191.081 65.5 191.331 65.75 191.831 65.75H193.431V70.65H190.481C188.848 70.65 187.564 70.15 186.631 69.15C185.731 68.1833 185.281 67.0833 185.281 65.85V62.5H184.531C180.398 62.5 178.331 60.3 178.331 55.9V35.75C178.331 31.35 180.398 29.15 184.531 29.15H191.181ZM185.331 34.9V56.7C185.331 56.9667 185.414 57.2 185.581 57.4C185.781 57.6 186.014 57.7 186.281 57.7H189.431C189.698 57.7 189.914 57.6 190.081 57.4C190.281 57.2 190.381 56.9667 190.381 56.7V34.9C190.381 34.6333 190.281 34.4 190.081 34.2C189.914 34 189.698 33.9 189.431 33.9H186.281C186.014 33.9 185.781 34 185.581 34.2C185.414 34.4 185.331 34.6333 185.331 34.9ZM213.612 29.65H220.612V55.9C220.612 60.3 218.545 62.5 214.412 62.5H208.212C204.078 62.5 202.012 60.3 202.012 55.9V29.65H209.012V56.5C209.012 56.7667 209.095 57 209.262 57.2C209.462 57.4 209.695 57.5 209.962 57.5H212.662C212.928 57.5 213.145 57.4 213.312 57.2C213.512 57 213.612 56.7667 213.612 56.5V29.65ZM232.401 29.65V62H225.401V29.65H232.401ZM235.758 35.6V29.65H253.258V35.6H248.008V62H241.008V35.6H235.758ZM264.713 35.6V29.65H282.213V35.6H276.963V62H269.963V35.6H264.713ZM304.461 35.75V55.9C304.461 60.3 302.394 62.5 298.261 62.5H291.611C287.478 62.5 285.411 60.3 285.411 55.9V35.75C285.411 31.35 287.478 29.15 291.611 29.15H298.261C302.394 29.15 304.461 31.35 304.461 35.75ZM297.461 56.7V34.9C297.461 34.6333 297.361 34.4 297.161 34.2C296.994 34 296.778 33.9 296.511 33.9H293.361C293.094 33.9 292.861 34 292.661 34.2C292.494 34.4 292.411 34.6333 292.411 34.9V56.7C292.411 56.9667 292.494 57.2 292.661 57.4C292.861 57.6 293.094 57.7 293.361 57.7H296.511C296.778 57.7 296.994 57.6 297.161 57.4C297.361 57.2 297.461 56.9667 297.461 56.7ZM332.587 29.65C336.721 29.65 338.787 31.85 338.787 36.25V55.4C338.787 59.8 336.721 62 332.587 62H319.737V29.65H332.587ZM331.787 56.2V35.4C331.787 35.1333 331.687 34.9 331.487 34.7C331.321 34.5 331.104 34.4 330.837 34.4H326.737V57.2H330.837C331.104 57.2 331.321 57.1 331.487 56.9C331.687 56.7 331.787 56.4667 331.787 56.2ZM351.005 56.2H358.755V62H344.005V29.65H358.755V35.35H351.005V42.95H358.255V48.45H351.005V56.2ZM380.754 38.15H374.104V35.6C374.104 35.3333 374.004 35.1 373.804 34.9C373.637 34.7 373.42 34.6 373.154 34.6H370.404C370.137 34.6 369.904 34.7 369.704 34.9C369.537 35.1 369.454 35.3333 369.454 35.6V41.35C369.454 41.6167 369.537 41.85 369.704 42.05C369.904 42.25 370.137 42.35 370.404 42.35H374.904C379.037 42.4167 381.104 44.6167 381.104 48.95V55.9C381.104 60.3 379.037 62.5 374.904 62.5H369.004C364.87 62.5 362.804 60.3 362.804 55.9V52.55H369.454V56.15C369.454 56.4167 369.537 56.65 369.704 56.85C369.904 57.05 370.137 57.15 370.404 57.15H373.504C373.77 57.15 373.987 57.05 374.154 56.85C374.354 56.65 374.454 56.4167 374.454 56.15V49.8C374.454 49.5333 374.354 49.3 374.154 49.1C373.987 48.9 373.77 48.8 373.504 48.8H369.004C364.87 48.8 362.804 46.6 362.804 42.2V35.75C362.804 31.35 364.87 29.15 369.004 29.15H374.554C378.687 29.15 380.754 31.35 380.754 35.75V38.15ZM405.854 29.65L400.354 44.5L406.904 62H399.754L394.954 49.2H392.704V62H385.704V29.65H392.704V43.2H394.404L399.454 29.65H405.854ZM407.438 35.6V29.65H424.938V35.6H419.688V62H412.688V35.6H407.438ZM447.186 35.75V55.9C447.186 60.3 445.119 62.5 440.986 62.5H434.336C430.202 62.5 428.136 60.3 428.136 55.9V35.75C428.136 31.35 430.202 29.15 434.336 29.15H440.986C445.119 29.15 447.186 31.35 447.186 35.75ZM440.186 56.7V34.9C440.186 34.6333 440.086 34.4 439.886 34.2C439.719 34 439.502 33.9 439.236 33.9H436.086C435.819 33.9 435.586 34 435.386 34.2C435.219 34.4 435.136 34.6333 435.136 34.9V56.7C435.136 56.9667 435.219 57.2 435.386 57.4C435.586 57.6 435.819 57.7 436.086 57.7H439.236C439.502 57.7 439.719 57.6 439.886 57.4C440.086 57.2 440.186 56.9667 440.186 56.7ZM464.954 29.65C469.088 29.65 471.154 31.85 471.154 36.25V42.7C471.154 47.1 469.088 49.3 464.954 49.3H459.304V62H452.304V29.65H464.954ZM464.154 43.5V35.45C464.154 35.1833 464.054 34.95 463.854 34.75C463.688 34.55 463.471 34.45 463.204 34.45H459.304V44.5H463.204C463.471 44.5 463.688 44.4 463.854 44.2C464.054 44 464.154 43.7667 464.154 43.5Z"/>
</mask>
<path d="M191.181 29.15C195.314 29.15 197.381 31.35 197.381 35.75V55.9C197.381 60.3 195.314 62.5 191.181 62.5H191.081V65C191.081 65.5 191.331 65.75 191.831 65.75H193.431V70.65H190.481C188.848 70.65 187.564 70.15 186.631 69.15C185.731 68.1833 185.281 67.0833 185.281 65.85V62.5H184.531C180.398 62.5 178.331 60.3 178.331 55.9V35.75C178.331 31.35 180.398 29.15 184.531 29.15H191.181ZM185.331 34.9V56.7C185.331 56.9667 185.414 57.2 185.581 57.4C185.781 57.6 186.014 57.7 186.281 57.7H189.431C189.698 57.7 189.914 57.6 190.081 57.4C190.281 57.2 190.381 56.9667 190.381 56.7V34.9C190.381 34.6333 190.281 34.4 190.081 34.2C189.914 34 189.698 33.9 189.431 33.9H186.281C186.014 33.9 185.781 34 185.581 34.2C185.414 34.4 185.331 34.6333 185.331 34.9ZM213.612 29.65H220.612V55.9C220.612 60.3 218.545 62.5 214.412 62.5H208.212C204.078 62.5 202.012 60.3 202.012 55.9V29.65H209.012V56.5C209.012 56.7667 209.095 57 209.262 57.2C209.462 57.4 209.695 57.5 209.962 57.5H212.662C212.928 57.5 213.145 57.4 213.312 57.2C213.512 57 213.612 56.7667 213.612 56.5V29.65ZM232.401 29.65V62H225.401V29.65H232.401ZM235.758 35.6V29.65H253.258V35.6H248.008V62H241.008V35.6H235.758ZM264.713 35.6V29.65H282.213V35.6H276.963V62H269.963V35.6H264.713ZM304.461 35.75V55.9C304.461 60.3 302.394 62.5 298.261 62.5H291.611C287.478 62.5 285.411 60.3 285.411 55.9V35.75C285.411 31.35 287.478 29.15 291.611 29.15H298.261C302.394 29.15 304.461 31.35 304.461 35.75ZM297.461 56.7V34.9C297.461 34.6333 297.361 34.4 297.161 34.2C296.994 34 296.778 33.9 296.511 33.9H293.361C293.094 33.9 292.861 34 292.661 34.2C292.494 34.4 292.411 34.6333 292.411 34.9V56.7C292.411 56.9667 292.494 57.2 292.661 57.4C292.861 57.6 293.094 57.7 293.361 57.7H296.511C296.778 57.7 296.994 57.6 297.161 57.4C297.361 57.2 297.461 56.9667 297.461 56.7ZM332.587 29.65C336.721 29.65 338.787 31.85 338.787 36.25V55.4C338.787 59.8 336.721 62 332.587 62H319.737V29.65H332.587ZM331.787 56.2V35.4C331.787 35.1333 331.687 34.9 331.487 34.7C331.321 34.5 331.104 34.4 330.837 34.4H326.737V57.2H330.837C331.104 57.2 331.321 57.1 331.487 56.9C331.687 56.7 331.787 56.4667 331.787 56.2ZM351.005 56.2H358.755V62H344.005V29.65H358.755V35.35H351.005V42.95H358.255V48.45H351.005V56.2ZM380.754 38.15H374.104V35.6C374.104 35.3333 374.004 35.1 373.804 34.9C373.637 34.7 373.42 34.6 373.154 34.6H370.404C370.137 34.6 369.904 34.7 369.704 34.9C369.537 35.1 369.454 35.3333 369.454 35.6V41.35C369.454 41.6167 369.537 41.85 369.704 42.05C369.904 42.25 370.137 42.35 370.404 42.35H374.904C379.037 42.4167 381.104 44.6167 381.104 48.95V55.9C381.104 60.3 379.037 62.5 374.904 62.5H369.004C364.87 62.5 362.804 60.3 362.804 55.9V52.55H369.454V56.15C369.454 56.4167 369.537 56.65 369.704 56.85C369.904 57.05 370.137 57.15 370.404 57.15H373.504C373.77 57.15 373.987 57.05 374.154 56.85C374.354 56.65 374.454 56.4167 374.454 56.15V49.8C374.454 49.5333 374.354 49.3 374.154 49.1C373.987 48.9 373.77 48.8 373.504 48.8H369.004C364.87 48.8 362.804 46.6 362.804 42.2V35.75C362.804 31.35 364.87 29.15 369.004 29.15H374.554C378.687 29.15 380.754 31.35 380.754 35.75V38.15ZM405.854 29.65L400.354 44.5L406.904 62H399.754L394.954 49.2H392.704V62H385.704V29.65H392.704V43.2H394.404L399.454 29.65H405.854ZM407.438 35.6V29.65H424.938V35.6H419.688V62H412.688V35.6H407.438ZM447.186 35.75V55.9C447.186 60.3 445.119 62.5 440.986 62.5H434.336C430.202 62.5 428.136 60.3 428.136 55.9V35.75C428.136 31.35 430.202 29.15 434.336 29.15H440.986C445.119 29.15 447.186 31.35 447.186 35.75ZM440.186 56.7V34.9C440.186 34.6333 440.086 34.4 439.886 34.2C439.719 34 439.502 33.9 439.236 33.9H436.086C435.819 33.9 435.586 34 435.386 34.2C435.219 34.4 435.136 34.6333 435.136 34.9V56.7C435.136 56.9667 435.219 57.2 435.386 57.4C435.586 57.6 435.819 57.7 436.086 57.7H439.236C439.502 57.7 439.719 57.6 439.886 57.4C440.086 57.2 440.186 56.9667 440.186 56.7ZM464.954 29.65C469.088 29.65 471.154 31.85 471.154 36.25V42.7C471.154 47.1 469.088 49.3 464.954 49.3H459.304V62H452.304V29.65H464.954ZM464.154 43.5V35.45C464.154 35.1833 464.054 34.95 463.854 34.75C463.688 34.55 463.471 34.45 463.204 34.45H459.304V44.5H463.204C463.471 44.5 463.688 44.4 463.854 44.2C464.054 44 464.154 43.7667 464.154 43.5Z" fill="black"/>
<path d="M191.081 62.5V61.5H190.081V62.5H191.081ZM193.431 65.75H194.431V64.75H193.431V65.75ZM193.431 70.65V71.65H194.431V70.65H193.431ZM186.631 69.15L185.899 69.8314L185.9 69.8323L186.631 69.15ZM185.281 62.5H186.281V61.5H185.281V62.5ZM185.581 57.4L184.813 58.0402L184.842 58.075L184.874 58.1071L185.581 57.4ZM190.081 57.4L189.374 56.6929L189.342 56.725L189.313 56.7598L190.081 57.4ZM190.081 34.2L189.313 34.8402L189.342 34.875L189.374 34.9071L190.081 34.2ZM185.581 34.2L184.874 33.4929L184.842 33.525L184.813 33.5598L185.581 34.2ZM191.181 29.15V30.15C193.077 30.15 194.32 30.6516 195.102 31.4847C195.896 32.3295 196.381 33.6891 196.381 35.75H197.381H198.381C198.381 33.4109 197.833 31.4705 196.56 30.1153C195.276 28.7484 193.418 28.15 191.181 28.15V29.15ZM197.381 35.75H196.381V55.9H197.381H198.381V35.75H197.381ZM197.381 55.9H196.381C196.381 57.9609 195.896 59.3205 195.102 60.1653C194.32 60.9984 193.077 61.5 191.181 61.5V62.5V63.5C193.418 63.5 195.276 62.9016 196.56 61.5347C197.833 60.1795 198.381 58.2391 198.381 55.9H197.381ZM191.181 62.5V61.5H191.081V62.5V63.5H191.181V62.5ZM191.081 62.5H190.081V65H191.081H192.081V62.5H191.081ZM191.081 65H190.081C190.081 65.4041 190.183 65.8909 190.561 66.2696C190.94 66.6483 191.427 66.75 191.831 66.75V65.75V64.75C191.735 64.75 191.847 64.7267 191.976 64.8554C192.104 64.9841 192.081 65.0959 192.081 65H191.081ZM191.831 65.75V66.75H193.431V65.75V64.75H191.831V65.75ZM193.431 65.75H192.431V70.65H193.431H194.431V65.75H193.431ZM193.431 70.65V69.65H190.481V70.65V71.65H193.431V70.65ZM190.481 70.65V69.65C189.067 69.65 188.07 69.226 187.362 68.4677L186.631 69.15L185.9 69.8323C187.059 71.074 188.629 71.65 190.481 71.65V70.65ZM186.631 69.15L187.363 68.4686C186.622 67.6726 186.281 66.8115 186.281 65.85H185.281H184.281C184.281 67.3552 184.84 68.694 185.899 69.8314L186.631 69.15ZM185.281 65.85H186.281V62.5H185.281H184.281V65.85H185.281ZM185.281 62.5V61.5H184.531V62.5V63.5H185.281V62.5ZM184.531 62.5V61.5C182.635 61.5 181.393 60.9984 180.61 60.1653C179.816 59.3205 179.331 57.9609 179.331 55.9H178.331H177.331C177.331 58.2391 177.879 60.1795 179.152 61.5347C180.436 62.9016 182.294 63.5 184.531 63.5V62.5ZM178.331 55.9H179.331V35.75H178.331H177.331V55.9H178.331ZM178.331 35.75H179.331C179.331 33.6891 179.816 32.3295 180.61 31.4847C181.393 30.6516 182.635 30.15 184.531 30.15V29.15V28.15C182.294 28.15 180.436 28.7484 179.152 30.1153C177.879 31.4705 177.331 33.4109 177.331 35.75H178.331ZM184.531 29.15V30.15H191.181V29.15V28.15H184.531V29.15ZM185.331 34.9H184.331V56.7H185.331H186.331V34.9H185.331ZM185.331 56.7H184.331C184.331 57.1944 184.492 57.6558 184.813 58.0402L185.581 57.4L186.349 56.7598C186.343 56.752 186.339 56.7467 186.338 56.744C186.336 56.7414 186.336 56.7398 186.335 56.7387C186.335 56.7379 186.331 56.7275 186.331 56.7H185.331ZM185.581 57.4L184.874 58.1071C185.249 58.482 185.732 58.7 186.281 58.7V57.7V56.7C186.277 56.7 186.278 56.6997 186.283 56.7007C186.289 56.7017 186.294 56.7035 186.3 56.7059C186.305 56.7082 186.308 56.7099 186.307 56.7091C186.305 56.7081 186.299 56.7035 186.288 56.6929L185.581 57.4ZM186.281 57.7V58.7H189.431V57.7V56.7H186.281V57.7ZM189.431 57.7V58.7C189.986 58.7 190.487 58.4745 190.849 58.0402L190.081 57.4L189.313 56.7598C189.316 56.7563 189.336 56.7348 189.374 56.717C189.412 56.6996 189.437 56.7 189.431 56.7V57.7ZM190.081 57.4L190.788 58.1071C191.163 57.7322 191.381 57.2492 191.381 56.7H190.381H189.381C189.381 56.7038 189.381 56.7026 189.382 56.6976C189.383 56.6925 189.385 56.6867 189.387 56.6811C189.389 56.6756 189.391 56.6733 189.39 56.6745C189.389 56.6759 189.385 56.6822 189.374 56.6929L190.081 57.4ZM190.381 56.7H191.381V34.9H190.381H189.381V56.7H190.381ZM190.381 34.9H191.381C191.381 34.3508 191.163 33.8678 190.788 33.4929L190.081 34.2L189.374 34.9071C189.385 34.9178 189.389 34.9241 189.39 34.9255C189.391 34.9267 189.389 34.9244 189.387 34.9189C189.385 34.9133 189.383 34.9075 189.382 34.9024C189.381 34.8974 189.381 34.8962 189.381 34.9H190.381ZM190.081 34.2L190.849 33.5598C190.487 33.1255 189.986 32.9 189.431 32.9V33.9V34.9C189.437 34.9 189.412 34.9004 189.374 34.883C189.336 34.8652 189.316 34.8437 189.313 34.8402L190.081 34.2ZM189.431 33.9V32.9H186.281V33.9V34.9H189.431V33.9ZM186.281 33.9V32.9C185.732 32.9 185.249 33.118 184.874 33.4929L185.581 34.2L186.288 34.9071C186.299 34.8965 186.305 34.8919 186.307 34.8909C186.308 34.8901 186.305 34.8918 186.3 34.8941C186.294 34.8965 186.289 34.8983 186.283 34.8993C186.278 34.9003 186.277 34.9 186.281 34.9V33.9ZM185.581 34.2L184.813 33.5598C184.492 33.9442 184.331 34.4056 184.331 34.9H185.331H186.331C186.331 34.8725 186.335 34.8621 186.335 34.8613C186.336 34.8602 186.336 34.8586 186.338 34.856C186.339 34.8533 186.343 34.848 186.349 34.8402L185.581 34.2ZM213.612 29.65V28.65H212.612V29.65H213.612ZM220.612 29.65H221.612V28.65H220.612V29.65ZM202.012 29.65V28.65H201.012V29.65H202.012ZM209.012 29.65H210.012V28.65H209.012V29.65ZM209.262 57.2L208.493 57.8402L208.522 57.875L208.554 57.9071L209.262 57.2ZM213.312 57.2L212.604 56.4929L212.572 56.525L212.543 56.5598L213.312 57.2ZM213.612 29.65V30.65H220.612V29.65V28.65H213.612V29.65ZM220.612 29.65H219.612V55.9H220.612H221.612V29.65H220.612ZM220.612 55.9H219.612C219.612 57.9609 219.126 59.3205 218.333 60.1653C217.55 60.9984 216.307 61.5 214.412 61.5V62.5V63.5C216.649 63.5 218.506 62.9016 219.79 61.5347C221.063 60.1795 221.612 58.2391 221.612 55.9H220.612ZM214.412 62.5V61.5H208.212V62.5V63.5H214.412V62.5ZM208.212 62.5V61.5C206.316 61.5 205.073 60.9984 204.29 60.1653C203.497 59.3205 203.012 57.9609 203.012 55.9H202.012H201.012C201.012 58.2391 201.56 60.1795 202.833 61.5347C204.117 62.9016 205.974 63.5 208.212 63.5V62.5ZM202.012 55.9H203.012V29.65H202.012H201.012V55.9H202.012ZM202.012 29.65V30.65H209.012V29.65V28.65H202.012V29.65ZM209.012 29.65H208.012V56.5H209.012H210.012V29.65H209.012ZM209.012 56.5H208.012C208.012 56.9944 208.173 57.4558 208.493 57.8402L209.262 57.2L210.03 56.5598C210.023 56.552 210.02 56.5467 210.018 56.544C210.017 56.5414 210.016 56.5398 210.016 56.5387C210.015 56.5379 210.012 56.5275 210.012 56.5H209.012ZM209.262 57.2L208.554 57.9071C208.929 58.282 209.412 58.5 209.962 58.5V57.5V56.5C209.958 56.5 209.959 56.4997 209.964 56.5007C209.969 56.5017 209.975 56.5035 209.98 56.5059C209.986 56.5082 209.988 56.5099 209.987 56.5091C209.986 56.5081 209.979 56.5035 209.969 56.4929L209.262 57.2ZM209.962 57.5V58.5H212.662V57.5V56.5H209.962V57.5ZM212.662 57.5V58.5C213.217 58.5 213.718 58.2745 214.08 57.8402L213.312 57.2L212.543 56.5598C212.546 56.5563 212.567 56.5348 212.605 56.517C212.643 56.4996 212.667 56.5 212.662 56.5V57.5ZM213.312 57.2L214.019 57.9071C214.394 57.5322 214.612 57.0492 214.612 56.5H213.612H212.612C212.612 56.5038 212.611 56.5026 212.612 56.4976C212.613 56.4925 212.615 56.4867 212.617 56.4811C212.62 56.4756 212.621 56.4733 212.621 56.4745C212.62 56.4759 212.615 56.4822 212.604 56.4929L213.312 57.2ZM213.612 56.5H214.612V29.65H213.612H212.612V56.5H213.612ZM232.401 29.65H233.401V28.65H232.401V29.65ZM232.401 62V63H233.401V62H232.401ZM225.401 62H224.401V63H225.401V62ZM225.401 29.65V28.65H224.401V29.65H225.401ZM232.401 29.65H231.401V62H232.401H233.401V29.65H232.401ZM232.401 62V61H225.401V62V63H232.401V62ZM225.401 62H226.401V29.65H225.401H224.401V62H225.401ZM225.401 29.65V30.65H232.401V29.65V28.65H225.401V29.65ZM235.758 35.6H234.758V36.6H235.758V35.6ZM235.758 29.65V28.65H234.758V29.65H235.758ZM253.258 29.65H254.258V28.65H253.258V29.65ZM253.258 35.6V36.6H254.258V35.6H253.258ZM248.008 35.6V34.6H247.008V35.6H248.008ZM248.008 62V63H249.008V62H248.008ZM241.008 62H240.008V63H241.008V62ZM241.008 35.6H242.008V34.6H241.008V35.6ZM235.758 35.6H236.758V29.65H235.758H234.758V35.6H235.758ZM235.758 29.65V30.65H253.258V29.65V28.65H235.758V29.65ZM253.258 29.65H252.258V35.6H253.258H254.258V29.65H253.258ZM253.258 35.6V34.6H248.008V35.6V36.6H253.258V35.6ZM248.008 35.6H247.008V62H248.008H249.008V35.6H248.008ZM248.008 62V61H241.008V62V63H248.008V62ZM241.008 62H242.008V35.6H241.008H240.008V62H241.008ZM241.008 35.6V34.6H235.758V35.6V36.6H241.008V35.6ZM264.713 35.6H263.713V36.6H264.713V35.6ZM264.713 29.65V28.65H263.713V29.65H264.713ZM282.213 29.65H283.213V28.65H282.213V29.65ZM282.213 35.6V36.6H283.213V35.6H282.213ZM276.963 35.6V34.6H275.963V35.6H276.963ZM276.963 62V63H277.963V62H276.963ZM269.963 62H268.963V63H269.963V62ZM269.963 35.6H270.963V34.6H269.963V35.6ZM264.713 35.6H265.713V29.65H264.713H263.713V35.6H264.713ZM264.713 29.65V30.65H282.213V29.65V28.65H264.713V29.65ZM282.213 29.65H281.213V35.6H282.213H283.213V29.65H282.213ZM282.213 35.6V34.6H276.963V35.6V36.6H282.213V35.6ZM276.963 35.6H275.963V62H276.963H277.963V35.6H276.963ZM276.963 62V61H269.963V62V63H276.963V62ZM269.963 62H270.963V35.6H269.963H268.963V62H269.963ZM269.963 35.6V34.6H264.713V35.6V36.6H269.963V35.6ZM297.161 34.2L296.393 34.8402L296.422 34.875L296.454 34.9071L297.161 34.2ZM292.661 34.2L291.954 33.4929L291.922 33.525L291.893 33.5598L292.661 34.2ZM292.661 57.4L291.893 58.0402L291.922 58.075L291.954 58.1071L292.661 57.4ZM297.161 57.4L296.454 56.6929L296.422 56.725L296.393 56.7598L297.161 57.4ZM304.461 35.75H303.461V55.9H304.461H305.461V35.75H304.461ZM304.461 55.9H303.461C303.461 57.9609 302.976 59.3205 302.182 60.1653C301.4 60.9984 300.157 61.5 298.261 61.5V62.5V63.5C300.498 63.5 302.356 62.9016 303.64 61.5347C304.913 60.1795 305.461 58.2391 305.461 55.9H304.461ZM298.261 62.5V61.5H291.611V62.5V63.5H298.261V62.5ZM291.611 62.5V61.5C289.715 61.5 288.473 60.9984 287.69 60.1653C286.896 59.3205 286.411 57.9609 286.411 55.9H285.411H284.411C284.411 58.2391 284.959 60.1795 286.232 61.5347C287.516 62.9016 289.374 63.5 291.611 63.5V62.5ZM285.411 55.9H286.411V35.75H285.411H284.411V55.9H285.411ZM285.411 35.75H286.411C286.411 33.6891 286.896 32.3295 287.69 31.4847C288.473 30.6516 289.715 30.15 291.611 30.15V29.15V28.15C289.374 28.15 287.516 28.7484 286.232 30.1153C284.959 31.4705 284.411 33.4109 284.411 35.75H285.411ZM291.611 29.15V30.15H298.261V29.15V28.15H291.611V29.15ZM298.261 29.15V30.15C300.157 30.15 301.4 30.6516 302.182 31.4847C302.976 32.3295 303.461 33.6891 303.461 35.75H304.461H305.461C305.461 33.4109 304.913 31.4705 303.64 30.1153C302.356 28.7484 300.498 28.15 298.261 28.15V29.15ZM297.461 56.7H298.461V34.9H297.461H296.461V56.7H297.461ZM297.461 34.9H298.461C298.461 34.3508 298.243 33.8678 297.868 33.4929L297.161 34.2L296.454 34.9071C296.465 34.9178 296.469 34.9241 296.47 34.9255C296.471 34.9267 296.469 34.9244 296.467 34.9189C296.465 34.9133 296.463 34.9075 296.462 34.9024C296.461 34.8974 296.461 34.8962 296.461 34.9H297.461ZM297.161 34.2L297.929 33.5598C297.567 33.1255 297.066 32.9 296.511 32.9V33.9V34.9C296.517 34.9 296.492 34.9004 296.455 34.883C296.416 34.8652 296.396 34.8437 296.393 34.8402L297.161 34.2ZM296.511 33.9V32.9H293.361V33.9V34.9H296.511V33.9ZM293.361 33.9V32.9C292.812 32.9 292.329 33.118 291.954 33.4929L292.661 34.2L293.368 34.9071C293.379 34.8965 293.385 34.8919 293.387 34.8909C293.388 34.8901 293.386 34.8918 293.38 34.8941C293.374 34.8965 293.369 34.8983 293.363 34.8993C293.359 34.9003 293.357 34.9 293.361 34.9V33.9ZM292.661 34.2L291.893 33.5598C291.573 33.9442 291.411 34.4056 291.411 34.9H292.411H293.411C293.411 34.8725 293.415 34.8621 293.415 34.8613C293.416 34.8602 293.416 34.8586 293.418 34.856C293.419 34.8533 293.423 34.848 293.429 34.8402L292.661 34.2ZM292.411 34.9H291.411V56.7H292.411H293.411V34.9H292.411ZM292.411 56.7H291.411C291.411 57.1944 291.573 57.6558 291.893 58.0402L292.661 57.4L293.429 56.7598C293.423 56.752 293.419 56.7467 293.418 56.744C293.416 56.7414 293.416 56.7398 293.415 56.7387C293.415 56.7379 293.411 56.7275 293.411 56.7H292.411ZM292.661 57.4L291.954 58.1071C292.329 58.482 292.812 58.7 293.361 58.7V57.7V56.7C293.357 56.7 293.359 56.6997 293.363 56.7007C293.369 56.7017 293.374 56.7035 293.38 56.7059C293.386 56.7082 293.388 56.7099 293.387 56.7091C293.385 56.7081 293.379 56.7035 293.368 56.6929L292.661 57.4ZM293.361 57.7V58.7H296.511V57.7V56.7H293.361V57.7ZM296.511 57.7V58.7C297.066 58.7 297.567 58.4745 297.929 58.0402L297.161 57.4L296.393 56.7598C296.396 56.7563 296.416 56.7348 296.455 56.717C296.492 56.6996 296.517 56.7 296.511 56.7V57.7ZM297.161 57.4L297.868 58.1071C298.243 57.7322 298.461 57.2492 298.461 56.7H297.461H296.461C296.461 56.7038 296.461 56.7026 296.462 56.6976C296.463 56.6925 296.465 56.6867 296.467 56.6811C296.469 56.6756 296.471 56.6733 296.47 56.6745C296.469 56.6759 296.465 56.6822 296.454 56.6929L297.161 57.4ZM319.737 62H318.737V63H319.737V62ZM319.737 29.65V28.65H318.737V29.65H319.737ZM331.487 34.7L330.719 35.3402L330.748 35.375L330.78 35.4071L331.487 34.7ZM326.737 34.4V33.4H325.737V34.4H326.737ZM326.737 57.2H325.737V58.2H326.737V57.2ZM331.487 56.9L330.78 56.1929L330.748 56.225L330.719 56.2598L331.487 56.9ZM332.587 29.65V30.65C334.483 30.65 335.726 31.1516 336.508 31.9847C337.302 32.8295 337.787 34.1891 337.787 36.25H338.787H339.787C339.787 33.9109 339.239 31.9705 337.966 30.6153C336.682 29.2484 334.825 28.65 332.587 28.65V29.65ZM338.787 36.25H337.787V55.4H338.787H339.787V36.25H338.787ZM338.787 55.4H337.787C337.787 57.4609 337.302 58.8205 336.508 59.6653C335.726 60.4984 334.483 61 332.587 61V62V63C334.825 63 336.682 62.4016 337.966 61.0347C339.239 59.6795 339.787 57.7391 339.787 55.4H338.787ZM332.587 62V61H319.737V62V63H332.587V62ZM319.737 62H320.737V29.65H319.737H318.737V62H319.737ZM319.737 29.65V30.65H332.587V29.65V28.65H319.737V29.65ZM331.787 56.2H332.787V35.4H331.787H330.787V56.2H331.787ZM331.787 35.4H332.787C332.787 34.8508 332.569 34.3678 332.194 33.9929L331.487 34.7L330.78 35.4071C330.791 35.4178 330.795 35.4241 330.796 35.4255C330.797 35.4267 330.796 35.4244 330.793 35.4189C330.791 35.4133 330.789 35.4075 330.788 35.4024C330.787 35.3974 330.787 35.3962 330.787 35.4H331.787ZM331.487 34.7L332.256 34.0598C331.894 33.6255 331.392 33.4 330.837 33.4V34.4V35.4C330.843 35.4 330.818 35.4004 330.781 35.383C330.742 35.3652 330.722 35.3437 330.719 35.3402L331.487 34.7ZM330.837 34.4V33.4H326.737V34.4V35.4H330.837V34.4ZM326.737 34.4H325.737V57.2H326.737H327.737V34.4H326.737ZM326.737 57.2V58.2H330.837V57.2V56.2H326.737V57.2ZM330.837 57.2V58.2C331.392 58.2 331.894 57.9745 332.256 57.5402L331.487 56.9L330.719 56.2598C330.722 56.2563 330.742 56.2348 330.781 56.217C330.818 56.1996 330.843 56.2 330.837 56.2V57.2ZM331.487 56.9L332.194 57.6071C332.569 57.2322 332.787 56.7492 332.787 56.2H331.787H330.787C330.787 56.2038 330.787 56.2026 330.788 56.1976C330.789 56.1925 330.791 56.1867 330.793 56.1811C330.796 56.1756 330.797 56.1733 330.796 56.1745C330.795 56.1759 330.791 56.1822 330.78 56.1929L331.487 56.9ZM351.005 56.2H350.005V57.2H351.005V56.2ZM358.755 56.2H359.755V55.2H358.755V56.2ZM358.755 62V63H359.755V62H358.755ZM344.005 62H343.005V63H344.005V62ZM344.005 29.65V28.65H343.005V29.65H344.005ZM358.755 29.65H359.755V28.65H358.755V29.65ZM358.755 35.35V36.35H359.755V35.35H358.755ZM351.005 35.35V34.35H350.005V35.35H351.005ZM351.005 42.95H350.005V43.95H351.005V42.95ZM358.255 42.95H359.255V41.95H358.255V42.95ZM358.255 48.45V49.45H359.255V48.45H358.255ZM351.005 48.45V47.45H350.005V48.45H351.005ZM351.005 56.2V57.2H358.755V56.2V55.2H351.005V56.2ZM358.755 56.2H357.755V62H358.755H359.755V56.2H358.755ZM358.755 62V61H344.005V62V63H358.755V62ZM344.005 62H345.005V29.65H344.005H343.005V62H344.005ZM344.005 29.65V30.65H358.755V29.65V28.65H344.005V29.65ZM358.755 29.65H357.755V35.35H358.755H359.755V29.65H358.755ZM358.755 35.35V34.35H351.005V35.35V36.35H358.755V35.35ZM351.005 35.35H350.005V42.95H351.005H352.005V35.35H351.005ZM351.005 42.95V43.95H358.255V42.95V41.95H351.005V42.95ZM358.255 42.95H357.255V48.45H358.255H359.255V42.95H358.255ZM358.255 48.45V47.45H351.005V48.45V49.45H358.255V48.45ZM351.005 48.45H350.005V56.2H351.005H352.005V48.45H351.005ZM380.754 38.15V39.15H381.754V38.15H380.754ZM374.104 38.15H373.104V39.15H374.104V38.15ZM373.804 34.9L373.035 35.5402L373.065 35.575L373.097 35.6071L373.804 34.9ZM369.704 34.9L368.997 34.1929L368.965 34.225L368.935 34.2598L369.704 34.9ZM369.704 42.05L368.935 42.6902L368.965 42.725L368.997 42.7571L369.704 42.05ZM374.904 42.35L374.92 41.3501L374.912 41.35H374.904V42.35ZM362.804 52.55V51.55H361.804V52.55H362.804ZM369.454 52.55H370.454V51.55H369.454V52.55ZM369.704 56.85L368.935 57.4902L368.965 57.525L368.997 57.5571L369.704 56.85ZM374.154 56.85L373.447 56.1429L373.415 56.175L373.385 56.2098L374.154 56.85ZM374.154 49.1L373.385 49.7402L373.415 49.775L373.447 49.8071L374.154 49.1ZM380.754 38.15V37.15H374.104V38.15V39.15H380.754V38.15ZM374.104 38.15H375.104V35.6H374.104H373.104V38.15H374.104ZM374.104 35.6H375.104C375.104 35.0508 374.886 34.5678 374.511 34.1929L373.804 34.9L373.097 35.6071C373.107 35.6178 373.112 35.6241 373.113 35.6255C373.114 35.6267 373.112 35.6244 373.11 35.6189C373.107 35.6133 373.105 35.6075 373.104 35.6024C373.103 35.5974 373.104 35.5962 373.104 35.6H374.104ZM373.804 34.9L374.572 34.2598C374.21 33.8255 373.709 33.6 373.154 33.6V34.6V35.6C373.159 35.6 373.135 35.6004 373.097 35.583C373.059 35.5652 373.038 35.5437 373.035 35.5402L373.804 34.9ZM373.154 34.6V33.6H370.404V34.6V35.6H373.154V34.6ZM370.404 34.6V33.6C369.854 33.6 369.372 33.818 368.997 34.1929L369.704 34.9L370.411 35.6071C370.421 35.5965 370.428 35.5919 370.429 35.5909C370.43 35.5901 370.428 35.5918 370.423 35.5941C370.417 35.5965 370.411 35.5983 370.406 35.5993C370.401 35.6003 370.4 35.6 370.404 35.6V34.6ZM369.704 34.9L368.935 34.2598C368.615 34.6442 368.454 35.1056 368.454 35.6H369.454H370.454C370.454 35.5725 370.458 35.5621 370.458 35.5613C370.458 35.5602 370.459 35.5586 370.461 35.556C370.462 35.5533 370.465 35.548 370.472 35.5402L369.704 34.9ZM369.454 35.6H368.454V41.35H369.454H370.454V35.6H369.454ZM369.454 41.35H368.454C368.454 41.8444 368.615 42.3058 368.935 42.6902L369.704 42.05L370.472 41.4098C370.465 41.402 370.462 41.3967 370.461 41.394C370.459 41.3914 370.458 41.3898 370.458 41.3887C370.458 41.3879 370.454 41.3775 370.454 41.35H369.454ZM369.704 42.05L368.997 42.7571C369.372 43.132 369.854 43.35 370.404 43.35V42.35V41.35C370.4 41.35 370.401 41.3497 370.406 41.3507C370.411 41.3517 370.417 41.3535 370.423 41.3559C370.428 41.3582 370.43 41.3599 370.429 41.3591C370.428 41.3581 370.421 41.3535 370.411 41.3429L369.704 42.05ZM370.404 42.35V43.35H374.904V42.35V41.35H370.404V42.35ZM374.904 42.35L374.888 43.3499C376.787 43.3805 378.037 43.8959 378.825 44.7347C379.621 45.582 380.104 46.9274 380.104 48.95H381.104H382.104C382.104 46.6393 381.553 44.718 380.283 43.3653C379.004 42.0041 377.154 41.3862 374.92 41.3501L374.904 42.35ZM381.104 48.95H380.104V55.9H381.104H382.104V48.95H381.104ZM381.104 55.9H380.104C380.104 57.9609 379.618 59.3205 378.825 60.1653C378.042 60.9984 376.8 61.5 374.904 61.5V62.5V63.5C377.141 63.5 378.999 62.9016 380.283 61.5347C381.556 60.1795 382.104 58.2391 382.104 55.9H381.104ZM374.904 62.5V61.5H369.004V62.5V63.5H374.904V62.5ZM369.004 62.5V61.5C367.108 61.5 365.865 60.9984 365.083 60.1653C364.289 59.3205 363.804 57.9609 363.804 55.9H362.804H361.804C361.804 58.2391 362.352 60.1795 363.625 61.5347C364.909 62.9016 366.766 63.5 369.004 63.5V62.5ZM362.804 55.9H363.804V52.55H362.804H361.804V55.9H362.804ZM362.804 52.55V53.55H369.454V52.55V51.55H362.804V52.55ZM369.454 52.55H368.454V56.15H369.454H370.454V52.55H369.454ZM369.454 56.15H368.454C368.454 56.6444 368.615 57.1058 368.935 57.4902L369.704 56.85L370.472 56.2098C370.465 56.202 370.462 56.1967 370.461 56.194C370.459 56.1914 370.458 56.1898 370.458 56.1887C370.458 56.1879 370.454 56.1775 370.454 56.15H369.454ZM369.704 56.85L368.997 57.5571C369.372 57.932 369.854 58.15 370.404 58.15V57.15V56.15C370.4 56.15 370.401 56.1497 370.406 56.1507C370.411 56.1517 370.417 56.1535 370.423 56.1559C370.428 56.1582 370.43 56.1599 370.429 56.1591C370.428 56.1581 370.421 56.1535 370.411 56.1429L369.704 56.85ZM370.404 57.15V58.15H373.504V57.15V56.15H370.404V57.15ZM373.504 57.15V58.15C374.059 58.15 374.56 57.9245 374.922 57.4902L374.154 56.85L373.385 56.2098C373.388 56.2063 373.409 56.1848 373.447 56.167C373.485 56.1496 373.509 56.15 373.504 56.15V57.15ZM374.154 56.85L374.861 57.5571C375.236 57.1822 375.454 56.6992 375.454 56.15H374.454H373.454C373.454 56.1538 373.453 56.1526 373.454 56.1476C373.455 56.1425 373.457 56.1367 373.46 56.1311C373.462 56.1256 373.464 56.1233 373.463 56.1245C373.462 56.1259 373.457 56.1322 373.447 56.1429L374.154 56.85ZM374.454 56.15H375.454V49.8H374.454H373.454V56.15H374.454ZM374.454 49.8H375.454C375.454 49.2508 375.236 48.7678 374.861 48.3929L374.154 49.1L373.447 49.8071C373.457 49.8178 373.462 49.8241 373.463 49.8255C373.464 49.8267 373.462 49.8244 373.46 49.8189C373.457 49.8133 373.455 49.8075 373.454 49.8024C373.453 49.7974 373.454 49.7962 373.454 49.8H374.454ZM374.154 49.1L374.922 48.4598C374.56 48.0255 374.059 47.8 373.504 47.8V48.8V49.8C373.509 49.8 373.485 49.8004 373.447 49.783C373.409 49.7652 373.388 49.7437 373.385 49.7402L374.154 49.1ZM373.504 48.8V47.8H369.004V48.8V49.8H373.504V48.8ZM369.004 48.8V47.8C367.108 47.8 365.865 47.2984 365.083 46.4653C364.289 45.6205 363.804 44.2609 363.804 42.2H362.804H361.804C361.804 44.5391 362.352 46.4795 363.625 47.8347C364.909 49.2016 366.766 49.8 369.004 49.8V48.8ZM362.804 42.2H363.804V35.75H362.804H361.804V42.2H362.804ZM362.804 35.75H363.804C363.804 33.6891 364.289 32.3295 365.083 31.4847C365.865 30.6516 367.108 30.15 369.004 30.15V29.15V28.15C366.766 28.15 364.909 28.7484 363.625 30.1153C362.352 31.4705 361.804 33.4109 361.804 35.75H362.804ZM369.004 29.15V30.15H374.554V29.15V28.15H369.004V29.15ZM374.554 29.15V30.15C376.45 30.15 377.692 30.6516 378.475 31.4847C379.268 32.3295 379.754 33.6891 379.754 35.75H380.754H381.754C381.754 33.4109 381.206 31.4705 379.933 30.1153C378.648 28.7484 376.791 28.15 374.554 28.15V29.15ZM380.754 35.75H379.754V38.15H380.754H381.754V35.75H380.754ZM405.854 29.65L406.792 29.9973L407.291 28.65H405.854V29.65ZM400.354 44.5L399.416 44.1527L399.287 44.5018L399.418 44.8505L400.354 44.5ZM406.904 62V63H408.346L407.841 61.6495L406.904 62ZM399.754 62L398.818 62.3511L399.061 63H399.754V62ZM394.954 49.2L395.89 48.8489L395.647 48.2H394.954V49.2ZM392.704 49.2V48.2H391.704V49.2H392.704ZM392.704 62V63H393.704V62H392.704ZM385.704 62H384.704V63H385.704V62ZM385.704 29.65V28.65H384.704V29.65H385.704ZM392.704 29.65H393.704V28.65H392.704V29.65ZM392.704 43.2H391.704V44.2H392.704V43.2ZM394.404 43.2V44.2H395.099L395.341 43.5492L394.404 43.2ZM399.454 29.65V28.65H398.76L398.517 29.3008L399.454 29.65ZM405.854 29.65L404.916 29.3027L399.416 44.1527L400.354 44.5L401.292 44.8473L406.792 29.9973L405.854 29.65ZM400.354 44.5L399.418 44.8505L405.968 62.3505L406.904 62L407.841 61.6495L401.291 44.1495L400.354 44.5ZM406.904 62V61H399.754V62V63H406.904V62ZM399.754 62L400.69 61.6489L395.89 48.8489L394.954 49.2L394.018 49.5511L398.818 62.3511L399.754 62ZM394.954 49.2V48.2H392.704V49.2V50.2H394.954V49.2ZM392.704 49.2H391.704V62H392.704H393.704V49.2H392.704ZM392.704 62V61H385.704V62V63H392.704V62ZM385.704 62H386.704V29.65H385.704H384.704V62H385.704ZM385.704 29.65V30.65H392.704V29.65V28.65H385.704V29.65ZM392.704 29.65H391.704V43.2H392.704H393.704V29.65H392.704ZM392.704 43.2V44.2H394.404V43.2V42.2H392.704V43.2ZM394.404 43.2L395.341 43.5492L400.391 29.9992L399.454 29.65L398.517 29.3008L393.467 42.8508L394.404 43.2ZM399.454 29.65V30.65H405.854V29.65V28.65H399.454V29.65ZM407.438 35.6H406.438V36.6H407.438V35.6ZM407.438 29.65V28.65H406.438V29.65H407.438ZM424.938 29.65H425.938V28.65H424.938V29.65ZM424.938 35.6V36.6H425.938V35.6H424.938ZM419.688 35.6V34.6H418.688V35.6H419.688ZM419.688 62V63H420.688V62H419.688ZM412.688 62H411.688V63H412.688V62ZM412.688 35.6H413.688V34.6H412.688V35.6ZM407.438 35.6H408.438V29.65H407.438H406.438V35.6H407.438ZM407.438 29.65V30.65H424.938V29.65V28.65H407.438V29.65ZM424.938 29.65H423.938V35.6H424.938H425.938V29.65H424.938ZM424.938 35.6V34.6H419.688V35.6V36.6H424.938V35.6ZM419.688 35.6H418.688V62H419.688H420.688V35.6H419.688ZM419.688 62V61H412.688V62V63H419.688V62ZM412.688 62H413.688V35.6H412.688H411.688V62H412.688ZM412.688 35.6V34.6H407.438V35.6V36.6H412.688V35.6ZM439.886 34.2L439.118 34.8402L439.147 34.875L439.179 34.9071L439.886 34.2ZM435.386 34.2L434.679 33.4929L434.647 33.525L434.618 33.5598L435.386 34.2ZM435.386 57.4L434.618 58.0402L434.647 58.075L434.679 58.1071L435.386 57.4ZM439.886 57.4L439.179 56.6929L439.147 56.725L439.118 56.7598L439.886 57.4ZM447.186 35.75H446.186V55.9H447.186H448.186V35.75H447.186ZM447.186 55.9H446.186C446.186 57.9609 445.701 59.3205 444.907 60.1653C444.124 60.9984 442.882 61.5 440.986 61.5V62.5V63.5C443.223 63.5 445.081 62.9016 446.365 61.5347C447.638 60.1795 448.186 58.2391 448.186 55.9H447.186ZM440.986 62.5V61.5H434.336V62.5V63.5H440.986V62.5ZM434.336 62.5V61.5C432.44 61.5 431.197 60.9984 430.415 60.1653C429.621 59.3205 429.136 57.9609 429.136 55.9H428.136H427.136C427.136 58.2391 427.684 60.1795 428.957 61.5347C430.241 62.9016 432.098 63.5 434.336 63.5V62.5ZM428.136 55.9H429.136V35.75H428.136H427.136V55.9H428.136ZM428.136 35.75H429.136C429.136 33.6891 429.621 32.3295 430.415 31.4847C431.197 30.6516 432.44 30.15 434.336 30.15V29.15V28.15C432.098 28.15 430.241 28.7484 428.957 30.1153C427.684 31.4705 427.136 33.4109 427.136 35.75H428.136ZM434.336 29.15V30.15H440.986V29.15V28.15H434.336V29.15ZM440.986 29.15V30.15C442.882 30.15 444.124 30.6516 444.907 31.4847C445.701 32.3295 446.186 33.6891 446.186 35.75H447.186H448.186C448.186 33.4109 447.638 31.4705 446.365 30.1153C445.081 28.7484 443.223 28.15 440.986 28.15V29.15ZM440.186 56.7H441.186V34.9H440.186H439.186V56.7H440.186ZM440.186 34.9H441.186C441.186 34.3508 440.968 33.8678 440.593 33.4929L439.886 34.2L439.179 34.9071C439.189 34.9178 439.194 34.9241 439.195 34.9255C439.196 34.9267 439.194 34.9244 439.192 34.9189C439.189 34.9133 439.187 34.9075 439.186 34.9024C439.185 34.8974 439.186 34.8962 439.186 34.9H440.186ZM439.886 34.2L440.654 33.5598C440.292 33.1255 439.791 32.9 439.236 32.9V33.9V34.9C439.241 34.9 439.217 34.9004 439.179 34.883C439.141 34.8652 439.12 34.8437 439.118 34.8402L439.886 34.2ZM439.236 33.9V32.9H436.086V33.9V34.9H439.236V33.9ZM436.086 33.9V32.9C435.537 32.9 435.054 33.118 434.679 33.4929L435.386 34.2L436.093 34.9071C436.103 34.8965 436.11 34.8919 436.111 34.8909C436.112 34.8901 436.11 34.8918 436.105 34.8941C436.099 34.8965 436.093 34.8983 436.088 34.8993C436.083 34.9003 436.082 34.9 436.086 34.9V33.9ZM435.386 34.2L434.618 33.5598C434.297 33.9442 434.136 34.4056 434.136 34.9H435.136H436.136C436.136 34.8725 436.14 34.8621 436.14 34.8613C436.14 34.8602 436.141 34.8586 436.143 34.856C436.144 34.8533 436.147 34.848 436.154 34.8402L435.386 34.2ZM435.136 34.9H434.136V56.7H435.136H436.136V34.9H435.136ZM435.136 56.7H434.136C434.136 57.1944 434.297 57.6558 434.618 58.0402L435.386 57.4L436.154 56.7598C436.147 56.752 436.144 56.7467 436.143 56.744C436.141 56.7414 436.14 56.7398 436.14 56.7387C436.14 56.7379 436.136 56.7275 436.136 56.7H435.136ZM435.386 57.4L434.679 58.1071C435.054 58.482 435.537 58.7 436.086 58.7V57.7V56.7C436.082 56.7 436.083 56.6997 436.088 56.7007C436.093 56.7017 436.099 56.7035 436.105 56.7059C436.11 56.7082 436.112 56.7099 436.111 56.7091C436.11 56.7081 436.104 56.7035 436.093 56.6929L435.386 57.4ZM436.086 57.7V58.7H439.236V57.7V56.7H436.086V57.7ZM439.236 57.7V58.7C439.791 58.7 440.292 58.4745 440.654 58.0402L439.886 57.4L439.118 56.7598C439.12 56.7563 439.141 56.7348 439.179 56.717C439.217 56.6996 439.241 56.7 439.236 56.7V57.7ZM439.886 57.4L440.593 58.1071C440.968 57.7322 441.186 57.2492 441.186 56.7H440.186H439.186C439.186 56.7038 439.185 56.7026 439.186 56.6976C439.187 56.6925 439.189 56.6867 439.192 56.6811C439.194 56.6756 439.196 56.6733 439.195 56.6745C439.194 56.6759 439.189 56.6822 439.179 56.6929L439.886 57.4ZM459.305 49.3V48.3H458.305V49.3H459.305ZM459.305 62V63H460.305V62H459.305ZM452.305 62H451.305V63H452.305V62ZM452.305 29.65V28.65H451.305V29.65H452.305ZM463.854 34.75L463.086 35.3902L463.115 35.425L463.147 35.4571L463.854 34.75ZM459.305 34.45V33.45H458.305V34.45H459.305ZM459.305 44.5H458.305V45.5H459.305V44.5ZM463.854 44.2L463.147 43.4929L463.115 43.525L463.086 43.5598L463.854 44.2ZM464.954 29.65V30.65C466.85 30.65 468.093 31.1516 468.876 31.9847C469.669 32.8295 470.154 34.1891 470.154 36.25H471.154H472.154C472.154 33.9109 471.606 31.9705 470.333 30.6153C469.049 29.2484 467.192 28.65 464.954 28.65V29.65ZM471.154 36.25H470.154V42.7H471.154H472.154V36.25H471.154ZM471.154 42.7H470.154C470.154 44.7609 469.669 46.1205 468.876 46.9653C468.093 47.7984 466.85 48.3 464.954 48.3V49.3V50.3C467.192 50.3 469.049 49.7016 470.333 48.3347C471.606 46.9795 472.154 45.0391 472.154 42.7H471.154ZM464.954 49.3V48.3H459.305V49.3V50.3H464.954V49.3ZM459.305 49.3H458.305V62H459.305H460.305V49.3H459.305ZM459.305 62V61H452.305V62V63H459.305V62ZM452.305 62H453.305V29.65H452.305H451.305V62H452.305ZM452.305 29.65V30.65H464.954V29.65V28.65H452.305V29.65ZM464.154 43.5H465.154V35.45H464.154H463.154V43.5H464.154ZM464.154 35.45H465.154C465.154 34.9008 464.937 34.4178 464.562 34.0429L463.854 34.75L463.147 35.4571C463.158 35.4678 463.163 35.4741 463.164 35.4755C463.164 35.4767 463.163 35.4744 463.16 35.4689C463.158 35.4633 463.156 35.4575 463.155 35.4524C463.154 35.4474 463.154 35.4462 463.154 35.45H464.154ZM463.854 34.75L464.623 34.1098C464.261 33.6755 463.76 33.45 463.204 33.45V34.45V35.45C463.21 35.45 463.186 35.4504 463.148 35.433C463.11 35.4152 463.089 35.3937 463.086 35.3902L463.854 34.75ZM463.204 34.45V33.45H459.305V34.45V35.45H463.204V34.45ZM459.305 34.45H458.305V44.5H459.305H460.305V34.45H459.305ZM459.305 44.5V45.5H463.204V44.5V43.5H459.305V44.5ZM463.204 44.5V45.5C463.76 45.5 464.261 45.2745 464.623 44.8402L463.854 44.2L463.086 43.5598C463.089 43.5563 463.11 43.5348 463.148 43.517C463.186 43.4996 463.21 43.5 463.204 43.5V44.5ZM463.854 44.2L464.562 44.9071C464.937 44.5322 465.154 44.0492 465.154 43.5H464.154H463.154C463.154 43.5038 463.154 43.5026 463.155 43.4976C463.156 43.4925 463.158 43.4866 463.16 43.4811C463.163 43.4756 463.164 43.4733 463.164 43.4745C463.163 43.4759 463.158 43.4822 463.147 43.4929L463.854 44.2Z" fill="black" mask="url(#path-5-inside-2_44_434)"/>
</svg>
