<svg width="558" height="90" viewBox="0 0 558 90" fill="none" xmlns="http://www.w3.org/2000/svg">
<rect width="558" height="90" rx="1" fill="#D9D9D9"/>
<rect width="90" height="90" rx="1" fill="#838383"/>
<path d="M42.0269 31.25V59.46C42.0269 65.62 39.1336 68.7 33.3469 68.7H25.0169C19.2302 68.7 16.3369 65.62 16.3369 59.46V31.25C16.3369 25.09 19.2302 22.01 25.0169 22.01H33.3469C39.1336 22.01 42.0269 25.09 42.0269 31.25ZM32.5069 60.58V30.06C32.5069 29.6867 32.3669 29.36 32.0869 29.08C31.8536 28.8 31.5502 28.66 31.1769 28.66H27.1869C26.8136 28.66 26.4869 28.8 26.2069 29.08C25.9736 29.36 25.8569 29.6867 25.8569 30.06V60.58C25.8569 60.9533 25.9736 61.28 26.2069 61.56C26.4869 61.84 26.8136 61.98 27.1869 61.98H31.1769C31.5502 61.98 31.8536 61.84 32.0869 61.56C32.3669 61.28 32.5069 60.9533 32.5069 60.58ZM65.4157 40.56C71.2023 40.56 74.0957 43.64 74.0957 49.8V59.46C74.0957 65.62 71.2023 68.7 65.4157 68.7H57.1557C51.369 68.7 48.4757 65.62 48.4757 59.46V31.25C48.4757 25.09 51.369 22.01 57.1557 22.01H64.7157C70.5023 22.01 73.3957 25.09 73.3957 31.25V34.61H64.4357V31.04C64.4357 30.6667 64.2957 30.34 64.0157 30.06C63.7823 29.78 63.479 29.64 63.1057 29.64H58.5557C58.1823 29.64 57.8557 29.78 57.5757 30.06C57.3423 30.34 57.2257 30.6667 57.2257 31.04V41.47C58.4857 40.8633 60.049 40.56 61.9157 40.56H65.4157ZM65.4157 58.69V50.57C65.4157 50.1967 65.2757 49.87 64.9957 49.59C64.7623 49.31 64.459 49.17 64.0857 49.17H58.5557C58.1823 49.17 57.8557 49.31 57.5757 49.59C57.3423 49.87 57.2257 50.1967 57.2257 50.57V58.69C57.2257 59.0633 57.3423 59.39 57.5757 59.67C57.8557 59.95 58.1823 60.09 58.5557 60.09H64.0857C64.459 60.09 64.7623 59.95 64.9957 59.67C65.2757 59.39 65.4157 59.0633 65.4157 58.69Z" fill="white"/>
<path d="M191.181 29.15C195.314 29.15 197.381 31.35 197.381 35.75V55.9C197.381 60.3 195.314 62.5 191.181 62.5H191.081V65C191.081 65.5 191.331 65.75 191.831 65.75H193.431V70.65H190.481C188.848 70.65 187.564 70.15 186.631 69.15C185.731 68.1833 185.281 67.0833 185.281 65.85V62.5H184.531C180.398 62.5 178.331 60.3 178.331 55.9V35.75C178.331 31.35 180.398 29.15 184.531 29.15H191.181ZM185.331 34.9V56.7C185.331 56.9667 185.414 57.2 185.581 57.4C185.781 57.6 186.014 57.7 186.281 57.7H189.431C189.698 57.7 189.914 57.6 190.081 57.4C190.281 57.2 190.381 56.9667 190.381 56.7V34.9C190.381 34.6333 190.281 34.4 190.081 34.2C189.914 34 189.698 33.9 189.431 33.9H186.281C186.014 33.9 185.781 34 185.581 34.2C185.414 34.4 185.331 34.6333 185.331 34.9ZM213.612 29.65H220.612V55.9C220.612 60.3 218.545 62.5 214.412 62.5H208.212C204.078 62.5 202.012 60.3 202.012 55.9V29.65H209.012V56.5C209.012 56.7667 209.095 57 209.262 57.2C209.462 57.4 209.695 57.5 209.962 57.5H212.662C212.928 57.5 213.145 57.4 213.312 57.2C213.512 57 213.612 56.7667 213.612 56.5V29.65ZM232.401 29.65V62H225.401V29.65H232.401ZM235.758 35.6V29.65H253.258V35.6H248.008V62H241.008V35.6H235.758ZM264.713 35.6V29.65H282.213V35.6H276.963V62H269.963V35.6H264.713ZM304.461 35.75V55.9C304.461 60.3 302.394 62.5 298.261 62.5H291.611C287.478 62.5 285.411 60.3 285.411 55.9V35.75C285.411 31.35 287.478 29.15 291.611 29.15H298.261C302.394 29.15 304.461 31.35 304.461 35.75ZM297.461 56.7V34.9C297.461 34.6333 297.361 34.4 297.161 34.2C296.994 34 296.778 33.9 296.511 33.9H293.361C293.094 33.9 292.861 34 292.661 34.2C292.494 34.4 292.411 34.6333 292.411 34.9V56.7C292.411 56.9667 292.494 57.2 292.661 57.4C292.861 57.6 293.094 57.7 293.361 57.7H296.511C296.778 57.7 296.994 57.6 297.161 57.4C297.361 57.2 297.461 56.9667 297.461 56.7ZM332.587 29.65C336.721 29.65 338.787 31.85 338.787 36.25V55.4C338.787 59.8 336.721 62 332.587 62H319.737V29.65H332.587ZM331.787 56.2V35.4C331.787 35.1333 331.687 34.9 331.487 34.7C331.321 34.5 331.104 34.4 330.837 34.4H326.737V57.2H330.837C331.104 57.2 331.321 57.1 331.487 56.9C331.687 56.7 331.787 56.4667 331.787 56.2ZM351.005 56.2H358.755V62H344.005V29.65H358.755V35.35H351.005V42.95H358.255V48.45H351.005V56.2ZM380.754 38.15H374.104V35.6C374.104 35.3333 374.004 35.1 373.804 34.9C373.637 34.7 373.42 34.6 373.154 34.6H370.404C370.137 34.6 369.904 34.7 369.704 34.9C369.537 35.1 369.454 35.3333 369.454 35.6V41.35C369.454 41.6167 369.537 41.85 369.704 42.05C369.904 42.25 370.137 42.35 370.404 42.35H374.904C379.037 42.4167 381.104 44.6167 381.104 48.95V55.9C381.104 60.3 379.037 62.5 374.904 62.5H369.004C364.87 62.5 362.804 60.3 362.804 55.9V52.55H369.454V56.15C369.454 56.4167 369.537 56.65 369.704 56.85C369.904 57.05 370.137 57.15 370.404 57.15H373.504C373.77 57.15 373.987 57.05 374.154 56.85C374.354 56.65 374.454 56.4167 374.454 56.15V49.8C374.454 49.5333 374.354 49.3 374.154 49.1C373.987 48.9 373.77 48.8 373.504 48.8H369.004C364.87 48.8 362.804 46.6 362.804 42.2V35.75C362.804 31.35 364.87 29.15 369.004 29.15H374.554C378.687 29.15 380.754 31.35 380.754 35.75V38.15ZM405.854 29.65L400.354 44.5L406.904 62H399.754L394.954 49.2H392.704V62H385.704V29.65H392.704V43.2H394.404L399.454 29.65H405.854ZM407.438 35.6V29.65H424.938V35.6H419.688V62H412.688V35.6H407.438ZM447.186 35.75V55.9C447.186 60.3 445.119 62.5 440.986 62.5H434.336C430.202 62.5 428.136 60.3 428.136 55.9V35.75C428.136 31.35 430.202 29.15 434.336 29.15H440.986C445.119 29.15 447.186 31.35 447.186 35.75ZM440.186 56.7V34.9C440.186 34.6333 440.086 34.4 439.886 34.2C439.719 34 439.502 33.9 439.236 33.9H436.086C435.819 33.9 435.586 34 435.386 34.2C435.219 34.4 435.136 34.6333 435.136 34.9V56.7C435.136 56.9667 435.219 57.2 435.386 57.4C435.586 57.6 435.819 57.7 436.086 57.7H439.236C439.502 57.7 439.719 57.6 439.886 57.4C440.086 57.2 440.186 56.9667 440.186 56.7ZM464.954 29.65C469.088 29.65 471.154 31.85 471.154 36.25V42.7C471.154 47.1 469.088 49.3 464.954 49.3H459.304V62H452.304V29.65H464.954ZM464.154 43.5V35.45C464.154 35.1833 464.054 34.95 463.854 34.75C463.688 34.55 463.471 34.45 463.204 34.45H459.304V44.5H463.204C463.471 44.5 463.688 44.4 463.854 44.2C464.054 44 464.154 43.7667 464.154 43.5Z" fill="black"/>
</svg>
