<svg width="558" height="90" viewBox="0 0 558 90" fill="none" xmlns="http://www.w3.org/2000/svg">
<rect width="558" height="90" rx="1" fill="#D9D9D9"/>
<rect width="90" height="90" rx="1" fill="#838383"/>
<path d="M42.4029 31.25V59.46C42.4029 65.62 39.5096 68.7 33.7229 68.7H25.3929C19.6062 68.7 16.7129 65.62 16.7129 59.46V31.25C16.7129 25.09 19.6062 22.01 25.3929 22.01H33.7229C39.5096 22.01 42.4029 25.09 42.4029 31.25ZM32.8829 60.58V30.06C32.8829 29.6867 32.7429 29.36 32.4629 29.08C32.2296 28.8 31.9262 28.66 31.5529 28.66H27.5629C27.1896 28.66 26.8629 28.8 26.5829 29.08C26.3496 29.36 26.2329 29.6867 26.2329 30.06V60.58C26.2329 60.9533 26.3496 61.28 26.5829 61.56C26.8629 61.84 27.1896 61.98 27.5629 61.98H31.5529C31.9262 61.98 32.2296 61.84 32.4629 61.56C32.7429 61.28 32.8829 60.9533 32.8829 60.58ZM70.4816 44.83C72.675 46.37 73.7716 49.0067 73.7716 52.74V59.46C73.7716 65.62 70.8783 68.7 65.0916 68.7H56.8316C51.045 68.7 48.1516 65.62 48.1516 59.46V55.75H56.9016V59.88C56.9016 60.2533 57.0183 60.58 57.2516 60.86C57.5316 61.14 57.8583 61.28 58.2316 61.28H63.7616C64.135 61.28 64.4383 61.14 64.6716 60.86C64.9516 60.58 65.0916 60.2533 65.0916 59.88V50.22C65.0916 49.8467 64.9516 49.52 64.6716 49.24C64.4383 48.96 64.135 48.82 63.7616 48.82H56.5516V41.26H63.3416C63.715 41.26 64.0183 41.12 64.2516 40.84C64.5316 40.56 64.6716 40.2333 64.6716 39.86V31.04C64.6716 30.6667 64.5316 30.34 64.2516 30.06C64.0183 29.78 63.715 29.64 63.3416 29.64H58.6516C58.2783 29.64 57.9516 29.78 57.6716 30.06C57.4383 30.34 57.3216 30.6667 57.3216 31.04V35.52H48.5716V31.25C48.5716 25.09 51.465 22.01 57.2516 22.01H64.6716C70.4583 22.01 73.3516 25.09 73.3516 31.25V37.27C73.3516 40.91 72.395 43.43 70.4816 44.83Z" fill="white"/>
<path d="M258.524 48.75V62H251.524V29.65H263.974C268.108 29.65 270.174 31.85 270.174 36.25V40C270.174 42.6667 269.224 44.3667 267.324 45.1C268.991 45.7 269.824 47.0667 269.824 49.2V62H262.824V49.75C262.824 49.0833 262.508 48.75 261.874 48.75H258.524ZM258.524 34.4V43.85H262.224C262.491 43.85 262.708 43.75 262.874 43.55C263.074 43.35 263.174 43.1167 263.174 42.85V35.4C263.174 35.1333 263.074 34.9 262.874 34.7C262.708 34.5 262.491 34.4 262.224 34.4H258.524ZM281.669 56.2H289.419V62H274.669V29.65H289.419V35.35H281.669V42.95H288.919V48.45H281.669V56.2ZM311.418 38.15H304.768V35.6C304.768 35.3333 304.668 35.1 304.468 34.9C304.301 34.7 304.084 34.6 303.818 34.6H301.068C300.801 34.6 300.568 34.7 300.368 34.9C300.201 35.1 300.118 35.3333 300.118 35.6V41.35C300.118 41.6167 300.201 41.85 300.368 42.05C300.568 42.25 300.801 42.35 301.068 42.35H305.568C309.701 42.4167 311.768 44.6167 311.768 48.95V55.9C311.768 60.3 309.701 62.5 305.568 62.5H299.668C295.534 62.5 293.468 60.3 293.468 55.9V52.55H300.118V56.15C300.118 56.4167 300.201 56.65 300.368 56.85C300.568 57.05 300.801 57.15 301.068 57.15H304.168C304.434 57.15 304.651 57.05 304.818 56.85C305.018 56.65 305.118 56.4167 305.118 56.15V49.8C305.118 49.5333 305.018 49.3 304.818 49.1C304.651 48.9 304.434 48.8 304.168 48.8H299.668C295.534 48.8 293.468 46.6 293.468 42.2V35.75C293.468 31.35 295.534 29.15 299.668 29.15H305.218C309.351 29.15 311.418 31.35 311.418 35.75V38.15ZM314.518 35.6V29.65H332.018V35.6H326.768V62H319.768V35.6H314.518ZM348.066 29.15C352.199 29.15 354.266 31.35 354.266 35.75V62H347.266V51.15H342.216V62H335.216V35.75C335.216 31.35 337.282 29.15 341.416 29.15H348.066ZM342.216 45.75H347.266V34.9C347.266 34.6333 347.166 34.4 346.966 34.2C346.799 34 346.582 33.9 346.316 33.9H343.166C342.899 33.9 342.666 34 342.466 34.2C342.299 34.4 342.216 34.6333 342.216 34.9V45.75ZM366.483 48.75V62H359.483V29.65H371.933C376.067 29.65 378.133 31.85 378.133 36.25V40C378.133 42.6667 377.183 44.3667 375.283 45.1C376.95 45.7 377.783 47.0667 377.783 49.2V62H370.783V49.75C370.783 49.0833 370.467 48.75 369.833 48.75H366.483ZM366.483 34.4V43.85H370.183C370.45 43.85 370.667 43.75 370.833 43.55C371.033 43.35 371.133 43.1167 371.133 42.85V35.4C371.133 35.1333 371.033 34.9 370.833 34.7C370.667 34.5 370.45 34.4 370.183 34.4H366.483ZM380.778 35.6V29.65H398.278V35.6H393.028V62H386.028V35.6H380.778Z" fill="black"/>
</svg>
