<svg width="558" height="90" viewBox="0 0 558 90" fill="none" xmlns="http://www.w3.org/2000/svg">
<rect x="0.5" y="0.5" width="557" height="89" rx="0.5" fill="#FFF600" stroke="black"/>
<rect x="0.5" y="0.5" width="89" height="89" rx="0.5" fill="#C5E800" stroke="black"/>
<mask id="path-3-inside-1_44_193" fill="white">
<path d="M42.4029 31.25V59.46C42.4029 65.62 39.5096 68.7 33.7229 68.7H25.3929C19.6062 68.7 16.7129 65.62 16.7129 59.46V31.25C16.7129 25.09 19.6062 22.01 25.3929 22.01H33.7229C39.5096 22.01 42.4029 25.09 42.4029 31.25ZM32.8829 60.58V30.06C32.8829 29.6867 32.7429 29.36 32.4629 29.08C32.2296 28.8 31.9262 28.66 31.5529 28.66H27.5629C27.1896 28.66 26.8629 28.8 26.5829 29.08C26.3496 29.36 26.2329 29.6867 26.2329 30.06V60.58C26.2329 60.9533 26.3496 61.28 26.5829 61.56C26.8629 61.84 27.1896 61.98 27.5629 61.98H31.5529C31.9262 61.98 32.2296 61.84 32.4629 61.56C32.7429 61.28 32.8829 60.9533 32.8829 60.58ZM70.4816 44.83C72.675 46.37 73.7716 49.0067 73.7716 52.74V59.46C73.7716 65.62 70.8783 68.7 65.0916 68.7H56.8316C51.045 68.7 48.1516 65.62 48.1516 59.46V55.75H56.9016V59.88C56.9016 60.2533 57.0183 60.58 57.2516 60.86C57.5316 61.14 57.8583 61.28 58.2316 61.28H63.7616C64.135 61.28 64.4383 61.14 64.6716 60.86C64.9516 60.58 65.0916 60.2533 65.0916 59.88V50.22C65.0916 49.8467 64.9516 49.52 64.6716 49.24C64.4383 48.96 64.135 48.82 63.7616 48.82H56.5516V41.26H63.3416C63.715 41.26 64.0183 41.12 64.2516 40.84C64.5316 40.56 64.6716 40.2333 64.6716 39.86V31.04C64.6716 30.6667 64.5316 30.34 64.2516 30.06C64.0183 29.78 63.715 29.64 63.3416 29.64H58.6516C58.2783 29.64 57.9516 29.78 57.6716 30.06C57.4383 30.34 57.3216 30.6667 57.3216 31.04V35.52H48.5716V31.25C48.5716 25.09 51.465 22.01 57.2516 22.01H64.6716C70.4583 22.01 73.3516 25.09 73.3516 31.25V37.27C73.3516 40.91 72.395 43.43 70.4816 44.83Z"/>
</mask>
<path d="M42.4029 31.25V59.46C42.4029 65.62 39.5096 68.7 33.7229 68.7H25.3929C19.6062 68.7 16.7129 65.62 16.7129 59.46V31.25C16.7129 25.09 19.6062 22.01 25.3929 22.01H33.7229C39.5096 22.01 42.4029 25.09 42.4029 31.25ZM32.8829 60.58V30.06C32.8829 29.6867 32.7429 29.36 32.4629 29.08C32.2296 28.8 31.9262 28.66 31.5529 28.66H27.5629C27.1896 28.66 26.8629 28.8 26.5829 29.08C26.3496 29.36 26.2329 29.6867 26.2329 30.06V60.58C26.2329 60.9533 26.3496 61.28 26.5829 61.56C26.8629 61.84 27.1896 61.98 27.5629 61.98H31.5529C31.9262 61.98 32.2296 61.84 32.4629 61.56C32.7429 61.28 32.8829 60.9533 32.8829 60.58ZM70.4816 44.83C72.675 46.37 73.7716 49.0067 73.7716 52.74V59.46C73.7716 65.62 70.8783 68.7 65.0916 68.7H56.8316C51.045 68.7 48.1516 65.62 48.1516 59.46V55.75H56.9016V59.88C56.9016 60.2533 57.0183 60.58 57.2516 60.86C57.5316 61.14 57.8583 61.28 58.2316 61.28H63.7616C64.135 61.28 64.4383 61.14 64.6716 60.86C64.9516 60.58 65.0916 60.2533 65.0916 59.88V50.22C65.0916 49.8467 64.9516 49.52 64.6716 49.24C64.4383 48.96 64.135 48.82 63.7616 48.82H56.5516V41.26H63.3416C63.715 41.26 64.0183 41.12 64.2516 40.84C64.5316 40.56 64.6716 40.2333 64.6716 39.86V31.04C64.6716 30.6667 64.5316 30.34 64.2516 30.06C64.0183 29.78 63.715 29.64 63.3416 29.64H58.6516C58.2783 29.64 57.9516 29.78 57.6716 30.06C57.4383 30.34 57.3216 30.6667 57.3216 31.04V35.52H48.5716V31.25C48.5716 25.09 51.465 22.01 57.2516 22.01H64.6716C70.4583 22.01 73.3516 25.09 73.3516 31.25V37.27C73.3516 40.91 72.395 43.43 70.4816 44.83Z" fill="white"/>
<path d="M32.4629 29.08L31.6947 29.7202L31.7237 29.755L31.7558 29.7871L32.4629 29.08ZM26.5829 29.08L25.8758 28.3729L25.8437 28.405L25.8147 28.4398L26.5829 29.08ZM26.5829 61.56L25.8147 62.2002L25.8437 62.235L25.8758 62.2671L26.5829 61.56ZM32.4629 61.56L31.7558 60.8529L31.7237 60.885L31.6947 60.9198L32.4629 61.56ZM42.4029 31.25H41.4029V59.46H42.4029H43.4029V31.25H42.4029ZM42.4029 59.46H41.4029C41.4029 62.4009 40.711 64.4205 39.504 65.7053C38.3081 66.9784 36.4455 67.7 33.7229 67.7V68.7V69.7C36.7869 69.7 39.2643 68.8816 40.9617 67.0747C42.6481 65.2795 43.4029 62.6791 43.4029 59.46H42.4029ZM33.7229 68.7V67.7H25.3929V68.7V69.7H33.7229V68.7ZM25.3929 68.7V67.7C22.6703 67.7 20.8077 66.9784 19.6117 65.7053C18.4048 64.4205 17.7129 62.4009 17.7129 59.46H16.7129H15.7129C15.7129 62.6791 16.4677 65.2795 18.154 67.0747C19.8514 68.8816 22.3289 69.7 25.3929 69.7V68.7ZM16.7129 59.46H17.7129V31.25H16.7129H15.7129V59.46H16.7129ZM16.7129 31.25H17.7129C17.7129 28.3091 18.4048 26.2895 19.6117 25.0047C20.8077 23.7316 22.6702 23.01 25.3929 23.01V22.01V21.01C22.3289 21.01 19.8514 21.8284 18.154 23.6353C16.4677 25.4305 15.7129 28.0309 15.7129 31.25H16.7129ZM25.3929 22.01V23.01H33.7229V22.01V21.01H25.3929V22.01ZM33.7229 22.01V23.01C36.4455 23.01 38.3081 23.7316 39.504 25.0047C40.711 26.2895 41.4029 28.3091 41.4029 31.25H42.4029H43.4029C43.4029 28.0309 42.6481 25.4305 40.9617 23.6353C39.2643 21.8284 36.7869 21.01 33.7229 21.01V22.01ZM32.8829 60.58H33.8829V30.06H32.8829H31.8829V60.58H32.8829ZM32.8829 30.06H33.8829C33.8829 29.4041 33.6249 28.8278 33.17 28.3729L32.4629 29.08L31.7558 29.7871C31.8609 29.8922 31.8829 29.9692 31.8829 30.06H32.8829ZM32.4629 29.08L33.2311 28.4398C32.8025 27.9255 32.2147 27.66 31.5529 27.66V28.66V29.66C31.612 29.66 31.6357 29.6704 31.6413 29.673C31.6463 29.6752 31.6643 29.6837 31.6947 29.7202L32.4629 29.08ZM31.5529 28.66V27.66H27.5629V28.66V29.66H31.5529V28.66ZM27.5629 28.66V27.66C26.907 27.66 26.3307 27.918 25.8758 28.3729L26.5829 29.08L27.29 29.7871C27.3951 29.682 27.4721 29.66 27.5629 29.66V28.66ZM26.5829 29.08L25.8147 28.4398C25.4277 28.9042 25.2329 29.4589 25.2329 30.06H26.2329H27.2329C27.2329 29.9144 27.2715 29.8158 27.3511 29.7202L26.5829 29.08ZM26.2329 30.06H25.2329V60.58H26.2329H27.2329V30.06H26.2329ZM26.2329 60.58H25.2329C25.2329 61.1811 25.4277 61.7358 25.8147 62.2002L26.5829 61.56L27.3511 60.9198C27.2715 60.8242 27.2329 60.7256 27.2329 60.58H26.2329ZM26.5829 61.56L25.8758 62.2671C26.3307 62.722 26.907 62.98 27.5629 62.98V61.98V60.98C27.4721 60.98 27.3951 60.958 27.29 60.8529L26.5829 61.56ZM27.5629 61.98V62.98H31.5529V61.98V60.98H27.5629V61.98ZM31.5529 61.98V62.98C32.2147 62.98 32.8025 62.7145 33.2311 62.2002L32.4629 61.56L31.6947 60.9198C31.6643 60.9563 31.6463 60.9648 31.6413 60.967C31.6357 60.9696 31.612 60.98 31.5529 60.98V61.98ZM32.4629 61.56L33.17 62.2671C33.6249 61.8122 33.8829 61.2359 33.8829 60.58H32.8829H31.8829C31.8829 60.6708 31.8609 60.7478 31.7558 60.8529L32.4629 61.56ZM70.4816 44.83L69.8911 44.023L68.7653 44.8468L69.907 45.6484L70.4816 44.83ZM48.1516 55.75V54.75H47.1516V55.75H48.1516ZM56.9016 55.75H57.9016V54.75H56.9016V55.75ZM57.2516 60.86L56.4834 61.5002L56.5125 61.535L56.5445 61.5671L57.2516 60.86ZM64.6716 60.86L63.9645 60.1529L63.9325 60.185L63.9034 60.2198L64.6716 60.86ZM64.6716 49.24L63.9034 49.8802L63.9325 49.915L63.9645 49.9471L64.6716 49.24ZM56.5516 48.82H55.5516V49.82H56.5516V48.82ZM56.5516 41.26V40.26H55.5516V41.26H56.5516ZM64.2516 40.84L63.5445 40.1329L63.5125 40.165L63.4834 40.1998L64.2516 40.84ZM64.2516 30.06L63.4834 30.7002L63.5125 30.735L63.5445 30.7671L64.2516 30.06ZM57.6716 30.06L56.9645 29.3529L56.9325 29.385L56.9034 29.4198L57.6716 30.06ZM57.3216 35.52V36.52H58.3216V35.52H57.3216ZM48.5716 35.52H47.5716V36.52H48.5716V35.52ZM70.4816 44.83L69.907 45.6484C71.7377 46.9338 72.7716 49.1942 72.7716 52.74H73.7716H74.7716C74.7716 48.8191 73.6123 45.8062 71.0563 44.0116L70.4816 44.83ZM73.7716 52.74H72.7716V59.46H73.7716H74.7716V52.74H73.7716ZM73.7716 59.46H72.7716C72.7716 62.4009 72.0798 64.4205 70.8728 65.7053C69.6769 66.9784 67.8143 67.7 65.0916 67.7V68.7V69.7C68.1557 69.7 70.6331 68.8816 72.3305 67.0747C74.0168 65.2795 74.7716 62.6791 74.7716 59.46H73.7716ZM65.0916 68.7V67.7H56.8316V68.7V69.7H65.0916V68.7ZM56.8316 68.7V67.7C54.109 67.7 52.2464 66.9784 51.0505 65.7053C49.8435 64.4205 49.1516 62.4009 49.1516 59.46H48.1516H47.1516C47.1516 62.6791 47.9064 65.2795 49.5928 67.0747C51.2902 68.8816 53.7676 69.7 56.8316 69.7V68.7ZM48.1516 59.46H49.1516V55.75H48.1516H47.1516V59.46H48.1516ZM48.1516 55.75V56.75H56.9016V55.75V54.75H48.1516V55.75ZM56.9016 55.75H55.9016V59.88H56.9016H57.9016V55.75H56.9016ZM56.9016 59.88H55.9016C55.9016 60.4811 56.0964 61.0358 56.4834 61.5002L57.2516 60.86L58.0199 60.2198C57.9402 60.1242 57.9016 60.0256 57.9016 59.88H56.9016ZM57.2516 60.86L56.5445 61.5671C56.9994 62.022 57.5758 62.28 58.2316 62.28V61.28V60.28C58.1409 60.28 58.0638 60.258 57.9587 60.1529L57.2516 60.86ZM58.2316 61.28V62.28H63.7616V61.28V60.28H58.2316V61.28ZM63.7616 61.28V62.28C64.4234 62.28 65.0113 62.0145 65.4399 61.5002L64.6716 60.86L63.9034 60.2198C63.873 60.2563 63.855 60.2648 63.8501 60.267C63.8445 60.2696 63.8207 60.28 63.7616 60.28V61.28ZM64.6716 60.86L65.3787 61.5671C65.8337 61.1122 66.0916 60.5359 66.0916 59.88H65.0916H64.0916C64.0916 59.9708 64.0696 60.0478 63.9645 60.1529L64.6716 60.86ZM65.0916 59.88H66.0916V50.22H65.0916H64.0916V59.88H65.0916ZM65.0916 50.22H66.0916C66.0916 49.5641 65.8337 48.9878 65.3787 48.5329L64.6716 49.24L63.9645 49.9471C64.0696 50.0522 64.0916 50.1292 64.0916 50.22H65.0916ZM64.6716 49.24L65.4399 48.5998C65.0113 48.0855 64.4234 47.82 63.7616 47.82V48.82V49.82C63.8207 49.82 63.8445 49.8304 63.8501 49.833C63.855 49.8352 63.873 49.8437 63.9034 49.8802L64.6716 49.24ZM63.7616 48.82V47.82H56.5516V48.82V49.82H63.7616V48.82ZM56.5516 48.82H57.5516V41.26H56.5516H55.5516V48.82H56.5516ZM56.5516 41.26V42.26H63.3416V41.26V40.26H56.5516V41.26ZM63.3416 41.26V42.26C64.0034 42.26 64.5913 41.9945 65.0199 41.4802L64.2516 40.84L63.4834 40.1998C63.453 40.2363 63.435 40.2448 63.4301 40.247C63.4245 40.2496 63.4007 40.26 63.3416 40.26V41.26ZM64.2516 40.84L64.9588 41.5471C65.4137 41.0922 65.6716 40.5159 65.6716 39.86H64.6716H63.6716C63.6716 39.9508 63.6496 40.0278 63.5445 40.1329L64.2516 40.84ZM64.6716 39.86H65.6716V31.04H64.6716H63.6716V39.86H64.6716ZM64.6716 31.04H65.6716C65.6716 30.3841 65.4137 29.8078 64.9588 29.3529L64.2516 30.06L63.5445 30.7671C63.6496 30.8722 63.6716 30.9492 63.6716 31.04H64.6716ZM64.2516 30.06L65.0199 29.4198C64.5913 28.9055 64.0034 28.64 63.3416 28.64V29.64V30.64C63.4007 30.64 63.4245 30.6504 63.4301 30.653C63.435 30.6552 63.453 30.6637 63.4834 30.7002L64.2516 30.06ZM63.3416 29.64V28.64H58.6516V29.64V30.64H63.3416V29.64ZM58.6516 29.64V28.64C57.9958 28.64 57.4194 28.898 56.9645 29.3529L57.6716 30.06L58.3787 30.7671C58.4838 30.662 58.5609 30.64 58.6516 30.64V29.64ZM57.6716 30.06L56.9034 29.4198C56.5164 29.8842 56.3216 30.4389 56.3216 31.04H57.3216H58.3216C58.3216 30.8944 58.3602 30.7958 58.4399 30.7002L57.6716 30.06ZM57.3216 31.04H56.3216V35.52H57.3216H58.3216V31.04H57.3216ZM57.3216 35.52V34.52H48.5716V35.52V36.52H57.3216V35.52ZM48.5716 35.52H49.5716V31.25H48.5716H47.5716V35.52H48.5716ZM48.5716 31.25H49.5716C49.5716 28.3091 50.2635 26.2895 51.4705 25.0047C52.6664 23.7316 54.529 23.01 57.2516 23.01V22.01V21.01C54.1876 21.01 51.7102 21.8284 50.0128 23.6353C48.3264 25.4305 47.5716 28.0309 47.5716 31.25H48.5716ZM57.2516 22.01V23.01H64.6716V22.01V21.01H57.2516V22.01ZM64.6716 22.01V23.01C67.3943 23.01 69.2569 23.7316 70.4528 25.0047C71.6598 26.2895 72.3516 28.3091 72.3516 31.25H73.3516H74.3516C74.3516 28.0309 73.5968 25.4305 71.9105 23.6353C70.2131 21.8284 67.7357 21.01 64.6716 21.01V22.01ZM73.3516 31.25H72.3516V37.27H73.3516H74.3516V31.25H73.3516ZM73.3516 37.27H72.3516C72.3516 40.7671 71.4321 42.8954 69.8911 44.023L70.4816 44.83L71.0722 45.637C73.3579 43.9646 74.3516 41.0529 74.3516 37.27H73.3516Z" fill="black" mask="url(#path-3-inside-1_44_193)"/>
<mask id="path-5-inside-2_44_193" fill="white">
<path d="M258.524 48.75V62H251.524V29.65H263.974C268.108 29.65 270.174 31.85 270.174 36.25V40C270.174 42.6667 269.224 44.3667 267.324 45.1C268.991 45.7 269.824 47.0667 269.824 49.2V62H262.824V49.75C262.824 49.0833 262.508 48.75 261.874 48.75H258.524ZM258.524 34.4V43.85H262.224C262.491 43.85 262.708 43.75 262.874 43.55C263.074 43.35 263.174 43.1167 263.174 42.85V35.4C263.174 35.1333 263.074 34.9 262.874 34.7C262.708 34.5 262.491 34.4 262.224 34.4H258.524ZM281.669 56.2H289.419V62H274.669V29.65H289.419V35.35H281.669V42.95H288.919V48.45H281.669V56.2ZM311.418 38.15H304.768V35.6C304.768 35.3333 304.668 35.1 304.468 34.9C304.301 34.7 304.084 34.6 303.818 34.6H301.068C300.801 34.6 300.568 34.7 300.368 34.9C300.201 35.1 300.118 35.3333 300.118 35.6V41.35C300.118 41.6167 300.201 41.85 300.368 42.05C300.568 42.25 300.801 42.35 301.068 42.35H305.568C309.701 42.4167 311.768 44.6167 311.768 48.95V55.9C311.768 60.3 309.701 62.5 305.568 62.5H299.668C295.534 62.5 293.468 60.3 293.468 55.9V52.55H300.118V56.15C300.118 56.4167 300.201 56.65 300.368 56.85C300.568 57.05 300.801 57.15 301.068 57.15H304.168C304.434 57.15 304.651 57.05 304.818 56.85C305.018 56.65 305.118 56.4167 305.118 56.15V49.8C305.118 49.5333 305.018 49.3 304.818 49.1C304.651 48.9 304.434 48.8 304.168 48.8H299.668C295.534 48.8 293.468 46.6 293.468 42.2V35.75C293.468 31.35 295.534 29.15 299.668 29.15H305.218C309.351 29.15 311.418 31.35 311.418 35.75V38.15ZM314.518 35.6V29.65H332.018V35.6H326.768V62H319.768V35.6H314.518ZM348.066 29.15C352.199 29.15 354.266 31.35 354.266 35.75V62H347.266V51.15H342.216V62H335.216V35.75C335.216 31.35 337.282 29.15 341.416 29.15H348.066ZM342.216 45.75H347.266V34.9C347.266 34.6333 347.166 34.4 346.966 34.2C346.799 34 346.582 33.9 346.316 33.9H343.166C342.899 33.9 342.666 34 342.466 34.2C342.299 34.4 342.216 34.6333 342.216 34.9V45.75ZM366.483 48.75V62H359.483V29.65H371.933C376.067 29.65 378.133 31.85 378.133 36.25V40C378.133 42.6667 377.183 44.3667 375.283 45.1C376.95 45.7 377.783 47.0667 377.783 49.2V62H370.783V49.75C370.783 49.0833 370.467 48.75 369.833 48.75H366.483ZM366.483 34.4V43.85H370.183C370.45 43.85 370.667 43.75 370.833 43.55C371.033 43.35 371.133 43.1167 371.133 42.85V35.4C371.133 35.1333 371.033 34.9 370.833 34.7C370.667 34.5 370.45 34.4 370.183 34.4H366.483ZM380.778 35.6V29.65H398.278V35.6H393.028V62H386.028V35.6H380.778Z"/>
</mask>
<path d="M258.524 48.75V62H251.524V29.65H263.974C268.108 29.65 270.174 31.85 270.174 36.25V40C270.174 42.6667 269.224 44.3667 267.324 45.1C268.991 45.7 269.824 47.0667 269.824 49.2V62H262.824V49.75C262.824 49.0833 262.508 48.75 261.874 48.75H258.524ZM258.524 34.4V43.85H262.224C262.491 43.85 262.708 43.75 262.874 43.55C263.074 43.35 263.174 43.1167 263.174 42.85V35.4C263.174 35.1333 263.074 34.9 262.874 34.7C262.708 34.5 262.491 34.4 262.224 34.4H258.524ZM281.669 56.2H289.419V62H274.669V29.65H289.419V35.35H281.669V42.95H288.919V48.45H281.669V56.2ZM311.418 38.15H304.768V35.6C304.768 35.3333 304.668 35.1 304.468 34.9C304.301 34.7 304.084 34.6 303.818 34.6H301.068C300.801 34.6 300.568 34.7 300.368 34.9C300.201 35.1 300.118 35.3333 300.118 35.6V41.35C300.118 41.6167 300.201 41.85 300.368 42.05C300.568 42.25 300.801 42.35 301.068 42.35H305.568C309.701 42.4167 311.768 44.6167 311.768 48.95V55.9C311.768 60.3 309.701 62.5 305.568 62.5H299.668C295.534 62.5 293.468 60.3 293.468 55.9V52.55H300.118V56.15C300.118 56.4167 300.201 56.65 300.368 56.85C300.568 57.05 300.801 57.15 301.068 57.15H304.168C304.434 57.15 304.651 57.05 304.818 56.85C305.018 56.65 305.118 56.4167 305.118 56.15V49.8C305.118 49.5333 305.018 49.3 304.818 49.1C304.651 48.9 304.434 48.8 304.168 48.8H299.668C295.534 48.8 293.468 46.6 293.468 42.2V35.75C293.468 31.35 295.534 29.15 299.668 29.15H305.218C309.351 29.15 311.418 31.35 311.418 35.75V38.15ZM314.518 35.6V29.65H332.018V35.6H326.768V62H319.768V35.6H314.518ZM348.066 29.15C352.199 29.15 354.266 31.35 354.266 35.75V62H347.266V51.15H342.216V62H335.216V35.75C335.216 31.35 337.282 29.15 341.416 29.15H348.066ZM342.216 45.75H347.266V34.9C347.266 34.6333 347.166 34.4 346.966 34.2C346.799 34 346.582 33.9 346.316 33.9H343.166C342.899 33.9 342.666 34 342.466 34.2C342.299 34.4 342.216 34.6333 342.216 34.9V45.75ZM366.483 48.75V62H359.483V29.65H371.933C376.067 29.65 378.133 31.85 378.133 36.25V40C378.133 42.6667 377.183 44.3667 375.283 45.1C376.95 45.7 377.783 47.0667 377.783 49.2V62H370.783V49.75C370.783 49.0833 370.467 48.75 369.833 48.75H366.483ZM366.483 34.4V43.85H370.183C370.45 43.85 370.667 43.75 370.833 43.55C371.033 43.35 371.133 43.1167 371.133 42.85V35.4C371.133 35.1333 371.033 34.9 370.833 34.7C370.667 34.5 370.45 34.4 370.183 34.4H366.483ZM380.778 35.6V29.65H398.278V35.6H393.028V62H386.028V35.6H380.778Z" fill="black"/>
<path d="M258.524 48.75V47.75H257.524V48.75H258.524ZM258.524 62V63H259.524V62H258.524ZM251.524 62H250.524V63H251.524V62ZM251.524 29.65V28.65H250.524V29.65H251.524ZM267.324 45.1L266.964 44.1671L264.463 45.1326L266.986 46.0409L267.324 45.1ZM269.824 62V63H270.824V62H269.824ZM262.824 62H261.824V63H262.824V62ZM258.524 34.4V33.4H257.524V34.4H258.524ZM258.524 43.85H257.524V44.85H258.524V43.85ZM262.874 43.55L262.167 42.8429L262.135 42.875L262.106 42.9098L262.874 43.55ZM262.874 34.7L262.106 35.3402L262.135 35.375L262.167 35.4071L262.874 34.7ZM258.524 48.75H257.524V62H258.524H259.524V48.75H258.524ZM258.524 62V61H251.524V62V63H258.524V62ZM251.524 62H252.524V29.65H251.524H250.524V62H251.524ZM251.524 29.65V30.65H263.974V29.65V28.65H251.524V29.65ZM263.974 29.65V30.65C265.87 30.65 267.113 31.1516 267.896 31.9847C268.689 32.8295 269.174 34.1891 269.174 36.25H270.174H271.174C271.174 33.9109 270.626 31.9705 269.353 30.6153C268.069 29.2484 266.212 28.65 263.974 28.65V29.65ZM270.174 36.25H269.174V40H270.174H271.174V36.25H270.174ZM270.174 40H269.174C269.174 41.2228 268.956 42.1313 268.589 42.7872C268.233 43.4236 267.708 43.8802 266.964 44.1671L267.324 45.1L267.684 46.0329C268.841 45.5864 269.741 44.8264 270.335 43.7628C270.918 42.7187 271.174 41.4439 271.174 40H270.174ZM267.324 45.1L266.986 46.0409C267.629 46.2724 268.06 46.628 268.346 47.0956C268.64 47.5782 268.824 48.2576 268.824 49.2H269.824H270.824C270.824 48.009 270.592 46.9385 270.053 46.0544C269.505 45.1553 268.687 44.5276 267.663 44.1591L267.324 45.1ZM269.824 49.2H268.824V62H269.824H270.824V49.2H269.824ZM269.824 62V61H262.824V62V63H269.824V62ZM262.824 62H263.824V49.75H262.824H261.824V62H262.824ZM262.824 49.75H263.824C263.824 49.275 263.712 48.7329 263.312 48.3112C262.902 47.88 262.359 47.75 261.874 47.75V48.75V49.75C261.91 49.75 261.934 49.7524 261.948 49.7545C261.962 49.7566 261.965 49.7582 261.959 49.7561C261.953 49.7538 261.938 49.748 261.919 49.7361C261.9 49.724 261.88 49.7081 261.862 49.6888C261.844 49.6695 261.831 49.6508 261.822 49.6358C261.814 49.6212 261.811 49.6129 261.812 49.6144C261.812 49.6161 261.816 49.6272 261.819 49.6501C261.822 49.6731 261.824 49.7059 261.824 49.75H262.824ZM261.874 48.75V47.75H258.524V48.75V49.75H261.874V48.75ZM258.524 34.4H257.524V43.85H258.524H259.524V34.4H258.524ZM258.524 43.85V44.85H262.224V43.85V42.85H258.524V43.85ZM262.224 43.85V44.85C262.78 44.85 263.281 44.6245 263.643 44.1902L262.874 43.55L262.106 42.9098C262.109 42.9063 262.129 42.8848 262.168 42.867C262.206 42.8496 262.23 42.85 262.224 42.85V43.85ZM262.874 43.55L263.582 44.2571C263.956 43.8822 264.174 43.3992 264.174 42.85H263.174H262.174C262.174 42.8538 262.174 42.8526 262.175 42.8476C262.176 42.8425 262.178 42.8367 262.18 42.8311C262.183 42.8256 262.184 42.8233 262.183 42.8245C262.183 42.8259 262.178 42.8322 262.167 42.8429L262.874 43.55ZM263.174 42.85H264.174V35.4H263.174H262.174V42.85H263.174ZM263.174 35.4H264.174C264.174 34.8508 263.956 34.3678 263.582 33.9929L262.874 34.7L262.167 35.4071C262.178 35.4178 262.183 35.4241 262.183 35.4255C262.184 35.4267 262.183 35.4244 262.18 35.4189C262.178 35.4133 262.176 35.4075 262.175 35.4024C262.174 35.3974 262.174 35.3962 262.174 35.4H263.174ZM262.874 34.7L263.643 34.0598C263.281 33.6255 262.78 33.4 262.224 33.4V34.4V35.4C262.23 35.4 262.206 35.4004 262.168 35.383C262.129 35.3652 262.109 35.3437 262.106 35.3402L262.874 34.7ZM262.224 34.4V33.4H258.524V34.4V35.4H262.224V34.4ZM281.669 56.2H280.669V57.2H281.669V56.2ZM289.419 56.2H290.419V55.2H289.419V56.2ZM289.419 62V63H290.419V62H289.419ZM274.669 62H273.669V63H274.669V62ZM274.669 29.65V28.65H273.669V29.65H274.669ZM289.419 29.65H290.419V28.65H289.419V29.65ZM289.419 35.35V36.35H290.419V35.35H289.419ZM281.669 35.35V34.35H280.669V35.35H281.669ZM281.669 42.95H280.669V43.95H281.669V42.95ZM288.919 42.95H289.919V41.95H288.919V42.95ZM288.919 48.45V49.45H289.919V48.45H288.919ZM281.669 48.45V47.45H280.669V48.45H281.669ZM281.669 56.2V57.2H289.419V56.2V55.2H281.669V56.2ZM289.419 56.2H288.419V62H289.419H290.419V56.2H289.419ZM289.419 62V61H274.669V62V63H289.419V62ZM274.669 62H275.669V29.65H274.669H273.669V62H274.669ZM274.669 29.65V30.65H289.419V29.65V28.65H274.669V29.65ZM289.419 29.65H288.419V35.35H289.419H290.419V29.65H289.419ZM289.419 35.35V34.35H281.669V35.35V36.35H289.419V35.35ZM281.669 35.35H280.669V42.95H281.669H282.669V35.35H281.669ZM281.669 42.95V43.95H288.919V42.95V41.95H281.669V42.95ZM288.919 42.95H287.919V48.45H288.919H289.919V42.95H288.919ZM288.919 48.45V47.45H281.669V48.45V49.45H288.919V48.45ZM281.669 48.45H280.669V56.2H281.669H282.669V48.45H281.669ZM311.418 38.15V39.15H312.418V38.15H311.418ZM304.768 38.15H303.768V39.15H304.768V38.15ZM304.468 34.9L303.7 35.5402L303.729 35.575L303.761 35.6071L304.468 34.9ZM300.368 34.9L299.661 34.1929L299.629 34.225L299.6 34.2598L300.368 34.9ZM300.368 42.05L299.6 42.6902L299.629 42.725L299.661 42.7571L300.368 42.05ZM305.568 42.35L305.584 41.3501L305.576 41.35H305.568V42.35ZM293.468 52.55V51.55H292.468V52.55H293.468ZM300.118 52.55H301.118V51.55H300.118V52.55ZM300.368 56.85L299.6 57.4902L299.629 57.525L299.661 57.5571L300.368 56.85ZM304.818 56.85L304.111 56.1429L304.079 56.175L304.05 56.2098L304.818 56.85ZM304.818 49.1L304.05 49.7402L304.079 49.775L304.111 49.8071L304.818 49.1ZM311.418 38.15V37.15H304.768V38.15V39.15H311.418V38.15ZM304.768 38.15H305.768V35.6H304.768H303.768V38.15H304.768ZM304.768 35.6H305.768C305.768 35.0508 305.55 34.5678 305.175 34.1929L304.468 34.9L303.761 35.6071C303.771 35.6178 303.776 35.6241 303.777 35.6255C303.778 35.6267 303.776 35.6244 303.774 35.6189C303.771 35.6133 303.769 35.6075 303.768 35.6024C303.767 35.5974 303.768 35.5962 303.768 35.6H304.768ZM304.468 34.9L305.236 34.2598C304.874 33.8255 304.373 33.6 303.818 33.6V34.6V35.6C303.824 35.6 303.799 35.6004 303.761 35.583C303.723 35.5652 303.703 35.5437 303.7 35.5402L304.468 34.9ZM303.818 34.6V33.6H301.068V34.6V35.6H303.818V34.6ZM301.068 34.6V33.6C300.519 33.6 300.036 33.818 299.661 34.1929L300.368 34.9L301.075 35.6071C301.086 35.5965 301.092 35.5919 301.093 35.5909C301.094 35.5901 301.092 35.5918 301.087 35.5941C301.081 35.5965 301.075 35.5983 301.07 35.5993C301.065 35.6003 301.064 35.6 301.068 35.6V34.6ZM300.368 34.9L299.6 34.2598C299.279 34.6442 299.118 35.1056 299.118 35.6H300.118H301.118C301.118 35.5725 301.122 35.5621 301.122 35.5613C301.122 35.5602 301.123 35.5586 301.125 35.556C301.126 35.5533 301.129 35.548 301.136 35.5402L300.368 34.9ZM300.118 35.6H299.118V41.35H300.118H301.118V35.6H300.118ZM300.118 41.35H299.118C299.118 41.8444 299.279 42.3058 299.6 42.6902L300.368 42.05L301.136 41.4098C301.129 41.402 301.126 41.3967 301.125 41.394C301.123 41.3914 301.122 41.3898 301.122 41.3887C301.122 41.3879 301.118 41.3775 301.118 41.35H300.118ZM300.368 42.05L299.661 42.7571C300.036 43.132 300.519 43.35 301.068 43.35V42.35V41.35C301.064 41.35 301.065 41.3497 301.07 41.3507C301.075 41.3517 301.081 41.3535 301.087 41.3559C301.092 41.3582 301.094 41.3599 301.093 41.3591C301.092 41.3581 301.086 41.3535 301.075 41.3429L300.368 42.05ZM301.068 42.35V43.35H305.568V42.35V41.35H301.068V42.35ZM305.568 42.35L305.552 43.3499C307.451 43.3805 308.701 43.8959 309.489 44.7347C310.285 45.582 310.768 46.9274 310.768 48.95H311.768H312.768C312.768 46.6393 312.217 44.718 310.947 43.3653C309.668 42.0041 307.818 41.3862 305.584 41.3501L305.568 42.35ZM311.768 48.95H310.768V55.9H311.768H312.768V48.95H311.768ZM311.768 55.9H310.768C310.768 57.9609 310.283 59.3205 309.489 60.1653C308.706 60.9984 307.464 61.5 305.568 61.5V62.5V63.5C307.805 63.5 309.663 62.9016 310.947 61.5347C312.22 60.1795 312.768 58.2391 312.768 55.9H311.768ZM305.568 62.5V61.5H299.668V62.5V63.5H305.568V62.5ZM299.668 62.5V61.5C297.772 61.5 296.529 60.9984 295.747 60.1653C294.953 59.3205 294.468 57.9609 294.468 55.9H293.468H292.468C292.468 58.2391 293.016 60.1795 294.289 61.5347C295.573 62.9016 297.43 63.5 299.668 63.5V62.5ZM293.468 55.9H294.468V52.55H293.468H292.468V55.9H293.468ZM293.468 52.55V53.55H300.118V52.55V51.55H293.468V52.55ZM300.118 52.55H299.118V56.15H300.118H301.118V52.55H300.118ZM300.118 56.15H299.118C299.118 56.6444 299.279 57.1058 299.6 57.4902L300.368 56.85L301.136 56.2098C301.129 56.202 301.126 56.1967 301.125 56.194C301.123 56.1914 301.122 56.1898 301.122 56.1887C301.122 56.1879 301.118 56.1775 301.118 56.15H300.118ZM300.368 56.85L299.661 57.5571C300.036 57.932 300.519 58.15 301.068 58.15V57.15V56.15C301.064 56.15 301.065 56.1497 301.07 56.1507C301.075 56.1517 301.081 56.1535 301.087 56.1559C301.092 56.1582 301.094 56.1599 301.093 56.1591C301.092 56.1581 301.086 56.1535 301.075 56.1429L300.368 56.85ZM301.068 57.15V58.15H304.168V57.15V56.15H301.068V57.15ZM304.168 57.15V58.15C304.723 58.15 305.224 57.9245 305.586 57.4902L304.818 56.85L304.05 56.2098C304.053 56.2063 304.073 56.1848 304.111 56.167C304.149 56.1496 304.174 56.15 304.168 56.15V57.15ZM304.818 56.85L305.525 57.5571C305.9 57.1822 306.118 56.6992 306.118 56.15H305.118H304.118C304.118 56.1538 304.117 56.1526 304.118 56.1476C304.119 56.1425 304.121 56.1367 304.124 56.1311C304.126 56.1256 304.128 56.1233 304.127 56.1245C304.126 56.1259 304.121 56.1322 304.111 56.1429L304.818 56.85ZM305.118 56.15H306.118V49.8H305.118H304.118V56.15H305.118ZM305.118 49.8H306.118C306.118 49.2508 305.9 48.7678 305.525 48.3929L304.818 49.1L304.111 49.8071C304.121 49.8178 304.126 49.8241 304.127 49.8255C304.128 49.8267 304.126 49.8244 304.124 49.8189C304.121 49.8133 304.119 49.8075 304.118 49.8024C304.117 49.7974 304.118 49.7962 304.118 49.8H305.118ZM304.818 49.1L305.586 48.4598C305.224 48.0255 304.723 47.8 304.168 47.8V48.8V49.8C304.174 49.8 304.149 49.8004 304.111 49.783C304.073 49.7652 304.053 49.7437 304.05 49.7402L304.818 49.1ZM304.168 48.8V47.8H299.668V48.8V49.8H304.168V48.8ZM299.668 48.8V47.8C297.772 47.8 296.529 47.2984 295.747 46.4653C294.953 45.6205 294.468 44.2609 294.468 42.2H293.468H292.468C292.468 44.5391 293.016 46.4795 294.289 47.8347C295.573 49.2016 297.43 49.8 299.668 49.8V48.8ZM293.468 42.2H294.468V35.75H293.468H292.468V42.2H293.468ZM293.468 35.75H294.468C294.468 33.6891 294.953 32.3295 295.747 31.4847C296.529 30.6516 297.772 30.15 299.668 30.15V29.15V28.15C297.43 28.15 295.573 28.7484 294.289 30.1153C293.016 31.4705 292.468 33.4109 292.468 35.75H293.468ZM299.668 29.15V30.15H305.218V29.15V28.15H299.668V29.15ZM305.218 29.15V30.15C307.114 30.15 308.356 30.6516 309.139 31.4847C309.933 32.3295 310.418 33.6891 310.418 35.75H311.418H312.418C312.418 33.4109 311.87 31.4705 310.597 30.1153C309.313 28.7484 307.455 28.15 305.218 28.15V29.15ZM311.418 35.75H310.418V38.15H311.418H312.418V35.75H311.418ZM314.518 35.6H313.518V36.6H314.518V35.6ZM314.518 29.65V28.65H313.518V29.65H314.518ZM332.018 29.65H333.018V28.65H332.018V29.65ZM332.018 35.6V36.6H333.018V35.6H332.018ZM326.768 35.6V34.6H325.768V35.6H326.768ZM326.768 62V63H327.768V62H326.768ZM319.768 62H318.768V63H319.768V62ZM319.768 35.6H320.768V34.6H319.768V35.6ZM314.518 35.6H315.518V29.65H314.518H313.518V35.6H314.518ZM314.518 29.65V30.65H332.018V29.65V28.65H314.518V29.65ZM332.018 29.65H331.018V35.6H332.018H333.018V29.65H332.018ZM332.018 35.6V34.6H326.768V35.6V36.6H332.018V35.6ZM326.768 35.6H325.768V62H326.768H327.768V35.6H326.768ZM326.768 62V61H319.768V62V63H326.768V62ZM319.768 62H320.768V35.6H319.768H318.768V62H319.768ZM319.768 35.6V34.6H314.518V35.6V36.6H319.768V35.6ZM354.266 62V63H355.266V62H354.266ZM347.266 62H346.266V63H347.266V62ZM347.266 51.15H348.266V50.15H347.266V51.15ZM342.216 51.15V50.15H341.216V51.15H342.216ZM342.216 62V63H343.216V62H342.216ZM335.216 62H334.216V63H335.216V62ZM342.216 45.75H341.216V46.75H342.216V45.75ZM347.266 45.75V46.75H348.266V45.75H347.266ZM346.966 34.2L346.198 34.8402L346.227 34.875L346.259 34.9071L346.966 34.2ZM342.466 34.2L341.759 33.4929L341.727 33.525L341.698 33.5598L342.466 34.2ZM348.066 29.15V30.15C349.962 30.15 351.204 30.6516 351.987 31.4847C352.781 32.3295 353.266 33.6891 353.266 35.75H354.266H355.266C355.266 33.4109 354.718 31.4705 353.445 30.1153C352.161 28.7484 350.303 28.15 348.066 28.15V29.15ZM354.266 35.75H353.266V62H354.266H355.266V35.75H354.266ZM354.266 62V61H347.266V62V63H354.266V62ZM347.266 62H348.266V51.15H347.266H346.266V62H347.266ZM347.266 51.15V50.15H342.216V51.15V52.15H347.266V51.15ZM342.216 51.15H341.216V62H342.216H343.216V51.15H342.216ZM342.216 62V61H335.216V62V63H342.216V62ZM335.216 62H336.216V35.75H335.216H334.216V62H335.216ZM335.216 35.75H336.216C336.216 33.6891 336.701 32.3295 337.495 31.4847C338.277 30.6516 339.52 30.15 341.416 30.15V29.15V28.15C339.178 28.15 337.321 28.7484 336.037 30.1153C334.764 31.4705 334.216 33.4109 334.216 35.75H335.216ZM341.416 29.15V30.15H348.066V29.15V28.15H341.416V29.15ZM342.216 45.75V46.75H347.266V45.75V44.75H342.216V45.75ZM347.266 45.75H348.266V34.9H347.266H346.266V45.75H347.266ZM347.266 34.9H348.266C348.266 34.3508 348.048 33.8678 347.673 33.4929L346.966 34.2L346.259 34.9071C346.269 34.9178 346.274 34.9241 346.275 34.9255C346.276 34.9267 346.274 34.9244 346.272 34.9189C346.269 34.9133 346.268 34.9075 346.266 34.9024C346.266 34.8974 346.266 34.8962 346.266 34.9H347.266ZM346.966 34.2L347.734 33.5598C347.372 33.1255 346.871 32.9 346.316 32.9V33.9V34.9C346.322 34.9 346.297 34.9004 346.259 34.883C346.221 34.8652 346.201 34.8437 346.198 34.8402L346.966 34.2ZM346.316 33.9V32.9H343.166V33.9V34.9H346.316V33.9ZM343.166 33.9V32.9C342.617 32.9 342.134 33.118 341.759 33.4929L342.466 34.2L343.173 34.9071C343.184 34.8965 343.19 34.8919 343.191 34.8909C343.193 34.8901 343.19 34.8918 343.185 34.8941C343.179 34.8965 343.173 34.8983 343.168 34.8993C343.163 34.9003 343.162 34.9 343.166 34.9V33.9ZM342.466 34.2L341.698 33.5598C341.377 33.9442 341.216 34.4056 341.216 34.9H342.216H343.216C343.216 34.8725 343.22 34.8621 343.22 34.8613C343.22 34.8602 343.221 34.8586 343.223 34.856C343.224 34.8533 343.228 34.848 343.234 34.8402L342.466 34.2ZM342.216 34.9H341.216V45.75H342.216H343.216V34.9H342.216ZM366.483 48.75V47.75H365.483V48.75H366.483ZM366.483 62V63H367.483V62H366.483ZM359.483 62H358.483V63H359.483V62ZM359.483 29.65V28.65H358.483V29.65H359.483ZM375.283 45.1L374.923 44.1671L372.422 45.1326L374.945 46.0409L375.283 45.1ZM377.783 62V63H378.783V62H377.783ZM370.783 62H369.783V63H370.783V62ZM366.483 34.4V33.4H365.483V34.4H366.483ZM366.483 43.85H365.483V44.85H366.483V43.85ZM370.833 43.55L370.126 42.8429L370.094 42.875L370.065 42.9098L370.833 43.55ZM370.833 34.7L370.065 35.3402L370.094 35.375L370.126 35.4071L370.833 34.7ZM366.483 48.75H365.483V62H366.483H367.483V48.75H366.483ZM366.483 62V61H359.483V62V63H366.483V62ZM359.483 62H360.483V29.65H359.483H358.483V62H359.483ZM359.483 29.65V30.65H371.933V29.65V28.65H359.483V29.65ZM371.933 29.65V30.65C373.829 30.65 375.072 31.1516 375.855 31.9847C376.648 32.8295 377.133 34.1891 377.133 36.25H378.133H379.133C379.133 33.9109 378.585 31.9705 377.312 30.6153C376.028 29.2484 374.171 28.65 371.933 28.65V29.65ZM378.133 36.25H377.133V40H378.133H379.133V36.25H378.133ZM378.133 40H377.133C377.133 41.2228 376.914 42.1313 376.548 42.7872C376.192 43.4236 375.666 43.8802 374.923 44.1671L375.283 45.1L375.643 46.0329C376.8 45.5864 377.7 44.8264 378.294 43.7628C378.877 42.7187 379.133 41.4439 379.133 40H378.133ZM375.283 45.1L374.945 46.0409C375.588 46.2724 376.019 46.628 376.305 47.0956C376.599 47.5782 376.783 48.2576 376.783 49.2H377.783H378.783C378.783 48.009 378.551 46.9385 378.012 46.0544C377.464 45.1553 376.646 44.5276 375.622 44.1591L375.283 45.1ZM377.783 49.2H376.783V62H377.783H378.783V49.2H377.783ZM377.783 62V61H370.783V62V63H377.783V62ZM370.783 62H371.783V49.75H370.783H369.783V62H370.783ZM370.783 49.75H371.783C371.783 49.275 371.671 48.7329 371.271 48.3112C370.861 47.88 370.318 47.75 369.833 47.75V48.75V49.75C369.869 49.75 369.893 49.7524 369.907 49.7545C369.921 49.7566 369.924 49.7582 369.918 49.7561C369.911 49.7538 369.897 49.748 369.878 49.7361C369.859 49.724 369.839 49.7081 369.821 49.6888C369.803 49.6695 369.79 49.6508 369.781 49.6358C369.773 49.6212 369.77 49.6129 369.771 49.6144C369.771 49.6161 369.775 49.6272 369.778 49.6501C369.781 49.6731 369.783 49.7059 369.783 49.75H370.783ZM369.833 48.75V47.75H366.483V48.75V49.75H369.833V48.75ZM366.483 34.4H365.483V43.85H366.483H367.483V34.4H366.483ZM366.483 43.85V44.85H370.183V43.85V42.85H366.483V43.85ZM370.183 43.85V44.85C370.739 44.85 371.24 44.6245 371.602 44.1902L370.833 43.55L370.065 42.9098C370.068 42.9063 370.088 42.8848 370.127 42.867C370.165 42.8496 370.189 42.85 370.183 42.85V43.85ZM370.833 43.55L371.54 44.2571C371.915 43.8822 372.133 43.3992 372.133 42.85H371.133H370.133C370.133 42.8538 370.133 42.8526 370.134 42.8476C370.135 42.8425 370.137 42.8367 370.139 42.8311C370.142 42.8256 370.143 42.8233 370.142 42.8245C370.141 42.8259 370.137 42.8322 370.126 42.8429L370.833 43.55ZM371.133 42.85H372.133V35.4H371.133H370.133V42.85H371.133ZM371.133 35.4H372.133C372.133 34.8508 371.915 34.3678 371.54 33.9929L370.833 34.7L370.126 35.4071C370.137 35.4178 370.141 35.4241 370.142 35.4255C370.143 35.4267 370.142 35.4244 370.139 35.4189C370.137 35.4133 370.135 35.4075 370.134 35.4024C370.133 35.3974 370.133 35.3962 370.133 35.4H371.133ZM370.833 34.7L371.602 34.0598C371.24 33.6255 370.739 33.4 370.183 33.4V34.4V35.4C370.189 35.4 370.165 35.4004 370.127 35.383C370.088 35.3652 370.068 35.3437 370.065 35.3402L370.833 34.7ZM370.183 34.4V33.4H366.483V34.4V35.4H370.183V34.4ZM380.778 35.6H379.778V36.6H380.778V35.6ZM380.778 29.65V28.65H379.778V29.65H380.778ZM398.278 29.65H399.278V28.65H398.278V29.65ZM398.278 35.6V36.6H399.278V35.6H398.278ZM393.028 35.6V34.6H392.028V35.6H393.028ZM393.028 62V63H394.028V62H393.028ZM386.028 62H385.028V63H386.028V62ZM386.028 35.6H387.028V34.6H386.028V35.6ZM380.778 35.6H381.778V29.65H380.778H379.778V35.6H380.778ZM380.778 29.65V30.65H398.278V29.65V28.65H380.778V29.65ZM398.278 29.65H397.278V35.6H398.278H399.278V29.65H398.278ZM398.278 35.6V34.6H393.028V35.6V36.6H398.278V35.6ZM393.028 35.6H392.028V62H393.028H394.028V35.6H393.028ZM393.028 62V61H386.028V62V63H393.028V62ZM386.028 62H387.028V35.6H386.028H385.028V62H386.028ZM386.028 35.6V34.6H380.778V35.6V36.6H386.028V35.6Z" fill="black" mask="url(#path-5-inside-2_44_193)"/>
</svg>
