<svg width="558" height="90" viewBox="0 0 558 90" fill="none" xmlns="http://www.w3.org/2000/svg">
<rect x="0.5" y="0.5" width="557" height="89" rx="0.5" fill="#A19B00" stroke="black"/>
<rect x="0.5" y="0.5" width="89" height="89" rx="0.5" fill="#869E00" stroke="black"/>
<mask id="path-3-inside-1_44_459" fill="white">
<path d="M49.273 31.25V59.46C49.273 65.62 46.3797 68.7 40.593 68.7H32.263C26.4763 68.7 23.583 65.62 23.583 59.46V31.25C23.583 25.09 26.4763 22.01 32.263 22.01H40.593C46.3797 22.01 49.273 25.09 49.273 31.25ZM39.753 60.58V30.06C39.753 29.6867 39.613 29.36 39.333 29.08C39.0997 28.8 38.7963 28.66 38.423 28.66H34.433C34.0597 28.66 33.733 28.8 33.453 29.08C33.2197 29.36 33.103 29.6867 33.103 30.06V60.58C33.103 60.9533 33.2197 61.28 33.453 61.56C33.733 61.84 34.0597 61.98 34.433 61.98H38.423C38.7963 61.98 39.0997 61.84 39.333 61.56C39.613 61.28 39.753 60.9533 39.753 60.58ZM65.6618 22.78V68.07H56.1418V22.78H65.6618Z"/>
</mask>
<path d="M49.273 31.25V59.46C49.273 65.62 46.3797 68.7 40.593 68.7H32.263C26.4763 68.7 23.583 65.62 23.583 59.46V31.25C23.583 25.09 26.4763 22.01 32.263 22.01H40.593C46.3797 22.01 49.273 25.09 49.273 31.25ZM39.753 60.58V30.06C39.753 29.6867 39.613 29.36 39.333 29.08C39.0997 28.8 38.7963 28.66 38.423 28.66H34.433C34.0597 28.66 33.733 28.8 33.453 29.08C33.2197 29.36 33.103 29.6867 33.103 30.06V60.58C33.103 60.9533 33.2197 61.28 33.453 61.56C33.733 61.84 34.0597 61.98 34.433 61.98H38.423C38.7963 61.98 39.0997 61.84 39.333 61.56C39.613 61.28 39.753 60.9533 39.753 60.58ZM65.6618 22.78V68.07H56.1418V22.78H65.6618Z" fill="white"/>
<path d="M39.333 29.08L38.5648 29.7202L38.5938 29.755L38.6259 29.7871L39.333 29.08ZM33.453 29.08L32.7459 28.3729L32.7138 28.405L32.6848 28.4398L33.453 29.08ZM33.453 61.56L32.6848 62.2002L32.7138 62.235L32.7459 62.2671L33.453 61.56ZM39.333 61.56L38.6259 60.8529L38.5938 60.885L38.5648 60.9198L39.333 61.56ZM49.273 31.25H48.273V59.46H49.273H50.273V31.25H49.273ZM49.273 59.46H48.273C48.273 62.4009 47.5811 64.4205 46.3742 65.7053C45.1782 66.9784 43.3157 67.7 40.593 67.7V68.7V69.7C43.657 69.7 46.1345 68.8816 47.8319 67.0747C49.5182 65.2795 50.273 62.6791 50.273 59.46H49.273ZM40.593 68.7V67.7H32.263V68.7V69.7H40.593V68.7ZM32.263 68.7V67.7C29.5404 67.7 27.6778 66.9784 26.4819 65.7053C25.2749 64.4205 24.583 62.4009 24.583 59.46H23.583H22.583C22.583 62.6791 23.3378 65.2795 25.0242 67.0747C26.7216 68.8816 29.199 69.7 32.263 69.7V68.7ZM23.583 59.46H24.583V31.25H23.583H22.583V59.46H23.583ZM23.583 31.25H24.583C24.583 28.3091 25.2749 26.2895 26.4819 25.0047C27.6778 23.7316 29.5404 23.01 32.263 23.01V22.01V21.01C29.199 21.01 26.7216 21.8284 25.0242 23.6353C23.3378 25.4305 22.583 28.0309 22.583 31.25H23.583ZM32.263 22.01V23.01H40.593V22.01V21.01H32.263V22.01ZM40.593 22.01V23.01C43.3157 23.01 45.1782 23.7316 46.3742 25.0047C47.5811 26.2895 48.273 28.3091 48.273 31.25H49.273H50.273C50.273 28.0309 49.5182 25.4305 47.8319 23.6353C46.1345 21.8284 43.657 21.01 40.593 21.01V22.01ZM39.753 60.58H40.753V30.06H39.753H38.753V60.58H39.753ZM39.753 30.06H40.753C40.753 29.4041 40.495 28.8278 40.0401 28.3729L39.333 29.08L38.6259 29.7871C38.731 29.8922 38.753 29.9692 38.753 30.06H39.753ZM39.333 29.08L40.1012 28.4398C39.6726 27.9255 39.0848 27.66 38.423 27.66V28.66V29.66C38.4821 29.66 38.5059 29.6704 38.5115 29.673C38.5164 29.6752 38.5344 29.6837 38.5648 29.7202L39.333 29.08ZM38.423 28.66V27.66H34.433V28.66V29.66H38.423V28.66ZM34.433 28.66V27.66C33.7771 27.66 33.2008 27.918 32.7459 28.3729L33.453 29.08L34.1601 29.7871C34.2652 29.682 34.3422 29.66 34.433 29.66V28.66ZM33.453 29.08L32.6848 28.4398C32.2978 28.9042 32.103 29.4589 32.103 30.06H33.103H34.103C34.103 29.9144 34.1416 29.8158 34.2212 29.7202L33.453 29.08ZM33.103 30.06H32.103V60.58H33.103H34.103V30.06H33.103ZM33.103 60.58H32.103C32.103 61.1811 32.2978 61.7358 32.6848 62.2002L33.453 61.56L34.2212 60.9198C34.1416 60.8242 34.103 60.7256 34.103 60.58H33.103ZM33.453 61.56L32.7459 62.2671C33.2008 62.722 33.7771 62.98 34.433 62.98V61.98V60.98C34.3422 60.98 34.2652 60.958 34.1601 60.8529L33.453 61.56ZM34.433 61.98V62.98H38.423V61.98V60.98H34.433V61.98ZM38.423 61.98V62.98C39.0848 62.98 39.6726 62.7145 40.1012 62.2002L39.333 61.56L38.5648 60.9198C38.5344 60.9563 38.5164 60.9648 38.5114 60.967C38.5058 60.9696 38.4821 60.98 38.423 60.98V61.98ZM39.333 61.56L40.0401 62.2671C40.495 61.8122 40.753 61.2359 40.753 60.58H39.753H38.753C38.753 60.6708 38.731 60.7478 38.6259 60.8529L39.333 61.56ZM65.6618 22.78H66.6618V21.78H65.6618V22.78ZM65.6618 68.07V69.07H66.6618V68.07H65.6618ZM56.1418 68.07H55.1418V69.07H56.1418V68.07ZM56.1418 22.78V21.78H55.1418V22.78H56.1418ZM65.6618 22.78H64.6618V68.07H65.6618H66.6618V22.78H65.6618ZM65.6618 68.07V67.07H56.1418V68.07V69.07H65.6618V68.07ZM56.1418 68.07H57.1418V22.78H56.1418H55.1418V68.07H56.1418ZM56.1418 22.78V23.78H65.6618V22.78V21.78H56.1418V22.78Z" fill="black" mask="url(#path-3-inside-1_44_459)"/>
<mask id="path-5-inside-2_44_459" fill="white">
<path d="M262.528 48.75V62H255.528V29.65H267.978C272.112 29.65 274.178 31.85 274.178 36.25V40C274.178 42.6667 273.228 44.3667 271.328 45.1C272.995 45.7 273.828 47.0667 273.828 49.2V62H266.828V49.75C266.828 49.0833 266.512 48.75 265.878 48.75H262.528ZM262.528 34.4V43.85H266.228C266.495 43.85 266.712 43.75 266.878 43.55C267.078 43.35 267.178 43.1167 267.178 42.85V35.4C267.178 35.1333 267.078 34.9 266.878 34.7C266.712 34.5 266.495 34.4 266.228 34.4H262.528ZM285.673 56.2H293.423V62H278.673V29.65H293.423V35.35H285.673V42.95H292.923V48.45H285.673V56.2ZM315.422 38.15H308.772V35.6C308.772 35.3333 308.672 35.1 308.472 34.9C308.305 34.7 308.088 34.6 307.822 34.6H305.072C304.805 34.6 304.572 34.7 304.372 34.9C304.205 35.1 304.122 35.3333 304.122 35.6V41.35C304.122 41.6167 304.205 41.85 304.372 42.05C304.572 42.25 304.805 42.35 305.072 42.35H309.572C313.705 42.4167 315.772 44.6167 315.772 48.95V55.9C315.772 60.3 313.705 62.5 309.572 62.5H303.672C299.538 62.5 297.472 60.3 297.472 55.9V52.55H304.122V56.15C304.122 56.4167 304.205 56.65 304.372 56.85C304.572 57.05 304.805 57.15 305.072 57.15H308.172C308.438 57.15 308.655 57.05 308.822 56.85C309.022 56.65 309.122 56.4167 309.122 56.15V49.8C309.122 49.5333 309.022 49.3 308.822 49.1C308.655 48.9 308.438 48.8 308.172 48.8H303.672C299.538 48.8 297.472 46.6 297.472 42.2V35.75C297.472 31.35 299.538 29.15 303.672 29.15H309.222C313.355 29.15 315.422 31.35 315.422 35.75V38.15ZM331.922 29.65H338.922V55.9C338.922 60.3 336.855 62.5 332.722 62.5H326.522C322.389 62.5 320.322 60.3 320.322 55.9V29.65H327.322V56.5C327.322 56.7667 327.405 57 327.572 57.2C327.772 57.4 328.005 57.5 328.272 57.5H330.972C331.239 57.5 331.455 57.4 331.622 57.2C331.822 57 331.922 56.7667 331.922 56.5V29.65ZM350.662 62H343.662V35.75C343.662 31.35 345.729 29.15 349.862 29.15H353.562C355.995 29.15 357.729 29.95 358.762 31.55C359.729 29.95 361.462 29.15 363.962 29.15H367.662C371.795 29.15 373.862 31.35 373.862 35.75V62H366.862V35.15C366.862 34.8833 366.762 34.65 366.562 34.45C366.395 34.25 366.179 34.15 365.912 34.15H363.212C362.945 34.15 362.712 34.25 362.512 34.45C362.345 34.65 362.262 34.8833 362.262 35.15V62H355.262V35.15C355.262 34.8833 355.162 34.65 354.962 34.45C354.795 34.25 354.579 34.15 354.312 34.15H351.612C351.345 34.15 351.112 34.25 350.912 34.45C350.745 34.65 350.662 34.8833 350.662 35.15V62ZM385.673 56.2H393.423V62H378.673V29.65H393.423V35.35H385.673V42.95H392.923V48.45H385.673V56.2Z"/>
</mask>
<path d="M262.528 48.75V62H255.528V29.65H267.978C272.112 29.65 274.178 31.85 274.178 36.25V40C274.178 42.6667 273.228 44.3667 271.328 45.1C272.995 45.7 273.828 47.0667 273.828 49.2V62H266.828V49.75C266.828 49.0833 266.512 48.75 265.878 48.75H262.528ZM262.528 34.4V43.85H266.228C266.495 43.85 266.712 43.75 266.878 43.55C267.078 43.35 267.178 43.1167 267.178 42.85V35.4C267.178 35.1333 267.078 34.9 266.878 34.7C266.712 34.5 266.495 34.4 266.228 34.4H262.528ZM285.673 56.2H293.423V62H278.673V29.65H293.423V35.35H285.673V42.95H292.923V48.45H285.673V56.2ZM315.422 38.15H308.772V35.6C308.772 35.3333 308.672 35.1 308.472 34.9C308.305 34.7 308.088 34.6 307.822 34.6H305.072C304.805 34.6 304.572 34.7 304.372 34.9C304.205 35.1 304.122 35.3333 304.122 35.6V41.35C304.122 41.6167 304.205 41.85 304.372 42.05C304.572 42.25 304.805 42.35 305.072 42.35H309.572C313.705 42.4167 315.772 44.6167 315.772 48.95V55.9C315.772 60.3 313.705 62.5 309.572 62.5H303.672C299.538 62.5 297.472 60.3 297.472 55.9V52.55H304.122V56.15C304.122 56.4167 304.205 56.65 304.372 56.85C304.572 57.05 304.805 57.15 305.072 57.15H308.172C308.438 57.15 308.655 57.05 308.822 56.85C309.022 56.65 309.122 56.4167 309.122 56.15V49.8C309.122 49.5333 309.022 49.3 308.822 49.1C308.655 48.9 308.438 48.8 308.172 48.8H303.672C299.538 48.8 297.472 46.6 297.472 42.2V35.75C297.472 31.35 299.538 29.15 303.672 29.15H309.222C313.355 29.15 315.422 31.35 315.422 35.75V38.15ZM331.922 29.65H338.922V55.9C338.922 60.3 336.855 62.5 332.722 62.5H326.522C322.389 62.5 320.322 60.3 320.322 55.9V29.65H327.322V56.5C327.322 56.7667 327.405 57 327.572 57.2C327.772 57.4 328.005 57.5 328.272 57.5H330.972C331.239 57.5 331.455 57.4 331.622 57.2C331.822 57 331.922 56.7667 331.922 56.5V29.65ZM350.662 62H343.662V35.75C343.662 31.35 345.729 29.15 349.862 29.15H353.562C355.995 29.15 357.729 29.95 358.762 31.55C359.729 29.95 361.462 29.15 363.962 29.15H367.662C371.795 29.15 373.862 31.35 373.862 35.75V62H366.862V35.15C366.862 34.8833 366.762 34.65 366.562 34.45C366.395 34.25 366.179 34.15 365.912 34.15H363.212C362.945 34.15 362.712 34.25 362.512 34.45C362.345 34.65 362.262 34.8833 362.262 35.15V62H355.262V35.15C355.262 34.8833 355.162 34.65 354.962 34.45C354.795 34.25 354.579 34.15 354.312 34.15H351.612C351.345 34.15 351.112 34.25 350.912 34.45C350.745 34.65 350.662 34.8833 350.662 35.15V62ZM385.673 56.2H393.423V62H378.673V29.65H393.423V35.35H385.673V42.95H392.923V48.45H385.673V56.2Z" fill="black"/>
<path d="M262.528 48.75V47.75H261.528V48.75H262.528ZM262.528 62V63H263.528V62H262.528ZM255.528 62H254.528V63H255.528V62ZM255.528 29.65V28.65H254.528V29.65H255.528ZM271.328 45.1L270.968 44.1671L268.467 45.1326L270.99 46.0409L271.328 45.1ZM273.828 62V63H274.828V62H273.828ZM266.828 62H265.828V63H266.828V62ZM262.528 34.4V33.4H261.528V34.4H262.528ZM262.528 43.85H261.528V44.85H262.528V43.85ZM266.878 43.55L266.171 42.8429L266.139 42.875L266.11 42.9098L266.878 43.55ZM266.878 34.7L266.11 35.3402L266.139 35.375L266.171 35.4071L266.878 34.7ZM262.528 48.75H261.528V62H262.528H263.528V48.75H262.528ZM262.528 62V61H255.528V62V63H262.528V62ZM255.528 62H256.528V29.65H255.528H254.528V62H255.528ZM255.528 29.65V30.65H267.978V29.65V28.65H255.528V29.65ZM267.978 29.65V30.65C269.874 30.65 271.117 31.1516 271.899 31.9847C272.693 32.8295 273.178 34.1891 273.178 36.25H274.178H275.178C275.178 33.9109 274.63 31.9705 273.357 30.6153C272.073 29.2484 270.216 28.65 267.978 28.65V29.65ZM274.178 36.25H273.178V40H274.178H275.178V36.25H274.178ZM274.178 40H273.178C273.178 41.2228 272.959 42.1313 272.593 42.7872C272.237 43.4236 271.711 43.8802 270.968 44.1671L271.328 45.1L271.688 46.0329C272.845 45.5864 273.744 44.8264 274.339 43.7628C274.922 42.7187 275.178 41.4439 275.178 40H274.178ZM271.328 45.1L270.99 46.0409C271.633 46.2724 272.064 46.628 272.35 47.0956C272.644 47.5782 272.828 48.2576 272.828 49.2H273.828H274.828C274.828 48.009 274.596 46.9385 274.057 46.0544C273.509 45.1553 272.691 44.5276 271.667 44.1591L271.328 45.1ZM273.828 49.2H272.828V62H273.828H274.828V49.2H273.828ZM273.828 62V61H266.828V62V63H273.828V62ZM266.828 62H267.828V49.75H266.828H265.828V62H266.828ZM266.828 49.75H267.828C267.828 49.275 267.716 48.7329 267.316 48.3112C266.906 47.88 266.363 47.75 265.878 47.75V48.75V49.75C265.914 49.75 265.938 49.7524 265.952 49.7545C265.966 49.7566 265.969 49.7582 265.963 49.7561C265.956 49.7538 265.942 49.748 265.923 49.7361C265.904 49.724 265.884 49.7081 265.866 49.6888C265.848 49.6695 265.834 49.6508 265.826 49.6358C265.818 49.6212 265.815 49.6129 265.816 49.6144C265.816 49.6161 265.819 49.6272 265.823 49.6501C265.826 49.6731 265.828 49.7059 265.828 49.75H266.828ZM265.878 48.75V47.75H262.528V48.75V49.75H265.878V48.75ZM262.528 34.4H261.528V43.85H262.528H263.528V34.4H262.528ZM262.528 43.85V44.85H266.228V43.85V42.85H262.528V43.85ZM266.228 43.85V44.85C266.783 44.85 267.285 44.6245 267.647 44.1902L266.878 43.55L266.11 42.9098C266.113 42.9063 266.133 42.8848 266.172 42.867C266.21 42.8496 266.234 42.85 266.228 42.85V43.85ZM266.878 43.55L267.585 44.2571C267.96 43.8822 268.178 43.3992 268.178 42.85H267.178H266.178C266.178 42.8538 266.178 42.8526 266.179 42.8476C266.18 42.8425 266.182 42.8367 266.184 42.8311C266.187 42.8256 266.188 42.8233 266.187 42.8245C266.186 42.8259 266.182 42.8322 266.171 42.8429L266.878 43.55ZM267.178 42.85H268.178V35.4H267.178H266.178V42.85H267.178ZM267.178 35.4H268.178C268.178 34.8508 267.96 34.3678 267.585 33.9929L266.878 34.7L266.171 35.4071C266.182 35.4178 266.186 35.4241 266.187 35.4255C266.188 35.4267 266.187 35.4244 266.184 35.4189C266.182 35.4133 266.18 35.4075 266.179 35.4024C266.178 35.3974 266.178 35.3962 266.178 35.4H267.178ZM266.878 34.7L267.647 34.0598C267.285 33.6255 266.783 33.4 266.228 33.4V34.4V35.4C266.234 35.4 266.209 35.4004 266.172 35.383C266.133 35.3652 266.113 35.3437 266.11 35.3402L266.878 34.7ZM266.228 34.4V33.4H262.528V34.4V35.4H266.228V34.4ZM285.673 56.2H284.673V57.2H285.673V56.2ZM293.423 56.2H294.423V55.2H293.423V56.2ZM293.423 62V63H294.423V62H293.423ZM278.673 62H277.673V63H278.673V62ZM278.673 29.65V28.65H277.673V29.65H278.673ZM293.423 29.65H294.423V28.65H293.423V29.65ZM293.423 35.35V36.35H294.423V35.35H293.423ZM285.673 35.35V34.35H284.673V35.35H285.673ZM285.673 42.95H284.673V43.95H285.673V42.95ZM292.923 42.95H293.923V41.95H292.923V42.95ZM292.923 48.45V49.45H293.923V48.45H292.923ZM285.673 48.45V47.45H284.673V48.45H285.673ZM285.673 56.2V57.2H293.423V56.2V55.2H285.673V56.2ZM293.423 56.2H292.423V62H293.423H294.423V56.2H293.423ZM293.423 62V61H278.673V62V63H293.423V62ZM278.673 62H279.673V29.65H278.673H277.673V62H278.673ZM278.673 29.65V30.65H293.423V29.65V28.65H278.673V29.65ZM293.423 29.65H292.423V35.35H293.423H294.423V29.65H293.423ZM293.423 35.35V34.35H285.673V35.35V36.35H293.423V35.35ZM285.673 35.35H284.673V42.95H285.673H286.673V35.35H285.673ZM285.673 42.95V43.95H292.923V42.95V41.95H285.673V42.95ZM292.923 42.95H291.923V48.45H292.923H293.923V42.95H292.923ZM292.923 48.45V47.45H285.673V48.45V49.45H292.923V48.45ZM285.673 48.45H284.673V56.2H285.673H286.673V48.45H285.673ZM315.422 38.15V39.15H316.422V38.15H315.422ZM308.772 38.15H307.772V39.15H308.772V38.15ZM308.472 34.9L307.703 35.5402L307.732 35.575L307.765 35.6071L308.472 34.9ZM304.372 34.9L303.665 34.1929L303.632 34.225L303.603 34.2598L304.372 34.9ZM304.372 42.05L303.603 42.6902L303.632 42.725L303.665 42.7571L304.372 42.05ZM309.572 42.35L309.588 41.3501L309.58 41.35H309.572V42.35ZM297.472 52.55V51.55H296.472V52.55H297.472ZM304.122 52.55H305.122V51.55H304.122V52.55ZM304.372 56.85L303.603 57.4902L303.632 57.525L303.665 57.5571L304.372 56.85ZM308.822 56.85L308.115 56.1429L308.083 56.175L308.053 56.2098L308.822 56.85ZM308.822 49.1L308.053 49.7402L308.083 49.775L308.115 49.8071L308.822 49.1ZM315.422 38.15V37.15H308.772V38.15V39.15H315.422V38.15ZM308.772 38.15H309.772V35.6H308.772H307.772V38.15H308.772ZM308.772 35.6H309.772C309.772 35.0508 309.554 34.5678 309.179 34.1929L308.472 34.9L307.765 35.6071C307.775 35.6178 307.78 35.6241 307.781 35.6255C307.782 35.6267 307.78 35.6244 307.778 35.6189C307.775 35.6133 307.773 35.6075 307.772 35.6024C307.771 35.5974 307.772 35.5962 307.772 35.6H308.772ZM308.472 34.9L309.24 34.2598C308.878 33.8255 308.377 33.6 307.822 33.6V34.6V35.6C307.827 35.6 307.803 35.6004 307.765 35.583C307.727 35.5652 307.706 35.5437 307.703 35.5402L308.472 34.9ZM307.822 34.6V33.6H305.072V34.6V35.6H307.822V34.6ZM305.072 34.6V33.6C304.522 33.6 304.039 33.818 303.665 34.1929L304.372 34.9L305.079 35.6071C305.089 35.5965 305.096 35.5919 305.097 35.5909C305.098 35.5901 305.096 35.5918 305.091 35.5941C305.085 35.5965 305.079 35.5983 305.074 35.5993C305.069 35.6003 305.068 35.6 305.072 35.6V34.6ZM304.372 34.9L303.603 34.2598C303.283 34.6442 303.122 35.1056 303.122 35.6H304.122H305.122C305.122 35.5725 305.126 35.5621 305.126 35.5613C305.126 35.5602 305.127 35.5586 305.128 35.556C305.13 35.5533 305.133 35.548 305.14 35.5402L304.372 34.9ZM304.122 35.6H303.122V41.35H304.122H305.122V35.6H304.122ZM304.122 41.35H303.122C303.122 41.8444 303.283 42.3058 303.603 42.6902L304.372 42.05L305.14 41.4098C305.133 41.402 305.13 41.3967 305.128 41.394C305.127 41.3914 305.126 41.3898 305.126 41.3887C305.126 41.3879 305.122 41.3775 305.122 41.35H304.122ZM304.372 42.05L303.665 42.7571C304.039 43.132 304.522 43.35 305.072 43.35V42.35V41.35C305.068 41.35 305.069 41.3497 305.074 41.3507C305.079 41.3517 305.085 41.3535 305.091 41.3559C305.096 41.3582 305.098 41.3599 305.097 41.3591C305.096 41.3581 305.089 41.3535 305.079 41.3429L304.372 42.05ZM305.072 42.35V43.35H309.572V42.35V41.35H305.072V42.35ZM309.572 42.35L309.556 43.3499C311.455 43.3805 312.705 43.8959 313.493 44.7347C314.289 45.582 314.772 46.9274 314.772 48.95H315.772H316.772C316.772 46.6393 316.221 44.718 314.951 43.3653C313.672 42.0041 311.822 41.3862 309.588 41.3501L309.572 42.35ZM315.772 48.95H314.772V55.9H315.772H316.772V48.95H315.772ZM315.772 55.9H314.772C314.772 57.9609 314.286 59.3205 313.493 60.1653C312.71 60.9984 311.468 61.5 309.572 61.5V62.5V63.5C311.809 63.5 313.666 62.9016 314.951 61.5347C316.224 60.1795 316.772 58.2391 316.772 55.9H315.772ZM309.572 62.5V61.5H303.672V62.5V63.5H309.572V62.5ZM303.672 62.5V61.5C301.776 61.5 300.533 60.9984 299.751 60.1653C298.957 59.3205 298.472 57.9609 298.472 55.9H297.472H296.472C296.472 58.2391 297.02 60.1795 298.293 61.5347C299.577 62.9016 301.434 63.5 303.672 63.5V62.5ZM297.472 55.9H298.472V52.55H297.472H296.472V55.9H297.472ZM297.472 52.55V53.55H304.122V52.55V51.55H297.472V52.55ZM304.122 52.55H303.122V56.15H304.122H305.122V52.55H304.122ZM304.122 56.15H303.122C303.122 56.6444 303.283 57.1058 303.603 57.4902L304.372 56.85L305.14 56.2098C305.133 56.202 305.13 56.1967 305.128 56.194C305.127 56.1914 305.126 56.1898 305.126 56.1887C305.126 56.1879 305.122 56.1775 305.122 56.15H304.122ZM304.372 56.85L303.665 57.5571C304.039 57.932 304.522 58.15 305.072 58.15V57.15V56.15C305.068 56.15 305.069 56.1497 305.074 56.1507C305.079 56.1517 305.085 56.1535 305.091 56.1559C305.096 56.1582 305.098 56.1599 305.097 56.1591C305.096 56.1581 305.089 56.1535 305.079 56.1429L304.372 56.85ZM305.072 57.15V58.15H308.172V57.15V56.15H305.072V57.15ZM308.172 57.15V58.15C308.727 58.15 309.228 57.9245 309.59 57.4902L308.822 56.85L308.053 56.2098C308.056 56.2063 308.077 56.1848 308.115 56.167C308.153 56.1496 308.177 56.15 308.172 56.15V57.15ZM308.822 56.85L309.529 57.5571C309.904 57.1822 310.122 56.6992 310.122 56.15H309.122H308.122C308.122 56.1538 308.121 56.1526 308.122 56.1476C308.123 56.1425 308.125 56.1367 308.128 56.1311C308.13 56.1256 308.132 56.1233 308.131 56.1245C308.13 56.1259 308.125 56.1322 308.115 56.1429L308.822 56.85ZM309.122 56.15H310.122V49.8H309.122H308.122V56.15H309.122ZM309.122 49.8H310.122C310.122 49.2508 309.904 48.7678 309.529 48.3929L308.822 49.1L308.115 49.8071C308.125 49.8178 308.13 49.8241 308.131 49.8255C308.132 49.8267 308.13 49.8244 308.128 49.8189C308.125 49.8133 308.123 49.8075 308.122 49.8024C308.121 49.7974 308.122 49.7962 308.122 49.8H309.122ZM308.822 49.1L309.59 48.4598C309.228 48.0255 308.727 47.8 308.172 47.8V48.8V49.8C308.177 49.8 308.153 49.8004 308.115 49.783C308.077 49.7652 308.056 49.7437 308.053 49.7402L308.822 49.1ZM308.172 48.8V47.8H303.672V48.8V49.8H308.172V48.8ZM303.672 48.8V47.8C301.776 47.8 300.533 47.2984 299.751 46.4653C298.957 45.6205 298.472 44.2609 298.472 42.2H297.472H296.472C296.472 44.5391 297.02 46.4795 298.293 47.8347C299.577 49.2016 301.434 49.8 303.672 49.8V48.8ZM297.472 42.2H298.472V35.75H297.472H296.472V42.2H297.472ZM297.472 35.75H298.472C298.472 33.6891 298.957 32.3295 299.751 31.4847C300.533 30.6516 301.776 30.15 303.672 30.15V29.15V28.15C301.434 28.15 299.577 28.7484 298.293 30.1153C297.02 31.4705 296.472 33.4109 296.472 35.75H297.472ZM303.672 29.15V30.15H309.222V29.15V28.15H303.672V29.15ZM309.222 29.15V30.15C311.118 30.15 312.36 30.6516 313.143 31.4847C313.936 32.3295 314.422 33.6891 314.422 35.75H315.422H316.422C316.422 33.4109 315.874 31.4705 314.601 30.1153C313.316 28.7484 311.459 28.15 309.222 28.15V29.15ZM315.422 35.75H314.422V38.15H315.422H316.422V35.75H315.422ZM331.922 29.65V28.65H330.922V29.65H331.922ZM338.922 29.65H339.922V28.65H338.922V29.65ZM320.322 29.65V28.65H319.322V29.65H320.322ZM327.322 29.65H328.322V28.65H327.322V29.65ZM327.572 57.2L326.804 57.8402L326.833 57.875L326.865 57.9071L327.572 57.2ZM331.622 57.2L330.915 56.4929L330.883 56.525L330.854 56.5598L331.622 57.2ZM331.922 29.65V30.65H338.922V29.65V28.65H331.922V29.65ZM338.922 29.65H337.922V55.9H338.922H339.922V29.65H338.922ZM338.922 55.9H337.922C337.922 57.9609 337.437 59.3205 336.643 60.1653C335.861 60.9984 334.618 61.5 332.722 61.5V62.5V63.5C334.959 63.5 336.817 62.9016 338.101 61.5347C339.374 60.1795 339.922 58.2391 339.922 55.9H338.922ZM332.722 62.5V61.5H326.522V62.5V63.5H332.722V62.5ZM326.522 62.5V61.5C324.626 61.5 323.384 60.9984 322.601 60.1653C321.807 59.3205 321.322 57.9609 321.322 55.9H320.322H319.322C319.322 58.2391 319.87 60.1795 321.143 61.5347C322.427 62.9016 324.285 63.5 326.522 63.5V62.5ZM320.322 55.9H321.322V29.65H320.322H319.322V55.9H320.322ZM320.322 29.65V30.65H327.322V29.65V28.65H320.322V29.65ZM327.322 29.65H326.322V56.5H327.322H328.322V29.65H327.322ZM327.322 56.5H326.322C326.322 56.9944 326.484 57.4558 326.804 57.8402L327.572 57.2L328.34 56.5598C328.334 56.552 328.33 56.5467 328.329 56.544C328.327 56.5414 328.327 56.5398 328.326 56.5387C328.326 56.5379 328.322 56.5275 328.322 56.5H327.322ZM327.572 57.2L326.865 57.9071C327.24 58.282 327.723 58.5 328.272 58.5V57.5V56.5C328.268 56.5 328.269 56.4997 328.274 56.5007C328.28 56.5017 328.285 56.5035 328.291 56.5059C328.296 56.5082 328.299 56.5099 328.298 56.5091C328.296 56.5081 328.29 56.5035 328.279 56.4929L327.572 57.2ZM328.272 57.5V58.5H330.972V57.5V56.5H328.272V57.5ZM330.972 57.5V58.5C331.527 58.5 332.028 58.2745 332.39 57.8402L331.622 57.2L330.854 56.5598C330.857 56.5563 330.877 56.5348 330.916 56.517C330.953 56.4996 330.978 56.5 330.972 56.5V57.5ZM331.622 57.2L332.329 57.9071C332.704 57.5322 332.922 57.0492 332.922 56.5H331.922H330.922C330.922 56.5038 330.922 56.5026 330.923 56.4976C330.924 56.4925 330.926 56.4867 330.928 56.4811C330.93 56.4756 330.932 56.4733 330.931 56.4745C330.93 56.4759 330.926 56.4822 330.915 56.4929L331.622 57.2ZM331.922 56.5H332.922V29.65H331.922H330.922V56.5H331.922ZM350.662 62V63H351.662V62H350.662ZM343.662 62H342.662V63H343.662V62ZM358.762 31.55L357.922 32.0925L358.79 33.437L359.618 32.0671L358.762 31.55ZM373.862 62V63H374.862V62H373.862ZM366.862 62H365.862V63H366.862V62ZM366.562 34.45L365.794 35.0902L365.823 35.125L365.855 35.1571L366.562 34.45ZM362.512 34.45L361.805 33.7429L361.773 33.775L361.744 33.8098L362.512 34.45ZM362.262 62V63H363.262V62H362.262ZM355.262 62H354.262V63H355.262V62ZM354.962 34.45L354.194 35.0902L354.223 35.125L354.255 35.1571L354.962 34.45ZM350.912 34.45L350.205 33.7429L350.173 33.775L350.144 33.8098L350.912 34.45ZM350.662 62V61H343.662V62V63H350.662V62ZM343.662 62H344.662V35.75H343.662H342.662V62H343.662ZM343.662 35.75H344.662C344.662 33.6891 345.147 32.3295 345.941 31.4847C346.723 30.6516 347.966 30.15 349.862 30.15V29.15V28.15C347.625 28.15 345.767 28.7484 344.483 30.1153C343.21 31.4705 342.662 33.4109 342.662 35.75H343.662ZM349.862 29.15V30.15H353.562V29.15V28.15H349.862V29.15ZM353.562 29.15V30.15C355.762 30.15 357.124 30.857 357.922 32.0925L358.762 31.55L359.602 31.0075C358.333 29.0429 356.228 28.15 353.562 28.15V29.15ZM358.762 31.55L359.618 32.0671C360.344 30.8655 361.679 30.15 363.962 30.15V29.15V28.15C361.245 28.15 359.113 29.0345 357.906 31.0329L358.762 31.55ZM363.962 29.15V30.15H367.662V29.15V28.15H363.962V29.15ZM367.662 29.15V30.15C369.558 30.15 370.8 30.6516 371.583 31.4847C372.377 32.3295 372.862 33.6891 372.862 35.75H373.862H374.862C374.862 33.4109 374.314 31.4705 373.041 30.1153C371.757 28.7484 369.899 28.15 367.662 28.15V29.15ZM373.862 35.75H372.862V62H373.862H374.862V35.75H373.862ZM373.862 62V61H366.862V62V63H373.862V62ZM366.862 62H367.862V35.15H366.862H365.862V62H366.862ZM366.862 35.15H367.862C367.862 34.6008 367.644 34.1178 367.269 33.7429L366.562 34.45L365.855 35.1571C365.865 35.1678 365.87 35.1741 365.871 35.1755C365.872 35.1767 365.87 35.1744 365.868 35.1689C365.865 35.1633 365.864 35.1575 365.863 35.1524C365.862 35.1474 365.862 35.1462 365.862 35.15H366.862ZM366.562 34.45L367.33 33.8098C366.968 33.3755 366.467 33.15 365.912 33.15V34.15V35.15C365.918 35.15 365.893 35.1504 365.855 35.133C365.817 35.1152 365.797 35.0937 365.794 35.0902L366.562 34.45ZM365.912 34.15V33.15H363.212V34.15V35.15H365.912V34.15ZM363.212 34.15V33.15C362.663 33.15 362.18 33.368 361.805 33.7429L362.512 34.45L363.219 35.1571C363.23 35.1465 363.236 35.1419 363.237 35.1409C363.239 35.1401 363.236 35.1418 363.231 35.1441C363.225 35.1465 363.219 35.1483 363.214 35.1493C363.209 35.1503 363.208 35.15 363.212 35.15V34.15ZM362.512 34.45L361.744 33.8098C361.423 34.1942 361.262 34.6556 361.262 35.15H362.262H363.262C363.262 35.1225 363.266 35.1121 363.266 35.1113C363.267 35.1102 363.267 35.1086 363.269 35.106C363.27 35.1033 363.274 35.098 363.28 35.0902L362.512 34.45ZM362.262 35.15H361.262V62H362.262H363.262V35.15H362.262ZM362.262 62V61H355.262V62V63H362.262V62ZM355.262 62H356.262V35.15H355.262H354.262V62H355.262ZM355.262 35.15H356.262C356.262 34.6008 356.044 34.1178 355.669 33.7429L354.962 34.45L354.255 35.1571C354.265 35.1678 354.27 35.1741 354.271 35.1755C354.272 35.1767 354.27 35.1744 354.268 35.1689C354.265 35.1633 354.264 35.1575 354.263 35.1524C354.262 35.1474 354.262 35.1462 354.262 35.15H355.262ZM354.962 34.45L355.73 33.8098C355.368 33.3755 354.867 33.15 354.312 33.15V34.15V35.15C354.318 35.15 354.293 35.1504 354.255 35.133C354.217 35.1152 354.197 35.0937 354.194 35.0902L354.962 34.45ZM354.312 34.15V33.15H351.612V34.15V35.15H354.312V34.15ZM351.612 34.15V33.15C351.063 33.15 350.58 33.368 350.205 33.7429L350.912 34.45L351.619 35.1571C351.63 35.1465 351.636 35.1419 351.637 35.1409C351.639 35.1401 351.636 35.1418 351.631 35.1441C351.625 35.1465 351.619 35.1483 351.614 35.1493C351.609 35.1503 351.608 35.15 351.612 35.15V34.15ZM350.912 34.45L350.144 33.8098C349.823 34.1942 349.662 34.6556 349.662 35.15H350.662H351.662C351.662 35.1225 351.666 35.1121 351.666 35.1113C351.667 35.1102 351.667 35.1086 351.669 35.106C351.67 35.1033 351.674 35.098 351.68 35.0902L350.912 34.45ZM350.662 35.15H349.662V62H350.662H351.662V35.15H350.662ZM385.673 56.2H384.673V57.2H385.673V56.2ZM393.423 56.2H394.423V55.2H393.423V56.2ZM393.423 62V63H394.423V62H393.423ZM378.673 62H377.673V63H378.673V62ZM378.673 29.65V28.65H377.673V29.65H378.673ZM393.423 29.65H394.423V28.65H393.423V29.65ZM393.423 35.35V36.35H394.423V35.35H393.423ZM385.673 35.35V34.35H384.673V35.35H385.673ZM385.673 42.95H384.673V43.95H385.673V42.95ZM392.923 42.95H393.923V41.95H392.923V42.95ZM392.923 48.45V49.45H393.923V48.45H392.923ZM385.673 48.45V47.45H384.673V48.45H385.673ZM385.673 56.2V57.2H393.423V56.2V55.2H385.673V56.2ZM393.423 56.2H392.423V62H393.423H394.423V56.2H393.423ZM393.423 62V61H378.673V62V63H393.423V62ZM378.673 62H379.673V29.65H378.673H377.673V62H378.673ZM378.673 29.65V30.65H393.423V29.65V28.65H378.673V29.65ZM393.423 29.65H392.423V35.35H393.423H394.423V29.65H393.423ZM393.423 35.35V34.35H385.673V35.35V36.35H393.423V35.35ZM385.673 35.35H384.673V42.95H385.673H386.673V35.35H385.673ZM385.673 42.95V43.95H392.923V42.95V41.95H385.673V42.95ZM392.923 42.95H391.923V48.45H392.923H393.923V42.95H392.923ZM392.923 48.45V47.45H385.673V48.45V49.45H392.923V48.45ZM385.673 48.45H384.673V56.2H385.673H386.673V48.45H385.673Z" fill="black" mask="url(#path-5-inside-2_44_459)"/>
</svg>
