<svg width="558" height="90" viewBox="0 0 558 90" fill="none" xmlns="http://www.w3.org/2000/svg">
<rect width="558" height="90" rx="1" fill="#D9D9D9"/>
<rect width="90" height="90" rx="1" fill="#838383"/>
<path d="M49.273 31.25V59.46C49.273 65.62 46.3797 68.7 40.593 68.7H32.263C26.4763 68.7 23.583 65.62 23.583 59.46V31.25C23.583 25.09 26.4763 22.01 32.263 22.01H40.593C46.3797 22.01 49.273 25.09 49.273 31.25ZM39.753 60.58V30.06C39.753 29.6867 39.613 29.36 39.333 29.08C39.0997 28.8 38.7963 28.66 38.423 28.66H34.433C34.0597 28.66 33.733 28.8 33.453 29.08C33.2197 29.36 33.103 29.6867 33.103 30.06V60.58C33.103 60.9533 33.2197 61.28 33.453 61.56C33.733 61.84 34.0597 61.98 34.433 61.98H38.423C38.7963 61.98 39.0997 61.84 39.333 61.56C39.613 61.28 39.753 60.9533 39.753 60.58ZM65.6618 22.78V68.07H56.1418V22.78H65.6618Z" fill="white"/>
<path d="M262.528 48.75V62H255.528V29.65H267.978C272.112 29.65 274.178 31.85 274.178 36.25V40C274.178 42.6667 273.228 44.3667 271.328 45.1C272.995 45.7 273.828 47.0667 273.828 49.2V62H266.828V49.75C266.828 49.0833 266.512 48.75 265.878 48.75H262.528ZM262.528 34.4V43.85H266.228C266.495 43.85 266.712 43.75 266.878 43.55C267.078 43.35 267.178 43.1167 267.178 42.85V35.4C267.178 35.1333 267.078 34.9 266.878 34.7C266.712 34.5 266.495 34.4 266.228 34.4H262.528ZM285.673 56.2H293.423V62H278.673V29.65H293.423V35.35H285.673V42.95H292.923V48.45H285.673V56.2ZM315.422 38.15H308.772V35.6C308.772 35.3333 308.672 35.1 308.472 34.9C308.305 34.7 308.088 34.6 307.822 34.6H305.072C304.805 34.6 304.572 34.7 304.372 34.9C304.205 35.1 304.122 35.3333 304.122 35.6V41.35C304.122 41.6167 304.205 41.85 304.372 42.05C304.572 42.25 304.805 42.35 305.072 42.35H309.572C313.705 42.4167 315.772 44.6167 315.772 48.95V55.9C315.772 60.3 313.705 62.5 309.572 62.5H303.672C299.538 62.5 297.472 60.3 297.472 55.9V52.55H304.122V56.15C304.122 56.4167 304.205 56.65 304.372 56.85C304.572 57.05 304.805 57.15 305.072 57.15H308.172C308.438 57.15 308.655 57.05 308.822 56.85C309.022 56.65 309.122 56.4167 309.122 56.15V49.8C309.122 49.5333 309.022 49.3 308.822 49.1C308.655 48.9 308.438 48.8 308.172 48.8H303.672C299.538 48.8 297.472 46.6 297.472 42.2V35.75C297.472 31.35 299.538 29.15 303.672 29.15H309.222C313.355 29.15 315.422 31.35 315.422 35.75V38.15ZM331.922 29.65H338.922V55.9C338.922 60.3 336.855 62.5 332.722 62.5H326.522C322.389 62.5 320.322 60.3 320.322 55.9V29.65H327.322V56.5C327.322 56.7667 327.405 57 327.572 57.2C327.772 57.4 328.005 57.5 328.272 57.5H330.972C331.239 57.5 331.455 57.4 331.622 57.2C331.822 57 331.922 56.7667 331.922 56.5V29.65ZM350.662 62H343.662V35.75C343.662 31.35 345.729 29.15 349.862 29.15H353.562C355.995 29.15 357.729 29.95 358.762 31.55C359.729 29.95 361.462 29.15 363.962 29.15H367.662C371.795 29.15 373.862 31.35 373.862 35.75V62H366.862V35.15C366.862 34.8833 366.762 34.65 366.562 34.45C366.395 34.25 366.179 34.15 365.912 34.15H363.212C362.945 34.15 362.712 34.25 362.512 34.45C362.345 34.65 362.262 34.8833 362.262 35.15V62H355.262V35.15C355.262 34.8833 355.162 34.65 354.962 34.45C354.795 34.25 354.579 34.15 354.312 34.15H351.612C351.345 34.15 351.112 34.25 350.912 34.45C350.745 34.65 350.662 34.8833 350.662 35.15V62ZM385.673 56.2H393.423V62H378.673V29.65H393.423V35.35H385.673V42.95H392.923V48.45H385.673V56.2Z" fill="black"/>
</svg>
