<svg width="558" height="90" viewBox="0 0 558 90" fill="none" xmlns="http://www.w3.org/2000/svg">
<rect width="558" height="90" rx="1" fill="#D9D9D9"/>
<rect width="90" height="90" rx="1" fill="#838383"/>
<path d="M42.1295 31.25V59.46C42.1295 65.62 39.2361 68.7 33.4495 68.7H25.1195C19.3328 68.7 16.4395 65.62 16.4395 59.46V31.25C16.4395 25.09 19.3328 22.01 25.1195 22.01H33.4495C39.2361 22.01 42.1295 25.09 42.1295 31.25ZM32.6095 60.58V30.06C32.6095 29.6867 32.4695 29.36 32.1895 29.08C31.9561 28.8 31.6528 28.66 31.2795 28.66H27.2895C26.9161 28.66 26.5895 28.8 26.3095 29.08C26.0761 29.36 25.9595 29.6867 25.9595 30.06V60.58C25.9595 60.9533 26.0761 61.28 26.3095 61.56C26.5895 61.84 26.9161 61.98 27.2895 61.98H31.2795C31.6528 61.98 31.9561 61.84 32.1895 61.56C32.4695 61.28 32.6095 60.9533 32.6095 60.58ZM56.7682 30.2V38.25C56.7682 38.6233 56.8849 38.95 57.1182 39.23C57.3982 39.51 57.7249 39.65 58.0982 39.65H64.7482C70.5349 39.65 73.4282 42.73 73.4282 48.89V59.46C73.4282 65.62 70.5349 68.7 64.7482 68.7H56.9782C51.1915 68.7 48.2982 65.62 48.2982 59.46V56.1H57.6082V59.67C57.6082 60.0433 57.7249 60.37 57.9582 60.65C58.2382 60.93 58.5649 61.07 58.9382 61.07H63.0682C63.4415 61.07 63.7449 60.93 63.9782 60.65C64.2582 60.37 64.3982 60.0433 64.3982 59.67V49.66C64.3982 49.2867 64.2582 48.96 63.9782 48.68C63.7449 48.4 63.4415 48.26 63.0682 48.26H56.4882C50.7015 48.26 47.8082 45.18 47.8082 39.02V22.71H71.6082V30.2H56.7682Z" fill="white"/>
<path d="M134.037 48.75V62H127.037V29.65H139.487C143.62 29.65 145.687 31.85 145.687 36.25V40C145.687 42.6667 144.737 44.3667 142.837 45.1C144.504 45.7 145.337 47.0667 145.337 49.2V62H138.337V49.75C138.337 49.0833 138.02 48.75 137.387 48.75H134.037ZM134.037 34.4V43.85H137.737C138.004 43.85 138.22 43.75 138.387 43.55C138.587 43.35 138.687 43.1167 138.687 42.85V35.4C138.687 35.1333 138.587 34.9 138.387 34.7C138.22 34.5 138.004 34.4 137.737 34.4H134.037ZM157.182 56.2H164.932V62H150.182V29.65H164.932V35.35H157.182V42.95H164.432V48.45H157.182V56.2ZM167.13 35.6V29.65H184.63V35.6H179.38V62H172.38V35.6H167.13ZM199.378 29.65H206.378V55.9C206.378 60.3 204.311 62.5 200.178 62.5H193.978C189.845 62.5 187.778 60.3 187.778 55.9V29.65H194.778V56.5C194.778 56.7667 194.861 57 195.028 57.2C195.228 57.4 195.461 57.5 195.728 57.5H198.428C198.695 57.5 198.911 57.4 199.078 57.2C199.278 57 199.378 56.7667 199.378 56.5V29.65ZM218.168 48.75V62H211.168V29.65H223.618C227.751 29.65 229.818 31.85 229.818 36.25V40C229.818 42.6667 228.868 44.3667 226.968 45.1C228.635 45.7 229.468 47.0667 229.468 49.2V62H222.468V49.75C222.468 49.0833 222.151 48.75 221.518 48.75H218.168ZM218.168 34.4V43.85H221.868C222.135 43.85 222.351 43.75 222.518 43.55C222.718 43.35 222.818 43.1167 222.818 42.85V35.4C222.818 35.1333 222.718 34.9 222.518 34.7C222.351 34.5 222.135 34.4 221.868 34.4H218.168ZM252.863 62H245.863V35.15C245.863 34.8833 245.763 34.65 245.563 34.45C245.396 34.25 245.179 34.15 244.913 34.15H242.213C241.946 34.15 241.713 34.25 241.513 34.45C241.346 34.65 241.263 34.8833 241.263 35.15V62H234.263V35.75C234.263 31.35 236.329 29.15 240.463 29.15H246.663C250.796 29.15 252.863 31.35 252.863 35.75V62ZM265.812 35.6V29.65H283.312V35.6H278.062V62H271.062V35.6H265.812ZM305.56 35.75V55.9C305.56 60.3 303.493 62.5 299.36 62.5H292.71C288.576 62.5 286.51 60.3 286.51 55.9V35.75C286.51 31.35 288.576 29.15 292.71 29.15H299.36C303.493 29.15 305.56 31.35 305.56 35.75ZM298.56 56.7V34.9C298.56 34.6333 298.46 34.4 298.26 34.2C298.093 34 297.876 33.9 297.61 33.9H294.46C294.193 33.9 293.96 34 293.76 34.2C293.593 34.4 293.51 34.6333 293.51 34.9V56.7C293.51 56.9667 293.593 57.2 293.76 57.4C293.96 57.6 294.193 57.7 294.46 57.7H297.61C297.876 57.7 298.093 57.6 298.26 57.4C298.46 57.2 298.56 56.9667 298.56 56.7ZM327.786 62H320.786V35.75C320.786 31.35 322.853 29.15 326.986 29.15H330.686C333.119 29.15 334.853 29.95 335.886 31.55C336.853 29.95 338.586 29.15 341.086 29.15H344.786C348.919 29.15 350.986 31.35 350.986 35.75V62H343.986V35.15C343.986 34.8833 343.886 34.65 343.686 34.45C343.519 34.25 343.303 34.15 343.036 34.15H340.336C340.069 34.15 339.836 34.25 339.636 34.45C339.469 34.65 339.386 34.8833 339.386 35.15V62H332.386V35.15C332.386 34.8833 332.286 34.65 332.086 34.45C331.919 34.25 331.703 34.15 331.436 34.15H328.736C328.469 34.15 328.236 34.25 328.036 34.45C327.869 34.65 327.786 34.8833 327.786 35.15V62ZM368.647 29.15C372.78 29.15 374.847 31.35 374.847 35.75V62H367.847V51.15H362.797V62H355.797V35.75C355.797 31.35 357.864 29.15 361.997 29.15H368.647ZM362.797 45.75H367.847V34.9C367.847 34.6333 367.747 34.4 367.547 34.2C367.38 34 367.164 33.9 366.897 33.9H363.747C363.48 33.9 363.247 34 363.047 34.2C362.88 34.4 362.797 34.6333 362.797 34.9V45.75ZM387.064 29.65V62H380.064V29.65H387.064ZM410.821 62H403.821V35.15C403.821 34.8833 403.721 34.65 403.521 34.45C403.355 34.25 403.138 34.15 402.871 34.15H400.171C399.905 34.15 399.671 34.25 399.471 34.45C399.305 34.65 399.221 34.8833 399.221 35.15V62H392.221V35.75C392.221 31.35 394.288 29.15 398.421 29.15H404.621C408.755 29.15 410.821 31.35 410.821 35.75V62ZM432.571 62H425.571V35.75C425.571 31.35 427.638 29.15 431.771 29.15H435.471C437.904 29.15 439.638 29.95 440.671 31.55C441.638 29.95 443.371 29.15 445.871 29.15H449.571C453.704 29.15 455.771 31.35 455.771 35.75V62H448.771V35.15C448.771 34.8833 448.671 34.65 448.471 34.45C448.304 34.25 448.088 34.15 447.821 34.15H445.121C444.854 34.15 444.621 34.25 444.421 34.45C444.254 34.65 444.171 34.8833 444.171 35.15V62H437.171V35.15C437.171 34.8833 437.071 34.65 436.871 34.45C436.704 34.25 436.488 34.15 436.221 34.15H433.521C433.254 34.15 433.021 34.25 432.821 34.45C432.654 34.65 432.571 34.8833 432.571 35.15V62ZM467.582 56.2H475.332V62H460.582V29.65H475.332V35.35H467.582V42.95H474.832V48.45H467.582V56.2ZM497.931 62H490.931V35.15C490.931 34.8833 490.831 34.65 490.631 34.45C490.464 34.25 490.248 34.15 489.981 34.15H487.281C487.014 34.15 486.781 34.25 486.581 34.45C486.414 34.65 486.331 34.8833 486.331 35.15V62H479.331V35.75C479.331 31.35 481.398 29.15 485.531 29.15H491.731C495.864 29.15 497.931 31.35 497.931 35.75V62ZM514.173 29.65H521.173V55.9C521.173 60.3 519.106 62.5 514.973 62.5H508.773C504.64 62.5 502.573 60.3 502.573 55.9V29.65H509.573V56.5C509.573 56.7667 509.656 57 509.823 57.2C510.023 57.4 510.256 57.5 510.523 57.5H513.223C513.49 57.5 513.706 57.4 513.873 57.2C514.073 57 514.173 56.7667 514.173 56.5V29.65Z" fill="black"/>
</svg>
