<svg width="558" height="90" viewBox="0 0 558 90" fill="none" xmlns="http://www.w3.org/2000/svg">
<rect x="0.5" y="0.5" width="557" height="89" rx="0.5" fill="#FFF600" stroke="black"/>
<rect x="0.5" y="0.5" width="89" height="89" rx="0.5" fill="#C5E800" stroke="black"/>
<mask id="path-3-inside-1_44_205" fill="white">
<path d="M42.1295 31.25V59.46C42.1295 65.62 39.2361 68.7 33.4495 68.7H25.1195C19.3328 68.7 16.4395 65.62 16.4395 59.46V31.25C16.4395 25.09 19.3328 22.01 25.1195 22.01H33.4495C39.2361 22.01 42.1295 25.09 42.1295 31.25ZM32.6095 60.58V30.06C32.6095 29.6867 32.4695 29.36 32.1895 29.08C31.9561 28.8 31.6528 28.66 31.2795 28.66H27.2895C26.9161 28.66 26.5895 28.8 26.3095 29.08C26.0761 29.36 25.9595 29.6867 25.9595 30.06V60.58C25.9595 60.9533 26.0761 61.28 26.3095 61.56C26.5895 61.84 26.9161 61.98 27.2895 61.98H31.2795C31.6528 61.98 31.9561 61.84 32.1895 61.56C32.4695 61.28 32.6095 60.9533 32.6095 60.58ZM56.7682 30.2V38.25C56.7682 38.6233 56.8849 38.95 57.1182 39.23C57.3982 39.51 57.7249 39.65 58.0982 39.65H64.7482C70.5349 39.65 73.4282 42.73 73.4282 48.89V59.46C73.4282 65.62 70.5349 68.7 64.7482 68.7H56.9782C51.1915 68.7 48.2982 65.62 48.2982 59.46V56.1H57.6082V59.67C57.6082 60.0433 57.7249 60.37 57.9582 60.65C58.2382 60.93 58.5649 61.07 58.9382 61.07H63.0682C63.4415 61.07 63.7449 60.93 63.9782 60.65C64.2582 60.37 64.3982 60.0433 64.3982 59.67V49.66C64.3982 49.2867 64.2582 48.96 63.9782 48.68C63.7449 48.4 63.4415 48.26 63.0682 48.26H56.4882C50.7015 48.26 47.8082 45.18 47.8082 39.02V22.71H71.6082V30.2H56.7682Z"/>
</mask>
<path d="M42.1295 31.25V59.46C42.1295 65.62 39.2361 68.7 33.4495 68.7H25.1195C19.3328 68.7 16.4395 65.62 16.4395 59.46V31.25C16.4395 25.09 19.3328 22.01 25.1195 22.01H33.4495C39.2361 22.01 42.1295 25.09 42.1295 31.25ZM32.6095 60.58V30.06C32.6095 29.6867 32.4695 29.36 32.1895 29.08C31.9561 28.8 31.6528 28.66 31.2795 28.66H27.2895C26.9161 28.66 26.5895 28.8 26.3095 29.08C26.0761 29.36 25.9595 29.6867 25.9595 30.06V60.58C25.9595 60.9533 26.0761 61.28 26.3095 61.56C26.5895 61.84 26.9161 61.98 27.2895 61.98H31.2795C31.6528 61.98 31.9561 61.84 32.1895 61.56C32.4695 61.28 32.6095 60.9533 32.6095 60.58ZM56.7682 30.2V38.25C56.7682 38.6233 56.8849 38.95 57.1182 39.23C57.3982 39.51 57.7249 39.65 58.0982 39.65H64.7482C70.5349 39.65 73.4282 42.73 73.4282 48.89V59.46C73.4282 65.62 70.5349 68.7 64.7482 68.7H56.9782C51.1915 68.7 48.2982 65.62 48.2982 59.46V56.1H57.6082V59.67C57.6082 60.0433 57.7249 60.37 57.9582 60.65C58.2382 60.93 58.5649 61.07 58.9382 61.07H63.0682C63.4415 61.07 63.7449 60.93 63.9782 60.65C64.2582 60.37 64.3982 60.0433 64.3982 59.67V49.66C64.3982 49.2867 64.2582 48.96 63.9782 48.68C63.7449 48.4 63.4415 48.26 63.0682 48.26H56.4882C50.7015 48.26 47.8082 45.18 47.8082 39.02V22.71H71.6082V30.2H56.7682Z" fill="white"/>
<path d="M32.1895 29.08L31.4212 29.7202L31.4503 29.755L31.4823 29.7871L32.1895 29.08ZM26.3095 29.08L25.6023 28.3729L25.5703 28.405L25.5412 28.4398L26.3095 29.08ZM26.3095 61.56L25.5412 62.2002L25.5703 62.235L25.6023 62.2671L26.3095 61.56ZM32.1895 61.56L31.4823 60.8529L31.4503 60.885L31.4212 60.9198L32.1895 61.56ZM42.1295 31.25H41.1295V59.46H42.1295H43.1295V31.25H42.1295ZM42.1295 59.46H41.1295C41.1295 62.4009 40.4376 64.4205 39.2306 65.7053C38.0347 66.9784 36.1721 67.7 33.4495 67.7V68.7V69.7C36.5135 69.7 38.9909 68.8816 40.6883 67.0747C42.3747 65.2795 43.1295 62.6791 43.1295 59.46H42.1295ZM33.4495 68.7V67.7H25.1195V68.7V69.7H33.4495V68.7ZM25.1195 68.7V67.7C22.3968 67.7 20.5342 66.9784 19.3383 65.7053C18.1313 64.4205 17.4395 62.4009 17.4395 59.46H16.4395H15.4395C15.4395 62.6791 16.1942 65.2795 17.8806 67.0747C19.578 68.8816 22.0554 69.7 25.1195 69.7V68.7ZM16.4395 59.46H17.4395V31.25H16.4395H15.4395V59.46H16.4395ZM16.4395 31.25H17.4395C17.4395 28.3091 18.1313 26.2895 19.3383 25.0047C20.5342 23.7316 22.3968 23.01 25.1195 23.01V22.01V21.01C22.0554 21.01 19.578 21.8284 17.8806 23.6353C16.1942 25.4305 15.4395 28.0309 15.4395 31.25H16.4395ZM25.1195 22.01V23.01H33.4495V22.01V21.01H25.1195V22.01ZM33.4495 22.01V23.01C36.1721 23.01 38.0347 23.7316 39.2306 25.0047C40.4376 26.2895 41.1295 28.3091 41.1295 31.25H42.1295H43.1295C43.1295 28.0309 42.3747 25.4305 40.6883 23.6353C38.9909 21.8284 36.5135 21.01 33.4495 21.01V22.01ZM32.6095 60.58H33.6095V30.06H32.6095H31.6095V60.58H32.6095ZM32.6095 30.06H33.6095C33.6095 29.4041 33.3515 28.8278 32.8966 28.3729L32.1895 29.08L31.4823 29.7871C31.5874 29.8922 31.6095 29.9692 31.6095 30.06H32.6095ZM32.1895 29.08L32.9577 28.4398C32.5291 27.9255 31.9412 27.66 31.2795 27.66V28.66V29.66C31.3385 29.66 31.3623 29.6704 31.3679 29.673C31.3728 29.6752 31.3909 29.6837 31.4212 29.7202L32.1895 29.08ZM31.2795 28.66V27.66H27.2895V28.66V29.66H31.2795V28.66ZM27.2895 28.66V27.66C26.6336 27.66 26.0573 27.918 25.6023 28.3729L26.3095 29.08L27.0166 29.7871C27.1216 29.682 27.1987 29.66 27.2895 29.66V28.66ZM26.3095 29.08L25.5412 28.4398C25.1542 28.9042 24.9595 29.4589 24.9595 30.06H25.9595H26.9595C26.9595 29.9144 26.998 29.8158 27.0777 29.7202L26.3095 29.08ZM25.9595 30.06H24.9595V60.58H25.9595H26.9595V30.06H25.9595ZM25.9595 60.58H24.9595C24.9595 61.1811 25.1542 61.7358 25.5412 62.2002L26.3095 61.56L27.0777 60.9198C26.998 60.8242 26.9595 60.7256 26.9595 60.58H25.9595ZM26.3095 61.56L25.6023 62.2671C26.0573 62.722 26.6336 62.98 27.2895 62.98V61.98V60.98C27.1987 60.98 27.1217 60.958 27.0166 60.8529L26.3095 61.56ZM27.2895 61.98V62.98H31.2795V61.98V60.98H27.2895V61.98ZM31.2795 61.98V62.98C31.9412 62.98 32.5291 62.7145 32.9577 62.2002L32.1895 61.56L31.4212 60.9198C31.3909 60.9563 31.3728 60.9648 31.3679 60.967C31.3623 60.9696 31.3385 60.98 31.2795 60.98V61.98ZM32.1895 61.56L32.8966 62.2671C33.3515 61.8122 33.6095 61.2359 33.6095 60.58H32.6095H31.6095C31.6095 60.6708 31.5874 60.7478 31.4823 60.8529L32.1895 61.56ZM56.7682 30.2V29.2H55.7682V30.2H56.7682ZM57.1182 39.23L56.35 39.8702L56.379 39.905L56.4111 39.9371L57.1182 39.23ZM48.2982 56.1V55.1H47.2982V56.1H48.2982ZM57.6082 56.1H58.6082V55.1H57.6082V56.1ZM57.9582 60.65L57.19 61.2902L57.219 61.325L57.2511 61.3571L57.9582 60.65ZM63.9782 60.65L63.2711 59.9429L63.239 59.975L63.21 60.0098L63.9782 60.65ZM63.9782 48.68L63.21 49.3202L63.239 49.355L63.2711 49.3871L63.9782 48.68ZM47.8082 22.71V21.71H46.8082V22.71H47.8082ZM71.6082 22.71H72.6082V21.71H71.6082V22.71ZM71.6082 30.2V31.2H72.6082V30.2H71.6082ZM56.7682 30.2H55.7682V38.25H56.7682H57.7682V30.2H56.7682ZM56.7682 38.25H55.7682C55.7682 38.8511 55.963 39.4058 56.35 39.8702L57.1182 39.23L57.8864 38.5898C57.8068 38.4942 57.7682 38.3956 57.7682 38.25H56.7682ZM57.1182 39.23L56.4111 39.9371C56.866 40.392 57.4423 40.65 58.0982 40.65V39.65V38.65C58.0074 38.65 57.9304 38.628 57.8253 38.5229L57.1182 39.23ZM58.0982 39.65V40.65H64.7482V39.65V38.65H58.0982V39.65ZM64.7482 39.65V40.65C67.4708 40.65 69.3334 41.3716 70.5294 42.6447C71.7363 43.9295 72.4282 45.9491 72.4282 48.89H73.4282H74.4282C74.4282 45.6709 73.6734 43.0705 71.9871 41.2753C70.2897 39.4684 67.8122 38.65 64.7482 38.65V39.65ZM73.4282 48.89H72.4282V59.46H73.4282H74.4282V48.89H73.4282ZM73.4282 59.46H72.4282C72.4282 62.4009 71.7363 64.4205 70.5294 65.7053C69.3334 66.9784 67.4708 67.7 64.7482 67.7V68.7V69.7C67.8122 69.7 70.2897 68.8816 71.9871 67.0747C73.6734 65.2795 74.4282 62.6791 74.4282 59.46H73.4282ZM64.7482 68.7V67.7H56.9782V68.7V69.7H64.7482V68.7ZM56.9782 68.7V67.7C54.2556 67.7 52.393 66.9784 51.1971 65.7053C49.9901 64.4205 49.2982 62.4009 49.2982 59.46H48.2982H47.2982C47.2982 62.6791 48.053 65.2795 49.7394 67.0747C51.4368 68.8816 53.9142 69.7 56.9782 69.7V68.7ZM48.2982 59.46H49.2982V56.1H48.2982H47.2982V59.46H48.2982ZM48.2982 56.1V57.1H57.6082V56.1V55.1H48.2982V56.1ZM57.6082 56.1H56.6082V59.67H57.6082H58.6082V56.1H57.6082ZM57.6082 59.67H56.6082C56.6082 60.2711 56.803 60.8258 57.19 61.2902L57.9582 60.65L58.7264 60.0098C58.6468 59.9142 58.6082 59.8156 58.6082 59.67H57.6082ZM57.9582 60.65L57.2511 61.3571C57.706 61.812 58.2823 62.07 58.9382 62.07V61.07V60.07C58.8474 60.07 58.7704 60.048 58.6653 59.9429L57.9582 60.65ZM58.9382 61.07V62.07H63.0682V61.07V60.07H58.9382V61.07ZM63.0682 61.07V62.07C63.73 62.07 64.3178 61.8045 64.7464 61.2902L63.9782 60.65L63.21 60.0098C63.1796 60.0463 63.1616 60.0548 63.1566 60.057C63.151 60.0596 63.1273 60.07 63.0682 60.07V61.07ZM63.9782 60.65L64.6853 61.3571C65.1402 60.9022 65.3982 60.3259 65.3982 59.67H64.3982H63.3982C63.3982 59.7608 63.3762 59.8378 63.2711 59.9429L63.9782 60.65ZM64.3982 59.67H65.3982V49.66H64.3982H63.3982V59.67H64.3982ZM64.3982 49.66H65.3982C65.3982 49.0041 65.1402 48.4278 64.6853 47.9729L63.9782 48.68L63.2711 49.3871C63.3762 49.4922 63.3982 49.5692 63.3982 49.66H64.3982ZM63.9782 48.68L64.7464 48.0398C64.3178 47.5255 63.73 47.26 63.0682 47.26V48.26V49.26C63.1273 49.26 63.151 49.2704 63.1566 49.273C63.1616 49.2752 63.1796 49.2837 63.21 49.3202L63.9782 48.68ZM63.0682 48.26V47.26H56.4882V48.26V49.26H63.0682V48.26ZM56.4882 48.26V47.26C53.7656 47.26 51.903 46.5384 50.7071 45.2653C49.5001 43.9805 48.8082 41.9609 48.8082 39.02H47.8082H46.8082C46.8082 42.2391 47.563 44.8395 49.2494 46.6347C50.9468 48.4416 53.4242 49.26 56.4882 49.26V48.26ZM47.8082 39.02H48.8082V22.71H47.8082H46.8082V39.02H47.8082ZM47.8082 22.71V23.71H71.6082V22.71V21.71H47.8082V22.71ZM71.6082 22.71H70.6082V30.2H71.6082H72.6082V22.71H71.6082ZM71.6082 30.2V29.2H56.7682V30.2V31.2H71.6082V30.2Z" fill="black" mask="url(#path-3-inside-1_44_205)"/>
<mask id="path-5-inside-2_44_205" fill="white">
<path d="M134.037 48.75V62H127.037V29.65H139.487C143.62 29.65 145.687 31.85 145.687 36.25V40C145.687 42.6667 144.737 44.3667 142.837 45.1C144.504 45.7 145.337 47.0667 145.337 49.2V62H138.337V49.75C138.337 49.0833 138.02 48.75 137.387 48.75H134.037ZM134.037 34.4V43.85H137.737C138.004 43.85 138.22 43.75 138.387 43.55C138.587 43.35 138.687 43.1167 138.687 42.85V35.4C138.687 35.1333 138.587 34.9 138.387 34.7C138.22 34.5 138.004 34.4 137.737 34.4H134.037ZM157.182 56.2H164.932V62H150.182V29.65H164.932V35.35H157.182V42.95H164.432V48.45H157.182V56.2ZM167.13 35.6V29.65H184.63V35.6H179.38V62H172.38V35.6H167.13ZM199.378 29.65H206.378V55.9C206.378 60.3 204.311 62.5 200.178 62.5H193.978C189.845 62.5 187.778 60.3 187.778 55.9V29.65H194.778V56.5C194.778 56.7667 194.861 57 195.028 57.2C195.228 57.4 195.461 57.5 195.728 57.5H198.428C198.695 57.5 198.911 57.4 199.078 57.2C199.278 57 199.378 56.7667 199.378 56.5V29.65ZM218.168 48.75V62H211.168V29.65H223.618C227.751 29.65 229.818 31.85 229.818 36.25V40C229.818 42.6667 228.868 44.3667 226.968 45.1C228.635 45.7 229.468 47.0667 229.468 49.2V62H222.468V49.75C222.468 49.0833 222.151 48.75 221.518 48.75H218.168ZM218.168 34.4V43.85H221.868C222.135 43.85 222.351 43.75 222.518 43.55C222.718 43.35 222.818 43.1167 222.818 42.85V35.4C222.818 35.1333 222.718 34.9 222.518 34.7C222.351 34.5 222.135 34.4 221.868 34.4H218.168ZM252.863 62H245.863V35.15C245.863 34.8833 245.763 34.65 245.563 34.45C245.396 34.25 245.179 34.15 244.913 34.15H242.213C241.946 34.15 241.713 34.25 241.513 34.45C241.346 34.65 241.263 34.8833 241.263 35.15V62H234.263V35.75C234.263 31.35 236.329 29.15 240.463 29.15H246.663C250.796 29.15 252.863 31.35 252.863 35.75V62ZM265.812 35.6V29.65H283.312V35.6H278.062V62H271.062V35.6H265.812ZM305.56 35.75V55.9C305.56 60.3 303.493 62.5 299.36 62.5H292.71C288.576 62.5 286.51 60.3 286.51 55.9V35.75C286.51 31.35 288.576 29.15 292.71 29.15H299.36C303.493 29.15 305.56 31.35 305.56 35.75ZM298.56 56.7V34.9C298.56 34.6333 298.46 34.4 298.26 34.2C298.093 34 297.876 33.9 297.61 33.9H294.46C294.193 33.9 293.96 34 293.76 34.2C293.593 34.4 293.51 34.6333 293.51 34.9V56.7C293.51 56.9667 293.593 57.2 293.76 57.4C293.96 57.6 294.193 57.7 294.46 57.7H297.61C297.876 57.7 298.093 57.6 298.26 57.4C298.46 57.2 298.56 56.9667 298.56 56.7ZM327.786 62H320.786V35.75C320.786 31.35 322.853 29.15 326.986 29.15H330.686C333.119 29.15 334.853 29.95 335.886 31.55C336.853 29.95 338.586 29.15 341.086 29.15H344.786C348.919 29.15 350.986 31.35 350.986 35.75V62H343.986V35.15C343.986 34.8833 343.886 34.65 343.686 34.45C343.519 34.25 343.303 34.15 343.036 34.15H340.336C340.069 34.15 339.836 34.25 339.636 34.45C339.469 34.65 339.386 34.8833 339.386 35.15V62H332.386V35.15C332.386 34.8833 332.286 34.65 332.086 34.45C331.919 34.25 331.703 34.15 331.436 34.15H328.736C328.469 34.15 328.236 34.25 328.036 34.45C327.869 34.65 327.786 34.8833 327.786 35.15V62ZM368.647 29.15C372.78 29.15 374.847 31.35 374.847 35.75V62H367.847V51.15H362.797V62H355.797V35.75C355.797 31.35 357.864 29.15 361.997 29.15H368.647ZM362.797 45.75H367.847V34.9C367.847 34.6333 367.747 34.4 367.547 34.2C367.38 34 367.164 33.9 366.897 33.9H363.747C363.48 33.9 363.247 34 363.047 34.2C362.88 34.4 362.797 34.6333 362.797 34.9V45.75ZM387.064 29.65V62H380.064V29.65H387.064ZM410.821 62H403.821V35.15C403.821 34.8833 403.721 34.65 403.521 34.45C403.355 34.25 403.138 34.15 402.871 34.15H400.171C399.905 34.15 399.671 34.25 399.471 34.45C399.305 34.65 399.221 34.8833 399.221 35.15V62H392.221V35.75C392.221 31.35 394.288 29.15 398.421 29.15H404.621C408.755 29.15 410.821 31.35 410.821 35.75V62ZM432.571 62H425.571V35.75C425.571 31.35 427.638 29.15 431.771 29.15H435.471C437.904 29.15 439.638 29.95 440.671 31.55C441.638 29.95 443.371 29.15 445.871 29.15H449.571C453.704 29.15 455.771 31.35 455.771 35.75V62H448.771V35.15C448.771 34.8833 448.671 34.65 448.471 34.45C448.304 34.25 448.088 34.15 447.821 34.15H445.121C444.854 34.15 444.621 34.25 444.421 34.45C444.254 34.65 444.171 34.8833 444.171 35.15V62H437.171V35.15C437.171 34.8833 437.071 34.65 436.871 34.45C436.704 34.25 436.488 34.15 436.221 34.15H433.521C433.254 34.15 433.021 34.25 432.821 34.45C432.654 34.65 432.571 34.8833 432.571 35.15V62ZM467.582 56.2H475.332V62H460.582V29.65H475.332V35.35H467.582V42.95H474.832V48.45H467.582V56.2ZM497.931 62H490.931V35.15C490.931 34.8833 490.831 34.65 490.631 34.45C490.464 34.25 490.248 34.15 489.981 34.15H487.281C487.014 34.15 486.781 34.25 486.581 34.45C486.414 34.65 486.331 34.8833 486.331 35.15V62H479.331V35.75C479.331 31.35 481.398 29.15 485.531 29.15H491.731C495.864 29.15 497.931 31.35 497.931 35.75V62ZM514.173 29.65H521.173V55.9C521.173 60.3 519.106 62.5 514.973 62.5H508.773C504.64 62.5 502.573 60.3 502.573 55.9V29.65H509.573V56.5C509.573 56.7667 509.656 57 509.823 57.2C510.023 57.4 510.256 57.5 510.523 57.5H513.223C513.49 57.5 513.706 57.4 513.873 57.2C514.073 57 514.173 56.7667 514.173 56.5V29.65Z"/>
</mask>
<path d="M134.037 48.75V62H127.037V29.65H139.487C143.62 29.65 145.687 31.85 145.687 36.25V40C145.687 42.6667 144.737 44.3667 142.837 45.1C144.504 45.7 145.337 47.0667 145.337 49.2V62H138.337V49.75C138.337 49.0833 138.02 48.75 137.387 48.75H134.037ZM134.037 34.4V43.85H137.737C138.004 43.85 138.22 43.75 138.387 43.55C138.587 43.35 138.687 43.1167 138.687 42.85V35.4C138.687 35.1333 138.587 34.9 138.387 34.7C138.22 34.5 138.004 34.4 137.737 34.4H134.037ZM157.182 56.2H164.932V62H150.182V29.65H164.932V35.35H157.182V42.95H164.432V48.45H157.182V56.2ZM167.13 35.6V29.65H184.63V35.6H179.38V62H172.38V35.6H167.13ZM199.378 29.65H206.378V55.9C206.378 60.3 204.311 62.5 200.178 62.5H193.978C189.845 62.5 187.778 60.3 187.778 55.9V29.65H194.778V56.5C194.778 56.7667 194.861 57 195.028 57.2C195.228 57.4 195.461 57.5 195.728 57.5H198.428C198.695 57.5 198.911 57.4 199.078 57.2C199.278 57 199.378 56.7667 199.378 56.5V29.65ZM218.168 48.75V62H211.168V29.65H223.618C227.751 29.65 229.818 31.85 229.818 36.25V40C229.818 42.6667 228.868 44.3667 226.968 45.1C228.635 45.7 229.468 47.0667 229.468 49.2V62H222.468V49.75C222.468 49.0833 222.151 48.75 221.518 48.75H218.168ZM218.168 34.4V43.85H221.868C222.135 43.85 222.351 43.75 222.518 43.55C222.718 43.35 222.818 43.1167 222.818 42.85V35.4C222.818 35.1333 222.718 34.9 222.518 34.7C222.351 34.5 222.135 34.4 221.868 34.4H218.168ZM252.863 62H245.863V35.15C245.863 34.8833 245.763 34.65 245.563 34.45C245.396 34.25 245.179 34.15 244.913 34.15H242.213C241.946 34.15 241.713 34.25 241.513 34.45C241.346 34.65 241.263 34.8833 241.263 35.15V62H234.263V35.75C234.263 31.35 236.329 29.15 240.463 29.15H246.663C250.796 29.15 252.863 31.35 252.863 35.75V62ZM265.812 35.6V29.65H283.312V35.6H278.062V62H271.062V35.6H265.812ZM305.56 35.75V55.9C305.56 60.3 303.493 62.5 299.36 62.5H292.71C288.576 62.5 286.51 60.3 286.51 55.9V35.75C286.51 31.35 288.576 29.15 292.71 29.15H299.36C303.493 29.15 305.56 31.35 305.56 35.75ZM298.56 56.7V34.9C298.56 34.6333 298.46 34.4 298.26 34.2C298.093 34 297.876 33.9 297.61 33.9H294.46C294.193 33.9 293.96 34 293.76 34.2C293.593 34.4 293.51 34.6333 293.51 34.9V56.7C293.51 56.9667 293.593 57.2 293.76 57.4C293.96 57.6 294.193 57.7 294.46 57.7H297.61C297.876 57.7 298.093 57.6 298.26 57.4C298.46 57.2 298.56 56.9667 298.56 56.7ZM327.786 62H320.786V35.75C320.786 31.35 322.853 29.15 326.986 29.15H330.686C333.119 29.15 334.853 29.95 335.886 31.55C336.853 29.95 338.586 29.15 341.086 29.15H344.786C348.919 29.15 350.986 31.35 350.986 35.75V62H343.986V35.15C343.986 34.8833 343.886 34.65 343.686 34.45C343.519 34.25 343.303 34.15 343.036 34.15H340.336C340.069 34.15 339.836 34.25 339.636 34.45C339.469 34.65 339.386 34.8833 339.386 35.15V62H332.386V35.15C332.386 34.8833 332.286 34.65 332.086 34.45C331.919 34.25 331.703 34.15 331.436 34.15H328.736C328.469 34.15 328.236 34.25 328.036 34.45C327.869 34.65 327.786 34.8833 327.786 35.15V62ZM368.647 29.15C372.78 29.15 374.847 31.35 374.847 35.75V62H367.847V51.15H362.797V62H355.797V35.75C355.797 31.35 357.864 29.15 361.997 29.15H368.647ZM362.797 45.75H367.847V34.9C367.847 34.6333 367.747 34.4 367.547 34.2C367.38 34 367.164 33.9 366.897 33.9H363.747C363.48 33.9 363.247 34 363.047 34.2C362.88 34.4 362.797 34.6333 362.797 34.9V45.75ZM387.064 29.65V62H380.064V29.65H387.064ZM410.821 62H403.821V35.15C403.821 34.8833 403.721 34.65 403.521 34.45C403.355 34.25 403.138 34.15 402.871 34.15H400.171C399.905 34.15 399.671 34.25 399.471 34.45C399.305 34.65 399.221 34.8833 399.221 35.15V62H392.221V35.75C392.221 31.35 394.288 29.15 398.421 29.15H404.621C408.755 29.15 410.821 31.35 410.821 35.75V62ZM432.571 62H425.571V35.75C425.571 31.35 427.638 29.15 431.771 29.15H435.471C437.904 29.15 439.638 29.95 440.671 31.55C441.638 29.95 443.371 29.15 445.871 29.15H449.571C453.704 29.15 455.771 31.35 455.771 35.75V62H448.771V35.15C448.771 34.8833 448.671 34.65 448.471 34.45C448.304 34.25 448.088 34.15 447.821 34.15H445.121C444.854 34.15 444.621 34.25 444.421 34.45C444.254 34.65 444.171 34.8833 444.171 35.15V62H437.171V35.15C437.171 34.8833 437.071 34.65 436.871 34.45C436.704 34.25 436.488 34.15 436.221 34.15H433.521C433.254 34.15 433.021 34.25 432.821 34.45C432.654 34.65 432.571 34.8833 432.571 35.15V62ZM467.582 56.2H475.332V62H460.582V29.65H475.332V35.35H467.582V42.95H474.832V48.45H467.582V56.2ZM497.931 62H490.931V35.15C490.931 34.8833 490.831 34.65 490.631 34.45C490.464 34.25 490.248 34.15 489.981 34.15H487.281C487.014 34.15 486.781 34.25 486.581 34.45C486.414 34.65 486.331 34.8833 486.331 35.15V62H479.331V35.75C479.331 31.35 481.398 29.15 485.531 29.15H491.731C495.864 29.15 497.931 31.35 497.931 35.75V62ZM514.173 29.65H521.173V55.9C521.173 60.3 519.106 62.5 514.973 62.5H508.773C504.64 62.5 502.573 60.3 502.573 55.9V29.65H509.573V56.5C509.573 56.7667 509.656 57 509.823 57.2C510.023 57.4 510.256 57.5 510.523 57.5H513.223C513.49 57.5 513.706 57.4 513.873 57.2C514.073 57 514.173 56.7667 514.173 56.5V29.65Z" fill="black"/>
<path d="M134.037 48.75V47.75H133.037V48.75H134.037ZM134.037 62V63H135.037V62H134.037ZM127.037 62H126.037V63H127.037V62ZM127.037 29.65V28.65H126.037V29.65H127.037ZM142.837 45.1L142.477 44.1671L139.975 45.1326L142.498 46.0409L142.837 45.1ZM145.337 62V63H146.337V62H145.337ZM138.337 62H137.337V63H138.337V62ZM134.037 34.4V33.4H133.037V34.4H134.037ZM134.037 43.85H133.037V44.85H134.037V43.85ZM138.387 43.55L137.68 42.8429L137.648 42.875L137.619 42.9098L138.387 43.55ZM138.387 34.7L137.619 35.3402L137.648 35.375L137.68 35.4071L138.387 34.7ZM134.037 48.75H133.037V62H134.037H135.037V48.75H134.037ZM134.037 62V61H127.037V62V63H134.037V62ZM127.037 62H128.037V29.65H127.037H126.037V62H127.037ZM127.037 29.65V30.65H139.487V29.65V28.65H127.037V29.65ZM139.487 29.65V30.65C141.383 30.65 142.626 31.1516 143.408 31.9847C144.202 32.8295 144.687 34.1891 144.687 36.25H145.687H146.687C146.687 33.9109 146.139 31.9705 144.866 30.6153C143.582 29.2484 141.724 28.65 139.487 28.65V29.65ZM145.687 36.25H144.687V40H145.687H146.687V36.25H145.687ZM145.687 40H144.687C144.687 41.2228 144.468 42.1313 144.102 42.7872C143.746 43.4236 143.22 43.8802 142.477 44.1671L142.837 45.1L143.197 46.0329C144.354 45.5864 145.253 44.8264 145.848 43.7628C146.431 42.7187 146.687 41.4439 146.687 40H145.687ZM142.837 45.1L142.498 46.0409C143.141 46.2724 143.573 46.628 143.858 47.0956C144.153 47.5782 144.337 48.2576 144.337 49.2H145.337H146.337C146.337 48.009 146.105 46.9385 145.566 46.0544C145.018 45.1553 144.199 44.5276 143.176 44.1591L142.837 45.1ZM145.337 49.2H144.337V62H145.337H146.337V49.2H145.337ZM145.337 62V61H138.337V62V63H145.337V62ZM138.337 62H139.337V49.75H138.337H137.337V62H138.337ZM138.337 49.75H139.337C139.337 49.275 139.225 48.7329 138.825 48.3112C138.415 47.88 137.871 47.75 137.387 47.75V48.75V49.75C137.423 49.75 137.447 49.7524 137.461 49.7545C137.475 49.7566 137.478 49.7582 137.472 49.7561C137.465 49.7538 137.451 49.748 137.432 49.7361C137.413 49.724 137.393 49.7081 137.375 49.6888C137.356 49.6695 137.343 49.6508 137.335 49.6358C137.326 49.6212 137.324 49.6129 137.324 49.6144C137.325 49.6161 137.328 49.6272 137.331 49.6501C137.334 49.6731 137.337 49.7059 137.337 49.75H138.337ZM137.387 48.75V47.75H134.037V48.75V49.75H137.387V48.75ZM134.037 34.4H133.037V43.85H134.037H135.037V34.4H134.037ZM134.037 43.85V44.85H137.737V43.85V42.85H134.037V43.85ZM137.737 43.85V44.85C138.292 44.85 138.793 44.6245 139.155 44.1902L138.387 43.55L137.619 42.9098C137.622 42.9063 137.642 42.8848 137.681 42.867C137.718 42.8496 137.743 42.85 137.737 42.85V43.85ZM138.387 43.55L139.094 44.2571C139.469 43.8822 139.687 43.3992 139.687 42.85H138.687H137.687C137.687 42.8538 137.687 42.8526 137.688 42.8476C137.689 42.8425 137.691 42.8367 137.693 42.8311C137.695 42.8256 137.697 42.8233 137.696 42.8245C137.695 42.8259 137.691 42.8322 137.68 42.8429L138.387 43.55ZM138.687 42.85H139.687V35.4H138.687H137.687V42.85H138.687ZM138.687 35.4H139.687C139.687 34.8508 139.469 34.3678 139.094 33.9929L138.387 34.7L137.68 35.4071C137.691 35.4178 137.695 35.4241 137.696 35.4255C137.697 35.4267 137.695 35.4244 137.693 35.4189C137.691 35.4133 137.689 35.4075 137.688 35.4024C137.687 35.3974 137.687 35.3962 137.687 35.4H138.687ZM138.387 34.7L139.155 34.0598C138.793 33.6255 138.292 33.4 137.737 33.4V34.4V35.4C137.743 35.4 137.718 35.4004 137.681 35.383C137.642 35.3652 137.622 35.3437 137.619 35.3402L138.387 34.7ZM137.737 34.4V33.4H134.037V34.4V35.4H137.737V34.4ZM157.182 56.2H156.182V57.2H157.182V56.2ZM164.932 56.2H165.932V55.2H164.932V56.2ZM164.932 62V63H165.932V62H164.932ZM150.182 62H149.182V63H150.182V62ZM150.182 29.65V28.65H149.182V29.65H150.182ZM164.932 29.65H165.932V28.65H164.932V29.65ZM164.932 35.35V36.35H165.932V35.35H164.932ZM157.182 35.35V34.35H156.182V35.35H157.182ZM157.182 42.95H156.182V43.95H157.182V42.95ZM164.432 42.95H165.432V41.95H164.432V42.95ZM164.432 48.45V49.45H165.432V48.45H164.432ZM157.182 48.45V47.45H156.182V48.45H157.182ZM157.182 56.2V57.2H164.932V56.2V55.2H157.182V56.2ZM164.932 56.2H163.932V62H164.932H165.932V56.2H164.932ZM164.932 62V61H150.182V62V63H164.932V62ZM150.182 62H151.182V29.65H150.182H149.182V62H150.182ZM150.182 29.65V30.65H164.932V29.65V28.65H150.182V29.65ZM164.932 29.65H163.932V35.35H164.932H165.932V29.65H164.932ZM164.932 35.35V34.35H157.182V35.35V36.35H164.932V35.35ZM157.182 35.35H156.182V42.95H157.182H158.182V35.35H157.182ZM157.182 42.95V43.95H164.432V42.95V41.95H157.182V42.95ZM164.432 42.95H163.432V48.45H164.432H165.432V42.95H164.432ZM164.432 48.45V47.45H157.182V48.45V49.45H164.432V48.45ZM157.182 48.45H156.182V56.2H157.182H158.182V48.45H157.182ZM167.13 35.6H166.13V36.6H167.13V35.6ZM167.13 29.65V28.65H166.13V29.65H167.13ZM184.63 29.65H185.63V28.65H184.63V29.65ZM184.63 35.6V36.6H185.63V35.6H184.63ZM179.38 35.6V34.6H178.38V35.6H179.38ZM179.38 62V63H180.38V62H179.38ZM172.38 62H171.38V63H172.38V62ZM172.38 35.6H173.38V34.6H172.38V35.6ZM167.13 35.6H168.13V29.65H167.13H166.13V35.6H167.13ZM167.13 29.65V30.65H184.63V29.65V28.65H167.13V29.65ZM184.63 29.65H183.63V35.6H184.63H185.63V29.65H184.63ZM184.63 35.6V34.6H179.38V35.6V36.6H184.63V35.6ZM179.38 35.6H178.38V62H179.38H180.38V35.6H179.38ZM179.38 62V61H172.38V62V63H179.38V62ZM172.38 62H173.38V35.6H172.38H171.38V62H172.38ZM172.38 35.6V34.6H167.13V35.6V36.6H172.38V35.6ZM199.378 29.65V28.65H198.378V29.65H199.378ZM206.378 29.65H207.378V28.65H206.378V29.65ZM187.778 29.65V28.65H186.778V29.65H187.778ZM194.778 29.65H195.778V28.65H194.778V29.65ZM195.028 57.2L194.26 57.8402L194.289 57.875L194.321 57.9071L195.028 57.2ZM199.078 57.2L198.371 56.4929L198.339 56.525L198.31 56.5598L199.078 57.2ZM199.378 29.65V30.65H206.378V29.65V28.65H199.378V29.65ZM206.378 29.65H205.378V55.9H206.378H207.378V29.65H206.378ZM206.378 55.9H205.378C205.378 57.9609 204.893 59.3205 204.099 60.1653C203.317 60.9984 202.074 61.5 200.178 61.5V62.5V63.5C202.415 63.5 204.273 62.9016 205.557 61.5347C206.83 60.1795 207.378 58.2391 207.378 55.9H206.378ZM200.178 62.5V61.5H193.978V62.5V63.5H200.178V62.5ZM193.978 62.5V61.5C192.082 61.5 190.84 60.9984 190.057 60.1653C189.263 59.3205 188.778 57.9609 188.778 55.9H187.778H186.778C186.778 58.2391 187.326 60.1795 188.599 61.5347C189.883 62.9016 191.741 63.5 193.978 63.5V62.5ZM187.778 55.9H188.778V29.65H187.778H186.778V55.9H187.778ZM187.778 29.65V30.65H194.778V29.65V28.65H187.778V29.65ZM194.778 29.65H193.778V56.5H194.778H195.778V29.65H194.778ZM194.778 56.5H193.778C193.778 56.9944 193.94 57.4558 194.26 57.8402L195.028 57.2L195.796 56.5598C195.79 56.552 195.786 56.5467 195.785 56.544C195.783 56.5414 195.783 56.5398 195.782 56.5387C195.782 56.5379 195.778 56.5275 195.778 56.5H194.778ZM195.028 57.2L194.321 57.9071C194.696 58.282 195.179 58.5 195.728 58.5V57.5V56.5C195.724 56.5 195.726 56.4997 195.73 56.5007C195.736 56.5017 195.741 56.5035 195.747 56.5059C195.753 56.5082 195.755 56.5099 195.754 56.5091C195.752 56.5081 195.746 56.5035 195.735 56.4929L195.028 57.2ZM195.728 57.5V58.5H198.428V57.5V56.5H195.728V57.5ZM198.428 57.5V58.5C198.983 58.5 199.484 58.2745 199.846 57.8402L199.078 57.2L198.31 56.5598C198.313 56.5563 198.333 56.5348 198.372 56.517C198.409 56.4996 198.434 56.5 198.428 56.5V57.5ZM199.078 57.2L199.785 57.9071C200.16 57.5322 200.378 57.0492 200.378 56.5H199.378H198.378C198.378 56.5038 198.378 56.5026 198.379 56.4976C198.38 56.4925 198.382 56.4867 198.384 56.4811C198.386 56.4756 198.388 56.4733 198.387 56.4745C198.386 56.4759 198.382 56.4822 198.371 56.4929L199.078 57.2ZM199.378 56.5H200.378V29.65H199.378H198.378V56.5H199.378ZM218.168 48.75V47.75H217.168V48.75H218.168ZM218.168 62V63H219.168V62H218.168ZM211.168 62H210.168V63H211.168V62ZM211.168 29.65V28.65H210.168V29.65H211.168ZM226.968 45.1L226.608 44.1671L224.106 45.1326L226.629 46.0409L226.968 45.1ZM229.468 62V63H230.468V62H229.468ZM222.468 62H221.468V63H222.468V62ZM218.168 34.4V33.4H217.168V34.4H218.168ZM218.168 43.85H217.168V44.85H218.168V43.85ZM222.518 43.55L221.811 42.8429L221.779 42.875L221.75 42.9098L222.518 43.55ZM222.518 34.7L221.75 35.3402L221.779 35.375L221.811 35.4071L222.518 34.7ZM218.168 48.75H217.168V62H218.168H219.168V48.75H218.168ZM218.168 62V61H211.168V62V63H218.168V62ZM211.168 62H212.168V29.65H211.168H210.168V62H211.168ZM211.168 29.65V30.65H223.618V29.65V28.65H211.168V29.65ZM223.618 29.65V30.65C225.514 30.65 226.757 31.1516 227.539 31.9847C228.333 32.8295 228.818 34.1891 228.818 36.25H229.818H230.818C230.818 33.9109 230.27 31.9705 228.997 30.6153C227.713 29.2484 225.855 28.65 223.618 28.65V29.65ZM229.818 36.25H228.818V40H229.818H230.818V36.25H229.818ZM229.818 40H228.818C228.818 41.2228 228.599 42.1313 228.233 42.7872C227.877 43.4236 227.351 43.8802 226.608 44.1671L226.968 45.1L227.328 46.0329C228.485 45.5864 229.384 44.8264 229.978 43.7628C230.562 42.7187 230.818 41.4439 230.818 40H229.818ZM226.968 45.1L226.629 46.0409C227.272 46.2724 227.704 46.628 227.989 47.0956C228.283 47.5782 228.468 48.2576 228.468 49.2H229.468H230.468C230.468 48.009 230.236 46.9385 229.697 46.0544C229.149 45.1553 228.33 44.5276 227.307 44.1591L226.968 45.1ZM229.468 49.2H228.468V62H229.468H230.468V49.2H229.468ZM229.468 62V61H222.468V62V63H229.468V62ZM222.468 62H223.468V49.75H222.468H221.468V62H222.468ZM222.468 49.75H223.468C223.468 49.275 223.356 48.7329 222.955 48.3112C222.546 47.88 222.002 47.75 221.518 47.75V48.75V49.75C221.554 49.75 221.578 49.7524 221.592 49.7545C221.606 49.7566 221.609 49.7582 221.603 49.7561C221.596 49.7538 221.582 49.748 221.563 49.7361C221.544 49.724 221.524 49.7081 221.505 49.6888C221.487 49.6695 221.474 49.6508 221.466 49.6358C221.457 49.6212 221.455 49.6129 221.455 49.6144C221.456 49.6161 221.459 49.6272 221.462 49.6501C221.465 49.6731 221.468 49.7059 221.468 49.75H222.468ZM221.518 48.75V47.75H218.168V48.75V49.75H221.518V48.75ZM218.168 34.4H217.168V43.85H218.168H219.168V34.4H218.168ZM218.168 43.85V44.85H221.868V43.85V42.85H218.168V43.85ZM221.868 43.85V44.85C222.423 44.85 222.924 44.6245 223.286 44.1902L222.518 43.55L221.75 42.9098C221.753 42.9063 221.773 42.8848 221.811 42.867C221.849 42.8496 221.874 42.85 221.868 42.85V43.85ZM222.518 43.55L223.225 44.2571C223.6 43.8822 223.818 43.3992 223.818 42.85H222.818H221.818C221.818 42.8538 221.818 42.8526 221.819 42.8476C221.82 42.8425 221.821 42.8367 221.824 42.8311C221.826 42.8256 221.828 42.8233 221.827 42.8245C221.826 42.8259 221.822 42.8322 221.811 42.8429L222.518 43.55ZM222.818 42.85H223.818V35.4H222.818H221.818V42.85H222.818ZM222.818 35.4H223.818C223.818 34.8508 223.6 34.3678 223.225 33.9929L222.518 34.7L221.811 35.4071C221.822 35.4178 221.826 35.4241 221.827 35.4255C221.828 35.4267 221.826 35.4244 221.824 35.4189C221.821 35.4133 221.82 35.4075 221.819 35.4024C221.818 35.3974 221.818 35.3962 221.818 35.4H222.818ZM222.518 34.7L223.286 34.0598C222.924 33.6255 222.423 33.4 221.868 33.4V34.4V35.4C221.874 35.4 221.849 35.4004 221.811 35.383C221.773 35.3652 221.753 35.3437 221.75 35.3402L222.518 34.7ZM221.868 34.4V33.4H218.168V34.4V35.4H221.868V34.4ZM252.863 62V63H253.863V62H252.863ZM245.863 62H244.863V63H245.863V62ZM245.562 34.45L244.794 35.0902L244.823 35.125L244.855 35.1571L245.562 34.45ZM241.512 34.45L240.805 33.7429L240.773 33.775L240.744 33.8098L241.512 34.45ZM241.262 62V63H242.262V62H241.262ZM234.262 62H233.262V63H234.262V62ZM252.863 62V61H245.863V62V63H252.863V62ZM245.863 62H246.863V35.15H245.863H244.863V62H245.863ZM245.863 35.15H246.863C246.863 34.6008 246.645 34.1178 246.27 33.7429L245.562 34.45L244.855 35.1571C244.866 35.1678 244.871 35.1741 244.872 35.1755C244.872 35.1767 244.871 35.1744 244.868 35.1689C244.866 35.1633 244.864 35.1575 244.863 35.1524C244.862 35.1474 244.863 35.1462 244.863 35.15H245.863ZM245.562 34.45L246.331 33.8098C245.969 33.3755 245.468 33.15 244.913 33.15V34.15V35.15C244.918 35.15 244.894 35.1504 244.856 35.133C244.818 35.1152 244.797 35.0937 244.794 35.0902L245.562 34.45ZM244.913 34.15V33.15H242.212V34.15V35.15H244.913V34.15ZM242.212 34.15V33.15C241.663 33.15 241.18 33.368 240.805 33.7429L241.512 34.45L242.22 35.1571C242.23 35.1465 242.237 35.1419 242.238 35.1409C242.239 35.1401 242.237 35.1418 242.231 35.1441C242.226 35.1465 242.22 35.1483 242.215 35.1493C242.21 35.1503 242.209 35.15 242.212 35.15V34.15ZM241.512 34.45L240.744 33.8098C240.424 34.1942 240.262 34.6556 240.262 35.15H241.262H242.262C242.262 35.1225 242.266 35.1121 242.267 35.1113C242.267 35.1102 242.268 35.1086 242.269 35.106C242.271 35.1033 242.274 35.098 242.281 35.0902L241.512 34.45ZM241.262 35.15H240.262V62H241.262H242.262V35.15H241.262ZM241.262 62V61H234.262V62V63H241.262V62ZM234.262 62H235.262V35.75H234.262H233.262V62H234.262ZM234.262 35.75H235.262C235.262 33.6891 235.748 32.3295 236.541 31.4847C237.324 30.6516 238.567 30.15 240.462 30.15V29.15V28.15C238.225 28.15 236.368 28.7484 235.084 30.1153C233.811 31.4705 233.262 33.4109 233.262 35.75H234.262ZM240.462 29.15V30.15H246.663V29.15V28.15H240.462V29.15ZM246.663 29.15V30.15C248.558 30.15 249.801 30.6516 250.584 31.4847C251.377 32.3295 251.863 33.6891 251.863 35.75H252.863H253.863C253.863 33.4109 253.314 31.4705 252.041 30.1153C250.757 28.7484 248.9 28.15 246.663 28.15V29.15ZM252.863 35.75H251.863V62H252.863H253.863V35.75H252.863ZM265.812 35.6H264.812V36.6H265.812V35.6ZM265.812 29.65V28.65H264.812V29.65H265.812ZM283.312 29.65H284.312V28.65H283.312V29.65ZM283.312 35.6V36.6H284.312V35.6H283.312ZM278.062 35.6V34.6H277.062V35.6H278.062ZM278.062 62V63H279.062V62H278.062ZM271.062 62H270.062V63H271.062V62ZM271.062 35.6H272.062V34.6H271.062V35.6ZM265.812 35.6H266.812V29.65H265.812H264.812V35.6H265.812ZM265.812 29.65V30.65H283.312V29.65V28.65H265.812V29.65ZM283.312 29.65H282.312V35.6H283.312H284.312V29.65H283.312ZM283.312 35.6V34.6H278.062V35.6V36.6H283.312V35.6ZM278.062 35.6H277.062V62H278.062H279.062V35.6H278.062ZM278.062 62V61H271.062V62V63H278.062V62ZM271.062 62H272.062V35.6H271.062H270.062V62H271.062ZM271.062 35.6V34.6H265.812V35.6V36.6H271.062V35.6ZM298.26 34.2L297.492 34.8402L297.521 34.875L297.553 34.9071L298.26 34.2ZM293.76 34.2L293.053 33.4929L293.021 33.525L292.992 33.5598L293.76 34.2ZM293.76 57.4L292.992 58.0402L293.021 58.075L293.053 58.1071L293.76 57.4ZM298.26 57.4L297.553 56.6929L297.521 56.725L297.492 56.7598L298.26 57.4ZM305.56 35.75H304.56V55.9H305.56H306.56V35.75H305.56ZM305.56 55.9H304.56C304.56 57.9609 304.075 59.3205 303.281 60.1653C302.498 60.9984 301.256 61.5 299.36 61.5V62.5V63.5C301.597 63.5 303.455 62.9016 304.739 61.5347C306.012 60.1795 306.56 58.2391 306.56 55.9H305.56ZM299.36 62.5V61.5H292.71V62.5V63.5H299.36V62.5ZM292.71 62.5V61.5C290.814 61.5 289.571 60.9984 288.789 60.1653C287.995 59.3205 287.51 57.9609 287.51 55.9H286.51H285.51C285.51 58.2391 286.058 60.1795 287.331 61.5347C288.615 62.9016 290.472 63.5 292.71 63.5V62.5ZM286.51 55.9H287.51V35.75H286.51H285.51V55.9H286.51ZM286.51 35.75H287.51C287.51 33.6891 287.995 32.3295 288.789 31.4847C289.571 30.6516 290.814 30.15 292.71 30.15V29.15V28.15C290.472 28.15 288.615 28.7484 287.331 30.1153C286.058 31.4705 285.51 33.4109 285.51 35.75H286.51ZM292.71 29.15V30.15H299.36V29.15V28.15H292.71V29.15ZM299.36 29.15V30.15C301.256 30.15 302.498 30.6516 303.281 31.4847C304.075 32.3295 304.56 33.6891 304.56 35.75H305.56H306.56C306.56 33.4109 306.012 31.4705 304.739 30.1153C303.455 28.7484 301.597 28.15 299.36 28.15V29.15ZM298.56 56.7H299.56V34.9H298.56H297.56V56.7H298.56ZM298.56 34.9H299.56C299.56 34.3508 299.342 33.8678 298.967 33.4929L298.26 34.2L297.553 34.9071C297.563 34.9178 297.568 34.9241 297.569 34.9255C297.57 34.9267 297.568 34.9244 297.566 34.9189C297.563 34.9133 297.561 34.9075 297.56 34.9024C297.559 34.8974 297.56 34.8962 297.56 34.9H298.56ZM298.26 34.2L299.028 33.5598C298.666 33.1255 298.165 32.9 297.61 32.9V33.9V34.9C297.615 34.9 297.591 34.9004 297.553 34.883C297.515 34.8652 297.495 34.8437 297.492 34.8402L298.26 34.2ZM297.61 33.9V32.9H294.46V33.9V34.9H297.61V33.9ZM294.46 33.9V32.9C293.911 32.9 293.428 33.118 293.053 33.4929L293.76 34.2L294.467 34.9071C294.478 34.8965 294.484 34.8919 294.485 34.8909C294.486 34.8901 294.484 34.8918 294.479 34.8941C294.473 34.8965 294.467 34.8983 294.462 34.8993C294.457 34.9003 294.456 34.9 294.46 34.9V33.9ZM293.76 34.2L292.992 33.5598C292.671 33.9442 292.51 34.4056 292.51 34.9H293.51H294.51C294.51 34.8725 294.514 34.8621 294.514 34.8613C294.514 34.8602 294.515 34.8586 294.517 34.856C294.518 34.8533 294.521 34.848 294.528 34.8402L293.76 34.2ZM293.51 34.9H292.51V56.7H293.51H294.51V34.9H293.51ZM293.51 56.7H292.51C292.51 57.1944 292.671 57.6558 292.992 58.0402L293.76 57.4L294.528 56.7598C294.521 56.752 294.518 56.7467 294.517 56.744C294.515 56.7414 294.514 56.7398 294.514 56.7387C294.514 56.7379 294.51 56.7275 294.51 56.7H293.51ZM293.76 57.4L293.053 58.1071C293.428 58.482 293.911 58.7 294.46 58.7V57.7V56.7C294.456 56.7 294.457 56.6997 294.462 56.7007C294.467 56.7017 294.473 56.7035 294.479 56.7059C294.484 56.7082 294.486 56.7099 294.485 56.7091C294.484 56.7081 294.478 56.7035 294.467 56.6929L293.76 57.4ZM294.46 57.7V58.7H297.61V57.7V56.7H294.46V57.7ZM297.61 57.7V58.7C298.165 58.7 298.666 58.4745 299.028 58.0402L298.26 57.4L297.492 56.7598C297.495 56.7563 297.515 56.7348 297.553 56.717C297.591 56.6996 297.615 56.7 297.61 56.7V57.7ZM298.26 57.4L298.967 58.1071C299.342 57.7322 299.56 57.2492 299.56 56.7H298.56H297.56C297.56 56.7038 297.559 56.7026 297.56 56.6976C297.561 56.6925 297.563 56.6867 297.566 56.6811C297.568 56.6756 297.57 56.6733 297.569 56.6745C297.568 56.6759 297.563 56.6822 297.553 56.6929L298.26 57.4ZM327.786 62V63H328.786V62H327.786ZM320.786 62H319.786V63H320.786V62ZM335.886 31.55L335.046 32.0925L335.914 33.437L336.742 32.0671L335.886 31.55ZM350.986 62V63H351.986V62H350.986ZM343.986 62H342.986V63H343.986V62ZM343.686 34.45L342.918 35.0902L342.947 35.125L342.979 35.1571L343.686 34.45ZM339.636 34.45L338.929 33.7429L338.897 33.775L338.868 33.8098L339.636 34.45ZM339.386 62V63H340.386V62H339.386ZM332.386 62H331.386V63H332.386V62ZM332.086 34.45L331.318 35.0902L331.347 35.125L331.379 35.1571L332.086 34.45ZM328.036 34.45L327.329 33.7429L327.297 33.775L327.268 33.8098L328.036 34.45ZM327.786 62V61H320.786V62V63H327.786V62ZM320.786 62H321.786V35.75H320.786H319.786V62H320.786ZM320.786 35.75H321.786C321.786 33.6891 322.271 32.3295 323.065 31.4847C323.847 30.6516 325.09 30.15 326.986 30.15V29.15V28.15C324.749 28.15 322.891 28.7484 321.607 30.1153C320.334 31.4705 319.786 33.4109 319.786 35.75H320.786ZM326.986 29.15V30.15H330.686V29.15V28.15H326.986V29.15ZM330.686 29.15V30.15C332.886 30.15 334.248 30.857 335.046 32.0925L335.886 31.55L336.726 31.0075C335.457 29.0429 333.352 28.15 330.686 28.15V29.15ZM335.886 31.55L336.742 32.0671C337.468 30.8655 338.803 30.15 341.086 30.15V29.15V28.15C338.369 28.15 336.237 29.0345 335.03 31.0329L335.886 31.55ZM341.086 29.15V30.15H344.786V29.15V28.15H341.086V29.15ZM344.786 29.15V30.15C346.682 30.15 347.924 30.6516 348.707 31.4847C349.501 32.3295 349.986 33.6891 349.986 35.75H350.986H351.986C351.986 33.4109 351.438 31.4705 350.165 30.1153C348.881 28.7484 347.023 28.15 344.786 28.15V29.15ZM350.986 35.75H349.986V62H350.986H351.986V35.75H350.986ZM350.986 62V61H343.986V62V63H350.986V62ZM343.986 62H344.986V35.15H343.986H342.986V62H343.986ZM343.986 35.15H344.986C344.986 34.6008 344.768 34.1178 344.393 33.7429L343.686 34.45L342.979 35.1571C342.989 35.1678 342.994 35.1741 342.995 35.1755C342.996 35.1767 342.994 35.1744 342.992 35.1689C342.989 35.1633 342.988 35.1575 342.987 35.1524C342.986 35.1474 342.986 35.1462 342.986 35.15H343.986ZM343.686 34.45L344.454 33.8098C344.092 33.3755 343.591 33.15 343.036 33.15V34.15V35.15C343.042 35.15 343.017 35.1504 342.979 35.133C342.941 35.1152 342.921 35.0937 342.918 35.0902L343.686 34.45ZM343.036 34.15V33.15H340.336V34.15V35.15H343.036V34.15ZM340.336 34.15V33.15C339.787 33.15 339.304 33.368 338.929 33.7429L339.636 34.45L340.343 35.1571C340.354 35.1465 340.36 35.1419 340.361 35.1409C340.363 35.1401 340.36 35.1418 340.355 35.1441C340.349 35.1465 340.343 35.1483 340.338 35.1493C340.333 35.1503 340.332 35.15 340.336 35.15V34.15ZM339.636 34.45L338.868 33.8098C338.547 34.1942 338.386 34.6556 338.386 35.15H339.386H340.386C340.386 35.1225 340.39 35.1121 340.39 35.1113C340.391 35.1102 340.391 35.1086 340.393 35.106C340.394 35.1033 340.398 35.098 340.404 35.0902L339.636 34.45ZM339.386 35.15H338.386V62H339.386H340.386V35.15H339.386ZM339.386 62V61H332.386V62V63H339.386V62ZM332.386 62H333.386V35.15H332.386H331.386V62H332.386ZM332.386 35.15H333.386C333.386 34.6008 333.168 34.1178 332.793 33.7429L332.086 34.45L331.379 35.1571C331.389 35.1678 331.394 35.1741 331.395 35.1755C331.396 35.1767 331.394 35.1744 331.392 35.1689C331.389 35.1633 331.388 35.1575 331.387 35.1524C331.386 35.1474 331.386 35.1462 331.386 35.15H332.386ZM332.086 34.45L332.854 33.8098C332.492 33.3755 331.991 33.15 331.436 33.15V34.15V35.15C331.442 35.15 331.417 35.1504 331.379 35.133C331.341 35.1152 331.321 35.0937 331.318 35.0902L332.086 34.45ZM331.436 34.15V33.15H328.736V34.15V35.15H331.436V34.15ZM328.736 34.15V33.15C328.187 33.15 327.704 33.368 327.329 33.7429L328.036 34.45L328.743 35.1571C328.754 35.1465 328.76 35.1419 328.761 35.1409C328.763 35.1401 328.76 35.1418 328.755 35.1441C328.749 35.1465 328.743 35.1483 328.738 35.1493C328.733 35.1503 328.732 35.15 328.736 35.15V34.15ZM328.036 34.45L327.268 33.8098C326.947 34.1942 326.786 34.6556 326.786 35.15H327.786H328.786C328.786 35.1225 328.79 35.1121 328.79 35.1113C328.791 35.1102 328.791 35.1086 328.793 35.106C328.794 35.1033 328.798 35.098 328.804 35.0902L328.036 34.45ZM327.786 35.15H326.786V62H327.786H328.786V35.15H327.786ZM374.847 62V63H375.847V62H374.847ZM367.847 62H366.847V63H367.847V62ZM367.847 51.15H368.847V50.15H367.847V51.15ZM362.797 51.15V50.15H361.797V51.15H362.797ZM362.797 62V63H363.797V62H362.797ZM355.797 62H354.797V63H355.797V62ZM362.797 45.75H361.797V46.75H362.797V45.75ZM367.847 45.75V46.75H368.847V45.75H367.847ZM367.547 34.2L366.779 34.8402L366.808 34.875L366.84 34.9071L367.547 34.2ZM363.047 34.2L362.34 33.4929L362.308 33.525L362.279 33.5598L363.047 34.2ZM368.647 29.15V30.15C370.543 30.15 371.785 30.6516 372.568 31.4847C373.362 32.3295 373.847 33.6891 373.847 35.75H374.847H375.847C375.847 33.4109 375.299 31.4705 374.026 30.1153C372.742 28.7484 370.884 28.15 368.647 28.15V29.15ZM374.847 35.75H373.847V62H374.847H375.847V35.75H374.847ZM374.847 62V61H367.847V62V63H374.847V62ZM367.847 62H368.847V51.15H367.847H366.847V62H367.847ZM367.847 51.15V50.15H362.797V51.15V52.15H367.847V51.15ZM362.797 51.15H361.797V62H362.797H363.797V51.15H362.797ZM362.797 62V61H355.797V62V63H362.797V62ZM355.797 62H356.797V35.75H355.797H354.797V62H355.797ZM355.797 35.75H356.797C356.797 33.6891 357.282 32.3295 358.076 31.4847C358.858 30.6516 360.101 30.15 361.997 30.15V29.15V28.15C359.76 28.15 357.902 28.7484 356.618 30.1153C355.345 31.4705 354.797 33.4109 354.797 35.75H355.797ZM361.997 29.15V30.15H368.647V29.15V28.15H361.997V29.15ZM362.797 45.75V46.75H367.847V45.75V44.75H362.797V45.75ZM367.847 45.75H368.847V34.9H367.847H366.847V45.75H367.847ZM367.847 34.9H368.847C368.847 34.3508 368.629 33.8678 368.254 33.4929L367.547 34.2L366.84 34.9071C366.85 34.9178 366.855 34.9241 366.856 34.9255C366.857 34.9267 366.855 34.9244 366.853 34.9189C366.85 34.9133 366.849 34.9075 366.848 34.9024C366.847 34.8974 366.847 34.8962 366.847 34.9H367.847ZM367.547 34.2L368.315 33.5598C367.953 33.1255 367.452 32.9 366.897 32.9V33.9V34.9C366.903 34.9 366.878 34.9004 366.84 34.883C366.802 34.8652 366.782 34.8437 366.779 34.8402L367.547 34.2ZM366.897 33.9V32.9H363.747V33.9V34.9H366.897V33.9ZM363.747 33.9V32.9C363.198 32.9 362.715 33.118 362.34 33.4929L363.047 34.2L363.754 34.9071C363.765 34.8965 363.771 34.8919 363.772 34.8909C363.774 34.8901 363.771 34.8918 363.766 34.8941C363.76 34.8965 363.754 34.8983 363.749 34.8993C363.744 34.9003 363.743 34.9 363.747 34.9V33.9ZM363.047 34.2L362.279 33.5598C361.958 33.9442 361.797 34.4056 361.797 34.9H362.797H363.797C363.797 34.8725 363.801 34.8621 363.801 34.8613C363.802 34.8602 363.802 34.8586 363.804 34.856C363.805 34.8533 363.809 34.848 363.815 34.8402L363.047 34.2ZM362.797 34.9H361.797V45.75H362.797H363.797V34.9H362.797ZM387.064 29.65H388.064V28.65H387.064V29.65ZM387.064 62V63H388.064V62H387.064ZM380.064 62H379.064V63H380.064V62ZM380.064 29.65V28.65H379.064V29.65H380.064ZM387.064 29.65H386.064V62H387.064H388.064V29.65H387.064ZM387.064 62V61H380.064V62V63H387.064V62ZM380.064 62H381.064V29.65H380.064H379.064V62H380.064ZM380.064 29.65V30.65H387.064V29.65V28.65H380.064V29.65ZM410.821 62V63H411.821V62H410.821ZM403.821 62H402.821V63H403.821V62ZM403.521 34.45L402.753 35.0902L402.782 35.125L402.814 35.1571L403.521 34.45ZM399.471 34.45L398.764 33.7429L398.732 33.775L398.703 33.8098L399.471 34.45ZM399.221 62V63H400.221V62H399.221ZM392.221 62H391.221V63H392.221V62ZM410.821 62V61H403.821V62V63H410.821V62ZM403.821 62H404.821V35.15H403.821H402.821V62H403.821ZM403.821 35.15H404.821C404.821 34.6008 404.604 34.1178 404.229 33.7429L403.521 34.45L402.814 35.1571C402.825 35.1678 402.83 35.1741 402.831 35.1755C402.831 35.1767 402.83 35.1744 402.827 35.1689C402.825 35.1633 402.823 35.1575 402.822 35.1524C402.821 35.1474 402.821 35.1462 402.821 35.15H403.821ZM403.521 34.45L404.29 33.8098C403.928 33.3755 403.427 33.15 402.871 33.15V34.15V35.15C402.877 35.15 402.853 35.1504 402.815 35.133C402.777 35.1152 402.756 35.0937 402.753 35.0902L403.521 34.45ZM402.871 34.15V33.15H400.171V34.15V35.15H402.871V34.15ZM400.171 34.15V33.15C399.622 33.15 399.139 33.368 398.764 33.7429L399.471 34.45L400.179 35.1571C400.189 35.1465 400.196 35.1419 400.197 35.1409C400.198 35.1401 400.196 35.1418 400.19 35.1441C400.185 35.1465 400.179 35.1483 400.174 35.1493C400.169 35.1503 400.168 35.15 400.171 35.15V34.15ZM399.471 34.45L398.703 33.8098C398.383 34.1942 398.221 34.6556 398.221 35.15H399.221H400.221C400.221 35.1225 400.225 35.1121 400.226 35.1113C400.226 35.1102 400.227 35.1086 400.228 35.106C400.23 35.1033 400.233 35.098 400.24 35.0902L399.471 34.45ZM399.221 35.15H398.221V62H399.221H400.221V35.15H399.221ZM399.221 62V61H392.221V62V63H399.221V62ZM392.221 62H393.221V35.75H392.221H391.221V62H392.221ZM392.221 35.75H393.221C393.221 33.6891 393.707 32.3295 394.5 31.4847C395.283 30.6516 396.526 30.15 398.421 30.15V29.15V28.15C396.184 28.15 394.327 28.7484 393.043 30.1153C391.77 31.4705 391.221 33.4109 391.221 35.75H392.221ZM398.421 29.15V30.15H404.621V29.15V28.15H398.421V29.15ZM404.621 29.15V30.15C406.517 30.15 407.76 30.6516 408.543 31.4847C409.336 32.3295 409.821 33.6891 409.821 35.75H410.821H411.821C411.821 33.4109 411.273 31.4705 410 30.1153C408.716 28.7484 406.859 28.15 404.621 28.15V29.15ZM410.821 35.75H409.821V62H410.821H411.821V35.75H410.821ZM432.571 62V63H433.571V62H432.571ZM425.571 62H424.571V63H425.571V62ZM440.671 31.55L439.831 32.0925L440.699 33.437L441.527 32.0671L440.671 31.55ZM455.771 62V63H456.771V62H455.771ZM448.771 62H447.771V63H448.771V62ZM448.471 34.45L447.703 35.0902L447.732 35.125L447.764 35.1571L448.471 34.45ZM444.421 34.45L443.714 33.7429L443.682 33.775L443.653 33.8098L444.421 34.45ZM444.171 62V63H445.171V62H444.171ZM437.171 62H436.171V63H437.171V62ZM436.871 34.45L436.103 35.0902L436.132 35.125L436.164 35.1571L436.871 34.45ZM432.821 34.45L432.114 33.7429L432.082 33.775L432.053 33.8098L432.821 34.45ZM432.571 62V61H425.571V62V63H432.571V62ZM425.571 62H426.571V35.75H425.571H424.571V62H425.571ZM425.571 35.75H426.571C426.571 33.6891 427.056 32.3295 427.85 31.4847C428.633 30.6516 429.875 30.15 431.771 30.15V29.15V28.15C429.534 28.15 427.676 28.7484 426.392 30.1153C425.119 31.4705 424.571 33.4109 424.571 35.75H425.571ZM431.771 29.15V30.15H435.471V29.15V28.15H431.771V29.15ZM435.471 29.15V30.15C437.672 30.15 439.033 30.857 439.831 32.0925L440.671 31.55L441.511 31.0075C440.242 29.0429 438.137 28.15 435.471 28.15V29.15ZM440.671 31.55L441.527 32.0671C442.253 30.8655 443.588 30.15 445.871 30.15V29.15V28.15C443.154 28.15 441.023 29.0345 439.815 31.0329L440.671 31.55ZM445.871 29.15V30.15H449.571V29.15V28.15H445.871V29.15ZM449.571 29.15V30.15C451.467 30.15 452.71 30.6516 453.492 31.4847C454.286 32.3295 454.771 33.6891 454.771 35.75H455.771H456.771C456.771 33.4109 456.223 31.4705 454.95 30.1153C453.666 28.7484 451.808 28.15 449.571 28.15V29.15ZM455.771 35.75H454.771V62H455.771H456.771V35.75H455.771ZM455.771 62V61H448.771V62V63H455.771V62ZM448.771 62H449.771V35.15H448.771H447.771V62H448.771ZM448.771 35.15H449.771C449.771 34.6008 449.553 34.1178 449.178 33.7429L448.471 34.45L447.764 35.1571C447.775 35.1678 447.779 35.1741 447.78 35.1755C447.781 35.1767 447.779 35.1744 447.777 35.1689C447.775 35.1633 447.773 35.1575 447.772 35.1524C447.771 35.1474 447.771 35.1462 447.771 35.15H448.771ZM448.471 34.45L449.239 33.8098C448.877 33.3755 448.376 33.15 447.821 33.15V34.15V35.15C447.827 35.15 447.802 35.1504 447.765 35.133C447.726 35.1152 447.706 35.0937 447.703 35.0902L448.471 34.45ZM447.821 34.15V33.15H445.121V34.15V35.15H447.821V34.15ZM445.121 34.15V33.15C444.572 33.15 444.089 33.368 443.714 33.7429L444.421 34.45L445.128 35.1571C445.139 35.1465 445.145 35.1419 445.147 35.1409C445.148 35.1401 445.146 35.1418 445.14 35.1441C445.134 35.1465 445.129 35.1483 445.123 35.1493C445.118 35.1503 445.117 35.15 445.121 35.15V34.15ZM444.421 34.45L443.653 33.8098C443.333 34.1942 443.171 34.6556 443.171 35.15H444.171H445.171C445.171 35.1225 445.175 35.1121 445.175 35.1113C445.176 35.1102 445.176 35.1086 445.178 35.106C445.179 35.1033 445.183 35.098 445.189 35.0902L444.421 34.45ZM444.171 35.15H443.171V62H444.171H445.171V35.15H444.171ZM444.171 62V61H437.171V62V63H444.171V62ZM437.171 62H438.171V35.15H437.171H436.171V62H437.171ZM437.171 35.15H438.171C438.171 34.6008 437.953 34.1178 437.578 33.7429L436.871 34.45L436.164 35.1571C436.175 35.1678 436.179 35.1741 436.18 35.1755C436.181 35.1767 436.179 35.1744 436.177 35.1689C436.175 35.1633 436.173 35.1575 436.172 35.1524C436.171 35.1474 436.171 35.1462 436.171 35.15H437.171ZM436.871 34.45L437.639 33.8098C437.277 33.3755 436.776 33.15 436.221 33.15V34.15V35.15C436.227 35.15 436.202 35.1504 436.165 35.133C436.126 35.1152 436.106 35.0937 436.103 35.0902L436.871 34.45ZM436.221 34.15V33.15H433.521V34.15V35.15H436.221V34.15ZM433.521 34.15V33.15C432.972 33.15 432.489 33.368 432.114 33.7429L432.821 34.45L433.528 35.1571C433.539 35.1465 433.545 35.1419 433.547 35.1409C433.548 35.1401 433.546 35.1418 433.54 35.1441C433.534 35.1465 433.529 35.1483 433.523 35.1493C433.518 35.1503 433.517 35.15 433.521 35.15V34.15ZM432.821 34.45L432.053 33.8098C431.733 34.1942 431.571 34.6556 431.571 35.15H432.571H433.571C433.571 35.1225 433.575 35.1121 433.575 35.1113C433.576 35.1102 433.576 35.1086 433.578 35.106C433.579 35.1033 433.583 35.098 433.589 35.0902L432.821 34.45ZM432.571 35.15H431.571V62H432.571H433.571V35.15H432.571ZM467.582 56.2H466.582V57.2H467.582V56.2ZM475.332 56.2H476.332V55.2H475.332V56.2ZM475.332 62V63H476.332V62H475.332ZM460.582 62H459.582V63H460.582V62ZM460.582 29.65V28.65H459.582V29.65H460.582ZM475.332 29.65H476.332V28.65H475.332V29.65ZM475.332 35.35V36.35H476.332V35.35H475.332ZM467.582 35.35V34.35H466.582V35.35H467.582ZM467.582 42.95H466.582V43.95H467.582V42.95ZM474.832 42.95H475.832V41.95H474.832V42.95ZM474.832 48.45V49.45H475.832V48.45H474.832ZM467.582 48.45V47.45H466.582V48.45H467.582ZM467.582 56.2V57.2H475.332V56.2V55.2H467.582V56.2ZM475.332 56.2H474.332V62H475.332H476.332V56.2H475.332ZM475.332 62V61H460.582V62V63H475.332V62ZM460.582 62H461.582V29.65H460.582H459.582V62H460.582ZM460.582 29.65V30.65H475.332V29.65V28.65H460.582V29.65ZM475.332 29.65H474.332V35.35H475.332H476.332V29.65H475.332ZM475.332 35.35V34.35H467.582V35.35V36.35H475.332V35.35ZM467.582 35.35H466.582V42.95H467.582H468.582V35.35H467.582ZM467.582 42.95V43.95H474.832V42.95V41.95H467.582V42.95ZM474.832 42.95H473.832V48.45H474.832H475.832V42.95H474.832ZM474.832 48.45V47.45H467.582V48.45V49.45H474.832V48.45ZM467.582 48.45H466.582V56.2H467.582H468.582V48.45H467.582ZM497.931 62V63H498.931V62H497.931ZM490.931 62H489.931V63H490.931V62ZM490.631 34.45L489.863 35.0902L489.892 35.125L489.924 35.1571L490.631 34.45ZM486.581 34.45L485.874 33.7429L485.842 33.775L485.813 33.8098L486.581 34.45ZM486.331 62V63H487.331V62H486.331ZM479.331 62H478.331V63H479.331V62ZM497.931 62V61H490.931V62V63H497.931V62ZM490.931 62H491.931V35.15H490.931H489.931V62H490.931ZM490.931 35.15H491.931C491.931 34.6008 491.713 34.1178 491.338 33.7429L490.631 34.45L489.924 35.1571C489.934 35.1678 489.939 35.1741 489.94 35.1755C489.941 35.1767 489.939 35.1744 489.937 35.1689C489.934 35.1633 489.933 35.1575 489.932 35.1524C489.931 35.1474 489.931 35.1462 489.931 35.15H490.931ZM490.631 34.45L491.399 33.8098C491.037 33.3755 490.536 33.15 489.981 33.15V34.15V35.15C489.987 35.15 489.962 35.1504 489.924 35.133C489.886 35.1152 489.866 35.0937 489.863 35.0902L490.631 34.45ZM489.981 34.15V33.15H487.281V34.15V35.15H489.981V34.15ZM487.281 34.15V33.15C486.732 33.15 486.249 33.368 485.874 33.7429L486.581 34.45L487.288 35.1571C487.299 35.1465 487.305 35.1419 487.306 35.1409C487.308 35.1401 487.305 35.1418 487.3 35.1441C487.294 35.1465 487.288 35.1483 487.283 35.1493C487.278 35.1503 487.277 35.15 487.281 35.15V34.15ZM486.581 34.45L485.813 33.8098C485.492 34.1942 485.331 34.6556 485.331 35.15H486.331H487.331C487.331 35.1225 487.335 35.1121 487.335 35.1113C487.336 35.1102 487.336 35.1086 487.338 35.106C487.339 35.1033 487.343 35.098 487.349 35.0902L486.581 34.45ZM486.331 35.15H485.331V62H486.331H487.331V35.15H486.331ZM486.331 62V61H479.331V62V63H486.331V62ZM479.331 62H480.331V35.75H479.331H478.331V62H479.331ZM479.331 35.75H480.331C480.331 33.6891 480.816 32.3295 481.61 31.4847C482.392 30.6516 483.635 30.15 485.531 30.15V29.15V28.15C483.293 28.15 481.436 28.7484 480.152 30.1153C478.879 31.4705 478.331 33.4109 478.331 35.75H479.331ZM485.531 29.15V30.15H491.731V29.15V28.15H485.531V29.15ZM491.731 29.15V30.15C493.627 30.15 494.869 30.6516 495.652 31.4847C496.446 32.3295 496.931 33.6891 496.931 35.75H497.931H498.931C498.931 33.4109 498.383 31.4705 497.11 30.1153C495.826 28.7484 493.968 28.15 491.731 28.15V29.15ZM497.931 35.75H496.931V62H497.931H498.931V35.75H497.931ZM514.173 29.65V28.65H513.173V29.65H514.173ZM521.173 29.65H522.173V28.65H521.173V29.65ZM502.573 29.65V28.65H501.573V29.65H502.573ZM509.573 29.65H510.573V28.65H509.573V29.65ZM509.823 57.2L509.055 57.8402L509.084 57.875L509.116 57.9071L509.823 57.2ZM513.873 57.2L513.166 56.4929L513.134 56.525L513.105 56.5598L513.873 57.2ZM514.173 29.65V30.65H521.173V29.65V28.65H514.173V29.65ZM521.173 29.65H520.173V55.9H521.173H522.173V29.65H521.173ZM521.173 55.9H520.173C520.173 57.9609 519.688 59.3205 518.894 60.1653C518.112 60.9984 516.869 61.5 514.973 61.5V62.5V63.5C517.21 63.5 519.068 62.9016 520.352 61.5347C521.625 60.1795 522.173 58.2391 522.173 55.9H521.173ZM514.973 62.5V61.5H508.773V62.5V63.5H514.973V62.5ZM508.773 62.5V61.5C506.877 61.5 505.634 60.9984 504.852 60.1653C504.058 59.3205 503.573 57.9609 503.573 55.9H502.573H501.573C501.573 58.2391 502.121 60.1795 503.394 61.5347C504.678 62.9016 506.536 63.5 508.773 63.5V62.5ZM502.573 55.9H503.573V29.65H502.573H501.573V55.9H502.573ZM502.573 29.65V30.65H509.573V29.65V28.65H502.573V29.65ZM509.573 29.65H508.573V56.5H509.573H510.573V29.65H509.573ZM509.573 56.5H508.573C508.573 56.9944 508.734 57.4558 509.055 57.8402L509.823 57.2L510.591 56.5598C510.585 56.552 510.581 56.5467 510.58 56.544C510.578 56.5414 510.578 56.5398 510.577 56.5387C510.577 56.5379 510.573 56.5275 510.573 56.5H509.573ZM509.823 57.2L509.116 57.9071C509.491 58.282 509.974 58.5 510.523 58.5V57.5V56.5C510.519 56.5 510.52 56.4997 510.525 56.5007C510.531 56.5017 510.536 56.5035 510.542 56.5059C510.547 56.5082 510.55 56.5099 510.548 56.5091C510.547 56.5081 510.541 56.5035 510.53 56.4929L509.823 57.2ZM510.523 57.5V58.5H513.223V57.5V56.5H510.523V57.5ZM513.223 57.5V58.5C513.778 58.5 514.279 58.2745 514.641 57.8402L513.873 57.2L513.105 56.5598C513.108 56.5563 513.128 56.5348 513.167 56.517C513.204 56.4996 513.229 56.5 513.223 56.5V57.5ZM513.873 57.2L514.58 57.9071C514.955 57.5322 515.173 57.0492 515.173 56.5H514.173H513.173C513.173 56.5038 513.173 56.5026 513.174 56.4976C513.175 56.4925 513.177 56.4867 513.179 56.4811C513.181 56.4756 513.183 56.4733 513.182 56.4745C513.181 56.4759 513.177 56.4822 513.166 56.4929L513.873 57.2ZM514.173 56.5H515.173V29.65H514.173H513.173V56.5H514.173Z" fill="black" mask="url(#path-5-inside-2_44_205)"/>
</svg>
