<svg width="558" height="90" viewBox="0 0 558 90" fill="none" xmlns="http://www.w3.org/2000/svg">
<rect width="558" height="90" rx="1" fill="#D9D9D9"/>
<rect width="90" height="90" rx="1" fill="#838383"/>
<path d="M41.9927 31.25V59.46C41.9927 65.62 39.0994 68.7 33.3127 68.7H24.9827C19.1961 68.7 16.3027 65.62 16.3027 59.46V31.25C16.3027 25.09 19.1961 22.01 24.9827 22.01H33.3127C39.0994 22.01 41.9927 25.09 41.9927 31.25ZM32.4727 60.58V30.06C32.4727 29.6867 32.3327 29.36 32.0527 29.08C31.8194 28.8 31.5161 28.66 31.1427 28.66H27.1527C26.7794 28.66 26.4527 28.8 26.1727 29.08C25.9394 29.36 25.8227 29.6867 25.8227 30.06V60.58C25.8227 60.9533 25.9394 61.28 26.1727 61.56C26.4527 61.84 26.7794 61.98 27.1527 61.98H31.1427C31.5161 61.98 31.8194 61.84 32.0527 61.56C32.3327 61.28 32.4727 60.9533 32.4727 60.58ZM64.9615 22.71H73.7115V68H64.9615V50.15H56.7715C50.9848 50.15 48.0915 47.07 48.0915 40.91V22.71H56.7715V40.49C56.7715 40.8633 56.8882 41.19 57.1215 41.47C57.4015 41.75 57.7282 41.89 58.1015 41.89H63.6315C64.0048 41.89 64.3082 41.75 64.5415 41.47C64.8215 41.19 64.9615 40.8633 64.9615 40.49V22.71Z" fill="white"/>
<path d="M264.299 38.15H257.649V35.6C257.649 35.3333 257.549 35.1 257.349 34.9C257.182 34.7 256.965 34.6 256.699 34.6H253.949C253.682 34.6 253.449 34.7 253.249 34.9C253.082 35.1 252.999 35.3333 252.999 35.6V41.35C252.999 41.6167 253.082 41.85 253.249 42.05C253.449 42.25 253.682 42.35 253.949 42.35H258.449C262.582 42.4167 264.649 44.6167 264.649 48.95V55.9C264.649 60.3 262.582 62.5 258.449 62.5H252.549C248.415 62.5 246.349 60.3 246.349 55.9V52.55H252.999V56.15C252.999 56.4167 253.082 56.65 253.249 56.85C253.449 57.05 253.682 57.15 253.949 57.15H257.049C257.315 57.15 257.532 57.05 257.699 56.85C257.899 56.65 257.999 56.4167 257.999 56.15V49.8C257.999 49.5333 257.899 49.3 257.699 49.1C257.532 48.9 257.315 48.8 257.049 48.8H252.549C248.415 48.8 246.349 46.6 246.349 42.2V35.75C246.349 31.35 248.415 29.15 252.549 29.15H258.099C262.232 29.15 264.299 31.35 264.299 35.75V38.15ZM276.249 56.2H283.999V62H269.249V29.65H283.999V35.35H276.249V42.95H283.499V48.45H276.249V56.2ZM286.198 35.6V29.65H303.698V35.6H298.448V62H291.448V35.6H286.198ZM305.046 35.6V29.65H322.546V35.6H317.296V62H310.296V35.6H305.046ZM332.743 29.65V62H325.743V29.65H332.743ZM356.5 62H349.5V35.15C349.5 34.8833 349.4 34.65 349.2 34.45C349.034 34.25 348.817 34.15 348.55 34.15H345.85C345.584 34.15 345.35 34.25 345.15 34.45C344.984 34.65 344.9 34.8833 344.9 35.15V62H337.9V35.75C337.9 31.35 339.967 29.15 344.1 29.15H350.3C354.434 29.15 356.5 31.35 356.5 35.75V62ZM370.642 49.15V44H379.892V55.9C379.892 60.3 377.826 62.5 373.692 62.5H367.392C363.259 62.5 361.192 60.3 361.192 55.9V35.75C361.192 31.35 363.259 29.15 367.392 29.15H373.692C377.826 29.15 379.892 31.35 379.892 35.75V38.8H373.242V34.9C373.242 34.6333 373.142 34.4 372.942 34.2C372.776 34 372.559 33.9 372.292 33.9H369.142C368.876 33.9 368.642 34 368.442 34.2C368.276 34.4 368.192 34.6333 368.192 34.9V56.7C368.192 56.9667 368.276 57.2 368.442 57.4C368.642 57.6 368.876 57.7 369.142 57.7H372.292C372.559 57.7 372.776 57.6 372.942 57.4C373.142 57.2 373.242 56.9667 373.242 56.7V49.15H370.642ZM401.701 38.15H395.051V35.6C395.051 35.3333 394.951 35.1 394.751 34.9C394.584 34.7 394.368 34.6 394.101 34.6H391.351C391.084 34.6 390.851 34.7 390.651 34.9C390.484 35.1 390.401 35.3333 390.401 35.6V41.35C390.401 41.6167 390.484 41.85 390.651 42.05C390.851 42.25 391.084 42.35 391.351 42.35H395.851C399.984 42.4167 402.051 44.6167 402.051 48.95V55.9C402.051 60.3 399.984 62.5 395.851 62.5H389.951C385.818 62.5 383.751 60.3 383.751 55.9V52.55H390.401V56.15C390.401 56.4167 390.484 56.65 390.651 56.85C390.851 57.05 391.084 57.15 391.351 57.15H394.451C394.718 57.15 394.934 57.05 395.101 56.85C395.301 56.65 395.401 56.4167 395.401 56.15V49.8C395.401 49.5333 395.301 49.3 395.101 49.1C394.934 48.9 394.718 48.8 394.451 48.8H389.951C385.818 48.8 383.751 46.6 383.751 42.2V35.75C383.751 31.35 385.818 29.15 389.951 29.15H395.501C399.634 29.15 401.701 31.35 401.701 35.75V38.15Z" fill="black"/>
</svg>
