<svg width="558" height="90" viewBox="0 0 558 90" fill="none" xmlns="http://www.w3.org/2000/svg">
<rect x="0.5" y="0.5" width="557" height="89" rx="0.5" fill="#A19B00" stroke="black"/>
<rect x="0.5" y="0.5" width="89" height="89" rx="0.5" fill="#869E00" stroke="black"/>
<mask id="path-3-inside-1_44_444" fill="white">
<path d="M41.9927 31.25V59.46C41.9927 65.62 39.0994 68.7 33.3127 68.7H24.9827C19.1961 68.7 16.3027 65.62 16.3027 59.46V31.25C16.3027 25.09 19.1961 22.01 24.9827 22.01H33.3127C39.0994 22.01 41.9927 25.09 41.9927 31.25ZM32.4727 60.58V30.06C32.4727 29.6867 32.3327 29.36 32.0527 29.08C31.8194 28.8 31.5161 28.66 31.1427 28.66H27.1527C26.7794 28.66 26.4527 28.8 26.1727 29.08C25.9394 29.36 25.8227 29.6867 25.8227 30.06V60.58C25.8227 60.9533 25.9394 61.28 26.1727 61.56C26.4527 61.84 26.7794 61.98 27.1527 61.98H31.1427C31.5161 61.98 31.8194 61.84 32.0527 61.56C32.3327 61.28 32.4727 60.9533 32.4727 60.58ZM64.9615 22.71H73.7115V68H64.9615V50.15H56.7715C50.9848 50.15 48.0915 47.07 48.0915 40.91V22.71H56.7715V40.49C56.7715 40.8633 56.8882 41.19 57.1215 41.47C57.4015 41.75 57.7282 41.89 58.1015 41.89H63.6315C64.0048 41.89 64.3082 41.75 64.5415 41.47C64.8215 41.19 64.9615 40.8633 64.9615 40.49V22.71Z"/>
</mask>
<path d="M41.9927 31.25V59.46C41.9927 65.62 39.0994 68.7 33.3127 68.7H24.9827C19.1961 68.7 16.3027 65.62 16.3027 59.46V31.25C16.3027 25.09 19.1961 22.01 24.9827 22.01H33.3127C39.0994 22.01 41.9927 25.09 41.9927 31.25ZM32.4727 60.58V30.06C32.4727 29.6867 32.3327 29.36 32.0527 29.08C31.8194 28.8 31.5161 28.66 31.1427 28.66H27.1527C26.7794 28.66 26.4527 28.8 26.1727 29.08C25.9394 29.36 25.8227 29.6867 25.8227 30.06V60.58C25.8227 60.9533 25.9394 61.28 26.1727 61.56C26.4527 61.84 26.7794 61.98 27.1527 61.98H31.1427C31.5161 61.98 31.8194 61.84 32.0527 61.56C32.3327 61.28 32.4727 60.9533 32.4727 60.58ZM64.9615 22.71H73.7115V68H64.9615V50.15H56.7715C50.9848 50.15 48.0915 47.07 48.0915 40.91V22.71H56.7715V40.49C56.7715 40.8633 56.8882 41.19 57.1215 41.47C57.4015 41.75 57.7282 41.89 58.1015 41.89H63.6315C64.0048 41.89 64.3082 41.75 64.5415 41.47C64.8215 41.19 64.9615 40.8633 64.9615 40.49V22.71Z" fill="white"/>
<path d="M32.0527 29.08L31.2845 29.7202L31.3136 29.755L31.3456 29.7871L32.0527 29.08ZM26.1727 29.08L25.4656 28.3729L25.4336 28.405L25.4045 28.4398L26.1727 29.08ZM26.1727 61.56L25.4045 62.2002L25.4336 62.235L25.4656 62.2671L26.1727 61.56ZM32.0527 61.56L31.3456 60.8529L31.3136 60.885L31.2845 60.9198L32.0527 61.56ZM41.9927 31.25H40.9927V59.46H41.9927H42.9927V31.25H41.9927ZM41.9927 59.46H40.9927C40.9927 62.4009 40.3009 64.4205 39.0939 65.7053C37.898 66.9784 36.0354 67.7 33.3127 67.7V68.7V69.7C36.3768 69.7 38.8542 68.8816 40.5516 67.0747C42.2379 65.2795 42.9927 62.6791 42.9927 59.46H41.9927ZM33.3127 68.7V67.7H24.9827V68.7V69.7H33.3127V68.7ZM24.9827 68.7V67.7C22.2601 67.7 20.3975 66.9784 19.2016 65.7053C17.9946 64.4205 17.3027 62.4009 17.3027 59.46H16.3027H15.3027C15.3027 62.6791 16.0575 65.2795 17.7439 67.0747C19.4413 68.8816 21.9187 69.7 24.9827 69.7V68.7ZM16.3027 59.46H17.3027V31.25H16.3027H15.3027V59.46H16.3027ZM16.3027 31.25H17.3027C17.3027 28.3091 17.9946 26.2895 19.2016 25.0047C20.3975 23.7316 22.2601 23.01 24.9827 23.01V22.01V21.01C21.9187 21.01 19.4413 21.8284 17.7439 23.6353C16.0575 25.4305 15.3027 28.0309 15.3027 31.25H16.3027ZM24.9827 22.01V23.01H33.3127V22.01V21.01H24.9827V22.01ZM33.3127 22.01V23.01C36.0354 23.01 37.898 23.7316 39.0939 25.0047C40.3009 26.2895 40.9927 28.3091 40.9927 31.25H41.9927H42.9927C42.9927 28.0309 42.2379 25.4305 40.5516 23.6353C38.8542 21.8284 36.3768 21.01 33.3127 21.01V22.01ZM32.4727 60.58H33.4727V30.06H32.4727H31.4727V60.58H32.4727ZM32.4727 30.06H33.4727C33.4727 29.4041 33.2148 28.8278 32.7598 28.3729L32.0527 29.08L31.3456 29.7871C31.4507 29.8922 31.4727 29.9692 31.4727 30.06H32.4727ZM32.0527 29.08L32.821 28.4398C32.3924 27.9255 31.8045 27.66 31.1427 27.66V28.66V29.66C31.2018 29.66 31.2256 29.6704 31.2312 29.673C31.2361 29.6752 31.2541 29.6837 31.2845 29.7202L32.0527 29.08ZM31.1427 28.66V27.66H27.1527V28.66V29.66H31.1427V28.66ZM27.1527 28.66V27.66C26.4968 27.66 25.9205 27.918 25.4656 28.3729L26.1727 29.08L26.8798 29.7871C26.9849 29.682 27.062 29.66 27.1527 29.66V28.66ZM26.1727 29.08L25.4045 28.4398C25.0175 28.9042 24.8227 29.4589 24.8227 30.06H25.8227H26.8227C26.8227 29.9144 26.8613 29.8158 26.941 29.7202L26.1727 29.08ZM25.8227 30.06H24.8227V60.58H25.8227H26.8227V30.06H25.8227ZM25.8227 60.58H24.8227C24.8227 61.1811 25.0175 61.7358 25.4045 62.2002L26.1727 61.56L26.941 60.9198C26.8613 60.8242 26.8227 60.7256 26.8227 60.58H25.8227ZM26.1727 61.56L25.4656 62.2671C25.9205 62.722 26.4968 62.98 27.1527 62.98V61.98V60.98C27.062 60.98 26.9849 60.958 26.8798 60.8529L26.1727 61.56ZM27.1527 61.98V62.98H31.1427V61.98V60.98H27.1527V61.98ZM31.1427 61.98V62.98C31.8045 62.98 32.3924 62.7145 32.821 62.2002L32.0527 61.56L31.2845 60.9198C31.2541 60.9563 31.2361 60.9648 31.2312 60.967C31.2256 60.9696 31.2018 60.98 31.1427 60.98V61.98ZM32.0527 61.56L32.7598 62.2671C33.2148 61.8122 33.4727 61.2359 33.4727 60.58H32.4727H31.4727C31.4727 60.6708 31.4507 60.7478 31.3456 60.8529L32.0527 61.56ZM64.9615 22.71V21.71H63.9615V22.71H64.9615ZM73.7115 22.71H74.7115V21.71H73.7115V22.71ZM73.7115 68V69H74.7115V68H73.7115ZM64.9615 68H63.9615V69H64.9615V68ZM64.9615 50.15H65.9615V49.15H64.9615V50.15ZM48.0915 22.71V21.71H47.0915V22.71H48.0915ZM56.7715 22.71H57.7715V21.71H56.7715V22.71ZM57.1215 41.47L56.3533 42.1102L56.3823 42.145L56.4144 42.1771L57.1215 41.47ZM64.5415 41.47L63.8344 40.7629L63.8023 40.795L63.7733 40.8298L64.5415 41.47ZM64.9615 22.71V23.71H73.7115V22.71V21.71H64.9615V22.71ZM73.7115 22.71H72.7115V68H73.7115H74.7115V22.71H73.7115ZM73.7115 68V67H64.9615V68V69H73.7115V68ZM64.9615 68H65.9615V50.15H64.9615H63.9615V68H64.9615ZM64.9615 50.15V49.15H56.7715V50.15V51.15H64.9615V50.15ZM56.7715 50.15V49.15C54.0488 49.15 52.1863 48.4284 50.9903 47.1553C49.7834 45.8705 49.0915 43.8509 49.0915 40.91H48.0915H47.0915C47.0915 44.1291 47.8463 46.7295 49.5326 48.5247C51.23 50.3316 53.7075 51.15 56.7715 51.15V50.15ZM48.0915 40.91H49.0915V22.71H48.0915H47.0915V40.91H48.0915ZM48.0915 22.71V23.71H56.7715V22.71V21.71H48.0915V22.71ZM56.7715 22.71H55.7715V40.49H56.7715H57.7715V22.71H56.7715ZM56.7715 40.49H55.7715C55.7715 41.0911 55.9662 41.6458 56.3533 42.1102L57.1215 41.47L57.8897 40.8298C57.8101 40.7342 57.7715 40.6356 57.7715 40.49H56.7715ZM57.1215 41.47L56.4144 42.1771C56.8693 42.632 57.4456 42.89 58.1015 42.89V41.89V40.89C58.0107 40.89 57.9337 40.868 57.8286 40.7629L57.1215 41.47ZM58.1015 41.89V42.89H63.6315V41.89V40.89H58.1015V41.89ZM63.6315 41.89V42.89C64.2933 42.89 64.8811 42.6245 65.3097 42.1102L64.5415 41.47L63.7733 40.8298C63.7429 40.8663 63.7249 40.8748 63.7199 40.877C63.7143 40.8796 63.6905 40.89 63.6315 40.89V41.89ZM64.5415 41.47L65.2486 42.1771C65.7035 41.7222 65.9615 41.1459 65.9615 40.49H64.9615H63.9615C63.9615 40.5808 63.9395 40.6578 63.8344 40.7629L64.5415 41.47ZM64.9615 40.49H65.9615V22.71H64.9615H63.9615V40.49H64.9615Z" fill="black" mask="url(#path-3-inside-1_44_444)"/>
<mask id="path-5-inside-2_44_444" fill="white">
<path d="M264.299 38.15H257.649V35.6C257.649 35.3333 257.549 35.1 257.349 34.9C257.182 34.7 256.965 34.6 256.699 34.6H253.949C253.682 34.6 253.449 34.7 253.249 34.9C253.082 35.1 252.999 35.3333 252.999 35.6V41.35C252.999 41.6167 253.082 41.85 253.249 42.05C253.449 42.25 253.682 42.35 253.949 42.35H258.449C262.582 42.4167 264.649 44.6167 264.649 48.95V55.9C264.649 60.3 262.582 62.5 258.449 62.5H252.549C248.415 62.5 246.349 60.3 246.349 55.9V52.55H252.999V56.15C252.999 56.4167 253.082 56.65 253.249 56.85C253.449 57.05 253.682 57.15 253.949 57.15H257.049C257.315 57.15 257.532 57.05 257.699 56.85C257.899 56.65 257.999 56.4167 257.999 56.15V49.8C257.999 49.5333 257.899 49.3 257.699 49.1C257.532 48.9 257.315 48.8 257.049 48.8H252.549C248.415 48.8 246.349 46.6 246.349 42.2V35.75C246.349 31.35 248.415 29.15 252.549 29.15H258.099C262.232 29.15 264.299 31.35 264.299 35.75V38.15ZM276.249 56.2H283.999V62H269.249V29.65H283.999V35.35H276.249V42.95H283.499V48.45H276.249V56.2ZM286.198 35.6V29.65H303.698V35.6H298.448V62H291.448V35.6H286.198ZM305.046 35.6V29.65H322.546V35.6H317.296V62H310.296V35.6H305.046ZM332.743 29.65V62H325.743V29.65H332.743ZM356.5 62H349.5V35.15C349.5 34.8833 349.4 34.65 349.2 34.45C349.034 34.25 348.817 34.15 348.55 34.15H345.85C345.584 34.15 345.35 34.25 345.15 34.45C344.984 34.65 344.9 34.8833 344.9 35.15V62H337.9V35.75C337.9 31.35 339.967 29.15 344.1 29.15H350.3C354.434 29.15 356.5 31.35 356.5 35.75V62ZM370.642 49.15V44H379.892V55.9C379.892 60.3 377.826 62.5 373.692 62.5H367.392C363.259 62.5 361.192 60.3 361.192 55.9V35.75C361.192 31.35 363.259 29.15 367.392 29.15H373.692C377.826 29.15 379.892 31.35 379.892 35.75V38.8H373.242V34.9C373.242 34.6333 373.142 34.4 372.942 34.2C372.776 34 372.559 33.9 372.292 33.9H369.142C368.876 33.9 368.642 34 368.442 34.2C368.276 34.4 368.192 34.6333 368.192 34.9V56.7C368.192 56.9667 368.276 57.2 368.442 57.4C368.642 57.6 368.876 57.7 369.142 57.7H372.292C372.559 57.7 372.776 57.6 372.942 57.4C373.142 57.2 373.242 56.9667 373.242 56.7V49.15H370.642ZM401.701 38.15H395.051V35.6C395.051 35.3333 394.951 35.1 394.751 34.9C394.584 34.7 394.368 34.6 394.101 34.6H391.351C391.084 34.6 390.851 34.7 390.651 34.9C390.484 35.1 390.401 35.3333 390.401 35.6V41.35C390.401 41.6167 390.484 41.85 390.651 42.05C390.851 42.25 391.084 42.35 391.351 42.35H395.851C399.984 42.4167 402.051 44.6167 402.051 48.95V55.9C402.051 60.3 399.984 62.5 395.851 62.5H389.951C385.818 62.5 383.751 60.3 383.751 55.9V52.55H390.401V56.15C390.401 56.4167 390.484 56.65 390.651 56.85C390.851 57.05 391.084 57.15 391.351 57.15H394.451C394.718 57.15 394.934 57.05 395.101 56.85C395.301 56.65 395.401 56.4167 395.401 56.15V49.8C395.401 49.5333 395.301 49.3 395.101 49.1C394.934 48.9 394.718 48.8 394.451 48.8H389.951C385.818 48.8 383.751 46.6 383.751 42.2V35.75C383.751 31.35 385.818 29.15 389.951 29.15H395.501C399.634 29.15 401.701 31.35 401.701 35.75V38.15Z"/>
</mask>
<path d="M264.299 38.15H257.649V35.6C257.649 35.3333 257.549 35.1 257.349 34.9C257.182 34.7 256.965 34.6 256.699 34.6H253.949C253.682 34.6 253.449 34.7 253.249 34.9C253.082 35.1 252.999 35.3333 252.999 35.6V41.35C252.999 41.6167 253.082 41.85 253.249 42.05C253.449 42.25 253.682 42.35 253.949 42.35H258.449C262.582 42.4167 264.649 44.6167 264.649 48.95V55.9C264.649 60.3 262.582 62.5 258.449 62.5H252.549C248.415 62.5 246.349 60.3 246.349 55.9V52.55H252.999V56.15C252.999 56.4167 253.082 56.65 253.249 56.85C253.449 57.05 253.682 57.15 253.949 57.15H257.049C257.315 57.15 257.532 57.05 257.699 56.85C257.899 56.65 257.999 56.4167 257.999 56.15V49.8C257.999 49.5333 257.899 49.3 257.699 49.1C257.532 48.9 257.315 48.8 257.049 48.8H252.549C248.415 48.8 246.349 46.6 246.349 42.2V35.75C246.349 31.35 248.415 29.15 252.549 29.15H258.099C262.232 29.15 264.299 31.35 264.299 35.75V38.15ZM276.249 56.2H283.999V62H269.249V29.65H283.999V35.35H276.249V42.95H283.499V48.45H276.249V56.2ZM286.198 35.6V29.65H303.698V35.6H298.448V62H291.448V35.6H286.198ZM305.046 35.6V29.65H322.546V35.6H317.296V62H310.296V35.6H305.046ZM332.743 29.65V62H325.743V29.65H332.743ZM356.5 62H349.5V35.15C349.5 34.8833 349.4 34.65 349.2 34.45C349.034 34.25 348.817 34.15 348.55 34.15H345.85C345.584 34.15 345.35 34.25 345.15 34.45C344.984 34.65 344.9 34.8833 344.9 35.15V62H337.9V35.75C337.9 31.35 339.967 29.15 344.1 29.15H350.3C354.434 29.15 356.5 31.35 356.5 35.75V62ZM370.642 49.15V44H379.892V55.9C379.892 60.3 377.826 62.5 373.692 62.5H367.392C363.259 62.5 361.192 60.3 361.192 55.9V35.75C361.192 31.35 363.259 29.15 367.392 29.15H373.692C377.826 29.15 379.892 31.35 379.892 35.75V38.8H373.242V34.9C373.242 34.6333 373.142 34.4 372.942 34.2C372.776 34 372.559 33.9 372.292 33.9H369.142C368.876 33.9 368.642 34 368.442 34.2C368.276 34.4 368.192 34.6333 368.192 34.9V56.7C368.192 56.9667 368.276 57.2 368.442 57.4C368.642 57.6 368.876 57.7 369.142 57.7H372.292C372.559 57.7 372.776 57.6 372.942 57.4C373.142 57.2 373.242 56.9667 373.242 56.7V49.15H370.642ZM401.701 38.15H395.051V35.6C395.051 35.3333 394.951 35.1 394.751 34.9C394.584 34.7 394.368 34.6 394.101 34.6H391.351C391.084 34.6 390.851 34.7 390.651 34.9C390.484 35.1 390.401 35.3333 390.401 35.6V41.35C390.401 41.6167 390.484 41.85 390.651 42.05C390.851 42.25 391.084 42.35 391.351 42.35H395.851C399.984 42.4167 402.051 44.6167 402.051 48.95V55.9C402.051 60.3 399.984 62.5 395.851 62.5H389.951C385.818 62.5 383.751 60.3 383.751 55.9V52.55H390.401V56.15C390.401 56.4167 390.484 56.65 390.651 56.85C390.851 57.05 391.084 57.15 391.351 57.15H394.451C394.718 57.15 394.934 57.05 395.101 56.85C395.301 56.65 395.401 56.4167 395.401 56.15V49.8C395.401 49.5333 395.301 49.3 395.101 49.1C394.934 48.9 394.718 48.8 394.451 48.8H389.951C385.818 48.8 383.751 46.6 383.751 42.2V35.75C383.751 31.35 385.818 29.15 389.951 29.15H395.501C399.634 29.15 401.701 31.35 401.701 35.75V38.15Z" fill="black"/>
<path d="M264.299 38.15V39.15H265.299V38.15H264.299ZM257.649 38.15H256.649V39.15H257.649V38.15ZM257.349 34.9L256.58 35.5402L256.609 35.575L256.642 35.6071L257.349 34.9ZM253.249 34.9L252.542 34.1929L252.509 34.225L252.48 34.2598L253.249 34.9ZM253.249 42.05L252.48 42.6902L252.509 42.725L252.542 42.7571L253.249 42.05ZM258.449 42.35L258.465 41.3501L258.457 41.35H258.449V42.35ZM246.349 52.55V51.55H245.349V52.55H246.349ZM252.999 52.55H253.999V51.55H252.999V52.55ZM253.249 56.85L252.48 57.4902L252.509 57.525L252.542 57.5571L253.249 56.85ZM257.699 56.85L256.992 56.1429L256.959 56.175L256.93 56.2098L257.699 56.85ZM257.699 49.1L256.93 49.7402L256.959 49.775L256.992 49.8071L257.699 49.1ZM264.299 38.15V37.15H257.649V38.15V39.15H264.299V38.15ZM257.649 38.15H258.649V35.6H257.649H256.649V38.15H257.649ZM257.649 35.6H258.649C258.649 35.0508 258.431 34.5678 258.056 34.1929L257.349 34.9L256.642 35.6071C256.652 35.6178 256.657 35.6241 256.658 35.6255C256.659 35.6267 256.657 35.6244 256.654 35.6189C256.652 35.6133 256.65 35.6075 256.649 35.6024C256.648 35.5974 256.649 35.5962 256.649 35.6H257.649ZM257.349 34.9L258.117 34.2598C257.755 33.8255 257.254 33.6 256.699 33.6V34.6V35.6C256.704 35.6 256.68 35.6004 256.642 35.583C256.604 35.5652 256.583 35.5437 256.58 35.5402L257.349 34.9ZM256.699 34.6V33.6H253.949V34.6V35.6H256.699V34.6ZM253.949 34.6V33.6C253.399 33.6 252.916 33.818 252.542 34.1929L253.249 34.9L253.956 35.6071C253.966 35.5965 253.973 35.5919 253.974 35.5909C253.975 35.5901 253.973 35.5918 253.968 35.5941C253.962 35.5965 253.956 35.5983 253.951 35.5993C253.946 35.6003 253.945 35.6 253.949 35.6V34.6ZM253.249 34.9L252.48 34.2598C252.16 34.6442 251.999 35.1056 251.999 35.6H252.999H253.999C253.999 35.5725 254.003 35.5621 254.003 35.5613C254.003 35.5602 254.004 35.5586 254.005 35.556C254.007 35.5533 254.01 35.548 254.017 35.5402L253.249 34.9ZM252.999 35.6H251.999V41.35H252.999H253.999V35.6H252.999ZM252.999 41.35H251.999C251.999 41.8444 252.16 42.3058 252.48 42.6902L253.249 42.05L254.017 41.4098C254.01 41.402 254.007 41.3967 254.005 41.394C254.004 41.3914 254.003 41.3898 254.003 41.3887C254.003 41.3879 253.999 41.3775 253.999 41.35H252.999ZM253.249 42.05L252.542 42.7571C252.916 43.132 253.399 43.35 253.949 43.35V42.35V41.35C253.945 41.35 253.946 41.3497 253.951 41.3507C253.956 41.3517 253.962 41.3535 253.968 41.3559C253.973 41.3582 253.975 41.3599 253.974 41.3591C253.973 41.3581 253.966 41.3535 253.956 41.3429L253.249 42.05ZM253.949 42.35V43.35H258.449V42.35V41.35H253.949V42.35ZM258.449 42.35L258.433 43.3499C260.331 43.3805 261.582 43.8959 262.37 44.7347C263.166 45.582 263.649 46.9274 263.649 48.95H264.649H265.649C265.649 46.6393 265.098 44.718 263.827 43.3653C262.549 42.0041 260.699 41.3862 258.465 41.3501L258.449 42.35ZM264.649 48.95H263.649V55.9H264.649H265.649V48.95H264.649ZM264.649 55.9H263.649C263.649 57.9609 263.163 59.3205 262.37 60.1653C261.587 60.9984 260.345 61.5 258.449 61.5V62.5V63.5C260.686 63.5 262.543 62.9016 263.827 61.5347C265.101 60.1795 265.649 58.2391 265.649 55.9H264.649ZM258.449 62.5V61.5H252.549V62.5V63.5H258.449V62.5ZM252.549 62.5V61.5C250.653 61.5 249.41 60.9984 248.627 60.1653C247.834 59.3205 247.349 57.9609 247.349 55.9H246.349H245.349C245.349 58.2391 245.897 60.1795 247.17 61.5347C248.454 62.9016 250.311 63.5 252.549 63.5V62.5ZM246.349 55.9H247.349V52.55H246.349H245.349V55.9H246.349ZM246.349 52.55V53.55H252.999V52.55V51.55H246.349V52.55ZM252.999 52.55H251.999V56.15H252.999H253.999V52.55H252.999ZM252.999 56.15H251.999C251.999 56.6444 252.16 57.1058 252.48 57.4902L253.249 56.85L254.017 56.2098C254.01 56.202 254.007 56.1967 254.005 56.194C254.004 56.1914 254.003 56.1898 254.003 56.1887C254.003 56.1879 253.999 56.1775 253.999 56.15H252.999ZM253.249 56.85L252.542 57.5571C252.916 57.932 253.399 58.15 253.949 58.15V57.15V56.15C253.945 56.15 253.946 56.1497 253.951 56.1507C253.956 56.1517 253.962 56.1535 253.968 56.1559C253.973 56.1582 253.975 56.1599 253.974 56.1591C253.973 56.1581 253.966 56.1535 253.956 56.1429L253.249 56.85ZM253.949 57.15V58.15H257.049V57.15V56.15H253.949V57.15ZM257.049 57.15V58.15C257.604 58.15 258.105 57.9245 258.467 57.4902L257.699 56.85L256.93 56.2098C256.933 56.2063 256.954 56.1848 256.992 56.167C257.03 56.1496 257.054 56.15 257.049 56.15V57.15ZM257.699 56.85L258.406 57.5571C258.781 57.1822 258.999 56.6992 258.999 56.15H257.999H256.999C256.999 56.1538 256.998 56.1526 256.999 56.1476C257 56.1425 257.002 56.1367 257.004 56.1311C257.007 56.1256 257.009 56.1233 257.008 56.1245C257.007 56.1259 257.002 56.1322 256.992 56.1429L257.699 56.85ZM257.999 56.15H258.999V49.8H257.999H256.999V56.15H257.999ZM257.999 49.8H258.999C258.999 49.2508 258.781 48.7678 258.406 48.3929L257.699 49.1L256.992 49.8071C257.002 49.8178 257.007 49.8241 257.008 49.8255C257.009 49.8267 257.007 49.8244 257.004 49.8189C257.002 49.8133 257 49.8075 256.999 49.8024C256.998 49.7974 256.999 49.7962 256.999 49.8H257.999ZM257.699 49.1L258.467 48.4598C258.105 48.0255 257.604 47.8 257.049 47.8V48.8V49.8C257.054 49.8 257.03 49.8004 256.992 49.783C256.954 49.7652 256.933 49.7437 256.93 49.7402L257.699 49.1ZM257.049 48.8V47.8H252.549V48.8V49.8H257.049V48.8ZM252.549 48.8V47.8C250.653 47.8 249.41 47.2984 248.627 46.4653C247.834 45.6205 247.349 44.2609 247.349 42.2H246.349H245.349C245.349 44.5391 245.897 46.4795 247.17 47.8347C248.454 49.2016 250.311 49.8 252.549 49.8V48.8ZM246.349 42.2H247.349V35.75H246.349H245.349V42.2H246.349ZM246.349 35.75H247.349C247.349 33.6891 247.834 32.3295 248.627 31.4847C249.41 30.6516 250.653 30.15 252.549 30.15V29.15V28.15C250.311 28.15 248.454 28.7484 247.17 30.1153C245.897 31.4705 245.349 33.4109 245.349 35.75H246.349ZM252.549 29.15V30.15H258.099V29.15V28.15H252.549V29.15ZM258.099 29.15V30.15C259.995 30.15 261.237 30.6516 262.02 31.4847C262.813 32.3295 263.299 33.6891 263.299 35.75H264.299H265.299C265.299 33.4109 264.751 31.4705 263.477 30.1153C262.193 28.7484 260.336 28.15 258.099 28.15V29.15ZM264.299 35.75H263.299V38.15H264.299H265.299V35.75H264.299ZM276.249 56.2H275.249V57.2H276.249V56.2ZM283.999 56.2H284.999V55.2H283.999V56.2ZM283.999 62V63H284.999V62H283.999ZM269.249 62H268.249V63H269.249V62ZM269.249 29.65V28.65H268.249V29.65H269.249ZM283.999 29.65H284.999V28.65H283.999V29.65ZM283.999 35.35V36.35H284.999V35.35H283.999ZM276.249 35.35V34.35H275.249V35.35H276.249ZM276.249 42.95H275.249V43.95H276.249V42.95ZM283.499 42.95H284.499V41.95H283.499V42.95ZM283.499 48.45V49.45H284.499V48.45H283.499ZM276.249 48.45V47.45H275.249V48.45H276.249ZM276.249 56.2V57.2H283.999V56.2V55.2H276.249V56.2ZM283.999 56.2H282.999V62H283.999H284.999V56.2H283.999ZM283.999 62V61H269.249V62V63H283.999V62ZM269.249 62H270.249V29.65H269.249H268.249V62H269.249ZM269.249 29.65V30.65H283.999V29.65V28.65H269.249V29.65ZM283.999 29.65H282.999V35.35H283.999H284.999V29.65H283.999ZM283.999 35.35V34.35H276.249V35.35V36.35H283.999V35.35ZM276.249 35.35H275.249V42.95H276.249H277.249V35.35H276.249ZM276.249 42.95V43.95H283.499V42.95V41.95H276.249V42.95ZM283.499 42.95H282.499V48.45H283.499H284.499V42.95H283.499ZM283.499 48.45V47.45H276.249V48.45V49.45H283.499V48.45ZM276.249 48.45H275.249V56.2H276.249H277.249V48.45H276.249ZM286.198 35.6H285.198V36.6H286.198V35.6ZM286.198 29.65V28.65H285.198V29.65H286.198ZM303.698 29.65H304.698V28.65H303.698V29.65ZM303.698 35.6V36.6H304.698V35.6H303.698ZM298.448 35.6V34.6H297.448V35.6H298.448ZM298.448 62V63H299.448V62H298.448ZM291.448 62H290.448V63H291.448V62ZM291.448 35.6H292.448V34.6H291.448V35.6ZM286.198 35.6H287.198V29.65H286.198H285.198V35.6H286.198ZM286.198 29.65V30.65H303.698V29.65V28.65H286.198V29.65ZM303.698 29.65H302.698V35.6H303.698H304.698V29.65H303.698ZM303.698 35.6V34.6H298.448V35.6V36.6H303.698V35.6ZM298.448 35.6H297.448V62H298.448H299.448V35.6H298.448ZM298.448 62V61H291.448V62V63H298.448V62ZM291.448 62H292.448V35.6H291.448H290.448V62H291.448ZM291.448 35.6V34.6H286.198V35.6V36.6H291.448V35.6ZM305.046 35.6H304.046V36.6H305.046V35.6ZM305.046 29.65V28.65H304.046V29.65H305.046ZM322.546 29.65H323.546V28.65H322.546V29.65ZM322.546 35.6V36.6H323.546V35.6H322.546ZM317.296 35.6V34.6H316.296V35.6H317.296ZM317.296 62V63H318.296V62H317.296ZM310.296 62H309.296V63H310.296V62ZM310.296 35.6H311.296V34.6H310.296V35.6ZM305.046 35.6H306.046V29.65H305.046H304.046V35.6H305.046ZM305.046 29.65V30.65H322.546V29.65V28.65H305.046V29.65ZM322.546 29.65H321.546V35.6H322.546H323.546V29.65H322.546ZM322.546 35.6V34.6H317.296V35.6V36.6H322.546V35.6ZM317.296 35.6H316.296V62H317.296H318.296V35.6H317.296ZM317.296 62V61H310.296V62V63H317.296V62ZM310.296 62H311.296V35.6H310.296H309.296V62H310.296ZM310.296 35.6V34.6H305.046V35.6V36.6H310.296V35.6ZM332.743 29.65H333.743V28.65H332.743V29.65ZM332.743 62V63H333.743V62H332.743ZM325.743 62H324.743V63H325.743V62ZM325.743 29.65V28.65H324.743V29.65H325.743ZM332.743 29.65H331.743V62H332.743H333.743V29.65H332.743ZM332.743 62V61H325.743V62V63H332.743V62ZM325.743 62H326.743V29.65H325.743H324.743V62H325.743ZM325.743 29.65V30.65H332.743V29.65V28.65H325.743V29.65ZM356.5 62V63H357.5V62H356.5ZM349.5 62H348.5V63H349.5V62ZM349.2 34.45L348.432 35.0902L348.461 35.125L348.493 35.1571L349.2 34.45ZM345.15 34.45L344.443 33.7429L344.411 33.775L344.382 33.8098L345.15 34.45ZM344.9 62V63H345.9V62H344.9ZM337.9 62H336.9V63H337.9V62ZM356.5 62V61H349.5V62V63H356.5V62ZM349.5 62H350.5V35.15H349.5H348.5V62H349.5ZM349.5 35.15H350.5C350.5 34.6008 350.282 34.1178 349.907 33.7429L349.2 34.45L348.493 35.1571C348.504 35.1678 348.508 35.1741 348.509 35.1755C348.51 35.1767 348.508 35.1744 348.506 35.1689C348.504 35.1633 348.502 35.1575 348.501 35.1524C348.5 35.1474 348.5 35.1462 348.5 35.15H349.5ZM349.2 34.45L349.968 33.8098C349.606 33.3755 349.105 33.15 348.55 33.15V34.15V35.15C348.556 35.15 348.531 35.1504 348.494 35.133C348.455 35.1152 348.435 35.0937 348.432 35.0902L349.2 34.45ZM348.55 34.15V33.15H345.85V34.15V35.15H348.55V34.15ZM345.85 34.15V33.15C345.301 33.15 344.818 33.368 344.443 33.7429L345.15 34.45L345.857 35.1571C345.868 35.1465 345.874 35.1419 345.876 35.1409C345.877 35.1401 345.875 35.1418 345.869 35.1441C345.864 35.1465 345.858 35.1483 345.853 35.1493C345.848 35.1503 345.846 35.15 345.85 35.15V34.15ZM345.15 34.45L344.382 33.8098C344.062 34.1942 343.9 34.6556 343.9 35.15H344.9H345.9C345.9 35.1225 345.904 35.1121 345.904 35.1113C345.905 35.1102 345.906 35.1086 345.907 35.106C345.909 35.1033 345.912 35.098 345.918 35.0902L345.15 34.45ZM344.9 35.15H343.9V62H344.9H345.9V35.15H344.9ZM344.9 62V61H337.9V62V63H344.9V62ZM337.9 62H338.9V35.75H337.9H336.9V62H337.9ZM337.9 35.75H338.9C338.9 33.6891 339.385 32.3295 340.179 31.4847C340.962 30.6516 342.204 30.15 344.1 30.15V29.15V28.15C341.863 28.15 340.005 28.7484 338.721 30.1153C337.448 31.4705 336.9 33.4109 336.9 35.75H337.9ZM344.1 29.15V30.15H350.3V29.15V28.15H344.1V29.15ZM350.3 29.15V30.15C352.196 30.15 353.439 30.6516 354.221 31.4847C355.015 32.3295 355.5 33.6891 355.5 35.75H356.5H357.5C357.5 33.4109 356.952 31.4705 355.679 30.1153C354.395 28.7484 352.538 28.15 350.3 28.15V29.15ZM356.5 35.75H355.5V62H356.5H357.5V35.75H356.5ZM370.642 49.15H369.642V50.15H370.642V49.15ZM370.642 44V43H369.642V44H370.642ZM379.892 44H380.892V43H379.892V44ZM379.892 38.8V39.8H380.892V38.8H379.892ZM373.242 38.8H372.242V39.8H373.242V38.8ZM372.942 34.2L372.174 34.8402L372.203 34.875L372.235 34.9071L372.942 34.2ZM368.442 34.2L367.735 33.4929L367.703 33.525L367.674 33.5598L368.442 34.2ZM368.442 57.4L367.674 58.0402L367.703 58.075L367.735 58.1071L368.442 57.4ZM372.942 57.4L372.235 56.6929L372.203 56.725L372.174 56.7598L372.942 57.4ZM373.242 49.15H374.242V48.15H373.242V49.15ZM370.642 49.15H371.642V44H370.642H369.642V49.15H370.642ZM370.642 44V45H379.892V44V43H370.642V44ZM379.892 44H378.892V55.9H379.892H380.892V44H379.892ZM379.892 55.9H378.892C378.892 57.9609 378.407 59.3205 377.614 60.1653C376.831 60.9984 375.588 61.5 373.692 61.5V62.5V63.5C375.93 63.5 377.787 62.9016 379.071 61.5347C380.344 60.1795 380.892 58.2391 380.892 55.9H379.892ZM373.692 62.5V61.5H367.392V62.5V63.5H373.692V62.5ZM367.392 62.5V61.5C365.496 61.5 364.254 60.9984 363.471 60.1653C362.678 59.3205 362.192 57.9609 362.192 55.9H361.192H360.192C360.192 58.2391 360.741 60.1795 362.014 61.5347C363.298 62.9016 365.155 63.5 367.392 63.5V62.5ZM361.192 55.9H362.192V35.75H361.192H360.192V55.9H361.192ZM361.192 35.75H362.192C362.192 33.6891 362.678 32.3295 363.471 31.4847C364.254 30.6516 365.496 30.15 367.392 30.15V29.15V28.15C365.155 28.15 363.298 28.7484 362.014 30.1153C360.741 31.4705 360.192 33.4109 360.192 35.75H361.192ZM367.392 29.15V30.15H373.692V29.15V28.15H367.392V29.15ZM373.692 29.15V30.15C375.588 30.15 376.831 30.6516 377.614 31.4847C378.407 32.3295 378.892 33.6891 378.892 35.75H379.892H380.892C380.892 33.4109 380.344 31.4705 379.071 30.1153C377.787 28.7484 375.93 28.15 373.692 28.15V29.15ZM379.892 35.75H378.892V38.8H379.892H380.892V35.75H379.892ZM379.892 38.8V37.8H373.242V38.8V39.8H379.892V38.8ZM373.242 38.8H374.242V34.9H373.242H372.242V38.8H373.242ZM373.242 34.9H374.242C374.242 34.3508 374.024 33.8678 373.65 33.4929L372.942 34.2L372.235 34.9071C372.246 34.9178 372.25 34.9241 372.251 34.9255C372.252 34.9267 372.251 34.9244 372.248 34.9189C372.246 34.9133 372.244 34.9075 372.243 34.9024C372.242 34.8974 372.242 34.8962 372.242 34.9H373.242ZM372.942 34.2L373.711 33.5598C373.349 33.1255 372.848 32.9 372.292 32.9V33.9V34.9C372.298 34.9 372.274 34.9004 372.236 34.883C372.197 34.8652 372.177 34.8437 372.174 34.8402L372.942 34.2ZM372.292 33.9V32.9H369.142V33.9V34.9H372.292V33.9ZM369.142 33.9V32.9C368.593 32.9 368.11 33.118 367.735 33.4929L368.442 34.2L369.149 34.9071C369.16 34.8965 369.166 34.8919 369.168 34.8909C369.169 34.8901 369.167 34.8918 369.161 34.8941C369.156 34.8965 369.15 34.8983 369.145 34.8993C369.14 34.9003 369.139 34.9 369.142 34.9V33.9ZM368.442 34.2L367.674 33.5598C367.354 33.9442 367.192 34.4056 367.192 34.9H368.192H369.192C369.192 34.8725 369.196 34.8621 369.197 34.8613C369.197 34.8602 369.198 34.8586 369.199 34.856C369.201 34.8533 369.204 34.848 369.211 34.8402L368.442 34.2ZM368.192 34.9H367.192V56.7H368.192H369.192V34.9H368.192ZM368.192 56.7H367.192C367.192 57.1944 367.354 57.6558 367.674 58.0402L368.442 57.4L369.211 56.7598C369.204 56.752 369.201 56.7467 369.199 56.744C369.198 56.7414 369.197 56.7398 369.197 56.7387C369.196 56.7379 369.192 56.7275 369.192 56.7H368.192ZM368.442 57.4L367.735 58.1071C368.11 58.482 368.593 58.7 369.142 58.7V57.7V56.7C369.139 56.7 369.14 56.6997 369.145 56.7007C369.15 56.7017 369.156 56.7035 369.161 56.7059C369.167 56.7082 369.169 56.7099 369.168 56.7091C369.166 56.7081 369.16 56.7035 369.149 56.6929L368.442 57.4ZM369.142 57.7V58.7H372.292V57.7V56.7H369.142V57.7ZM372.292 57.7V58.7C372.848 58.7 373.349 58.4745 373.711 58.0402L372.942 57.4L372.174 56.7598C372.177 56.7563 372.197 56.7348 372.236 56.717C372.274 56.6996 372.298 56.7 372.292 56.7V57.7ZM372.942 57.4L373.65 58.1071C374.024 57.7322 374.242 57.2492 374.242 56.7H373.242H372.242C372.242 56.7038 372.242 56.7026 372.243 56.6976C372.244 56.6925 372.246 56.6867 372.248 56.6811C372.251 56.6756 372.252 56.6733 372.251 56.6745C372.25 56.6759 372.246 56.6822 372.235 56.6929L372.942 57.4ZM373.242 56.7H374.242V49.15H373.242H372.242V56.7H373.242ZM373.242 49.15V48.15H370.642V49.15V50.15H373.242V49.15ZM401.701 38.15V39.15H402.701V38.15H401.701ZM395.051 38.15H394.051V39.15H395.051V38.15ZM394.751 34.9L393.983 35.5402L394.012 35.575L394.044 35.6071L394.751 34.9ZM390.651 34.9L389.944 34.1929L389.912 34.225L389.883 34.2598L390.651 34.9ZM390.651 42.05L389.883 42.6902L389.912 42.725L389.944 42.7571L390.651 42.05ZM395.851 42.35L395.867 41.3501L395.859 41.35H395.851V42.35ZM383.751 52.55V51.55H382.751V52.55H383.751ZM390.401 52.55H391.401V51.55H390.401V52.55ZM390.651 56.85L389.883 57.4902L389.912 57.525L389.944 57.5571L390.651 56.85ZM395.101 56.85L394.394 56.1429L394.362 56.175L394.333 56.2098L395.101 56.85ZM395.101 49.1L394.333 49.7402L394.362 49.775L394.394 49.8071L395.101 49.1ZM401.701 38.15V37.15H395.051V38.15V39.15H401.701V38.15ZM395.051 38.15H396.051V35.6H395.051H394.051V38.15H395.051ZM395.051 35.6H396.051C396.051 35.0508 395.833 34.5678 395.458 34.1929L394.751 34.9L394.044 35.6071C394.055 35.6178 394.059 35.6241 394.06 35.6255C394.061 35.6267 394.059 35.6244 394.057 35.6189C394.054 35.6133 394.053 35.6075 394.052 35.6024C394.051 35.5974 394.051 35.5962 394.051 35.6H395.051ZM394.751 34.9L395.519 34.2598C395.157 33.8255 394.656 33.6 394.101 33.6V34.6V35.6C394.107 35.6 394.082 35.6004 394.044 35.583C394.006 35.5652 393.986 35.5437 393.983 35.5402L394.751 34.9ZM394.101 34.6V33.6H391.351V34.6V35.6H394.101V34.6ZM391.351 34.6V33.6C390.802 33.6 390.319 33.818 389.944 34.1929L390.651 34.9L391.358 35.6071C391.369 35.5965 391.375 35.5919 391.376 35.5909C391.378 35.5901 391.375 35.5918 391.37 35.5941C391.364 35.5965 391.358 35.5983 391.353 35.5993C391.348 35.6003 391.347 35.6 391.351 35.6V34.6ZM390.651 34.9L389.883 34.2598C389.562 34.6442 389.401 35.1056 389.401 35.6H390.401H391.401C391.401 35.5725 391.405 35.5621 391.405 35.5613C391.406 35.5602 391.406 35.5586 391.408 35.556C391.409 35.5533 391.413 35.548 391.419 35.5402L390.651 34.9ZM390.401 35.6H389.401V41.35H390.401H391.401V35.6H390.401ZM390.401 41.35H389.401C389.401 41.8444 389.562 42.3058 389.883 42.6902L390.651 42.05L391.419 41.4098C391.413 41.402 391.409 41.3967 391.408 41.394C391.406 41.3914 391.406 41.3898 391.405 41.3887C391.405 41.3879 391.401 41.3775 391.401 41.35H390.401ZM390.651 42.05L389.944 42.7571C390.319 43.132 390.802 43.35 391.351 43.35V42.35V41.35C391.347 41.35 391.348 41.3497 391.353 41.3507C391.358 41.3517 391.364 41.3535 391.37 41.3559C391.375 41.3582 391.378 41.3599 391.376 41.3591C391.375 41.3581 391.369 41.3535 391.358 41.3429L390.651 42.05ZM391.351 42.35V43.35H395.851V42.35V41.35H391.351V42.35ZM395.851 42.35L395.835 43.3499C397.734 43.3805 398.984 43.8959 399.772 44.7347C400.568 45.582 401.051 46.9274 401.051 48.95H402.051H403.051C403.051 46.6393 402.501 44.718 401.23 43.3653C399.951 42.0041 398.101 41.3862 395.867 41.3501L395.851 42.35ZM402.051 48.95H401.051V55.9H402.051H403.051V48.95H402.051ZM402.051 55.9H401.051C401.051 57.9609 400.566 59.3205 399.772 60.1653C398.99 60.9984 397.747 61.5 395.851 61.5V62.5V63.5C398.088 63.5 399.946 62.9016 401.23 61.5347C402.503 60.1795 403.051 58.2391 403.051 55.9H402.051ZM395.851 62.5V61.5H389.951V62.5V63.5H395.851V62.5ZM389.951 62.5V61.5C388.055 61.5 386.812 60.9984 386.03 60.1653C385.236 59.3205 384.751 57.9609 384.751 55.9H383.751H382.751C382.751 58.2391 383.299 60.1795 384.572 61.5347C385.856 62.9016 387.714 63.5 389.951 63.5V62.5ZM383.751 55.9H384.751V52.55H383.751H382.751V55.9H383.751ZM383.751 52.55V53.55H390.401V52.55V51.55H383.751V52.55ZM390.401 52.55H389.401V56.15H390.401H391.401V52.55H390.401ZM390.401 56.15H389.401C389.401 56.6444 389.562 57.1058 389.883 57.4902L390.651 56.85L391.419 56.2098C391.413 56.202 391.409 56.1967 391.408 56.194C391.406 56.1914 391.406 56.1898 391.405 56.1887C391.405 56.1879 391.401 56.1775 391.401 56.15H390.401ZM390.651 56.85L389.944 57.5571C390.319 57.932 390.802 58.15 391.351 58.15V57.15V56.15C391.347 56.15 391.348 56.1497 391.353 56.1507C391.358 56.1517 391.364 56.1535 391.37 56.1559C391.375 56.1582 391.378 56.1599 391.376 56.1591C391.375 56.1581 391.369 56.1535 391.358 56.1429L390.651 56.85ZM391.351 57.15V58.15H394.451V57.15V56.15H391.351V57.15ZM394.451 57.15V58.15C395.006 58.15 395.507 57.9245 395.869 57.4902L395.101 56.85L394.333 56.2098C394.336 56.2063 394.356 56.1848 394.394 56.167C394.432 56.1496 394.457 56.15 394.451 56.15V57.15ZM395.101 56.85L395.808 57.5571C396.183 57.1822 396.401 56.6992 396.401 56.15H395.401H394.401C394.401 56.1538 394.401 56.1526 394.402 56.1476C394.403 56.1425 394.404 56.1367 394.407 56.1311C394.409 56.1256 394.411 56.1233 394.41 56.1245C394.409 56.1259 394.405 56.1322 394.394 56.1429L395.101 56.85ZM395.401 56.15H396.401V49.8H395.401H394.401V56.15H395.401ZM395.401 49.8H396.401C396.401 49.2508 396.183 48.7678 395.808 48.3929L395.101 49.1L394.394 49.8071C394.405 49.8178 394.409 49.8241 394.41 49.8255C394.411 49.8267 394.409 49.8244 394.407 49.8189C394.404 49.8133 394.403 49.8075 394.402 49.8024C394.401 49.7974 394.401 49.7962 394.401 49.8H395.401ZM395.101 49.1L395.869 48.4598C395.507 48.0255 395.006 47.8 394.451 47.8V48.8V49.8C394.457 49.8 394.432 49.8004 394.394 49.783C394.356 49.7652 394.336 49.7437 394.333 49.7402L395.101 49.1ZM394.451 48.8V47.8H389.951V48.8V49.8H394.451V48.8ZM389.951 48.8V47.8C388.055 47.8 386.812 47.2984 386.03 46.4653C385.236 45.6205 384.751 44.2609 384.751 42.2H383.751H382.751C382.751 44.5391 383.299 46.4795 384.572 47.8347C385.856 49.2016 387.714 49.8 389.951 49.8V48.8ZM383.751 42.2H384.751V35.75H383.751H382.751V42.2H383.751ZM383.751 35.75H384.751C384.751 33.6891 385.236 32.3295 386.03 31.4847C386.812 30.6516 388.055 30.15 389.951 30.15V29.15V28.15C387.714 28.15 385.856 28.7484 384.572 30.1153C383.299 31.4705 382.751 33.4109 382.751 35.75H383.751ZM389.951 29.15V30.15H395.501V29.15V28.15H389.951V29.15ZM395.501 29.15V30.15C397.397 30.15 398.64 30.6516 399.422 31.4847C400.216 32.3295 400.701 33.6891 400.701 35.75H401.701H402.701C402.701 33.4109 402.153 31.4705 400.88 30.1153C399.596 28.7484 397.738 28.15 395.501 28.15V29.15ZM401.701 35.75H400.701V38.15H401.701H402.701V35.75H401.701Z" fill="black" mask="url(#path-5-inside-2_44_444)"/>
</svg>
