<svg width="1819" height="1005" viewBox="0 0 1819 1005" fill="none" xmlns="http://www.w3.org/2000/svg">
<rect x="1189.5" y="0.5" width="629" height="1004" fill="black" stroke="#3C3C3C"/>
<path d="M1351.12 95.01V87.8H1364.07V104.46C1364.07 110.62 1361.18 113.7 1355.39 113.7H1346.57C1340.79 113.7 1337.89 110.62 1337.89 104.46V76.25C1337.89 70.09 1340.79 67.01 1346.57 67.01H1355.39C1361.18 67.01 1364.07 70.09 1364.07 76.25V80.52H1354.76V75.06C1354.76 74.6867 1354.62 74.36 1354.34 74.08C1354.11 73.8 1353.81 73.66 1353.43 73.66H1349.02C1348.65 73.66 1348.32 73.8 1348.04 74.08C1347.81 74.36 1347.69 74.6867 1347.69 75.06V105.58C1347.69 105.953 1347.81 106.28 1348.04 106.56C1348.32 106.84 1348.65 106.98 1349.02 106.98H1353.43C1353.81 106.98 1354.11 106.84 1354.34 106.56C1354.62 106.28 1354.76 105.953 1354.76 105.58V95.01H1351.12ZM1387.46 67.01C1393.25 67.01 1396.14 70.09 1396.14 76.25V113H1386.34V97.81H1379.27V113H1369.47V76.25C1369.47 70.09 1372.37 67.01 1378.15 67.01H1387.46ZM1379.27 90.25H1386.34V75.06C1386.34 74.6867 1386.2 74.36 1385.92 74.08C1385.69 73.8 1385.39 73.66 1385.01 73.66H1380.6C1380.23 73.66 1379.9 73.8 1379.62 74.08C1379.39 74.36 1379.27 74.6867 1379.27 75.06V90.25ZM1413.18 113H1403.38V76.25C1403.38 70.09 1406.27 67.01 1412.06 67.01H1417.24C1420.65 67.01 1423.07 68.13 1424.52 70.37C1425.87 68.13 1428.3 67.01 1431.8 67.01H1436.98C1442.77 67.01 1445.66 70.09 1445.66 76.25V113H1435.86V75.41C1435.86 75.0367 1435.72 74.71 1435.44 74.43C1435.21 74.15 1434.9 74.01 1434.53 74.01H1430.75C1430.38 74.01 1430.05 74.15 1429.77 74.43C1429.54 74.71 1429.42 75.0367 1429.42 75.41V113H1419.62V75.41C1419.62 75.0367 1419.48 74.71 1419.2 74.43C1418.97 74.15 1418.66 74.01 1418.29 74.01H1414.51C1414.14 74.01 1413.81 74.15 1413.53 74.43C1413.3 74.71 1413.18 75.0367 1413.18 75.41V113ZM1462.19 104.88H1473.04V113H1452.39V67.71H1473.04V75.69H1462.19V86.33H1472.34V94.03H1462.19V104.88ZM1510.5 67.71C1516.29 67.71 1519.18 70.79 1519.18 76.95V85.98C1519.18 92.14 1516.29 95.22 1510.5 95.22H1502.59V113H1492.79V67.71H1510.5ZM1509.38 87.1V75.83C1509.38 75.4567 1509.24 75.13 1508.96 74.85C1508.73 74.57 1508.43 74.43 1508.05 74.43H1502.59V88.5H1508.05C1508.43 88.5 1508.73 88.36 1508.96 88.08C1509.24 87.8 1509.38 87.4733 1509.38 87.1ZM1542.09 67.01C1547.88 67.01 1550.77 70.09 1550.77 76.25V113H1540.97V97.81H1533.9V113H1524.1V76.25C1524.1 70.09 1527 67.01 1532.78 67.01H1542.09ZM1533.9 90.25H1540.97V75.06C1540.97 74.6867 1540.83 74.36 1540.55 74.08C1540.32 73.8 1540.02 73.66 1539.64 73.66H1535.23C1534.86 73.66 1534.53 73.8 1534.25 74.08C1534.02 74.36 1533.9 74.6867 1533.9 75.06V90.25ZM1574.25 67.71H1584.05V104.46C1584.05 110.62 1581.15 113.7 1575.37 113.7H1566.69C1560.9 113.7 1558.01 110.62 1558.01 104.46V67.71H1567.81V105.3C1567.81 105.673 1567.92 106 1568.16 106.28C1568.44 106.56 1568.76 106.7 1569.14 106.7H1572.92C1573.29 106.7 1573.59 106.56 1573.83 106.28C1574.11 106 1574.25 105.673 1574.25 105.3V67.71ZM1615.88 79.61H1606.57V76.04C1606.57 75.6667 1606.43 75.34 1606.15 75.06C1605.92 74.78 1605.62 74.64 1605.24 74.64H1601.39C1601.02 74.64 1600.69 74.78 1600.41 75.06C1600.18 75.34 1600.06 75.6667 1600.06 76.04V84.09C1600.06 84.4633 1600.18 84.79 1600.41 85.07C1600.69 85.35 1601.02 85.49 1601.39 85.49H1607.69C1613.48 85.5833 1616.37 88.6633 1616.37 94.73V104.46C1616.37 110.62 1613.48 113.7 1607.69 113.7H1599.43C1593.65 113.7 1590.75 110.62 1590.75 104.46V99.77H1600.06V104.81C1600.06 105.183 1600.18 105.51 1600.41 105.79C1600.69 106.07 1601.02 106.21 1601.39 106.21H1605.73C1606.11 106.21 1606.41 106.07 1606.64 105.79C1606.92 105.51 1607.06 105.183 1607.06 104.81V95.92C1607.06 95.5467 1606.92 95.22 1606.64 94.94C1606.41 94.66 1606.11 94.52 1605.73 94.52H1599.43C1593.65 94.52 1590.75 91.44 1590.75 85.28V76.25C1590.75 70.09 1593.65 67.01 1599.43 67.01H1607.2C1612.99 67.01 1615.88 70.09 1615.88 76.25V79.61ZM1632.61 104.88H1643.46V113H1622.81V67.71H1643.46V75.69H1632.61V86.33H1642.76V94.03H1632.61V104.88ZM1667.12 67.71C1672.91 67.71 1675.8 70.79 1675.8 76.95V103.76C1675.8 109.92 1672.91 113 1667.12 113H1649.13V67.71H1667.12ZM1666 104.88V75.76C1666 75.3867 1665.86 75.06 1665.58 74.78C1665.35 74.5 1665.05 74.36 1664.67 74.36H1658.93V106.28H1664.67C1665.05 106.28 1665.35 106.14 1665.58 105.86C1665.86 105.58 1666 105.253 1666 104.88Z" fill="white"/>
<rect x="0.5" y="0.5" width="1117" height="721" fill="black" stroke="#3C3C3C"/>
<rect x="2" y="1" width="1114" height="34" fill="black" stroke="#3C3C3C" stroke-width="2"/>
<path d="M13 13H25M13 16H25M13 19H25M13 22H25" stroke="#E2E2E2"/>
<rect x="37" y="10" width="108" height="15" fill="#D9D9D9"/>
<path d="M42.5087 18.19V22H40.4087V12.295H42.5087V16.36H44.1737V12.295H46.2737V22H44.1737V18.19H42.5087ZM54.2419 12.295H56.3419V20.17C56.3419 21.49 55.7219 22.15 54.4819 22.15H52.6219C51.3819 22.15 50.7619 21.49 50.7619 20.17V12.295H52.8619V20.35C52.8619 20.43 52.8869 20.5 52.9369 20.56C52.9969 20.62 53.0669 20.65 53.1469 20.65H53.9569C54.0369 20.65 54.1019 20.62 54.1519 20.56C54.2119 20.5 54.2419 20.43 54.2419 20.35V12.295ZM64.6338 12.295C65.8738 12.295 66.4938 12.955 66.4938 14.275V20.02C66.4938 21.34 65.8738 22 64.6338 22H60.7788V12.295H64.6338ZM64.3938 20.26V14.02C64.3938 13.94 64.3638 13.87 64.3038 13.81C64.2538 13.75 64.1888 13.72 64.1088 13.72H62.8788V20.56H64.1088C64.1888 20.56 64.2538 20.53 64.3038 20.47C64.3638 20.41 64.3938 20.34 64.3938 20.26ZM76.5363 14.08V12.295H81.7863V14.08H80.2113V22H78.1113V14.08H76.5363ZM91.4606 14.125V20.17C91.4606 21.49 90.8406 22.15 89.6006 22.15H87.6056C86.3656 22.15 85.7456 21.49 85.7456 20.17V14.125C85.7456 12.805 86.3656 12.145 87.6056 12.145H89.6006C90.8406 12.145 91.4606 12.805 91.4606 14.125ZM89.3606 20.41V13.87C89.3606 13.79 89.3306 13.72 89.2706 13.66C89.2206 13.6 89.1556 13.57 89.0756 13.57H88.1306C88.0506 13.57 87.9806 13.6 87.9206 13.66C87.8706 13.72 87.8456 13.79 87.8456 13.87V20.41C87.8456 20.49 87.8706 20.56 87.9206 20.62C87.9806 20.68 88.0506 20.71 88.1306 20.71H89.0756C89.1556 20.71 89.2206 20.68 89.2706 20.62C89.3306 20.56 89.3606 20.49 89.3606 20.41ZM101.726 14.125V20.17C101.726 21.49 101.106 22.15 99.8662 22.15H97.8712C96.6312 22.15 96.0112 21.49 96.0112 20.17V14.125C96.0112 12.805 96.6312 12.145 97.8712 12.145H99.8662C101.106 12.145 101.726 12.805 101.726 14.125ZM99.6262 20.41V13.87C99.6262 13.79 99.5962 13.72 99.5362 13.66C99.4862 13.6 99.4212 13.57 99.3412 13.57H98.3962C98.3162 13.57 98.2462 13.6 98.1862 13.66C98.1362 13.72 98.1112 13.79 98.1112 13.87V20.41C98.1112 20.49 98.1362 20.56 98.1862 20.62C98.2462 20.68 98.3162 20.71 98.3962 20.71H99.3412C99.4212 20.71 99.4862 20.68 99.5362 20.62C99.5962 20.56 99.6262 20.49 99.6262 20.41ZM108.377 20.23H110.672V22H106.277V12.295H108.377V20.23ZM126.745 12.295L125.095 16.75L127.06 22H124.915L123.475 18.16H122.8V22H120.7V12.295H122.8V16.36H123.31L124.825 12.295H126.745ZM132.875 12.295V22H130.775V12.295H132.875ZM136.882 14.08V12.295H142.132V14.08H140.557V22H138.457V14.08H136.882Z" fill="black"/>
<path d="M197.521 12.295H199.381L200.506 19.6L201.346 12.295H203.386L201.811 22H199.426L198.451 16.045L197.476 22H195.091L193.516 12.295H195.556L196.396 19.6L197.521 12.295ZM209.641 20.26H211.966V22H207.541V12.295H211.966V14.005H209.641V16.285H211.816V17.935H209.641V20.26ZM220.036 12.145C221.276 12.145 221.896 12.805 221.896 14.125V22H219.796V18.745H218.281V22H216.181V14.125C216.181 12.805 216.801 12.145 218.041 12.145H220.036ZM218.281 17.125H219.796V13.87C219.796 13.79 219.766 13.72 219.706 13.66C219.656 13.6 219.591 13.57 219.511 13.57H218.566C218.486 13.57 218.416 13.6 218.356 13.66C218.306 13.72 218.281 13.79 218.281 13.87V17.125ZM230.241 12.295C231.481 12.295 232.101 12.955 232.101 14.275V16.21C232.101 17.53 231.481 18.19 230.241 18.19H228.546V22H226.446V12.295H230.241ZM230.001 16.45V14.035C230.001 13.955 229.971 13.885 229.911 13.825C229.861 13.765 229.796 13.735 229.716 13.735H228.546V16.75H229.716C229.796 16.75 229.861 16.72 229.911 16.66C229.971 16.6 230.001 16.53 230.001 16.45ZM241.87 14.125V20.17C241.87 21.49 241.25 22.15 240.01 22.15H238.015C236.775 22.15 236.155 21.49 236.155 20.17V14.125C236.155 12.805 236.775 12.145 238.015 12.145H240.01C241.25 12.145 241.87 12.805 241.87 14.125ZM239.77 20.41V13.87C239.77 13.79 239.74 13.72 239.68 13.66C239.63 13.6 239.565 13.57 239.485 13.57H238.54C238.46 13.57 238.39 13.6 238.33 13.66C238.28 13.72 238.255 13.79 238.255 13.87V20.41C238.255 20.49 238.28 20.56 238.33 20.62C238.39 20.68 238.46 20.71 238.54 20.71H239.485C239.565 20.71 239.63 20.68 239.68 20.62C239.74 20.56 239.77 20.49 239.77 20.41ZM251.986 22H249.886V13.945C249.886 13.865 249.856 13.795 249.796 13.735C249.746 13.675 249.681 13.645 249.601 13.645H248.791C248.711 13.645 248.641 13.675 248.581 13.735C248.531 13.795 248.506 13.865 248.506 13.945V22H246.406V14.125C246.406 12.805 247.026 12.145 248.266 12.145H250.126C251.366 12.145 251.986 12.805 251.986 14.125V22ZM264.526 20.23H266.821V22H262.426V12.295H264.526V20.23ZM276.531 14.125V20.17C276.531 21.49 275.911 22.15 274.671 22.15H272.676C271.436 22.15 270.816 21.49 270.816 20.17V14.125C270.816 12.805 271.436 12.145 272.676 12.145H274.671C275.911 12.145 276.531 12.805 276.531 14.125ZM274.431 20.41V13.87C274.431 13.79 274.401 13.72 274.341 13.66C274.291 13.6 274.226 13.57 274.146 13.57H273.201C273.121 13.57 273.051 13.6 272.991 13.66C272.941 13.72 272.916 13.79 272.916 13.87V20.41C272.916 20.49 272.941 20.56 272.991 20.62C273.051 20.68 273.121 20.71 273.201 20.71H274.146C274.226 20.71 274.291 20.68 274.341 20.62C274.401 20.56 274.431 20.49 274.431 20.41ZM284.937 12.145C286.177 12.145 286.797 12.805 286.797 14.125V22H284.697V18.745H283.182V22H281.082V14.125C281.082 12.805 281.702 12.145 282.942 12.145H284.937ZM283.182 17.125H284.697V13.87C284.697 13.79 284.667 13.72 284.607 13.66C284.557 13.6 284.492 13.57 284.412 13.57H283.467C283.387 13.57 283.317 13.6 283.257 13.66C283.207 13.72 283.182 13.79 283.182 13.87V17.125ZM295.217 12.295C296.457 12.295 297.077 12.955 297.077 14.275V20.02C297.077 21.34 296.457 22 295.217 22H291.362V12.295H295.217ZM294.977 20.26V14.02C294.977 13.94 294.947 13.87 294.887 13.81C294.837 13.75 294.772 13.72 294.692 13.72H293.462V20.56H294.692C294.772 20.56 294.837 20.53 294.887 20.47C294.947 20.41 294.977 20.34 294.977 20.26ZM307.358 14.125V20.17C307.358 21.49 306.738 22.15 305.498 22.15H303.503C302.263 22.15 301.643 21.49 301.643 20.17V14.125C301.643 12.805 302.263 12.145 303.503 12.145H305.498C306.738 12.145 307.358 12.805 307.358 14.125ZM305.258 20.41V13.87C305.258 13.79 305.228 13.72 305.168 13.66C305.118 13.6 305.053 13.57 304.973 13.57H304.028C303.948 13.57 303.878 13.6 303.818 13.66C303.768 13.72 303.743 13.79 303.743 13.87V20.41C303.743 20.49 303.768 20.56 303.818 20.62C303.878 20.68 303.948 20.71 304.028 20.71H304.973C305.053 20.71 305.118 20.68 305.168 20.62C305.228 20.56 305.258 20.49 305.258 20.41ZM315.373 12.295H317.473V20.17C317.473 21.49 316.853 22.15 315.613 22.15H313.753C312.513 22.15 311.893 21.49 311.893 20.17V12.295H313.993V20.35C313.993 20.43 314.018 20.5 314.068 20.56C314.128 20.62 314.198 20.65 314.278 20.65H315.088C315.168 20.65 315.233 20.62 315.283 20.56C315.343 20.5 315.373 20.43 315.373 20.35V12.295ZM321.355 14.08V12.295H326.605V14.08H325.03V22H322.93V14.08H321.355Z" fill="white"/>
<rect x="1190" y="1" width="628" height="34" fill="black" stroke="#3C3C3C" stroke-width="2"/>
<path d="M1550.31 14.845H1548.32V14.08C1548.32 14 1548.29 13.93 1548.23 13.87C1548.18 13.81 1548.11 13.78 1548.03 13.78H1547.21C1547.13 13.78 1547.06 13.81 1547 13.87C1546.95 13.93 1546.92 14 1546.92 14.08V15.805C1546.92 15.885 1546.95 15.955 1547 16.015C1547.06 16.075 1547.13 16.105 1547.21 16.105H1548.56C1549.8 16.125 1550.42 16.785 1550.42 18.085V20.17C1550.42 21.49 1549.8 22.15 1548.56 22.15H1546.79C1545.55 22.15 1544.93 21.49 1544.93 20.17V19.165H1546.92V20.245C1546.92 20.325 1546.95 20.395 1547 20.455C1547.06 20.515 1547.13 20.545 1547.21 20.545H1548.14C1548.22 20.545 1548.28 20.515 1548.33 20.455C1548.39 20.395 1548.42 20.325 1548.42 20.245V18.34C1548.42 18.26 1548.39 18.19 1548.33 18.13C1548.28 18.07 1548.22 18.04 1548.14 18.04H1546.79C1545.55 18.04 1544.93 17.38 1544.93 16.06V14.125C1544.93 12.805 1545.55 12.145 1546.79 12.145H1548.45C1549.69 12.145 1550.31 12.805 1550.31 14.125V14.845ZM1556.9 20.26H1559.22V22H1554.8V12.295H1559.22V14.005H1556.9V16.285H1559.07V17.935H1556.9V20.26ZM1567.29 12.145C1568.53 12.145 1569.15 12.805 1569.15 14.125V20.17C1569.15 21.49 1568.53 22.15 1567.29 22.15H1567.26V22.9C1567.26 23.05 1567.34 23.125 1567.49 23.125H1567.97V24.595H1567.08C1566.59 24.595 1566.21 24.445 1565.93 24.145C1565.66 23.855 1565.52 23.525 1565.52 23.155V22.15H1565.3C1564.06 22.15 1563.44 21.49 1563.44 20.17V14.125C1563.44 12.805 1564.06 12.145 1565.3 12.145H1567.29ZM1565.54 13.87V20.41C1565.54 20.49 1565.56 20.56 1565.61 20.62C1565.67 20.68 1565.74 20.71 1565.82 20.71H1566.77C1566.85 20.71 1566.91 20.68 1566.96 20.62C1567.02 20.56 1567.05 20.49 1567.05 20.41V13.87C1567.05 13.79 1567.02 13.72 1566.96 13.66C1566.91 13.6 1566.85 13.57 1566.77 13.57H1565.82C1565.74 13.57 1565.67 13.6 1565.61 13.66C1565.56 13.72 1565.54 13.79 1565.54 13.87ZM1577.02 12.295H1579.12V20.17C1579.12 21.49 1578.5 22.15 1577.26 22.15H1575.4C1574.16 22.15 1573.54 21.49 1573.54 20.17V12.295H1575.64V20.35C1575.64 20.43 1575.67 20.5 1575.72 20.56C1575.78 20.62 1575.85 20.65 1575.93 20.65H1576.74C1576.82 20.65 1576.88 20.62 1576.93 20.56C1576.99 20.5 1577.02 20.43 1577.02 20.35V12.295ZM1585.65 22H1583.55V14.125C1583.55 12.805 1584.17 12.145 1585.41 12.145H1586.52C1587.25 12.145 1587.77 12.385 1588.08 12.865C1588.37 12.385 1588.89 12.145 1589.64 12.145H1590.75C1591.99 12.145 1592.61 12.805 1592.61 14.125V22H1590.51V13.945C1590.51 13.865 1590.48 13.795 1590.42 13.735C1590.37 13.675 1590.3 13.645 1590.22 13.645H1589.41C1589.33 13.645 1589.26 13.675 1589.2 13.735C1589.15 13.795 1589.13 13.865 1589.13 13.945V22H1587.03V13.945C1587.03 13.865 1587 13.795 1586.94 13.735C1586.89 13.675 1586.82 13.645 1586.74 13.645H1585.93C1585.85 13.645 1585.78 13.675 1585.72 13.735C1585.67 13.795 1585.65 13.865 1585.65 13.945V22ZM1599.15 20.26H1601.47V22H1597.05V12.295H1601.47V14.005H1599.15V16.285H1601.32V17.935H1599.15V20.26ZM1611.25 22H1609.15V13.945C1609.15 13.865 1609.12 13.795 1609.06 13.735C1609.01 13.675 1608.95 13.645 1608.87 13.645H1608.06C1607.98 13.645 1607.91 13.675 1607.85 13.735C1607.8 13.795 1607.77 13.865 1607.77 13.945V22H1605.67V14.125C1605.67 12.805 1606.29 12.145 1607.53 12.145H1609.39C1610.63 12.145 1611.25 12.805 1611.25 14.125V22ZM1615.11 14.08V12.295H1620.36V14.08H1618.78V22H1616.68V14.08H1615.11ZM1630.03 14.125V20.17C1630.03 21.49 1629.41 22.15 1628.17 22.15H1626.17C1624.93 22.15 1624.31 21.49 1624.31 20.17V14.125C1624.31 12.805 1624.93 12.145 1626.17 12.145H1628.17C1629.41 12.145 1630.03 12.805 1630.03 14.125ZM1627.93 20.41V13.87C1627.93 13.79 1627.9 13.72 1627.84 13.66C1627.79 13.6 1627.72 13.57 1627.64 13.57H1626.7C1626.62 13.57 1626.55 13.6 1626.49 13.66C1626.44 13.72 1626.41 13.79 1626.41 13.87V20.41C1626.41 20.49 1626.44 20.56 1626.49 20.62C1626.55 20.68 1626.62 20.71 1626.7 20.71H1627.64C1627.72 20.71 1627.79 20.68 1627.84 20.62C1627.9 20.56 1627.93 20.49 1627.93 20.41ZM1639.97 14.845H1637.97V14.08C1637.97 14 1637.94 13.93 1637.88 13.87C1637.83 13.81 1637.77 13.78 1637.69 13.78H1636.86C1636.78 13.78 1636.71 13.81 1636.65 13.87C1636.6 13.93 1636.58 14 1636.58 14.08V15.805C1636.58 15.885 1636.6 15.955 1636.65 16.015C1636.71 16.075 1636.78 16.105 1636.86 16.105H1638.21C1639.45 16.125 1640.07 16.785 1640.07 18.085V20.17C1640.07 21.49 1639.45 22.15 1638.21 22.15H1636.44C1635.2 22.15 1634.58 21.49 1634.58 20.17V19.165H1636.58V20.245C1636.58 20.325 1636.6 20.395 1636.65 20.455C1636.71 20.515 1636.78 20.545 1636.86 20.545H1637.79C1637.87 20.545 1637.94 20.515 1637.99 20.455C1638.05 20.395 1638.08 20.325 1638.08 20.245V18.34C1638.08 18.26 1638.05 18.19 1637.99 18.13C1637.94 18.07 1637.87 18.04 1637.79 18.04H1636.44C1635.2 18.04 1634.58 17.38 1634.58 16.06V14.125C1634.58 12.805 1635.2 12.145 1636.44 12.145H1638.11C1639.35 12.145 1639.97 12.805 1639.97 14.125V14.845ZM1655.69 16.81V18.415H1650.57V16.81H1655.69ZM1670.2 12.295H1672.22L1670.21 22H1667.8L1665.79 12.295H1667.83L1669.01 19.375L1670.2 12.295ZM1679.89 12.295H1681.76V22H1679.89V18.175H1678.13C1676.89 18.175 1676.27 17.515 1676.27 16.195V12.295H1678.13V16.105C1678.13 16.185 1678.16 16.255 1678.21 16.315C1678.27 16.375 1678.34 16.405 1678.42 16.405H1679.6C1679.68 16.405 1679.75 16.375 1679.8 16.315C1679.86 16.255 1679.89 16.185 1679.89 16.105V12.295ZM1686.39 21.07C1686.39 20.77 1686.5 20.515 1686.71 20.305C1686.92 20.095 1687.17 19.99 1687.47 19.99C1687.77 19.99 1688.03 20.095 1688.24 20.305C1688.45 20.515 1688.55 20.77 1688.55 21.07C1688.55 21.37 1688.45 21.625 1688.24 21.835C1688.03 22.045 1687.77 22.15 1687.47 22.15C1687.17 22.15 1686.92 22.045 1686.71 21.835C1686.5 21.625 1686.39 21.37 1686.39 21.07ZM1697.79 17.035C1698.26 17.365 1698.5 17.93 1698.5 18.73V20.17C1698.5 21.49 1697.88 22.15 1696.64 22.15H1694.87C1693.63 22.15 1693.01 21.49 1693.01 20.17V19.375H1694.88V20.26C1694.88 20.34 1694.91 20.41 1694.96 20.47C1695.02 20.53 1695.09 20.56 1695.17 20.56H1696.35C1696.43 20.56 1696.5 20.53 1696.55 20.47C1696.61 20.41 1696.64 20.34 1696.64 20.26V18.19C1696.64 18.11 1696.61 18.04 1696.55 17.98C1696.5 17.92 1696.43 17.89 1696.35 17.89H1694.81V16.27H1696.26C1696.34 16.27 1696.41 16.24 1696.46 16.18C1696.52 16.12 1696.55 16.05 1696.55 15.97V14.08C1696.55 14 1696.52 13.93 1696.46 13.87C1696.41 13.81 1696.34 13.78 1696.26 13.78H1695.26C1695.18 13.78 1695.11 13.81 1695.05 13.87C1695 13.93 1694.97 14 1694.97 14.08V15.04H1693.1V14.125C1693.1 12.805 1693.72 12.145 1694.96 12.145H1696.55C1697.79 12.145 1698.41 12.805 1698.41 14.125V15.415C1698.41 16.195 1698.2 16.735 1697.79 17.035ZM1708.4 14.125V20.17C1708.4 21.49 1707.78 22.15 1706.54 22.15H1704.75C1703.51 22.15 1702.89 21.49 1702.89 20.17V14.125C1702.89 12.805 1703.51 12.145 1704.75 12.145H1706.54C1707.78 12.145 1708.4 12.805 1708.4 14.125ZM1706.36 20.41V13.87C1706.36 13.79 1706.33 13.72 1706.27 13.66C1706.22 13.6 1706.15 13.57 1706.07 13.57H1705.22C1705.14 13.57 1705.07 13.6 1705.01 13.66C1704.96 13.72 1704.93 13.79 1704.93 13.87V20.41C1704.93 20.49 1704.96 20.56 1705.01 20.62C1705.07 20.68 1705.14 20.71 1705.22 20.71H1706.07C1706.15 20.71 1706.22 20.68 1706.27 20.62C1706.33 20.56 1706.36 20.49 1706.36 20.41ZM1714.91 12.31V22.015H1712.87V12.31H1714.91Z" fill="white"/>
<path d="M1797 9L1815 27M1815 9L1797 27" stroke="white"/>
<path d="M843.314 14.845H841.319V14.08C841.319 14 841.289 13.93 841.229 13.87C841.179 13.81 841.114 13.78 841.034 13.78H840.209C840.129 13.78 840.059 13.81 839.999 13.87C839.949 13.93 839.924 14 839.924 14.08V15.805C839.924 15.885 839.949 15.955 839.999 16.015C840.059 16.075 840.129 16.105 840.209 16.105H841.559C842.799 16.125 843.419 16.785 843.419 18.085V20.17C843.419 21.49 842.799 22.15 841.559 22.15H839.789C838.549 22.15 837.929 21.49 837.929 20.17V19.165H839.924V20.245C839.924 20.325 839.949 20.395 839.999 20.455C840.059 20.515 840.129 20.545 840.209 20.545H841.139C841.219 20.545 841.284 20.515 841.334 20.455C841.394 20.395 841.424 20.325 841.424 20.245V18.34C841.424 18.26 841.394 18.19 841.334 18.13C841.284 18.07 841.219 18.04 841.139 18.04H839.789C838.549 18.04 837.929 17.38 837.929 16.06V14.125C837.929 12.805 838.549 12.145 839.789 12.145H841.454C842.694 12.145 843.314 12.805 843.314 14.125V14.845ZM849.899 20.26H852.224V22H847.799V12.295H852.224V14.005H849.899V16.285H852.074V17.935H849.899V20.26ZM860.294 12.145C861.534 12.145 862.154 12.805 862.154 14.125V20.17C862.154 21.49 861.534 22.15 860.294 22.15H860.264V22.9C860.264 23.05 860.339 23.125 860.489 23.125H860.969V24.595H860.084C859.594 24.595 859.209 24.445 858.929 24.145C858.659 23.855 858.524 23.525 858.524 23.155V22.15H858.299C857.059 22.15 856.439 21.49 856.439 20.17V14.125C856.439 12.805 857.059 12.145 858.299 12.145H860.294ZM858.539 13.87V20.41C858.539 20.49 858.564 20.56 858.614 20.62C858.674 20.68 858.744 20.71 858.824 20.71H859.769C859.849 20.71 859.914 20.68 859.964 20.62C860.024 20.56 860.054 20.49 860.054 20.41V13.87C860.054 13.79 860.024 13.72 859.964 13.66C859.914 13.6 859.849 13.57 859.769 13.57H858.824C858.744 13.57 858.674 13.6 858.614 13.66C858.564 13.72 858.539 13.79 858.539 13.87ZM870.023 12.295H872.123V20.17C872.123 21.49 871.503 22.15 870.263 22.15H868.403C867.163 22.15 866.543 21.49 866.543 20.17V12.295H868.643V20.35C868.643 20.43 868.668 20.5 868.718 20.56C868.778 20.62 868.848 20.65 868.928 20.65H869.738C869.818 20.65 869.883 20.62 869.933 20.56C869.993 20.5 870.023 20.43 870.023 20.35V12.295ZM878.645 22H876.545V14.125C876.545 12.805 877.165 12.145 878.405 12.145H879.515C880.245 12.145 880.765 12.385 881.075 12.865C881.365 12.385 881.885 12.145 882.635 12.145H883.745C884.985 12.145 885.605 12.805 885.605 14.125V22H883.505V13.945C883.505 13.865 883.475 13.795 883.415 13.735C883.365 13.675 883.3 13.645 883.22 13.645H882.41C882.33 13.645 882.26 13.675 882.2 13.735C882.15 13.795 882.125 13.865 882.125 13.945V22H880.025V13.945C880.025 13.865 879.995 13.795 879.935 13.735C879.885 13.675 879.82 13.645 879.74 13.645H878.93C878.85 13.645 878.78 13.675 878.72 13.735C878.67 13.795 878.645 13.865 878.645 13.945V22ZM892.148 20.26H894.473V22H890.048V12.295H894.473V14.005H892.148V16.285H894.323V17.935H892.148V20.26ZM904.253 22H902.153V13.945C902.153 13.865 902.123 13.795 902.063 13.735C902.013 13.675 901.948 13.645 901.868 13.645H901.058C900.978 13.645 900.908 13.675 900.848 13.735C900.798 13.795 900.773 13.865 900.773 13.945V22H898.673V14.125C898.673 12.805 899.293 12.145 900.533 12.145H902.393C903.633 12.145 904.253 12.805 904.253 14.125V22ZM908.106 14.08V12.295H913.356V14.08H911.781V22H909.681V14.08H908.106ZM923.03 14.125V20.17C923.03 21.49 922.41 22.15 921.17 22.15H919.175C917.935 22.15 917.315 21.49 917.315 20.17V14.125C917.315 12.805 917.935 12.145 919.175 12.145H921.17C922.41 12.145 923.03 12.805 923.03 14.125ZM920.93 20.41V13.87C920.93 13.79 920.9 13.72 920.84 13.66C920.79 13.6 920.725 13.57 920.645 13.57H919.7C919.62 13.57 919.55 13.6 919.49 13.66C919.44 13.72 919.415 13.79 919.415 13.87V20.41C919.415 20.49 919.44 20.56 919.49 20.62C919.55 20.68 919.62 20.71 919.7 20.71H920.645C920.725 20.71 920.79 20.68 920.84 20.62C920.9 20.56 920.93 20.49 920.93 20.41ZM932.966 14.845H930.971V14.08C930.971 14 930.941 13.93 930.881 13.87C930.831 13.81 930.766 13.78 930.686 13.78H929.861C929.781 13.78 929.711 13.81 929.651 13.87C929.601 13.93 929.576 14 929.576 14.08V15.805C929.576 15.885 929.601 15.955 929.651 16.015C929.711 16.075 929.781 16.105 929.861 16.105H931.211C932.451 16.125 933.071 16.785 933.071 18.085V20.17C933.071 21.49 932.451 22.15 931.211 22.15H929.441C928.201 22.15 927.581 21.49 927.581 20.17V19.165H929.576V20.245C929.576 20.325 929.601 20.395 929.651 20.455C929.711 20.515 929.781 20.545 929.861 20.545H930.791C930.871 20.545 930.936 20.515 930.986 20.455C931.046 20.395 931.076 20.325 931.076 20.245V18.34C931.076 18.26 931.046 18.19 930.986 18.13C930.936 18.07 930.871 18.04 930.791 18.04H929.441C928.201 18.04 927.581 17.38 927.581 16.06V14.125C927.581 12.805 928.201 12.145 929.441 12.145H931.106C932.346 12.145 932.966 12.805 932.966 14.125V14.845ZM948.688 16.81V18.415H943.573V16.81H948.688ZM963.198 12.295H965.223L963.213 22H960.798L958.788 12.295H960.828L962.013 19.375L963.198 12.295ZM972.885 12.295H974.76V22H972.885V18.175H971.13C969.89 18.175 969.27 17.515 969.27 16.195V12.295H971.13V16.105C971.13 16.185 971.155 16.255 971.205 16.315C971.265 16.375 971.335 16.405 971.415 16.405H972.6C972.68 16.405 972.745 16.375 972.795 16.315C972.855 16.255 972.885 16.185 972.885 16.105V12.295ZM979.392 21.07C979.392 20.77 979.497 20.515 979.707 20.305C979.917 20.095 980.172 19.99 980.472 19.99C980.772 19.99 981.027 20.095 981.237 20.305C981.447 20.515 981.552 20.77 981.552 21.07C981.552 21.37 981.447 21.625 981.237 21.835C981.027 22.045 980.772 22.15 980.472 22.15C980.172 22.15 979.917 22.045 979.707 21.835C979.497 21.625 979.392 21.37 979.392 21.07ZM990.791 17.035C991.261 17.365 991.496 17.93 991.496 18.73V20.17C991.496 21.49 990.876 22.15 989.636 22.15H987.866C986.626 22.15 986.006 21.49 986.006 20.17V19.375H987.881V20.26C987.881 20.34 987.906 20.41 987.956 20.47C988.016 20.53 988.086 20.56 988.166 20.56H989.351C989.431 20.56 989.496 20.53 989.546 20.47C989.606 20.41 989.636 20.34 989.636 20.26V18.19C989.636 18.11 989.606 18.04 989.546 17.98C989.496 17.92 989.431 17.89 989.351 17.89H987.806V16.27H989.261C989.341 16.27 989.406 16.24 989.456 16.18C989.516 16.12 989.546 16.05 989.546 15.97V14.08C989.546 14 989.516 13.93 989.456 13.87C989.406 13.81 989.341 13.78 989.261 13.78H988.256C988.176 13.78 988.106 13.81 988.046 13.87C987.996 13.93 987.971 14 987.971 14.08V15.04H986.096V14.125C986.096 12.805 986.716 12.145 987.956 12.145H989.546C990.786 12.145 991.406 12.805 991.406 14.125V15.415C991.406 16.195 991.201 16.735 990.791 17.035ZM1001.4 14.125V20.17C1001.4 21.49 1000.78 22.15 999.537 22.15H997.752C996.512 22.15 995.892 21.49 995.892 20.17V14.125C995.892 12.805 996.512 12.145 997.752 12.145H999.537C1000.78 12.145 1001.4 12.805 1001.4 14.125ZM999.357 20.41V13.87C999.357 13.79 999.327 13.72 999.267 13.66C999.217 13.6 999.152 13.57 999.072 13.57H998.217C998.137 13.57 998.067 13.6 998.007 13.66C997.957 13.72 997.932 13.79 997.932 13.87V20.41C997.932 20.49 997.957 20.56 998.007 20.62C998.067 20.68 998.137 20.71 998.217 20.71H999.072C999.152 20.71 999.217 20.68 999.267 20.62C999.327 20.56 999.357 20.49 999.357 20.41ZM1007.91 12.31V22.015H1005.87V12.31H1007.91Z" fill="white"/>
<path d="M1090 9L1108 27M1108 9L1090 27" stroke="white"/>
<path d="M1201 13H1213M1201 16H1213M1201 19H1213M1201 22H1213" stroke="#E2E2E2"/>
<rect x="1225" y="10" width="108" height="15" fill="#D9D9D9"/>
<path d="M1230.51 18.19V22H1228.41V12.295H1230.51V16.36H1232.17V12.295H1234.27V22H1232.17V18.19H1230.51ZM1242.24 12.295H1244.34V20.17C1244.34 21.49 1243.72 22.15 1242.48 22.15H1240.62C1239.38 22.15 1238.76 21.49 1238.76 20.17V12.295H1240.86V20.35C1240.86 20.43 1240.89 20.5 1240.94 20.56C1241 20.62 1241.07 20.65 1241.15 20.65H1241.96C1242.04 20.65 1242.1 20.62 1242.15 20.56C1242.21 20.5 1242.24 20.43 1242.24 20.35V12.295ZM1252.63 12.295C1253.87 12.295 1254.49 12.955 1254.49 14.275V20.02C1254.49 21.34 1253.87 22 1252.63 22H1248.78V12.295H1252.63ZM1252.39 20.26V14.02C1252.39 13.94 1252.36 13.87 1252.3 13.81C1252.25 13.75 1252.19 13.72 1252.11 13.72H1250.88V20.56H1252.11C1252.19 20.56 1252.25 20.53 1252.3 20.47C1252.36 20.41 1252.39 20.34 1252.39 20.26ZM1264.54 14.08V12.295H1269.79V14.08H1268.21V22H1266.11V14.08H1264.54ZM1279.46 14.125V20.17C1279.46 21.49 1278.84 22.15 1277.6 22.15H1275.61C1274.37 22.15 1273.75 21.49 1273.75 20.17V14.125C1273.75 12.805 1274.37 12.145 1275.61 12.145H1277.6C1278.84 12.145 1279.46 12.805 1279.46 14.125ZM1277.36 20.41V13.87C1277.36 13.79 1277.33 13.72 1277.27 13.66C1277.22 13.6 1277.16 13.57 1277.08 13.57H1276.13C1276.05 13.57 1275.98 13.6 1275.92 13.66C1275.87 13.72 1275.85 13.79 1275.85 13.87V20.41C1275.85 20.49 1275.87 20.56 1275.92 20.62C1275.98 20.68 1276.05 20.71 1276.13 20.71H1277.08C1277.16 20.71 1277.22 20.68 1277.27 20.62C1277.33 20.56 1277.36 20.49 1277.36 20.41ZM1289.73 14.125V20.17C1289.73 21.49 1289.11 22.15 1287.87 22.15H1285.87C1284.63 22.15 1284.01 21.49 1284.01 20.17V14.125C1284.01 12.805 1284.63 12.145 1285.87 12.145H1287.87C1289.11 12.145 1289.73 12.805 1289.73 14.125ZM1287.63 20.41V13.87C1287.63 13.79 1287.6 13.72 1287.54 13.66C1287.49 13.6 1287.42 13.57 1287.34 13.57H1286.4C1286.32 13.57 1286.25 13.6 1286.19 13.66C1286.14 13.72 1286.11 13.79 1286.11 13.87V20.41C1286.11 20.49 1286.14 20.56 1286.19 20.62C1286.25 20.68 1286.32 20.71 1286.4 20.71H1287.34C1287.42 20.71 1287.49 20.68 1287.54 20.62C1287.6 20.56 1287.63 20.49 1287.63 20.41ZM1296.38 20.23H1298.67V22H1294.28V12.295H1296.38V20.23ZM1314.74 12.295L1313.09 16.75L1315.06 22H1312.91L1311.47 18.16H1310.8V22H1308.7V12.295H1310.8V16.36H1311.31L1312.82 12.295H1314.74ZM1320.87 12.295V22H1318.77V12.295H1320.87ZM1324.88 14.08V12.295H1330.13V14.08H1328.56V22H1326.46V14.08H1324.88Z" fill="black"/>
<path d="M1355.95 12.295V22H1353.85V12.295H1355.95ZM1366.08 22H1363.98V13.945C1363.98 13.865 1363.95 13.795 1363.89 13.735C1363.84 13.675 1363.78 13.645 1363.7 13.645H1362.89C1362.81 13.645 1362.74 13.675 1362.68 13.735C1362.63 13.795 1362.6 13.865 1362.6 13.945V22H1360.5V14.125C1360.5 12.805 1361.12 12.145 1362.36 12.145H1364.22C1365.46 12.145 1366.08 12.805 1366.08 14.125V22ZM1374.27 12.295C1375.51 12.295 1376.13 12.955 1376.13 14.275V16.21C1376.13 17.53 1375.51 18.19 1374.27 18.19H1372.57V22H1370.47V12.295H1374.27ZM1374.03 16.45V14.035C1374.03 13.955 1374 13.885 1373.94 13.825C1373.89 13.765 1373.82 13.735 1373.74 13.735H1372.57V16.75H1373.74C1373.82 16.75 1373.89 16.72 1373.94 16.66C1374 16.6 1374.03 16.53 1374.03 16.45ZM1383.65 12.295H1385.75V20.17C1385.75 21.49 1385.13 22.15 1383.89 22.15H1382.03C1380.79 22.15 1380.17 21.49 1380.17 20.17V12.295H1382.27V20.35C1382.27 20.43 1382.29 20.5 1382.34 20.56C1382.4 20.62 1382.47 20.65 1382.55 20.65H1383.36C1383.44 20.65 1383.51 20.62 1383.56 20.56C1383.62 20.5 1383.65 20.43 1383.65 20.35V12.295ZM1389.63 14.08V12.295H1394.88V14.08H1393.31V22H1391.21V14.08H1389.63ZM1406.97 20.23H1409.27V22H1404.87V12.295H1406.97V20.23ZM1418.98 14.125V20.17C1418.98 21.49 1418.36 22.15 1417.12 22.15H1415.12C1413.88 22.15 1413.26 21.49 1413.26 20.17V14.125C1413.26 12.805 1413.88 12.145 1415.12 12.145H1417.12C1418.36 12.145 1418.98 12.805 1418.98 14.125ZM1416.88 20.41V13.87C1416.88 13.79 1416.85 13.72 1416.79 13.66C1416.74 13.6 1416.67 13.57 1416.59 13.57H1415.65C1415.57 13.57 1415.5 13.6 1415.44 13.66C1415.39 13.72 1415.36 13.79 1415.36 13.87V20.41C1415.36 20.49 1415.39 20.56 1415.44 20.62C1415.5 20.68 1415.57 20.71 1415.65 20.71H1416.59C1416.67 20.71 1416.74 20.68 1416.79 20.62C1416.85 20.56 1416.88 20.49 1416.88 20.41ZM1426.36 18.145V16.6H1429.14V20.17C1429.14 21.49 1428.52 22.15 1427.28 22.15H1425.39C1424.15 22.15 1423.53 21.49 1423.53 20.17V14.125C1423.53 12.805 1424.15 12.145 1425.39 12.145H1427.28C1428.52 12.145 1429.14 12.805 1429.14 14.125V15.04H1427.14V13.87C1427.14 13.79 1427.11 13.72 1427.05 13.66C1427 13.6 1426.94 13.57 1426.86 13.57H1425.91C1425.83 13.57 1425.76 13.6 1425.7 13.66C1425.65 13.72 1425.63 13.79 1425.63 13.87V20.41C1425.63 20.49 1425.65 20.56 1425.7 20.62C1425.76 20.68 1425.83 20.71 1425.91 20.71H1426.86C1426.94 20.71 1427 20.68 1427.05 20.62C1427.11 20.56 1427.14 20.49 1427.14 20.41V18.145H1426.36ZM1436.13 18.145V16.6H1438.91V20.17C1438.91 21.49 1438.29 22.15 1437.05 22.15H1435.16C1433.92 22.15 1433.3 21.49 1433.3 20.17V14.125C1433.3 12.805 1433.92 12.145 1435.16 12.145H1437.05C1438.29 12.145 1438.91 12.805 1438.91 14.125V15.04H1436.91V13.87C1436.91 13.79 1436.88 13.72 1436.82 13.66C1436.77 13.6 1436.71 13.57 1436.63 13.57H1435.68C1435.6 13.57 1435.53 13.6 1435.47 13.66C1435.42 13.72 1435.4 13.79 1435.4 13.87V20.41C1435.4 20.49 1435.42 20.56 1435.47 20.62C1435.53 20.68 1435.6 20.71 1435.68 20.71H1436.63C1436.71 20.71 1436.77 20.68 1436.82 20.62C1436.88 20.56 1436.91 20.49 1436.91 20.41V18.145H1436.13ZM1445.16 20.26H1447.49V22H1443.06V12.295H1447.49V14.005H1445.16V16.285H1447.34V17.935H1445.16V20.26ZM1453.8 18.025V22H1451.7V12.295H1455.44C1456.68 12.295 1457.3 12.955 1457.3 14.275V15.4C1457.3 16.2 1457.01 16.71 1456.44 16.93C1456.94 17.11 1457.19 17.52 1457.19 18.16V22H1455.09V18.325C1455.09 18.125 1455 18.025 1454.81 18.025H1453.8ZM1453.8 13.72V16.555H1454.91C1454.99 16.555 1455.06 16.525 1455.11 16.465C1455.17 16.405 1455.2 16.335 1455.2 16.255V14.02C1455.2 13.94 1455.17 13.87 1455.11 13.81C1455.06 13.75 1454.99 13.72 1454.91 13.72H1453.8Z" fill="white"/>
<rect x="297" y="62" width="20" height="20" fill="#3C3C3C"/>
<path d="M955 54V684" stroke="#6B6B6B" stroke-width="4"/>
<path d="M325 54V702" stroke="#6B6B6B" stroke-width="4"/>
<path d="M52.1645 67.69H48.1745V66.16C48.1745 66 48.1145 65.86 47.9945 65.74C47.8945 65.62 47.7645 65.56 47.6045 65.56H45.9545C45.7945 65.56 45.6545 65.62 45.5345 65.74C45.4345 65.86 45.3845 66 45.3845 66.16V69.61C45.3845 69.77 45.4345 69.91 45.5345 70.03C45.6545 70.15 45.7945 70.21 45.9545 70.21H48.6545C51.1345 70.25 52.3745 71.57 52.3745 74.17V78.34C52.3745 80.98 51.1345 82.3 48.6545 82.3H45.1145C42.6345 82.3 41.3945 80.98 41.3945 78.34V76.33H45.3845V78.49C45.3845 78.65 45.4345 78.79 45.5345 78.91C45.6545 79.03 45.7945 79.09 45.9545 79.09H47.8145C47.9745 79.09 48.1045 79.03 48.2045 78.91C48.3245 78.79 48.3845 78.65 48.3845 78.49V74.68C48.3845 74.52 48.3245 74.38 48.2045 74.26C48.1045 74.14 47.9745 74.08 47.8145 74.08H45.1145C42.6345 74.08 41.3945 72.76 41.3945 70.12V66.25C41.3945 63.61 42.6345 62.29 45.1145 62.29H48.4445C50.9245 62.29 52.1645 63.61 52.1645 66.25V67.69ZM68.3948 62.59C70.8748 62.59 72.1148 63.91 72.1148 66.55V70.42C72.1148 73.06 70.8748 74.38 68.3948 74.38H65.0048V82H60.8048V62.59H68.3948ZM67.9148 70.9V66.07C67.9148 65.91 67.8548 65.77 67.7348 65.65C67.6348 65.53 67.5048 65.47 67.3448 65.47H65.0048V71.5H67.3448C67.5048 71.5 67.6348 71.44 67.7348 71.32C67.8548 71.2 67.9148 71.06 67.9148 70.9ZM84.1234 78.52H88.7734V82H79.9234V62.59H88.7734V66.01H84.1234V70.57H88.4734V73.87H84.1234V78.52ZM101.103 78.46H105.693V82H96.9027V62.59H101.103V78.46ZM117.584 78.46H122.174V82H113.384V62.59H117.584V78.46ZM140.635 67.69H136.645V66.16C136.645 66 136.585 65.86 136.465 65.74C136.365 65.62 136.235 65.56 136.075 65.56H134.425C134.265 65.56 134.125 65.62 134.005 65.74C133.905 65.86 133.855 66 133.855 66.16V69.61C133.855 69.77 133.905 69.91 134.005 70.03C134.125 70.15 134.265 70.21 134.425 70.21H137.125C139.605 70.25 140.845 71.57 140.845 74.17V78.34C140.845 80.98 139.605 82.3 137.125 82.3H133.585C131.105 82.3 129.865 80.98 129.865 78.34V76.33H133.855V78.49C133.855 78.65 133.905 78.79 134.005 78.91C134.125 79.03 134.265 79.09 134.425 79.09H136.285C136.445 79.09 136.575 79.03 136.675 78.91C136.795 78.79 136.855 78.65 136.855 78.49V74.68C136.855 74.52 136.795 74.38 136.675 74.26C136.575 74.14 136.445 74.08 136.285 74.08H133.585C131.105 74.08 129.865 72.76 129.865 70.12V66.25C129.865 63.61 131.105 62.29 133.585 62.29H136.915C139.395 62.29 140.635 63.61 140.635 66.25V67.69Z" fill="white"/>
<rect x="154" y="66" width="135" height="12" fill="#3C3C3C"/>
<path d="M37 90H320" stroke="#6B6B6B"/>
<path d="M37 108H320" stroke="#6B6B6B"/>
<path d="M46.233 102H44.833V96.63C44.833 96.5767 44.813 96.53 44.773 96.49C44.7397 96.45 44.6964 96.43 44.643 96.43H44.103C44.0497 96.43 44.003 96.45 43.963 96.49C43.9297 96.53 43.913 96.5767 43.913 96.63V102H42.513V96.75C42.513 95.87 42.9264 95.43 43.753 95.43H44.993C45.8197 95.43 46.233 95.87 46.233 96.75V102ZM51.6415 95.43C52.4682 95.43 52.8815 95.87 52.8815 96.75V102H51.4815V99.83H50.4715V102H49.0715V96.75C49.0715 95.87 49.4848 95.43 50.3115 95.43H51.6415ZM50.4715 98.75H51.4815V96.58C51.4815 96.5267 51.4615 96.48 51.4215 96.44C51.3882 96.4 51.3448 96.38 51.2915 96.38H50.6615C50.6082 96.38 50.5615 96.4 50.5215 96.44C50.4882 96.48 50.4715 96.5267 50.4715 96.58V98.75ZM57.215 102H55.815V96.75C55.815 95.87 56.2283 95.43 57.055 95.43H57.795C58.2817 95.43 58.6283 95.59 58.835 95.91C59.0283 95.59 59.375 95.43 59.875 95.43H60.615C61.4417 95.43 61.855 95.87 61.855 96.75V102H60.455V96.63C60.455 96.5767 60.435 96.53 60.395 96.49C60.3617 96.45 60.3183 96.43 60.265 96.43H59.725C59.6717 96.43 59.625 96.45 59.585 96.49C59.5517 96.53 59.535 96.5767 59.535 96.63V102H58.135V96.63C58.135 96.5767 58.115 96.53 58.075 96.49C58.0417 96.45 57.9983 96.43 57.945 96.43H57.405C57.3517 96.43 57.305 96.45 57.265 96.49C57.2317 96.53 57.215 96.5767 57.215 96.63V102ZM66.1172 100.84H67.6672V102H64.7172V95.53H67.6672V96.67H66.1172V98.19H67.5672V99.29H66.1172V100.84Z" fill="#FFF600"/>
<path d="M278.98 96.72V95.53H282.48V96.72H281.43V102H280.03V96.72H278.98ZM286.42 95.53V102H285.02V95.53H286.42ZM290.761 100.84H292.311V102H289.361V95.53H292.311V96.67H290.761V98.19H292.211V99.29H290.761V100.84ZM296.421 99.35V102H295.021V95.53H297.511C298.338 95.53 298.751 95.97 298.751 96.85V97.6C298.751 98.1333 298.561 98.4733 298.181 98.62C298.514 98.74 298.681 99.0133 298.681 99.44V102H297.281V99.55C297.281 99.4167 297.218 99.35 297.091 99.35H296.421ZM296.421 96.48V98.37H297.161C297.214 98.37 297.258 98.35 297.291 98.31C297.331 98.27 297.351 98.2233 297.351 98.17V96.68C297.351 96.6267 297.331 96.58 297.291 96.54C297.258 96.5 297.214 96.48 297.161 96.48H296.421Z" fill="#FFF600"/>
<path d="M301 67H313M301 70.3333H313M301 73.6667H313M301 77H313" stroke="#E2E2E2"/>
<path d="M206.111 96.72V95.53H209.611V96.72H208.561V102H207.161V96.72H206.111ZM215.901 95.53L214.511 99.64V102H213.111V99.64L211.721 95.53H213.041L213.811 98.23L214.581 95.53H215.901ZM220.916 95.53C221.743 95.53 222.156 95.97 222.156 96.85V98.14C222.156 99.02 221.743 99.46 220.916 99.46H219.786V102H218.386V95.53H220.916ZM220.756 98.3V96.69C220.756 96.6367 220.736 96.59 220.696 96.55C220.663 96.51 220.62 96.49 220.566 96.49H219.786V98.5H220.566C220.62 98.5 220.663 98.48 220.696 98.44C220.736 98.4 220.756 98.3533 220.756 98.3ZM226.159 100.84H227.709V102H224.759V95.53H227.709V96.67H226.159V98.19H227.609V99.29H226.159V100.84Z" fill="#FFF600"/>
</svg>
