<svg width="638" height="58" viewBox="0 0 638 58" fill="none" xmlns="http://www.w3.org/2000/svg">
<rect x="7" y="32" width="123" height="26" fill="black"/>
<rect x="47" y="27.9749" width="9.88171" height="7.05329" transform="rotate(-135 47 27.9749)" fill="black"/>
<rect x="119.023" y="47.0227" width="17.0027" height="15.5242" transform="rotate(-45 119.023 47.0227)" fill="black"/>
<rect x="7" y="16" width="38" height="23" fill="black"/>
<rect y="23" width="18" height="28" fill="black"/>
<rect y="23" width="9.8995" height="7.05024" transform="rotate(-45 0 23)" fill="black"/>
<rect x="7" y="58" width="9.8995" height="7.03552" transform="rotate(-135 7 58)" fill="black"/>
<rect x="7" y="32" width="123" height="26" fill="black"/>
<rect x="50.3367" y="29.3242" width="14.6183" height="7.05329" transform="rotate(-135 50.3367 29.3242)" fill="black"/>
<rect x="119.023" y="47.0227" width="17.0027" height="15.5242" transform="rotate(-45 119.023 47.0227)" fill="black"/>
<rect x="7" y="14" width="38" height="21" fill="black"/>
<rect y="21" width="18" height="30" fill="black"/>
<rect y="21" width="9.8995" height="7.05024" transform="rotate(-45 0 21)" fill="black"/>
<rect x="87.5042" y="24.4959" width="34.6424" height="23.5642" transform="rotate(-45 87.5042 24.4959)" fill="black"/>
<rect x="7" y="58" width="9.8995" height="7.03552" transform="rotate(-135 7 58)" fill="black"/>
<rect width="123" height="26" transform="matrix(-1 0 0 1 630.023 32)" fill="black"/>
<rect width="9.88171" height="7.05329" transform="matrix(0.707107 -0.707107 -0.707107 -0.707107 590.023 27.9749)" fill="black"/>
<rect width="17.0027" height="15.5242" transform="matrix(-0.707107 -0.707107 -0.707107 0.707107 518 47.0227)" fill="black"/>
<rect width="38" height="23" transform="matrix(-1 0 0 1 630.023 16)" fill="black"/>
<rect width="18" height="28" transform="matrix(-1 0 0 1 637.023 23)" fill="black"/>
<rect width="9.8995" height="7.05024" transform="matrix(-0.707107 -0.707107 -0.707107 0.707107 637.023 23)" fill="black"/>
<rect width="9.8995" height="7.03552" transform="matrix(0.707107 -0.707107 -0.707107 -0.707107 630.023 58)" fill="black"/>
<rect width="123" height="26" transform="matrix(-1 0 0 1 630.023 32)" fill="black"/>
<rect width="14.6183" height="7.05329" transform="matrix(0.707107 -0.707107 -0.707107 -0.707107 586.686 29.3242)" fill="black"/>
<rect x="112" width="414" height="53" fill="black"/>
<rect width="17.0027" height="15.5242" transform="matrix(-0.707107 -0.707107 -0.707107 0.707107 518 47.0227)" fill="black"/>
<rect width="38" height="21" transform="matrix(-1 0 0 1 630.023 14)" fill="black"/>
<rect width="18" height="30" transform="matrix(-1 0 0 1 637.023 21)" fill="black"/>
<rect width="9.8995" height="7.05024" transform="matrix(-0.707107 -0.707107 -0.707107 0.707107 637.023 21)" fill="black"/>
<rect width="57.5519" height="22.1238" transform="matrix(-0.707107 -0.707107 -0.707107 0.707107 566.681 40.6954)" fill="black"/>
<rect width="9.8995" height="7.03552" transform="matrix(0.707107 -0.707107 -0.707107 -0.707107 630.023 58)" fill="black"/>
</svg>
